<svg xmlns="http://www.w3.org/2000/svg" xmlns:xlink="http://www.w3.org/1999/xlink" width="62" height="66.242" viewBox="0 0 62 66.242">
  <defs>
    <filter id="Union_10" x="0" y="0" width="62" height="66.242" filterUnits="userSpaceOnUse">
      <feOffset dy="4" input="SourceAlpha"/>
      <feGaussianBlur stdDeviation="5" result="blur"/>
      <feFlood flood-color="#768a96" flood-opacity="0.078"/>
      <feComposite operator="in" in2="blur"/>
      <feComposite in="SourceGraphic"/>
    </filter>
  </defs>
  <g id="Symbol_26_6" data-name="Symbol 26 – 6" transform="translate(-144 -202)">
    <g transform="matrix(1, 0, 0, 1, 144, 202)" filter="url(#Union_10)">
      <g id="Union_10-2" data-name="Union 10" transform="translate(2611 -87)" fill="#4bbfa7">
        <path d="M -2580.000244140625 133.5350952148438 L -2583.889404296875 129.6460418701172 L -2584.035888671875 129.4996032714844 L -2584.242919921875 129.4996032714844 L -2591.000244140625 129.4996032714844 C -2593.481201171875 129.4996032714844 -2595.499755859375 127.4811325073242 -2595.499755859375 125.0001068115234 L -2595.499755859375 102.9996032714844 C -2595.499755859375 100.5185775756836 -2593.481201171875 98.50010681152344 -2591.000244140625 98.50010681152344 L -2568.999755859375 98.50010681152344 C -2566.518798828125 98.50010681152344 -2564.500244140625 100.5185775756836 -2564.500244140625 102.9996032714844 L -2564.500244140625 125.0001068115234 C -2564.500244140625 127.4811325073242 -2566.518798828125 129.4996032714844 -2568.999755859375 129.4996032714844 L -2575.7578125 129.4996032714844 L -2575.96484375 129.4996032714844 L -2576.111328125 129.6460571289062 L -2580.000244140625 133.5350952148438 Z" stroke="none"/>
        <path d="M -2580.000244140625 132.8279876708984 L -2576.46484375 129.2925109863281 L -2576.172119140625 128.9996032714844 L -2575.7578125 128.9996032714844 L -2568.999755859375 128.9996032714844 C -2566.79443359375 128.9996032714844 -2565.000244140625 127.205436706543 -2565.000244140625 125.0001068115234 L -2565.000244140625 102.9996032714844 C -2565.000244140625 100.7942733764648 -2566.79443359375 99.00010681152344 -2568.999755859375 99.00010681152344 L -2591.000244140625 99.00010681152344 C -2593.20556640625 99.00010681152344 -2594.999755859375 100.7942733764648 -2594.999755859375 102.9996032714844 L -2594.999755859375 125.0001068115234 C -2594.999755859375 127.205436706543 -2593.20556640625 128.9996032714844 -2591.000244140625 128.9996032714844 L -2584.242919921875 128.9996032714844 L -2583.82861328125 128.9996032714844 L -2583.535888671875 129.2924957275391 L -2580.000244140625 132.8279876708984 M -2580.000244140625 134.2422027587891 L -2584.242919921875 129.9996032714844 L -2591.000244140625 129.9996032714844 C -2593.761474609375 129.9996032714844 -2595.999755859375 127.7613067626953 -2595.999755859375 125.0001068115234 L -2595.999755859375 102.9996032714844 C -2595.999755859375 100.2384033203125 -2593.761474609375 98.00010681152344 -2591.000244140625 98.00010681152344 L -2568.999755859375 98.00010681152344 C -2566.238525390625 98.00010681152344 -2564.000244140625 100.2384033203125 -2564.000244140625 102.9996032714844 L -2564.000244140625 125.0001068115234 C -2564.000244140625 127.7613067626953 -2566.238525390625 129.9996032714844 -2568.999755859375 129.9996032714844 L -2575.7578125 129.9996032714844 L -2580.000244140625 134.2422027587891 Z" stroke="none" fill="#fff"/>
      </g>
    </g>
    <g id="Location" transform="translate(57 -532)">
      <path id="path" d="M18.653,15.445l-5.074,4.779a.845.845,0,0,1-1.157,0L7.347,15.445a7.786,7.786,0,0,1,0-11.142,8.091,8.091,0,0,1,11.306,0,7.786,7.786,0,0,1,0,11.142ZM17.47,5.5a6.4,6.4,0,0,0-8.94,0,6.109,6.109,0,0,0-.013,8.742L13,18.46l4.476-4.215A6.113,6.113,0,0,0,17.47,5.5ZM13,13.323a3.355,3.355,0,1,1,3.368-3.355A3.362,3.362,0,0,1,13,13.323Zm0-1.677a1.677,1.677,0,1,0-1.684-1.677A1.681,1.681,0,0,0,13,11.645Z" transform="translate(105 750)" fill="#fff"/>
    </g>
  </g>
</svg>
