<svg xmlns="http://www.w3.org/2000/svg" xmlns:xlink="http://www.w3.org/1999/xlink" width="62" height="66.243" viewBox="0 0 62 66.243">
  <defs>
    <filter id="Union_9" x="0" y="0" width="62" height="66.243" filterUnits="userSpaceOnUse">
      <feOffset dy="4" input="SourceAlpha"/>
      <feGaussianBlur stdDeviation="5" result="blur"/>
      <feFlood flood-color="#768a96" flood-opacity="0.078"/>
      <feComposite operator="in" in2="blur"/>
      <feComposite in="SourceGraphic"/>
    </filter>
  </defs>
  <g id="Symbol_27_6" data-name="Symbol 27 – 6" transform="translate(-239 -359)">
    <g transform="matrix(1, 0, 0, 1, 239, 359)" filter="url(#Union_9)">
      <g id="Union_9-2" data-name="Union 9" transform="translate(2651 -100)" fill="#768a96">
        <path d="M -2620 146.5356140136719 L -2623.88916015625 142.6465454101562 L -2624.03564453125 142.5001068115234 L -2624.24267578125 142.5001068115234 L -2630.999755859375 142.5001068115234 C -2633.4814453125 142.5001068115234 -2635.500244140625 140.4812469482422 -2635.500244140625 137.9997100830078 L -2635.500244140625 116.0000991821289 C -2635.500244140625 113.5185699462891 -2633.4814453125 111.4997024536133 -2630.999755859375 111.4997024536133 L -2609.000244140625 111.4997024536133 C -2606.5185546875 111.4997024536133 -2604.499755859375 113.5185699462891 -2604.499755859375 116.0000991821289 L -2604.499755859375 137.9997100830078 C -2604.499755859375 140.4812469482422 -2606.5185546875 142.5001068115234 -2609.000244140625 142.5001068115234 L -2615.75732421875 142.5001068115234 L -2615.96435546875 142.5001068115234 L -2616.11083984375 142.6465454101562 L -2620 146.5356140136719 Z" stroke="none"/>
        <path d="M -2620 145.8285064697266 L -2616.46435546875 142.2929992675781 L -2616.171630859375 142.0001068115234 L -2615.75732421875 142.0001068115234 L -2609.000244140625 142.0001068115234 C -2606.79443359375 142.0001068115234 -2604.999755859375 140.2055358886719 -2604.999755859375 137.9997100830078 L -2604.999755859375 116.0000991821289 C -2604.999755859375 113.7942733764648 -2606.79443359375 111.9997024536133 -2609.000244140625 111.9997024536133 L -2630.999755859375 111.9997024536133 C -2633.20556640625 111.9997024536133 -2635.000244140625 113.7942733764648 -2635.000244140625 116.0000991821289 L -2635.000244140625 137.9997100830078 C -2635.000244140625 140.2055358886719 -2633.20556640625 142.0001068115234 -2630.999755859375 142.0001068115234 L -2624.24267578125 142.0001068115234 L -2623.828369140625 142.0001068115234 L -2623.53564453125 142.2929992675781 L -2620 145.8285064697266 M -2620 147.2427062988281 L -2624.24267578125 143.0001068115234 L -2630.999755859375 143.0001068115234 C -2633.761962890625 143.0001068115234 -2636.000244140625 140.7618103027344 -2636.000244140625 137.9997100830078 L -2636.000244140625 116.0000991821289 C -2636.000244140625 113.238899230957 -2633.761962890625 110.9997024536133 -2630.999755859375 110.9997024536133 L -2609.000244140625 110.9997024536133 C -2606.239013671875 110.9997024536133 -2603.999755859375 113.238899230957 -2603.999755859375 116.0000991821289 L -2603.999755859375 137.9997100830078 C -2603.999755859375 140.7618103027344 -2606.239013671875 143.0001068115234 -2609.000244140625 143.0001068115234 L -2615.75732421875 143.0001068115234 L -2620 147.2427062988281 Z" stroke="none" fill="#fff"/>
      </g>
    </g>
    <g id="Location" transform="translate(152 -375)">
      <path id="path" d="M18.653,15.445l-5.074,4.779a.845.845,0,0,1-1.157,0L7.347,15.445a7.786,7.786,0,0,1,0-11.142,8.091,8.091,0,0,1,11.306,0,7.786,7.786,0,0,1,0,11.142ZM17.47,5.5a6.4,6.4,0,0,0-8.94,0,6.109,6.109,0,0,0-.013,8.742L13,18.46l4.476-4.215A6.113,6.113,0,0,0,17.47,5.5ZM13,13.323a3.355,3.355,0,1,1,3.368-3.355A3.362,3.362,0,0,1,13,13.323Zm0-1.677a1.677,1.677,0,1,0-1.684-1.677A1.681,1.681,0,0,0,13,11.645Z" transform="translate(105 750)" fill="#fff"/>
    </g>
  </g>
</svg>
