<?xml version="1.0" encoding="utf-8"?>
<!-- Generator: Adobe Illustrator 24.0.0, SVG Export Plug-In . SVG Version: 6.00 Build 0)  -->
<svg version="1.1" id="Layer_1" xmlns="http://www.w3.org/2000/svg" xmlns:xlink="http://www.w3.org/1999/xlink" x="0px" y="0px"
	 width="300px" height="300px" viewBox="0 0 300 300" style="enable-background:new 0 0 300 300;" xml:space="preserve">
<style type="text/css">
	.st0{opacity:0.4;fill:#4D4D4F;enable-background:new    ;}
	.st1{fill:#603813;}
	.st2{fill:#0F2A4B;}
	.st3{fill:#C3996B;}
	.st4{fill:#F9C992;}
	.st5{fill:#FFFFFF;}
	.st6{fill:#E1AA73;}
	.st7{fill:#F0F0F0;}
	.st8{fill:#FAC882;}
	.st9{fill:#23323C;}
	.st10{fill:#F1F1F2;}
	.st11{fill:#4ABFA8;}
</style>
<ellipse class="st0" cx="96.6" cy="256.7" rx="29.2" ry="11.6"/>
<g>
	<g>
		<path class="st1" d="M96.3,245.9c0,0-1.1,1.6,0,2.6s18.7,7.7,21.3,5.2c2.6-2.5-12.1-12-14.6-11.6
			C100.5,242.4,96.3,245.9,96.3,245.9z"/>
		<path class="st1" d="M76.6,249c0,0-2.1,6.4-1.8,10.7c0.2,4.4,1.5,6.2,4.3,6.6c2.8,0.3,5.6-2.8,5.6-7c0-4.4-0.8-12.1-0.8-12.1
			L76.6,249z"/>
		<path class="st2" d="M105.1,156.4c0,0-15.9,3.9-36.7,2.1l6.4,90.3c0,0,9.3,3.8,10.8-0.7c0.7-5.4,3.8-61.8,3.4-64.7
			c3.6,4.8,6.1,54.6,6.4,63.4c0,0,8.4,1.5,9.8-4.1C106.4,237.2,107.6,177.7,105.1,156.4z"/>
		<path class="st1" d="M105.1,156.4l0.3,4.4c0,0-12.8,2.3-33.9,1.8c-1.3-3.3-1.3-4.3-1.3-4.3L105.1,156.4z"/>
		<rect x="100.4" y="156.9" class="st3" width="1.8" height="5.4"/>
		<rect x="75.8" y="158.2" class="st3" width="1.8" height="5.4"/>
		<rect x="86.9" y="157.8" class="st3" width="5.1" height="5.4"/>
		<path class="st4" d="M63.7,171.6c0,0,0.8,5.7,1.1,7.5c0.3,1.6,3.1,2.8,4.3,2.8c1.1,0,3.3-0.7,3.6-3.8c0.3-3.1-0.7-8.7-0.7-8.7
			S66.9,167.8,63.7,171.6z"/>
		<path class="st4" d="M137.8,110.6c0,0,5.1-4.4,6.7-5.7c1.5-1.1,4.8-0.2,5.7,0.8c1,1,2.5,3.1,0.2,6.1c-2.1,3-7.2,7.2-7.2,7.2
			S137.8,116.4,137.8,110.6z"/>
		<g>
			<path class="st5" d="M81.9,89.2c0,0-15.4,2.6-18.5,8.2s-4.1,30.3-4.1,30.3l11,2.5l-1.6,28.4c0,0,7.2,0.7,19.3,0.2
				c12.9-0.5,17.4-2.3,17.4-2.3s2-27.2,0.2-37c4.6-1.8,7.7-4.1,7.7-4.1s-3.3-22.5-4.9-24.3C106.4,89.3,94.8,85.2,81.9,89.2z"/>
			<path class="st4" d="M82.2,84.6c0,0-0.5,4.9-0.3,6.6s2.8,5.6,8.2,4.6c5.4-1,4.1-1.3,3.9-3.6c-0.2-2.1-0.7-6.6-0.7-6.6L82.2,84.6z
				"/>
			<path class="st6" d="M92.8,86.9c0,0-10,0.2-10.8-1.1c-0.2,2.8-0.2,2.8-0.2,2.8S89.2,90.3,92.8,86.9z"/>
			<path class="st7" d="M73.2,106.9c0,0-5.9-12.9-9.2-10.5c-3.3,2.5-3.9,5.2-3.9,5.2c-0.2,3.1-1.6,33.6-2.1,36.4s-0.5,3.8,0,6.2
				c0.5,2.3,3.6,21.6,4.6,28.4c3.3-3.1,9.3-3.3,9.3-3.3v-2l-2.8-18.5c-0.8-3.8-1-8.9-0.7-10.8c0.3-2.1,1.1-8.5,2.6-8L73.2,106.9z"/>
			<path class="st7" d="M105.5,119.5c0,0,16.4,15.7,17.7,16.2c1.3,0.5,2.8-0.8,4.1-1.8c1.3-1.1,16.7-13.4,16.7-13.4l-5.7-11
				l-13.9,10c0,0-13.1-26.2-15.9-28.2"/>
		</g>
		<g>
			<g>
				<path class="st4" d="M88.3,87.8L88.3,87.8c-6.4,0-11.6-5.1-11.8-11.5l-0.3-14.1h24.1V76C100.2,82.4,94.8,87.8,88.3,87.8z"/>
				<path class="st8" d="M79.2,77.2L79.2,77.2c-2,0-3.4-1.5-3.4-3.4l-0.2-4.3h7.2v4.1C82.8,75.7,81.2,77.2,79.2,77.2z"/>
			</g>
			<path class="st1" d="M73.8,58.8c1.5-2.1,7.7-7.2,11.8-7c4.1,0.2,9.2,1.1,11.1,3.8c0.5,0.7,1.5,1.3,2.6,1.8c3,1.3,3.8,5.1,1.8,7.5
				c-1.8,2.3-4.6,4.1-7.9,4.1c-6.9-0.2-10.8-3.3-10.8-3.3s-1.5,1-1.1,2.1c0.3,1.1-0.3,4.3-0.3,5.1s-1.3,0-1.3,0s-2-3.1-3.8-1.1
				C73.3,71.3,71,62.9,73.8,58.8z"/>
		</g>
	</g>
</g>
<path class="st9" d="M79.2,89.6c-4.6,1-13.6,3.4-15.9,7.7c8.4,6.4,7.2,23.4,7.2,23.4l-1.3,27.9c0,0,1.1,6.7,1.3,10
	c3,0.2,9,0.3,17.5,0c12.9-0.5,17.4-2.3,17.4-2.3s2-27.2,0.2-37c3.8-16.2,4.6-26.6,2.8-28.4c-1.1-1.1-6.1-3.1-12.8-3.4
	c0,0-1.3,14.1-4.4,18.4C84.8,101.6,79.2,89.6,79.2,89.6z"/>
<g>
	<polygon class="st10" points="89.9,95.7 84.8,101.6 79.2,89.8 81.4,86.5 	"/>
	<polygon class="st10" points="89.9,95.7 94.5,100.1 95.3,87.8 93.2,85.7 	"/>
</g>
<g>
	<g>
		<path class="st11" d="M100.2,102.6L100.2,102.6l1-0.5l0,0l0.3-1.3l0,0L100.2,102.6z"/>
	</g>
	<g>
		<path class="st11" d="M102.8,102.3L102.8,102.3l-1-0.2l0,0l-0.3-1.3l0,0L102.8,102.3z"/>
	</g>
	<g>
		<path class="st11" d="M95.6,105.7l0.3-0.3c0.2,0.2,0.3,0.2,0.3,0.2c0.2,0,0.3-0.2,0.3-0.3v-1.5H97v1.5c0,0.3,0,0.5-0.2,0.7
			c-0.2-0.2-0.3,0-0.5,0C96.1,105.9,95.8,105.9,95.6,105.7z"/>
	</g>
	<g>
		<path class="st11" d="M97.9,103.4l1.6-0.2v0.5l-1.1,0.2v0.3l1-0.2v0.5l-1,0.2v0.5l1.1-0.2v0.5l-1.6,0.2V103.4z"/>
	</g>
	<g>
		<path class="st11" d="M104,103.9l-0.8-1.1l0.5-0.2l0.5,0.8l0.5-1h0.5l-0.8,1.5v0.8h-0.5L104,103.9L104,103.9z"/>
	</g>
	<g>
		<polygon class="st11" points="101.4,105.2 101.4,102.9 100.2,103.1 100.2,103.6 100.9,103.4 100.9,105.2 		"/>
	</g>
	<g>
		<polygon class="st11" points="101.7,105.1 101.7,102.9 102.8,102.8 102.8,103.3 102,103.3 102,105.1 		"/>
	</g>
</g>
<g transform="matrix(1, 0, 0, 1, 0, 0)">
	<path id="Rectangle-2_5_" class="st7" d="M241.4,92.9l-65.6-37.4c-2.5-1.3-4.3-0.5-4.3,1.8v108.4c0,2.5,2,5.4,4.3,6.7l65.6,37.4
		c2.5,1.3,4.3,0.5,4.3-1.8V99.8C245.6,97.4,243.8,94.4,241.4,92.9z"/>
</g>
<polygon class="st9" points="240.9,114.4 176.1,76.9 176.1,72.1 240.9,109.6 "/>
<polygon class="st9" points="240.9,127 176.1,89.5 176.1,84.7 240.9,122.4 "/>
<polygon class="st9" points="240.9,139.8 176.1,102.1 176.1,97.4 240.9,135.1 "/>
<polygon class="st9" points="212.5,136 176.1,114.7 176.1,110.1 212.5,131.3 "/>
<g>
	<path class="st5" d="M100.2,73.4c0,0-3,2.2-4,2.4c-1.1,0.2-11-0.7-11-0.7v11.2c0,0,6.8,2.2,9.2,2.1c1.1,0,4-2.2,4.4-3.3
		C100.2,80.4,100.2,73.4,100.2,73.4z"/>
	<polygon class="st5" points="85.2,75.1 79.5,72.7 79.8,73.9 84.7,76.3 84.6,84.7 77.7,78.8 77.8,79.9 85.2,86.3 	"/>
</g>
</svg>
