<?xml version="1.0" encoding="utf-8"?>
<!-- Generator: Adobe Illustrator 24.0.0, SVG Export Plug-In . SVG Version: 6.00 Build 0)  -->
<svg version="1.1" id="Layer_1" xmlns="http://www.w3.org/2000/svg" xmlns:xlink="http://www.w3.org/1999/xlink" x="0px" y="0px"
	 width="300px" height="300px" viewBox="0 0 300 300" style="enable-background:new 0 0 300 300;" xml:space="preserve">
<style type="text/css">
	.st0{fill:#3A2416;}
	.st1{fill:url(#SVGID_1_);}
	.st2{fill:#009247;}
	.st3{fill:#8AC440;}
	.st4{fill:#E5E6E6;}
	.st5{fill:#D5E6EE;}
	.st6{fill:#BFCEDE;}
	.st7{fill:#F1F1F1;}
	.st8{fill:#CFD1D2;}
	.st9{fill:#FFFFFF;}
	.st10{fill:#603917;}
	.st11{fill:#BABCBE;}
	.st12{fill:#919395;}
	.st13{fill:#8CBBD7;}
	.st14{fill:none;}
	.st15{fill:#D4E1E6;}
	.st16{fill:#576771;}
	.st17{clip-path:url(#SVGID_3_);}
	.st18{opacity:0.7;fill:#8A8786;}
	.st19{fill:url(#SVGID_4_);}
	.st20{enable-background:new    ;}
	.st21{fill:#414141;}
	.st22{fill:url(#SVGID_5_);}
	.st23{fill:#51504E;}
	.st24{fill:#333130;}
	.st25{clip-path:url(#SVGID_7_);fill:#191715;}
	.st26{clip-path:url(#SVGID_7_);}
	.st27{fill:#858F94;}
	.st28{fill:url(#SVGID_8_);}
	.st29{opacity:0.5;fill:#AEB7BC;}
	.st30{opacity:0.8;fill:#C7CDD0;}
	.st31{fill:url(#SVGID_9_);}
	.st32{clip-path:url(#SVGID_11_);fill:#191715;}
	.st33{clip-path:url(#SVGID_11_);}
	.st34{fill:url(#SVGID_12_);}
	.st35{fill:url(#SVGID_13_);}
	.st36{fill:url(#SVGID_14_);}
	.st37{opacity:0.7;fill:#59595C;}
	.st38{opacity:0.4;fill:url(#SVGID_15_);}
	.st39{fill:url(#SVGID_16_);}
	.st40{fill:#B52126;}
	.st41{opacity:0.8;fill:#334647;}
	.st42{fill:#303E41;}
	.st43{fill:#202B2D;}
	.st44{fill:#F2F9F6;}
	.st45{fill:#F9A53A;}
	.st46{fill:url(#SVGID_17_);}
	.st47{opacity:0.6;fill:#2E3133;}
	.st48{fill:url(#SVGID_18_);}
	.st49{opacity:0.4;fill:#AB2925;}
	.st50{opacity:0.8;fill:url(#SVGID_19_);}
	.st51{opacity:0.4;fill:url(#SVGID_20_);}
	.st52{opacity:0.6;fill:#919395;}
	.st53{opacity:0.4;fill:#221F1F;}
	.st54{fill:#34383A;}
	.st55{fill:#CDCCCC;}
	.st56{fill:url(#SVGID_21_);}
	.st57{opacity:0.4;fill:#802319;}
	.st58{fill:url(#SVGID_22_);}
	.st59{fill:url(#SVGID_23_);}
</style>
<g>
	<g>
		<g>
			<path class="st0" d="M246.6,114.8L246.6,114.8c-0.5,0.5-0.5,1.3,0,1.8l12.1,12.1c0.5,0.5,1.3,0.5,1.8,0l0,0
				c0.5-0.5,0.5-1.3,0-1.8l-12.1-12.1C247.9,114.3,247.1,114.3,246.6,114.8z"/>
			<path class="st0" d="M268.8,114L268.8,114c-0.3-0.3-0.8-0.3-1.1,0l-7.7,7.7c-0.3,0.3-0.3,0.8,0,1.1l0,0c0.3,0.3,0.8,0.3,1.1,0
				l7.7-7.7C269.1,114.8,269.1,114.3,268.8,114z"/>
			<path class="st0" d="M258.1,113.8L258.1,113.8c0.2-0.2,0.2-0.6,0-0.9l-5.8-5.8c-0.2-0.2-0.6-0.2-0.9,0l0,0
				c-0.2,0.2-0.2,0.6,0,0.9l5.8,5.8C257.5,114,257.9,114,258.1,113.8z"/>
			<path class="st0" d="M258.9,111.4L258.9,111.4c-1.4,0-2.5,1.1-2.5,2.5v25.9c0,1.4,1.1,2.5,2.5,2.5l0,0c1.4,0,2.5-1.1,2.5-2.5
				v-25.9C261.5,112.5,260.3,111.4,258.9,111.4z"/>
			<path class="st0" d="M258.9,102.9L258.9,102.9c-1.4,0-2.5,1.1-2.5,2.5v34.4c0,1.4,1.1,2.5,2.5,2.5l0,0c1.4,0,2.5-1.1,2.5-2.5
				v-34.4C261.5,104,260.3,102.9,258.9,102.9z"/>
			
				<linearGradient id="SVGID_1_" gradientUnits="userSpaceOnUse" x1="-363.4479" y1="122.8466" x2="-363.4479" y2="72.4068" gradientTransform="matrix(1 0 0 1 623.2869 0)">
				<stop  offset="0" style="stop-color:#36B24A;stop-opacity:0"/>
				<stop  offset="0.6639" style="stop-color:#36B24A"/>
			</linearGradient>
			<path class="st1" d="M259,122.8c6.3-0.9,7.9-0.6,11.4-3.9c3.5-3.3,10.3-6,12-14s0.9-8.9-1.5-14.6s-0.4-10.5-7.6-14.4
				c-7.2-3.9-7.9-3.6-17-3.4c-9.2,0.2-9.2-0.5-13.8,5.9s-6.6,7.7-5.9,17.8s0.9,10.5,4.6,16.6s3.7,8.4,8.7,9
				C254.9,122.5,259,122.8,259,122.8z"/>
			<path class="st2" d="M251.7,104.7c1.1,1.5,1.3,2.9,0.6,3.4c-0.7,0.5-2-0.1-3.1-1.6c-1.1-1.5-0.7-3.6-0.7-3.6
				S250.6,103.2,251.7,104.7z"/>
			<path class="st2" d="M261,91.6c1.1,1.5,1.3,2.9,0.6,3.4c-0.7,0.5-2-0.1-3.1-1.6c-1.1-1.5-0.7-3.6-0.7-3.6S259.9,90.1,261,91.6z"
				/>
			<path class="st2" d="M274.7,96.3c-1.1,1.5-2.5,2-3.1,1.5c-0.7-0.5-0.4-1.9,0.7-3.4c1.1-1.5,3.3-1.7,3.3-1.7
				S275.9,94.8,274.7,96.3z"/>
			<path class="st2" d="M270.9,112.7c-1.1,1.5-2.3,2.1-3,1.7s-0.5-1.9,0.5-3.4c1.1-1.5,3.2-1.9,3.2-1.9S272,111.2,270.9,112.7z"/>
			<path class="st3" d="M267,84.1c-1.1,1.5-2.3,2.1-3,1.7c-0.7-0.5-0.5-1.9,0.5-3.4c1.1-1.5,3.2-1.9,3.2-1.9S268.1,82.6,267,84.1z"
				/>
			<path class="st3" d="M263.6,104.3c-1.1,1.5-2.3,2.1-3,1.7s-0.5-1.9,0.5-3.4s3.2-1.9,3.2-1.9S264.7,102.8,263.6,104.3z"/>
			<path class="st3" d="M248.7,84.1c1.5,1.1,2.1,2.3,1.7,3c-0.5,0.7-1.9,0.5-3.4-0.5c-1.5-1.1-1.9-3.2-1.9-3.2S247.2,83,248.7,84.1z
				"/>
		</g>
	</g>
	<polygon class="st4" points="88.7,250.9 244.3,160.7 244.3,143.2 275.5,161.2 119.9,251.3 	"/>
	<polygon class="st5" points="88.7,250.9 88.7,192.2 15.1,149.5 15.1,208.2 	"/>
	<polygon class="st6" points="88.7,250.9 244.3,160.7 244.3,102 88.7,192.2 	"/>
	<g>
		<polygon class="st7" points="104,238.7 122.4,228 122.4,188.5 104,199.1 		"/>
		<polygon class="st8" points="104,238.7 102.1,237.9 102.1,198 104,199.1 		"/>
		<polygon class="st8" points="120.5,191.8 118.6,192.9 118.6,228.2 120.5,229.1 		"/>
		<polygon class="st9" points="102.1,198 120.5,187.4 122.4,188.5 104,199.1 		"/>
		<polygon class="st10" points="105.9,200.3 118.6,192.9 118.6,228.2 105.9,235.4 		"/>
		<polygon class="st8" points="127.4,230.3 108.9,241 103.9,238.7 105.9,237.5 105.9,235.4 118.6,228.2 120.5,229.1 122.4,228 		"/>
		<polygon class="st8" points="115.7,209.6 117.4,208.6 117.4,213 115.7,214 		"/>
		<polygon class="st11" points="108.9,246.3 127.4,235.7 127.4,230.3 108.9,241 		"/>
		<polygon class="st12" points="102.1,237.8 102.1,243.2 108.9,246.3 108.9,241 		"/>
	</g>
	<g>
		<polygon class="st7" points="137,206.9 155.4,196.2 155.4,169.2 137,179.8 		"/>
		<polygon class="st8" points="137,206.9 135.1,205.8 135.1,178.7 137,179.8 		"/>
		<polygon class="st8" points="153.5,172.5 151.6,173.6 151.6,194 153.5,195.1 		"/>
		<polygon class="st9" points="135.1,178.7 153.5,168.1 155.4,169.2 137,179.8 		"/>
		<polygon class="st13" points="138.9,180.9 151.6,173.6 151.6,194 138.9,201.4 		"/>
		<polygon class="st14" points="138.9,201.4 151.6,194 153.5,195.1 138.9,203.6 		"/>
		<polygon class="st15" points="139.1,194.7 151.4,176 151.3,179.1 139.1,197.8 		"/>
		<polygon class="st15" points="139.1,198.5 151.4,179.8 151.3,181 139.1,199.6 		"/>
	</g>
	<g>
		<polygon class="st7" points="55.8,213.9 37.3,203.2 37.3,176.2 55.8,186.9 		"/>
		<polygon class="st8" points="55.8,213.9 57.7,212.8 57.7,185.7 55.8,186.9 		"/>
		<polygon class="st8" points="39.2,179.5 41.2,180.6 41.2,201 39.3,202.1 		"/>
		<polygon class="st9" points="57.7,185.7 39.2,175.1 37.3,176.2 55.8,186.9 		"/>
		<polygon class="st13" points="53.9,188 41.2,180.6 41.2,201 53.9,208.4 		"/>
		<polygon class="st14" points="53.9,208.4 41.2,201 39.3,202.1 53.9,210.6 		"/>
		<polygon class="st15" points="53.6,201.7 41.4,183 41.4,186.2 53.6,204.8 		"/>
		<polygon class="st15" points="53.6,205.5 41.4,186.9 41.4,188 53.6,206.7 		"/>
	</g>
	<polygon class="st8" points="87.7,194.9 249.1,101.4 249.1,97.5 87.7,191 	"/>
	<polygon class="st4" points="87.7,191 249.1,97.5 171.7,52.7 10.4,146.2 	"/>
	<polygon class="st9" points="87.7,194.9 87.7,191 10.4,146.2 10.4,150.1 	"/>
	<g>
		<g>
			<polygon class="st7" points="180.2,197.6 237.4,164.8 237.4,121.7 180.2,154.4 			"/>
			<polygon class="st8" points="180.2,197.6 178.3,196.7 178.3,153.3 180.2,154.4 			"/>
			<polygon class="st8" points="235.5,125 233.6,126.1 233.5,165 235.4,165.9 			"/>
			<polygon class="st9" points="178.3,153.3 235.5,120.6 237.4,121.7 180.2,154.4 			"/>
			<polygon class="st16" points="182.1,155.6 233.6,126.1 233.5,165 182.1,194.2 			"/>
		</g>
		<g>
			<g>
				<defs>
					<polygon id="SVGID_2_" points="182.1,155.6 233.6,126.1 233.5,138.2 251.3,153.7 264.1,184.6 218.9,207.5 182.1,196 					"/>
				</defs>
				<clipPath id="SVGID_3_">
					<use xlink:href="#SVGID_2_"  style="overflow:visible;"/>
				</clipPath>
				<g class="st17">
					<path class="st18" d="M232.5,175.2c0-0.2-0.1-0.3-0.2-0.4c-0.2-0.2-0.3-0.3-0.3-0.3c-0.1-1.3-0.4-2.2-0.5-2.7
						c-0.2-0.5-0.4-1-0.7-1.5c-1.3,2.6-8.5,10.8-20.4,10.9c-2.1,0-4.1-0.5-6-1.4c-11.9-5.8-49.7-28.8-55.1-37.8
						c-1.6,2-1.5,7.5-1.5,7.5s-1.1,0.8-1.3,1.1c-0.4,0.6-0.7,3.4-0.3,4c1.1,1.9,17.1,12.7,16.9,13.4l30.2,17.4c0,0,5.3,2.9,10.9,5.5
						c4.6,2.6,12.2-0.8,17.5-3.5c6.1-3.2,10-6.4,10.7-9.2C232.5,177.2,232.5,175.9,232.5,175.2z"/>
					<g id="_x31__2_">
						<g>
							<linearGradient id="SVGID_4_" gradientUnits="userSpaceOnUse" x1="214.3606" y1="147.9276" x2="212.5868" y2="152.8147">
								<stop  offset="0" style="stop-color:#59595C"/>
								<stop  offset="1" style="stop-color:#414141"/>
							</linearGradient>
							<path class="st19" d="M212.5,149.8c0.3-0.3,1.9-1.8,2.1-1.6c0.4,0.3,0.2,1.9-0.2,2.6c-0.3,0.6-1.9,2.2-2,2
								C212.4,152.4,212.2,150.2,212.5,149.8z"/>
							<g class="st20">
								<path class="st21" d="M155.2,154.6c-0.9,0.5-1.5,1.6-1.6,3.2l24.1-14c0.1-1.6,0.7-2.7,1.6-3.2L155.2,154.6z"/>
								<path class="st21" d="M194.8,177.8c-0.9,0.5-1.1,3.8-0.5,5.3l5.4-3.2l18.6-12.6c0.1-1.6,0.7-2.8,1.6-3.3L194.8,177.8z"/>
								<g>
									<g>
										<linearGradient id="SVGID_5_" gradientUnits="userSpaceOnUse" x1="197.7828" y1="179.5834" x2="203.5211" y2="186.4324">
											<stop  offset="0" style="stop-color:#323232"/>
											<stop  offset="0.2571" style="stop-color:#201F1D"/>
											<stop  offset="1" style="stop-color:#161412"/>
										</linearGradient>
										<path class="st22" d="M202.3,177.4c-1.3-0.8-2.5-0.8-3.4-0.3l-2.5,1.5c0,0,0,0,0,0c-0.9,0.5-1.4,1.5-1.4,3
											c0,3,2.2,6.5,4.8,8c1.5,0.9,2.4,0.9,3.3,0.5l2.6-1.5c0.8-0.5,1.4-1.5,1.4-3C207.1,182.6,204.9,178.9,202.3,177.4z"/>
										<path class="st23" d="M204.5,187c0,3-2.1,4.2-4.7,2.7c-2.6-1.5-4.7-5.2-4.7-8.2c0-3,2.1-4.2,4.7-2.7
											C202.4,180.3,204.5,184,204.5,187z"/>
										<path class="st24" d="M199.8,179.9c-2.1-1.2-3.8-0.2-3.8,2.2c0,2.4,1.7,5.4,3.8,6.6c2.1,1.2,3.8,0.2,3.8-2.2
											C203.6,184.1,201.9,181.1,199.8,179.9z"/>
									</g>
									<g>
										<defs>
											<path id="SVGID_6_" d="M199.8,180.3c1.9,1.1,3.4,3.7,3.4,5.9c0,2.2-1.5,3.1-3.4,2c-1.9-1.1-3.4-3.8-3.4-5.9
												C196.3,180.1,197.9,179.2,199.8,180.3z"/>
										</defs>
										<clipPath id="SVGID_7_">
											<use xlink:href="#SVGID_6_"  style="overflow:visible;"/>
										</clipPath>
										<path class="st25" d="M200.1,180.3c-1.8-1.1-3.3-0.2-3.3,1.9c0,2.1,1.5,4.7,3.3,5.7c1.8,1.1,3.3,0.2,3.3-1.9
											C203.4,183.9,201.9,181.3,200.1,180.3z"/>
										<g class="st26">
											<path class="st27" d="M200.4,180c-1-0.6-1.8-0.6-2.5-0.2l-0.4,0.2c0,0,0,0,0,0c-0.6,0.4-1,1.1-1,2.2c0,2.2,1.5,4.9,3.4,6
												c1,0.6,1.9,0.6,2.6,0.2c0,0-0.1,0.1-0.1,0.1l0.4-0.2c0.6-0.4,1-1.1,1-2.2C203.8,183.7,202.3,181,200.4,180z M197.6,180.3
												l0.1,0.1l1.3,2.3c0,0.1,0.1,0.1,0.1,0.2l-1.8-1l-0.2-0.2C197.1,181.1,197.3,180.7,197.6,180.3z M198.9,183.2
												C198.9,183.2,198.8,183.2,198.9,183.2C198.8,183.2,198.9,183.2,198.9,183.2z M197.9,184.9c-0.4-0.7-0.6-1.5-0.7-2.3
												l1.7,1c0.1,0.1,0.2,0.2,0.3,0.4l0,0c0,0.1,0,0.3-0.1,0.3l-1,0.6L197.9,184.9z M198.2,185.5l0.1-0.2l1-0.5
												c0.1,0,0.1,0,0.2,0c0,0,0.1,0.1,0.1,0.1l0,0c0.1,0.1,0.2,0.3,0.2,0.4l0,2C199.2,186.8,198.6,186.2,198.2,185.5z
												 M199.8,182.6c-0.1,0-0.1-0.1-0.1-0.2l-1.4-2.3l0-0.2c0.4-0.1,1,0,1.5,0.3l0.1,0.3L199.8,182.6z M200.2,180.3
												L200.2,180.3L200.2,180.3L200.2,180.3z M202.5,183.1c0.4,0.7,0.6,1.5,0.7,2.3l-1.7-1c-0.1-0.1-0.2-0.2-0.3-0.4l0,0
												c0-0.1,0-0.3,0-0.3l1-0.6L202.5,183.1z M202.1,182.5l-0.1,0.2l-1,0.5l0,0c-0.1,0-0.2,0-0.2,0c0,0-0.1-0.1-0.1-0.1l0,0
												c-0.1-0.1-0.2-0.3-0.2-0.4l0-2C201.1,181.2,201.7,181.8,202.1,182.5z M200.6,187.8l-0.1-0.3l0.1-2c0.1,0,0.1,0.1,0.1,0.2
												l1.4,2.3l0,0.2C201.6,188.1,201.1,188,200.6,187.8z M202.7,187.7l-0.1-0.1l-1.3-2.3c0-0.1-0.1-0.1-0.1-0.2l1.8,1l0.2,0.2
												C203.2,186.9,203,187.4,202.7,187.7z"/>
											<linearGradient id="SVGID_8_" gradientUnits="userSpaceOnUse" x1="199.9813" y1="179.2803" x2="199.9813" y2="190.8534">
												<stop  offset="0" style="stop-color:#AEB7BC"/>
												<stop  offset="0.5054" style="stop-color:#AEB7BC"/>
												<stop  offset="0.6247" style="stop-color:#B5BDC1"/>
												<stop  offset="0.795" style="stop-color:#C8CDD0"/>
												<stop  offset="0.9952" style="stop-color:#E6E8E7"/>
												<stop  offset="1" style="stop-color:#E7E9E8"/>
											</linearGradient>
											<path class="st28" d="M200,180.2c-1.9-1.1-3.5-0.2-3.5,2c0,2.2,1.5,4.9,3.4,6c1.9,1.1,3.5,0.2,3.5-2
												C203.4,183.9,201.9,181.3,200,180.2z M202.5,183.1c0.4,0.8,0.7,1.8,0.8,2.6l-0.2,0l-1.9-1.1c-0.1-0.1-0.2-0.2-0.3-0.4
												l0,0c0-0.1,0-0.3,0.1-0.3l1.3-0.8L202.5,183.1z M200.3,180.5c0.7,0.5,1.4,1.2,1.9,2l-0.1,0.2l-1.4,0.7
												c-0.1,0-0.1,0-0.2,0c0,0-0.1-0.1-0.1-0.1l0,0c-0.1-0.1-0.2-0.3-0.2-0.4l0-2.2L200.3,180.5z M197.5,180.3l0.2,0.2l1.3,2.3
												c0.1,0.1,0.1,0.3,0,0.4l0,0c0,0.1-0.1,0.1-0.2,0.1l-1.9-1l-0.2-0.2C196.8,181.2,197.1,180.6,197.5,180.3z M197.5,185.1
												c-0.4-0.8-0.7-1.8-0.8-2.6l0.2,0l1.9,1.1c0.1,0.1,0.2,0.2,0.3,0.4l0,0c0,0.1,0,0.3-0.1,0.3l-1.3,0.8L197.5,185.1z
												 M199.7,187.7c-0.7-0.5-1.4-1.2-1.9-2l0.1-0.2l1.4-0.7c0.1,0,0.1,0,0.2,0c0,0,0.1,0.1,0.1,0.1l0,0
												c0.1,0.1,0.2,0.3,0.2,0.4l0,2.2L199.7,187.7z M199.8,182.7c0,0.1-0.1,0.2-0.2,0.2l0,0c0,0-0.1,0-0.1,0
												c-0.1,0-0.1-0.1-0.2-0.2l-1.4-2.3l-0.1-0.3c0.5-0.2,1.2-0.2,1.9,0.2l0.1,0.3L199.8,182.7z M200,187.9L200,187.9
												L200,187.9L200,187.9z M200,180.4L200,180.4L200,180.4L200,180.4z M200.2,188l-0.1-0.3l0.1-2.1c0-0.1,0.1-0.2,0.2-0.2
												l0,0c0,0,0.1,0,0.1,0c0.1,0,0.1,0.1,0.2,0.2l1.4,2.3l0.1,0.3C201.6,188.4,200.9,188.3,200.2,188z M202.4,188l-0.2-0.2
												l-1.3-2.3c-0.1-0.1-0.1-0.3,0-0.4l0,0c0-0.1,0.1-0.1,0.2-0.1l1.9,1l0.2,0.2C203.2,187.1,202.9,187.7,202.4,188z"/>
											<path class="st29" d="M200,183.2c0.4,0.2,0.8,0.9,0.8,1.4c0,0.5-0.4,0.7-0.8,0.4c-0.4-0.2-0.8-0.9-0.8-1.4
												C199.2,183.2,199.5,183,200,183.2z"/>
											<path class="st30" d="M200.1,185c-0.4-0.2-0.8-0.9-0.8-1.4c0-0.2,0.1-0.4,0.2-0.4c-0.2,0.1-0.2,0.3-0.2,0.5
												C199.2,184.2,199.5,184.8,200.1,185c0.2,0.2,0.4,0.2,0.5,0.1C200.4,185.1,200.3,185.1,200.1,185z"/>
										</g>
									</g>
								</g>
								<g>
									<g>
										<linearGradient id="SVGID_9_" gradientUnits="userSpaceOnUse" x1="157.1413" y1="156.2411" x2="162.8797" y2="163.0902">
											<stop  offset="0" style="stop-color:#323232"/>
											<stop  offset="0.2571" style="stop-color:#201F1D"/>
											<stop  offset="1" style="stop-color:#161412"/>
										</linearGradient>
										<path class="st31" d="M161.7,154.1c-1.3-0.8-2.5-0.8-3.4-0.3l-2.5,1.5c0,0,0,0,0,0c-0.9,0.5-1.4,1.5-1.4,3
											c0,3,2.2,6.5,4.8,8c1.5,0.9,2.4,0.9,3.3,0.5l2.6-1.5c0.8-0.5,1.4-1.5,1.4-3C166.4,159.2,164.3,155.6,161.7,154.1z"/>
										<path class="st23" d="M163.9,163.7c0,3-2.1,4.2-4.7,2.7c-2.6-1.5-4.7-5.2-4.7-8.2c0-3,2.1-4.2,4.7-2.7
											C161.7,157,163.9,160.7,163.9,163.7z"/>
										<path class="st24" d="M159.1,156.6c-2.1-1.2-3.8-0.2-3.8,2.2c0,2.4,1.7,5.4,3.8,6.6c2.1,1.2,3.8,0.2,3.8-2.2
											C162.9,160.7,161.2,157.8,159.1,156.6z"/>
									</g>
									<g>
										<defs>
											<path id="SVGID_10_" d="M159.1,157c1.9,1.1,3.4,3.7,3.4,5.9s-1.5,3.1-3.4,2c-1.9-1.1-3.4-3.8-3.4-5.9
												C155.7,156.8,157.2,155.9,159.1,157z"/>
										</defs>
										<clipPath id="SVGID_11_">
											<use xlink:href="#SVGID_10_"  style="overflow:visible;"/>
										</clipPath>
										<path class="st32" d="M159.4,156.9c-1.8-1.1-3.3-0.2-3.3,1.9c0,2.1,1.5,4.7,3.3,5.7c1.8,1.1,3.3,0.2,3.3-1.9
											C162.7,160.6,161.2,158,159.4,156.9z"/>
										<g class="st33">
											<path class="st27" d="M159.7,156.6c-1-0.6-1.8-0.6-2.5-0.2l-0.4,0.2c0,0,0,0,0,0c-0.6,0.4-1,1.1-1,2.2
												c0,2.2,1.5,4.9,3.4,6c1,0.6,1.9,0.6,2.6,0.2c0,0-0.1,0.1-0.1,0.1l0.4-0.2c0.6-0.4,1-1.1,1-2.2
												C163.2,160.4,161.6,157.7,159.7,156.6z M157,157l0.1,0.1l1.3,2.3c0,0.1,0.1,0.1,0.1,0.2l-1.8-1l-0.2-0.2
												C156.5,157.8,156.7,157.3,157,157z M158.3,159.9C158.2,159.9,158.2,159.9,158.3,159.9
												C158.2,159.9,158.2,159.9,158.3,159.9z M157.2,161.6c-0.4-0.7-0.6-1.5-0.7-2.3l1.7,1c0.1,0.1,0.2,0.2,0.3,0.4l0,0
												c0,0.1,0,0.3-0.1,0.3l-1,0.6L157.2,161.6z M157.6,162.2l0.1-0.2l1-0.5c0.1,0,0.1,0,0.2,0c0,0,0.1,0.1,0.1,0.1l0,0
												c0.1,0.1,0.2,0.3,0.2,0.4l0,2C158.6,163.5,158,162.9,157.6,162.2z M159.2,159.2c-0.1,0-0.1-0.1-0.1-0.2l-1.4-2.3l0-0.2
												c0.4-0.1,0.9,0,1.5,0.3l0.1,0.3L159.2,159.2z M159.5,156.9L159.5,156.9L159.5,156.9L159.5,156.9z M161.8,159.8
												c0.4,0.7,0.6,1.5,0.7,2.3l-1.7-1c-0.1-0.1-0.2-0.2-0.3-0.4l0,0c0-0.1,0-0.3,0-0.3l1-0.6L161.8,159.8z M161.5,159.2
												l-0.1,0.2l-1,0.5l0,0c-0.1,0-0.2,0-0.2,0c0,0-0.1-0.1-0.1-0.1l0,0c-0.1-0.1-0.2-0.3-0.2-0.4l0-2
												C160.5,157.9,161,158.5,161.5,159.2z M159.9,164.4l-0.1-0.3l0.1-2c0.1,0,0.1,0.1,0.1,0.2l1.4,2.3l0,0.2
												C161,164.8,160.5,164.7,159.9,164.4z M162.1,164.4l-0.1-0.1l-1.3-2.3c0-0.1-0.1-0.1-0.1-0.2l1.8,1l0.2,0.2
												C162.5,163.6,162.4,164,162.1,164.4z"/>
											
												<linearGradient id="SVGID_12_" gradientUnits="userSpaceOnUse" x1="159.3398" y1="155.9381" x2="159.3398" y2="167.5112">
												<stop  offset="0" style="stop-color:#AEB7BC"/>
												<stop  offset="0.5054" style="stop-color:#AEB7BC"/>
												<stop  offset="0.6247" style="stop-color:#B5BDC1"/>
												<stop  offset="0.795" style="stop-color:#C8CDD0"/>
												<stop  offset="0.9952" style="stop-color:#E6E8E7"/>
												<stop  offset="1" style="stop-color:#E7E9E8"/>
											</linearGradient>
											<path class="st34" d="M159.4,156.8c-1.9-1.1-3.5-0.2-3.5,2c0,2.2,1.5,4.9,3.4,6c1.9,1.1,3.5,0.2,3.5-2
												C162.8,160.6,161.3,157.9,159.4,156.8z M161.8,159.8c0.4,0.8,0.7,1.8,0.8,2.6l-0.2,0l-1.9-1.1c-0.1-0.1-0.2-0.2-0.3-0.4
												l0,0c0-0.1,0-0.3,0.1-0.3l1.3-0.8L161.8,159.8z M159.6,157.2c0.7,0.5,1.4,1.2,1.9,2l-0.1,0.2l-1.4,0.7
												c-0.1,0-0.1,0-0.2,0c0,0-0.1-0.1-0.1-0.1l0,0c-0.1-0.1-0.2-0.3-0.2-0.4l0-2.2L159.6,157.2z M156.9,156.9l0.2,0.2l1.3,2.3
												c0.1,0.1,0.1,0.3,0,0.4l0,0c0,0.1-0.1,0.1-0.2,0.1l-1.9-1l-0.2-0.2C156.2,157.8,156.4,157.2,156.9,156.9z M156.9,161.8
												c-0.4-0.8-0.7-1.8-0.8-2.6l0.2,0l1.9,1.1c0.1,0.1,0.2,0.2,0.3,0.4l0,0c0,0.1,0,0.3-0.1,0.3l-1.3,0.8L156.9,161.8z
												 M159.1,164.4c-0.7-0.5-1.4-1.2-1.9-2l0.1-0.2l1.4-0.7c0.1,0,0.1,0,0.2,0c0,0,0.1,0.1,0.1,0.1l0,0
												c0.1,0.1,0.2,0.3,0.2,0.4l0,2.2L159.1,164.4z M159.2,159.3c0,0.1-0.1,0.2-0.2,0.2l0,0c0,0-0.1,0-0.1,0
												c-0.1,0-0.1-0.1-0.2-0.2l-1.4-2.3l-0.1-0.3c0.5-0.2,1.2-0.2,1.9,0.2l0.1,0.3L159.2,159.3z M159.3,164.5L159.3,164.5
												L159.3,164.5L159.3,164.5z M159.3,157L159.3,157L159.3,157L159.3,157z M159.6,164.6l-0.1-0.3l0.1-2.1
												c0-0.1,0.1-0.2,0.2-0.2l0,0c0,0,0.1,0,0.1,0c0.1,0,0.1,0.1,0.2,0.2l1.4,2.3l0.1,0.3C160.9,165.1,160.3,165,159.6,164.6z
												 M161.8,164.6l-0.2-0.2l-1.3-2.3c-0.1-0.1-0.1-0.3,0-0.4l0,0c0-0.1,0.1-0.1,0.2-0.1l1.9,1l0.2,0.2
												C162.5,163.7,162.2,164.3,161.8,164.6z"/>
											<path class="st29" d="M159.3,159.9c0.4,0.2,0.8,0.9,0.8,1.4c0,0.5-0.4,0.7-0.8,0.4c-0.4-0.2-0.8-0.9-0.8-1.4
												C158.5,159.8,158.9,159.6,159.3,159.9z"/>
											<path class="st30" d="M159.4,161.6c-0.4-0.2-0.8-0.9-0.8-1.4c0-0.2,0.1-0.4,0.2-0.4c-0.2,0.1-0.2,0.3-0.2,0.5
												C158.5,160.8,158.9,161.4,159.4,161.6c0.2,0.2,0.4,0.2,0.5,0.1C159.8,161.7,159.6,161.7,159.4,161.6z"/>
										</g>
									</g>
								</g>
								<linearGradient id="SVGID_13_" gradientUnits="userSpaceOnUse" x1="179.7704" y1="172.9543" x2="179.0522" y2="174.1983">
									<stop  offset="0" style="stop-color:#221F1F"/>
									<stop  offset="1" style="stop-color:#59595C"/>
								</linearGradient>
								<path class="st35" d="M189.3,175l-18.6-11l-6.2,0c0,0-0.1,0.9-0.3,1.6l30.2,17.4v-1.9L189.3,175z"/>
								<linearGradient id="SVGID_14_" gradientUnits="userSpaceOnUse" x1="179.173" y1="173.9039" x2="203.0777" y2="144.1989">
									<stop  offset="0" style="stop-color:#231F20"/>
									<stop  offset="0.1489" style="stop-color:#292627"/>
									<stop  offset="0.6549" style="stop-color:#3B3A3A"/>
									<stop  offset="1" style="stop-color:#414141"/>
								</linearGradient>
								<path class="st36" d="M233.5,173c0-0.2-0.1-0.3-0.2-0.4c-0.2-0.2-0.3-0.3-0.3-0.3c-0.1-1.3-0.4-2.2-0.5-2.7
									c-0.6-1.5-1.8-3.5-3.3-5.2c-0.6-0.7-1.3-1.4-2.1-1.9l-12.3-9.5c-0.2-0.2-8.6-8.7-11.3-10.3l-15.3-8.8
									c-3.2-1.9-10.9-1.8-11.4-1.8c-0.4,0.1-3.2-1.7-7.9-2.2c-1.9-0.2-11.5,4.6-18.2,9.5c-2.1,1.5-1.9,7.9-1.9,7.9
									s-1.1,0.8-1.3,1.1c-0.4,0.6-0.7,3.4-0.3,4c1.1,1.9,6.4,5.5,6.4,5.5c0.2-3.2,2.6-4.5,5.5-2.8c0.1,0,0.1,0.1,0.2,0.1
									c2.8,1.8,5.1,5.7,5.2,9l29.8,17.2c0.2-3.3,2.6-4.6,5.5-3c0.1,0,0.1,0.1,0.2,0.1c2.8,1.7,5.1,5.7,5.2,9
									c4.6,2.6,12.2,0.3,17.5-2.5c6.1-3.2,10-6.4,10.7-9.2C233.5,175.1,233.6,173.7,233.5,173z M201.9,146.2
									c1.3-1,2.1-1.7,2.5-2.1c2.5,2.2,7.5,7,8.5,8.4L201.9,146.2z"/>
							</g>
							<path class="st37" d="M160.8,156.2l0-6.8l0.9-1.9l0.3,0.1l-0.9,1.8v7C160.9,156.4,160.9,156.3,160.8,156.2z M191.6,164.8
								c0,0,0.6,2.1,0.4,3.1c-0.2,1-1.2,8.7-1.4,10.1l-15.2-8.7v-9.8l1.8-3.5l-0.3-0.1l-1.8,3.6l0,9.8l-10.8-6.2
								c0,0.1,0,0.2,0.1,0.4l26.2,15.1l0.2,0.1l0-0.2c0-0.1,1.2-9.3,1.4-10.3c0.2-1.1-0.4-3.2-0.4-3.2L191.6,164.8z"/>
							<linearGradient id="SVGID_15_" gradientUnits="userSpaceOnUse" x1="219.1619" y1="164.1648" x2="199.5856" y2="164.1648">
								<stop  offset="0.4086" style="stop-color:#59595C"/>
								<stop  offset="0.9682" style="stop-color:#252222"/>
								<stop  offset="1" style="stop-color:#221F1F"/>
							</linearGradient>
							<path class="st38" d="M233.5,173c0-0.2-0.1-0.3-0.2-0.4c-0.2-0.2-0.3-0.3-0.3-0.3c-0.1-1.3-0.4-2.2-0.5-2.7
								c-0.2-0.5-0.4-1-0.7-1.5c-1.3,2.6-8.5,10.8-20.4,10.9c-2.1,0-4.1-0.5-6-1.4c-11.9-5.8-49.7-28.8-55.1-37.8
								c-1.6,2-1.5,7.5-1.5,7.5s-1.1,0.8-1.3,1.1c-0.4,0.6-0.7,3.4-0.3,4c1.1,1.9,6.4,5.5,6.4,5.5c0.2-3.2,2.6-4.5,5.5-2.8
								c0.1,0,0.1,0.1,0.2,0.1c2.8,1.8,5.1,5.7,5.2,9l29.8,17.2c0.2-3.3,2.6-4.6,5.5-3c0.1,0,0.1,0.1,0.2,0.1c2.8,1.7,5.1,5.7,5.2,9
								c4.6,2.6,12.2,0.3,17.5-2.5c6.1-3.2,10-6.4,10.7-9.2C233.5,175.1,233.6,173.7,233.5,173z"/>
							<linearGradient id="SVGID_16_" gradientUnits="userSpaceOnUse" x1="203.7183" y1="189.8858" x2="236.1917" y2="172.3967">
								<stop  offset="0" style="stop-color:#414141"/>
								<stop  offset="0.3176" style="stop-color:#545555"/>
								<stop  offset="0.7233" style="stop-color:#666869"/>
								<stop  offset="1" style="stop-color:#6D6F70"/>
							</linearGradient>
							<path class="st39" d="M233.5,173.2c0-0.1,0-0.1,0-0.2c0-0.2-0.1-0.3-0.2-0.4c-0.2-0.2-0.3-0.3-0.3-0.3c0,0,0,0,0-0.1
								c-3.4,7-15.5,12.9-22.9,13.1c-0.7,0-3-0.1-3-0.1c0,0,0.8,0.5,3,0.6C220.3,186.1,231.9,177.4,233.5,173.2z"/>
							<path class="st40" d="M149.5,141.3c0.1,0.4,0.5,1.5,0.6,2.1c0.1,0.7,0.5,3.8,0.3,4c-0.2,0.2-1.5-2.1-1.5-2.5
								C148.8,144,149.2,141.2,149.5,141.3z"/>
							<path class="st41" d="M204.6,144c-0.7,0.7-6.1,5.7-15.7,9.2c-0.1,0-0.1,0.1-0.1,0.2l5.9,10.8c0.4,0.7,1.2,0.9,1.9,0.7
								c2.7-0.7,9.3-3,15.6-8.7c1-0.9,2.4-3,1.4-4c-3.1-3.1-5.9-5.8-8.8-8.2C204.7,143.9,204.6,143.9,204.6,144z"/>
							<path class="st42" d="M192,164.9l-30.2-17.3c0.6-0.9,2-1.8,3.6-2.6c2.5-1.2,5.4-1.1,7.8,0.3c3.8,2.2,10,5.8,12.2,7.1
								c0.6,0.4,1.1,0.9,1.5,1.5C188.4,156.6,191.7,163.7,192,164.9z"/>
							<path class="st43" d="M191.9,165.1l-15.1-8.6l-15.1-8.7l0,0c-0.1,0-0.1-0.2-0.1-0.2l0,0l0,0c0.5-0.7,1.3-1.2,2-1.7
								c0.7-0.4,1.5-0.9,2.3-1.2c1.6-0.6,3.4-0.7,5.1-0.3c0.8,0.2,1.6,0.6,2.4,1l2.2,1.3l4.4,2.6l4.4,2.6c0.4,0.2,0.7,0.4,1.1,0.6
								c0.4,0.2,0.7,0.5,1,0.9c0.3,0.4,0.5,0.7,0.7,1.1l0.6,1.1c0.8,1.5,1.5,3.1,2.2,4.6c0.4,0.8,0.7,1.6,1.1,2.3
								c0.3,0.8,0.7,1.6,1,2.4c0,0.1,0,0.2-0.1,0.2C192,165.1,192,165.1,191.9,165.1L191.9,165.1z M191.7,164.5
								c-0.2-0.6-0.5-1.3-0.8-1.9c-0.3-0.8-0.7-1.6-1-2.3c-0.7-1.6-1.4-3.1-2.2-4.6l-0.6-1.1c-0.2-0.4-0.4-0.8-0.6-1.1
								c-0.3-0.3-0.6-0.6-0.9-0.8c-0.3-0.2-0.7-0.4-1.1-0.6l-4.4-2.6l-4.4-2.6l-2.2-1.3c-0.7-0.4-1.5-0.8-2.3-1
								c-1.6-0.4-3.4-0.3-4.9,0.3c-0.8,0.3-1.5,0.7-2.2,1.2c-0.7,0.5-1.4,1-1.9,1.6l0,0l-0.1-0.3l15.1,8.6L191.7,164.5z"/>
							<path class="st44" d="M208.7,183.1c1.8,0.7,5.8,0.4,7.8-0.3c1.5-0.6,1.8-2.8-0.6-2.6c-3.7,0.3-7,0.3-7.5,0.3
								C206,180.4,205.8,182.1,208.7,183.1z"/>
							<path class="st45" d="M208.3,180.4c-2.3,0-2.5,1.6,0.3,2.7c0.1,0,0.3,0.1,0.4,0.1C208.2,181.9,208.4,180.4,208.3,180.4z"/>
							<path class="st44" d="M233,172.3c-0.2,0.5-0.8,1.3-1.4,1.7c-1.3,0.9-3.1-0.3-1.8-2c0.6-0.8,1.7-2.5,2-3.9
								C233,169.7,233.1,172.1,233,172.3z"/>
							<linearGradient id="SVGID_17_" gradientUnits="userSpaceOnUse" x1="221.7952" y1="184.1925" x2="224.3256" y2="174.1194">
								<stop  offset="0" style="stop-color:#9BA0A2"/>
								<stop  offset="1" style="stop-color:#BBC2C4"/>
							</linearGradient>
							<path class="st46" d="M228.5,173.2c-4,3.9-9.8,6.1-10.5,6.4c0,0,0,0.1,0,0.1c0.3,0.3,1.5,1.5,2.7,1.9c0,0,0,0,0,0
								c1.7-0.3,8-4.4,8.1-5.1C228.8,174.9,228.6,173.6,228.5,173.2C228.6,173.2,228.5,173.2,228.5,173.2z"/>
							<path class="st47" d="M220.7,181.3c-0.8-0.3-1.6-1-2.1-1.4c0,0,0-0.1,0-0.1c1.5-0.6,6.1-2.6,9.5-5.7c0,0,0.1,0,0.1,0
								c0.1,0.6,0.1,1.5,0.1,2.5c0,0,0,0,0,0C228,177.2,222.4,180.9,220.7,181.3C220.7,181.3,220.7,181.3,220.7,181.3z"/>
							<linearGradient id="SVGID_18_" gradientUnits="userSpaceOnUse" x1="151.5247" y1="151.6987" x2="147.2184" y2="146.4257">
								<stop  offset="0" style="stop-color:#414141"/>
								<stop  offset="0.3176" style="stop-color:#545555"/>
								<stop  offset="0.7233" style="stop-color:#666869"/>
								<stop  offset="1" style="stop-color:#6D6F70"/>
							</linearGradient>
							<path class="st48" d="M154.3,153.6c-3-2.6-5-4.5-5.5-5.2l0-1.2c0,0-1.1,0.8-1.3,1.1c0,0,0,0,0,0
								C150.2,151.3,154.3,153.6,154.3,153.6z"/>
							<path class="st49" d="M187.3,133.7c3.4,1.7,15,8.6,17.2,10c0.2,0.1,0.5,0.4,0.3,0.3c0,0-0.1,0-0.2,0c0,0-0.1,0.1-0.1,0.1
								c-0.1,0-0.1-0.1-0.2-0.1c-2.2-1.4-15-9.2-17.3-10.2c-0.4-0.2-3.3-0.9-4-0.9c0.2-0.1,0.3-0.1,0.6-0.1
								C183,132.7,186.7,133.4,187.3,133.7z M188.8,153.4c0-0.1,0-0.2,0.1-0.2c0,0,0,0,0.1,0c-0.3-0.5-0.5-0.8-0.7-1.1
								c-1.4-2-15.3-9.8-17.8-10.3c-0.4-0.1-0.8-0.1-1.3-0.2c0,0,0,0,0,0c-0.1,0.1-0.3,0.2-0.5,0.2c0.7,0.1,1.3,0.1,1.7,0.2
								c2.4,0.5,16.2,8.3,17.6,10.2C188.4,152.8,188.8,153.4,188.8,153.4z"/>
							<linearGradient id="SVGID_19_" gradientUnits="userSpaceOnUse" x1="214.5363" y1="140.6888" x2="176.3961" y2="162.571">
								<stop  offset="0" style="stop-color:#6D6F70"/>
								<stop  offset="0.9945" style="stop-color:#414141"/>
							</linearGradient>
							<path class="st50" d="M230.6,166.1c-0.4-0.6-0.6-0.9-1.4-1.8c-0.6-0.7-1.3-1.4-2.1-1.9l-12.3-9.5c-0.2-0.2-8.6-8.7-11.3-10.3
								l-15.3-8.8c-3.2-1.9-10.9-1.8-11.4-1.8c-0.4,0.1-3.2-1.7-7.9-2.2c-1.8-0.2-11.1,4.4-17.7,9.1c-0.2,0.2-0.2,0.5,0,0.7
								c2.6,1.8,4.3,2.8,7.5,2.9c2.9,0,9.2,0,11.7,0.5c2.3,0.5,16.3,8.3,17.7,10.3c1.2,1.8,5.4,9.4,7.9,14c1.5,2.8,3.7,5.3,6.4,7
								c1.3,0.9,2.6,1.7,3.7,2.3c1.4,0.8,2.9,1.2,4.5,1.2c11,0,18-7,20.1-10.2C230.9,167.1,230.9,166.6,230.6,166.1z M212.2,156.2
								c-6.4,5.6-12.9,7.9-15.6,8.7c-0.7,0.2-1.5,0-1.9-0.7l-5.9-10.8c0-0.1,0-0.2,0.1-0.2c9.7-3.5,15-8.5,15.7-9.2c0,0,0.1,0,0.2,0
								c2.9,2.5,5.7,5.1,8.8,8.2C214.6,153.3,213.1,155.4,212.2,156.2z"/>
							<path class="st42" d="M183.5,132.7c-3.6,0.8-9.9,4.6-14.4,8.8c-0.2,0.2-0.4,0.3-0.7,0.3l-9.8-0.1c-0.1,0-0.2-0.1-0.1-0.2
								c0.9-1.7,13-8.4,17.8-9.2c0.1,0,0.2,0,0.4,0C177.5,132.3,181,132.3,183.5,132.7z"/>
							<path class="st43" d="M183.5,132.9c0,0-0.2,0.1-0.6,0.1c-0.4,0.1-0.9,0.3-1.6,0.6c-0.7,0.3-1.5,0.7-2.5,1.2
								c-0.9,0.5-2,1.1-3,1.8c-1.1,0.7-2.2,1.5-3.4,2.4c-0.6,0.4-1.2,0.9-1.8,1.4c-0.3,0.3-0.6,0.5-0.9,0.8l-0.4,0.4
								c-0.1,0.1-0.3,0.3-0.5,0.3c-0.2,0.1-0.4,0-0.6,0l-0.6,0c-0.4,0-0.8,0-1.2,0c-0.8,0-1.7,0-2.5,0c-0.9,0-1.7,0-2.6,0l-1.3,0
								l-0.6,0l-0.3,0l-0.2,0l-0.1,0c0,0-0.1,0-0.1,0c-0.1-0.1-0.1-0.1-0.1-0.2c0,0,0,0,0-0.1c0,0,0,0,0,0l0,0l0-0.1
								c0.1-0.1,0.1-0.2,0.2-0.3c0.2-0.2,0.3-0.3,0.5-0.5c0.3-0.3,0.7-0.5,1-0.8c0.7-0.5,1.4-1,2.2-1.4c1.5-0.9,2.9-1.7,4.4-2.5
								c2.9-1.5,5.6-2.7,8.2-3.5c0.3-0.1,0.6-0.2,0.9-0.2c0.2,0,0.3-0.1,0.5-0.1c0.2,0,0.3,0,0.5,0c0.6,0,1.2,0,1.7,0
								c1.1,0,2,0.1,2.7,0.1l2.9,0.4L183.5,132.9z M182.9,132.8c-0.4-0.1-1-0.1-1.8-0.2c-0.8-0.1-1.7-0.1-2.7-0.1
								c-0.5,0-1.1,0-1.7,0c-0.1,0-0.3,0-0.4,0c-0.1,0-0.3,0.1-0.4,0.1c-0.3,0.1-0.6,0.1-0.9,0.2c-1.2,0.4-2.5,0.9-3.9,1.5
								c-1.4,0.6-2.8,1.3-4.2,2c-1.4,0.7-2.9,1.5-4.4,2.4c-0.7,0.4-1.4,0.9-2.1,1.4c-0.4,0.2-0.7,0.5-1,0.8
								c-0.2,0.1-0.3,0.3-0.5,0.4c-0.1,0.1-0.3,0.4-0.2,0.4c1.7,0,3.4,0,5.1,0.1c0.9,0,1.7,0,2.5,0c0.4,0,0.8,0,1.2,0l0.6,0
								c0.2,0,0.4,0,0.6,0c0.2,0,0.3-0.2,0.5-0.3l0.4-0.4c0.3-0.3,0.6-0.5,0.9-0.8c0.6-0.5,1.2-1,1.8-1.4c1.2-0.9,2.3-1.7,3.4-2.4
								c1.1-0.7,2.1-1.3,3.1-1.8c0.9-0.5,1.8-0.9,2.5-1.2C181.9,133.1,182.5,132.9,182.9,132.8C182.9,132.8,182.9,132.8,182.9,132.8
								z"/>
							<linearGradient id="SVGID_20_" gradientUnits="userSpaceOnUse" x1="207.797" y1="159.628" x2="218.4159" y2="175.9425">
								<stop  offset="0" style="stop-color:#6D6F70"/>
								<stop  offset="1" style="stop-color:#000000"/>
							</linearGradient>
							<path class="st51" d="M227.7,168c-0.1-0.1-0.1-0.2-0.2-0.3c-0.4-0.7-1.1-1.8-2.1-3.1c-0.2-0.3-0.5-0.6-0.8-1
								c-0.4-0.5-0.8-0.9-1.2-1.4c-0.4-0.5-0.8-0.9-1.3-1.3c-0.9-0.9-1.8-1.7-2.6-2.5c-0.9-0.8-1.7-1.5-2.4-2.1
								c-0.7-0.6-1.3-1.1-1.8-1.4c-0.3-0.2-0.5-0.4-0.6-0.5c0,0,0,0-0.1,0c0,0-4.6,7.3-17.4,11.4c0,0,0,0,0.1,0.1c0,0,0,0,0,0
								c0,0,0.1,0,0.1,0.1c0.1,0.1,0.3,0.2,0.5,0.4c0.4,0.4,1.1,0.9,1.9,1.5c0.8,0.6,1.7,1.3,2.8,2c0.5,0.4,1.1,0.7,1.6,1.1
								c0.6,0.3,1.1,0.7,1.7,1c0.6,0.3,1.1,0.7,1.7,1c0.6,0.3,1.1,0.6,1.7,0.9c0.6,0.3,1.1,0.5,1.6,0.7c0.5,0.2,1,0.5,1.5,0.6
								c0.5,0.2,0.9,0.3,1.3,0.5c0.4,0.1,0.7,0.2,1,0.3c0.6,0.2,0.9,0.3,0.9,0.3s8.1-1.8,12.4-7.5
								C228.1,168.7,227.9,168.5,227.7,168z"/>
							<path class="st52" d="M214.7,154.4c0,0,1.1,0.6,2.5,1.8c0.7,0.6,1.6,1.2,2.5,2c0.9,0.8,1.8,1.6,2.7,2.5
								c0.4,0.5,0.9,0.9,1.3,1.4c0.4,0.5,0.8,0.9,1.2,1.4c0.4,0.5,0.7,0.9,1,1.3c0.3,0.4,0.6,0.9,0.8,1.3c0.2,0.4,0.4,0.8,0.6,1.1
								c0.2,0.3,0.3,0.6,0.4,0.9c0.2,0.5,0.4,0.8,0.4,0.8s-0.1-0.3-0.4-0.8c-0.1-0.2-0.3-0.5-0.5-0.9c-0.2-0.3-0.4-0.7-0.7-1.1
								c-0.2-0.4-0.6-0.8-0.9-1.2c-0.3-0.4-0.7-0.9-1-1.3c-0.4-0.5-0.8-0.9-1.2-1.4c-0.4-0.5-0.8-0.9-1.3-1.3
								c-0.9-0.9-1.8-1.7-2.6-2.5c-0.9-0.8-1.7-1.5-2.4-2.1c-0.7-0.6-1.3-1.1-1.8-1.4C215,154.6,214.7,154.4,214.7,154.4z"/>
							<path class="st53" d="M197.3,165.8c0,0,0.2,0.2,0.7,0.6c0.4,0.4,1.1,0.9,1.9,1.5c0.8,0.6,1.7,1.3,2.8,2
								c0.5,0.4,1.1,0.7,1.6,1.1c0.6,0.3,1.1,0.7,1.7,1c0.6,0.3,1.1,0.7,1.7,1c0.6,0.3,1.1,0.6,1.7,0.9c0.6,0.3,1.1,0.5,1.6,0.7
								c0.5,0.2,1,0.5,1.5,0.6c0.5,0.2,0.9,0.3,1.3,0.5c0.4,0.1,0.7,0.2,1,0.3c0.6,0.2,0.9,0.3,0.9,0.3s-0.3-0.1-0.9-0.2
								c-0.3-0.1-0.6-0.2-1-0.3c-0.4-0.1-0.8-0.3-1.3-0.4c-0.5-0.1-1-0.4-1.5-0.6c-0.5-0.2-1.1-0.4-1.7-0.7
								c-0.6-0.3-1.1-0.6-1.7-0.9c-0.6-0.3-1.2-0.6-1.7-1c-0.6-0.3-1.1-0.7-1.7-1.1c-0.5-0.4-1.1-0.7-1.6-1.1
								c-1-0.7-1.9-1.4-2.7-2.1c-0.8-0.6-1.4-1.2-1.8-1.6C197.5,166,197.3,165.8,197.3,165.8z"/>
							<path class="st43" d="M213.8,152.3c-0.1-0.2-0.3-0.3-0.4-0.5c-0.3-0.3-0.6-0.6-0.9-0.9c-2.3-2.2-4.2-4.1-5.6-5.3
								c-0.7-0.6-1.2-1.1-1.6-1.4c-0.2-0.2-0.3-0.3-0.4-0.4c-0.1-0.1-0.2-0.1-0.3-0.1c-0.1,0-0.1,0.1-0.1,0.1s-0.7,0.7-2.2,1.9
								c-1.5,1.1-3.6,2.6-6.5,4.1c-1.4,0.7-3,1.5-4.6,2.2c-0.4,0.2-0.8,0.4-1.3,0.5c-0.2,0.1-0.4,0.2-0.7,0.3l-0.3,0.1l-0.1,0
								c0,0-0.1,0-0.1,0.1c-0.1,0.1-0.1,0.2-0.1,0.3c0.5,0.8,0.9,1.7,1.4,2.6c1,1.7,1.9,3.5,2.9,5.4c0.5,0.9,1,1.8,1.5,2.8
								c0.2,0.5,0.8,0.9,1.4,0.9c0.3,0,0.6,0,0.8-0.1c0.3-0.1,0.5-0.1,0.8-0.2c4.1-1.3,7.9-3.3,11.1-5.6c0.4-0.3,0.8-0.6,1.2-0.9
								c0.4-0.3,0.8-0.6,1.1-0.9c0.7-0.6,1.5-1.2,2.1-1.9c0.3-0.4,0.5-0.8,0.7-1.2c0.2-0.4,0.3-0.9,0.3-1.3
								C214,152.7,213.9,152.5,213.8,152.3z M212.8,155.3c-0.5,0.7-1.3,1.3-2,1.9c-0.4,0.3-0.8,0.6-1.1,0.9
								c-0.4,0.3-0.8,0.6-1.2,0.9c-3.2,2.3-7.1,4.3-11.1,5.5c-0.3,0.1-0.5,0.1-0.8,0.2c-0.2,0.1-0.5,0.1-0.7,0.1
								c-0.5,0-0.9-0.3-1.2-0.8c-0.5-0.9-1-1.9-1.5-2.8c-1-1.8-2-3.6-2.9-5.4c-0.5-0.9-0.9-1.7-1.4-2.6l0.1,0l0.3-0.1
								c0.2-0.1,0.4-0.2,0.7-0.3c0.4-0.2,0.9-0.3,1.3-0.5c1.7-0.7,3.2-1.5,4.7-2.2c2.8-1.5,5-3,6.5-4.2c1.5-1.1,2.2-1.9,2.2-1.9
								c0,0,0,0,0,0c0.1,0.1,0.2,0.2,0.4,0.4c0.4,0.3,0.9,0.8,1.6,1.4c1.4,1.2,3.3,3,5.6,5.3c0.3,0.3,0.6,0.6,0.9,0.9
								c0.1,0.1,0.3,0.3,0.4,0.4c0.1,0.2,0.2,0.3,0.2,0.5C213.9,153.8,213.4,154.6,212.8,155.3z"/>
							<path class="st43" d="M213.6,152.2c-0.1-0.1-0.3-0.3-0.4-0.4c1,4.6-17.1,13.5-18.5,12.4c0.4,0.7,1.2,0.9,1.9,0.7
								c2.7-0.7,9.3-3,15.6-8.7C213.1,155.4,214.6,153.3,213.6,152.2z"/>
							<polygon class="st43" points="180.3,149.5 178.7,148.6 176.3,155.8 177.9,156.7 							"/>
							<polygon class="st43" points="167.6,144.3 166.9,144.4 165.2,149.5 165.7,149.9 							"/>
							<path class="st54" d="M210.2,186.8v0.6c0,0.1,0.1,0.3,0.3,0.3c1.1,0,3.4-0.2,4.4-0.4c0.1,0,0.2-0.1,0.2-0.3v-0.6
								c0-0.2-0.2-0.3-0.3-0.3c-1.9,0.4-3.4,0.4-4.2,0.4C210.3,186.6,210.2,186.7,210.2,186.8z"/>
							<path class="st54" d="M232.9,175c-0.1,0.1-0.1,0.2-0.1,0.3c0,0.4,0,1,0,1.1c0.2-0.2,0.5-0.8,0.6-1.3c0-0.4,0.1-0.9,0.1-1.4
								C233.4,174.3,233.1,174.7,232.9,175z"/>
							<path class="st54" d="M230.9,177.3c-3,3.1-7.5,5.6-11.7,7.4c-0.1,0-0.1,0.1-0.1,0.2l0,1.1c0,0.1,0.1,0.2,0.2,0.2
								c1.8-0.4,10.3-5.2,11.8-7.4c0.1-0.1,0.1-0.3,0.1-0.4v-0.9C231.2,177.3,231,177.2,230.9,177.3z"/>
							<path class="st55" d="M221.9,183.5l0,1.1c0.6-0.2,5.9-3.3,6.5-4v-1C226.4,181.1,224.2,182.4,221.9,183.5z"/>
							<path class="st43" d="M188.9,165.4l1.4,0.1c0.7,0,1.3-0.1,2-0.4l0,0c-0.3-0.7-0.5-1.4-0.8-2l-1.7,0.8L188.9,165.4z"/>
							<linearGradient id="SVGID_21_" gradientUnits="userSpaceOnUse" x1="190.4349" y1="163.4887" x2="187.7105" y2="165.9934">
								<stop  offset="0" style="stop-color:#414141"/>
								<stop  offset="1" style="stop-color:#414141"/>
							</linearGradient>
							<path class="st56" d="M189.7,163.3c-0.4,0-3.5,1-3.4,1.3c0.1,0.7,1.1,1.6,1.8,1.7c0.6,0.1,3.2-0.7,3.2-0.9
								C191.4,164.9,190.5,163.3,189.7,163.3z"/>
						</g>
						<g>
							<path class="st57" d="M178.3,162.8l-0.8-0.4c-0.3-0.2-0.5-0.5-0.5-0.7v-1c0-0.3,0.2-0.3,0.5-0.2l0.8,0.4
								c0.3,0.2,0.5,0.5,0.5,0.7v1C178.8,162.8,178.6,162.9,178.3,162.8z"/>
							<linearGradient id="SVGID_22_" gradientUnits="userSpaceOnUse" x1="178.1208" y1="161.1505" x2="177.7966" y2="161.712">
								<stop  offset="0" style="stop-color:#BBC2C4"/>
								<stop  offset="1" style="stop-color:#9BA0A2"/>
							</linearGradient>
							<path class="st58" d="M178.9,162.4l-2-1.1c-0.2-0.1-0.4-0.4-0.4-0.6l0,0c0-0.2,0.2-0.3,0.4-0.2l2,1.1
								c0.2,0.1,0.4,0.4,0.4,0.6l0,0C179.3,162.4,179.1,162.5,178.9,162.4z"/>
						</g>
						<g>
							<path class="st57" d="M164.2,154.6l-0.8-0.4c-0.3-0.2-0.5-0.5-0.5-0.7v-1c0-0.3,0.2-0.3,0.5-0.2l0.8,0.4
								c0.3,0.2,0.5,0.5,0.5,0.7v1C164.6,154.7,164.4,154.8,164.2,154.6z"/>
							<linearGradient id="SVGID_23_" gradientUnits="userSpaceOnUse" x1="163.9542" y1="152.9807" x2="163.63" y2="153.5422">
								<stop  offset="0" style="stop-color:#BBC2C4"/>
								<stop  offset="1" style="stop-color:#9BA0A2"/>
							</linearGradient>
							<path class="st59" d="M164.8,154.2l-2-1.1c-0.2-0.1-0.4-0.4-0.4-0.6l0,0c0-0.2,0.2-0.3,0.4-0.2l2,1.1
								c0.2,0.1,0.4,0.4,0.4,0.6l0,0C165.1,154.3,165,154.3,164.8,154.2z"/>
						</g>
					</g>
				</g>
			</g>
			<path class="st18" d="M189.7,180.4l0.6-21.7l19.4-10.9c0,0-3.2-2.9-4.2-3.8c-1.1-0.9-1.4-1.1-1.4-1.1l-22,12.6v20.5L189.7,180.4z
				"/>
		</g>
	</g>
</g>
</svg>
