<?xml version="1.0" encoding="utf-8"?>
<!-- Generator: Adobe Illustrator 24.0.0, SVG Export Plug-In . SVG Version: 6.00 Build 0)  -->
<svg version="1.1" id="Layer_1" xmlns="http://www.w3.org/2000/svg" xmlns:xlink="http://www.w3.org/1999/xlink" x="0px" y="0px"
	 width="300px" height="300px" viewBox="0 0 300 300" style="enable-background:new 0 0 300 300;" xml:space="preserve">
<style type="text/css">
	.st0{fill:#E5E6E6;}
	.st1{fill:#15556E;}
	.st2{fill:#C35D28;}
	.st3{fill:#5A6A2F;}
	.st4{fill:#475024;}
	.st5{fill:#DC6A26;}
	.st6{fill:#EEC6AE;}
	.st7{fill:#CDA08A;}
	.st8{fill:#271811;}
	.st9{fill:#603917;}
	.st10{fill:#C1976B;}
	.st11{fill:#757F4A;}
	.st12{fill:#EC7927;}
</style>
<g>
	<ellipse class="st0" cx="148.6" cy="243.6" rx="69.3" ry="27.7"/>
	<g>
		<path class="st1" d="M110.6,234.4c0,0,0,6.9-0.4,21.5c11.1,3,24.5,4.8,38.9,4.8c14.9,0,28.7-1.9,40-5.1
			c-0.1-9.9-0.1-16.3-0.1-16.3L110.6,234.4z"/>
		<path class="st2" d="M149.1,101.4c-22-9.2-38.4-7.6-50-6.7c-11.1,0.9-17.6,12.4-8.4,21.3c8.8,8.5,31.4,16.6,39,10.2
			C139.8,117.7,149.1,101.4,149.1,101.4z"/>
		<path class="st3" d="M193,217.5c0,0,17.9,2.8,26.6-1.3c8.7-4.1,18.9-11.8,16.6-26.1c-2.2-14.2-7.2-27.5-7.2-27.5l6-0.9
			c0,0-5.3-36.7-9.9-42.7c-4.6-6-14.6-7.4-21.1-8.8c-6.4-1.4-32.1-5.7-32.1-5.7S177,202.3,193,217.5z"/>
		<path class="st4" d="M209.4,134.6c0.3,0.8,13.1-1.9,13.1-1.9l6.5,29.9l3.5-1.4c0,0-4.8-28.2-8-35.3s-8.7-9.3-11.7-6.6
			C209.7,122.1,208.8,133.3,209.4,134.6z"/>
		<path class="st5" d="M110.4,237.2c0,0,34.5,17.9,78.5,3.2c3.9-35.5,7.1-110.7,7.1-115.9s-22.4-20-28.6-21.3
			c-6.3-1.3-29.5-10.1-38-8c-8.9,2.1-18.6,32.9-17.5,49.9C112.7,160.1,110.4,237.2,110.4,237.2z"/>
		<path class="st6" d="M166.7,88.5c0,0,1.2,11.1,0.7,14.7s-6.2,12.6-18.4,10.4c-12.2-2.2-9.2-3.2-8.7-8s1.5-14.6,1.5-14.6
			L166.7,88.5z"/>
		<path class="st7" d="M142.6,95.5c0,0,22.1-15.5,24.1-18.3c0.5,6.4,0.8,22.3,0.8,22.3S150.5,103.4,142.6,95.5z"/>
		<g>
			<path class="st6" d="M151.8,101.4l4.1-1.5c13.4-5.2,15.4-29.8,10.7-43.4l-7.1-21.1l-50.7,19.1l11.4,30.3
				C125.5,98.6,138,106.7,151.8,101.4z"/>
			<path class="st6" d="M165.4,69L165.4,69c4-1.5,6.1-6,4.7-10.1l-3.1-9l-15.2,5.7l3.3,8.7C156.6,68.5,161.3,70.6,165.4,69z"/>
		</g>
		<path class="st8" d="M113.1,64.9c-2.5-2.3-5.7-5.9-6.8-9.9c-1.1-4-1.3-8.8,1.9-12c3.2-3.2,5.1-6.8,7.5-10.1c2.4-3.3,6.5-2,7-3.9
			c0.5-1.8,1.5-4.6,1.5-4.6s2.1,4.5,4.4,3.2c2.3-1.3,2.1-4,4.3-5.7c2.2-1.6,0.1,3.6,3.6,3.1c3.5-0.5,7.8,0.3,13.2,0.7
			c5.4,0.4,14.4,5.9,17.6,13.6s4.8,12.7,5.2,17s-5.4,27.5-7.1,26.1c-1.9-2.9-2.3-6-2.3-6s4.9-9.5,2.3-14.2s-8.4-2.9-8.6,0.8
			c-0.2,3.7,0.7,8.2,0.7,8.2l-3.9,1.5c0,0-4.5-12-7.1-14.7c-2.6-2.7-8.2-3.6-9-3.1c-0.8,0.5-1.2,2.6-0.3,4c-1.9,1.4-4.1-0.9-4.5-2.9
			c-0.4-2-1.8-3.6-3.3-3c-1.4,0.5-1.5,3.5-0.5,4.8c-1.9,1-3.9-2.1-4.4-3.9c-0.5-1.8-4.9-2.7-8.8-1.3c-3.9,1.5-5.4,3.5-4.4,5.6
			S113.1,64.9,113.1,64.9z"/>
		<g>
			<path class="st9" d="M110.5,231c0,0,34.5,17.9,78.5,3.2l-0.2,11c0,0-21.1,7.1-43.8,4.7c-21.5-2.2-35-7.7-35-7.7L110.5,231z"/>
			<g>
				<polygon class="st10" points="118.6,245.1 115,244.1 115,233 118.6,233.9 				"/>
				<polygon class="st10" points="170.4,249.2 166.8,250.1 166.8,238.9 170.5,238.1 				"/>
				<polygon class="st10" points="146.4,250 135.9,248.9 135.9,237.7 146.4,238.8 				"/>
			</g>
		</g>
		<path class="st11" d="M191.6,117.5c-1.8,0.4-27.1,8.6-27.2,33.8s29.6,48.7,29.6,48.7l-1,17.4c0,0-41.6-32.3-41-66.7
			c0.6-34.4,30.9-40.2,30.9-40.2L191.6,117.5z"/>
		<path class="st12" d="M185.4,123.6c8.9-2.2,15.6,1.6,18.3,9.8s11.8,54.7,11.8,63.7s-13.7,8.5-19.2,6.2
			c-5.5-2.4-39.7-32.6-34.6-35.3s9.4-6.2,11-8.5c1.6-2.3,10.5,4.3,10.5,4.3s-5.4-18-6.1-22.7S174.5,126.3,185.4,123.6z"/>
		<path class="st6" d="M176.3,159.9c0,0-7.6-12.3-10.4-15.4c-2.7-3.1-9.8-2.1-12.1-0.6c-2.3,1.5-6.1,5.4-2.8,12.2
			c3.4,6.9,13.9,16.6,13.9,16.6S174,171.6,176.3,159.9z"/>
		<path class="st6" d="M159.2,103.8c0,0,12.2,1.4,15.7,2c3.5,0.6,6,6.2,5.9,8.6s-1.1,6.9-7.7,7.6s-18.4-1-18.4-1
			S151.6,110.8,159.2,103.8z"/>
		<path class="st12" d="M93.5,95.8c9.8-6,62.9,5.4,66.7,7.1s5.2,13.7-3.8,18.4c-9,4.7-49.8,2.8-61.4-2.7
			C83.3,113.3,84.9,101.1,93.5,95.8z"/>
	</g>
</g>
</svg>
