<?xml version="1.0" encoding="utf-8"?>
<!-- Generator: Adobe Illustrator 24.0.0, SVG Export Plug-In . SVG Version: 6.00 Build 0)  -->
<svg version="1.1" id="Layer_1" xmlns="http://www.w3.org/2000/svg" xmlns:xlink="http://www.w3.org/1999/xlink" x="0px" y="0px"
	 width="300px" height="300px" viewBox="0 0 300 300" style="enable-background:new 0 0 300 300;" xml:space="preserve">
<style type="text/css">
	.st0{fill:#E5E6E6;}
	.st1{fill:#E6E6E6;}
	.st2{opacity:0.7;fill:#E6E6E6;}
	.st3{fill:#67B3CE;}
	.st4{fill:#82C1D1;}
	.st5{fill:#FFFFFF;}
	.st6{fill:#F2F2F2;}
	.st7{fill:#CCCCCC;}
</style>
<g>
	<ellipse class="st0" cx="128.6" cy="246.3" rx="62.8" ry="20.8"/>
	<ellipse class="st1" cx="137.1" cy="246.8" rx="53.7" ry="17.8"/>
	<path class="st2" d="M190.8,133.6c0-9.8-11.4-25.5-53.7-25.5c-42.3,0-53.7,15.7-53.7,25.5c0,0,0,0,0,0v113.1h107.4L190.8,133.6
		C190.8,133.7,190.8,133.7,190.8,133.6z"/>
	<path class="st3" d="M189,174.3v71.2H85.3v-71.2C85.3,174.3,189.7,173.8,189,174.3z"/>
	<ellipse class="st3" cx="137.1" cy="245.5" rx="51.9" ry="17.2"/>
	<ellipse class="st4" cx="137.1" cy="174.1" rx="51.9" ry="17.2"/>
	<path class="st1" d="M177.2,193.7v48c-9.5,3.8-23.9,6.3-40.1,6.3c-16.2,0-30.6-2.4-40.1-6.3v-48c9.5,3.8,23.9,6.3,40.1,6.3
		S167.7,197.5,177.2,193.7z"/>
	<g>
		<g>
			<path d="M132,219.2c1,0,1.9,0,2.9,0.1c0,1.1,0,2.2,0,3.3c-0.3,0-0.6,0-1,0c-0.1-0.2-0.2-0.4-0.2-0.6c-0.1,0.1-0.3,0.2-0.5,0.3
				c-0.1,0.1-0.3,0.1-0.5,0.2c-0.2,0.1-0.5,0.1-0.7,0.1c-0.4,0-0.8-0.1-1.2-0.3s-0.7-0.4-0.9-0.7c-0.3-0.3-0.5-0.6-0.6-1
				c-0.2-0.4-0.2-0.8-0.2-1.2c0-0.4,0.1-0.8,0.2-1.2c0.2-0.4,0.4-0.7,0.6-1c0.3-0.3,0.6-0.5,0.9-0.6c0.4-0.1,0.7-0.2,1.2-0.2
				c0.4,0,0.7,0.1,1,0.2c0.3,0.1,0.6,0.3,0.8,0.5c0.2,0.2,0.4,0.4,0.6,0.7c0.2,0.3,0.3,0.5,0.3,0.8c-0.5,0-1,0.1-1.4,0.1
				c0-0.1-0.1-0.2-0.2-0.3c-0.1-0.1-0.2-0.2-0.3-0.3c-0.1-0.1-0.2-0.2-0.4-0.2c-0.1-0.1-0.3-0.1-0.5-0.1c-0.2,0-0.4,0-0.6,0.1
				c-0.2,0.1-0.4,0.2-0.5,0.3c-0.1,0.1-0.3,0.3-0.3,0.5c-0.1,0.2-0.1,0.4-0.1,0.7c0,0.2,0,0.5,0.1,0.7c0.1,0.2,0.2,0.4,0.3,0.6
				c0.1,0.2,0.3,0.3,0.5,0.4c0.2,0.1,0.4,0.1,0.6,0.1c0.2,0,0.4,0,0.5-0.1c0.2,0,0.3-0.1,0.4-0.2c0.1-0.1,0.2-0.2,0.3-0.3
				c0.1-0.1,0.1-0.2,0.2-0.3c-0.4,0-0.9,0-1.3,0C132,220,132,219.6,132,219.2z"/>
			<path d="M136,216.5c1.4,0,2.9,0,4.3,0c0,0.4,0,0.9,0,1.3c-1,0-1.9,0-2.9,0c0,0.3,0,0.6,0,1c0.9,0,1.8,0,2.7,0c0,0.4,0,0.9,0,1.3
				c-0.9,0-1.8,0-2.7,0c0,0.4,0,0.7,0,1.1c1,0,2,0,3,0c0,0.4,0,0.9,0,1.3c-1.5,0-2.9,0-4.4,0C136,220.5,136,218.5,136,216.5z"/>
			<path d="M141.3,216.5c0.5,0,0.9,0,1.4,0c0,1.6,0,3.1,0,4.7c0.9,0,1.8-0.1,2.7-0.1c0,0.4,0,0.9,0,1.3c-1.4,0.1-2.7,0.1-4.1,0.1
				C141.3,220.5,141.3,218.5,141.3,216.5z"/>
			<path d="M112.7,231.3c-0.1,0.4-0.3,0.7-0.4,1.1c-0.5-0.1-1-0.1-1.4-0.2c0.7-1.9,1.4-3.8,2.1-5.7c0.5,0.1,1,0.1,1.4,0.2
				c0.7,2.1,1.4,4.2,2.1,6.3c-0.5-0.1-1-0.1-1.4-0.2c-0.1-0.4-0.3-0.8-0.4-1.2C114.1,231.5,113.4,231.4,112.7,231.3z M114.4,230.3
				c-0.2-0.7-0.4-1.4-0.7-2.1c-0.2,0.6-0.4,1.3-0.7,1.9C113.6,230.2,114,230.3,114.4,230.3z"/>
			<path d="M119.5,228.8c0.3,0,0.5,0.1,0.7,0.2c0.2,0.1,0.4,0.2,0.6,0.4c0.2,0.2,0.3,0.4,0.4,0.6c0.1,0.2,0.1,0.5,0.1,0.8
				c0,0.9,0,1.7,0,2.6c-0.4,0-0.9-0.1-1.3-0.1c0-0.8,0-1.6,0-2.3c0-0.3-0.1-0.5-0.2-0.7c-0.1-0.2-0.3-0.3-0.6-0.3
				c-0.2,0-0.4,0-0.6,0.2c-0.1,0.1-0.2,0.4-0.2,0.6c0,0.8,0,1.6,0,2.3c-0.4,0-0.9-0.1-1.3-0.1c0-1.5,0-2.9,0-4.4
				c0.3,0,0.6,0.1,1,0.1c0.1,0.2,0.1,0.3,0.2,0.5c0.1-0.1,0.2-0.1,0.4-0.2c0.1,0,0.3-0.1,0.4-0.1
				C119.1,228.8,119.3,228.8,119.5,228.8z"/>
			<path d="M122.6,230.3c-0.2,0-0.4,0-0.7-0.1c0-0.4,0-0.7,0-1.1c0.1,0,0.2,0,0.3,0c0.4,0,0.5-0.1,0.5-0.5c0-0.2,0-0.4,0-0.6
				c0.4,0,0.7,0.1,1.1,0.1c0,0.4,0,0.7,0,1.1c0.3,0,0.6,0,0.9,0.1c0,0.4,0,0.8,0,1.2c-0.3,0-0.6,0-0.9-0.1c0,0.5,0,1,0,1.4
				c0,0.2,0.1,0.3,0.2,0.5c0.1,0.1,0.2,0.2,0.4,0.2c0.1,0,0.1,0,0.1,0c0,0,0.1,0,0.1,0c0,0,0.1,0,0.1,0c0,0.4,0,0.8,0,1.1
				c-0.1,0-0.1,0-0.2,0c-0.1,0-0.3,0-0.5,0c-0.5,0-0.9-0.2-1.2-0.5c-0.3-0.3-0.4-0.7-0.4-1.2C122.6,231.4,122.6,230.8,122.6,230.3z"
				/>
			<path d="M125.7,228.1c0-0.2,0.1-0.4,0.2-0.5c0.1-0.1,0.3-0.2,0.5-0.2c0.2,0,0.4,0.1,0.5,0.2c0.1,0.2,0.2,0.3,0.2,0.5
				c0,0.2-0.1,0.4-0.2,0.5c-0.1,0.1-0.3,0.2-0.5,0.2c-0.2,0-0.4-0.1-0.5-0.2C125.7,228.5,125.7,228.3,125.7,228.1z M127,233.8
				c-0.4,0-0.9,0-1.3-0.1c0-1.5,0-2.9,0-4.4c0.4,0,0.9,0.1,1.3,0.1C127,230.8,127,232.3,127,233.8z"/>
			<path d="M130.5,234c-0.2,0-0.4,0-0.5-0.1c-0.2-0.1-0.3-0.1-0.4-0.2c-0.1-0.1-0.2-0.2-0.3-0.3c-0.1,0.1-0.1,0.3-0.2,0.4
				c-0.3,0-0.6,0-1,0c0-2,0-4,0-6c0.4,0,0.9,0,1.3,0.1c0,0.7,0,1.3,0,2c0.1-0.1,0.2-0.1,0.3-0.2c0.1,0,0.2-0.1,0.3-0.1
				c0.1,0,0.3,0,0.5,0c0.3,0,0.5,0.1,0.8,0.2c0.2,0.1,0.5,0.3,0.7,0.5c0.2,0.2,0.3,0.4,0.5,0.7c0.1,0.3,0.2,0.6,0.2,0.9
				c0,0.3-0.1,0.6-0.2,0.9c-0.1,0.3-0.3,0.5-0.5,0.7c-0.2,0.2-0.4,0.3-0.7,0.4C131,233.9,130.7,234,130.5,234z M131.2,231.8
				c0-0.3-0.1-0.6-0.3-0.8c-0.2-0.2-0.4-0.3-0.7-0.3c-0.3,0-0.5,0.1-0.7,0.3c-0.2,0.2-0.3,0.4-0.3,0.7c0,0.3,0.1,0.6,0.3,0.8
				c0.2,0.2,0.4,0.3,0.7,0.3c0.3,0,0.5-0.1,0.7-0.3C131.1,232.3,131.2,232.1,131.2,231.8z"/>
			<path d="M135.2,229.5c0.3,0,0.5,0,0.7,0.1c0.2,0.1,0.4,0.2,0.6,0.4c0.2,0.2,0.3,0.4,0.4,0.6c0.1,0.2,0.1,0.5,0.1,0.7
				c0,0.9,0,1.8,0,2.7c-0.3,0-0.6,0-1,0c-0.1-0.1-0.1-0.3-0.2-0.4c-0.1,0.1-0.2,0.2-0.4,0.2c-0.1,0.1-0.3,0.1-0.4,0.2
				c-0.2,0-0.3,0.1-0.5,0.1c-0.5,0-0.8-0.1-1.1-0.4c-0.3-0.2-0.4-0.5-0.4-0.9c0-0.2,0-0.4,0.1-0.6c0.1-0.2,0.2-0.3,0.4-0.5
				c0.2-0.1,0.5-0.2,0.8-0.3c0.3-0.1,0.8-0.1,1.3-0.1c0-0.2-0.1-0.4-0.2-0.5c-0.1-0.1-0.2-0.2-0.4-0.2c-0.1,0-0.2,0-0.3,0.1
				c-0.1,0-0.1,0.1-0.2,0.1c-0.1,0.1-0.1,0.1-0.1,0.2c-0.4,0-0.9-0.1-1.3-0.1c0-0.2,0.1-0.4,0.2-0.6c0.1-0.2,0.2-0.3,0.4-0.5
				c0.2-0.1,0.3-0.2,0.6-0.3C134.7,229.6,134.9,229.5,135.2,229.5z M134.9,233.1c0.2,0,0.4-0.1,0.6-0.2c0.2-0.1,0.2-0.3,0.2-0.6
				c0-0.1,0-0.1,0-0.2c-0.3,0-0.5,0-0.7,0c-0.2,0-0.3,0.1-0.4,0.1c-0.1,0.1-0.2,0.1-0.2,0.2c0,0.1-0.1,0.1-0.1,0.2
				c0,0.1,0,0.2,0.1,0.3C134.6,233.1,134.8,233.1,134.9,233.1z"/>
			<path d="M140,229.5c0.2,0,0.4,0,0.6,0.1c0.2,0,0.3,0.1,0.5,0.2c0.1,0.1,0.3,0.2,0.4,0.3c0.1,0.1,0.2,0.2,0.3,0.3
				c0.2,0.3,0.3,0.5,0.4,0.8c-0.4,0-0.9,0.1-1.3,0.1c0-0.1-0.1-0.2-0.2-0.3c-0.1-0.1-0.1-0.1-0.3-0.2c-0.1-0.1-0.2-0.1-0.4-0.1
				c-0.3,0-0.5,0.1-0.7,0.3c-0.2,0.2-0.3,0.5-0.3,0.8c0,0.3,0.1,0.6,0.3,0.8c0.2,0.2,0.4,0.3,0.7,0.3c0.2,0,0.3,0,0.4-0.1
				c0.1-0.1,0.2-0.1,0.3-0.2c0.1-0.1,0.1-0.2,0.2-0.3c0.4,0,0.9,0,1.3,0.1c-0.1,0.3-0.2,0.6-0.4,0.9c-0.1,0.1-0.2,0.2-0.3,0.3
				c-0.1,0.1-0.2,0.2-0.4,0.3c-0.1,0.1-0.3,0.2-0.5,0.2c-0.2,0.1-0.4,0.1-0.6,0.1c-0.3,0-0.6-0.1-0.9-0.2c-0.3-0.1-0.5-0.3-0.7-0.5
				c-0.2-0.2-0.4-0.4-0.5-0.7c-0.1-0.3-0.2-0.6-0.2-0.9c0-0.3,0.1-0.6,0.2-0.9c0.1-0.3,0.3-0.5,0.5-0.7c0.2-0.2,0.4-0.4,0.7-0.5
				C139.4,229.6,139.7,229.5,140,229.5z"/>
			<path d="M143.2,230.7c-0.2,0-0.4,0-0.7,0c0-0.4,0-0.7,0-1.1c0.1,0,0.2,0,0.3,0c0.4,0,0.5-0.2,0.5-0.5c0-0.2,0-0.4,0-0.6
				c0.4,0,0.7,0,1.1,0c0,0.4,0,0.7,0,1.1c0.3,0,0.6,0,0.9,0c0,0.4,0,0.8,0,1.2c-0.3,0-0.6,0-0.9,0c0,0.5,0,1,0,1.4
				c0,0.2,0.1,0.3,0.2,0.4c0.1,0.1,0.2,0.2,0.4,0.2c0.1,0,0.1,0,0.1,0c0,0,0.1,0,0.1,0c0,0,0.1,0,0.1,0c0,0.4,0,0.8,0,1.1
				c-0.1,0-0.1,0-0.2,0.1c-0.1,0-0.3,0.1-0.5,0.1c-0.5,0-0.9-0.1-1.2-0.4c-0.3-0.3-0.4-0.7-0.4-1.2
				C143.2,231.8,143.2,231.3,143.2,230.7z"/>
			<path d="M150.4,232.2c-0.1,0.2-0.1,0.4-0.3,0.5c-0.1,0.2-0.3,0.3-0.4,0.5c-0.2,0.1-0.4,0.3-0.6,0.4c-0.2,0.1-0.5,0.1-0.8,0.2
				c-0.3,0-0.6,0-0.8-0.1c-0.3-0.1-0.5-0.3-0.7-0.4c-0.2-0.2-0.4-0.4-0.5-0.7c-0.1-0.3-0.2-0.6-0.2-0.9c0-0.3,0.1-0.6,0.2-0.9
				c0.1-0.3,0.3-0.5,0.5-0.8c0.2-0.2,0.4-0.4,0.7-0.5c0.3-0.1,0.6-0.2,0.9-0.2c0.3,0,0.6,0,0.8,0.1c0.3,0.1,0.5,0.2,0.7,0.4
				c0.2,0.2,0.3,0.4,0.5,0.7c0.1,0.3,0.2,0.6,0.2,0.9c0,0.1,0,0.1,0,0.1c0,0,0,0.1,0,0.1c0,0.1,0,0.1,0,0.1c-1,0.1-2,0.1-3,0.2
				c0.1,0.2,0.2,0.3,0.3,0.4c0.2,0.1,0.4,0.2,0.6,0.2c0.1,0,0.2,0,0.3-0.1c0.1,0,0.2-0.1,0.2-0.1c0.1,0,0.1-0.1,0.2-0.2
				C149.5,232.2,150,232.3,150.4,232.2z M148.4,230.4c-0.2,0-0.4,0.1-0.6,0.3c-0.2,0.2-0.3,0.3-0.3,0.5c0.6,0,1.2-0.1,1.8-0.1
				c-0.1-0.2-0.2-0.3-0.3-0.5C148.8,230.4,148.6,230.4,148.4,230.4z"/>
			<path d="M153.5,228.8c0.1,0,0.1,0,0.2,0c0,0,0.1,0,0.1,0c0,0,0.1,0,0.1,0c0,0.4,0,0.9,0,1.3c0,0-0.1,0-0.1,0c0,0-0.1,0-0.2,0
				c-0.1,0-0.1,0-0.2,0c-0.2,0-0.4,0.1-0.6,0.3c-0.1,0.2-0.2,0.4-0.2,0.7c0,0.7,0,1.5,0,2.2c-0.4,0-0.9,0.1-1.3,0.1
				c0-1.5,0-2.9,0-4.4c0.3,0,0.6-0.1,1-0.1c0.1,0.2,0.1,0.3,0.2,0.5c0.1-0.1,0.2-0.2,0.3-0.3c0.1-0.1,0.2-0.1,0.3-0.2
				C153.1,228.9,153.3,228.9,153.5,228.8z"/>
			<path d="M154.5,227.6c0-0.2,0.1-0.4,0.2-0.5c0.1-0.2,0.3-0.2,0.5-0.3c0.2,0,0.4,0,0.5,0.2c0.1,0.1,0.2,0.3,0.2,0.5
				c0,0.2-0.1,0.4-0.2,0.5c-0.1,0.2-0.3,0.2-0.5,0.3c-0.2,0-0.4,0-0.5-0.2C154.6,227.9,154.5,227.8,154.5,227.6z M155.9,233.1
				c-0.4,0-0.9,0.1-1.3,0.1c0-1.5,0-2.9,0-4.4c0.4,0,0.9-0.1,1.3-0.1C155.9,230.1,155.9,231.6,155.9,233.1z"/>
			<path d="M158.8,228.2c0.3,0,0.5,0,0.7,0c0.2,0.1,0.4,0.2,0.6,0.3c0.2,0.1,0.3,0.3,0.4,0.5c0.1,0.2,0.1,0.4,0.1,0.7
				c0,0.9,0,1.8,0,2.7c-0.3,0-0.6,0.1-1,0.1c-0.1-0.1-0.1-0.3-0.2-0.4c-0.1,0.1-0.2,0.2-0.4,0.3c-0.1,0.1-0.2,0.2-0.4,0.2
				c-0.2,0.1-0.3,0.1-0.5,0.1c-0.5,0.1-0.8,0-1.1-0.2c-0.3-0.2-0.4-0.5-0.4-0.9c0-0.2,0-0.4,0.1-0.6c0.1-0.2,0.2-0.4,0.4-0.5
				c0.2-0.2,0.5-0.3,0.8-0.4c0.3-0.1,0.8-0.2,1.3-0.3c0-0.2-0.1-0.4-0.2-0.5c-0.1-0.1-0.2-0.1-0.4-0.1c-0.1,0-0.2,0-0.3,0.1
				c-0.1,0.1-0.1,0.1-0.2,0.2c-0.1,0.1-0.1,0.1-0.1,0.2c-0.4,0-0.9,0-1.3,0c0-0.2,0.1-0.4,0.2-0.6c0.1-0.2,0.2-0.4,0.4-0.5
				c0.2-0.1,0.3-0.3,0.6-0.4C158.3,228.3,158.5,228.3,158.8,228.2z M158.5,231.9c0.2,0,0.4-0.1,0.6-0.3c0.2-0.2,0.2-0.4,0.2-0.6
				c0-0.1,0-0.1,0-0.2c-0.3,0-0.5,0.1-0.7,0.1c-0.2,0-0.3,0.1-0.4,0.2c-0.1,0.1-0.2,0.1-0.2,0.2c0,0.1-0.1,0.2-0.1,0.2
				c0,0.1,0,0.2,0.1,0.3C158.2,231.8,158.4,231.9,158.5,231.9z"/>
			<path d="M162.8,232.2c-0.4,0.1-0.9,0.1-1.3,0.2c0-2,0-4,0-6c0.4-0.1,0.9-0.1,1.3-0.2C162.8,228.2,162.8,230.2,162.8,232.2z"/>
		</g>
	</g>
	<g>
		<path class="st5" d="M137.1,152.6c-24.7,0-46.5-5.6-52.9-13.7l1.8-1.5c6,7.5,27,12.8,51,12.8c24,0,45-5.3,51-12.8l1.8,1.5
			C183.5,147,161.8,152.6,137.1,152.6z"/>
	</g>
	<path class="st5" d="M157.8,79.6v33c0,3.8-9.3,6.8-20.7,6.8c-11.4,0-20.7-3.1-20.7-6.8v-33C116.5,79.6,158.1,79.3,157.8,79.6z"/>
	<path class="st6" d="M157.8,79.6c0,3.8-9.3,6.8-20.7,6.8s-20.7-3.1-20.7-6.8c0-3.8,4.4-9.8,20.7-9.8S157.8,75.8,157.8,79.6z"/>
	<g>
		<polygon class="st5" points="128.6,60.9 136.7,64 146.1,60.4 138,57.2 		"/>
		<polygon class="st1" points="128.6,76.5 136.7,79.6 136.7,64 128.6,60.9 		"/>
		<polygon class="st7" points="136.7,79.6 136.7,64 146.1,60.4 146.1,76 		"/>
	</g>
	<g>
		<polygon class="st5" points="116.3,50.9 176.8,74.4 186.3,70.8 125.7,47.3 		"/>
		<polygon class="st1" points="116.3,56.5 176.8,80 176.8,74.4 116.3,50.9 		"/>
		<polygon class="st7" points="176.8,80 176.8,74.4 186.3,70.8 186.3,76.3 		"/>
	</g>
</g>
</svg>
