<?xml version="1.0" encoding="utf-8"?>
<!-- Generator: Adobe Illustrator 24.0.0, SVG Export Plug-In . SVG Version: 6.00 Build 0)  -->
<svg version="1.1" id="Layer_1" xmlns="http://www.w3.org/2000/svg" xmlns:xlink="http://www.w3.org/1999/xlink" x="0px" y="0px"
	 width="300px" height="300px" viewBox="0 0 300 300" style="enable-background:new 0 0 300 300;" xml:space="preserve">
<style type="text/css">
	.st0{fill:#E5E6E6;}
	.st1{fill:#E6E6E6;}
	.st2{opacity:0.7;fill:#E6E6E6;}
	.st3{fill:#67B3CE;}
	.st4{fill:#82C1D1;}
	.st5{fill:#FFFFFF;}
	.st6{fill:#F2F2F2;}
	.st7{fill:#CCCCCC;}
	.st8{fill:#15556E;}
	.st9{fill:#44778B;}
	.st10{fill:#CECDD7;}
	.st11{fill:#E3E3E4;}
	.st12{fill:#EEC6AE;}
	.st13{fill:#CDA08A;}
	.st14{opacity:0.9;fill:#EFF9FE;}
	.st15{opacity:0.3;}
	.st16{enable-background:new    ;}
	.st17{clip-path:url(#SVGID_2_);enable-background:new    ;}
	.st18{fill:#89CFDB;}
	.st19{clip-path:url(#SVGID_4_);enable-background:new    ;}
	.st20{fill:#92D9EA;}
	.st21{clip-path:url(#SVGID_6_);enable-background:new    ;}
	.st22{clip-path:url(#SVGID_8_);enable-background:new    ;}
	.st23{clip-path:url(#SVGID_10_);enable-background:new    ;}
	.st24{clip-path:url(#SVGID_12_);enable-background:new    ;}
	.st25{fill:#ABE6EF;}
	.st26{clip-path:url(#SVGID_14_);enable-background:new    ;}
	.st27{clip-path:url(#SVGID_16_);enable-background:new    ;}
	.st28{clip-path:url(#SVGID_18_);enable-background:new    ;}
	.st29{clip-path:url(#SVGID_20_);enable-background:new    ;}
	.st30{clip-path:url(#SVGID_22_);enable-background:new    ;}
	.st31{clip-path:url(#SVGID_24_);enable-background:new    ;}
	.st32{clip-path:url(#SVGID_26_);enable-background:new    ;}
	.st33{clip-path:url(#SVGID_28_);enable-background:new    ;}
	.st34{clip-path:url(#SVGID_30_);enable-background:new    ;}
	.st35{clip-path:url(#SVGID_32_);enable-background:new    ;}
	.st36{clip-path:url(#SVGID_34_);enable-background:new    ;}
	.st37{clip-path:url(#SVGID_36_);enable-background:new    ;}
	.st38{clip-path:url(#SVGID_38_);enable-background:new    ;}
	.st39{clip-path:url(#SVGID_40_);enable-background:new    ;}
	.st40{clip-path:url(#SVGID_42_);enable-background:new    ;}
	.st41{clip-path:url(#SVGID_44_);enable-background:new    ;}
	.st42{clip-path:url(#SVGID_46_);enable-background:new    ;}
	.st43{clip-path:url(#SVGID_48_);enable-background:new    ;}
	.st44{clip-path:url(#SVGID_50_);enable-background:new    ;}
	.st45{clip-path:url(#SVGID_52_);enable-background:new    ;}
	.st46{clip-path:url(#SVGID_54_);enable-background:new    ;}
	.st47{clip-path:url(#SVGID_56_);enable-background:new    ;}
	.st48{clip-path:url(#SVGID_58_);enable-background:new    ;}
	.st49{clip-path:url(#SVGID_60_);enable-background:new    ;}
	.st50{clip-path:url(#SVGID_62_);enable-background:new    ;}
	.st51{clip-path:url(#SVGID_64_);enable-background:new    ;}
	.st52{clip-path:url(#SVGID_66_);enable-background:new    ;}
	.st53{clip-path:url(#SVGID_68_);enable-background:new    ;}
	.st54{clip-path:url(#SVGID_70_);enable-background:new    ;}
	.st55{clip-path:url(#SVGID_72_);enable-background:new    ;}
	.st56{clip-path:url(#SVGID_74_);enable-background:new    ;}
	.st57{clip-path:url(#SVGID_76_);enable-background:new    ;}
</style>
<g>
	<ellipse class="st0" cx="49.2" cy="175.1" rx="37.9" ry="12.6"/>
	<ellipse class="st1" cx="54.3" cy="175.3" rx="32.5" ry="10.8"/>
	<path class="st2" d="M86.8,106.9c0-5.9-6.9-15.4-32.5-15.4c-25.6,0-32.5,9.5-32.5,15.4c0,0,0,0,0,0v68.4h64.9L86.8,106.9
		C86.8,107,86.8,107,86.8,106.9z"/>
	<path class="st3" d="M85.7,131.5v43.1H23v-43.1C23,131.5,86.1,131.2,85.7,131.5z"/>
	<ellipse class="st3" cx="54.3" cy="174.6" rx="31.4" ry="10.4"/>
	<ellipse class="st4" cx="54.3" cy="131.4" rx="31.4" ry="10.4"/>
	<path class="st1" d="M78.6,143.2v29c-5.8,2.3-14.5,3.8-24.2,3.8c-9.8,0-18.5-1.5-24.2-3.8v-29c5.8,2.3,14.5,3.8,24.2,3.8
		S72.8,145.5,78.6,143.2z"/>
	<g>
		<g>
			<path d="M51.2,158.7c0.6,0,1.2,0,1.8,0c0,0.7,0,1.3,0,2c-0.2,0-0.4,0-0.6,0c0-0.1-0.1-0.2-0.1-0.3c-0.1,0.1-0.2,0.1-0.3,0.2
				c-0.1,0-0.2,0.1-0.3,0.1c-0.1,0-0.3,0.1-0.4,0c-0.2,0-0.5-0.1-0.7-0.2c-0.2-0.1-0.4-0.2-0.6-0.4c-0.2-0.2-0.3-0.4-0.4-0.6
				c-0.1-0.2-0.1-0.5-0.1-0.7c0-0.3,0-0.5,0.1-0.7c0.1-0.2,0.2-0.4,0.4-0.6c0.2-0.2,0.4-0.3,0.6-0.4c0.2-0.1,0.5-0.1,0.7-0.1
				c0.2,0,0.4,0,0.6,0.1c0.2,0.1,0.3,0.2,0.5,0.3c0.1,0.1,0.3,0.3,0.4,0.4c0.1,0.2,0.2,0.3,0.2,0.5c-0.3,0-0.6,0-0.9,0
				c0-0.1-0.1-0.1-0.1-0.2c0-0.1-0.1-0.1-0.2-0.2c-0.1-0.1-0.1-0.1-0.2-0.1c-0.1,0-0.2,0-0.3-0.1c-0.1,0-0.3,0-0.4,0.1
				c-0.1,0-0.2,0.1-0.3,0.2c-0.1,0.1-0.2,0.2-0.2,0.3c0,0.1-0.1,0.3-0.1,0.4c0,0.2,0,0.3,0.1,0.4c0.1,0.1,0.1,0.2,0.2,0.3
				c0.1,0.1,0.2,0.2,0.3,0.2c0.1,0.1,0.2,0.1,0.4,0.1c0.1,0,0.2,0,0.3,0c0.1,0,0.2-0.1,0.2-0.1c0.1,0,0.1-0.1,0.2-0.2
				c0-0.1,0.1-0.1,0.1-0.2c-0.3,0-0.5,0-0.8,0C51.2,159.2,51.2,158.9,51.2,158.7z"/>
			<path d="M53.6,157.1c0.9,0,1.7,0,2.6,0c0,0.3,0,0.5,0,0.8c-0.6,0-1.2,0-1.8,0c0,0.2,0,0.4,0,0.6c0.5,0,1.1,0,1.6,0
				c0,0.3,0,0.5,0,0.8c-0.5,0-1.1,0-1.6,0c0,0.2,0,0.4,0,0.6c0.6,0,1.2,0,1.8,0c0,0.3,0,0.5,0,0.8c-0.9,0-1.8,0-2.7,0
				C53.6,159.5,53.6,158.3,53.6,157.1z"/>
			<path d="M56.9,157c0.3,0,0.6,0,0.8,0c0,0.9,0,1.9,0,2.8c0.6,0,1.1,0,1.7-0.1c0,0.3,0,0.5,0,0.8c-0.8,0-1.7,0.1-2.5,0.1
				C56.9,159.5,56.9,158.2,56.9,157z"/>
			<path d="M39.6,166c-0.1,0.2-0.2,0.4-0.2,0.7c-0.3,0-0.6-0.1-0.9-0.1c0.4-1.2,0.9-2.3,1.3-3.5c0.3,0,0.6,0.1,0.9,0.1
				c0.4,1.3,0.9,2.5,1.3,3.8c-0.3,0-0.6-0.1-0.9-0.1c-0.1-0.2-0.2-0.5-0.2-0.7C40.4,166.1,40,166,39.6,166z M40.6,165.4
				c-0.1-0.4-0.3-0.8-0.4-1.3c-0.1,0.4-0.3,0.8-0.4,1.2C40.1,165.3,40.3,165.4,40.6,165.4z"/>
			<path d="M43.7,164.5c0.2,0,0.3,0.1,0.4,0.1c0.1,0.1,0.2,0.1,0.3,0.3c0.1,0.1,0.2,0.2,0.2,0.4c0.1,0.1,0.1,0.3,0.1,0.5
				c0,0.5,0,1,0,1.6c-0.3,0-0.5,0-0.8-0.1c0-0.5,0-0.9,0-1.4c0-0.2,0-0.3-0.1-0.4c-0.1-0.1-0.2-0.2-0.4-0.2c-0.1,0-0.3,0-0.4,0.1
				c-0.1,0.1-0.1,0.2-0.1,0.4c0,0.5,0,0.9,0,1.4c-0.3,0-0.5-0.1-0.8-0.1c0-0.9,0-1.8,0-2.7c0.2,0,0.4,0,0.6,0.1
				c0,0.1,0.1,0.2,0.1,0.3c0.1,0,0.1-0.1,0.2-0.1c0.1,0,0.2-0.1,0.2-0.1C43.5,164.4,43.6,164.4,43.7,164.5z"/>
			<path d="M45.5,165.4c-0.1,0-0.3,0-0.4,0c0-0.2,0-0.4,0-0.7c0.1,0,0.1,0,0.2,0c0.2,0,0.3-0.1,0.3-0.3c0-0.1,0-0.3,0-0.4
				c0.2,0,0.4,0,0.7,0c0,0.2,0,0.4,0,0.6c0.2,0,0.4,0,0.5,0c0,0.2,0,0.5,0,0.7c-0.2,0-0.4,0-0.5,0c0,0.3,0,0.6,0,0.9
				c0,0.1,0,0.2,0.1,0.3c0.1,0.1,0.1,0.1,0.2,0.1c0,0,0.1,0,0.1,0c0,0,0,0,0.1,0c0,0,0,0,0.1,0c0,0.2,0,0.5,0,0.7c0,0-0.1,0-0.1,0
				c-0.1,0-0.2,0-0.3,0c-0.3,0-0.5-0.1-0.7-0.3c-0.2-0.2-0.2-0.4-0.2-0.8C45.5,166,45.5,165.7,45.5,165.4z"/>
			<path d="M47.4,164.1c0-0.1,0-0.2,0.1-0.3c0.1-0.1,0.2-0.1,0.3-0.1c0.1,0,0.2,0.1,0.3,0.1c0.1,0.1,0.1,0.2,0.1,0.3
				c0,0.1,0,0.2-0.1,0.3c-0.1,0.1-0.2,0.1-0.3,0.1c-0.1,0-0.2-0.1-0.3-0.1C47.4,164.3,47.4,164.2,47.4,164.1z M48.2,167.5
				c-0.3,0-0.5,0-0.8,0c0-0.9,0-1.8,0-2.7c0.3,0,0.5,0,0.8,0C48.2,165.7,48.2,166.6,48.2,167.5z"/>
			<path d="M50.3,167.6c-0.1,0-0.2,0-0.3-0.1c-0.1,0-0.2-0.1-0.2-0.1c-0.1,0-0.1-0.1-0.2-0.2c0,0.1-0.1,0.2-0.1,0.3
				c-0.2,0-0.4,0-0.6,0c0-1.2,0-2.4,0-3.6c0.3,0,0.5,0,0.8,0c0,0.4,0,0.8,0,1.2c0,0,0.1-0.1,0.2-0.1c0.1,0,0.1-0.1,0.2-0.1
				c0.1,0,0.2,0,0.3,0c0.2,0,0.3,0,0.5,0.1c0.2,0.1,0.3,0.2,0.4,0.3c0.1,0.1,0.2,0.3,0.3,0.4c0.1,0.2,0.1,0.4,0.1,0.5
				c0,0.2,0,0.4-0.1,0.5c-0.1,0.2-0.2,0.3-0.3,0.4c-0.1,0.1-0.2,0.2-0.4,0.3C50.6,167.6,50.5,167.6,50.3,167.6z M50.8,166.3
				c0-0.2-0.1-0.3-0.2-0.5c-0.1-0.1-0.2-0.2-0.4-0.2c-0.2,0-0.3,0-0.4,0.2c-0.1,0.1-0.2,0.3-0.2,0.5c0,0.2,0.1,0.3,0.2,0.5
				c0.1,0.1,0.2,0.2,0.4,0.2c0.2,0,0.3,0,0.4-0.2C50.7,166.6,50.8,166.4,50.8,166.3z"/>
			<path d="M53.2,164.9c0.2,0,0.3,0,0.4,0.1c0.1,0.1,0.3,0.1,0.4,0.2c0.1,0.1,0.2,0.2,0.2,0.3c0.1,0.1,0.1,0.3,0.1,0.4
				c0,0.5,0,1.1,0,1.6c-0.2,0-0.4,0-0.6,0c0-0.1-0.1-0.2-0.1-0.3c-0.1,0.1-0.1,0.1-0.2,0.1c-0.1,0-0.2,0.1-0.2,0.1
				c-0.1,0-0.2,0-0.3,0c-0.3,0-0.5-0.1-0.7-0.2c-0.2-0.1-0.2-0.3-0.2-0.5c0-0.1,0-0.3,0.1-0.4c0.1-0.1,0.1-0.2,0.3-0.3
				c0.1-0.1,0.3-0.1,0.5-0.2c0.2,0,0.5-0.1,0.8-0.1c0-0.1,0-0.2-0.1-0.3c-0.1-0.1-0.1-0.1-0.2-0.1c-0.1,0-0.1,0-0.2,0
				c0,0-0.1,0.1-0.1,0.1c0,0-0.1,0.1-0.1,0.1c-0.3,0-0.5,0-0.8-0.1c0-0.1,0.1-0.3,0.1-0.4c0.1-0.1,0.1-0.2,0.2-0.3
				c0.1-0.1,0.2-0.1,0.3-0.2C52.8,164.9,53,164.9,53.2,164.9z M53,167.1c0.1,0,0.3,0,0.4-0.1c0.1-0.1,0.1-0.2,0.1-0.4
				c0,0,0-0.1,0-0.1c-0.2,0-0.3,0-0.4,0c-0.1,0-0.2,0-0.2,0.1c-0.1,0-0.1,0.1-0.1,0.1c0,0,0,0.1,0,0.1c0,0.1,0,0.1,0.1,0.2
				C52.8,167.1,52.9,167.1,53,167.1z"/>
			<path d="M56.1,164.9c0.1,0,0.3,0,0.4,0c0.1,0,0.2,0.1,0.3,0.1c0.1,0,0.2,0.1,0.2,0.2c0.1,0.1,0.1,0.1,0.2,0.2
				c0.1,0.2,0.2,0.3,0.2,0.5c-0.3,0-0.5,0.1-0.8,0.1c0-0.1-0.1-0.1-0.1-0.2c0,0-0.1-0.1-0.2-0.1c-0.1,0-0.1-0.1-0.2-0.1
				c-0.2,0-0.3,0.1-0.4,0.2c-0.1,0.1-0.2,0.3-0.2,0.5c0,0.2,0.1,0.4,0.2,0.5c0.1,0.1,0.2,0.2,0.4,0.2c0.1,0,0.2,0,0.2-0.1
				c0.1,0,0.1-0.1,0.2-0.1c0-0.1,0.1-0.1,0.1-0.2c0.3,0,0.5,0,0.8,0c-0.1,0.2-0.1,0.4-0.2,0.5c0,0.1-0.1,0.1-0.2,0.2
				c-0.1,0.1-0.1,0.1-0.2,0.2c-0.1,0.1-0.2,0.1-0.3,0.1c-0.1,0-0.2,0-0.4,0c-0.2,0-0.4,0-0.5-0.1c-0.2-0.1-0.3-0.2-0.4-0.3
				c-0.1-0.1-0.2-0.3-0.3-0.4c-0.1-0.2-0.1-0.4-0.1-0.5c0-0.2,0-0.4,0.1-0.5c0.1-0.2,0.2-0.3,0.3-0.4c0.1-0.1,0.3-0.2,0.4-0.3
				C55.7,164.9,55.9,164.9,56.1,164.9z"/>
			<path d="M58,165.6c-0.1,0-0.3,0-0.4,0c0-0.2,0-0.4,0-0.7c0.1,0,0.1,0,0.2,0c0.2,0,0.3-0.1,0.3-0.3c0-0.1,0-0.3,0-0.4
				c0.2,0,0.4,0,0.7,0c0,0.2,0,0.4,0,0.6c0.2,0,0.4,0,0.6,0c0,0.2,0,0.5,0,0.7c-0.2,0-0.4,0-0.6,0c0,0.3,0,0.6,0,0.9
				c0,0.1,0,0.2,0.1,0.3c0.1,0.1,0.1,0.1,0.2,0.1c0,0,0.1,0,0.1,0c0,0,0,0,0.1,0c0,0,0,0,0.1,0c0,0.2,0,0.5,0,0.7c0,0-0.1,0-0.1,0
				c-0.1,0-0.2,0-0.3,0c-0.3,0-0.5-0.1-0.7-0.2c-0.2-0.2-0.2-0.4-0.2-0.7C58,166.3,58,166,58,165.6z"/>
			<path d="M62.3,166.6c0,0.1-0.1,0.2-0.2,0.3c-0.1,0.1-0.2,0.2-0.3,0.3c-0.1,0.1-0.2,0.2-0.4,0.2c-0.1,0.1-0.3,0.1-0.5,0.1
				c-0.2,0-0.4,0-0.5-0.1c-0.2-0.1-0.3-0.2-0.4-0.3c-0.1-0.1-0.2-0.3-0.3-0.4c-0.1-0.2-0.1-0.3-0.1-0.5c0-0.2,0-0.4,0.1-0.6
				c0.1-0.2,0.2-0.3,0.3-0.5c0.1-0.1,0.3-0.2,0.4-0.3c0.2-0.1,0.3-0.1,0.5-0.1c0.2,0,0.4,0,0.5,0.1c0.2,0.1,0.3,0.1,0.4,0.3
				c0.1,0.1,0.2,0.3,0.3,0.4c0.1,0.2,0.1,0.4,0.1,0.6c0,0,0,0.1,0,0.1c0,0,0,0.1,0,0.1c0,0,0,0.1,0,0.1c-0.6,0-1.2,0.1-1.8,0.1
				c0,0.1,0.1,0.2,0.2,0.3c0.1,0.1,0.2,0.1,0.4,0.1c0.1,0,0.1,0,0.2,0c0.1,0,0.1,0,0.1-0.1c0,0,0.1-0.1,0.1-0.1
				C61.8,166.6,62.1,166.6,62.3,166.6z M61.1,165.4c-0.1,0-0.3,0.1-0.4,0.2c-0.1,0.1-0.2,0.2-0.2,0.3c0.4,0,0.7,0,1.1-0.1
				c0-0.1-0.1-0.2-0.2-0.3C61.4,165.5,61.3,165.4,61.1,165.4z"/>
			<path d="M64.2,164.5C64.2,164.5,64.3,164.5,64.2,164.5c0.1,0,0.1,0,0.2,0c0,0,0,0,0.1,0c0,0.3,0,0.5,0,0.8c0,0-0.1,0-0.1,0
				c0,0-0.1,0-0.1,0c0,0-0.1,0-0.1,0c-0.1,0-0.3,0.1-0.4,0.2c-0.1,0.1-0.1,0.2-0.1,0.4c0,0.5,0,0.9,0,1.4c-0.3,0-0.5,0-0.8,0.1
				c0-0.9,0-1.8,0-2.7c0.2,0,0.4,0,0.6,0c0,0.1,0.1,0.2,0.1,0.3c0-0.1,0.1-0.1,0.2-0.2c0.1,0,0.1-0.1,0.2-0.1
				C64,164.5,64.1,164.5,64.2,164.5z"/>
			<path d="M64.8,163.7c0-0.1,0-0.2,0.1-0.3c0.1-0.1,0.2-0.1,0.3-0.2c0.1,0,0.2,0,0.3,0.1c0.1,0.1,0.1,0.2,0.1,0.3
				c0,0.1,0,0.2-0.1,0.3c-0.1,0.1-0.2,0.1-0.3,0.2c-0.1,0-0.2,0-0.3-0.1C64.9,164,64.8,163.9,64.8,163.7z M65.6,167
				c-0.3,0-0.5,0.1-0.8,0.1c0-0.9,0-1.8,0-2.7c0.3,0,0.5-0.1,0.8-0.1C65.6,165.3,65.6,166.2,65.6,167z"/>
			<path d="M67.4,164.1c0.2,0,0.3,0,0.4,0c0.1,0,0.3,0.1,0.3,0.2c0.1,0.1,0.2,0.2,0.2,0.3c0.1,0.1,0.1,0.3,0.1,0.4
				c0,0.5,0,1.1,0,1.6c-0.2,0-0.4,0-0.6,0.1c0-0.1-0.1-0.2-0.1-0.2c-0.1,0.1-0.1,0.1-0.2,0.2c-0.1,0-0.2,0.1-0.2,0.1
				c-0.1,0-0.2,0.1-0.3,0.1c-0.3,0-0.5,0-0.7-0.1c-0.2-0.1-0.2-0.3-0.2-0.5c0-0.1,0-0.3,0.1-0.4c0.1-0.1,0.1-0.2,0.3-0.3
				c0.1-0.1,0.3-0.2,0.5-0.2c0.2-0.1,0.5-0.1,0.8-0.2c0-0.1,0-0.2-0.1-0.3c-0.1-0.1-0.1-0.1-0.2-0.1c-0.1,0-0.1,0-0.2,0.1
				c0,0-0.1,0.1-0.1,0.1c0,0-0.1,0.1-0.1,0.1c-0.3,0-0.5,0-0.8,0c0-0.1,0.1-0.3,0.1-0.4c0.1-0.1,0.1-0.2,0.2-0.3
				c0.1-0.1,0.2-0.2,0.3-0.2C67.1,164.2,67.3,164.1,67.4,164.1z M67.3,166.3c0.1,0,0.3-0.1,0.4-0.2c0.1-0.1,0.1-0.2,0.1-0.4
				c0,0,0-0.1,0-0.1c-0.2,0-0.3,0-0.4,0.1c-0.1,0-0.2,0.1-0.2,0.1c-0.1,0-0.1,0.1-0.1,0.1c0,0,0,0.1,0,0.1c0,0.1,0,0.1,0.1,0.2
				C67.1,166.3,67.2,166.3,67.3,166.3z"/>
			<path d="M69.9,166.5c-0.3,0-0.5,0.1-0.8,0.1c0-1.2,0-2.4,0-3.6c0.3,0,0.5-0.1,0.8-0.1C69.9,164.1,69.9,165.3,69.9,166.5z"/>
		</g>
	</g>
	<g>
		<path class="st5" d="M54.3,118.4c-14.9,0-28.1-3.4-32-8.3l1.1-0.9c3.6,4.6,16.3,7.7,30.9,7.7c14.5,0,27.2-3.2,30.8-7.7l1.1,0.9
			C82.4,115,69.2,118.4,54.3,118.4z"/>
	</g>
	<path class="st5" d="M66.8,74.3v20c0,2.3-5.6,4.1-12.5,4.1c-6.9,0-12.5-1.9-12.5-4.1v-20C41.8,74.3,67,74.1,66.8,74.3z"/>
	<path class="st6" d="M66.8,74.3c0,2.3-5.6,4.1-12.5,4.1s-12.5-1.9-12.5-4.1s2.6-5.9,12.5-5.9S66.8,72,66.8,74.3z"/>
	<g>
		<polygon class="st5" points="49.2,62.9 54,64.9 59.8,62.7 54.9,60.8 		"/>
		<polygon class="st1" points="49.2,72.4 54,74.3 54,64.9 49.2,62.9 		"/>
		<polygon class="st7" points="54,74.3 54,64.9 59.8,62.7 59.8,72.1 		"/>
	</g>
	<g>
		<polygon class="st5" points="41.7,57 78.3,71.1 84,68.9 47.4,54.8 		"/>
		<polygon class="st1" points="41.7,60.3 78.3,74.5 78.3,71.1 41.7,57 		"/>
		<polygon class="st7" points="78.3,74.5 78.3,71.1 84,68.9 84,72.3 		"/>
	</g>
</g>
<g>
	<g>
		
			<ellipse transform="matrix(0.8766 -0.4813 0.4813 0.8766 -32.3701 131.0099)" class="st8" cx="239.2" cy="128.6" rx="25.1" ry="43.6"/>
		<path class="st9" d="M283.3,154.2c9.1-5.5,11.7-21.1,5.3-39.1c-7.8-22.1-26.2-39.6-41.1-39c-2.4,0.1-4.5,0.7-6.4,1.6l-23.5,12.9
			c2.1-1.3,4.6-2,7.4-2.1c14.8-0.6,33.2,16.8,41.1,39c6.4,18,3.8,33.6-5.3,39.1L283.3,154.2z"/>
		
			<ellipse transform="matrix(0.8766 -0.4813 0.4813 0.8766 -40.181 122.6296)" class="st10" cx="219" cy="139.7" rx="21.9" ry="38.1"/>
		<path class="st11" d="M257.5,162c8-4.8,10.2-18.4,4.6-34.1c-6.8-19.3-22.9-34.6-35.9-34c-2.1,0.1-3.9,0.6-5.6,1.4l-20.5,11.3
			c1.8-1.1,4-1.8,6.4-1.9c13-0.5,29,14.7,35.9,34c5.6,15.7,3.3,29.3-4.6,34.1L257.5,162z"/>
	</g>
	<g>
		<path class="st12" d="M205.4,111.5c0,0-14.5,11.5-18.1,11.8c-3.6,0.2-48.9,4.1-53.6,5c-4.8,0.9-15.4,10-21.5,15.4
			c-6.1,5.4-10.9,10-10.9,10S77.1,166.3,82.1,174c4.8,7,18.8,2.5,18.8,2.5s-10.4,7.7-12.2,9.3c-6.1,2-13.8,6.1-15.2,7.2
			c-8.4,0.9-29,6.3-28.3,16.1c0.5,6.8,7,5,7,5s-10.2,6.1-7.5,11.3s18.3,2.9,18.3,2.9s-7.2,5.2-1.6,10.6s25.3-2,26.7-2.3
			c1.4-0.2,6.1-1.4,6.1-1.4s3.4,4.8,13.3,0.9c10-3.8,13.8-4.5,16.3-4.8s11.8-5.4,15.2-6.1s24.4-8.6,29.2-9.7s17.2-9.7,22.8-14
			s28.3-28.3,32.3-30.1c4.1-1.8,13.6-6.8,13.6-6.8s9.3-12.9-5.2-36.4C217.3,104.7,205.4,111.5,205.4,111.5z"/>
		<path class="st13" d="M168.3,215.6c4.8-1.1,17.2-9.7,22.8-14s28.3-28.3,32.3-30.1c4.1-1.8,13.6-6.8,13.6-6.8s2.9-4.1,2.9-11.8
			c0,0-5.6,4.9-9.2,7.2s-9.6,1.8-9.6,1.8s0.9,4.6-3,8.9c-3.8,4.3-16.2,13.2-19.4,17.3C187,203.6,168.3,215.6,168.3,215.6z"/>
		<path class="st13" d="M136.7,141.7c0,0,0.1,7.3-5.3,12c-5.5,4.7-12.3,6.8-12.3,6.8s-11.1,12.3-14.4,14.4
			c4.4-1.6,14.9-10.1,16.4-11.1c1.5-1,8.9-3.8,13.9-9.5c8.7,6.4,17.2,13.3,43.2,7.3c-16.6,0.6-26.8,2.7-41-9.3
			C138.3,146.2,136.7,141.7,136.7,141.7z"/>
		<path class="st13" d="M168.3,215.6c-4.7,1.3-25.8,9-29.2,9.7s-12.7,5.9-15.2,6.1s-6.3,0.9-16.3,4.8c0,0,6-4.3,15.9-7.2
			c9.9-2.9,13.9-5.3,16.4-6.7S153.7,217.8,168.3,215.6z"/>
		<path class="st13" d="M121.2,179.7c0,0-2.3,3.5-5.3,5c-3,1.6-19.4,12.8-23.3,14.5c-3.8,1.7-14.4,7-16.8,7.3
			c-2.4,0.3-16.6,0-22.6,6.8c10.8-5,20-4.5,23.5-5.5c6.3-3.2,11.5-5.2,17.7-7.4c6.5-3.4,20.5-13.6,22.6-14.7s9.4-2.3,9.4-2.3
			S122.7,183.8,121.2,179.7z"/>
		<path class="st13" d="M136.6,187.8c0,0-6.8,4.4-14.8,9.8c-7.9,5.4-16.8,11-23.9,14c-7.1,3-8.9,3.9-15.2,6
			c-6.4,2.1-22,8.6-23.7,10.8c4.7-0.4,4.7-0.4,4.7-0.4s5.7-6.1,27.3-11c4.1-2.3,16.8-10.1,21.1-11.2c2.8-2.9,18.9-13.3,29.3-14.9
			C137.2,190.7,136.6,187.8,136.6,187.8z"/>
		<path class="st13" d="M153.4,193c0,0-7.8,6.4-15.1,10.9s-13.6,8.8-20,11c-6.4,2.2-16.9,6.4-21.9,11.2c-5,4.9-9.8,10.6-9.8,10.6
			l7.7-1.5c0,0-0.7-5.5,4.5-9.3s14.4-7.8,20.5-9.5c4.5-3.1,13.8-7.9,15.9-8.4c0.8-1.8,17.7-12.5,20.2-12.8
			C153.7,194.3,153.4,193,153.4,193z"/>
	</g>
</g>
<g>
	<g>
		<circle class="st14" cx="195.5" cy="165.6" r="8.4"/>
		<path class="st5" d="M189.4,164.5c1,1.2,2-0.4,3.8-1.8c1.8-1.4,3.7-2.2,2.7-3.4c-1-1.2-3.2-1.1-5.1,0.4
			C189.1,161.1,188.4,163.3,189.4,164.5z"/>
	</g>
	<g>
		<circle class="st14" cx="176.7" cy="148.4" r="8.4"/>
		<path class="st5" d="M170.6,147.3c1,1.2,2-0.4,3.8-1.8c1.8-1.4,3.7-2.2,2.7-3.4c-1-1.2-3.2-1.1-5.1,0.4
			C170.3,143.9,169.6,146.1,170.6,147.3z"/>
	</g>
	<g>
		<circle class="st14" cx="186.6" cy="201.6" r="8.4"/>
		<path class="st5" d="M180.5,200.5c1,1.2,2-0.4,3.8-1.8c1.8-1.4,3.7-2.2,2.7-3.4s-3.2-1.1-5.1,0.4
			C180.2,197.1,179.5,199.3,180.5,200.5z"/>
	</g>
	<g>
		<circle class="st14" cx="190.2" cy="154.9" r="7"/>
		<path class="st5" d="M185.1,154c0.8,1,1.7-0.3,3.2-1.5c1.5-1.2,3.1-1.8,2.3-2.9s-2.7-0.9-4.2,0.3S184.2,153,185.1,154z"/>
	</g>
	<g>
		<circle class="st14" cx="173.9" cy="174" r="5.6"/>
		<path class="st5" d="M169.8,173.3c0.7,0.8,1.3-0.2,2.6-1.2c1.2-1,2.5-1.5,1.8-2.3c-0.7-0.8-2.2-0.7-3.4,0.2
			C169.6,171,169.2,172.4,169.8,173.3z"/>
	</g>
	<g>
		<circle class="st14" cx="144.6" cy="196.9" r="5.6"/>
		<path class="st5" d="M140.5,196.2c0.7,0.8,1.3-0.2,2.6-1.2c1.2-1,2.5-1.5,1.8-2.3c-0.7-0.8-2.2-0.7-3.4,0.2
			C140.3,193.9,139.8,195.4,140.5,196.2z"/>
	</g>
	<g>
		<circle class="st14" cx="163.1" cy="190.1" r="3.9"/>
		<path class="st5" d="M160.2,189.6c0.5,0.6,0.9-0.2,1.8-0.8c0.8-0.7,1.7-1,1.3-1.6c-0.5-0.6-1.5-0.5-2.4,0.2
			C160.1,188,159.8,189,160.2,189.6z"/>
	</g>
	<g>
		<circle class="st14" cx="171.4" cy="156.2" r="5.6"/>
		<path class="st5" d="M167.3,155.4c0.7,0.8,1.3-0.2,2.6-1.2c1.2-1,2.5-1.5,1.8-2.3s-2.2-0.7-3.4,0.2
			C167.1,153.2,166.7,154.6,167.3,155.4z"/>
	</g>
	<g>
		<circle class="st14" cx="184" cy="161.5" r="2.6"/>
		<path class="st5" d="M182.2,161.1c0.3,0.4,0.6-0.1,1.2-0.5c0.6-0.4,1.1-0.7,0.8-1c-0.3-0.4-1-0.3-1.5,0.1
			C182.1,160.1,181.9,160.8,182.2,161.1z"/>
	</g>
	<g>
		<circle class="st14" cx="160" cy="193.5" r="2.6"/>
		<path class="st5" d="M158.2,193.2c0.3,0.4,0.6-0.1,1.2-0.5c0.6-0.4,1.1-0.7,0.8-1s-1-0.3-1.5,0.1
			C158.1,192.2,157.9,192.8,158.2,193.2z"/>
	</g>
	<g>
		<circle class="st14" cx="140.2" cy="202.1" r="2.6"/>
		<path class="st5" d="M138.3,201.8c0.3,0.4,0.6-0.1,1.2-0.5c0.6-0.4,1.1-0.7,0.8-1c-0.3-0.4-1-0.3-1.5,0.1
			C138.2,200.7,138,201.4,138.3,201.8z"/>
	</g>
	<g>
		<circle class="st14" cx="167" cy="146.5" r="2.6"/>
		<path class="st5" d="M165.2,146.2c0.3,0.4,0.6-0.1,1.2-0.5s1.1-0.7,0.8-1s-1-0.3-1.5,0.1C165.1,145.2,164.9,145.8,165.2,146.2z"/>
	</g>
	<g>
		<circle class="st14" cx="160.5" cy="140.9" r="2.6"/>
		<path class="st5" d="M158.7,140.6c0.3,0.4,0.6-0.1,1.2-0.5s1.1-0.7,0.8-1c-0.3-0.4-1-0.3-1.5,0.1
			C158.6,139.6,158.4,140.2,158.7,140.6z"/>
	</g>
	<g>
		<circle class="st14" cx="191.4" cy="183.5" r="2.6"/>
		<path class="st5" d="M189.6,183.1c0.3,0.4,0.6-0.1,1.2-0.5s1.1-0.7,0.8-1c-0.3-0.4-1-0.3-1.5,0.1
			C189.5,182.1,189.3,182.8,189.6,183.1z"/>
	</g>
	<g>
		<circle class="st14" cx="196.1" cy="191.4" r="2.6"/>
		<path class="st5" d="M194.2,191c0.3,0.4,0.6-0.1,1.2-0.5s1.1-0.7,0.8-1s-1-0.3-1.5,0.1C194.1,190,193.9,190.7,194.2,191z"/>
	</g>
	<g>
		<circle class="st14" cx="179" cy="210" r="2.6"/>
		<path class="st5" d="M177.1,209.7c0.3,0.4,0.6-0.1,1.2-0.5c0.6-0.4,1.1-0.7,0.8-1c-0.3-0.4-1-0.3-1.5,0.1
			C177,208.6,176.8,209.3,177.1,209.7z"/>
	</g>
	<g>
		<circle class="st14" cx="185.3" cy="170.7" r="4.4"/>
		<path class="st5" d="M182.1,170.1c0.5,0.6,1.1-0.2,2-0.9c1-0.8,1.9-1.1,1.4-1.8c-0.5-0.6-1.7-0.6-2.7,0.2S181.5,169.4,182.1,170.1
			z"/>
	</g>
	<g>
		<circle class="st14" cx="172.7" cy="181.8" r="4.4"/>
		<path class="st5" d="M169.5,181.2c0.5,0.6,1.1-0.2,2-0.9s1.9-1.1,1.4-1.8s-1.7-0.6-2.7,0.2C169.3,179.5,168.9,180.6,169.5,181.2z"
			/>
	</g>
	<g>
		<circle class="st14" cx="170.1" cy="138.4" r="4.4"/>
		<path class="st5" d="M166.9,137.8c0.5,0.6,1.1-0.2,2-0.9s1.9-1.1,1.4-1.8s-1.7-0.6-2.7,0.2S166.4,137.2,166.9,137.8z"/>
	</g>
	<g>
		<circle class="st14" cx="193.6" cy="195.2" r="4.4"/>
		<path class="st5" d="M190.4,194.6c0.5,0.6,1.1-0.2,2-0.9s1.9-1.1,1.4-1.8c-0.5-0.6-1.7-0.6-2.7,0.2
			C190.3,192.8,189.9,194,190.4,194.6z"/>
	</g>
	<g>
		<circle class="st14" cx="196.1" cy="175.7" r="4.4"/>
		<path class="st5" d="M192.9,175.1c0.5,0.6,1.1-0.2,2-0.9s1.9-1.1,1.4-1.8c-0.5-0.6-1.7-0.6-2.7,0.2S192.4,174.5,192.9,175.1z"/>
	</g>
	<g>
		<circle class="st14" cx="178.6" cy="194.3" r="4.4"/>
		<path class="st5" d="M175.4,193.8c0.5,0.6,1.1-0.2,2-0.9c1-0.8,1.9-1.1,1.4-1.8c-0.5-0.6-1.7-0.6-2.7,0.2S174.9,193.1,175.4,193.8
			z"/>
	</g>
</g>
<g>
	<g>
		<circle class="st14" cx="56.9" cy="233.8" r="8.4"/>
		<path class="st5" d="M63.1,232.7c-1,1.2-2-0.4-3.8-1.8c-1.8-1.4-3.7-2.2-2.7-3.4c1-1.2,3.2-1.1,5.1,0.4
			C63.4,229.3,64,231.4,63.1,232.7z"/>
	</g>
	<g>
		<circle class="st14" cx="69.6" cy="206.2" r="5.6"/>
		<path class="st5" d="M73.7,205.4c-0.7,0.8-1.3-0.2-2.6-1.2c-1.2-1-2.5-1.5-1.8-2.3c0.7-0.8,2.2-0.7,3.4,0.2
			C73.9,203.2,74.3,204.6,73.7,205.4z"/>
	</g>
	<g>
		<circle class="st14" cx="95.2" cy="232.9" r="5.6"/>
		<path class="st5" d="M99.3,232.1c-0.7,0.8-1.3-0.2-2.6-1.2c-1.2-1-2.5-1.5-1.8-2.3c0.7-0.8,2.2-0.7,3.4,0.2
			C99.5,229.9,99.9,231.3,99.3,232.1z"/>
	</g>
	<g>
		<circle class="st14" cx="80.4" cy="222.3" r="3.9"/>
		<path class="st5" d="M83.3,221.8c-0.5,0.6-0.9-0.2-1.8-0.8c-0.8-0.7-1.7-1-1.3-1.6c0.5-0.6,1.5-0.5,2.4,0.2
			C83.4,220.2,83.7,221.2,83.3,221.8z"/>
	</g>
	<g>
		<circle class="st14" cx="59.5" cy="193.6" r="2.6"/>
		<path class="st5" d="M61.4,193.3c-0.3,0.4-0.6-0.1-1.2-0.5s-1.1-0.7-0.8-1c0.3-0.4,1-0.3,1.5,0.1S61.7,192.9,61.4,193.3z"/>
	</g>
	<g>
		<circle class="st14" cx="83.5" cy="225.7" r="2.6"/>
		<path class="st5" d="M85.4,225.4c-0.3,0.4-0.6-0.1-1.2-0.5c-0.6-0.4-1.1-0.7-0.8-1c0.3-0.4,1-0.3,1.5,0.1
			C85.5,224.3,85.7,225,85.4,225.4z"/>
	</g>
	<g>
		<circle class="st14" cx="99.6" cy="238" r="2.6"/>
		<path class="st5" d="M101.4,237.7c-0.3,0.4-0.6-0.1-1.2-0.5c-0.6-0.4-1.1-0.7-0.8-1s1-0.3,1.5,0.1
			C101.5,236.6,101.7,237.3,101.4,237.7z"/>
	</g>
	<g>
		<circle class="st14" cx="52.1" cy="215.6" r="2.6"/>
		<path class="st5" d="M53.9,215.3c-0.3,0.4-0.6-0.1-1.2-0.5c-0.6-0.4-1.1-0.7-0.8-1s1-0.3,1.5,0.1C54,214.3,54.2,214.9,53.9,215.3z
			"/>
	</g>
	<g>
		<circle class="st14" cx="47.4" cy="223.5" r="2.6"/>
		<path class="st5" d="M49.3,223.2c-0.3,0.4-0.6-0.1-1.2-0.5s-1.1-0.7-0.8-1c0.3-0.4,1-0.3,1.5,0.1
			C49.4,222.2,49.6,222.8,49.3,223.2z"/>
	</g>
	<g>
		<circle class="st14" cx="64.5" cy="242.2" r="2.6"/>
		<path class="st5" d="M66.4,241.8c-0.3,0.4-0.6-0.1-1.2-0.5c-0.6-0.4-1.1-0.7-0.8-1c0.3-0.4,1-0.3,1.5,0.1
			C66.5,240.8,66.7,241.5,66.4,241.8z"/>
	</g>
	<g>
		<circle class="st14" cx="58.3" cy="202.8" r="4.4"/>
		<path class="st5" d="M61.5,202.3c-0.5,0.6-1.1-0.2-2-0.9c-1-0.8-1.9-1.1-1.4-1.8s1.7-0.6,2.7,0.2C61.6,200.5,62,201.6,61.5,202.3z
			"/>
	</g>
	<g>
		<circle class="st14" cx="70.8" cy="214" r="4.4"/>
		<path class="st5" d="M74,213.4c-0.5,0.6-1.1-0.2-2-0.9c-1-0.8-1.9-1.1-1.4-1.8c0.5-0.6,1.7-0.6,2.7,0.2
			C74.2,211.6,74.6,212.8,74,213.4z"/>
	</g>
	<g>
		<circle class="st14" cx="49.9" cy="227.4" r="4.4"/>
		<path class="st5" d="M53.1,226.8c-0.5,0.6-1.1-0.2-2-0.9c-1-0.8-1.9-1.1-1.4-1.8s1.7-0.6,2.7,0.2C53.3,225,53.6,226.1,53.1,226.8z
			"/>
	</g>
	<g>
		<circle class="st14" cx="47.4" cy="207.8" r="4.4"/>
		<path class="st5" d="M50.6,207.3c-0.5,0.6-1.1-0.2-2-0.9s-1.9-1.1-1.4-1.8s1.7-0.6,2.7,0.2C50.7,205.5,51.1,206.6,50.6,207.3z"/>
	</g>
	<g>
		<circle class="st14" cx="64.9" cy="226.5" r="4.4"/>
		<path class="st5" d="M68.1,225.9c-0.5,0.6-1.1-0.2-2-0.9s-1.9-1.1-1.4-1.8c0.5-0.6,1.7-0.6,2.7,0.2
			C68.3,224.2,68.6,225.3,68.1,225.9z"/>
	</g>
</g>
<g>
	<g class="st15">
		<path class="st0" d="M156.2,200.5c9.3,5.4,9.4,14.2,0.1,19.5l-15.3,8.9c-9.2,5.4-24.4,5.4-33.7,0l-46.1-26.6
			c-9.3-5.4-9.3-14.1-0.1-19.5l15.3-8.9c9.2-5.4,24.4-5.4,33.7,0L156.2,200.5z"/>
	</g>
	<g>
		<g>
			<g class="st16">
				<g>
					<defs>
						<path id="SVGID_1_" d="M59,190.8l0.1-19.1c0,3.5,2.3,7,6.9,9.7l-0.1,19.1C61.2,197.8,58.9,194.3,59,190.8z"/>
					</defs>
					<use xlink:href="#SVGID_1_"  style="overflow:visible;fill:#89CFDB;"/>
					<clipPath id="SVGID_2_">
						<use xlink:href="#SVGID_1_"  style="overflow:visible;"/>
					</clipPath>
					<g class="st17">
						<path class="st18" d="M65.9,181.3l-0.1,19.1c-4.6-2.7-6.9-6.2-6.9-9.7l0.1-19.1C59,175.1,61.3,178.6,65.9,181.3"/>
					</g>
				</g>
				<g>
					<defs>
						<path id="SVGID_3_" d="M166.1,189.2l-0.1,19.1c0,3.5-2.3,6.9-6.8,9.5l0.1-19.1C163.9,196.1,166.1,192.7,166.1,189.2z"/>
					</defs>
					<use xlink:href="#SVGID_3_"  style="overflow:visible;fill:#89CFDB;"/>
					<clipPath id="SVGID_4_">
						<use xlink:href="#SVGID_3_"  style="overflow:visible;"/>
					</clipPath>
					<g class="st19">
						<path class="st18" d="M166.1,189.2l-0.1,19.1c0,0.1,0,0.1,0,0.2l0.1-19.1C166.1,189.4,166.1,189.3,166.1,189.2"/>
						<path class="st18" d="M166.1,189.4l-0.1,19.1c0,0.5-0.1,0.9-0.2,1.4l0.1-19.1C166.1,190.3,166.1,189.9,166.1,189.4"/>
						<path class="st18" d="M166,190.8l-0.1,19.1c-0.1,0.4-0.2,0.9-0.4,1.3l0.1-19.1C165.8,191.7,165.9,191.2,166,190.8"/>
						<path class="st18" d="M165.6,192.1l-0.1,19.1c-0.2,0.5-0.4,0.9-0.6,1.3l0.1-19.1C165.2,193,165.4,192.6,165.6,192.1"/>
						<path class="st18" d="M165,193.4l-0.1,19.1c-0.3,0.5-0.6,0.9-0.9,1.4l0.1-19.1C164.4,194.4,164.7,193.9,165,193.4"/>
						<path class="st18" d="M164,194.8L164,214c-0.4,0.5-0.9,1.1-1.4,1.6l0.1-19.1C163.1,195.9,163.6,195.4,164,194.8"/>
						<path class="st18" d="M162.6,196.4l-0.1,19.1c-0.8,0.8-1.8,1.5-2.9,2.2l0.1-19.1C160.8,197.9,161.7,197.2,162.6,196.4"/>
						<path class="st18" d="M159.6,198.6l-0.1,19.1c-0.1,0.1-0.2,0.1-0.3,0.2l0.1-19.1C159.5,198.7,159.5,198.6,159.6,198.6"/>
					</g>
				</g>
				<g>
					<polygon class="st18" points="159.4,198.7 159.3,217.9 144.3,226.6 144.4,207.5 					"/>
				</g>
				<g>
					<polygon class="st18" points="111.2,207.5 111.1,226.6 65.8,200.4 65.9,181.3 					"/>
				</g>
				<g>
					<path class="st20" d="M159.2,179.5c9.2,5.3,9.2,13.9,0.1,19.2l-15,8.7c-9.1,5.3-24,5.3-33.2,0l-45.3-26.2
						c-9.1-5.3-9.2-13.9-0.1-19.2l15-8.7c9.1-5.3,24-5.3,33.1,0L159.2,179.5z"/>
				</g>
				<g>
					<defs>
						<path id="SVGID_5_" d="M144.4,207.5l-0.1,19.1c-9.1,5.3-24,5.3-33.2,0l0.1-19.1C120.3,212.7,135.3,212.7,144.4,207.5z"/>
					</defs>
					<use xlink:href="#SVGID_5_"  style="overflow:visible;fill:#89CFDB;"/>
					<clipPath id="SVGID_6_">
						<use xlink:href="#SVGID_5_"  style="overflow:visible;"/>
					</clipPath>
					<g class="st21">
						<path class="st18" d="M144.4,207.5l-0.1,19.1c-1.5,0.9-3.3,1.6-5.1,2.2l0.1-19.1C141.1,209.1,142.8,208.4,144.4,207.5"/>
						<path class="st18" d="M139.3,209.7l-0.1,19.1c-1.4,0.5-2.9,0.8-4.4,1.1l0.1-19.1C136.3,210.5,137.8,210.2,139.3,209.7"/>
						<path class="st18" d="M134.8,210.8l-0.1,19.1c-1,0.2-2,0.3-3,0.4l0.1-19.1C132.8,211.1,133.8,211,134.8,210.8"/>
						<path class="st18" d="M131.8,211.2l-0.1,19.1c-0.9,0.1-1.7,0.1-2.6,0.2l0.1-19.1C130.1,211.4,131,211.3,131.8,211.2"/>
						<path class="st18" d="M129.2,211.4l-0.1,19.1c-0.8,0-1.6,0-2.4,0l0.1-19.1C127.6,211.4,128.4,211.4,129.2,211.4"/>
						<path class="st18" d="M126.8,211.4l-0.1,19.1c-0.8,0-1.6-0.1-2.3-0.1l0.1-19.1C125.2,211.3,126,211.4,126.8,211.4"/>
						<path class="st18" d="M124.5,211.3l-0.1,19.1c-0.8-0.1-1.5-0.1-2.3-0.3l0.1-19.1C122.9,211.1,123.7,211.2,124.5,211.3"/>
						<path class="st18" d="M122.2,211l-0.1,19.1c-0.8-0.1-1.6-0.2-2.3-0.4l0.1-19.1C120.6,210.8,121.4,210.9,122.2,211"/>
						<path class="st18" d="M119.8,210.6l-0.1,19.1c-0.8-0.2-1.6-0.4-2.4-0.6l0.1-19.1C118.2,210.3,119,210.4,119.8,210.6"/>
						<path class="st18" d="M117.4,210l-0.1,19.1c-1-0.3-1.9-0.6-2.8-1l0.1-19.1C115.5,209.4,116.4,209.7,117.4,210"/>
						<path class="st18" d="M114.5,209.1l-0.1,19.1c-1.2-0.5-2.3-1-3.4-1.6l0.1-19.1C112.2,208.1,113.4,208.6,114.5,209.1"/>
					</g>
				</g>
			</g>
		</g>
		<g>
			<g class="st16">
				<g>
					<polygon class="st18" points="102.1,161.3 102.1,163.3 91.3,169.6 91.3,167.6 					"/>
				</g>
				<g>
					<polygon class="st18" points="82.2,168.6 82.2,170.6 80.1,169.3 80.1,167.4 					"/>
				</g>
				<g>
					<defs>
						<path id="SVGID_7_" d="M91.3,167.6l0,2c-1.6,0.9-2.7,1.5-3.2,1.8l0-2C88.6,169.2,89.7,168.6,91.3,167.6z"/>
					</defs>
					<use xlink:href="#SVGID_7_"  style="overflow:visible;fill:#89CFDB;"/>
					<clipPath id="SVGID_8_">
						<use xlink:href="#SVGID_7_"  style="overflow:visible;"/>
					</clipPath>
					<g class="st22">
						<path class="st18" d="M91.3,167.6l0,2c-1.6,0.9-2.7,1.5-3.2,1.8l0-2C88.6,169.2,89.7,168.6,91.3,167.6"/>
					</g>
				</g>
				<g>
					<defs>
						<path id="SVGID_9_" d="M84.5,169.7l0,2c-0.6-0.2-1.4-0.5-2.3-1.1l0-2C83.2,169.1,84,169.5,84.5,169.7z"/>
					</defs>
					<use xlink:href="#SVGID_9_"  style="overflow:visible;fill:#89CFDB;"/>
					<clipPath id="SVGID_10_">
						<use xlink:href="#SVGID_9_"  style="overflow:visible;"/>
					</clipPath>
					<g class="st23">
						<path class="st18" d="M84.5,169.7l0,2c-0.1,0-0.3-0.1-0.4-0.2l0-2C84.3,169.6,84.4,169.6,84.5,169.7"/>
						<path class="st18" d="M84.1,169.5l0,2c-0.5-0.2-1.2-0.5-1.9-0.9l0-2C83,169,83.6,169.3,84.1,169.5"/>
					</g>
				</g>
				<g>
					<defs>
						<path id="SVGID_11_" d="M88.1,169.4l0,2c-0.5,0.3-1.1,0.4-1.7,0.5l0-2C87.1,169.8,87.7,169.6,88.1,169.4z"/>
					</defs>
					<use xlink:href="#SVGID_11_"  style="overflow:visible;fill:#89CFDB;"/>
					<clipPath id="SVGID_12_">
						<use xlink:href="#SVGID_11_"  style="overflow:visible;"/>
					</clipPath>
					<g class="st24">
						<path class="st18" d="M88.1,169.4l0,2c-0.2,0.1-0.4,0.2-0.6,0.3l0-2C87.7,169.6,88,169.5,88.1,169.4"/>
						<path class="st18" d="M87.5,169.7l0,2c-0.2,0.1-0.4,0.1-0.6,0.1l0-2C87.1,169.8,87.3,169.7,87.5,169.7"/>
						<path class="st18" d="M87,169.8l0,2c-0.1,0-0.3,0-0.4,0.1l0-2C86.7,169.8,86.8,169.8,87,169.8"/>
						<path class="st18" d="M86.6,169.8l0,2c0,0-0.1,0-0.1,0l0-2C86.5,169.9,86.5,169.8,86.6,169.8"/>
					</g>
				</g>
				<g>
					<path class="st25" d="M102.1,161.3l-10.8,6.3c-1.6,0.9-2.7,1.5-3.2,1.8c-0.5,0.3-1.1,0.4-1.7,0.5c-0.7,0.1-1.3,0-1.9-0.2
						c-0.6-0.2-1.4-0.5-2.3-1.1l-2.1-1.2l2.8-1.6c0.2,0.2,0.4,0.3,0.5,0.3c0.3,0.2,0.6,0.3,0.9,0.3c0.3,0,0.6,0,0.8-0.1
						c0.2-0.1,0.7-0.3,1.3-0.7l11.3-6.6L102.1,161.3z"/>
				</g>
				<g>
					<defs>
						<path id="SVGID_13_" d="M86.4,169.9l0,2c-0.7,0.1-1.3,0-1.9-0.2l0-2C85.2,169.9,85.8,169.9,86.4,169.9z"/>
					</defs>
					<use xlink:href="#SVGID_13_"  style="overflow:visible;fill:#89CFDB;"/>
					<clipPath id="SVGID_14_">
						<use xlink:href="#SVGID_13_"  style="overflow:visible;"/>
					</clipPath>
					<g class="st26">
						<path class="st18" d="M86.4,169.9l0,2c-0.1,0-0.2,0-0.3,0l0-2C86.2,169.9,86.3,169.9,86.4,169.9"/>
						<path class="st18" d="M86.1,169.9l0,2c-0.1,0-0.2,0-0.3,0l0-2C85.9,169.9,86,169.9,86.1,169.9"/>
						<path class="st18" d="M85.8,169.9l0,2c-0.1,0-0.2,0-0.3,0l0-2C85.6,169.9,85.7,169.9,85.8,169.9"/>
						<path class="st18" d="M85.6,169.9l0,2c-0.1,0-0.2,0-0.3,0l0-2C85.4,169.8,85.5,169.9,85.6,169.9"/>
						<path class="st18" d="M85.3,169.8l0,2c-0.1,0-0.2,0-0.3-0.1l0-2C85.1,169.8,85.2,169.8,85.3,169.8"/>
						<path class="st18" d="M85,169.8l0,2c-0.1,0-0.2-0.1-0.4-0.1l0-2C84.7,169.7,84.9,169.8,85,169.8"/>
						<path class="st18" d="M84.6,169.7l0,2c0,0,0,0-0.1,0L84.6,169.7C84.6,169.7,84.6,169.7,84.6,169.7"/>
					</g>
				</g>
			</g>
			<g class="st16">
				<g>
					<defs>
						<path id="SVGID_15_" d="M103.1,167.9l0,2c0-0.1-0.1-0.2-0.2-0.3c-0.3-0.2-0.5-0.2-0.8-0.1l0-2c0.2-0.1,0.5,0,0.8,0.1
							C103,167.7,103.1,167.8,103.1,167.9z"/>
					</defs>
					<use xlink:href="#SVGID_15_"  style="overflow:visible;fill:#89CFDB;"/>
					<clipPath id="SVGID_16_">
						<use xlink:href="#SVGID_15_"  style="overflow:visible;"/>
					</clipPath>
					<g class="st27">
						<path class="st18" d="M103.1,167.9l0,2c0-0.1-0.1-0.2-0.2-0.3c-0.1,0-0.1-0.1-0.2-0.1l0-2c0.1,0,0.1,0.1,0.2,0.1
							C103,167.7,103.1,167.8,103.1,167.9"/>
						<path class="st18" d="M102.6,167.5l0,2c0,0-0.1,0-0.1,0l0-2C102.6,167.5,102.6,167.5,102.6,167.5"/>
						<path class="st18" d="M102.5,167.4l0,2c0,0,0,0-0.1,0L102.5,167.4C102.5,167.4,102.5,167.4,102.5,167.4"/>
						<path class="st18" d="M102.5,167.4l0,2c0,0,0,0-0.1,0L102.5,167.4C102.4,167.4,102.4,167.4,102.5,167.4"/>
						<path class="st18" d="M102.4,167.4l0,2c0,0,0,0-0.1,0L102.4,167.4C102.4,167.4,102.4,167.4,102.4,167.4"/>
						<path class="st18" d="M102.3,167.4l0,2c0,0,0,0,0,0L102.3,167.4C102.3,167.4,102.3,167.4,102.3,167.4"/>
						<path class="st18" d="M102.3,167.4l0,2c0,0,0,0,0,0L102.3,167.4C102.3,167.4,102.3,167.4,102.3,167.4"/>
						<path class="st18" d="M102.3,167.4l0,2c0,0,0,0-0.1,0L102.3,167.4C102.2,167.4,102.2,167.4,102.3,167.4"/>
						<path class="st18" d="M102.2,167.4l0,2c0,0,0,0-0.1,0L102.2,167.4C102.2,167.4,102.2,167.4,102.2,167.4"/>
						<path class="st18" d="M102.1,167.4l0,2c0,0,0,0-0.1,0L102.1,167.4C102.1,167.4,102.1,167.4,102.1,167.4"/>
					</g>
				</g>
				<g>
					<defs>
						<path id="SVGID_17_" d="M102.1,167.4l0,2c-0.3,0.1-0.7,0.3-1.5,0.7l0-2C101.3,167.7,101.8,167.5,102.1,167.4z"/>
					</defs>
					<use xlink:href="#SVGID_17_"  style="overflow:visible;fill:#89CFDB;"/>
					<clipPath id="SVGID_18_">
						<use xlink:href="#SVGID_17_"  style="overflow:visible;"/>
					</clipPath>
					<g class="st28">
						<path class="st18" d="M102.1,167.4l0,2c0,0-0.1,0-0.1,0l0-2C102,167.5,102,167.4,102.1,167.4"/>
						<path class="st18" d="M102,167.5l0,2c-0.3,0.1-0.7,0.3-1.4,0.7l0-2C101.2,167.8,101.7,167.6,102,167.5"/>
					</g>
				</g>
				<g>
					<polygon class="st18" points="99.2,169 99.2,170.9 95.4,168.7 95.4,166.8 					"/>
				</g>
				<g>
					<polygon class="st18" points="100.6,168.2 100.6,170.1 99.2,170.9 99.2,169 					"/>
				</g>
				<g>
					<defs>
						<path id="SVGID_19_" d="M107.8,169.1l0,2c0,0.4-0.2,0.8-0.6,1.2l0-2C107.6,169.9,107.8,169.5,107.8,169.1z"/>
					</defs>
					<use xlink:href="#SVGID_19_"  style="overflow:visible;fill:#89CFDB;"/>
					<clipPath id="SVGID_20_">
						<use xlink:href="#SVGID_19_"  style="overflow:visible;"/>
					</clipPath>
					<g class="st29">
						<path class="st18" d="M107.8,169.1l0,2c0,0,0,0,0,0L107.8,169.1C107.8,169.1,107.8,169.1,107.8,169.1"/>
						<path class="st18" d="M107.8,169.1l0,2c0,0.1,0,0.2,0,0.2l0-2C107.8,169.3,107.8,169.2,107.8,169.1"/>
						<path class="st18" d="M107.8,169.3l0,2c0,0.1,0,0.1-0.1,0.2l0-2C107.8,169.5,107.8,169.4,107.8,169.3"/>
						<path class="st18" d="M107.7,169.6l0,2c0,0.1-0.1,0.1-0.1,0.2l0-2C107.7,169.7,107.7,169.6,107.7,169.6"/>
						<path class="st18" d="M107.6,169.8l0,2c0,0.1-0.1,0.1-0.1,0.2l0-2C107.5,169.9,107.6,169.8,107.6,169.8"/>
						<path class="st18" d="M107.5,170l0,2c-0.1,0.1-0.1,0.2-0.2,0.3l0-2C107.3,170.2,107.4,170.1,107.5,170"/>
						<path class="st18" d="M107.2,170.2l0,2c0,0,0,0,0,0L107.2,170.2C107.2,170.3,107.2,170.3,107.2,170.2"/>
					</g>
				</g>
				<g>
					<defs>
						<path id="SVGID_21_" d="M98.7,170.8l0,2c-1.1-0.1-1.9-0.1-2.3,0c-0.4,0.1-0.9,0.4-1.5,0.7c-0.7,0.4-1.1,0.7-1.2,0.9l0-2
							c0.1-0.2,0.5-0.5,1.2-0.9c0.6-0.3,1.1-0.6,1.5-0.7C96.8,170.7,97.6,170.7,98.7,170.8z"/>
					</defs>
					<use xlink:href="#SVGID_21_"  style="overflow:visible;fill:#89CFDB;"/>
					<clipPath id="SVGID_22_">
						<use xlink:href="#SVGID_21_"  style="overflow:visible;"/>
					</clipPath>
					<g class="st30">
						<path class="st18" d="M98.7,170.8l0,2c-0.1,0-0.1,0-0.2,0l0-2C98.6,170.8,98.6,170.8,98.7,170.8"/>
						<path class="st18" d="M98.5,170.8l0,2c-0.3,0-0.7,0-0.9-0.1l0-2C97.8,170.7,98.1,170.7,98.5,170.8"/>
						<path class="st18" d="M97.6,170.7l0,2c-0.2,0-0.3,0-0.5,0l0-2C97.2,170.7,97.4,170.7,97.6,170.7"/>
						<path class="st18" d="M97.1,170.7l0,2c-0.1,0-0.2,0-0.3,0l0-2C96.9,170.7,97,170.7,97.1,170.7"/>
						<path class="st18" d="M96.8,170.7l0,2c-0.1,0-0.2,0-0.2,0l0-2C96.6,170.8,96.7,170.7,96.8,170.7"/>
						<path class="st18" d="M96.5,170.8l0,2c-0.1,0-0.1,0-0.2,0c0,0-0.1,0-0.1,0l0-2c0,0,0.1,0,0.1,0
							C96.4,170.8,96.5,170.8,96.5,170.8"/>
						<path class="st18" d="M96.3,170.8l0,2c-0.4,0.1-0.9,0.4-1.4,0.7c-0.1,0.1-0.2,0.1-0.3,0.2l0-2c0.1-0.1,0.2-0.1,0.3-0.2
							C95.4,171.2,95.9,171,96.3,170.8"/>
						<path class="st18" d="M94.5,171.7l0,2c-0.4,0.2-0.7,0.4-0.8,0.6l0-2C93.9,172.1,94.2,171.9,94.5,171.7"/>
						<path class="st18" d="M93.7,172.3l0,2c0,0-0.1,0.1-0.1,0.1L93.7,172.3C93.7,172.3,93.7,172.3,93.7,172.3"/>
						<path class="st18" d="M93.6,172.4l0,2c0,0,0,0,0,0L93.6,172.4C93.6,172.4,93.6,172.4,93.6,172.4"/>
					</g>
				</g>
				<g>
					<defs>
						<path id="SVGID_23_" d="M93.6,174.5l0-2c0,0,0-0.1,0-0.1l0,2C93.6,174.4,93.6,174.4,93.6,174.5z"/>
					</defs>
					<use xlink:href="#SVGID_23_"  style="overflow:visible;fill:#89CFDB;"/>
					<clipPath id="SVGID_24_">
						<use xlink:href="#SVGID_23_"  style="overflow:visible;"/>
					</clipPath>
					<g class="st31">
						<path class="st18" d="M93.6,172.4l0,2c0,0,0,0,0,0L93.6,172.4C93.6,172.4,93.6,172.4,93.6,172.4"/>
						<path class="st18" d="M93.6,172.4l0,2c0,0,0,0,0,0L93.6,172.4C93.6,172.4,93.6,172.4,93.6,172.4"/>
						<path class="st18" d="M93.6,172.4l0,2c0,0,0,0,0,0L93.6,172.4C93.6,172.5,93.6,172.4,93.6,172.4"/>
						<path class="st18" d="M93.6,172.5l0,2c0,0,0,0,0,0L93.6,172.5C93.6,172.5,93.6,172.5,93.6,172.5"/>
						<polyline class="st18" points="93.6,172.5 93.6,174.5 93.6,174.5 93.6,172.5 93.6,172.5 						"/>
					</g>
				</g>
				<g>
					<defs>
						<path id="SVGID_25_" d="M107.2,170.3l0,2c-0.6,0.5-2,1.4-4.1,2.6l0-2C105.3,171.6,106.6,170.8,107.2,170.3z"/>
					</defs>
					<use xlink:href="#SVGID_25_"  style="overflow:visible;fill:#89CFDB;"/>
					<clipPath id="SVGID_26_">
						<use xlink:href="#SVGID_25_"  style="overflow:visible;"/>
					</clipPath>
					<g class="st32">
						<path class="st18" d="M107.2,170.3l0,2c-0.4,0.3-1.2,0.9-2.5,1.6l0-2C106,171.2,106.8,170.6,107.2,170.3"/>
						<path class="st18" d="M104.7,171.9l0,2c-0.5,0.3-1.1,0.6-1.7,1l0-2C103.7,172.5,104.3,172.2,104.7,171.9"/>
					</g>
				</g>
				<g>
					<defs>
						<path id="SVGID_27_" d="M88.5,173.5l0-2c0,0.1,0,0.2,0,0.2c0.2,0.6,0.6,1.1,1.4,1.5c0.5,0.3,1.1,0.5,1.8,0.6
							c0.6,0.1,1.3,0.1,2-0.1l0,2c-0.7,0.1-1.4,0.1-2,0.1c-0.6-0.1-1.2-0.3-1.8-0.6c-0.7-0.4-1.2-0.9-1.4-1.5
							C88.5,173.7,88.5,173.6,88.5,173.5z"/>
					</defs>
					<use xlink:href="#SVGID_27_"  style="overflow:visible;fill:#89CFDB;"/>
					<clipPath id="SVGID_28_">
						<use xlink:href="#SVGID_27_"  style="overflow:visible;"/>
					</clipPath>
					<g class="st33">
						<path class="st18" d="M93.7,173.8l0,2c-0.2,0-0.4,0.1-0.6,0.1l0-2C93.3,173.9,93.5,173.8,93.7,173.8"/>
						<path class="st18" d="M93.1,173.9l0,2c-0.2,0-0.3,0-0.5,0l0-2C92.8,173.9,92.9,173.9,93.1,173.9"/>
						<path class="st18" d="M92.6,173.9l0,2c-0.1,0-0.3,0-0.4,0l0-2C92.4,173.9,92.5,173.9,92.6,173.9"/>
						<path class="st18" d="M92.3,173.9l0,2c-0.1,0-0.2,0-0.3,0l0-2C92,173.9,92.2,173.9,92.3,173.9"/>
						<path class="st18" d="M91.9,173.9l0,2c-0.1,0-0.2,0-0.3,0c0,0,0,0,0,0l0-2c0,0,0,0,0,0C91.7,173.9,91.8,173.9,91.9,173.9"/>
						<path class="st18" d="M91.6,173.9l0,2c-0.1,0-0.2,0-0.3-0.1l0-2C91.4,173.8,91.5,173.9,91.6,173.9"/>
						<path class="st18" d="M91.3,173.8l0,2c-0.1,0-0.2-0.1-0.4-0.1l0-2C91.1,173.8,91.2,173.8,91.3,173.8"/>
						<path class="st18" d="M91,173.7l0,2c-0.2,0-0.3-0.1-0.4-0.2l0-2C90.7,173.6,90.8,173.7,91,173.7"/>
						<path class="st18" d="M90.5,173.6l0,2c-0.2-0.1-0.4-0.2-0.6-0.3c-0.7-0.4-1.2-0.9-1.4-1.5c0-0.1,0-0.2,0-0.2l0-2
							c0,0.1,0,0.2,0,0.2c0.2,0.6,0.6,1.1,1.4,1.5C90.1,173.4,90.3,173.5,90.5,173.6"/>
					</g>
				</g>
				<g>
					<polygon class="st18" points="96.4,176.8 96.4,178.7 92.5,176.5 92.5,174.5 					"/>
				</g>
				<g>
					<polygon class="st18" points="103.1,172.9 103.1,174.9 96.4,178.7 96.4,176.8 					"/>
				</g>
				<g>
					<path class="st25" d="M107.2,170.3c-0.6,0.5-2,1.4-4.1,2.6l-6.6,3.9l-3.9-2.3l1.2-0.7c-0.7,0.1-1.4,0.1-2,0.1
						c-0.6-0.1-1.2-0.3-1.8-0.6c-0.7-0.4-1.2-0.9-1.4-1.5c-0.2-0.6,0.4-1.2,1.7-2l1.1-0.6c1-0.6,1.8-0.9,2.5-0.9
						c0.7,0,1.9,0.2,3.6,0.6c1.9,0.5,2.9,0.7,3.2,0.6c0.3,0,0.7-0.2,1.3-0.6c0.7-0.4,1.1-0.7,1.2-0.9c0.1-0.2,0-0.3-0.2-0.5
						c-0.3-0.2-0.5-0.2-0.8-0.1c-0.3,0.1-0.7,0.3-1.5,0.7l-1.4,0.8l-3.8-2.2l0.9-0.5c1-0.6,1.9-1,2.7-1.2c0.8-0.2,1.7-0.2,2.9,0
						c1.1,0.2,2.3,0.6,3.4,1.2c1.4,0.8,2.2,1.5,2.4,2.2C107.9,169.2,107.8,169.8,107.2,170.3z M95.9,172.4l2.7-1.6
						c-1.1-0.1-1.9-0.1-2.3,0c-0.4,0.1-0.9,0.4-1.5,0.7c-0.7,0.4-1.1,0.7-1.2,0.9c-0.1,0.2,0,0.3,0.2,0.5c0.3,0.1,0.5,0.2,0.7,0.2
						C94.8,173,95.3,172.7,95.9,172.4"/>
				</g>
			</g>
			<g class="st16">
				<g>
					<polygon class="st18" points="118,170.5 118,172.5 114.2,174.7 114.2,172.8 					"/>
				</g>
				<g>
					<defs>
						<path id="SVGID_29_" d="M113.9,174.1l0,2c0-0.1-0.1-0.2-0.3-0.3c-0.3-0.1-0.5-0.2-0.8-0.1l0-2c0.3-0.1,0.5,0,0.8,0.1
							C113.8,173.9,113.9,174,113.9,174.1z"/>
					</defs>
					<use xlink:href="#SVGID_29_"  style="overflow:visible;fill:#89CFDB;"/>
					<clipPath id="SVGID_30_">
						<use xlink:href="#SVGID_29_"  style="overflow:visible;"/>
					</clipPath>
					<g class="st34">
						<path class="st18" d="M113.9,174.1l0,2c0-0.1-0.1-0.2-0.3-0.3c-0.1,0-0.1-0.1-0.2-0.1l0-2c0.1,0,0.1,0.1,0.2,0.1
							C113.8,173.9,113.9,174,113.9,174.1"/>
						<path class="st18" d="M113.4,173.7l0,2c0,0-0.1,0-0.1,0L113.4,173.7C113.4,173.7,113.4,173.7,113.4,173.7"/>
						<path class="st18" d="M113.3,173.7l0,2c0,0,0,0-0.1,0L113.3,173.7C113.3,173.7,113.3,173.7,113.3,173.7"/>
						<path class="st18" d="M113.3,173.7l0,2c0,0,0,0-0.1,0L113.3,173.7C113.2,173.7,113.2,173.7,113.3,173.7"/>
						<path class="st18" d="M113.2,173.6l0,2c0,0,0,0-0.1,0L113.2,173.6C113.2,173.6,113.2,173.6,113.2,173.6"/>
						<path class="st18" d="M113.2,173.6l0,2c0,0,0,0-0.1,0L113.2,173.6C113.1,173.6,113.1,173.6,113.2,173.6"/>
						<path class="st18" d="M113.1,173.6l0,2c0,0,0,0-0.1,0L113.1,173.6C113.1,173.6,113.1,173.6,113.1,173.6"/>
						<path class="st18" d="M113,173.6l0,2c0,0,0,0-0.1,0L113,173.6C113,173.6,113,173.6,113,173.6"/>
						<path class="st18" d="M113,173.6l0,2c0,0-0.1,0-0.1,0L113,173.6C112.9,173.7,112.9,173.6,113,173.6"/>
						<path class="st18" d="M112.9,173.7l0,2c0,0,0,0-0.1,0L112.9,173.7C112.8,173.7,112.9,173.7,112.9,173.7"/>
					</g>
				</g>
				<g>
					<defs>
						<path id="SVGID_31_" d="M112.8,173.7l0,2c-0.2,0.1-0.7,0.3-1.5,0.7l0-2C112.1,174,112.6,173.7,112.8,173.7z"/>
					</defs>
					<use xlink:href="#SVGID_31_"  style="overflow:visible;fill:#89CFDB;"/>
					<clipPath id="SVGID_32_">
						<use xlink:href="#SVGID_31_"  style="overflow:visible;"/>
					</clipPath>
					<g class="st35">
						<path class="st18" d="M112.8,173.7l0,2c0,0,0,0-0.1,0L112.8,173.7C112.8,173.7,112.8,173.7,112.8,173.7"/>
						<path class="st18" d="M112.8,173.7l0,2c-0.3,0.1-0.7,0.3-1.4,0.7l0-2C112,174,112.5,173.8,112.8,173.7"/>
					</g>
				</g>
				<g>
					<defs>
						<path id="SVGID_33_" d="M119.2,175.2l0,2c0,0.1,0,0.2,0,0.3l0-2C119.2,175.4,119.2,175.3,119.2,175.2z"/>
					</defs>
					<use xlink:href="#SVGID_33_"  style="overflow:visible;fill:#89CFDB;"/>
					<clipPath id="SVGID_34_">
						<use xlink:href="#SVGID_33_"  style="overflow:visible;"/>
					</clipPath>
					<g class="st36">
						<path class="st18" d="M119.2,175.2l0,2c0,0,0,0,0,0L119.2,175.2C119.2,175.2,119.2,175.2,119.2,175.2"/>
						<path class="st18" d="M119.2,175.2l0,2c0,0.1,0,0.1,0,0.2l0-2C119.2,175.3,119.2,175.3,119.2,175.2"/>
						<path class="st18" d="M119.2,175.4l0,2c0,0,0,0.1,0,0.1L119.2,175.4C119.2,175.4,119.2,175.4,119.2,175.4"/>
					</g>
				</g>
				<g>
					<defs>
						<path id="SVGID_35_" d="M119.2,175.4l0,2c-0.1,0.3-0.3,0.6-0.5,0.8l0-2C118.9,176,119.1,175.8,119.2,175.4z"/>
					</defs>
					<use xlink:href="#SVGID_35_"  style="overflow:visible;fill:#89CFDB;"/>
					<clipPath id="SVGID_36_">
						<use xlink:href="#SVGID_35_"  style="overflow:visible;"/>
					</clipPath>
					<g class="st37">
						<path class="st18" d="M119.2,175.4l0,2c0,0,0,0,0,0.1L119.2,175.4C119.2,175.5,119.2,175.5,119.2,175.4"/>
						<path class="st18" d="M119.2,175.5l0,2c0,0.1-0.1,0.2-0.1,0.2l0-2C119.1,175.7,119.1,175.6,119.2,175.5"/>
						<path class="st18" d="M119.1,175.7l0,2c0,0.1-0.1,0.1-0.1,0.2l0-2C119,175.9,119,175.8,119.1,175.7"/>
						<path class="st18" d="M118.9,175.9l0,2c0,0.1-0.1,0.1-0.2,0.2l0-2C118.8,176.1,118.9,176,118.9,175.9"/>
						<path class="st18" d="M118.8,176.1l0,2c0,0-0.1,0.1-0.1,0.1l0-2C118.7,176.2,118.7,176.1,118.8,176.1"/>
					</g>
				</g>
				<g>
					<defs>
						<path id="SVGID_37_" d="M118.7,176.2l0,2c-0.2,0.2-0.9,0.6-1.8,1.1l0-2C117.8,176.8,118.4,176.4,118.7,176.2z"/>
					</defs>
					<use xlink:href="#SVGID_37_"  style="overflow:visible;fill:#89CFDB;"/>
					<clipPath id="SVGID_38_">
						<use xlink:href="#SVGID_37_"  style="overflow:visible;"/>
					</clipPath>
					<g class="st38">
						<path class="st18" d="M118.7,176.2l0,2c-0.1,0.1-0.4,0.3-0.7,0.5l0-2C118.3,176.5,118.5,176.3,118.7,176.2"/>
						<path class="st18" d="M118,176.7l0,2c-0.3,0.2-0.7,0.4-1.1,0.7l0-2C117.3,177.1,117.7,176.9,118,176.7"/>
					</g>
				</g>
				<g>
					<polygon class="st18" points="111.3,174.4 111.3,176.4 105.6,179.7 105.7,177.7 					"/>
				</g>
				<g>
					<defs>
						<path id="SVGID_39_" d="M105.7,177.7l0,2c-0.7,0.4-1.1,0.7-1.3,0.9l0-2C104.5,178.4,104.9,178.1,105.7,177.7z"/>
					</defs>
					<use xlink:href="#SVGID_39_"  style="overflow:visible;fill:#89CFDB;"/>
					<clipPath id="SVGID_40_">
						<use xlink:href="#SVGID_39_"  style="overflow:visible;"/>
					</clipPath>
					<g class="st39">
						<path class="st18" d="M105.7,177.7l0,2c-0.1,0.1-0.2,0.1-0.3,0.2l0-2C105.4,177.8,105.5,177.8,105.7,177.7"/>
						<path class="st18" d="M105.3,177.9l0,2c-0.4,0.2-0.7,0.4-0.8,0.6l0-2C104.7,178.3,104.9,178.2,105.3,177.9"/>
						<path class="st18" d="M104.5,178.5l0,2c0,0-0.1,0.1-0.1,0.1L104.5,178.5C104.4,178.6,104.5,178.5,104.5,178.5"/>
						<path class="st18" d="M104.4,178.6l0,2c0,0,0,0,0,0L104.4,178.6C104.4,178.6,104.4,178.6,104.4,178.6"/>
					</g>
				</g>
				<g>
					<defs>
						<path id="SVGID_41_" d="M104.3,180.7l0-2c0,0,0-0.1,0-0.1l0,2C104.4,180.6,104.3,180.7,104.3,180.7z"/>
					</defs>
					<use xlink:href="#SVGID_41_"  style="overflow:visible;fill:#89CFDB;"/>
					<clipPath id="SVGID_42_">
						<use xlink:href="#SVGID_41_"  style="overflow:visible;"/>
					</clipPath>
					<g class="st40">
						<path class="st18" d="M104.4,178.6l0,2c0,0,0,0,0,0L104.4,178.6C104.4,178.6,104.4,178.6,104.4,178.6"/>
						<path class="st18" d="M104.4,178.6l0,2c0,0,0,0,0,0L104.4,178.6C104.4,178.6,104.4,178.6,104.4,178.6"/>
						<path class="st18" d="M104.4,178.7l0,2c0,0,0,0,0,0L104.4,178.7C104.4,178.7,104.4,178.7,104.4,178.7"/>
						<path class="st18" d="M104.4,178.7l0,2c0,0,0,0,0,0L104.4,178.7C104.4,178.7,104.4,178.7,104.4,178.7"/>
						<polyline class="st18" points="104.3,178.7 104.3,180.7 104.3,180.7 104.3,178.7 104.3,178.7 						"/>
					</g>
				</g>
				<g>
					<polygon class="st18" points="101.6,179.8 101.6,181.7 97.8,179.6 97.8,177.6 					"/>
				</g>
				<g>
					<polygon class="st18" points="102.9,179.3 102.9,181.3 101.6,181.7 101.6,179.8 					"/>
				</g>
				<g>
					<defs>
						<path id="SVGID_43_" d="M102.8,181.6l0-2c0,0.3,0.1,0.6,0.2,0.9l0,2C102.9,182.2,102.8,181.9,102.8,181.6z"/>
					</defs>
					<use xlink:href="#SVGID_43_"  style="overflow:visible;fill:#89CFDB;"/>
					<clipPath id="SVGID_44_">
						<use xlink:href="#SVGID_43_"  style="overflow:visible;"/>
					</clipPath>
					<g class="st41">
						<path class="st18" d="M103.1,180.5l0,2c-0.2-0.3-0.2-0.6-0.2-0.9l0-2C102.8,180,102.9,180.3,103.1,180.5"/>
					</g>
				</g>
				<g>
					<polygon class="st18" points="116.8,177.3 116.8,179.3 110.8,182.8 110.8,180.8 					"/>
				</g>
				<g>
					<defs>
						<path id="SVGID_45_" d="M106.3,182.2l0,2c-0.8-0.1-1.6-0.3-2.2-0.7c-0.5-0.3-0.8-0.6-1-1l0-2c0.2,0.4,0.5,0.7,1,1
							C104.8,181.9,105.5,182.1,106.3,182.2z"/>
					</defs>
					<use xlink:href="#SVGID_45_"  style="overflow:visible;fill:#89CFDB;"/>
					<clipPath id="SVGID_46_">
						<use xlink:href="#SVGID_45_"  style="overflow:visible;"/>
					</clipPath>
					<g class="st42">
						<path class="st18" d="M106.3,182.2l0,2c0,0,0,0,0,0L106.3,182.2C106.3,182.1,106.3,182.1,106.3,182.2"/>
						<path class="st18" d="M106.3,182.1l0,2c-0.1,0-0.2,0-0.3,0l0-2C106.1,182.1,106.2,182.1,106.3,182.1"/>
						<path class="st18" d="M106,182.1l0,2c-0.1,0-0.2,0-0.3-0.1l0-2C105.7,182.1,105.8,182.1,106,182.1"/>
						<path class="st18" d="M105.6,182.1l0,2c-0.1,0-0.3-0.1-0.4-0.1l0-2C105.4,182,105.5,182,105.6,182.1"/>
						<path class="st18" d="M105.2,182l0,2c-0.2,0-0.3-0.1-0.5-0.2l0-2C104.9,181.9,105.1,181.9,105.2,182"/>
						<path class="st18" d="M104.8,181.8l0,2c-0.2-0.1-0.5-0.2-0.7-0.3c-0.5-0.3-0.8-0.6-1-1l0-2c0.2,0.4,0.5,0.7,1,1
							C104.3,181.6,104.5,181.7,104.8,181.8"/>
					</g>
				</g>
				<g>
					<defs>
						<path id="SVGID_47_" d="M110.8,180.8l0,2c-1,0.6-1.8,1-2.4,1.1c-0.6,0.2-1.3,0.3-2.2,0.2l0-2c0.8,0.1,1.6,0,2.2-0.2
							C109.1,181.8,109.9,181.4,110.8,180.8z"/>
					</defs>
					<use xlink:href="#SVGID_47_"  style="overflow:visible;fill:#89CFDB;"/>
					<clipPath id="SVGID_48_">
						<use xlink:href="#SVGID_47_"  style="overflow:visible;"/>
					</clipPath>
					<g class="st43">
						<path class="st18" d="M110.8,180.8l0,2c-1,0.6-1.8,1-2.4,1.1c0,0,0,0,0,0l0-2c0,0,0,0,0,0
							C109.1,181.8,109.9,181.4,110.8,180.8"/>
						<path class="st18" d="M108.5,182l0,2c-0.2,0.1-0.3,0.1-0.5,0.1l0-2C108.1,182.1,108.3,182,108.5,182"/>
						<path class="st18" d="M107.9,182.1l0,2c-0.1,0-0.2,0-0.4,0.1l0-2C107.7,182.1,107.8,182.1,107.9,182.1"/>
						<path class="st18" d="M107.5,182.2l0,2c-0.1,0-0.2,0-0.3,0l0-2C107.3,182.2,107.4,182.2,107.5,182.2"/>
						<path class="st18" d="M107.2,182.2l0,2c-0.1,0-0.2,0-0.3,0l0-2C107,182.2,107.1,182.2,107.2,182.2"/>
						<path class="st18" d="M106.9,182.2l0,2c-0.1,0-0.2,0-0.4,0l0-2C106.6,182.2,106.7,182.2,106.9,182.2"/>
						<path class="st18" d="M106.5,182.2l0,2c0,0-0.1,0-0.1,0l0-2C106.4,182.2,106.4,182.2,106.5,182.2"/>
					</g>
				</g>
				<g>
					<path class="st25" d="M118.7,176.2c-0.2,0.2-0.9,0.6-1.8,1.1l-6,3.5c-1,0.6-1.8,1-2.4,1.1c-0.6,0.2-1.3,0.3-2.2,0.2
						c-0.8-0.1-1.6-0.3-2.2-0.7c-0.5-0.3-0.8-0.6-1-1c-0.2-0.3-0.3-0.8-0.2-1.2l-1.3,0.4l-3.8-2.2l16.1-9.4l4,2.3l-3.8,2.2
						c0.7,0,1.4,0,2,0.1c0.6,0.1,1.1,0.3,1.6,0.6c0.6,0.3,1,0.7,1.2,1c0.2,0.3,0.3,0.7,0.2,1C119.1,175.8,118.9,176,118.7,176.2z
						 M107,178.4l5.6-3.2c0.7-0.4,1.1-0.7,1.2-0.9c0.1-0.2,0.1-0.3-0.2-0.5c-0.3-0.1-0.5-0.2-0.8-0.1c-0.2,0.1-0.7,0.3-1.5,0.7
						l-5.7,3.3c-0.7,0.4-1.1,0.7-1.3,0.9c-0.1,0.2,0,0.3,0.2,0.5c0.3,0.1,0.5,0.2,0.8,0.1C105.7,179.1,106.2,178.8,107,178.4"/>
				</g>
			</g>
			<g class="st16">
				<g>
					<polygon class="st18" points="127.3,178.2 127.3,180.2 125.3,179 125.3,177.1 					"/>
				</g>
				<g>
					<polygon class="st25" points="133.3,178.6 127.3,178.2 125.3,177.1 129.7,176.5 					"/>
				</g>
				<g>
					<polygon class="st18" points="133.3,178.6 133.3,180.5 127.3,180.2 127.3,178.2 					"/>
				</g>
			</g>
			<g class="st16">
				<g>
					<defs>
						<path id="SVGID_49_" d="M124.4,180.2l0,2c0-0.1-0.1-0.2-0.3-0.3c-0.2-0.1-0.5-0.2-0.7-0.1l0-2c0.3,0,0.5,0,0.7,0.1
							C124.3,180,124.4,180.1,124.4,180.2z"/>
					</defs>
					<use xlink:href="#SVGID_49_"  style="overflow:visible;fill:#89CFDB;"/>
					<clipPath id="SVGID_50_">
						<use xlink:href="#SVGID_49_"  style="overflow:visible;"/>
					</clipPath>
					<g class="st44">
						<path class="st18" d="M124.4,180.2l0,2c0-0.1-0.1-0.2-0.3-0.3c-0.1,0-0.1-0.1-0.2-0.1l0-2c0.1,0,0.1,0,0.2,0.1
							C124.3,180,124.4,180.1,124.4,180.2"/>
						<path class="st18" d="M124,179.8l0,2c0,0-0.1,0-0.1,0l0-2C123.9,179.8,124,179.8,124,179.8"/>
						<path class="st18" d="M123.9,179.8l0,2c0,0-0.1,0-0.1,0L123.9,179.8C123.8,179.8,123.9,179.8,123.9,179.8"/>
						<path class="st18" d="M123.8,179.8l0,2c0,0,0,0-0.1,0L123.8,179.8C123.8,179.8,123.8,179.8,123.8,179.8"/>
						<path class="st18" d="M123.8,179.7l0,2c0,0,0,0-0.1,0L123.8,179.7C123.7,179.7,123.7,179.7,123.8,179.7"/>
						<path class="st18" d="M123.7,179.7l0,2c0,0,0,0-0.1,0L123.7,179.7C123.7,179.7,123.7,179.7,123.7,179.7"/>
						<path class="st18" d="M123.6,179.7l0,2c0,0,0,0-0.1,0L123.6,179.7C123.6,179.7,123.6,179.7,123.6,179.7"/>
						<path class="st18" d="M123.6,179.7l0,2c0,0,0,0-0.1,0L123.6,179.7C123.5,179.7,123.6,179.7,123.6,179.7"/>
						<path class="st18" d="M123.5,179.7l0,2c0,0-0.1,0-0.1,0L123.5,179.7C123.5,179.7,123.5,179.7,123.5,179.7"/>
						<path class="st18" d="M123.4,179.8l0,2c0,0,0,0,0,0L123.4,179.8C123.4,179.8,123.4,179.8,123.4,179.8"/>
					</g>
				</g>
				<g>
					<defs>
						<path id="SVGID_51_" d="M123.4,179.8l0,2c-0.3,0.1-0.7,0.3-1.4,0.7l0-2C122.7,180.1,123.2,179.8,123.4,179.8z"/>
					</defs>
					<use xlink:href="#SVGID_51_"  style="overflow:visible;fill:#89CFDB;"/>
					<clipPath id="SVGID_52_">
						<use xlink:href="#SVGID_51_"  style="overflow:visible;"/>
					</clipPath>
					<g class="st45">
						<path class="st18" d="M123.4,179.8l0,2c0,0,0,0,0,0L123.4,179.8C123.4,179.8,123.4,179.8,123.4,179.8"/>
						<path class="st18" d="M123.4,179.8l0,2c-0.3,0.1-0.7,0.3-1.4,0.7l0-2C122.7,180.1,123.1,179.9,123.4,179.8"/>
					</g>
				</g>
				<g>
					<defs>
						<path id="SVGID_53_" d="M128.8,181.3l0,2c0,0.1,0,0.1,0,0.2l0-2C128.8,181.5,128.8,181.4,128.8,181.3z"/>
					</defs>
					<use xlink:href="#SVGID_53_"  style="overflow:visible;fill:#89CFDB;"/>
					<clipPath id="SVGID_54_">
						<use xlink:href="#SVGID_53_"  style="overflow:visible;"/>
					</clipPath>
					<g class="st46">
						<path class="st18" d="M128.8,181.3l0,2c0,0,0,0,0,0L128.8,181.3C128.8,181.4,128.8,181.3,128.8,181.3"/>
						<path class="st18" d="M128.8,181.4l0,2c0,0.1,0,0.1,0,0.2l0-2C128.8,181.5,128.8,181.4,128.8,181.4"/>
					</g>
				</g>
				<g>
					<defs>
						<path id="SVGID_55_" d="M128.8,181.5l0,2c-0.1,0.5-0.3,0.9-0.6,1.2l0-2C128.5,182.4,128.7,182,128.8,181.5z"/>
					</defs>
					<use xlink:href="#SVGID_55_"  style="overflow:visible;fill:#89CFDB;"/>
					<clipPath id="SVGID_56_">
						<use xlink:href="#SVGID_55_"  style="overflow:visible;"/>
					</clipPath>
					<g class="st47">
						<path class="st18" d="M128.8,181.5l0,2c0,0.1-0.1,0.3-0.1,0.4l0-2C128.7,181.8,128.7,181.7,128.8,181.5"/>
						<path class="st18" d="M128.7,181.9l0,2c0,0.1-0.1,0.2-0.2,0.4l0-2C128.6,182.2,128.6,182,128.7,181.9"/>
						<path class="st18" d="M128.5,182.3l0,2c-0.1,0.1-0.1,0.2-0.2,0.3l0-2C128.4,182.5,128.4,182.4,128.5,182.3"/>
						<path class="st18" d="M128.3,182.6l0,2c0,0.1-0.1,0.1-0.1,0.2l0-2C128.2,182.7,128.3,182.6,128.3,182.6"/>
					</g>
				</g>
				<g>
					<polygon class="st18" points="122,180.4 122,182.4 116,185.9 116,183.9 					"/>
				</g>
				<g>
					<defs>
						<path id="SVGID_57_" d="M128.2,182.7l0,2c-0.3,0.3-1,0.8-1.9,1.3l0-2C127.2,183.5,127.8,183.1,128.2,182.7z"/>
					</defs>
					<use xlink:href="#SVGID_57_"  style="overflow:visible;fill:#89CFDB;"/>
					<clipPath id="SVGID_58_">
						<use xlink:href="#SVGID_57_"  style="overflow:visible;"/>
					</clipPath>
					<g class="st48">
						<path class="st18" d="M128.2,182.7l0,2c0,0-0.1,0.1-0.1,0.1L128.2,182.7C128.1,182.8,128.1,182.7,128.2,182.7"/>
						<path class="st18" d="M128.1,182.8l0,2c-0.3,0.3-0.8,0.6-1.4,1l0-2C127.3,183.4,127.8,183.1,128.1,182.8"/>
						<path class="st18" d="M126.6,183.8l0,2c-0.1,0.1-0.2,0.1-0.4,0.2l0-2C126.4,184,126.5,183.9,126.6,183.8"/>
					</g>
				</g>
				<g>
					<defs>
						<path id="SVGID_59_" d="M116,183.9l0,2c-0.6,0.4-1,0.6-1.1,0.8l0-2C115.1,184.5,115.4,184.3,116,183.9z"/>
					</defs>
					<use xlink:href="#SVGID_59_"  style="overflow:visible;fill:#89CFDB;"/>
					<clipPath id="SVGID_60_">
						<use xlink:href="#SVGID_59_"  style="overflow:visible;"/>
					</clipPath>
					<g class="st49">
						<path class="st18" d="M116,183.9l0,2c-0.1,0.1-0.2,0.1-0.2,0.1l0-2C115.9,184,116,184,116,183.9"/>
						<path class="st18" d="M115.8,184.1l0,2c-0.4,0.2-0.6,0.4-0.8,0.5l0-2C115.1,184.5,115.4,184.3,115.8,184.1"/>
						<path class="st18" d="M115,184.6l0,2c0,0-0.1,0-0.1,0.1L115,184.6C115,184.7,115,184.6,115,184.6"/>
					</g>
				</g>
				<g>
					<defs>
						<path id="SVGID_61_" d="M114.9,186.8l0-2c0,0,0-0.1,0.1-0.2l0,2C114.9,186.7,114.9,186.8,114.9,186.8z"/>
					</defs>
					<use xlink:href="#SVGID_61_"  style="overflow:visible;fill:#89CFDB;"/>
					<clipPath id="SVGID_62_">
						<use xlink:href="#SVGID_61_"  style="overflow:visible;"/>
					</clipPath>
					<g class="st50">
						<path class="st18" d="M114.9,184.7l0,2c0,0,0,0,0,0L114.9,184.7C114.9,184.7,114.9,184.7,114.9,184.7"/>
						<path class="st18" d="M114.9,184.7l0,2c0,0,0,0,0,0L114.9,184.7C114.9,184.7,114.9,184.7,114.9,184.7"/>
						<path class="st18" d="M114.9,184.7l0,2c0,0,0,0,0,0L114.9,184.7C114.9,184.8,114.9,184.8,114.9,184.7"/>
						<path class="st18" d="M114.9,184.8l0,2c0,0,0,0,0,0L114.9,184.8C114.9,184.8,114.9,184.8,114.9,184.8"/>
						<polyline class="st18" points="114.9,184.8 114.9,186.8 114.9,186.8 114.9,184.8 114.9,184.8 						"/>
					</g>
				</g>
				<g>
					<polygon class="st18" points="126.3,184.1 126.2,186 123,187.9 123,185.9 					"/>
				</g>
				<g>
					<defs>
						<path id="SVGID_63_" d="M123,185.9l0,2c-1.2,0.7-2.1,1.2-2.8,1.4l0-2C120.9,187.1,121.8,186.6,123,185.9z"/>
					</defs>
					<use xlink:href="#SVGID_63_"  style="overflow:visible;fill:#89CFDB;"/>
					<clipPath id="SVGID_64_">
						<use xlink:href="#SVGID_63_"  style="overflow:visible;"/>
					</clipPath>
					<g class="st51">
						<path class="st18" d="M123,185.9l0,2c-1.2,0.7-2.1,1.2-2.8,1.4l0-2C120.9,187.1,121.8,186.6,123,185.9"/>
					</g>
				</g>
				<g>
					<defs>
						<path id="SVGID_65_" d="M110.3,185.8l0-2c0,0.4,0.2,0.8,0.6,1.2c0.4,0.5,1.1,1,2,1.5c0.8,0.5,1.6,0.8,2.5,1l0,2
							c-0.8-0.2-1.7-0.6-2.5-1c-0.9-0.5-1.5-1-2-1.5C110.5,186.6,110.3,186.2,110.3,185.8z"/>
					</defs>
					<use xlink:href="#SVGID_65_"  style="overflow:visible;fill:#89CFDB;"/>
					<clipPath id="SVGID_66_">
						<use xlink:href="#SVGID_65_"  style="overflow:visible;"/>
					</clipPath>
					<g class="st52">
						<path class="st18" d="M115.3,187.5l0,2c0,0,0,0,0,0L115.3,187.5C115.3,187.5,115.3,187.5,115.3,187.5"/>
						<path class="st18" d="M115.3,187.5l0,2c-0.3-0.1-0.7-0.2-1-0.3l0-2C114.6,187.3,114.9,187.4,115.3,187.5"/>
						<path class="st18" d="M114.2,187.2l0,2c-0.5-0.2-0.9-0.4-1.4-0.7c-0.9-0.5-1.5-1-2-1.5c-0.4-0.4-0.6-0.8-0.6-1.2l0-2
							c0,0.4,0.2,0.8,0.6,1.2c0.4,0.5,1.1,1,2,1.5C113.3,186.8,113.8,187,114.2,187.2"/>
					</g>
				</g>
				<g>
					<defs>
						<path id="SVGID_67_" d="M120.2,187.3l0,2c-0.7,0.3-1.4,0.4-2.3,0.5c-0.9,0-1.7,0-2.6-0.3l0-2c0.9,0.2,1.7,0.3,2.6,0.3
							C118.8,187.8,119.6,187.6,120.2,187.3z"/>
					</defs>
					<use xlink:href="#SVGID_67_"  style="overflow:visible;fill:#89CFDB;"/>
					<clipPath id="SVGID_68_">
						<use xlink:href="#SVGID_67_"  style="overflow:visible;"/>
					</clipPath>
					<g class="st53">
						<path class="st18" d="M120.2,187.3l0,2c-0.1,0-0.2,0.1-0.3,0.1l0-2C120,187.4,120.1,187.4,120.2,187.3"/>
						<path class="st18" d="M119.9,187.5l0,2c-0.3,0.1-0.6,0.2-0.9,0.2l0-2C119.3,187.6,119.6,187.5,119.9,187.5"/>
						<path class="st18" d="M119,187.7l0,2c-0.2,0-0.4,0.1-0.7,0.1l0-2C118.5,187.7,118.8,187.7,119,187.7"/>
						<path class="st18" d="M118.3,187.8l0,2c-0.1,0-0.3,0-0.4,0c-0.1,0-0.1,0-0.2,0l0-2c0.1,0,0.1,0,0.2,0
							C118,187.8,118.2,187.8,118.3,187.8"/>
						<path class="st18" d="M117.7,187.8l0,2c-0.2,0-0.3,0-0.5,0l0-2C117.4,187.8,117.5,187.8,117.7,187.8"/>
						<path class="st18" d="M117.2,187.8l0,2c-0.2,0-0.3,0-0.5,0l0-2C116.9,187.8,117,187.8,117.2,187.8"/>
						<path class="st18" d="M116.7,187.8l0,2c-0.2,0-0.3,0-0.5-0.1l0-2C116.4,187.8,116.6,187.8,116.7,187.8"/>
						<path class="st18" d="M116.2,187.7l0,2c-0.2,0-0.4-0.1-0.5-0.1l0-2C115.9,187.7,116.1,187.7,116.2,187.7"/>
						<path class="st18" d="M115.7,187.6l0,2c-0.1,0-0.3-0.1-0.4-0.1l0-2C115.4,187.6,115.6,187.6,115.7,187.6"/>
					</g>
				</g>
				<g>
					<path class="st25" d="M128.2,182.7c-0.3,0.3-1,0.8-1.9,1.3l-3.2,1.9c-1.2,0.7-2.1,1.2-2.8,1.4c-0.7,0.3-1.4,0.4-2.3,0.5
						c-0.9,0-1.7,0-2.6-0.3c-0.8-0.2-1.7-0.6-2.5-1c-0.9-0.5-1.5-1-2-1.5c-0.4-0.5-0.6-0.9-0.6-1.4c0-0.4,0.3-0.9,0.7-1.2
						c0.4-0.4,1.2-1,2.3-1.6l3.4-2c1.2-0.7,2.3-1.2,3.3-1.4c1-0.3,2-0.3,3.1-0.1c1.1,0.2,2.2,0.6,3.3,1.2c0.9,0.5,1.6,1.1,1.9,1.6
						c0.4,0.5,0.5,1,0.5,1.5C128.7,182,128.5,182.4,128.2,182.7z M117.1,184.7l6.1-3.5c0.7-0.4,1.1-0.7,1.2-0.8
						c0.1-0.1,0-0.3-0.2-0.4c-0.2-0.1-0.5-0.2-0.7-0.1c-0.3,0.1-0.7,0.3-1.4,0.7l-6,3.5c-0.6,0.4-1,0.6-1.1,0.8
						c-0.1,0.2,0,0.3,0.2,0.4c0.3,0.1,0.5,0.2,0.8,0.1C116.1,185.2,116.5,185,117.1,184.7"/>
				</g>
			</g>
			<g class="st16">
				<g>
					<polygon class="st18" points="136.4,184.5 136.4,186.5 135.1,187.1 135.1,185.2 					"/>
				</g>
				<g>
					<defs>
						<path id="SVGID_69_" d="M135.1,186.4l0,2c0-0.1-0.1-0.2-0.3-0.3c-0.3-0.2-0.6-0.2-0.9-0.1l0-2c0.3-0.1,0.6,0,0.9,0.1
							C135,186.2,135.1,186.3,135.1,186.4z"/>
					</defs>
					<use xlink:href="#SVGID_69_"  style="overflow:visible;fill:#89CFDB;"/>
					<clipPath id="SVGID_70_">
						<use xlink:href="#SVGID_69_"  style="overflow:visible;"/>
					</clipPath>
					<g class="st54">
						<path class="st18" d="M135.1,186.4l0,2c0-0.1-0.1-0.2-0.3-0.3c-0.1,0-0.1-0.1-0.2-0.1l0-2c0.1,0,0.1,0.1,0.2,0.1
							C135,186.2,135.1,186.3,135.1,186.4"/>
						<path class="st18" d="M134.7,186l0,2c0,0-0.1,0-0.1,0l0-2C134.6,185.9,134.6,186,134.7,186"/>
						<path class="st18" d="M134.6,185.9l0,2c0,0-0.1,0-0.1,0L134.6,185.9C134.5,185.9,134.5,185.9,134.6,185.9"/>
						<path class="st18" d="M134.5,185.9l0,2c0,0,0,0-0.1,0L134.5,185.9C134.4,185.9,134.5,185.9,134.5,185.9"/>
						<path class="st18" d="M134.4,185.9l0,2c0,0,0,0-0.1,0L134.4,185.9C134.4,185.9,134.4,185.9,134.4,185.9"/>
						<path class="st18" d="M134.4,185.9l0,2c0,0,0,0-0.1,0L134.4,185.9C134.3,185.9,134.3,185.9,134.4,185.9"/>
						<path class="st18" d="M134.3,185.9l0,2c0,0,0,0-0.1,0L134.3,185.9C134.3,185.9,134.3,185.9,134.3,185.9"/>
						<path class="st18" d="M134.2,185.9l0,2c0,0,0,0-0.1,0L134.2,185.9C134.2,185.9,134.2,185.9,134.2,185.9"/>
						<path class="st18" d="M134.2,185.9l0,2c0,0-0.1,0-0.1,0L134.2,185.9C134.1,185.9,134.1,185.9,134.2,185.9"/>
						<path class="st18" d="M134.1,185.9l0,2c0,0-0.1,0-0.1,0l0-2C134,185.9,134.1,185.9,134.1,185.9"/>
						<polyline class="st18" points="134,185.9 134,187.9 134,187.9 134,185.9 134,185.9 						"/>
					</g>
				</g>
				<g>
					<defs>
						<path id="SVGID_71_" d="M134,185.9l0,2c-0.3,0.1-1,0.4-2,1l0-2C133,186.4,133.6,186,134,185.9z"/>
					</defs>
					<use xlink:href="#SVGID_71_"  style="overflow:visible;fill:#89CFDB;"/>
					<clipPath id="SVGID_72_">
						<use xlink:href="#SVGID_71_"  style="overflow:visible;"/>
					</clipPath>
					<g class="st55">
						<path class="st18" d="M134,185.9l0,2c0,0,0,0,0,0L134,185.9C133.9,185.9,133.9,185.9,134,185.9"/>
						<path class="st18" d="M133.9,186l0,2c-0.3,0.1-1,0.4-1.9,1l0-2C133,186.4,133.6,186.1,133.9,186"/>
					</g>
				</g>
				<g>
					<defs>
						<path id="SVGID_73_" d="M140.3,187.4l0,2c0,0.3-0.1,0.6-0.4,0.9l0-2C140.2,188,140.3,187.7,140.3,187.4z"/>
					</defs>
					<use xlink:href="#SVGID_73_"  style="overflow:visible;fill:#89CFDB;"/>
					<clipPath id="SVGID_74_">
						<use xlink:href="#SVGID_73_"  style="overflow:visible;"/>
					</clipPath>
					<g class="st56">
						<path class="st18" d="M140.3,187.4l0,2c0,0,0,0,0,0L140.3,187.4C140.3,187.4,140.3,187.4,140.3,187.4"/>
						<path class="st18" d="M140.3,187.4l0,2c0,0.1,0,0.1,0,0.2l0-2C140.3,187.5,140.3,187.5,140.3,187.4"/>
						<path class="st18" d="M140.3,187.6l0,2c0,0.1,0,0.1,0,0.2l0-2C140.3,187.7,140.3,187.6,140.3,187.6"/>
						<path class="st18" d="M140.3,187.7l0,2c0,0.1,0,0.1-0.1,0.2l0-2C140.2,187.8,140.3,187.8,140.3,187.7"/>
						<path class="st18" d="M140.2,187.9l0,2c0,0.1-0.1,0.1-0.1,0.2l0-2C140.1,188,140.2,188,140.2,187.9"/>
						<path class="st18" d="M140.1,188.1l0,2c0,0.1-0.1,0.1-0.2,0.2l0-2C140,188.2,140,188.1,140.1,188.1"/>
						<path class="st18" d="M139.9,188.2l0,2c0,0,0,0,0,0L139.9,188.2C139.9,188.3,139.9,188.2,139.9,188.2"/>
					</g>
				</g>
				<g>
					<defs>
						<path id="SVGID_75_" d="M139.9,188.3l0,2c-0.4,0.4-1.1,0.9-2.3,1.5l0-2C138.8,189.1,139.5,188.6,139.9,188.3z"/>
					</defs>
					<use xlink:href="#SVGID_75_"  style="overflow:visible;fill:#89CFDB;"/>
					<clipPath id="SVGID_76_">
						<use xlink:href="#SVGID_75_"  style="overflow:visible;"/>
					</clipPath>
					<g class="st57">
						<path class="st18" d="M139.9,188.3l0,2c0,0,0,0-0.1,0.1L139.9,188.3C139.9,188.3,139.9,188.3,139.9,188.3"/>
						<path class="st18" d="M139.8,188.3l0,2c-0.3,0.3-0.9,0.7-1.7,1.2l0-2C139,189,139.5,188.6,139.8,188.3"/>
						<path class="st18" d="M138.2,189.5l0,2c-0.2,0.1-0.4,0.2-0.5,0.3l0-2C137.8,189.7,138,189.6,138.2,189.5"/>
					</g>
				</g>
				<g>
					<polygon class="st18" points="132,187 132,188.9 123.1,194.1 123.1,192.2 					"/>
				</g>
				<g>
					<polygon class="st18" points="123.1,192.2 123.1,194.1 119,191.8 119,189.8 					"/>
				</g>
				<g>
					<polygon class="st18" points="128.3,195.2 128.3,197.2 124.3,194.8 124.3,192.9 					"/>
				</g>
				<g>
					<path class="st25" d="M139.1,185.8c0.7,0.4,1.1,0.8,1.2,1.3c0.1,0.4,0,0.8-0.4,1.2c-0.4,0.4-1.1,0.9-2.3,1.5l-9.3,5.4l-4-2.3
						l9.2-5.3c0.9-0.5,1.4-0.9,1.6-1c0.1-0.1,0.1-0.3-0.2-0.5c-0.3-0.2-0.6-0.2-0.9-0.1c-0.3,0.1-1,0.4-2,1l-8.9,5.2l-4.1-2.3
						l13.2-7.7l4.1,2.4l-1.3,0.7c0.7-0.1,1.5-0.1,2.2,0C137.9,185.2,138.5,185.5,139.1,185.8z"/>
				</g>
				<g>
					<polygon class="st18" points="137.6,189.8 137.6,191.8 128.3,197.2 128.3,195.2 					"/>
				</g>
			</g>
		</g>
		<g>
			<circle class="st14" cx="166.6" cy="191.1" r="5.3"/>
			<path class="st5" d="M162.8,190.5c0.6,0.8,1.3-0.2,2.4-1.1c1.1-0.9,2.4-1.4,1.7-2.2s-2.1-0.7-3.2,0.2
				C162.6,188.3,162.1,189.7,162.8,190.5z"/>
		</g>
		<g>
			<circle class="st14" cx="154.7" cy="180.3" r="5.3"/>
			<path class="st5" d="M150.8,179.6c0.6,0.8,1.3-0.2,2.4-1.1c1.1-0.9,2.4-1.4,1.7-2.2c-0.6-0.8-2.1-0.7-3.2,0.2
				S150.2,178.8,150.8,179.6z"/>
		</g>
		<g>
			<circle class="st14" cx="161" cy="214" r="5.3"/>
			<path class="st5" d="M157.1,213.3c0.6,0.8,1.3-0.2,2.4-1.1s2.4-1.4,1.7-2.2s-2.1-0.7-3.2,0.2
				C156.9,211.1,156.5,212.5,157.1,213.3z"/>
		</g>
		<g>
			<circle class="st14" cx="60.5" cy="170.1" r="5.3"/>
			<path class="st5" d="M56.6,169.4c0.6,0.8,1.3-0.2,2.4-1.1c1.1-0.9,2.4-1.4,1.7-2.2c-0.6-0.8-2.1-0.7-3.2,0.2
				C56.4,167.3,56,168.7,56.6,169.4z"/>
		</g>
		<g>
			<circle class="st14" cx="163.3" cy="184.4" r="4.5"/>
			<path class="st5" d="M160,183.8c0.5,0.7,1.1-0.2,2-1c1-0.8,2-1.2,1.5-1.8c-0.5-0.7-1.7-0.6-2.7,0.2
				C159.9,182,159.5,183.2,160,183.8z"/>
		</g>
		<g>
			<circle class="st14" cx="153" cy="196.5" r="3.5"/>
			<path class="st5" d="M150.4,196c0.4,0.5,0.9-0.2,1.6-0.8s1.6-0.9,1.2-1.4s-1.4-0.5-2.1,0.2C150.2,194.6,150,195.5,150.4,196z"/>
		</g>
		<g>
			<circle class="st14" cx="134.4" cy="211" r="3.5"/>
			<path class="st5" d="M131.8,210.5c0.4,0.5,0.9-0.2,1.6-0.8c0.8-0.6,1.6-0.9,1.2-1.4s-1.4-0.5-2.1,0.2
				C131.7,209.1,131.4,210,131.8,210.5z"/>
		</g>
		<g>
			<circle class="st14" cx="69.6" cy="183.5" r="3.5"/>
			<path class="st5" d="M67,183c0.4,0.5,0.9-0.2,1.6-0.8s1.6-0.9,1.2-1.4c-0.4-0.5-1.4-0.5-2.1,0.2S66.6,182.5,67,183z"/>
		</g>
		<g>
			<circle class="st14" cx="59" cy="177" r="3.5"/>
			<path class="st5" d="M56.4,176.6c0.4,0.5,0.9-0.2,1.6-0.8s1.6-0.9,1.2-1.4c-0.4-0.5-1.4-0.5-2.1,0.2S56,176.1,56.4,176.6z"/>
		</g>
		<g>
			<circle class="st14" cx="146.1" cy="206.7" r="2.5"/>
			<path class="st5" d="M144.3,206.4c0.3,0.4,0.6-0.1,1.1-0.5c0.5-0.4,1.1-0.6,0.8-1c-0.3-0.4-1-0.3-1.5,0.1
				C144.2,205.4,144,206,144.3,206.4z"/>
		</g>
		<g>
			<circle class="st14" cx="58.7" cy="186.4" r="2.5"/>
			<path class="st5" d="M56.9,186.1c0.3,0.4,0.6-0.1,1.1-0.5c0.5-0.4,1.1-0.6,0.8-1c-0.3-0.4-1-0.3-1.5,0.1
				C56.8,185.1,56.6,185.7,56.9,186.1z"/>
		</g>
		<g>
			<circle class="st14" cx="74.1" cy="186.6" r="2.5"/>
			<path class="st5" d="M72.3,186.3c0.3,0.4,0.6-0.1,1.1-0.5c0.5-0.4,1.1-0.6,0.8-1c-0.3-0.4-1-0.3-1.5,0.1
				C72.3,185.3,72.1,185.9,72.3,186.3z"/>
		</g>
		<g>
			<circle class="st14" cx="151.4" cy="185.2" r="3.5"/>
			<path class="st5" d="M148.8,184.7c0.4,0.5,0.9-0.2,1.6-0.8c0.8-0.6,1.6-0.9,1.2-1.4c-0.4-0.5-1.4-0.5-2.1,0.2
				C148.7,183.3,148.4,184.2,148.8,184.7z"/>
		</g>
		<g>
			<circle class="st14" cx="71.7" cy="158.9" r="3.5"/>
			<path class="st5" d="M69.1,158.4c0.4,0.5,0.9-0.2,1.6-0.8c0.8-0.6,1.6-0.9,1.2-1.4c-0.4-0.5-1.4-0.5-2.1,0.2
				S68.7,157.9,69.1,158.4z"/>
		</g>
		<g>
			<circle class="st14" cx="159.4" cy="188.5" r="1.6"/>
			<path class="st5" d="M158.2,188.3c0.2,0.2,0.4-0.1,0.7-0.3c0.4-0.3,0.7-0.4,0.5-0.7c-0.2-0.2-0.6-0.2-1,0.1
				C158.1,187.7,158,188.1,158.2,188.3z"/>
		</g>
		<g>
			<circle class="st14" cx="144.2" cy="208.8" r="1.6"/>
			<path class="st5" d="M143,208.6c0.2,0.2,0.4-0.1,0.7-0.3c0.4-0.3,0.7-0.4,0.5-0.7c-0.2-0.2-0.6-0.2-1,0.1
				C142.9,208,142.8,208.4,143,208.6z"/>
		</g>
		<g>
			<circle class="st14" cx="131.6" cy="214.2" r="1.6"/>
			<path class="st5" d="M130.4,214c0.2,0.2,0.4-0.1,0.7-0.3c0.4-0.3,0.7-0.4,0.5-0.7c-0.2-0.2-0.6-0.2-1,0.1
				C130.4,213.4,130.2,213.8,130.4,214z"/>
		</g>
		<g>
			<circle class="st14" cx="59.3" cy="190.5" r="1.6"/>
			<path class="st5" d="M58.1,190.3c0.2,0.2,0.4-0.1,0.7-0.3c0.4-0.3,0.7-0.4,0.5-0.7s-0.6-0.2-1,0.1
				C58.1,189.7,57.9,190.1,58.1,190.3z"/>
		</g>
		<g>
			<circle class="st14" cx="148.6" cy="179.1" r="1.6"/>
			<path class="st5" d="M147.4,178.9c0.2,0.2,0.4-0.1,0.7-0.3c0.4-0.3,0.7-0.4,0.5-0.7c-0.2-0.2-0.6-0.2-1,0.1
				C147.4,178.2,147.2,178.6,147.4,178.9z"/>
		</g>
		<g>
			<circle class="st14" cx="144.5" cy="175.5" r="1.6"/>
			<path class="st5" d="M143.3,175.3c0.2,0.2,0.4-0.1,0.7-0.3c0.4-0.3,0.7-0.4,0.5-0.7c-0.2-0.2-0.6-0.2-1,0.1
				C143.3,174.7,143.1,175.1,143.3,175.3z"/>
		</g>
		<g>
			<circle class="st14" cx="77.9" cy="155.9" r="1.6"/>
			<path class="st5" d="M76.8,155.7c0.2,0.2,0.4-0.1,0.7-0.3s0.7-0.4,0.5-0.7s-0.6-0.2-1,0.1C76.7,155,76.6,155.4,76.8,155.7z"/>
		</g>
		<g>
			<circle class="st14" cx="164.1" cy="202.5" r="1.6"/>
			<path class="st5" d="M162.9,202.3c0.2,0.2,0.4-0.1,0.7-0.3c0.4-0.3,0.7-0.4,0.5-0.7c-0.2-0.2-0.6-0.2-1,0.1
				C162.8,201.6,162.7,202,162.9,202.3z"/>
		</g>
		<g>
			<circle class="st14" cx="65.8" cy="177.5" r="1.6"/>
			<path class="st5" d="M64.7,177.3c0.2,0.2,0.4-0.1,0.7-0.3c0.4-0.3,0.7-0.4,0.5-0.7c-0.2-0.2-0.6-0.2-1,0.1
				C64.6,176.7,64.5,177.1,64.7,177.3z"/>
		</g>
		<g>
			<circle class="st14" cx="167" cy="207.5" r="1.6"/>
			<path class="st5" d="M165.8,207.2c0.2,0.2,0.4-0.1,0.7-0.3s0.7-0.4,0.5-0.7s-0.6-0.2-1,0.1C165.8,206.6,165.6,207,165.8,207.2z"
				/>
		</g>
		<g>
			<circle class="st14" cx="156.2" cy="219.3" r="1.6"/>
			<path class="st5" d="M155,219.1c0.2,0.2,0.4-0.1,0.7-0.3s0.7-0.4,0.5-0.7c-0.2-0.2-0.6-0.2-1,0.1
				C154.9,218.4,154.8,218.8,155,219.1z"/>
		</g>
		<g>
			<circle class="st14" cx="160.1" cy="194.4" r="2.8"/>
			<path class="st5" d="M158.1,194c0.3,0.4,0.7-0.1,1.3-0.6c0.6-0.5,1.2-0.7,0.9-1.1c-0.3-0.4-1.1-0.4-1.7,0.1
				C158,192.9,157.8,193.6,158.1,194z"/>
		</g>
		<g>
			<circle class="st14" cx="152.2" cy="201.4" r="2.8"/>
			<path class="st5" d="M150.1,201.1c0.3,0.4,0.7-0.1,1.3-0.6c0.6-0.5,1.2-0.7,0.9-1.1c-0.3-0.4-1.1-0.4-1.7,0.1
				C150,199.9,149.8,200.6,150.1,201.1z"/>
		</g>
		<g>
			<circle class="st14" cx="150.6" cy="173.9" r="2.8"/>
			<path class="st5" d="M148.5,173.6c0.3,0.4,0.7-0.1,1.3-0.6c0.6-0.5,1.2-0.7,0.9-1.1s-1.1-0.4-1.7,0.1
				C148.4,172.4,148.2,173.1,148.5,173.6z"/>
		</g>
		<g>
			<circle class="st14" cx="80.1" cy="153.1" r="2.8"/>
			<path class="st5" d="M78.1,152.7c0.3,0.4,0.7-0.1,1.3-0.6c0.6-0.5,1.2-0.7,0.9-1.1c-0.3-0.4-1.1-0.4-1.7,0.1
				C78,151.6,77.8,152.3,78.1,152.7z"/>
		</g>
		<g>
			<circle class="st14" cx="165.4" cy="209.9" r="2.8"/>
			<path class="st5" d="M163.4,209.5c0.3,0.4,0.7-0.1,1.3-0.6c0.6-0.5,1.2-0.7,0.9-1.1s-1.1-0.4-1.7,0.1
				C163.3,208.4,163.1,209.1,163.4,209.5z"/>
		</g>
		<g>
			<circle class="st14" cx="63.3" cy="165.6" r="2.8"/>
			<path class="st5" d="M61.3,165.3c0.3,0.4,0.7-0.1,1.3-0.6c0.6-0.5,1.2-0.7,0.9-1.1c-0.3-0.4-1.1-0.4-1.7,0.1
				C61.2,164.1,60.9,164.8,61.3,165.3z"/>
		</g>
		<g>
			<circle class="st14" cx="167" cy="197.5" r="2.8"/>
			<path class="st5" d="M165,197.2c0.3,0.4,0.7-0.1,1.3-0.6c0.6-0.5,1.2-0.7,0.9-1.1s-1.1-0.4-1.7,0.1
				C164.9,196,164.7,196.8,165,197.2z"/>
		</g>
		<g>
			<circle class="st14" cx="155.9" cy="209.3" r="2.8"/>
			<path class="st5" d="M153.9,209c0.3,0.4,0.7-0.1,1.3-0.6c0.6-0.5,1.2-0.7,0.9-1.1s-1.1-0.4-1.7,0.1
				C153.8,207.9,153.6,208.6,153.9,209z"/>
		</g>
	</g>
</g>
</svg>
