<?xml version="1.0" encoding="utf-8"?>
<!-- Generator: Adobe Illustrator 24.0.0, SVG Export Plug-In . SVG Version: 6.00 Build 0)  -->
<svg version="1.1" id="Layer_1" xmlns="http://www.w3.org/2000/svg" xmlns:xlink="http://www.w3.org/1999/xlink" x="0px" y="0px"
	 width="300px" height="300px" viewBox="0 0 300 300" style="enable-background:new 0 0 300 300;" xml:space="preserve">
<style type="text/css">
	.st0{fill:url(#SVGID_1_);}
	.st1{fill:#273842;}
	.st2{fill:#E6E7E8;}
	.st3{fill:#576771;}
	.st4{fill:#FFFFFF;}
	.st5{fill:#727D83;}
	.st6{font-family:'Metropolis-Bold';}
	.st7{font-size:7.4097px;}
	.st8{fill:#4BBFA8;}
	.st9{font-size:5.1153px;}
	.st10{fill:url(#SVGID_2_);}
	.st11{fill:#556166;}
	.st12{opacity:0.2;}
	.st13{fill:none;stroke:#707070;stroke-width:0.1823;}
	.st14{fill:none;stroke:#4BBFA7;stroke-width:1.0935;stroke-linecap:round;stroke-miterlimit:10;}
	.st15{enable-background:new    ;}
	.st16{fill:#4BBFA7;}
	.st17{fill:#2D414D;}
	.st18{fill:#BCBCBC;}
	.st19{fill:none;stroke:#BCBCBC;stroke-width:0.3645;stroke-miterlimit:10;}
</style>
<g>
	
		<linearGradient id="SVGID_1_" gradientUnits="userSpaceOnUse" x1="1759.3295" y1="109.2883" x2="1807.6914" y2="56.2893" gradientTransform="matrix(1 0 0 -1 -1706.7819 300)">
		<stop  offset="0" style="stop-color:#6D6E70;stop-opacity:0"/>
		<stop  offset="1" style="stop-color:#6D6E70;stop-opacity:0.7"/>
	</linearGradient>
	<path class="st0" d="M141.4,215.8l-68.2,39.6c-1.1,0.5-2.3,0.5-3.3,0L4,215.8L78.7,172l62.8,38
		C143.5,211.2,143.5,214.6,141.4,215.8z"/>
	<g>
		<path class="st1" d="M135.1,52.5c-2.6-1.4-5.6-1.4-8.3,0L63.7,88.9c-2.6,1.4-4.2,4.2-4.2,7.2v143.1c0,3,1.4,5.8,3.3,6.7
			c2.1,1.1,6.2,3.2,8.6,2.6l5.3-2.8l-9-143.8c0-3.7,1.9-7,5.1-8.8l66.4-30.9l1.9-4.6C141.4,55.5,137.9,53.9,135.1,52.5z"/>
		<path class="st1" d="M68,245.7V101.9c0-3.5,1.9-7,5.1-8.8l59.6-41.5c1.4-0.7,15.3,5.3,15.3,9.7s0,138.7,0,138.7c0,3-1.6,5.6-4,7
			l-71.5,41.3C70.4,249.4,68,248,68,245.7z"/>
		<g>
			<path class="st2" d="M73.2,104.2V233c0,2.3,2.6,3.9,4.6,2.6l61.9-35.9c1.1-0.5,1.6-1.6,1.6-2.6V68.3c0-2.3-2.6-3.9-4.6-2.6
				l-61.9,36C73.8,102.2,73.2,103.1,73.2,104.2z"/>
		</g>
		<g>
			<path class="st3" d="M89.2,83.8c-3.5,2.5-7.2,4.6-10.9,6.9L72.9,94c-1.8,1.1-3,2.8-3.7,4.6c-0.4,0.9-0.7,1.8-0.7,2.8
				c0,0.9,0,2.1,0,3.2c0,2.3,0,4.4,0,6.5c0,4.2-0.2,8.6-0.4,12.8h-0.7c-0.2-4.2-0.4-8.6-0.4-12.8c0-2.3,0-4.4,0-6.5
				c0-1.2,0-2.1,0-3.3c0-1.1,0.4-2.3,0.7-3.3c0.9-2.1,2.5-4,4.4-5.3c1.9-1.1,3.7-2.1,5.6-3.2c3.9-2.1,7.6-4.2,11.4-6.2V83.8z"/>
		</g>
		<path class="st1" d="M94.5,95.4c0,0.9,1.1,1.4,1.8,1.1l26-14.9c0.4-0.4,0.5-0.7,0.5-1.1V72L94.5,88.4V95.4z"/>
	</g>
	<polygon class="st4" points="80.3,234.3 136.9,201.4 137,107.5 80.3,141.3 	"/>
	<text transform="matrix(0.8636 -0.5 0 1 95.8947 146.6643)" class="st5 st6 st7">Pago por </text>
	<text transform="matrix(0.8636 -0.5 0 1 104.091 150.8841)" class="st5 st6 st7">SPEI</text>
	<path class="st8" d="M93.3,205.5l35.5-20.8c0.5-0.3,1.4,0.1,1.4,0.8v10.5c0,0.4-0.2,0.6-0.5,0.8l-35.5,20.5
		c-0.5,0.3-1.4-0.1-1.4-0.7v-10.2C92.7,206,92.9,205.8,93.3,205.5z"/>
	<text transform="matrix(0.8636 -0.5 0 1 100.9706 208.7237)" class="st4 st6 st9">Transferir</text>
	<g>
		<g>
			<path class="st8" d="M109.1,105.8v0.7l4-4.5c0,0,0.2-0.2,0.2-0.4l1.1-6c0-0.2-0.2,0-0.2,0L109.1,105.8z"/>
		</g>
		<g>
			<path class="st8" d="M119.6,99.9v0.7l-4-0.1c0-0.2-0.2,0-0.2-0.1l-1.1-4.8c0-0.2,0.2-0.2,0.2-0.2L119.6,99.9z"/>
		</g>
		<g>
			<path class="st8" d="M89.8,127l1.2-2.1c0.5,0.3,1.1,0.4,1.8-0.1c0.7-0.3,1.2-1.1,1.2-2.3v-6.2l2.1-1.2v6.2c0,1.1-0.4,2.2-0.9,3
				c-0.5,0.8-1.4,1.6-2.5,2.3C91.3,127.6,90.5,127.4,89.8,127z"/>
		</g>
		<g>
			<path class="st8" d="M99.4,113.3l7-3.9v1.9l-4.9,2.7v1.9l4.4-2.5v1.9l-4.4,2.5v1.9l5.1-2.9v1.9l-7,3.9L99.4,113.3z"/>
		</g>
		<g>
			<path class="st8" d="M125.1,104.5l-3.7-3.6l2.5-1.4l2.3,2.4l2.3-5.1l2.3-1.1l-3.5,7.6v3.9l-2.1,1.2V104.5z"/>
		</g>
		<g>
			<polygon class="st8" points="113.8,114.5 113.7,105.2 109.1,107.9 109.1,109.7 111.9,108.1 111.9,115.7 			"/>
		</g>
		<g>
			<polygon class="st8" points="115.1,113.8 114.9,104.5 119.6,101.8 119.6,103.7 116.8,105.4 116.8,113 			"/>
		</g>
	</g>
	<g>
		<g>
			<path class="st8" d="M111.9,174.8v1.1l-1.2,0.7v-1.1c-1.4,0.6-2.6,0.8-3.7,0.4l0.9-1.5c0.7,0.4,1.6,0.4,2.8-0.1V170
				c-1.9,0.7-3.2,0.5-3.2-1.3c0-1.6,1.4-3.9,3.2-5.1v-1.1l1.2-0.7v1.1c1.4-0.8,2.5-0.7,3.3-0.4l-0.9,1.5c-0.7-0.2-1.6-0.3-2.5,0v4
				c2.1-0.7,3.7-0.9,3.7,1C115.6,171,114.4,173.1,111.9,174.8z M110.7,168.6v-3.7c-1.1,0.7-1.9,2.2-1.9,3.1S109.4,169,110.7,168.6z
				 M114.2,170.4c0-1.1-0.9-0.9-2.3-0.7v4C113.5,172.6,114.2,171.2,114.2,170.4z"/>
		</g>
		<g>
			<g>
				<g>
					<path class="st8" d="M99.6,173.9l-1.4-0.1c1.4-6.9,6.5-14.1,12.7-17.7c3.3-1.9,6.5-2.6,9-1.8c1.8,0.4,3,1.8,3.9,3.4l-1.2,0.5
						c-0.7-1.3-1.6-2.4-3-2.7c-2.1-0.7-4.9-0.1-7.9,1.6C105.9,160.6,100.8,167.8,99.6,173.9z"/>
				</g>
				<g>
					<g>
						<polygon class="st8" points="124.6,153.8 123,157.7 120,158 120.7,159.3 123.5,159.4 125.1,155.4 						"/>
					</g>
				</g>
			</g>
			<g>
				<g>
					<path class="st8" d="M104.7,184.9c-0.7-0.1-1.6-0.1-2.3-0.3c-1.8-0.6-3-1.8-3.9-3.4l1.2-0.5c0.7,1.3,1.6,2.4,3,2.7
						c2.1,0.7,4.9,0.1,7.9-1.6c5.8-3.4,10.7-10.3,12-16.7l1.4,0.3c-1.2,6.7-6.5,14.1-12.7,17.7C109.3,184,106.8,184.7,104.7,184.9z"
						/>
				</g>
				<g>
					<g>
						<polygon class="st8" points="98,184.7 99.4,181 102.4,180.7 101.9,179.2 98.9,179.3 97.3,183.3 						"/>
					</g>
				</g>
			</g>
		</g>
	</g>
</g>
<g>
	
		<linearGradient id="SVGID_2_" gradientUnits="userSpaceOnUse" x1="196.3797" y1="363.3991" x2="231.7973" y2="402.2126" gradientTransform="matrix(1 0 0 1 0 -160)">
		<stop  offset="0" style="stop-color:#6D6E70;stop-opacity:0"/>
		<stop  offset="1" style="stop-color:#6D6E70;stop-opacity:0.7"/>
	</linearGradient>
	<path class="st10" d="M269.5,208.4l-40.4-23.7l-77.2,45.3l43.6,25.3c1.1,0.6,2.4,0.6,3.5,0l70.5-40.7
		C271.8,213.2,271.8,209.7,269.5,208.4z"/>
	<g>
		<path class="st1" d="M258.8,50.5c-2.1-0.5-4.4-0.3-6.3,0.9L187.1,89c-2.7,1.5-4.4,4.4-4.4,7.4v143c0,3,1.5,5.9,3.5,6.8
			c1.8,0.9,5.4,2.9,8,2.9c0.3,0,0.6,0,0.9-0.2l0,0l0,0c0.3,0,0.5-0.2,0.8-0.3l74.1-42.8c2.6-1.5,4.2-4.2,4.2-7.2
			c0,0,0-133.7,0-138.2C274.2,56.3,261.5,50.4,258.8,50.5z"/>
		<g>
			<path class="st11" d="M198.4,102l64.1-37.3c2.1-1.2,4.7,0.3,4.7,2.7v127.9c0,1.1-0.6,2.1-1.5,2.7l-64,37.1
				c-2.1,1.2-4.7-0.3-4.7-2.7V104.7C196.9,103.7,197.5,102.6,198.4,102z"/>
		</g>
		<path class="st3" d="M213.8,83.6c-3.8,2.4-7.5,4.8-11.3,7.1l-5.7,3.5c-1.8,1.1-3,2.7-3.8,4.7c-0.5,0.9-0.6,2-0.8,3
			c0,1.1,0,2.3,0,3.3c0,2.3,0,4.5-0.2,6.6c-0.2,4.5-0.2,8.9-0.5,13.4H191c-0.3-4.5-0.3-8.9-0.5-13.4c0-2.3,0-4.5-0.2-6.6
			c0-1.2,0-2.1,0-3.3c0-1.2,0.3-2.4,0.8-3.5c0.9-2.3,2.6-4.2,4.5-5.4c2-1.2,3.9-2.3,5.9-3.3c3.9-2.1,7.8-4.2,11.8-6.3L213.8,83.6z"
			/>
	</g>
	<g>
		<g>
			<g id="QR_POP_2">
				<g id="Rectangle_47" transform="translate(46.5 80.5)" class="st12">
					<path class="st4" d="M164.3,34.5L207,10.3c1.4-0.8,2.6-0.2,2.6,1.5v49.5c0,1.7-1.2,3.6-2.6,4.4l-42.7,24.1
						c-1.5,0.8-2.6,0.2-2.6-1.5V38.8C161.7,37.3,162.8,35.4,164.3,34.5z"/>
					<path class="st13" d="M164.3,34.6L207,10.5c1.4-0.8,2.4-0.2,2.4,1.5v49.5c0,1.5-1.1,3.5-2.4,4.2l-42.7,24
						c-1.4,0.8-2.4,0.2-2.4-1.5V38.7C161.7,37.3,162.9,35.4,164.3,34.6z"/>
				</g>
				<g id="Group_806" transform="translate(-296.766 -69.54)">
					<path id="Path_1059" class="st14" d="M552.7,168.5v-5.9c0-2.1-1.5-2.9-3.2-2l-5.1,2.9"/>
					<path id="Path_1060" class="st14" d="M513.2,181.3l-5.1,2.9c-1.8,1.1-3.2,3.5-3.2,5.6l0,0v5.9"/>
					<path id="Path_1061" class="st14" d="M504.9,231.7v5.9c0,2.1,1.5,2.9,3.2,2l0,0l5.1-2.9"/>
					<path id="Path_1062" class="st14" d="M544.4,218.8l5.1-2.9c1.8-1.1,3.2-3.5,3.2-5.6v-5.9"/>
				</g>
				<g id="Rectangle_46" transform="translate(69.5 103.5)">
					<polygon class="st4" points="142.7,15.2 182.2,-7.2 182.2,38.6 142.7,61.1 					"/>
					<polygon class="st13" points="142.7,15.2 182.2,-7.1 182.2,38.6 142.7,61 					"/>
				</g>
				<g id="Group_2_Copy" transform="translate(100.988 125.048)">
					<g id="Group_38">
						<path id="Fill_1" d="M131.8-13.8l2.7-1.5v1.7l-1.4,0.8v1.7l-2.7,1.5v4.8l-2.7,1.5V-5l1.4-0.8v-4.8l2.7-1.5V-13.8z"/>
						<path id="Fill_2" d="M126.2,0.7l-9.8,5.6V-5l9.8-5.6V0.7L126.2,0.7z M117.8-4.3v8.1l6.9-3.9v-8.1L117.8-4.3z"/>
						<path id="Fill_3" d="M145.5-10.3l-9.8,5.6V-16l9.8-5.6V-10.3L145.5-10.3z M137.3-15.3v8.1l6.9-3.9v-8.1L137.3-15.3z"/>
						<path id="Fill_4" d="M119.1-3.5l4.2-2.4v4.8l-4.2,2.4V-3.5z"/>
						<path id="Fill_5" d="M138.8-14.5l4.2-2.4v4.8l-4.2,2.4V-14.5z"/>
						<path id="Fill_6" d="M131.8-9l1.4-0.8v1.5l-1.4,0.8V-9z"/>
						<path id="Fill_7" d="M133-7.9l1.4-0.8v6.5L133-1.4v-3.3L131.7-4v1.7l-1.4,0.8v-3.3l2.7-1.5C133-6.4,133-7.9,133-7.9z"/>
						<path id="Fill_8" d="M127.4-1.9l1.4-0.8V-1l1.4-0.8v1.7l-1.4,0.8V4l1.4-0.8V1.6l1.4-0.8v-1.7l1.4-0.8v5L130,5.1v1.7l-1.4,0.8
							V5.8l-1.4,0.8V3.1l-2.9,1.7V3.1l2.9-1.7L127.4-1.9L127.4-1.9z"/>
						<path id="Fill_9" d="M119.1,6.4l2.9-1.7v1.5l-2.9,1.7V6.4z"/>
						<path id="Fill_10" d="M134.5-2.5l2.9-1.7v1.7l-1.5,0.8v1.7l-1.5,0.8L134.5-2.5L134.5-2.5z"/>
						<path id="Fill_11" d="M138.8-4.7l1.4-0.8V-4l-1.4,0.8V-4.7z"/>
						<path id="Fill_12" d="M116.4,9.5l2.7-1.5v1.7l1.4-0.8v1.7l-1.4,0.8v1.7l-1.4,0.8v-3.2l-1.4,0.8
							C116.4,11.3,116.4,9.5,116.4,9.5z"/>
						<path id="Fill_13" d="M122,6.3l2.9-1.7v1.7L123.4,7v1.7l1.5-0.8v1.7l-2.9,1.7V6.3z"/>
						<path id="Fill_14" d="M140-3.8l1.4-0.8v1.7l1.4-0.8v4.8l-1.4,0.8V0.2l-2.9,1.7v1.7l-1.4,0.8V1l2.9-1.7V-3.8z"/>
						<path id="Fill_15" d="M124.9,6.1l1.4-0.8v1.5l-1.4,0.8V6.1z"/>
						<path id="Fill_16" d="M144.3-4.9l1.4-0.8v1.5l-1.4,0.8V-4.9z"/>
						<path id="Fill_17" d="M126.1,7.2l1.5-0.8v3.3l-2.9,1.7V9.8l1.5-0.8L126.1,7.2L126.1,7.2z"/>
						<path id="Fill_18" d="M133.2,3.4l1.4-0.8v1.5l-1.4,0.8V3.4z"/>
						<path id="Fill_19" d="M116.4,14.3l1.4-0.8V15l-1.4,0.8V14.3z"/>
						<path id="Fill_20" d="M119.3,12.8l1.4-0.8v1.5l-1.4,0.8V12.8z"/>
						<path id="Fill_21" d="M130.3,6.4l2.9-1.7v1.7l-1.4,0.8v3.2l-1.4,0.8v3.2l-1.4,0.8v-3.2l-1.4,0.8V9.5l1.4-0.8v1.7l1.4-0.8
							L130.3,6.4z"/>
						<path id="Fill_22" d="M134.5,4l1.4-0.8v1.5l-1.4,0.8V4z"/>
						<path id="Fill_23" d="M144.3-1.6l1.4-0.8v1.5l-1.4,0.8V-1.6z"/>
						<path id="Fill_24" d="M133.2,6.6l1.4-0.8v3.3l-1.4,0.8V6.6z"/>
						<path id="Fill_25" d="M140.1,2.5l1.4-0.8v3.3l-1.4,0.8V2.5z"/>
						<path id="Fill_26" d="M142.8,1l1.4-0.8v1.5l-1.4,0.8V1z"/>
						<path id="Fill_27" d="M137.4,5.7l1.4-0.8v1.7l1.4-0.8v3.3l4.2-2.4v1.7l-5.6,3.2v3.3l-1.4,0.8v-3.5l-1.4,0.8v1.7l-1.4,0.8V17
							l1.4-0.8v1.7l-6.9,3.9v-1.7l4.2-2.4v-3.3l1.4-0.8V8.8l2.9-1.7V5.7C137.6,5.7,137.4,5.7,137.4,5.7z"/>
						<path id="Fill_28" d="M126.2,23.3l-9.8,5.6V17.6l9.8-5.6V23.3L126.2,23.3z M117.8,18.4v8.1l6.9-3.9v-8.1L117.8,18.4z"/>
						<path id="Fill_29" d="M131.8,10.7l1.4-0.8v1.5l-1.4,0.8V10.7z"/>
						<path id="Fill_30" d="M141.5,5.2l2.9-1.7v1.5l-2.9,1.7V5.2z"/>
						<path id="Fill_31" d="M119.1,19.3l4.2-2.4v4.8l-4.2,2.4V19.3z"/>
						<path id="Fill_32" d="M144.3,5.1l1.4-0.8v1.5l-1.4,0.8V5.1z"/>
						<path id="Fill_33" d="M127.4,16.1l1.5-0.8V17l1.5-0.8v1.7l-2.9,1.7L127.4,16.1L127.4,16.1z"/>
						<path id="Fill_34" d="M130.3,14.7l2.9-1.7v1.5l-2.9,1.7V14.7z"/>
						<path id="Fill_35" d="M141.5,11.6l1.4-0.8v1.5l-1.4,0.8V11.6z"/>
						<path id="Fill_36" d="M144.3,9.9l1.4-0.8v1.5l-1.4,0.8V9.9z"/>
						<path id="Fill_37" d="M138.8,14.7l1.4-0.8v1.5l-1.4,0.8V14.7z"/>
					</g>
				</g>
				<g class="st15">
					<path class="st4" d="M220,101.1l1.5-0.9v0.6l-1.1,0.6v0.5l0.9-0.6v0.6l-0.9,0.6v0.5l1.1-0.6v0.6l-1.5,0.9V101.1z"/>
					<path class="st4" d="M222.3,101.7C222.3,101.7,222.3,101.8,222.3,101.7C222.4,101.8,222.4,101.8,222.3,101.7
						c0.2,0.2,0.3,0.2,0.3,0v-0.2l0,0L222.3,101.7L222.3,101.7L222.3,101.7c-0.2-0.2-0.3-0.2-0.3-0.3c0,0,0-0.2,0-0.3
						c0,0,0-0.2,0-0.3s0-0.2,0.2-0.3c0-0.2,0.2-0.2,0.2-0.2s0.2-0.2,0.3-0.2c0.2-0.2,0.3-0.2,0.5-0.2s0.2,0.2,0.2,0.3l-0.5,0.3l0,0
						c0,0,0,0-0.2,0c0,0-0.2,0-0.2,0.2v0.2l0,0h0.2h0.2h0.2c0,0,0.2,0,0.2,0.2c0,0,0,0.2,0,0.3c0,0,0,0.2,0,0.3s0,0.2-0.2,0.3
						c0,0.2-0.2,0.2-0.2,0.3c-0.2,0.2-0.2,0.2-0.3,0.2c-0.2,0.2-0.3,0.2-0.5,0.2s-0.2-0.2-0.2-0.3L222.3,101.7z"/>
					<path class="st4" d="M224.2,99.4C224.4,99.4,224.4,99.4,224.2,99.4l0.3-0.2h0.2c0,0,0,0,0.2,0c0,0,0.2,0.2,0.2,0.3l-0.5,0.5
						c0,0,0,0,0-0.2c0,0,0,0-0.2,0s-0.2,0-0.2,0c-0.2,0-0.2,0.2-0.3,0.3c0,0.2-0.2,0.3-0.2,0.5s0,0.3,0.2,0.3c0,0,0.2,0,0.3,0
						c0,0,0.2,0,0.2-0.2c0,0,0-0.2,0.2-0.2v-0.2l0.5-0.2c0,0.2-0.2,0.3-0.2,0.5c0,0,0,0.2-0.2,0.2l-0.2,0.2l-0.2,0.2l-0.2,0.2
						c-0.2,0-0.2,0.2-0.3,0.2c-0.2,0-0.2,0-0.3,0l-0.2-0.2c0-0.2,0-0.2,0-0.3c0-0.2,0-0.3,0-0.5c0-0.2,0.2-0.3,0.2-0.5
						c0-0.2,0.2-0.3,0.3-0.3C223.9,99.6,224.1,99.4,224.2,99.4z"/>
					<path class="st4" d="M225.9,98.4c0.2,0,0.2-0.2,0.3-0.2c0.2,0,0.2,0,0.2,0l0.2,0.2c0,0,0,0.2,0,0.3v1.1l-0.3,0.2v-0.2l-0.2,0.2
						l-0.2,0.2l-0.2,0.2c-0.2,0.2-0.3,0.2-0.5,0.2s-0.2-0.2-0.2-0.3c0-0.2,0-0.2,0-0.3c0-0.2,0.2-0.2,0.2-0.3c0-0.2,0.2-0.2,0.3-0.3
						c0.2-0.2,0.3-0.2,0.5-0.3c0-0.2,0-0.2,0-0.2h-0.2c0,0-0.2,0-0.2,0.2c0,0,0,0,0,0.2c0,0,0,0,0,0.2l-0.6,0.3c0-0.2,0-0.2,0-0.3
						s0.2-0.2,0.2-0.3s0.2-0.2,0.2-0.3C225.6,98.5,225.7,98.5,225.9,98.4z M225.7,99.9C225.9,99.9,225.9,99.7,225.7,99.9
						c0.2-0.3,0.3-0.3,0.3-0.5l0,0c-0.2,0-0.2,0.2-0.3,0.2l-0.2,0.2L225.7,99.9C225.6,99.9,225.6,99.9,225.7,99.9
						C225.6,99.9,225.6,100,225.7,99.9C225.6,100,225.7,100,225.7,99.9z"/>
					<path class="st4" d="M227.7,97.5c0.2,0,0.2-0.2,0.3-0.2c0.2,0,0.2,0,0.2,0l0.2,0.2c0,0.2,0,0.2,0,0.3v1.1l-0.5,0.3v-0.9
						c0-0.2,0-0.2-0.2-0.3h-0.2c-0.2,0-0.2,0.2-0.2,0.2c0,0.2-0.2,0.2-0.2,0.3v1.1l-0.5,0.3v-1.8l0.3-0.2v0.2l0.2-0.2l0.2-0.2
						C227.5,97.5,227.5,97.5,227.7,97.5z"/>
					<path class="st4" d="M230.1,97.3c0,0.2,0,0.2-0.2,0.3c0,0.2-0.2,0.2-0.2,0.3s-0.2,0.2-0.2,0.3c-0.2,0.2-0.2,0.2-0.3,0.2
						c-0.2,0-0.2,0.2-0.3,0.2c-0.2,0-0.2,0-0.3,0l-0.2-0.2c0-0.2,0-0.2,0-0.3c0-0.2,0-0.3,0-0.5c0-0.2,0.2-0.3,0.2-0.5
						c0-0.2,0.2-0.3,0.3-0.3c0.2-0.2,0.2-0.2,0.3-0.3c0.2,0,0.2-0.2,0.3-0.2c0.2,0,0.2,0,0.3,0l0.2,0.2c0,0.2,0,0.2,0,0.3l0,0l0,0
						l0,0l-1.1,0.9c0,0,0,0.2,0.2,0.2h0.2c0,0,0.2,0,0.2-0.2c0,0,0,0,0-0.2c0,0,0,0,0-0.2L230.1,97.3z M229.4,96.9
						C229.2,96.9,229.2,97,229.4,96.9c-0.2,0.3-0.3,0.3-0.3,0.5l0.6-0.3c0,0,0-0.2-0.2-0.2C229.4,96.9,229.5,96.9,229.4,96.9z"/>
					<path class="st4" d="M231,95.5c0.2,0,0.2-0.2,0.3-0.2c0.2,0,0.2,0,0.2,0l0.2,0.2c0,0,0,0.2,0,0.3v1.1l-0.3,0.2v-0.2l-0.2,0.2
						l-0.2,0.2l-0.2,0.2c-0.2,0.2-0.3,0.2-0.5,0.2s-0.2-0.2-0.2-0.3s0-0.2,0-0.3s0.2-0.2,0.2-0.3s0.2-0.2,0.3-0.3
						c0.2-0.2,0.3-0.2,0.5-0.3c0-0.2,0-0.2,0-0.2H231c0,0-0.2,0-0.2,0.2c0,0,0,0,0,0.2c0,0,0,0,0,0.2l-0.5,0.2c0-0.2,0-0.2,0-0.3
						s0.2-0.2,0.2-0.3s0.2-0.2,0.2-0.3C230.9,95.7,231,95.5,231,95.5z M231,97C231.2,97,231.2,96.9,231,97c0.2-0.3,0.3-0.3,0.3-0.5
						v-0.2c-0.2,0-0.2,0.2-0.3,0.2l-0.2,0.2v0.2C230.9,96.9,230.9,96.9,231,97C230.7,97,230.7,97,231,97C230.9,97,230.9,97,231,97z"
						/>
					<path class="st4" d="M232.8,94.4L232.8,94.4L232.8,94.4C232.8,94.4,233,94.4,232.8,94.4l0.2,0.5l0,0l0,0l0,0
						c-0.2,0-0.2,0.2-0.2,0.2c0,0.2-0.2,0.2-0.2,0.3v0.9l-0.6,0.5v-1.8l0.3-0.2v0.2c0,0,0-0.2,0.2-0.2c0,0,0-0.2,0.2-0.2
						C232.7,94.6,232.7,94.6,232.8,94.4z"/>
					<path class="st4" d="M234.9,94.6c0.2-0.2,0.3-0.2,0.3-0.3c0.2-0.2,0.2-0.3,0.2-0.3l0.5-0.3c0,0.2,0,0.3-0.2,0.5
						c0,0.2-0.2,0.3-0.2,0.5c-0.2,0.2-0.2,0.3-0.3,0.3c-0.2,0.2-0.3,0.2-0.3,0.3c-0.2,0.2-0.3,0.2-0.5,0.2c-0.2,0-0.3,0-0.3-0.2
						c-0.2,0-0.2-0.2-0.2-0.3c0-0.2-0.2-0.3-0.2-0.5c0-0.2,0-0.3,0.2-0.6c0-0.2,0.2-0.3,0.2-0.5c0.2-0.2,0.2-0.3,0.3-0.5
						c0.2-0.2,0.3-0.3,0.5-0.3c0.2,0,0.3-0.2,0.3-0.2c0.2,0,0.2,0,0.3,0c0.2,0,0.2,0.2,0.2,0.2s0.2,0.2,0.2,0.3l-0.5,0.3v-0.2
						c0,0,0,0-0.2,0h-0.2h-0.2c-0.2,0-0.2,0.2-0.2,0.2s-0.2,0.2-0.2,0.3s-0.2,0.2-0.2,0.3s0,0.2,0,0.3s0,0.2,0,0.3
						c0,0,0,0.2,0.2,0.2L234.9,94.6C234.8,94.6,234.8,94.6,234.9,94.6z"/>
					<path class="st4" d="M236,93.5c0-0.2,0-0.3,0-0.5s0.2-0.3,0.2-0.5s0.2-0.3,0.3-0.3c0.2-0.2,0.2-0.2,0.3-0.3
						c0.2,0,0.2-0.2,0.3-0.2c0.2,0,0.2,0,0.3,0l0.2,0.2c0,0.2,0,0.2,0,0.3s0,0.3,0,0.5s-0.2,0.3-0.2,0.5s-0.2,0.3-0.3,0.3
						c-0.2,0.2-0.2,0.2-0.3,0.3c-0.2,0-0.2,0.2-0.3,0.2s-0.2,0-0.3,0l-0.2-0.2C236,93.8,236,93.7,236,93.5z M237.2,92.9
						c0-0.2,0-0.3-0.2-0.3c0,0-0.2,0-0.3,0c-0.2,0-0.2,0.2-0.3,0.3c-0.2,0.2-0.2,0.3-0.2,0.5c0,0.2,0,0.3,0.2,0.3c0.2,0,0.2,0,0.3,0
						c0.2,0,0.2-0.2,0.3-0.3S237.2,93.1,237.2,92.9z M236.9,91.4l0.5-0.3l-0.3,0.8l-0.5,0.2L236.9,91.4z"/>
					<path class="st4" d="M238.6,93.1c-0.2,0-0.2,0.2-0.3,0.2s-0.2,0-0.3,0l-0.2-0.2c0-0.2,0-0.2,0-0.3s0-0.3,0-0.5s0.2-0.3,0.2-0.5
						s0.2-0.3,0.3-0.3c0.2-0.2,0.2-0.2,0.3-0.2h0.2h0.2c0,0,0,0,0.2,0v-1.1l0.5-0.3v2.4l-0.3,0.2v-0.2l-0.2,0.2l-0.2,0.2
						C238.7,92.9,238.6,93.1,238.6,93.1z M238.3,92.3c0,0.2,0,0.2,0.2,0.3c0,0,0.2,0,0.3,0c0.2,0,0.2-0.2,0.3-0.3
						c0-0.2,0.2-0.3,0.2-0.3c0-0.2,0-0.2-0.2-0.3c0,0-0.2,0-0.3,0c-0.2,0-0.2,0.2-0.3,0.3C238.3,92,238.3,92.2,238.3,92.3z"/>
					<path class="st4" d="M239.8,90.1c0-0.2,0-0.2,0-0.3s0.2-0.2,0.2-0.2h0.2l0.2,0.2c0,0.2,0,0.2-0.2,0.3c0,0.2-0.2,0.2-0.2,0.2
						h-0.2C239.8,90.2,239.8,90.2,239.8,90.1z M240.2,92l-0.5,0.3v-1.8l0.5-0.3V92z"/>
					<path class="st4" d="M241.3,89.8L241.3,89.8h0.3h0.2v-0.2l0.3-0.2v1.7c0,0.2,0,0.3,0,0.3c0,0.2-0.2,0.3-0.2,0.3
						c0,0.2-0.2,0.2-0.3,0.3c-0.2,0.2-0.2,0.2-0.3,0.3c-0.2,0.2-0.3,0.2-0.3,0.2c-0.2,0-0.2,0-0.2-0.2l-0.2-0.2l0.5-0.3l0,0
						c0,0,0,0,0.2,0h0.2c0.2,0,0.2-0.2,0.3-0.3c0-0.2,0.2-0.2,0.2-0.3v-0.2c0,0,0,0.2-0.2,0.2c0,0,0,0.2-0.2,0.2l-0.2,0.2
						c-0.2,0-0.2,0.2-0.3,0.2c-0.2,0-0.2,0-0.3,0l-0.2-0.2c0-0.2,0-0.2,0-0.3s0-0.3,0-0.3c0-0.2,0.2-0.3,0.2-0.3
						c0-0.2,0.2-0.2,0.3-0.3C241.1,89.8,241.1,89.8,241.3,89.8z M241,90.7c0,0.2,0,0.2,0.2,0.2c0,0,0.2,0,0.3,0s0.2-0.2,0.3-0.3
						c0-0.2,0.2-0.2,0.2-0.3s0-0.2-0.2-0.2c0,0-0.2,0-0.3,0s-0.2,0.2-0.3,0.3C241,90.5,241,90.7,241,90.7z"/>
					<path class="st4" d="M242.3,89.9c0-0.2,0-0.3,0-0.5s0.2-0.3,0.2-0.5c0-0.2,0.2-0.3,0.3-0.3c0.2-0.2,0.2-0.2,0.3-0.3
						c0.2,0,0.2-0.2,0.3-0.2s0.2,0,0.3,0l0.2,0.2c0,0.2,0,0.2,0,0.3s0,0.3,0,0.5c0,0.2-0.2,0.3-0.2,0.5s-0.2,0.3-0.3,0.3
						c-0.2,0.2-0.2,0.2-0.3,0.3c-0.2,0-0.2,0.2-0.3,0.2c-0.2,0-0.2,0-0.3,0l-0.2-0.2C242.3,90.2,242.3,90.1,242.3,89.9z M243.5,89.3
						c0-0.2,0-0.3-0.2-0.3c0,0-0.2,0-0.3,0s-0.2,0.2-0.3,0.3c0,0.2-0.2,0.3-0.2,0.5c0,0.2,0,0.3,0.2,0.3c0,0,0.2,0,0.3,0
						s0.2-0.2,0.3-0.3C243.4,89.6,243.5,89.5,243.5,89.3z"/>
				</g>
				<g class="st15">
					<path class="st16" d="M213.7,177.6l-0.5,0.3v-2.3l0.5-0.3V177.6z"/>
					<path class="st16" d="M214.7,175.3c0.2,0,0.2,0,0.3-0.2h0.2l0.2,0.2c0,0,0,0.2,0,0.3v0.9l-0.5,0.3v-0.9c0-0.2,0-0.2,0-0.2h-0.2
						c-0.2,0-0.2,0.2-0.2,0.2c0,0.2,0,0.2,0,0.3v0.9l-0.6,0.3v-1.7l0.3-0.2v0.2c0,0,0-0.2,0.2-0.2l0.2-0.2
						C214.7,175.3,214.7,175.3,214.7,175.3z"/>
					<path class="st16" d="M216.2,174.6L216.2,174.6h0.3c0,0,0,0,0.2,0v-0.2l0.3-0.2v1.5c0,0.2,0,0.2,0,0.3s-0.2,0.2-0.2,0.3
						c0,0.2-0.2,0.2-0.2,0.3c-0.2,0.2-0.2,0.2-0.3,0.2c-0.2,0-0.3,0.2-0.3,0.2c-0.2,0-0.2,0-0.2,0l-0.2-0.2l0.5-0.3l0,0l0,0
						c0,0,0,0,0.2,0s0.2-0.2,0.2-0.2c0-0.2,0.2-0.2,0.2-0.3v-0.2c0,0,0,0.2-0.2,0.2c0,0,0,0-0.2,0.2l-0.2,0.2
						c-0.2,0-0.2,0.2-0.3,0.2c-0.2,0-0.2,0-0.2,0l-0.2-0.2c0,0,0-0.2,0-0.3s0-0.2,0-0.3c0-0.2,0.2-0.2,0.2-0.3s0.2-0.2,0.2-0.3
						C216.1,174.6,216.1,174.6,216.2,174.6z M215.9,175.5C215.9,175.6,215.9,175.6,215.9,175.5l0.3,0.2c0.2,0,0.2-0.2,0.2-0.2
						c0-0.2,0.2-0.2,0.2-0.3c0-0.2,0-0.2-0.2-0.2h-0.2c-0.2,0-0.2,0.2-0.2,0.2S215.9,175.3,215.9,175.5z"/>
					<path class="st16" d="M218,173.5L218,173.5L218,173.5L218,173.5l0.2,0.5l0,0l0,0l0,0c-0.2,0-0.2,0.2-0.2,0.2c0,0.2,0,0.2,0,0.3
						v0.9l-0.5,0.3V174l0.3-0.2v0.2c0,0,0-0.2,0.2-0.2C217.7,173.7,217.7,173.7,218,173.5C217.9,173.5,217.9,173.5,218,173.5z"/>
					<path class="st16" d="M219.5,173.8c0,0.2,0,0.2-0.2,0.3c0,0.2-0.2,0.2-0.2,0.3c0,0.2-0.2,0.2-0.2,0.2s-0.2,0.2-0.3,0.2
						c-0.2,0-0.2,0.2-0.3,0.2c-0.2,0-0.2,0-0.2,0l-0.2-0.2c0-0.2,0-0.2,0-0.3c0-0.2,0-0.3,0-0.3c0-0.2,0.2-0.3,0.2-0.3
						c0-0.2,0.2-0.2,0.3-0.3c0.2-0.2,0.2-0.2,0.3-0.2c0.2,0,0.2-0.2,0.3-0.2c0.2,0,0.2,0,0.2,0l0.2,0.2
						C219.5,173.5,219.5,173.5,219.5,173.8L219.5,173.8L219.5,173.8L219.5,173.8l-0.9,0.5c0,0,0,0.2,0.2,0.2h0.2c0,0,0,0,0.2,0
						c0,0,0,0,0-0.2c0,0,0,0,0-0.2L219.5,173.8z M218.9,173.4C218.8,173.4,218.8,173.5,218.9,173.4c-0.2,0.3-0.3,0.3-0.3,0.5
						l0.6-0.3c0,0,0-0.2-0.2-0.2C219.1,173.4,219.1,173.4,218.9,173.4z"/>
					<path class="st16" d="M220.2,173.4C220.2,173.4,220.3,173.4,220.2,173.4C220.3,173.5,220.3,173.5,220.2,173.4
						c0.2,0,0.3,0,0.3-0.2v-0.2l0,0h-0.2C220.3,173.2,220.3,173.2,220.2,173.4C220.2,173.2,220,173.2,220.2,173.4
						c-0.2-0.2-0.3-0.2-0.3-0.3v-0.2v-0.2c0,0,0-0.2,0.2-0.2l0.2-0.2l0.2-0.2c0.2-0.2,0.3-0.2,0.5-0.2c0.2,0,0.2,0.2,0.2,0.3
						l-0.5,0.3l0,0c0,0,0,0-0.2,0c0,0-0.2,0-0.2,0.2c0,0,0,0,0,0.2l0,0h0.2h0.2h0.2c0,0,0.2,0,0.2,0.2v0.2v0.2c0,0,0,0.2-0.2,0.2
						c0,0.2-0.2,0.2-0.2,0.2s-0.2,0.2-0.3,0.2c-0.2,0.2-0.3,0.2-0.5,0.2c-0.2,0-0.2-0.2-0.2-0.3L220.2,173.4z"/>
					<path class="st16" d="M221.8,171.2c0.2,0,0.2,0,0.3-0.2h0.2l0.2,0.2c0,0,0,0.2,0,0.3v1.1l-0.3,0.2v-0.2c0,0,0,0.2-0.2,0.2
						l-0.2,0.2l-0.2,0.2c-0.2,0.2-0.3,0.2-0.3,0c-0.2,0-0.2-0.2-0.2-0.3c0-0.2,0-0.2,0-0.3s0-0.2,0.2-0.3c0-0.2,0.2-0.2,0.3-0.3
						c0.2-0.2,0.3-0.2,0.5-0.3c0-0.2,0-0.2,0-0.2H222c0,0,0,0-0.2,0.2c0,0,0,0,0,0.2c0,0,0,0,0,0.2l-0.5,0.2c0-0.2,0-0.2,0-0.3
						c0-0.2,0-0.2,0.2-0.3C221.5,171.2,221.7,171.2,221.8,171.2C221.7,171.4,221.8,171.4,221.8,171.2z M221.8,172.6
						C222,172.6,222,172.4,221.8,172.6c0.2-0.3,0.2-0.3,0.2-0.5l0,0c-0.2,0-0.2,0.2-0.2,0.2V172.6
						C221.7,172.4,221.7,172.4,221.8,172.6C221.7,172.6,221.7,172.6,221.8,172.6C221.7,172.6,221.7,172.6,221.8,172.6
						C221.7,172.7,221.7,172.7,221.8,172.6z"/>
					<path class="st16" d="M223.5,170.3L223.5,170.3L223.5,170.3L223.5,170.3l0.2,0.5l0,0l0,0l0,0c-0.2,0-0.2,0.2-0.2,0.2
						c0,0.2,0,0.2,0,0.3v0.8l-0.5,0.3v-1.7L223.5,170.3l-0.2,0.3C223.3,170.6,223.3,170.5,223.5,170.3
						C223.2,170.6,223.2,170.5,223.5,170.3C223.3,170.5,223.3,170.5,223.5,170.3z"/>
					<path class="st16" d="M225.1,169.4C225.1,169.4,225.3,169.4,225.1,169.4l0.3-0.2h0.2c0,0,0,0,0.2,0c0,0,0.2,0.2,0.2,0.3
						l-0.5,0.3c0,0,0,0,0-0.2c0,0,0,0-0.2,0c-0.2,0,0,0-0.2,0c-0.2,0-0.2,0.2-0.2,0.3c0,0.2-0.2,0.2-0.2,0.3s0,0.2,0.2,0.3h0.2
						c0,0,0.2,0,0.2-0.2c0,0,0-0.2,0.2-0.2v-0.2l0.5-0.2c0,0.2,0,0.3-0.2,0.5c0,0,0,0.2-0.2,0.2c0,0,0,0.2-0.2,0.2l-0.2,0.2
						l-0.2,0.2c-0.2,0-0.2,0.2-0.3,0.2c-0.2,0-0.2,0-0.2,0l-0.2-0.2c0-0.2,0-0.2,0-0.3c0-0.2,0-0.3,0-0.3c0-0.2,0.2-0.3,0.2-0.3
						c0-0.2,0.2-0.2,0.2-0.3C225,169.6,225,169.4,225.1,169.4z"/>
					<path class="st16" d="M225.9,169.7c0-0.2,0-0.3,0-0.3c0-0.2,0.2-0.3,0.2-0.3c0-0.2,0.2-0.2,0.3-0.3c0.2-0.2,0.2-0.2,0.3-0.2
						c0.2,0,0.2-0.2,0.3-0.2c0.2,0,0.2,0,0.2,0l0.2,0.2c0,0.2,0,0.2,0,0.3s0,0.3,0,0.3c0,0.2-0.2,0.3-0.2,0.3c0,0.2-0.2,0.2-0.2,0.3
						c-0.2,0.2-0.2,0.2-0.3,0.2c-0.2,0-0.2,0.2-0.3,0.2c-0.2,0-0.2,0-0.3,0l-0.2-0.2C226,170,225.9,169.9,225.9,169.7z M226.9,169.3
						c0-0.2,0-0.2-0.2-0.3h-0.2c-0.2,0-0.2,0.2-0.2,0.3c0,0.2-0.2,0.2-0.2,0.3c0,0.2,0,0.2,0.2,0.3h0.2c0.2,0,0.2-0.2,0.2-0.3
						C226.9,169.4,226.9,169.3,226.9,169.3z M226.8,167.9l0.5-0.3l-0.3,0.6l-0.3,0.2L226.8,167.9z"/>
					<path class="st16" d="M228.3,169.3c-0.2,0-0.2,0.2-0.3,0.2c-0.2,0-0.2,0-0.2,0l-0.2-0.2c0-0.2,0-0.2,0-0.3s0-0.3,0-0.3
						c0-0.2,0.2-0.3,0.2-0.3c0-0.2,0.2-0.2,0.2-0.3c0.2-0.2,0.2-0.2,0.3-0.2h0.2h0.2c0,0,0,0,0.2,0v-0.8l0.5-0.3v2l-0.3,0.2v-0.2
						c0,0,0,0.2-0.2,0.2l-0.2,0.2C228.3,169.3,228.3,169.3,228.3,169.3z M228,168.7c0,0.2,0,0.2,0.2,0.3h0.2c0.2,0,0.2-0.2,0.2-0.3
						c0-0.2,0.2-0.2,0.2-0.3s0-0.2-0.2-0.3h-0.2c-0.2,0-0.2,0.2-0.2,0.3C228,168.4,228,168.5,228,168.7z"/>
					<path class="st16" d="M229.4,166.7L229.4,166.7c0-0.3,0.2-0.3,0.2-0.3h0.2c0,0,0,0,0,0.2s0,0.2,0,0.2
						C229.7,166.9,229.5,166.9,229.4,166.7C229.5,166.9,229.4,166.9,229.4,166.7L229.4,166.7z M229.7,168.5l-0.5,0.3v-1.7l0.5-0.3
						C229.7,166.9,229.7,168.5,229.7,168.5z"/>
					<path class="st16" d="M230.7,166.3L230.7,166.3h0.3c0,0,0,0,0.2,0v-0.2l0.3-0.2v1.5c0,0.2,0,0.2,0,0.3s-0.2,0.2-0.2,0.3
						c0,0.2-0.2,0.2-0.2,0.3c-0.2,0.2-0.2,0.2-0.3,0.2c-0.2,0-0.3,0.2-0.3,0.2c-0.2,0-0.2,0-0.2,0l-0.2-0.2l0.5-0.3l0,0l0,0
						c0,0,0,0,0.2,0c0.2,0,0.2-0.2,0.2-0.2c0-0.2,0.2-0.2,0.2-0.3v-0.2c0,0,0,0.2-0.2,0.2c0,0,0,0-0.2,0.2c0,0-0.2,0-0.2,0.2
						c-0.2,0-0.2,0.2-0.3,0.2c-0.2,0-0.2,0-0.2,0l-0.2-0.2c0,0,0-0.2,0-0.3s0-0.2,0-0.3c0-0.2,0.2-0.2,0.2-0.3
						c0-0.2,0.2-0.2,0.2-0.3C230.4,166.4,230.6,166.4,230.7,166.3z M230.4,167.2C230.4,167.3,230.4,167.3,230.4,167.2l0.3,0.2
						c0.2,0,0.2-0.2,0.2-0.2c0-0.2,0.2-0.2,0.2-0.3c0-0.2,0-0.2-0.2-0.2h-0.2c-0.2,0-0.2,0.2-0.2,0.2
						C230.4,167,230.4,167.2,230.4,167.2z"/>
					<path class="st16" d="M231.6,166.6c0-0.2,0-0.3,0-0.3c0-0.2,0.2-0.3,0.2-0.3c0-0.2,0.2-0.2,0.2-0.3c0.2-0.2,0.2-0.2,0.3-0.2
						c0.2,0,0.2-0.2,0.3-0.2c0.2,0,0.2,0,0.3,0l0.2,0.2c0,0.2,0,0.2,0,0.3c0,0.2,0,0.3,0,0.3c0,0.2-0.2,0.3-0.2,0.3
						c0,0.2-0.2,0.2-0.3,0.3c-0.2,0.2-0.2,0.2-0.3,0.2c-0.2,0-0.2,0.2-0.3,0.2c-0.2,0-0.2,0-0.2,0l-0.2-0.2
						C231.6,166.7,231.6,166.7,231.6,166.6z M232.7,166c0-0.2,0-0.2-0.2-0.3h-0.2c-0.2,0-0.2,0.2-0.2,0.3s-0.2,0.2-0.2,0.3
						s0,0.2,0.2,0.3h0.2c0.2,0,0.2-0.2,0.2-0.3C232.7,166.3,232.7,166.1,232.7,166z"/>
					<path class="st16" d="M234.8,164L234.8,164h0.3c0,0,0,0,0.2,0c0,0,0-0.2,0.2-0.2l0.2-0.2l0.2-0.2c0.2-0.2,0.3-0.2,0.3,0
						c0.2,0,0.2,0.2,0.2,0.5v0.9l-0.5,0.3v-0.9c0-0.2,0-0.2,0-0.2h-0.2l-0.2,0.2c0,0,0,0.2,0,0.3v0.9l-0.5,0.3v-0.9
						c0-0.2,0-0.2,0-0.2h-0.2l-0.2,0.2c0,0,0,0.2,0,0.3v0.6l-0.5,0.3v-1.7l0.3-0.2v0.2c0,0,0-0.2,0.2-0.2
						C234.5,164.1,234.5,164.1,234.8,164C234.6,164,234.6,164,234.8,164z"/>
					<path class="st16" d="M236.9,162.6c0.2,0,0.2,0,0.3-0.2h0.2l0.2,0.2c0,0,0,0.2,0,0.3v1.1l-0.3,0.2V164c0,0,0,0.2-0.2,0.2
						l-0.2,0.2l-0.2,0.2c-0.2,0.2-0.3,0.2-0.3,0c-0.2,0-0.2-0.2-0.2-0.3c0-0.2,0-0.2,0-0.3s0-0.2,0.2-0.3c0-0.2,0.2-0.2,0.3-0.3
						c0.2-0.2,0.3-0.2,0.5-0.3c0-0.2,0-0.2,0-0.2h-0.2c0,0,0,0-0.2,0.2c0,0,0,0,0,0.2c0,0,0,0,0,0.2l-0.5,0.2c0-0.2,0-0.2,0-0.3
						c0-0.2,0-0.2,0.2-0.3C236.6,162.6,236.7,162.6,236.9,162.6C236.7,162.8,236.9,162.8,236.9,162.6z M236.9,164.1
						C237.1,164.1,237.1,164,236.9,164.1c0.2-0.3,0.2-0.3,0.2-0.5l0,0c-0.2,0-0.2,0.2-0.2,0.2V164.1
						C236.7,164,236.7,164,236.9,164.1C236.7,164.1,236.7,164.1,236.9,164.1C236.7,164,236.7,164.1,236.9,164.1
						C236.7,164.1,236.7,164.1,236.9,164.1z"/>
					<path class="st16" d="M238.6,161.7c0.2,0,0.2,0,0.3-0.2h0.2l0.2,0.2c0,0,0,0.2,0,0.3v0.9l-0.5,0.3v-0.9c0-0.2,0-0.2,0-0.2h-0.2
						c-0.2,0-0.2,0.2-0.2,0.2c0,0.2,0,0.2,0,0.3v0.9l-0.5,0.3v-1.7l0.3-0.2v0.2c0,0,0-0.2,0.2-0.2L238.6,161.7
						C238.4,161.9,238.6,161.9,238.6,161.7z"/>
					<path class="st16" d="M240.1,162.6c-0.2,0-0.2,0.2-0.3,0.2h-0.2l-0.2-0.2c0,0,0-0.2,0-0.3v-1.1l0.5-0.3v0.9c0,0.2,0,0.2,0,0.2
						h0.2c0.2,0,0.2-0.2,0.2-0.2c0-0.2,0-0.2,0-0.3v-0.9l0.5-0.3v1.7l-0.3,0.2V162c0,0,0,0.2-0.2,0.2l-0.2,0.2
						C240.1,162.6,240.1,162.6,240.1,162.6z"/>
					<path class="st16" d="M241.7,160.1c0.2,0,0.2,0,0.3-0.2h0.2l0.2,0.2c0,0,0,0.2,0,0.3v0.9l-0.3,0.2v-0.2c0,0,0,0.2-0.2,0.2
						l-0.2,0.2l-0.2,0.2c-0.2,0.2-0.3,0.2-0.3,0c-0.2,0-0.2-0.2-0.2-0.3c0-0.2,0-0.2,0-0.3s0-0.2,0.2-0.3c0-0.2,0.2-0.2,0.3-0.3
						c0.2-0.2,0.3-0.2,0.5-0.3c0-0.2,0-0.2,0-0.2h-0.2c0,0,0,0-0.2,0.2c0,0,0,0,0,0.2c0,0,0,0,0,0.2l-0.6,0.5c0-0.2,0-0.2,0-0.3
						s0-0.2,0.2-0.3c0-0.2,0.2-0.2,0.2-0.2C241.6,160.1,241.6,160.1,241.7,160.1z M241.6,161.4C241.7,161.4,241.7,161.3,241.6,161.4
						c0.2-0.3,0.2-0.3,0.2-0.5l0,0c-0.2,0-0.2,0.2-0.2,0.2V161.4C241.4,161.3,241.4,161.3,241.6,161.4
						C241.4,161.4,241.4,161.4,241.6,161.4C241.4,161.4,241.4,161.4,241.6,161.4L241.6,161.4z"/>
					<path class="st16" d="M242.9,161l-0.3,0.2v-2.3l0.5-0.3v2.4H242.9z"/>
					<path class="st16" d="M244,158.7L244,158.7h0.3c0,0,0,0,0.2,0c0,0,0-0.2,0.2-0.2l0.2-0.2l0.2-0.2c0.2-0.2,0.3-0.2,0.3,0
						c0.2,0,0.2,0.2,0.2,0.5v0.9l-0.5,0.3V159c0-0.2,0-0.2,0-0.2h-0.2l-0.2,0.2c0,0,0,0.2,0,0.3v0.9l-0.5,0.2v-0.9
						c0-0.2,0-0.2,0-0.2H244l-0.2,0.2c0,0,0,0.2,0,0.3v0.9l-0.5,0.3v-1.7l0.3-0.2v0.2c0,0,0-0.2,0.2-0.2
						C243.8,158.9,243.8,158.9,244,158.7C243.8,158.9,244,158.7,244,158.7z"/>
					<path class="st16" d="M246.9,158.3c0,0.2,0,0.2-0.2,0.3c0,0.2-0.2,0.2-0.2,0.3c0,0.2-0.2,0.2-0.2,0.2s-0.2,0.2-0.3,0.2
						c-0.2,0-0.2,0.2-0.3,0.2c-0.2,0-0.2,0-0.2,0l-0.2-0.2c0-0.2,0-0.2,0-0.3c0-0.2,0-0.3,0-0.3c0-0.2,0.2-0.3,0.2-0.3
						c0-0.2,0.2-0.2,0.3-0.3c0.2-0.2,0.2-0.2,0.3-0.2c0.2,0,0.2-0.2,0.3-0.2s0.2,0,0.2,0l0.2,0.2C246.9,158,246.9,158,246.9,158.3
						L246.9,158.3L246.9,158.3L246.9,158.3l-0.9,0.5c0,0,0,0.2,0.2,0.2h0.2c0,0,0,0,0.2,0l0,0c0,0,0,0,0-0.2L246.9,158.3z
						 M246.3,157.8C246.1,157.8,246.1,158,246.3,157.8c-0.2,0.3-0.3,0.3-0.3,0.5l0.6-0.3c0,0,0-0.2-0.2-0.2
						C246.4,157.8,246.3,157.8,246.3,157.8z"/>
					<path class="st16" d="M247.9,156.5c0.2,0,0.2-0.2,0.3-0.2h0.2l0.2,0.2c0,0,0,0.2,0,0.3v0.9l-0.5,0.3v-0.9c0-0.2,0-0.2,0-0.2
						h-0.2c-0.2,0-0.2,0.2-0.2,0.2c0,0.2,0,0.2,0,0.3v0.9l-0.6,0.3v-1.7l0.3-0.2v0.2c0,0,0-0.2,0.2-0.2l0.2-0.2
						C247.8,156.6,247.9,156.5,247.9,156.5z"/>
					<path class="st16" d="M249,156.5h-0.3V156h0.2c0.2,0,0.2-0.2,0.2-0.3v-0.3l0.3-0.2v0.5l0.3-0.2v0.5l-0.3,0.2v0.6v0.2h0.2l0,0
						l0,0l0,0v0.5l0,0c0,0-0.2,0-0.2,0.2c-0.2,0.2-0.3,0.2-0.3,0c-0.2,0-0.2-0.2-0.2-0.3L249,156.5L249,156.5z"/>
					<path class="st16" d="M251.2,155.9c0,0,0,0.2-0.2,0.3c0,0.2-0.2,0.2-0.2,0.3c0,0.2-0.2,0.2-0.2,0.2s-0.2,0.2-0.3,0.2
						c0,0-0.2,0-0.3,0s-0.2,0-0.2,0l-0.2-0.2c0-0.2,0-0.2,0-0.3s0-0.3,0-0.3c0-0.2,0.2-0.3,0.2-0.3c0-0.2,0.2-0.2,0.3-0.3
						c0.2-0.2,0.2-0.2,0.3-0.2s0.2-0.2,0.3-0.2c0.2,0,0.2,0,0.2,0l0.2,0.2c0,0.2,0,0.2,0,0.3l0,0l0,0l0,0l-1.1,0.6
						c0,0,0,0.2,0.2,0.2h0.2c0,0,0,0,0.2,0l0,0c0,0,0,0,0-0.2L251.2,155.9z M250.5,155.4C250.3,155.4,250.3,155.6,250.5,155.4
						c-0.2,0.3-0.3,0.3-0.3,0.5l0.6-0.3c0,0,0-0.2-0.2-0.2C250.6,155.4,250.6,155.4,250.5,155.4z"/>
				</g>
				<g transform="matrix(1, 0, 0, 1, 0, 0)">
					<polygon id="Rectangle-2" class="st4" points="201.9,191 262.5,156.6 262.5,198.7 201.9,233.1 					"/>
				</g>
				<g class="st15">
					<path class="st17" d="M206.7,193.7v1.7l-0.3,0.3l-0.6-0.6v0.9l-0.3,0.2v-1.7l0.3-0.2l0.6,0.6v-1.1L206.7,193.7z"/>
					<path class="st17" d="M207.5,195.1L207.5,195.1h-0.3c0,0,0,0-0.2-0.2v-0.2V194l0.3-0.2v0.6c0,0.2,0,0.2,0,0.2h0.2l0.2-0.2v-0.2
						v-0.6l0.3-0.2v1.2L207.5,195.1l0.2-0.3C207.6,194.8,207.6,194.9,207.5,195.1C207.6,194.9,207.6,194.9,207.5,195.1L207.5,195.1z
						 M207.5,193.3l0.3-0.2l-0.2,0.5l-0.3,0.2L207.5,193.3z"/>
					<path class="st17" d="M208.8,193C208.8,193,209,193,208.8,193c0.2,0,0.2,0,0.3,0l0,0c0,0,0-0.2,0.2-0.2c0,0,0,0,0.2-0.2
						c0,0,0.2,0,0.2-0.2c0.2,0,0.2-0.2,0.3,0c0,0,0.2,0.2,0.2,0.3v0.8l-0.6,0.3v-0.8V193c0,0,0,0-0.2,0c0,0-0.2,0-0.2,0.2v0.2v0.8
						l-0.3,0.2v-0.8v-0.2c0,0,0,0-0.2,0c0,0-0.2,0-0.2,0.2v0.2v0.8l-0.3,0.2v-1.2l0.3-0.2v0.2c0,0,0,0,0-0.2
						C208.7,193.1,208.7,193.1,208.8,193C208.7,193,208.8,193,208.8,193z"/>
					<path class="st17" d="M211.1,192.7L211.1,192.7c0,0.2,0,0.3-0.2,0.3l-0.2,0.2l-0.2,0.2h-0.2h-0.2l-0.2-0.2c0,0,0-0.2,0-0.3
						c0-0.2,0-0.2,0-0.3s0-0.2,0.2-0.3c0-0.2,0.2-0.2,0.2-0.3l0.2-0.2h0.2h0.2l0.2,0.2c0,0,0,0.2,0,0.3l0,0l0,0l0,0l-0.8,0.5
						c0,0,0,0,0.2,0.2h0.2c0,0,0,0,0.2,0l0,0l0,0L211.1,192.7z M210.5,192.4L210.5,192.4c-0.2,0.2-0.2,0.3-0.2,0.3l0.5-0.3
						C210.8,192.4,210.8,192.4,210.5,192.4C210.6,192.2,210.6,192.2,210.5,192.4z"/>
					<path class="st17" d="M211.9,191.3L211.9,191.3L211.9,191.3L211.9,191.3l0.2,0.3l0,0l0,0l0,0l-0.2,0.2v0.2v0.6l-0.3,0.2v-1.2
						L211.9,191.3L211.9,191.3C211.9,191.5,211.9,191.5,211.9,191.3C211.7,191.5,211.7,191.5,211.9,191.3
						C211.7,191.3,211.9,191.3,211.9,191.3z"/>
					<path class="st17" d="M212,191.8c0-0.2,0-0.2,0-0.3c0-0.2,0-0.2,0.2-0.3c0-0.2,0.2-0.2,0.2-0.3l0.2-0.2c0.2,0,0.2,0,0.2,0h0.2
						l0.2,0.2c0,0,0,0.2,0,0.3c0,0.2,0,0.2,0,0.3c0,0.2,0,0.2-0.2,0.3c0,0.2-0.2,0.2-0.2,0.3l-0.2,0.2c-0.2,0-0.2,0-0.2,0h-0.2
						l-0.2-0.2C212,191.9,212,191.9,212,191.8z M212.8,191.3C212.8,191.2,212.8,191.2,212.8,191.3L212.8,191.3h-0.3
						c0,0.2,0,0.2,0,0.3c0,0.2,0,0.2,0,0.2h0.2l0.2-0.2C212.8,191.6,212.8,191.5,212.8,191.3z"/>
					<path class="st17" d="M214.3,191.2L214.3,191.2H214l-0.2-0.2c0,0,0-0.2,0-0.3c0-0.2,0-0.2,0-0.3s0-0.2,0.2-0.3
						c0-0.2,0.2-0.2,0.2-0.2l0.2-0.2h0.2c0,0,0,0,0.2,0l0,0v-0.6l0.3-0.2v1.7l-0.3,0.2v-0.2c0,0,0,0.2-0.2,0.2
						C214.6,191,214.6,191,214.3,191.2C214.4,191.2,214.4,191.2,214.3,191.2z M214.1,190.6C214.1,190.7,214.1,190.7,214.1,190.6
						L214.1,190.6h0.3c0-0.2,0-0.2,0-0.3s0-0.2,0-0.2h-0.2l-0.2,0.2C214.1,190.4,214.1,190.6,214.1,190.6z"/>
					<path class="st17" d="M216.2,189.6L216.2,189.6c0,0.2,0,0.3-0.2,0.3l-0.2,0.2l-0.2,0.2h-0.2h-0.2l-0.2-0.2c0,0,0-0.2,0-0.3
						c0-0.2,0-0.2,0-0.3c0-0.2,0-0.2,0.2-0.3c0-0.2,0.2-0.2,0.2-0.3l0.2-0.2h0.2h0.2l0.2,0.2c0,0,0,0.2,0,0.3l0,0l0,0l0,0l-0.8,0.8
						c0,0,0,0,0.2,0.2h0.2c0,0,0,0,0.2,0l0,0l0,0L216.2,189.6z M215.6,189.3C215.6,189.5,215.6,189.5,215.6,189.3
						c-0.2,0.3-0.2,0.3-0.2,0.5l0.5-0.3C215.9,189.5,215.9,189.3,215.6,189.3C215.8,189.3,215.8,189.3,215.6,189.3z"/>
					<path class="st17" d="M217.6,188L217.6,188h0.3l0.2,0.2c0,0,0,0.2,0,0.3s0,0.2,0,0.3c0,0.2,0,0.2-0.2,0.3
						c0,0.2-0.2,0.2-0.2,0.3l-0.2,0.2h-0.2c0,0,0,0-0.2,0l0,0v0.5l-0.3,0.2v-1.7l0.3-0.2v0.2c0,0,0-0.2,0.2-0.2
						C217.3,188.1,217.3,188.1,217.6,188C217.4,188.1,217.4,188.1,217.6,188z M217.7,188.6C217.7,188.4,217.7,188.4,217.7,188.6
						L217.7,188.6h-0.3c0,0.2,0,0.2,0,0.3c0,0.2,0,0.2,0,0.2h0.2l0.2-0.2C217.7,188.7,217.7,188.6,217.7,188.6z"/>
					<path class="st17" d="M218.6,187.4L218.6,187.4h0.3c0,0,0,0,0.2,0.2v0.2v0.8l-0.3,0.2v-0.2c0,0,0,0.2-0.2,0.2c0,0,0,0-0.2,0.2
						c0,0-0.2,0-0.2,0.2c-0.2,0-0.2,0.2-0.3,0l-0.2-0.2v-0.2c0,0,0-0.2,0.2-0.2l0.2-0.2c0.2,0,0.2-0.2,0.3-0.2V188c0,0,0,0-0.2,0
						l0,0l0,0l0,0l-0.3,0.2V188c0,0,0-0.2,0.2-0.2l0.2-0.2C218.5,187.4,218.6,187.4,218.6,187.4z M218.6,188.4
						C218.6,188.4,218.8,188.3,218.6,188.4c0.2-0.2,0.2-0.3,0.2-0.3l0,0C218.8,188.1,218.6,188.1,218.6,188.4
						C218.6,188.3,218.5,188.3,218.6,188.4C218.5,188.6,218.5,188.3,218.6,188.4C218.5,188.3,218.5,188.3,218.6,188.4
						C218.5,188.4,218.5,188.4,218.6,188.4C218.5,188.4,218.6,188.4,218.6,188.4z"/>
					<path class="st17" d="M219.7,187.7C219.7,187.7,219.7,187.8,219.7,187.7C219.7,187.8,219.7,187.8,219.7,187.7
						c0.2,0,0.2,0,0.3,0c0,0,0,0,0-0.2l0,0C219.9,187.5,219.9,187.5,219.7,187.7C219.7,187.5,219.7,187.5,219.7,187.7
						C219.5,187.5,219.5,187.5,219.7,187.7c-0.2-0.2-0.2-0.2-0.3-0.2v-0.2v-0.2c0,0,0-0.2,0.2-0.2l0.2-0.2l0.2-0.2
						c0.2-0.2,0.3-0.2,0.3,0l0.2,0.2l-0.3,0.2l0,0c0,0,0,0-0.2,0c0,0,0,0-0.2,0c0,0,0,0,0,0.2l0,0c0,0,0,0,0.2,0h0.2h0.2
						c0,0,0,0,0.2,0v0.2v0.2c0,0,0,0.2-0.2,0.2l-0.2,0.2l-0.2,0.2c-0.2,0.2-0.3,0.2-0.3,0.2l-0.2-0.2L219.7,187.7z"/>
					<path class="st17" d="M221.5,186.8L221.5,186.8c0,0.2,0,0.3-0.2,0.3l-0.2,0.2l-0.2,0.2h-0.2h-0.2l-0.2-0.2c0,0,0-0.2,0-0.3
						s0-0.2,0-0.3c0-0.2,0-0.2,0.2-0.3c0-0.2,0.2-0.2,0.2-0.3l0.2-0.2h0.2h0.2l0.2,0.2c0,0,0,0.2,0,0.3l0,0l0,0
						C221.5,186.5,221.5,186.6,221.5,186.8l-0.8,0.2c0,0,0,0,0.2,0.2h0.2c0,0,0,0,0.2,0l0,0l0,0L221.5,186.8z M220.9,186.5
						C220.9,186.5,220.8,186.5,220.9,186.5c-0.2,0.2-0.2,0.3-0.2,0.3l0.5-0.3C221.2,186.5,221.1,186.5,220.9,186.5
						C221.1,186.3,221.1,186.3,220.9,186.5z"/>
					<path class="st17" d="M222,186.5L222,186.5L222,186.5c0.2,0,0.2,0,0.3,0c0,0,0,0,0-0.2l0,0C222.1,186.3,222.1,186.3,222,186.5
						C222,186.3,222,186.3,222,186.5C221.8,186.3,221.8,186.3,222,186.5c-0.2-0.2-0.2-0.2-0.3-0.2v-0.2V186c0,0,0-0.2,0.2-0.2
						l0.2-0.2l0.2-0.2c0.2-0.2,0.3-0.2,0.3,0l0.2,0.2l-0.3,0.2l0,0c0,0,0,0-0.2,0c0,0,0,0-0.2,0c0,0,0,0,0,0.2l0,0c0,0,0,0,0.2,0
						h0.2h0.2c0,0,0,0,0.2,0v0.2v0.2c0,0,0,0.2-0.2,0.2l-0.2,0.2l-0.2,0.2c-0.2,0.2-0.3,0.2-0.3,0.2c-0.2,0-0.2-0.2-0.2-0.2
						L222,186.5z"/>
				</g>
				<path id="Rectangle-3" class="st17" d="M209.6,202.2l1.7-0.9c0.2-0.2,0.3,0,0.3,0.2c0,0.2-0.2,0.3-0.3,0.5l-1.7,0.9
					c-0.2,0.2-0.3,0-0.3-0.2C209.4,202.5,209.4,202.3,209.6,202.2z"/>
				<g id="Rectangle_Copy_6" transform="translate(88.5 492)">
					<path class="st4" d="M136.9-292.8l-10,5.7v-11.6l10-5.7V-292.8z"/>
					<path class="st18" d="M127.1-298.7v11.2l9.7-5.4v-11.2L127.1-298.7 M126.8-298.9l10.3-5.9v11.9l-10.3,5.9V-298.9z"/>
				</g>
				<g class="st15">
					<path class="st17" d="M221.5,196.6v0.6l-1.8,1.1v-0.5l0.9-1.7l0.2-0.2c0,0,0-0.2,0.2-0.2v-0.2c0-0.2,0-0.2,0-0.2h-0.2
						c-0.2,0-0.2,0.2-0.3,0.3c0,0.2-0.2,0.2-0.2,0.3l-0.6,0.3c0-0.2,0-0.3,0-0.5s0.2-0.3,0.2-0.5c0.2-0.2,0.2-0.3,0.3-0.3
						c0.2-0.2,0.3-0.2,0.3-0.3c0.2-0.2,0.3-0.2,0.5-0.2c0.2,0,0.2,0,0.3,0c0.2,0,0.2,0.2,0.2,0.2c0,0.2,0,0.2,0,0.3
						c0,0.2,0,0.3,0,0.3c0,0.2-0.2,0.3-0.2,0.3c0,0.2-0.2,0.3-0.2,0.3l-0.5,0.9L221.5,196.6z"/>
				</g>
				<g class="st15">
					<path class="st17" d="M240.1,185.7c-0.2,0.2-0.5,0-0.5,0c-0.2-0.2-0.2-0.3-0.2-0.5l0.6-0.3c0,0.3,0.2,0.3,0.3,0.2
						c0.2,0,0.2-0.2,0.3-0.3c0-0.2,0.2-0.2,0.2-0.3c0-0.2,0-0.2-0.2-0.2c0,0-0.2,0-0.3,0s-0.2,0-0.3,0c-0.2,0-0.2,0-0.3,0
						c-0.2,0-0.2,0-0.3-0.2c0-0.2-0.2-0.2-0.2-0.3c0-0.2,0-0.2,0-0.3c0-0.2,0.2-0.2,0.2-0.3s0.2-0.2,0.2-0.3
						c0.2-0.2,0.2-0.2,0.3-0.3v-0.3l0.6-0.3v0.5c0.2,0,0.2,0,0.3,0c0.2,0,0.2,0,0.2,0.2l0.2,0.2c0,0.2,0,0.2,0,0.3l-0.6,0.3
						c0-0.2,0-0.2-0.2-0.3c0,0-0.2,0-0.3,0c-0.2,0-0.2,0.2-0.2,0.2c0,0.2-0.2,0.2-0.2,0.3c0,0,0,0.2,0.2,0.2c0,0,0.2,0,0.3,0
						c0.2,0,0.2,0,0.3,0c0.2,0,0.2,0,0.3,0s0.2,0,0.3,0.2c0,0.2,0.2,0.2,0.2,0.5c0,0.2,0,0.2,0,0.3s-0.2,0.2-0.2,0.3
						c0,0.2-0.2,0.2-0.2,0.3c-0.2,0.2-0.2,0.2-0.3,0.3v0.5l-0.6,0.3C240.1,186.3,240.1,185.7,240.1,185.7z"/>
					<path class="st17" d="M242.5,181.3v3l-0.6,0.3v-2.1l-0.3,0.3l-0.3-0.3l0.6-0.9L242.5,181.3z"/>
					<path class="st17" d="M243.8,180.6v3l-0.6,0.3v-2.1l-0.3,0.3l-0.3-0.3l0.6-0.9L243.8,180.6z"/>
					<path class="st17" d="M245.3,180.6c0.2,0,0.2-0.2,0.3-0.2h0.2c0,0,0.2,0,0.2,0.2c0-0.2,0.2-0.2,0.2-0.3l0.2-0.2l0.2-0.2
						c0.2-0.2,0.3-0.2,0.5,0c0.2,0.2,0.2,0.3,0.2,0.6v1.4l-0.6,0.3v-1.4c0-0.2,0-0.2-0.2-0.3h-0.2l-0.2,0.2c0,0.2-0.2,0.2-0.2,0.3
						v1.4l-0.6,0.3v-1.2c0-0.2,0-0.2-0.2-0.3h-0.2l-0.2,0.2c0,0.2-0.2,0.2-0.2,0.3v1.2l-0.6,0.3V181l0.5-0.3l0.2,0.2l0.2-0.2
						l0.2-0.2C245.2,180.7,245.2,180.6,245.3,180.6z"/>
					<path class="st17" d="M249.1,178.5l-0.6,1.4l0.6,0.8l-0.6,0.3l-0.3-0.5l-0.3,0.9l-0.8,0.3l0.6-1.5l-0.6-0.8l0.6-0.3l0.3,0.5
						l0.3-0.8L249.1,178.5z"/>
					<path class="st17" d="M250.3,177.7c0.2,0,0.2-0.2,0.3-0.2s0.2,0,0.3,0l0.2,0.2c0,0.2,0,0.2,0,0.3v1.2l-0.6,0.3v-1.2
						c0-0.2,0-0.3-0.2-0.3c0,0-0.2,0-0.3,0s-0.2,0.2-0.3,0.3c0,0.2-0.2,0.3-0.2,0.5v1.2l-0.6,0.3v-2.1l0.5-0.3l0.2,0.2l0.2-0.2
						l0.2-0.2C250.2,177.9,250.2,177.7,250.3,177.7z"/>
				</g>
				<g id="Group" transform="translate(147.5 492)">
					<g id="Rectangle_Copy_3">
						<polygon class="st4" points="77.8,-304.6 88.2,-310.3 88.2,-298.4 77.8,-292.5 						"/>
						<polygon class="st19" points="77.9,-304.5 88,-310 88,-298.6 77.9,-292.8 						"/>
					</g>
					<g id="Group_2" transform="translate(24 23)">
						<path id="Rectangle_Copy_4" class="st16" d="M58.2-324.3l1.7-0.9c0.2-0.2,0.3,0,0.3,0.2l0,0c0,0.2-0.2,0.3-0.3,0.5l-1.7,0.9
							c-0.2,0.2-0.3,0-0.3-0.2l0,0C57.9-324,58-324.3,58.2-324.3z"/>
						<path id="Rectangle_Copy_5" class="st16" d="M59.2-325.7v2c0,0.2-0.2,0.3-0.3,0.5l0,0c-0.2,0.2-0.3,0-0.3-0.2v-2
							c0-0.2,0.2-0.3,0.3-0.5l0,0C59.1-326,59.2-325.8,59.2-325.7z"/>
					</g>
				</g>
				<g id="Group-2" transform="translate(29.5 492)">
					<g id="Rectangle_Copy_3-2">
						<polygon class="st4" points="175.9,-293.1 186.1,-299 186.1,-287.1 175.9,-281.2 						"/>
						<polygon class="st19" points="176,-293.1 186,-298.7 186,-287.3 176,-281.5 						"/>
					</g>
					<g id="Group_2-2" transform="translate(24 23)">
						<path id="Rectangle_Copy_4-2" class="st16" d="M156.1-313l1.7-0.9c0.2-0.2,0.3,0,0.3,0.2l0,0c0,0.2-0.2,0.3-0.3,0.5l-1.7,0.9
							c-0.2,0.2-0.3,0-0.3-0.2l0,0C155.9-312.7,155.9-312.8,156.1-313z"/>
					</g>
				</g>
				<path id="Fill_1-2" class="st4" d="M204.3,109.2l0.3-0.6l-0.9-0.6l0.9-1.7l-0.3-0.2l-1.2,2.3L204.3,109.2z"/>
				<g class="st15">
					<path class="st17" d="M227.8,153L227.8,153l-0.3-0.3l-0.9,0.5l-0.3,0.6l-0.2,0.2l0.8-2.7h0.2L227.8,153z M226.9,151.5l-0.5,1.4
						l0.8-0.5L226.9,151.5z"/>
					<path class="st17" d="M228.6,152.5c-0.2,0-0.2,0.2-0.3,0.2h-0.2c0,0-0.2,0-0.2-0.2v-0.2c0-0.2,0-0.2,0-0.3
						c0-0.2,0.2-0.2,0.2-0.3s0.2-0.2,0.2-0.2h-0.2c0,0,0,0-0.2-0.2v-0.2c0-0.2,0-0.2,0-0.3c0-0.2,0-0.2,0.2-0.3
						c0-0.2,0.2-0.2,0.2-0.2l0.2-0.2c0.2,0,0.2,0,0.2,0h0.2c0,0,0.2,0,0.2,0.2v0.2c0,0.2,0,0.2,0,0.3c0,0.2,0,0.2-0.2,0.2l-0.2,0.2
						h0.2c0,0,0.2,0,0.2,0.2c0,0,0,0.2,0,0.3c0,0.2,0,0.2,0,0.3S228.9,152.2,228.6,152.5C228.8,152.5,228.6,152.5,228.6,152.5
						C228.8,152.5,228.6,152.5,228.6,152.5z M228.1,152.2L228.1,152.2c0,0.2,0,0.3,0.2,0.3h0.2h0.2l0.2-0.2l0.2-0.2
						c0,0,0-0.2,0.2-0.2v-0.2v-0.2c0,0,0-0.2-0.2-0.2h-0.2h-0.2l-0.2,0.2l-0.2,0.2C228.3,151.9,228.3,152.1,228.1,152.2
						C228.1,152.1,228.1,152.1,228.1,152.2z M228.1,151.2L228.1,151.2C228.1,151.3,228.1,151.3,228.1,151.2c0.2,0.2,0.2,0.2,0.3,0.2
						h0.2c0,0,0.2,0,0.2-0.2s0.2-0.2,0.2-0.2s0-0.2,0.2-0.2v-0.2v-0.2c0,0,0,0-0.2-0.2c0,0,0,0-0.2,0h-0.2c0,0-0.2,0-0.2,0.2
						l-0.2,0.2c0,0,0,0.2-0.2,0.2C228.1,151,228.1,151,228.1,151.2z"/>
					<path class="st17" d="M230.9,151.2L230.9,151.2l-0.3-0.3l-0.9,0.5l-0.2,0.8l-0.2,0.2l0.8-2.7h0.2L230.9,151.2z M230.1,149.8
						l-0.5,1.4l0.8-0.5L230.1,149.8z"/>
					<path class="st17" d="M232.5,149.2c0,0.2,0,0.3,0,0.5c0,0.2-0.2,0.3-0.2,0.5c-0.2,0.2-0.2,0.3-0.3,0.5
						c-0.2,0.2-0.3,0.2-0.3,0.3l-0.5,0.3v-2.3l0.5-0.3c0.2,0,0.3-0.2,0.3-0.2c0.2,0,0.2,0,0.3,0c0.2,0,0.2,0.2,0.2,0.3
						C232.5,148.9,232.5,149.1,232.5,149.2z M231.6,150.7c0.2,0,0.2-0.2,0.3-0.3c0.2-0.2,0.2-0.2,0.3-0.3c0-0.2,0.2-0.3,0.2-0.5
						c0-0.2,0-0.3,0-0.5c0-0.2,0-0.3,0-0.3c0-0.2-0.2-0.2-0.2-0.2s-0.2,0-0.3,0c-0.2,0-0.2,0-0.3,0.2l-0.3,0.2v2L231.6,150.7z"/>
					<path class="st17" d="M233.4,149.8c-0.2,0-0.2,0.2-0.3,0.2H233l-0.2-0.2c0,0,0-0.2,0-0.3c0,0,0-0.2,0-0.3s0-0.2,0-0.2
						c0-0.2,0-0.2,0.2-0.2l0.6-1.2l0.2-0.2l-0.5,1.1l0,0l0,0c0,0,0,0,0.2,0s0.2-0.2,0.3-0.2c0.2,0,0.2,0,0.2,0l0.2,0.2
						c0,0,0,0.2,0,0.3s0,0.2,0,0.3c0,0.2-0.2,0.2-0.2,0.3c0,0.2-0.2,0.2-0.2,0.3C233.6,149.7,233.6,149.8,233.4,149.8z M233.4,149.7
						L233.4,149.7l0.3-0.3c0,0,0.2-0.2,0.2-0.3s0-0.2,0-0.3c0-0.2,0-0.2,0-0.2s0-0.2-0.2-0.2h-0.2h-0.2l-0.2,0.2l-0.2,0.2
						c0,0.2-0.2,0.2-0.2,0.3s0,0.2,0,0.3c0,0.2,0,0.2,0,0.2s0,0.2,0.2,0.2H233.4C233.3,149.7,233.4,149.7,233.4,149.7z"/>
					<path class="st17" d="M235.1,148.8L235.1,148.8l-0.9-1.7l0.2-0.2L235.1,148.8l0.5-2.6l0.2-0.2L235.1,148.8z"/>
					<path class="st17" d="M236.6,148c-0.2,0-0.2,0.2-0.3,0.2h-0.2c0,0-0.2,0-0.2-0.2v-0.2c0-0.2,0-0.2,0-0.3c0-0.2,0.2-0.2,0.2-0.3
						c0-0.2,0.2-0.2,0.2-0.2h-0.2c0,0,0,0-0.2-0.2v-0.2c0-0.2,0-0.2,0-0.3s0-0.2,0.2-0.3c0-0.2,0.2-0.2,0.2-0.2l0.2-0.2
						c0.2,0,0.2,0,0.2,0h0.2c0,0,0.2,0,0.2,0.2v0.2c0,0.2,0,0.2,0,0.3c0,0.2,0,0.2-0.2,0.2l-0.2,0.2h0.2c0,0,0.2,0,0.2,0.2
						c0,0,0,0.2,0,0.3s0,0.2,0,0.3C236.9,147.7,236.9,147.7,236.6,148C236.7,148,236.6,148,236.6,148
						C236.7,147.9,236.7,148,236.6,148z M236.1,147.6L236.1,147.6c0,0.2,0,0.3,0.2,0.3h0.2h0.2l0.2-0.2l0.2-0.2c0,0,0-0.2,0.2-0.2
						v-0.2v-0.2c0,0,0-0.2-0.2-0.2h-0.2h-0.2l-0.2,0.2l-0.2,0.2C236.3,147.3,236.3,147.4,236.1,147.6L236.1,147.6z M236.3,146.5
						C236.3,146.5,236.3,146.6,236.3,146.5C236.3,146.6,236.3,146.6,236.3,146.5c0.2,0.2,0.2,0.2,0.3,0.2h0.2c0,0,0.2,0,0.2-0.2
						l0.2-0.2c0,0,0-0.2,0.2-0.2V146v-0.2c0,0,0,0-0.2-0.2c0,0,0,0-0.2,0h-0.2c0,0-0.2,0-0.2,0.2l-0.2,0.2c0,0,0,0.2-0.2,0.2
						C236.3,146.3,236.3,146.5,236.3,146.5z"/>
				</g>
				<g>
					<g>
						<g>
							<g id="Group_13" transform="translate(29.5 572.5)">
								<path id="Rectangle-4" class="st16" d="M176.6-358.4l51.9-29.4c0.5-0.3,0.9,0,0.9,0.5v9.8c0,0.6-0.5,1.2-0.9,1.5l-51.9,29.4
									c-0.5,0.3-0.9,0-0.9-0.5v-9.8C175.9-357.5,176.2-358.1,176.6-358.4z"/>
								<g class="st15">
									<path class="st4" d="M190.8-360.4c0.2-0.2,0.3-0.2,0.3-0.3c0.2-0.2,0.2-0.3,0.2-0.5l0.6-0.3c0,0.2,0,0.3-0.2,0.5
										c0,0.2-0.2,0.3-0.3,0.5c-0.2,0.2-0.2,0.3-0.3,0.5c-0.2,0.2-0.3,0.2-0.5,0.3c-0.2,0.2-0.3,0.2-0.5,0.2c-0.2,0-0.3,0-0.3-0.2
										c-0.2,0-0.2-0.2-0.3-0.3c0-0.2-0.2-0.3-0.2-0.5c0-0.2,0-0.5,0.2-0.6c0-0.2,0.2-0.5,0.3-0.6c0.2-0.2,0.3-0.3,0.3-0.5
										c0.2-0.2,0.3-0.3,0.5-0.3c0.2-0.2,0.3-0.2,0.5-0.2s0.2,0,0.3,0c0.2,0,0.2,0.2,0.3,0.2c0,0.2,0.2,0.2,0.2,0.3l-0.6,0.3v-0.2
										c0,0,0,0-0.2,0H191h-0.2c-0.2,0-0.2,0.2-0.3,0.2c0,0.2-0.2,0.2-0.2,0.3s-0.2,0.2-0.2,0.3c0,0.2,0,0.2,0,0.3s0,0.2,0,0.3
										s0.2,0.2,0.2,0.2h0.2C190.5-360.2,190.7-360.2,190.8-360.4z"/>
									<path class="st4" d="M192-361.4c0-0.2,0-0.3,0-0.5c0-0.2,0.2-0.3,0.2-0.5c0.2-0.2,0.2-0.3,0.3-0.3c0.2-0.2,0.2-0.2,0.3-0.3
										c0.2,0,0.3-0.2,0.3-0.2c0.2,0,0.2,0,0.3,0c0.2,0,0.2,0.2,0.2,0.2c0,0.2,0,0.2,0,0.3s0,0.3,0,0.5c0,0.2-0.2,0.3-0.2,0.5
										c-0.2,0.2-0.2,0.3-0.3,0.3c-0.2,0.2-0.2,0.2-0.3,0.3c-0.2,0-0.3,0.2-0.3,0.2c-0.2,0-0.2,0-0.3,0c-0.2,0-0.2-0.2-0.2-0.2
										S192-361.3,192-361.4z M193.2-362.2c0-0.2,0-0.3-0.2-0.3c0,0-0.2,0-0.3,0c-0.2,0-0.2,0.2-0.3,0.3c0,0.2-0.2,0.3-0.2,0.5
										c0,0.2,0,0.3,0.2,0.3c0,0,0.2,0,0.3,0c0.2,0,0.2-0.2,0.3-0.3C193.2-361.9,193.2-362,193.2-362.2z"/>
									<path class="st4" d="M194.9-364.1c0.2,0,0.2-0.2,0.2-0.2h0.2h0.2l0.2-0.2l0.2-0.2l0.2-0.2c0.2-0.2,0.3-0.2,0.5,0
										c0.2,0.2,0.2,0.3,0.2,0.5v1.2l-0.5,0.3v-1.1c0-0.2,0-0.2,0-0.2h-0.2l-0.2,0.2c0,0.2,0,0.2,0,0.3v1.1l-0.5,0.3v-1.1
										c0-0.2,0-0.2,0-0.2H195l-0.2,0.2c0,0.2,0,0.2,0,0.3v1.1l-0.5,0.3v-2l0.3-0.2l0.2,0.2c0,0,0-0.2,0.2-0.2l0.2-0.2
										C194.7-364,194.9-364,194.9-364.1z"/>
									<path class="st4" d="M197.7-365.7c0.2,0,0.2-0.2,0.3-0.2c0.2,0,0.2,0,0.3,0l0.2,0.2c0,0.2,0,0.2,0,0.3s0,0.3,0,0.5
										c0,0.2-0.2,0.3-0.2,0.5c0,0.2-0.2,0.3-0.3,0.3c-0.2,0.2-0.2,0.2-0.3,0.3c0,0-0.2,0-0.2,0.2h-0.2h-0.2v0.9l-0.5,0.3v-2.7
										l0.3-0.2l0.2,0.2l0.2-0.2L197.7-365.7C197.6-365.7,197.7-365.7,197.7-365.7z M198-364.9c0-0.2,0-0.3-0.2-0.3
										c0,0-0.2,0-0.3,0c-0.2,0-0.2,0.2-0.3,0.3c0,0.2-0.2,0.3-0.2,0.5c0,0.2,0,0.3,0.2,0.3c0,0,0.2,0,0.3,0
										c0.2,0,0.2-0.2,0.3-0.3C198-364.6,198-364.7,198-364.9z"/>
									<path class="st4" d="M199.7-366.9L199.7-366.9C199.9-366.9,199.9-366.9,199.7-366.9C199.9-366.9,199.9-366.9,199.7-366.9
										l0.2,0.6l0,0l0,0l0,0c-0.2,0-0.2,0.2-0.3,0.3c0,0.2-0.2,0.2-0.2,0.3v1.1l-0.5,0.3v-2l0.3-0.2l0.2,0.2c0,0,0-0.2,0.2-0.2
										l0.2-0.2C199.6-366.7,199.7-366.9,199.7-366.9z"/>
									<path class="st4" d="M200.9-367.5c0.2,0,0.2-0.2,0.3-0.2c0.2,0,0.2,0,0.2,0l0.2,0.2c0,0.2,0,0.2,0,0.3v1.2l-0.3,0.2v-0.2
										l-0.2,0.2l-0.2,0.2l-0.2,0.2c-0.2,0.2-0.3,0.2-0.5,0.2c-0.2,0-0.2-0.2-0.2-0.3s0-0.2,0-0.3s0.2-0.2,0.2-0.3
										c0.2-0.2,0.2-0.2,0.3-0.3c0.2-0.2,0.3-0.2,0.5-0.3c0-0.2,0-0.2,0-0.2h-0.2c0,0-0.2,0-0.2,0.2c0,0,0,0,0,0.2v0.2l-0.5,0.3
										c0-0.2,0-0.2,0.2-0.3c0.2-0.2,0.2-0.2,0.2-0.3s0.2-0.2,0.2-0.3C200.6-367.3,200.8-367.5,200.9-367.5z M200.8-365.8
										c0.2,0,0.2-0.2,0.3-0.3c0-0.2,0.2-0.2,0.2-0.3v-0.2c-0.2,0-0.2,0.2-0.3,0.2l-0.2,0.2c0,0,0,0.2-0.2,0.2v0.2v0.2
										C200.6-365.8,200.8-365.8,200.8-365.8z"/>
									<path class="st4" d="M202.7-368.5C202.9-368.5,202.9-368.5,202.7-368.5C202.9-368.7,202.9-368.7,202.7-368.5
										C202.9-368.7,202.9-368.7,202.7-368.5l0.2,0.6l0,0l0,0l0,0c-0.2,0-0.2,0.2-0.3,0.3c0,0.2-0.2,0.2-0.2,0.3v1.1L202-366v-2
										l0.3-0.2v0.2c0,0,0-0.2,0.2-0.2l0.2-0.2C202.7-368.5,202.7-368.5,202.7-368.5z"/>
									<path class="st4" d="M204.7-367.6c-0.2,0.2-0.3,0-0.5,0c-0.2-0.2-0.2-0.3-0.2-0.5l0.5-0.3c0,0.3,0.2,0.3,0.3,0.2
										c0.2,0,0.2-0.2,0.3-0.2c0-0.2,0.2-0.2,0.2-0.3c0,0,0-0.2-0.2-0.2H205c-0.2,0-0.2,0-0.3,0c-0.2,0-0.2,0-0.3,0
										c-0.2,0-0.2,0-0.2-0.2c0,0-0.2-0.2-0.2-0.3c0-0.2,0-0.2,0-0.3s0-0.2,0.2-0.3c0-0.2,0.2-0.2,0.2-0.3s0.2-0.2,0.3-0.3v-0.3
										l0.5-0.3v0.5c0.2,0,0.2,0,0.3,0c0,0,0.2,0,0.2,0.2l0.2,0.2c0,0,0,0.2,0,0.3l-0.5,0.3c0-0.2,0-0.2-0.2-0.2
										c-0.2,0-0.2,0-0.2,0c-0.2,0-0.2,0.2-0.2,0.2c0,0.2-0.2,0.2-0.2,0.2s0,0.2,0.2,0.2h0.2c0.2,0,0.2,0,0.3,0c0.2,0,0.2,0,0.3,0
										c0.2,0,0.2,0,0.2,0.2c0,0,0.2,0.2,0.2,0.3s0,0.2,0,0.3s0,0.2-0.2,0.3c0,0.2-0.2,0.2-0.2,0.3c-0.2,0.2-0.2,0.2-0.3,0.3v0.3
										l-0.5,0.3v-0.5L204.7-367.6L204.7-367.6z"/>
									<path class="st4" d="M207.6-369.9v0.6l-1.7,0.9v-0.5l0.9-1.5c0,0,0-0.2,0.2-0.2v-0.2v-0.2c0-0.2,0-0.2,0-0.2h-0.2
										c-0.2,0-0.2,0.2-0.2,0.2c0,0.2-0.2,0.2-0.2,0.3l-0.5,0.3c0-0.2,0-0.3,0-0.3c0-0.2,0.2-0.3,0.2-0.3c0-0.2,0.2-0.2,0.3-0.3
										c0.2-0.2,0.2-0.2,0.3-0.3c0.2,0,0.3-0.2,0.3-0.2c0.2,0,0.2,0,0.3,0l0.2,0.2c0,0.2,0,0.2,0,0.3s0,0.2,0,0.3
										s-0.2,0.2-0.2,0.3s-0.2,0.2-0.2,0.3l-0.5,0.8L207.6-369.9z"/>
									<path class="st4" d="M209.5-370.9v0.6l-1.7,0.9v-0.5l0.9-1.5c0,0,0-0.2,0.2-0.2v-0.2v-0.2c0-0.2,0-0.2,0-0.2h-0.2
										c-0.2,0-0.2,0.2-0.2,0.2c0,0.2-0.2,0.2-0.2,0.3l-0.6,0.3c0-0.2,0-0.3,0-0.3c0-0.2,0.2-0.3,0.2-0.3c0-0.2,0.2-0.3,0.3-0.3
										c0.2-0.2,0.2-0.2,0.3-0.3c0.2,0,0.3-0.2,0.3-0.2c0.2,0,0.2,0,0.3,0l0.2,0.2c0,0.2,0,0.2,0,0.3s0,0.2,0,0.3
										s-0.2,0.2-0.2,0.3s-0.2,0.2-0.2,0.3l-0.5,0.8L209.5-370.9z"/>
									<path class="st4" d="M210.7-373c0.2,0,0.2-0.2,0.2-0.2h0.2h0.2l0.2-0.2l0.2-0.2l0.2-0.2c0.2-0.2,0.3-0.2,0.5,0
										s0.2,0.3,0.2,0.5v1.2l-0.5,0.3v-1.1c0-0.2,0-0.2,0-0.2h-0.2l-0.2,0.2c0,0.2,0,0.2,0,0.3v1.1l-0.5,0.3v-1.1
										c0-0.2,0-0.2,0-0.2h-0.2l-0.2,0.2c0,0.2,0,0.2,0,0.3v1.1l-0.5,0.3v-2l0.3-0.2v0.2c0,0,0-0.2,0.2-0.2l0.2-0.2
										C210.6-372.9,210.6-373,210.7-373z"/>
									<path class="st4" d="M214.2-375l-0.5,1.2l0.6,0.8l-0.6,0.3l-0.3-0.5l-0.3,0.8l-0.6,0.3l0.6-1.4l-0.5-0.6l0.6-0.3l0.3,0.5
										l0.3-0.8L214.2-375z"/>
									<path class="st4" d="M215.2-375.6c0.2,0,0.2-0.2,0.3-0.2c0.2,0,0.2,0,0.2,0l0.2,0.2c0,0,0,0.2,0,0.3v1.2l-0.5,0.3v-1.1
										c0-0.2,0-0.2-0.2-0.3c0,0-0.2,0-0.3,0c-0.2,0-0.2,0.2-0.3,0.3c0,0.2-0.2,0.2-0.2,0.3v1.1l-0.5,0.3v-2l0.3-0.2l0.2,0.2
										l0.2-0.2l0.2-0.2C215.1-375.6,215.2-375.6,215.2-375.6z"/>
								</g>
							</g>
						</g>
					</g>
				</g>
			</g>
		</g>
	</g>
</g>
<g>
	<path class="st1" d="M216.1,86.8L246.7,69c1.1-0.6,2.3,0.2,2.3,1.4v7.8c0,0.6-0.3,1.1-0.8,1.4l-30.8,17.7c-1.1,0.6-2.3-0.2-2.3-1.4
		V88C215.3,87.5,215.5,86.9,216.1,86.8z"/>
</g>
</svg>
