<?xml version="1.0" encoding="utf-8"?>
<!-- Generator: Adobe Illustrator 24.0.0, SVG Export Plug-In . SVG Version: 6.00 Build 0)  -->
<svg version="1.1" id="Layer_1" xmlns="http://www.w3.org/2000/svg" xmlns:xlink="http://www.w3.org/1999/xlink" x="0px" y="0px"
	 width="300px" height="300px" viewBox="0 0 300 300" style="enable-background:new 0 0 300 300;" xml:space="preserve">
<style type="text/css">
	.st0{fill:#E5E6E6;}
	.st1{fill:#15556E;}
	.st2{fill:#C35D28;}
	.st3{fill:#5A6A2F;}
	.st4{fill:#475024;}
	.st5{fill:#DC6A26;}
	.st6{fill:#EEC6AE;}
	.st7{fill:#CDA08A;}
	.st8{fill:#271811;}
	.st9{fill:#603917;}
	.st10{fill:#C1976B;}
	.st11{fill:#757F4A;}
	.st12{fill:#EC7927;}
	.st13{fill:#E2BDA4;}
	.st14{fill:#BE1E2D;}
</style>
<g>
	<ellipse class="st0" cx="148.6" cy="243.6" rx="69.3" ry="27.7"/>
	<g>
		<path class="st1" d="M110.6,234.4c0,0,0,6.9-0.4,21.5c11.1,3,24.5,4.8,38.9,4.8c14.9,0,28.7-1.9,40-5.1
			c-0.1-9.9-0.1-16.3-0.1-16.3L110.6,234.4z"/>
		<path class="st2" d="M138.2,93.1c-23.2,5.3-51,27.2-59.9,34.9c-8.4,7.2-7,20.4,5.6,22.2c12.1,1.8,50.6-15.9,53-25.6
			C140.1,111.7,138.2,93.1,138.2,93.1z"/>
		<path class="st3" d="M193,217.5c0,0,17.9,2.8,26.6-1.3c8.7-4.1,18.9-11.8,16.6-26.1c-2.2-14.2-7.2-27.5-7.2-27.5l6-0.9
			c0,0-5.3-36.7-9.9-42.7c-4.6-6-14.6-7.4-21.1-8.8c-6.4-1.4-32.1-5.7-32.1-5.7S177,202.3,193,217.5z"/>
		<path class="st4" d="M209.4,134.6c0.3,0.8,13.1-1.9,13.1-1.9l6.5,29.9l3.5-1.4c0,0-4.8-28.2-8-35.3s-8.7-9.3-11.7-6.6
			C209.7,122.1,208.8,133.3,209.4,134.6z"/>
		<path class="st5" d="M110.4,237.2c0,0,34.5,17.9,78.5,3.2c3.9-35.5,7.1-110.7,7.1-115.9s-22.4-20-28.6-21.3
			c-6.3-1.3-29.5-10.1-38-8c-8.9,2.1-18.6,32.9-17.5,49.9C112.7,160.1,110.4,237.2,110.4,237.2z"/>
		<path class="st6" d="M166.7,88.5c0,0,1.2,11.1,0.7,14.7s-6.2,12.6-18.4,10.4c-12.2-2.2-9.2-3.2-8.7-8s1.5-14.6,1.5-14.6
			L166.7,88.5z"/>
		<path class="st7" d="M142.6,95.5c0,0,22.1-15.5,24.1-18.3c0.5,6.4,0.8,22.3,0.8,22.3S150.5,103.4,142.6,95.5z"/>
		<g>
			<path class="st6" d="M145.5,98.4l4.3-0.3c14.4-1,23.5-24,22.9-38.4l-0.6-22.2l-54,3.4l2,32.4C121.1,88.1,130.7,99.5,145.5,98.4z"
				/>
			<path class="st6" d="M168,71.4L168,71.4c4.3-0.3,7.6-4,7.4-8.3l-0.4-9.5l-16.2,1l0.6,9.3C159.7,68.4,163.5,71.7,168,71.4z"/>
		</g>
		<path class="st8" d="M119.2,52.2c-1.7-2.9-3.7-7.3-3.6-11.5s1.3-8.8,5.4-11s6.9-5,10.1-7.5c3.3-2.5,6.8-0.1,7.9-1.6
			c1-1.6,2.8-4,2.8-4s0.7,4.9,3.3,4.3c2.6-0.5,3.2-3.2,5.8-4.2c2.6-0.9-0.9,3.5,2.5,4c3.4,0.5,7.4,2.6,12.4,4.5
			c5.1,2,12,9.9,12.9,18.1s0.9,13.6,0,17.8s-13.2,24.7-14.5,22.9c-1-3.4-0.4-6.4-0.4-6.4s7.5-7.7,6.4-12.9c-1.1-5.2-7.2-5.2-8.4-1.7
			c-1.3,3.5-1.8,8.1-1.8,8.1l-4.2,0.3c0,0-0.8-12.8-2.5-16.1c-1.7-3.3-6.8-5.8-7.7-5.6s-1.9,2.1-1.4,3.8c-2.3,0.8-3.7-2.1-3.5-4.1
			c0.2-2-0.7-3.9-2.2-3.8s-2.4,2.9-1.9,4.4c-2.1,0.4-3.1-3.2-3.1-5s-3.9-4-8.1-3.8c-4.1,0.3-6.2,1.8-5.9,4.1
			C119.8,47.6,119.2,52.2,119.2,52.2z"/>
		<g>
			<path class="st9" d="M110.5,231c0,0,34.5,17.9,78.5,3.2l-0.2,11c0,0-21.1,7.1-43.8,4.7c-21.5-2.2-35-7.7-35-7.7L110.5,231z"/>
			<g>
				<polygon class="st10" points="118.6,245.1 115,244.1 115,233 118.6,233.9 				"/>
				<polygon class="st10" points="170.4,249.2 166.8,250.1 166.8,238.9 170.5,238.1 				"/>
				<polygon class="st10" points="146.4,250 135.9,248.9 135.9,237.7 146.4,238.8 				"/>
			</g>
		</g>
		<path class="st11" d="M191.6,117.5c-1.8,0.4-27.1,8.6-27.2,33.8s29.6,48.7,29.6,48.7l-1,17.4c0,0-41.6-32.3-41-66.7
			c0.6-34.4,30.9-40.2,30.9-40.2L191.6,117.5z"/>
		<path class="st12" d="M185.4,123.6c8.9-2.2,15.6,1.6,18.3,9.8s11.8,54.7,11.8,63.7s-13.7,8.5-19.2,6.2
			c-5.5-2.4-39.7-32.6-34.6-35.3s9.4-6.2,11-8.5c1.6-2.3,10.5,4.3,10.5,4.3s-5.4-18-6.1-22.7S174.5,126.3,185.4,123.6z"/>
		<path class="st6" d="M176.3,159.9c0,0-7.6-12.3-10.4-15.4c-2.7-3.1-9.8-2.1-12.1-0.6c-2.3,1.5-6.1,5.4-2.8,12.2
			c3.4,6.9,13.9,16.6,13.9,16.6S174,171.6,176.3,159.9z"/>
		<path class="st13" d="M109.4,83c0,0,7-10.1,9.1-12.9c2.2-2.8,8.3-2.4,10.4-1.2c2.1,1.2,5.6,4.3,3.1,10.4S122.5,95,122.5,95
			S112,93,109.4,83z"/>
		<path class="st12" d="M71.6,137.3c-0.7-11.5,34.3-53,37.6-55.5c3.3-2.5,14.6,1.9,14.5,12s-20.8,45.3-31.2,53
			C82.2,154.5,72.2,147.4,71.6,137.3z"/>
	</g>
</g>
<g>
	<path class="st14" d="M250.7,42.5l-15.8,15.8L250,73.5l-4.7,4.7l-15.1-15.1l-16,16l-5-5l16-16l-15.1-15.1l4.7-4.7l15.1,15.1
		l15.8-15.8L250.7,42.5z"/>
</g>
</svg>
