<?xml version="1.0" encoding="utf-8"?>
<!-- Generator: Adobe Illustrator 24.0.0, SVG Export Plug-In . SVG Version: 6.00 Build 0)  -->
<svg version="1.1" id="Layer_1" xmlns="http://www.w3.org/2000/svg" xmlns:xlink="http://www.w3.org/1999/xlink" x="0px" y="0px"
	 width="300px" height="300px" viewBox="0 0 300 300" style="enable-background:new 0 0 300 300;" xml:space="preserve">
<style type="text/css">
	.st0{fill:none;}
	.st1{fill:#BABCBE;}
	.st2{fill:#E5E6E6;}
	.st3{fill:#F2F2F2;}
	.st4{fill:#E6E6E6;}
	.st5{fill:#626566;}
	.st6{fill:#465E67;}
	.st7{fill:#FFFFFF;}
	.st8{fill:#C8D6DD;}
	.st9{fill:#D47733;}
	.st10{fill:#4C4B4E;}
	.st11{fill:#727170;}
	.st12{fill:#809D99;}
	.st13{fill:#4C6775;}
	.st14{fill:#7095A1;}
	.st15{fill:#49BEAF;}
	.st16{fill:#2E887F;}
	.st17{fill:#006B71;}
	.st18{fill:#82CEC8;}
	.st19{fill:#6A9AA3;}
	.st20{fill:#BE1E2D;}
	.st21{fill:#2C2D2D;}
	.st22{fill:#CCCCCC;}
	.st23{fill:#999999;}
	.st24{fill:#ECEAD3;}
	.st25{opacity:0.9;fill:#EFF9FE;}
</style>
<g>
	<polygon class="st0" points="254,83.6 254.2,83.5 254,83.6 	"/>
	<path class="st1" d="M89.5,245.8c0.1,0,0.3,0,0.4,0C89.8,245.8,89.7,245.8,89.5,245.8z"/>
	<path class="st1" d="M93,245.3c0.1,0,0.1,0,0.2,0C93.1,245.3,93,245.3,93,245.3z"/>
	<path class="st1" d="M95.8,244.5c0.1,0,0.2-0.1,0.3-0.1C96,244.4,95.9,244.5,95.8,244.5z"/>
	<path class="st1" d="M94.5,244.9c0.1,0,0.2-0.1,0.4-0.1C94.7,244.8,94.6,244.9,94.5,244.9z"/>
	<path class="st1" d="M91.2,245.6c0.2,0,0.3,0,0.5-0.1C91.5,245.6,91.4,245.6,91.2,245.6z"/>
	<path class="st2" d="M132.2,234.1l78-44.1c1.8,3.9,5.7,5.5,10.5,4.3c-33.2,19.1-74.3,42.6-98.1,56.3
		C127.7,246.5,131.5,240,132.2,234.1z"/>
	<path class="st2" d="M25.4,213c4-4.3,12.8-8.1,13.8-10c1-1.9,1.7-12.7,2.4-16.8c0.7-4.1,1-8.3,8.7-12.8c1-0.6,4-2.3,8.4-4.8
		c-1.4,3.4-2.3,5.7-2.3,5.7S40.8,199.4,40.4,202c0,0.2-0.1,0.4-0.1,0.7c0,0.1,0,0.2-0.1,0.4c0,0.2-0.1,0.4-0.1,0.6
		c0,0.1,0,0.3-0.1,0.4c0,0.3-0.1,0.6-0.1,0.9c0,0.1,0,0.2,0,0.4c0,0.3-0.1,0.7-0.1,1c0,0.2,0,0.3-0.1,0.5c0,0.3-0.1,0.6-0.1,0.8
		c0,0.1,0,0.2,0,0.3c-0.1,0.9-0.2,1.7-0.4,2.5c0,0.2-0.1,0.5-0.1,0.7c0,0.1,0,0.2,0,0.3c0,0.2,0,0.3-0.1,0.5l0,0
		c-0.2,1.5-0.4,2.6-0.4,2.6c-0.9,1.6-1.3,13.9-0.2,16.2c1.2,2.3,9.8,8.6,14.5,11.5c4.7,2.8,20.3,10.6,29.2,12.7
		c8.9,2.1,17.4-2.5,17.4-2.5l4.7-2.6c1.8,4.6,6.5,6.3,12,4.4c-7.7,4.4-12.6,7.2-13.2,7.6c-3.5,2-10.2,6.6-17.2,2.7
		c-7-3.9-54.6-31.2-59.6-34.8C21.3,226.2,21.3,217.3,25.4,213z"/>
	<path class="st1" d="M39.5,217.3c-0.1-0.4-0.1-0.8-0.2-1.2C39.3,216.4,39.4,216.8,39.5,217.3z"/>
	<path class="st1" d="M83.5,245.6c0.7,0.1,1.5,0.2,2.2,0.2C85,245.8,84.3,245.8,83.5,245.6z"/>
	<path class="st1" d="M86.4,245.9c0.5,0,0.9,0,1.4,0C87.4,245.9,86.9,245.9,86.4,245.9z"/>
	<path class="st2" d="M237.8,174.4l16.2-9.1c1.1-1.4,5.9-10.5,5.9-10.5l-0.1-2.4l0-1.9h0c7.2,4.3,12.1,7.3,12.9,7.9
		c4.1,3,3.6,4.1-0.1,6.1c-1.2,0.7-19.2,11-43.1,24.8C233.9,185.2,237,179.7,237.8,174.4z"/>
	<polygon class="st3" points="254,83.5 149,144 97.9,114.4 203,53.9 254.2,83.5 254,83.6 	"/>
	<polygon class="st4" points="259.8,100 259.8,100 259.8,127.5 259.8,127.5 	"/>
	<path class="st4" d="M200,114.7L254,83.6l0,0l-18.5,10.8l-35.3,20.5C200.1,114.8,200,114.8,200,114.7z"/>
	<path class="st4" d="M87.9,245.9c0.6,0,1.1,0,1.6-0.1c0.1,0,0.3,0,0.4,0c0.4,0,0.8-0.1,1.2-0.2c0.2,0,0.3,0,0.5-0.1
		c0.4-0.1,0.9-0.2,1.3-0.3c0.1,0,0.1,0,0.2,0c0.5-0.1,0.9-0.2,1.3-0.4c0.1,0,0.2-0.1,0.4-0.1c0.3-0.1,0.6-0.2,0.9-0.3
		c0.1,0,0.2-0.1,0.3-0.1c0.4-0.1,0.7-0.3,1-0.4c2.8-1.2,4.8-2.7,4.8-2.7s2.3-11.2,12.2-17.4c9.5-6,16.3-2.9,18.7,1.3l56.6-32.1
		l-26.7-8c-1.3-0.4-1.9-1.7-1.5-3l4.6-12.8l-18.1,10.5l0-23.7l28.9-16.9l4.9-13.6l18.6-10.8c-0.1,0-0.2-0.1-0.3-0.1L149,144
		c0,0-22,14.2-27.6,30.7c-5.7,16.5-11.1,29.2-11.1,29.2s-13,12-15.8,15.5c0.5,1,0.6,4.1,0.4,5.4c-0.2,1.6-5.3,7.6-5.9,8.2
		c-0.3,0.3-0.7,0.7-1.2,1C87.9,239,87.9,245.6,87.9,245.9z M130.7,206c0.1-4.4,2.8-8.3,6.1-8.7c3.3-0.4,5.9,2.7,5.8,7.1
		c-0.1,4.4-6.2,14.9-6.2,14.9S130.7,210.4,130.7,206z M113.6,197.8l3.4-1.7v-3.9c0-0.7,0.5-1.3,1.2-1.5l1.5-0.3l6.4-17.8
		c0.9-2.5,2.6-4.6,4.8-6l13.2-8.2v23.5l-20.6,12v9.5c0,0.7-0.5,1.3-1.2,1.5l-3.6,0.7c-0.9,0.2-1.8-0.5-1.8-1.5V199l-1.7,0.9v1.5
		l-1.7,0.6V197.8z"/>
	<path class="st4" d="M168.2,181.6c0.2,0.1,0.3,0.2,0.5,0.2l26.7,8l0,0l-26.7-8C168.5,181.7,168.3,181.6,168.2,181.6z"/>
	<path class="st4" d="M167.1,179.3c-0.1,0.5,0,1,0.3,1.4C167.1,180.3,167,179.8,167.1,179.3z"/>
	<path class="st4" d="M250.8,159.7l1.1-0.6C251.6,159.3,251.2,159.5,250.8,159.7z"/>
	<polygon class="st4" points="187.6,122.3 187.6,122.3 182.7,135.7 182.7,135.7 	"/>
	<polygon class="st4" points="259.8,150.4 259.8,152.3 259.8,150.4 	"/>
	<path class="st4" d="M199.9,114.7L254,83.5l0,0.1L199.9,114.7C199.9,114.7,199.9,114.7,199.9,114.7z"/>
	<path class="st4" d="M149,144l50.9-29.3c0,0,0,0,0,0L149,144z"/>
	<path class="st5" d="M58.7,167.2c-0.7-0.1-1.2-0.8-1.2-1.5v-12c0-0.9,0.9-1.6,1.8-1.5l2.1,0.8c0.7,0.1,1.2,0.8,1.2,1.5v4.6
		c-1.2,2.9-2.4,5.8-3.4,8.2L58.7,167.2z"/>
	<path class="st6" d="M121.7,190l-2.1,0.4l6.4-17.8c0.9-2.5,2.6-4.6,4.8-6l13.2-8.2v23.5l-20.6,12v-2.5
		C123.5,190.5,122.7,189.8,121.7,190z"/>
	<path class="st5" d="M117,196.1v-3.9c0-0.7,0.5-1.3,1.2-1.5l1.5-0.3l-2.7,7.4V196.1z"/>
	<path class="st5" d="M123.5,194v9.5c0,0.7-0.5,1.3-1.2,1.5l-3.6,0.7c-0.9,0.2-1.8-0.5-1.8-1.5V199v-1.3L123.5,194z"/>
	<path class="st5" d="M119.7,190.4l2.1-0.4c0.9-0.2,1.8,0.5,1.8,1.5v2.5l-6.5,3.8L119.7,190.4z"/>
	<polygon class="st5" points="117,197.8 117,199 115.3,200 115.3,201.4 113.6,202 113.6,197.8 117,196.1 	"/>
	<path class="st3" d="M58.6,168.6c0.2-0.4,0.3-0.8,0.5-1.2l0.9,0.4C59.6,168.1,59.1,168.3,58.6,168.6z"/>
	<path class="st3" d="M79,131.8c-5.1,8.7-6.9,17.7-6.9,17.7c-0.3-0.2-0.6-0.3-0.9-0.5c-1.1-0.6-1.7-1-1.7-1l-6.9,16.4v-5.3
		c2.4-5.7,5.1-11.6,6.9-15.2c4.5-8.3,9-14.6,13-19.3s15.4-10.3,15.4-10.3S84.1,123,79,131.8z"/>
	<path class="st3" d="M60.8,168.1c0.1,0,0.2,0,0.3,0l-2.9,6.8l0,0v0c0,0,0,0,0,0.1c0,0,0,0,0,0c0,0,0.1,0.1,0.1,0.2
		c0,0,0.1,0.1,0.1,0.1c0.1,0.1,0.1,0.2,0.2,0.3c0,0.1,0.1,0.1,0.1,0.2c0.1,0.1,0.2,0.2,0.3,0.3c0.1,0.1,0.1,0.2,0.2,0.3
		c0.1,0.1,0.2,0.2,0.2,0.3c0,0,0,0,0.1,0.1c0,0-14,30.4-14.9,31.8c-0.9,1.4-0.7,11.1-0.8,17.4c-0.5-0.5-1-1-1.5-1.5
		c-2.1-2.2-2.6-5-2.9-7c-0.1-0.4-0.1-0.8-0.2-1.2c-0.1-0.9-0.3-1.5-0.6-1.5c0,0,0.2-1.1,0.4-2.6c0,0.2,1,1.2,1.2,1.6
		c0.2,0.3,2.6,2.7,3.3,2.1s0.5-5.3,0.3-6.2c-0.2-0.8-0.7-0.6-1.7-1.7c-1-1.1-1.8-5.7-1.8-5.7c0.4-2.6,15.9-27.7,15.9-27.7
		s0.9-2.3,2.3-5.7c0.5-0.3,0.9-0.5,1.4-0.8L60.8,168.1z"/>
	<path class="st3" d="M65.2,239c6.9,3,14.7,6.1,18.4,6.7c0.7,0.1,1.5,0.2,2.2,0.2c0.2,0,0.5,0,0.7,0c0.5,0,0.9,0,1.4,0
		c0,0,0.1,0,0.1,0c0-0.3,0-7,0-11.9c-0.5,0.3-1.1,0.5-1.7,0.5c-1.2-0.1-13.1-2.1-13.6-2.4c-0.5-0.3-1.2-0.7-0.9-1.2
		c0.3-0.5,3.2-4.5,3.2-4.5c0.3-0.4,1.6-0.3,2.3-0.2c0.7,0.1,8.5,0.1,9,0c0.5-0.1,3.5-3.3,4.3-4.1c1-1,2.9-2.9,3.7-3
		c0.1,0,0.3,0.1,0.4,0.3c2.9-3.6,15.8-15.5,15.8-15.5s5.4-12.7,11.1-29.2C127.1,158.2,149,144,149,144s-5.2,1.2-12,3.2
		s-22.6,14.4-25.4,24.6c0,0,0,0,0,0c3.9,2.2,6.5,3.7,6.5,3.8l-10.7,27.6c0,0-1.7-0.5-4.5-1.6l0,0c0,0-27.8,22.6-28.6,23.9
		C73.6,226.6,66.4,237.2,65.2,239z M136.5,151.9L136.5,151.9L136.5,151.9z"/>
	<path class="st3" d="M39.1,211.2c0,0.1,0,0.2,0,0.3C39.1,211.4,39.1,211.3,39.1,211.2z"/>
	<path class="st3" d="M39.6,207.9c-0.1,0.9-0.2,1.7-0.4,2.5C39.3,209.7,39.5,208.8,39.6,207.9z"/>
	<path class="st3" d="M40.3,203c0,0.2-0.1,0.4-0.1,0.6C40.2,203.4,40.2,203.2,40.3,203z"/>
	<path class="st3" d="M40.1,204c0,0.3-0.1,0.6-0.1,0.9C40,204.6,40.1,204.3,40.1,204z"/>
	<path class="st3" d="M39.9,205.3c0,0.3-0.1,0.7-0.1,1C39.9,206,39.9,205.6,39.9,205.3z"/>
	<path class="st3" d="M39.7,206.8c0,0.3-0.1,0.6-0.1,0.8C39.7,207.4,39.7,207.1,39.7,206.8z"/>
	<path class="st3" d="M40.4,202c0,0.2-0.1,0.4-0.1,0.7C40.4,202.4,40.4,202.2,40.4,202z"/>
	<path class="st3" d="M61.5,167c-0.5,0.3-1,0.6-1.4,0.8l-0.9-0.4c1-2.4,2.2-5.3,3.4-8.2v5.3L61.5,167z"/>
	<path class="st3" d="M60.8,168.1l-0.7-0.3c0.5-0.3,0.9-0.5,1.4-0.8l-0.5,1.1C60.9,168.1,60.8,168.1,60.8,168.1z"/>
	<path class="st7" d="M82,155.1c-0.8-0.5-1.6-0.9-2.4-1.4c-1.4-0.8-2.7-1.5-3.9-2.2c-0.5-0.3-1-0.6-1.5-0.8
		c-0.8-0.5-1.5-0.9-2.2-1.2c0,0,1.9-9,6.9-17.7c5.1-8.7,18.9-17.4,18.9-17.4l27.2,15.8C110.6,138.6,95.1,147.5,82,155.1z"/>
	<path class="st7" d="M137,147.2c-6.8,2.1-22.6,14.4-25.4,24.6c0,0,0,0,0,0c-6.1-3.5-15.7-8.9-24.1-13.7l0,0
		c-0.1-0.1-0.2-0.1-0.4-0.2c-0.1-0.1-0.2-0.1-0.3-0.2c-1.7-0.9-3.3-1.9-4.8-2.7c13.1-7.6,28.6-16.5,43.1-24.9L149,144
		C149,144,143.8,145.2,137,147.2z"/>
	<path class="st7" d="M59.6,176.6C59.6,176.6,59.6,176.6,59.6,176.6c0,0-14.1,30.4-15,31.8c-0.9,1.4-0.7,11.1-0.8,17.4
		c3.1,3.1,5.9,5.3,11.3,8.3c2.3,1.3,6,3.1,10,4.8c1.2-1.8,8.4-12.3,9.1-13.5c0.8-1.3,28.6-23.9,28.6-23.9l0,0
		c-5.3-2-14.6-5.9-25-11.6c-4-2.2-7.2-4.3-9.8-6.1c-1.3-0.9-2.4-1.8-3.4-2.6c-0.5-0.4-1-0.8-1.4-1.2c-0.2-0.2-0.4-0.4-0.7-0.6
		c0,0,0,0,0,0c-0.1-0.1-0.2-0.2-0.3-0.2c-0.2-0.2-0.4-0.4-0.6-0.6c-0.2-0.1-0.3-0.3-0.5-0.4c-0.2-0.1-0.3-0.3-0.4-0.4l0,0l0,0
		c0,0,0,0-0.1-0.1c-0.1-0.1-0.3-0.3-0.4-0.4c-0.2-0.2-0.3-0.3-0.4-0.4C59.8,176.9,59.7,176.7,59.6,176.6z M81.3,198.1l1.6-1.6
		c0.3-0.3,0.7-0.3,1-0.1l9.6,5.3c0.5,0.3,0.6,0.9,0.2,1.3l-1.7,1.8c-0.3,0.3-0.7,0.3-1,0.1l-9.5-5.5C81,199.1,80.9,198.5,81.3,198.1
		z M56.8,220.1c3.6,2,11.1,4.6,12.3,4.8c1.2,0.2,2.1,1,1.6,2.1c-0.1,0.3-0.4,0.8-0.8,1.5c0,0,0,0,0,0l-0.4,0.6
		c-0.5,0.8-1,1.7-1.5,2.5l-0.6,1.2c0,0-0.1,0-0.1,0c-0.3,0.5-0.6,0.9-0.7,1.1c-0.5,0.7-1.5,0.6-3.3,0.1c-1.8-0.5-8.5-3.9-9.9-4.8
		c-1.4-0.9-6.1-4.7-6.8-5.3c-0.7-0.6-0.9-1.1-1-2.3c-0.1-0.7-0.2-3.1-0.2-5.4c0,0,0,0,0,0l0-1.9c0,0,0,0,0,0c0-1,0-1.8,0.1-2.1
		c0.2-1,1.8,0.4,2.6,1.3C48.9,214.4,53.2,218.1,56.8,220.1z M58.7,183.6l1.3-1.4c0.3-0.3,0.8-0.4,1.2-0.1l6.3,4.6
		c0.4,0.3,0.5,1,0.1,1.3l-1.4,1.4c-0.3,0.3-0.8,0.4-1.2,0.1l-6.3-4.6C58.4,184.6,58.3,184,58.7,183.6z"/>
	<path class="st8" d="M39.8,206.3c0,0.2,0,0.3-0.1,0.5C39.8,206.6,39.8,206.5,39.8,206.3z"/>
	<path class="st8" d="M40,205c0,0.1,0,0.2,0,0.4C40,205.2,40,205.1,40,205z"/>
	<path class="st8" d="M39,211.9c0-0.1,0-0.3,0.1-0.5C39.1,211.6,39,211.8,39,211.9L39,211.9z"/>
	<path class="st8" d="M40.3,202.7c0,0.1,0,0.2-0.1,0.4C40.3,202.9,40.3,202.8,40.3,202.7z"/>
	<path class="st8" d="M40.2,203.6c0,0.1,0,0.3-0.1,0.4C40.1,203.9,40.2,203.8,40.2,203.6z"/>
	<path class="st8" d="M39.2,210.5c0,0.2-0.1,0.5-0.1,0.7C39.2,210.9,39.2,210.7,39.2,210.5z"/>
	<path class="st8" d="M39.6,207.6c0,0.1,0,0.2,0,0.3C39.6,207.8,39.6,207.7,39.6,207.6z"/>
	<path class="st8" d="M43.8,209.4c0.2,0.8,0.3,5.6-0.3,6.2s-3.1-1.8-3.3-2.1c-0.2-0.3-1.2-1.4-1.2-1.6c0-0.2,0-0.3,0.1-0.5
		c0-0.1,0-0.2,0-0.3c0-0.2,0.1-0.5,0.1-0.7c0.1-0.8,0.2-1.7,0.4-2.5c0-0.1,0-0.2,0-0.3c0-0.3,0.1-0.6,0.1-0.8c0-0.2,0-0.3,0.1-0.5
		c0-0.3,0.1-0.7,0.1-1c0-0.1,0-0.2,0-0.4c0-0.3,0.1-0.6,0.1-0.9c0-0.1,0-0.3,0.1-0.4c0-0.2,0.1-0.4,0.1-0.6c0-0.1,0-0.2,0.1-0.4
		c0-0.3,0.1-0.5,0.1-0.7c0,0,0.8,4.6,1.8,5.7C43.1,208.8,43.7,208.6,43.8,209.4z"/>
	<path class="st8" d="M94.9,224.9c-0.2,1.6-5.3,7.6-5.9,8.2c-0.3,0.3-0.7,0.7-1.2,1c0-1.6,0-3,0-3.9c0-0.4,0.1-0.7,0.1-1.1
		c0.1,1.3,0.3,2.6,0.6,2.4c0.6-0.3,3.9-4,4.2-4.4c0.3-0.5,1.2-2,1.2-2.3c0-0.3-0.1-2.6-0.2-3.1c0-0.4-0.4-0.4-0.8-0.2
		c0.4-0.5,0.8-1,1-1.4c0.1-0.2,0.2-0.4,0.4-0.6C95,220.5,95.1,223.6,94.9,224.9z"/>
	<path class="st8" d="M93.1,221.5c-0.9,0.4-2.2,1.5-2.6,1.9c-0.6,0.6-2.1,2.2-2.4,3.2C88,227,88,228,88.1,229
		c-0.1,0.4-0.1,0.7-0.1,1.1c0,0.9,0,2.3,0,3.9c-0.5,0.3-1.1,0.5-1.7,0.5c-1.2-0.1-13.1-2.1-13.6-2.4c-0.5-0.3-1.2-0.7-0.9-1.2
		c0.3-0.5,3.2-4.5,3.2-4.5c0.3-0.4,1.6-0.3,2.3-0.2c0.7,0.1,8.5,0.1,9,0c0.5-0.1,3.5-3.3,4.3-4.1c1-1,2.9-2.9,3.7-3
		c0.1,0,0.3,0.1,0.4,0.3c-0.2,0.2-0.3,0.4-0.4,0.6C93.8,220.5,93.5,221,93.1,221.5z"/>
	<path class="st9" d="M93.9,221.7c0.1,0.5,0.2,2.8,0.2,3.1c0,0.3-0.9,1.8-1.2,2.3c-0.3,0.5-3.6,4.1-4.2,4.4
		c-0.3,0.2-0.6-1.1-0.6-2.4c0.6-2.8,3.3-5.4,5-7.6C93.5,221.3,93.9,221.3,93.9,221.7z"/>
	<path class="st9" d="M88.1,226.6c0.3-1,1.7-2.5,2.4-3.2c0.4-0.4,1.7-1.6,2.6-1.9c-1.7,2.1-4.4,4.8-5,7.6C88,228,88,227,88.1,226.6z
		"/>
	<path class="st10" d="M57.3,227.1c0,0,0-0.1,0-0.1v-1.7c4.1,2,10.7,4.4,11.8,4.5l0.4-0.7c-0.5,0.8-1,1.7-1.5,2.5l0.1-0.2
		C68.2,231.4,61.9,229.5,57.3,227.1z"/>
	<path class="st10" d="M70.7,227c-0.1,0.3-0.4,0.8-0.8,1.5c-0.3-0.1-8.9-2.9-13.5-5.5c-4.8-2.8-10.9-8.6-11-8.7c0-1,0-1.8,0.1-2.1
		c0.2-1,1.8,0.4,2.6,1.3c0.8,0.9,5.1,4.6,8.7,6.6c3.6,2,11.1,4.6,12.3,4.8C70.3,225.1,71.2,225.9,70.7,227z"/>
	<path class="st10" d="M53.5,223c0,0,0,0.1,0,0.1v1.7c-4.2-2.8-7.9-6.5-7.9-6.5l0.1,1.9c0.8,0.9,5.8,5.5,9.4,7.5
		c3.6,2,10.9,4.7,12.4,5c-0.3,0.5-0.6,0.9-0.7,1.1c-0.5,0.7-1.5,0.6-3.3,0.1c-1.8-0.5-8.5-3.9-9.9-4.8c-1.4-0.9-6.1-4.7-6.8-5.3
		c-0.7-0.6-0.9-1.1-1-2.3c-0.1-0.7-0.2-3.1-0.2-5.4C46.1,216.9,50.1,220.6,53.5,223z"/>
	<path class="st11" d="M45.5,216.2l0-1.9c0,0,0,0,0,0C45.4,214.9,45.4,215.5,45.5,216.2C45.5,216.2,45.5,216.2,45.5,216.2z"/>
	<path class="st11" d="M69.9,228.5l-0.4,0.6C69.7,228.9,69.8,228.7,69.9,228.5C69.9,228.5,69.9,228.5,69.9,228.5z"/>
	<path class="st11" d="M69.9,228.5c-0.1,0.2-0.2,0.4-0.4,0.6l-0.4,0.7c-1.1-0.2-7.7-2.6-11.8-4.5v-0.4c0-0.2-0.1-0.4-0.3-0.5
		l-2.7-1.7c-0.3-0.2-0.7,0-0.8,0.3c-3.4-2.4-7.4-6.1-8.1-6.8c0-0.7,0-1.3,0-1.9c0.1,0.1,6.2,5.9,11,8.7
		C61,225.6,69.6,228.4,69.9,228.5z"/>
	<path class="st11" d="M67.5,232.8c0,0-0.1,0-0.1,0c0.2-0.4,0.5-0.8,0.7-1.2L67.5,232.8z"/>
	<path class="st11" d="M45.6,220.3l-0.1-1.9c0,0,3.8,3.7,7.9,6.5v0.4c0,0.2,0.1,0.4,0.3,0.5l2.7,1.7c0.3,0.2,0.7,0,0.8-0.3
		c4.7,2.3,10.9,4.3,10.9,4.3l-0.1,0.2c-0.3,0.4-0.5,0.9-0.7,1.2c-1.5-0.3-8.8-3-12.4-5C51.4,225.8,46.4,221.2,45.6,220.3z"/>
	<path class="st6" d="M72.1,149.5c-0.3-0.2-0.6-0.3-0.9-0.5C71.5,149.1,71.8,149.3,72.1,149.5L72.1,149.5L72.1,149.5z"/>
	<path class="st6" d="M107.3,203.2l2.1-5.4c0,0-19.5-11.6-23.1-13.3c-3.6-1.7-2.4-3.7-2.8-5c-0.4-1.3-1.7-2.4-5.8-4.5
		c-1.8-0.9-5.2-2.1-8.6-3.1c6.9-5,15.8-11.5,18-13.4c7.4,4.3,16.4,9.4,24.5,13.3c3.9,2.2,6.5,3.7,6.5,3.8L107.3,203.2z"/>
	<polygon class="st6" points="58.2,174.8 58.2,174.8 58.2,174.8 	"/>
	<path class="st6" d="M79.6,153.7c-1.4-0.8-2.7-1.5-3.9-2.2C76.9,152.2,78.2,152.9,79.6,153.7z"/>
	<path class="st6" d="M72.1,149.5L72.1,149.5c0.6,0.4,1.4,0.8,2.2,1.2C73.4,150.2,72.7,149.8,72.1,149.5L72.1,149.5z"/>
	<path class="st6" d="M87.5,158.2c8.5,4.8,18,10.2,24.1,13.7c-8.1-4-17.1-9-24.5-13.3C87.3,158.4,87.4,158.3,87.5,158.2z"/>
	<path class="st6" d="M87.1,158c-0.1-0.1-0.2-0.1-0.3-0.2C86.9,157.9,87,157.9,87.1,158z"/>
	<path class="st12" d="M71.2,149c-1.1-0.6-1.7-1-1.7-1S70.1,148.4,71.2,149z"/>
	<path class="st12" d="M79.6,153.7c0.8,0.4,1.6,0.9,2.4,1.4c0,0,0,0,0,0C81.2,154.6,80.4,154.2,79.6,153.7z"/>
	<path class="st12" d="M75.7,151.5c-0.5-0.3-1-0.6-1.5-0.8C74.7,151,75.2,151.2,75.7,151.5z"/>
	<path class="st12" d="M87.5,158.2L87.5,158.2c-0.1-0.1-0.2-0.1-0.4-0.2C87.2,158,87.4,158.1,87.5,158.2z"/>
	<path class="st12" d="M82,155.1C82,155.1,82,155.1,82,155.1c1.5,0.9,3.2,1.8,4.8,2.7C85.2,156.9,83.6,156,82,155.1z"/>
	<polygon class="st12" points="60.8,177.9 60.8,177.9 60.8,177.9 	"/>
	<path class="st12" d="M81.7,155.3c-5.9,3.4-11.3,6.5-15.9,9.2c1.9-8.5,3.7-16.4,3.7-16.4s0.6,0.4,1.7,1c0.3,0.1,0.6,0.3,0.9,0.5
		C72.1,149.5,75.9,151.9,81.7,155.3z"/>
	<path class="st12" d="M69.1,171.9c-1.7-0.5-3.3-1-4.7-1.4c0.4-2,0.9-4,1.3-6c4.6-2.7,10-5.8,15.9-9.2c1.7,1,3.5,2.1,5.5,3.2
		C85,160.4,76,166.9,69.1,171.9z"/>
	<path class="st12" d="M81.7,155.3c-5.7-3.4-9.6-5.8-9.6-5.8c0.6,0.4,1.4,0.8,2.2,1.2c0.5,0.3,1,0.5,1.5,0.8
		c1.2,0.7,2.5,1.4,3.9,2.2c0.8,0.4,1.6,0.9,2.4,1.4C81.9,155.2,81.8,155.2,81.7,155.3z"/>
	<path class="st12" d="M81.7,155.3c0.1-0.1,0.2-0.1,0.4-0.2c1.5,0.9,3.1,1.8,4.8,2.7c0.1,0.1,0.2,0.1,0.3,0.2
		c0.1,0.1,0.2,0.1,0.4,0.2c-0.1,0.1-0.2,0.2-0.4,0.3C85.2,157.4,83.3,156.3,81.7,155.3z"/>
	<path class="st13" d="M59,176c0.1,0.1,0.1,0.2,0.2,0.3C59.2,176.2,59.1,176.1,59,176z"/>
	<path class="st13" d="M58.4,175.1c0,0,0.1,0.1,0.1,0.1C58.4,175.2,58.4,175.2,58.4,175.1z"/>
	<path class="st13" d="M58.2,174.9C58.2,174.9,58.2,174.9,58.2,174.9C58.2,174.9,58.2,174.9,58.2,174.9z"/>
	<path class="st13" d="M58.6,175.5c0,0.1,0.1,0.1,0.1,0.2C58.7,175.6,58.7,175.6,58.6,175.5z"/>
	<path class="st13" d="M62.5,179.5c-0.1-0.1-0.2-0.2-0.3-0.2C62.4,179.4,62.5,179.5,62.5,179.5C62.5,179.5,62.5,179.5,62.5,179.5z"
		/>
	<path class="st13" d="M60.3,177.4c0.1,0.1,0.2,0.3,0.4,0.4C60.6,177.7,60.4,177.5,60.3,177.4z"/>
	<path class="st13" d="M61.2,178.3c0.1,0.1,0.3,0.3,0.5,0.4C61.5,178.6,61.4,178.4,61.2,178.3z"/>
	<path class="st13" d="M59.6,176.6c0.1,0.1,0.2,0.2,0.3,0.3C59.8,176.9,59.7,176.7,59.6,176.6z"/>
	<polygon class="st13" points="58.2,174.8 58.2,174.8 58.2,174.8 	"/>
	<path class="st13" d="M62.5,166.3v-1.9l6.9-16.4c0,0-1.8,7.9-3.7,16.4C64.7,165.1,63.6,165.7,62.5,166.3z"/>
	<path class="st13" d="M62.5,166.6v-0.3c1-0.6,2.1-1.2,3.2-1.9c-0.4,2-0.9,4-1.3,6c-2.3-0.7-4-1.1-4-1.1l-2.3,5.5l0,0l2.9-6.8
		C61.8,168.1,62.5,167.5,62.5,166.6z"/>
	<path class="st13" d="M61.5,167l1.1-2.5v1.9C62.2,166.5,61.8,166.8,61.5,167z"/>
	<path class="st13" d="M62.5,166.6c0,0.9-0.7,1.5-1.5,1.4l0.5-1.1c0.3-0.2,0.7-0.4,1.1-0.6V166.6z"/>
	<path class="st14" d="M58.2,174.9C58.2,174.9,58.2,174.8,58.2,174.9L58.2,174.9C58.2,174.8,58.2,174.9,58.2,174.9
		C58.2,174.9,58.2,174.9,58.2,174.9z"/>
	<path class="st14" d="M59.6,176.6C59.5,176.6,59.5,176.6,59.6,176.6C59.5,176.6,59.5,176.6,59.6,176.6L59.6,176.6z"/>
	<path class="st14" d="M59.5,176.5c-0.1-0.1-0.2-0.2-0.2-0.3c0,0,0,0,0,0C59.3,176.4,59.4,176.4,59.5,176.5z"/>
	<path class="st14" d="M59,176C59,176,59,176,59,176c-0.1-0.1-0.2-0.2-0.3-0.3c0,0,0,0,0,0C58.9,175.8,58.9,175.9,59,176z"/>
	<path class="st14" d="M58.6,175.5C58.6,175.5,58.6,175.5,58.6,175.5c-0.1-0.1-0.1-0.2-0.2-0.3c0,0,0,0,0,0
		C58.5,175.3,58.6,175.4,58.6,175.5z"/>
	<path class="st14" d="M58.4,175.1C58.4,175.1,58.4,175.1,58.4,175.1c-0.1-0.1-0.1-0.1-0.1-0.2c0,0,0,0,0,0
		C58.3,175,58.3,175.1,58.4,175.1z"/>
	<path class="st14" d="M63.2,180.1c-0.2-0.2-0.4-0.4-0.7-0.6c0,0,0,0,0,0C62.8,179.7,63,179.9,63.2,180.1z"/>
	<path class="st14" d="M61.2,178.3C61.2,178.3,61.2,178.3,61.2,178.3c-0.2-0.1-0.3-0.3-0.4-0.4l0,0C60.9,178,61.1,178.2,61.2,178.3z
		"/>
	<path class="st14" d="M62.3,179.3C62.3,179.3,62.3,179.3,62.3,179.3c-0.2-0.2-0.4-0.4-0.6-0.6c0,0,0,0,0,0
		C61.9,178.9,62.1,179.1,62.3,179.3z"/>
	<path class="st14" d="M64.6,181.3c1,0.8,2.1,1.7,3.4,2.6C66.7,182.9,65.6,182.1,64.6,181.3z"/>
	<path class="st14" d="M59.6,176.6C59.6,176.6,59.6,176.6,59.6,176.6C59.6,176.6,59.6,176.6,59.6,176.6L59.6,176.6
		C59.6,176.6,59.6,176.6,59.6,176.6z"/>
	<path class="st14" d="M60.8,177.9L60.8,177.9C60.7,177.8,60.7,177.8,60.8,177.9C60.7,177.8,60.7,177.8,60.8,177.9
		C60.7,177.8,60.7,177.8,60.8,177.9z"/>
	<path class="st14" d="M60.3,177.4C60.3,177.4,60.3,177.4,60.3,177.4c-0.2-0.2-0.3-0.3-0.4-0.4c0,0,0,0,0,0
		C60,177.1,60.2,177.3,60.3,177.4z"/>
	<path class="st14" d="M63.3,176.1c1.5-1.1,3.6-2.6,5.9-4.2c3.4,1,6.8,2.2,8.6,3.1c4.1,2.1,5.4,3.2,5.8,4.5c0.4,1.3-0.8,3.4,2.8,5
		c3.6,1.7,23.1,13.3,23.1,13.3l-2.1,5.4c0,0-1.7-0.5-4.5-1.6l-40.1-23.1C62.9,177.7,63.1,176.9,63.3,176.1z"/>
	<path class="st14" d="M58.5,175.3c0.1,0.1,0.1,0.1,0.2,0.2C58.6,175.4,58.5,175.3,58.5,175.3z"/>
	<path class="st14" d="M58.2,174.9C58.2,174.9,58.2,174.8,58.2,174.9L58.2,174.9C58.2,174.8,58.2,174.9,58.2,174.9z"/>
	<path class="st14" d="M58.8,175.7c0.1,0.1,0.2,0.2,0.3,0.3C58.9,175.9,58.9,175.8,58.8,175.7z"/>
	<path class="st14" d="M59.6,176.6L59.6,176.6L59.6,176.6C59.5,176.6,59.5,176.6,59.6,176.6c-0.2-0.2-0.2-0.3-0.3-0.3
		C59.4,176.4,59.5,176.5,59.6,176.6z"/>
	<path class="st14" d="M58.2,175c0,0,0.1,0.1,0.1,0.2C58.3,175.1,58.3,175,58.2,175z"/>
	<path class="st14" d="M60.3,177.4c-0.2-0.2-0.3-0.3-0.4-0.4C60,177.1,60.2,177.3,60.3,177.4z"/>
	<path class="st14" d="M61.7,178.7c0.2,0.2,0.4,0.4,0.6,0.6C62.1,179.1,61.9,178.9,61.7,178.7z"/>
	<path class="st14" d="M62.8,178.5l40.1,23.1c-5.3-2-14.6-5.9-25-11.6c-4-2.2-7.2-4.3-9.8-6.1c-1.3-0.9-2.4-1.8-3.4-2.6
		c-0.5-0.4-1-0.8-1.4-1.2c-0.2-0.2-0.4-0.4-0.7-0.6C62.6,179.2,62.7,178.8,62.8,178.5z"/>
	<path class="st14" d="M61.2,178.3c-0.2-0.1-0.3-0.3-0.4-0.4l0,0C60.9,178,61.1,178.2,61.2,178.3z"/>
	<path class="st14" d="M60.7,177.8C60.7,177.8,60.7,177.8,60.7,177.8L60.7,177.8C60.7,177.8,60.7,177.8,60.7,177.8z"/>
	<path class="st14" d="M59.6,176.6L59.6,176.6L59.6,176.6C59.6,176.6,59.6,176.6,59.6,176.6C59.6,176.6,59.6,176.6,59.6,176.6z"/>
	<polygon class="st14" points="60.8,177.9 60.8,177.9 60.8,177.9 60.8,177.9 	"/>
	<path class="st14" d="M63.3,176.1c0.4-1.7,0.8-3.6,1.2-5.6c1.4,0.4,3,0.9,4.7,1.4C66.8,173.5,64.8,175,63.3,176.1z"/>
	<path class="st14" d="M60.8,177.9C60.8,177.9,60.8,177.9,60.8,177.9L60.8,177.9C60.8,177.9,60.8,177.9,60.8,177.9L60.8,177.9z"/>
	<path class="st14" d="M58.2,175C58.2,175,58.2,174.9,58.2,175C58.2,174.9,58.2,174.9,58.2,175C58.2,174.9,58.2,174.9,58.2,175
		C58.2,174.9,58.2,174.9,58.2,175z"/>
	<path class="st14" d="M58.8,175.7C58.8,175.7,58.8,175.7,58.8,175.7c-0.1-0.1-0.1-0.1-0.2-0.2c0,0,0,0,0,0
		C58.7,175.6,58.7,175.6,58.8,175.7z"/>
	<path class="st14" d="M59.3,176.3C59.3,176.3,59.3,176.3,59.3,176.3c-0.1-0.1-0.2-0.2-0.2-0.3c0,0,0,0,0,0
		C59.1,176.1,59.2,176.2,59.3,176.3z"/>
	<path class="st14" d="M58.5,175.3C58.4,175.3,58.4,175.2,58.5,175.3c0,0-0.1-0.1-0.1-0.1c0,0,0,0,0,0
		C58.4,175.2,58.4,175.2,58.5,175.3z"/>
	<path class="st14" d="M60.7,177.8C60.7,177.8,60.7,177.8,60.7,177.8c-0.1-0.1-0.3-0.3-0.4-0.4c0,0,0,0,0,0
		C60.4,177.5,60.6,177.7,60.7,177.8z"/>
	<path class="st14" d="M62.5,179.5C62.5,179.5,62.5,179.5,62.5,179.5c-0.1-0.1-0.2-0.2-0.3-0.2c0,0,0,0,0,0
		C62.4,179.4,62.5,179.5,62.5,179.5z"/>
	<path class="st14" d="M59.9,177c-0.1-0.1-0.2-0.2-0.3-0.3c0,0,0,0,0,0C59.7,176.7,59.8,176.9,59.9,177C59.9,177,59.9,177,59.9,177z
		"/>
	<path class="st14" d="M61.7,178.7C61.7,178.7,61.7,178.7,61.7,178.7c-0.2-0.1-0.3-0.3-0.5-0.4c0,0,0,0,0,0
		C61.4,178.4,61.5,178.6,61.7,178.7z"/>
	<path class="st14" d="M59.6,176.6c-0.1-0.1-0.2-0.2-0.3-0.3c-0.1-0.1-0.2-0.2-0.2-0.3c-0.1-0.1-0.2-0.2-0.3-0.3
		c-0.1-0.1-0.1-0.1-0.2-0.2c-0.1-0.1-0.1-0.2-0.2-0.2c0,0-0.1-0.1-0.1-0.1c-0.1-0.1-0.1-0.1-0.1-0.2c0,0,0,0,0-0.1c0,0,0-0.1,0-0.1
		l0,0l1.7,1.9L59.6,176.6z"/>
	<path class="st14" d="M61.2,177.6c0.4-0.3,1.1-0.8,2-1.5c-0.2,0.8-0.3,1.6-0.5,2.4L61.2,177.6z"/>
	<path class="st14" d="M62.5,179.5c-0.1-0.1-0.2-0.2-0.3-0.2c-0.2-0.2-0.4-0.4-0.6-0.6c-0.2-0.1-0.3-0.3-0.5-0.4
		c-0.2-0.1-0.3-0.3-0.4-0.4c0,0,0.2-0.1,0.4-0.3l1.6,0.9C62.7,178.8,62.6,179.2,62.5,179.5z"/>
	<path class="st14" d="M60.8,177.9C60.7,177.8,60.7,177.8,60.8,177.9c-0.2-0.2-0.3-0.3-0.4-0.4c-0.1-0.2-0.3-0.3-0.4-0.4
		c-0.1-0.1-0.2-0.2-0.3-0.3c0,0,0,0,0,0l0.2,0.1L60.8,177.9z"/>
	<path class="st14" d="M61.2,177.6l-1.4-0.8l-1.7-1.9l2.3-5.5c0,0,1.7,0.5,4,1.1c-0.4,2-0.8,3.9-1.2,5.6
		C62.3,176.8,61.6,177.3,61.2,177.6z"/>
	<path class="st14" d="M60.8,177.9l-0.9-1.1l1.4,0.8C60.9,177.8,60.8,177.9,60.8,177.9C60.8,177.9,60.8,177.9,60.8,177.9z"/>
	<polygon class="st6" points="147.7,179.9 147.7,156.2 176.7,139.3 165.8,169.4 	"/>
	<polygon class="st6" points="182.7,135.7 181.8,138.3 182.7,135.7 	"/>
	<path class="st15" d="M130.7,206c-0.1,4.4,5.7,13.2,5.7,13.2s6.1-10.5,6.2-14.9c0.1-4.4-2.5-7.6-5.8-7.1
		C133.5,197.7,130.8,201.6,130.7,206z M132.4,205.7c0.1-3.2,2-6.1,4.5-6.4c2.4-0.3,4.3,2,4.3,5.2c-0.1,3.2-2,6.1-4.5,6.4
		C134.2,211.3,132.3,208.9,132.4,205.7z"/>
	<path class="st4" d="M136.8,199.4c2.4-0.3,4.3,2,4.3,5.2c-0.1,3.2-2,6.1-4.5,6.4c-2.4,0.3-4.3-2-4.3-5.2
		C132.4,202.5,134.4,199.7,136.8,199.4z"/>
	<path class="st15" d="M254,83.6l0.1-0.1l5.1,13.2c0.4,1,0.6,2.1,0.6,3.3l0,0c0-1.1-0.2-2.3-0.6-3.3L254,83.6z"/>
	<polygon class="st16" points="212,118.6 211.6,118.8 182.7,135.7 181.8,138.3 179.9,143.6 179.9,161.3 194.4,152.9 197.2,151.3 
		208.4,144.8 211,143.3 211.7,142.8 211.7,121.7 211.7,118.8 212,118.7 	"/>
	<polygon class="st16" points="177.5,162.6 171.8,165.9 177.5,150.2 	"/>
	<path class="st16" d="M252.8,97.4l-1.1-2.1l-39.2,22.9l0,0l1.4-0.8l0,2l0,5.1l0,4.6v12.3l39.6-22.9v-17.8
		C253.7,99.6,253.4,98.5,252.8,97.4z"/>
	<polygon class="st15" points="179.9,161.4 177.5,162.7 177.5,162.6 179.9,161.3 	"/>
	<polygon class="st17" points="179.9,143.6 179.9,161.3 177.5,162.6 177.5,150.2 	"/>
	<g>
		<path class="st15" d="M200.3,114.9l-12.7,7.4l-4.9,13.5l26.5-15.5C206.1,118.4,203.1,116.6,200.3,114.9z"/>
		<path class="st15" d="M255.3,130.3l1.7-2.9h2.8l0-27.5c0-1.1-0.2-2.3-0.6-3.3l-5.2-13l-18.5,10.8l11-6.4V88l-46.3,26.9
			c2.9,1.7,5.9,3.5,9,5.3l1.7-1l0.6-0.4l0.4-0.2l0.6-0.4l39.2-22.9l1.1,2.1c0.5,1,0.8,2.2,0.8,3.4v17.8L232.1,131l-9.7,5.6l-7.3,4.2
			l-2.6,1.5l-0.9,0.5l-0.7,0.4l-2.6,1.5l-11.2,6.5l-2.8,1.6l-14.5,8.4v0.1l-2.3,1.4v-0.1l-5.7,3.3l-4.7,12.9
			c-0.1,0.2-0.1,0.3-0.1,0.5c-0.1,0.5,0,1,0.3,1.4c0.2,0.3,0.5,0.6,0.8,0.9c0.2,0.1,0.3,0.2,0.5,0.2l26.7,8l12-6.8
			c0,0,1.4-10.6,11.9-18.6c10.4-7.9,17.7-3,19,1.3c7.1-3.2,10.7-4.9,12.6-5.9l1.1-0.6c0.4-0.3,0.7-0.5,1-0.7c1.1-1,6.9-6.1,6.9-6.1
			l0-1.9h-1.7l-2.9-1.7v-1V130.3z"/>
	</g>
	<g>
		<polygon class="st17" points="214.1,117.5 211.7,118.8 211.7,121.7 211.7,142.8 212.6,142.3 214.1,141.5 214.1,124.6 		"/>
	</g>
	<path class="st15" d="M200.2,114.9l35.3-20.5L200.2,114.9C200.2,114.9,200.2,114.9,200.2,114.9z"/>
	<path class="st18" d="M161.2,182.2l4.6-12.8l6-3.5l-4.7,12.9c-0.1,0.2-0.1,0.3-0.1,0.5c-0.1,0.5,0,1,0.3,1.4
		c0.2,0.3,0.5,0.6,0.8,0.9c0.2,0.1,0.3,0.2,0.5,0.2l26.7,8l-6,3.4l-26.7-8C161.4,184.8,160.7,183.4,161.2,182.2z"/>
	<path class="st18" d="M182.7,135.7l-6.1,3.6l4.9-13.6l18.6-10.8c0,0,0,0,0.1,0l-12.7,7.4l0,0l0,0L182.7,135.7z"/>
	<polygon class="st19" points="179.9,137.5 177.5,138.9 177.5,150.2 171.8,165.9 165.8,169.4 176.7,139.3 182.7,135.7 181.8,138.3 
		179.9,143.6 	"/>
	<polygon class="st17" points="179.9,137.5 179.9,143.6 177.5,150.2 177.5,138.9 	"/>
	<path class="st15" d="M235.5,94.4l11-6.4V88l-46.3,26.9c0,0,0,0,0,0L235.5,94.4z"/>
	<path class="st15" d="M171.8,165.9L171.8,165.9l-4.7,12.9c-0.1,0.2-0.1,0.3-0.1,0.5c0-0.2,0.1-0.3,0.1-0.5L171.8,165.9z"/>
	<path class="st15" d="M187.6,122.3l12.7-7.4c0,0,0,0,0,0L187.6,122.3L187.6,122.3z"/>
	<path class="st15" d="M167.3,180.7c0.2,0.3,0.5,0.6,0.8,0.9C167.8,181.3,167.5,181,167.3,180.7z"/>
	<polygon class="st15" points="177.5,150.2 177.5,150.2 171.8,165.9 171.8,165.9 	"/>
	<polygon class="st15" points="181.8,138.3 179.9,143.6 179.9,143.6 	"/>
	<polygon class="st15" points="177.5,150.2 179.9,143.6 179.9,143.6 177.5,150.2 	"/>
	<path class="st20" d="M259.8,127.5L259.8,127.5l0,23h0c0,0,0,0,0,0L259.8,127.5z"/>
	<path class="st20" d="M259.8,150.4C259.8,150.4,259.8,150.4,259.8,150.4L259.8,150.4L259.8,150.4z"/>
	<polygon class="st20" points="259.8,150.4 259.8,127.5 259.8,127.5 259.8,150.4 	"/>
	<rect x="259.8" y="150.4" class="st20" width="0" height="0"/>
	<path class="st20" d="M255.3,130.3l1.7-2.9h2.8l0,22.9c-1.4-0.9-2.9-1.8-4.5-2.7V130.3z"/>
	<path class="st20" d="M258.1,150.4l-2.9-1.7v-1c1.6,1,3.1,1.9,4.5,2.7v0H258.1z"/>
	<path class="st21" d="M38.7,214.6c-0.9,1.6-1.3,13.9-0.2,16.2c1.2,2.3,9.8,8.6,14.5,11.5c4.7,2.8,20.3,10.6,29.2,12.7
		c8.9,2.1,17.4-2.5,17.4-2.5l4.7-2.6c-0.4-1-0.7-2.2-0.8-3.5c-0.5-8,5.5-17.8,13.4-22c8-4.2,14.8-1.1,15.4,6.8
		c0.1,0.9,0,1.9-0.1,2.9l78-44.1c-0.5-1.1-0.8-2.5-0.9-4c-0.1-0.8,0-1.6,0-2.4l-11.7,6.7l-2.1-0.6l0,0l2.1,0.6l-5.9,3.4l-2.1-0.6
		l-56.6,32.1c-2.4-4.2-9.2-7.3-18.7-1.3c-9.9,6.2-12.2,17.9-12.2,17.9s-2,1-4.8,2.2c-0.3,0.1-0.7,0.3-1,0.4c-0.1,0-0.2,0.1-0.3,0.1
		c-0.3,0.1-0.6,0.2-0.9,0.3c-0.1,0-0.2,0.1-0.4,0.1c-0.4,0.1-0.9,0.2-1.3,0.4c-0.1,0-0.1,0-0.2,0c-0.4,0.1-0.9,0.2-1.3,0.3
		c-0.2,0-0.3,0.1-0.5,0.1c-0.4,0.1-0.8,0.1-1.2,0.2c-0.1,0-0.3,0-0.4,0c-0.5,0-1.1,0.1-1.6,0.1c0,0-0.1,0-0.1,0c-0.4,0-0.9,0-1.4,0
		c-0.2,0-0.5,0-0.7,0c-0.7,0-1.4-0.1-2.2-0.2c-3.6-0.6-11.6-3.4-18.6-6.4c0,0-2.5-0.2-6-1.4l0.7,0.4c0.2,0.1,0.3,0.4,0.3,0.6v3.6
		c0,0.6-0.6,0.9-1.1,0.6l-10.5-6c-0.2-0.1-0.3-0.4-0.3-0.6v-3.6c0-0.6,0.6-0.9,1.1-0.6l0.1,0.1c-1.9-1.7-3.8-3.7-5.6-6.2
		c0,0,0,0,0,0c-0.5-0.5-0.9-1-1.4-1.5c-2.1-2.3-2.7-5.2-3-7.3c-0.1-0.4-0.1-0.8-0.2-1.2C39.2,215.1,39,214.6,38.7,214.6z
		 M73.1,245.9c0-0.4,0.4-0.6,0.7-0.4l2.2,1.2c0.1,0.1,0.2,0.3,0.2,0.4v2.4c0,0.4-0.4,0.6-0.7,0.4l-2.2-1.2c-0.1-0.1-0.2-0.3-0.2-0.4
		V245.9z M40.2,227.2c0-0.4,0.4-0.6,0.7-0.4l1.6,1.3c0.1,0.1,0.2,0.3,0.2,0.4v2.4c0,0.4-0.4,0.6-0.7,0.4l-1.6-1.3
		c-0.1-0.1-0.2-0.3-0.2-0.4V227.2z"/>
	<path class="st21" d="M238,170.9c-0.1-1.2-0.3-2.4-0.7-3.4l13.5-7.8c0.4-0.2,0.8-0.4,1.1-0.6l0.6-0.4l7.3-6.5l0.1,2.4
		c0,0-4.8,9.2-5.9,10.5l-16.2,9.1C238,173.2,238.1,172,238,170.9z"/>
	<path class="st21" d="M93.1,245.3c0.5-0.1,0.9-0.2,1.3-0.4C94.1,245,93.6,245.2,93.1,245.3z"/>
	<path class="st21" d="M89.5,245.8c-0.5,0-1.1,0.1-1.6,0.1c0,0,0,0,0,0C88.5,245.9,89,245.9,89.5,245.8z"/>
	<path class="st21" d="M91.7,245.6c0.4-0.1,0.9-0.2,1.3-0.3C92.5,245.4,92.1,245.5,91.7,245.6z"/>
	<path class="st21" d="M90,245.8c0.4,0,0.8-0.1,1.2-0.2C90.8,245.7,90.4,245.8,90,245.8z"/>
	<path class="st21" d="M96.1,244.4c0.4-0.1,0.7-0.3,1-0.4C96.8,244.1,96.4,244.3,96.1,244.4z"/>
	<path class="st21" d="M114.1,223.9c-9.9,6.2-12.2,17.9-12.2,17.9s-2,1-4.8,2.2c2.8-1.2,4.8-2.7,4.8-2.7S104.2,230.2,114.1,223.9z"
		/>
	<path class="st21" d="M94.8,244.8c0.3-0.1,0.6-0.2,0.9-0.3C95.5,244.6,95.2,244.7,94.8,244.8z"/>
	<path class="st21" d="M85.7,245.9c0.2,0,0.5,0,0.7,0C86.2,245.9,86,245.9,85.7,245.9z"/>
	<path class="st21" d="M39.3,216.1c-0.1-0.9-0.3-1.5-0.6-1.5C39,214.6,39.2,215.1,39.3,216.1z"/>
	<path class="st21" d="M42.4,224.6c-2.1-2.3-2.7-5.2-3-7.3c0.3,2,0.8,4.8,2.9,7c0.5,0.5,1,1,1.5,1.5c0,0.1,0,0.2,0,0.3
		C43.4,225.6,42.9,225.1,42.4,224.6z"/>
	<path class="st21" d="M65.2,239c6.9,3,14.7,6.1,18.4,6.7c-3.6-0.6-11.6-3.4-18.6-6.4l0,0C65,239.3,65.1,239.2,65.2,239z"/>
	<path class="st21" d="M87.9,245.9C87.9,245.9,87.9,245.9,87.9,245.9C87.9,245.9,87.9,245.9,87.9,245.9
		C87.9,245.9,87.9,245.9,87.9,245.9z"/>
	<path class="st21" d="M54.6,234.4c2.4,1.3,6.2,3.1,10.4,4.8c0,0-2.5-0.2-6-1.4l-9.6-5.6c-1.9-1.7-3.8-3.7-5.6-6.2c0,0,0,0,0,0
		C46.8,229.2,49.1,231.4,54.6,234.4z"/>
	<path class="st21" d="M65.2,239c-0.1,0.2-0.2,0.3-0.2,0.3l0,0c-4.2-1.8-8-3.5-10.4-4.8c-5.5-3-7.8-5.2-10.7-8.3c0-0.1,0-0.2,0-0.3
		c3.1,3.1,5.9,5.3,11.3,8.3C57.5,235.4,61.2,237.2,65.2,239z"/>
	<path class="st21" d="M251.9,159.1c0.4-0.3,0.7-0.5,1-0.7c1.1-1,6.9-6.1,6.9-6.1l-7.3,6.5L251.9,159.1z"/>
	<path class="st21" d="M219.2,164.4c10.4-7.9,17.7-3,19,1.3c7.1-3.2,10.7-4.9,12.6-5.9l-13.5,7.8c-2-5.4-7.9-7-14.6-3.5
		c-7.2,3.8-12.7,12.1-13.4,19.6l-11.7,6.7l-2.1-0.6l12-6.8C207.4,182.9,208.8,172.3,219.2,164.4z"/>
	<polygon class="st21" points="197.5,190.4 191.5,193.8 189.4,193.1 195.4,189.7 	"/>
	<path d="M118.8,253.2c-0.9,0.5-1.7,0.8-2.6,1.1c1.9-1.1,4-2.3,6.3-3.6C121.4,251.6,120.1,252.5,118.8,253.2z"/>
	<path d="M104.2,249.9l4.4-2.5c1.7,3.3,5.7,4.2,10.2,1.8c4.8-2.5,8.5-7.9,9.4-12.9l4-2.2c-0.7,5.9-4.4,12.4-9.6,16.6
		c-2.3,1.3-4.4,2.5-6.3,3.6C110.7,256.2,106,254.4,104.2,249.9z"/>
	<path d="M116.9,224.4c8-4.2,14.8-1.1,15.4,6.8c0.1,0.9,0,1.9-0.1,2.9l-4,2.2c0.2-0.9,0.2-1.9,0.2-2.8c-0.4-5.7-5.3-7.8-11-4.9
		c-5.7,3-10,10-9.6,15.7c0.1,1.2,0.4,2.2,0.8,3l-4.4,2.5c-0.4-1-0.7-2.2-0.8-3.5C102.9,238.4,108.9,228.6,116.9,224.4z"/>
	<path class="st22" d="M117.5,245.1c2.3-1.2,4.2-3.3,5.3-5.7l5.4-3c-0.9,5-4.6,10.4-9.4,12.9c-4.5,2.4-8.5,1.5-10.2-1.8l3.5-2
		C113.5,246.2,115.4,246.2,117.5,245.1z"/>
	<path class="st22" d="M117.4,228.7c5.7-3,10.6-0.8,11,4.9c0.1,0.9,0,1.8-0.2,2.8l-5.4,3c0.8-1.6,1.2-3.3,1.1-4.9
		c-0.3-3.8-3.6-5.3-7.4-3.3c-3.8,2-6.7,6.8-6.5,10.6c0.1,1.7,0.9,3,2,3.6l-3.5,2c-0.4-0.9-0.7-1.9-0.8-3
		C107.4,238.7,111.7,231.7,117.4,228.7z"/>
	<path class="st23" d="M117.5,245.1c-2.1,1.1-4,1.1-5.4,0.3l10.7-6C121.7,241.7,119.7,243.9,117.5,245.1z"/>
	<path class="st23" d="M112.1,245.4l10.7-6c0.8-1.6,1.2-3.3,1.1-4.9c-0.3-3.8-3.6-5.3-7.4-3.3c-3.8,2-6.7,6.8-6.5,10.6
		C110.2,243.5,111,244.8,112.1,245.4z M116.7,237.9c0.7-1,1.9-1.4,2.5-0.9s0.5,1.7-0.2,2.7s-1.9,1.4-2.5,0.9
		C115.9,240.1,115.9,238.9,116.7,237.9z"/>
	<path d="M119.2,237c0.6,0.5,0.5,1.7-0.2,2.7s-1.9,1.4-2.5,0.9c-0.6-0.5-0.5-1.7,0.2-2.7S118.5,236.5,119.2,237z"/>
	<path d="M224.6,192.9c-1.3,0.7-2.6,1.2-3.9,1.5c3-1.7,6-3.5,8.9-5.1C228,190.7,226.3,191.9,224.6,192.9z"/>
	<path d="M210.1,190l4.4-2.5c1.8,3,5.6,3.7,9.9,1.4c4.6-2.4,8.2-7.4,9.3-12.3l4-2.3c-0.8,5.3-3.9,10.8-8.2,14.9
		c-2.9,1.7-5.9,3.4-8.9,5.1C215.9,195.5,211.9,193.9,210.1,190z"/>
	<path d="M209.2,183.6l4.5-2.6c-0.2,1-0.3,2-0.2,3c0.1,1.4,0.5,2.5,1,3.5l-4.4,2.5c-0.5-1.1-0.8-2.5-0.9-4
		C209.1,185.3,209.2,184.5,209.2,183.6z"/>
	<path d="M234.1,173.2c-0.1-1.3-0.4-2.4-0.9-3.3l4.1-2.4c0.4,1,0.6,2.1,0.7,3.4c0.1,1.1,0,2.3-0.2,3.5l-4,2.3
		C234.1,175.5,234.2,174.3,234.1,173.2z"/>
	<path d="M222.6,164.1c6.7-3.5,12.6-1.9,14.6,3.5l-4.1,2.4c-1.7-3.1-5.6-3.8-10-1.5c-4.7,2.5-8.4,7.7-9.4,12.7l-4.5,2.6
		C209.9,176.2,215.5,167.9,222.6,164.1z"/>
	<path class="st22" d="M223.2,184.8c2-1.1,3.7-2.9,4.9-4.9l5.7-3.2c-1.1,4.8-4.7,9.9-9.3,12.3c-4.3,2.3-8.2,1.6-9.9-1.4l3.8-2.2
		C219.7,185.9,221.4,185.7,223.2,184.8z"/>
	<path class="st22" d="M229.7,174.2c-0.1-0.8-0.3-1.4-0.5-2l4-2.3c0.5,0.9,0.9,2,0.9,3.3c0.1,1.1,0,2.3-0.3,3.4l-5.7,3.2
		C229.2,178,229.8,176,229.7,174.2z"/>
	<path class="st22" d="M213.8,181l2.1-1.2c-0.1,0.6-0.1,1.1-0.1,1.7c0.1,2,1.1,3.3,2.6,3.9l-3.8,2.2c-0.6-0.9-0.9-2.1-1-3.5
		C213.5,183.1,213.6,182.1,213.8,181z"/>
	<path class="st22" d="M223.1,168.4c4.4-2.3,8.3-1.5,10,1.5l-4,2.3c-1.1-2.3-3.8-2.9-6.9-1.3c-3.3,1.7-5.9,5.5-6.4,8.9l-2.1,1.2
		C214.7,176.1,218.4,170.9,223.1,168.4z"/>
	<path class="st23" d="M223.2,184.8c-1.8,1-3.5,1.1-4.8,0.6l9.7-5.5C226.9,181.9,225.2,183.7,223.2,184.8z"/>
	<path class="st23" d="M229.1,172.2l-13.2,7.6c-0.1,0.6-0.1,1.1-0.1,1.7c0.1,2,1.1,3.3,2.6,3.9l9.7-5.5c1.1-1.8,1.7-3.9,1.6-5.7
		C229.6,173.4,229.4,172.8,229.1,172.2z M224.9,176.7c0.6,0.5,0.5,1.7-0.2,2.7c-0.7,1-1.9,1.4-2.5,0.9c-0.6-0.5-0.5-1.7,0.2-2.7
		C223.2,176.6,224.3,176.2,224.9,176.7z"/>
	<path class="st23" d="M222.3,170.9c3.1-1.6,5.8-1,6.9,1.3l-13.2,7.6C216.4,176.4,219,172.6,222.3,170.9z"/>
	<path d="M224.7,179.3c-0.7,1-1.9,1.4-2.5,0.9c-0.6-0.5-0.5-1.7,0.2-2.7c0.7-1,1.9-1.4,2.5-0.9C225.5,177.1,225.5,178.3,224.7,179.3
		z"/>
	<path class="st7" d="M59.8,238.3c0.2,0.1,0.3,0.4,0.3,0.6v3.6c0,0.6-0.6,0.9-1.1,0.6l-10.5-6c-0.2-0.1-0.3-0.4-0.3-0.6v-3.6
		c0-0.6,0.6-0.9,1.1-0.6l0.1,0.1c3.4,2.9,6.8,4.6,9.6,5.6L59.8,238.3z"/>
	<path class="st7" d="M49.4,232.3l9.6,5.6C56.2,236.9,52.7,235.2,49.4,232.3z"/>
	<path class="st24" d="M40.9,226.8l1.6,1.3c0.1,0.1,0.2,0.3,0.2,0.4v2.4c0,0.4-0.4,0.6-0.7,0.4l-1.6-1.3c-0.1-0.1-0.2-0.3-0.2-0.4
		v-2.4C40.2,226.8,40.6,226.6,40.9,226.8z"/>
	<path class="st7" d="M57.3,227.1c-0.6-0.3-1.2-0.6-1.7-0.9c-0.7-0.4-1.4-0.9-2.1-1.3v-1.7c0-0.1,0-0.1,0-0.1
		c0.8,0.6,1.6,1.1,2.3,1.5c0.4,0.2,0.9,0.5,1.5,0.8v1.7C57.3,227.1,57.3,227.1,57.3,227.1z"/>
	<path class="st7" d="M53.5,223c0.1-0.3,0.5-0.5,0.8-0.3l2.7,1.7c0.2,0.1,0.3,0.3,0.3,0.5v0.4c-0.5-0.3-1-0.5-1.5-0.8
		C55.1,224.1,54.3,223.6,53.5,223z"/>
	<path class="st7" d="M57.3,227.1c-0.1,0.3-0.5,0.5-0.8,0.3l-2.7-1.7c-0.2-0.1-0.3-0.3-0.3-0.5v-0.4c0.7,0.5,1.4,0.9,2.1,1.3
		C56.1,226.5,56.7,226.8,57.3,227.1z"/>
	<path class="st24" d="M73.9,245.5l2.2,1.2c0.1,0.1,0.2,0.3,0.2,0.4v2.4c0,0.4-0.4,0.6-0.7,0.4l-2.2-1.2c-0.1-0.1-0.2-0.3-0.2-0.4
		v-2.4C73.1,245.5,73.5,245.3,73.9,245.5z"/>
	<path class="st5" d="M82.9,196.5c0.3-0.3,0.7-0.3,1-0.1l9.6,5.3c0.5,0.3,0.6,0.9,0.2,1.3l-1.7,1.8c-0.3,0.3-0.7,0.3-1,0.1l-9.5-5.5
		c-0.5-0.3-0.6-0.9-0.2-1.3L82.9,196.5z"/>
	<path class="st5" d="M60,182.3c0.3-0.3,0.8-0.4,1.2-0.1l6.3,4.6c0.4,0.3,0.5,1,0.1,1.3l-1.4,1.4c-0.3,0.3-0.8,0.4-1.2,0.1l-6.3-4.6
		c-0.4-0.3-0.5-1-0.1-1.3L60,182.3z"/>
	<g>
		<path class="st7" d="M222.3,112.7L222.3,112.7l0.6-1.1c0.1-0.2,0.2-0.2,0.2,0l-0.1,0.7l0,0.1l-0.9,4.7l-0.5,2.6
			c0,0.1-0.1,0.3-0.2,0.4l-0.6,0.7l-2.4,2.7l-2.6,2.9v-0.9l5-9.9L222.3,112.7z"/>
		<path class="st7" d="M223.4,111.2l0.5,0.4l0.8,0.6l5.6,4.6v0.9l-5.6,0.2c-0.1,0-0.2-0.1-0.2-0.2l-0.9-3.8l-0.5-2l-0.1-0.6
			C223.2,111.3,223.3,111.1,223.4,111.2z"/>
		<path class="st7" d="M191.2,151.6c0.7,0.4,1.4,0.4,2.3-0.1c1.1-0.6,1.7-1.6,1.7-3.1v-8.2l2.9-1.7v8.3c0,1.5-0.4,2.9-1.2,4.1
			c-0.2,0.4-0.5,0.8-0.9,1.1c-0.7,0.8-1.5,1.4-2.4,2c-1,0.6-1.8,0.8-2.5,0.9c-0.7,0.1-1.2-0.1-1.7-0.4L191.2,151.6z"/>
		<polygon class="st7" points="212.4,132.7 205.6,136.7 205.6,139.3 211.4,135.9 211.6,135.7 211.6,138.2 209.2,139.6 205.6,141.7 
			205.6,144.4 207,143.6 212.5,140.4 212.5,142.5 212.5,142.8 204.8,147.3 202.8,148.5 202.8,148.1 202.8,135.8 212.4,130.2 		"/>
		<polygon class="st7" points="239.2,119.5 242.2,112.6 245.4,110.8 240.5,121.3 240.5,125.9 240.5,126.3 237.7,128 237.7,127.6 
			237.7,123 232.9,118.1 236.1,116.2 		"/>
		<polygon class="st7" points="222.3,124.4 222.3,136.7 222.3,136.8 222.3,137.1 219.7,138.6 219.7,138.2 219.7,128.5 215.9,130.7 
			215.9,128.1 220.8,125.2 		"/>
		<polygon class="st7" points="230.4,122.2 226.5,124.5 226.5,134.2 226.5,134.6 223.9,136.1 223.9,135.7 223.9,123.4 230.4,119.6 
					"/>
	</g>
</g>
<g>
	<circle class="st25" cx="250.8" cy="86.6" r="11.1"/>
	<path class="st7" d="M242.7,85.2c1.3,1.6,2.7-0.5,5.1-2.4c2.4-1.9,4.9-2.9,3.6-4.5c-1.3-1.6-4.3-1.4-6.7,0.5
		C242.3,80.7,241.4,83.5,242.7,85.2z"/>
</g>
<g>
	<circle class="st25" cx="219.5" cy="67" r="11.1"/>
	<path class="st7" d="M211.4,65.5c1.3,1.6,2.7-0.5,5.1-2.4s4.9-2.9,3.6-4.5s-4.3-1.4-6.7,0.5C211,61,210.1,63.9,211.4,65.5z"/>
</g>
<g>
	<circle class="st25" cx="255.3" cy="151.9" r="11.1"/>
	<path class="st7" d="M247.2,150.5c1.3,1.6,2.7-0.5,5.1-2.4c2.4-1.9,4.9-2.9,3.6-4.5c-1.3-1.6-4.3-1.4-6.7,0.5
		S245.9,148.8,247.2,150.5z"/>
</g>
<g>
	<circle class="st25" cx="237.3" cy="75.5" r="9.3"/>
	<path class="st7" d="M230.5,74.3c1.1,1.4,2.2-0.4,4.2-2c2-1.6,4.1-2.4,3-3.8c-1.1-1.4-3.6-1.2-5.6,0.4S229.4,73,230.5,74.3z"/>
</g>
<g>
	<circle class="st25" cx="222.3" cy="97.7" r="7.4"/>
	<path class="st7" d="M216.9,96.7c0.9,1.1,1.8-0.3,3.4-1.6c1.6-1.3,3.3-1.9,2.4-3c-0.9-1.1-2.9-0.9-4.5,0.3S216.1,95.6,216.9,96.7z"
		/>
</g>
<g>
	<circle class="st25" cx="186.1" cy="131.5" r="7.4"/>
	<path class="st7" d="M180.7,130.5c0.9,1.1,1.8-0.3,3.4-1.6c1.6-1.3,3.3-1.9,2.4-3c-0.9-1.1-2.9-0.9-4.5,0.3
		C180.4,127.5,179.8,129.4,180.7,130.5z"/>
</g>
<g>
	<circle class="st25" cx="205.5" cy="110.4" r="5.2"/>
	<path class="st7" d="M201.8,109.7c0.6,0.8,1.2-0.2,2.4-1.1c1.1-0.9,2.3-1.3,1.7-2.1s-2-0.7-3.1,0.2
		C201.6,107.7,201.2,109,201.8,109.7z"/>
</g>
<g>
	<circle class="st25" cx="212.5" cy="77.2" r="7.4"/>
	<path class="st7" d="M207.1,76.2c0.9,1.1,1.8-0.3,3.4-1.6c1.6-1.3,3.3-1.9,2.4-3c-0.9-1.1-2.9-0.9-4.5,0.3S206.2,75.1,207.1,76.2z"
		/>
</g>
<g>
	<circle class="st25" cx="229.1" cy="84.2" r="3.4"/>
	<path class="st7" d="M226.7,83.7c0.4,0.5,0.8-0.1,1.5-0.7s1.5-0.9,1.1-1.4c-0.4-0.5-1.3-0.4-2,0.1S226.3,83.3,226.7,83.7z"/>
</g>
<g>
	<circle class="st25" cx="201.5" cy="114.9" r="3.4"/>
	<path class="st7" d="M199,114.5c0.4,0.5,0.8-0.1,1.5-0.7s1.5-0.9,1.1-1.4s-1.3-0.4-2,0.1C198.9,113.1,198.6,114,199,114.5z"/>
</g>
<g>
	<circle class="st25" cx="180.3" cy="138.2" r="3.4"/>
	<path class="st7" d="M177.8,137.8c0.4,0.5,0.8-0.1,1.5-0.7c0.7-0.6,1.5-0.9,1.1-1.4c-0.4-0.5-1.3-0.4-2,0.1
		C177.7,136.4,177.4,137.3,177.8,137.8z"/>
</g>
<g>
	<circle class="st25" cx="206.7" cy="64.5" r="3.4"/>
	<path class="st7" d="M204.2,64c0.4,0.5,0.8-0.1,1.5-0.7c0.7-0.6,1.5-0.9,1.1-1.4c-0.4-0.5-1.3-0.4-2,0.1S203.8,63.5,204.2,64z"/>
</g>
<g>
	<circle class="st25" cx="198.1" cy="57.1" r="3.4"/>
	<path class="st7" d="M195.7,56.7c0.4,0.5,0.8-0.1,1.5-0.7s1.5-0.9,1.1-1.4c-0.4-0.5-1.3-0.4-2,0.1
		C195.6,55.3,195.3,56.2,195.7,56.7z"/>
</g>
<g>
	<circle class="st25" cx="253.7" cy="114.9" r="3.4"/>
	<path class="st7" d="M251.2,114.5c0.4,0.5,0.8-0.1,1.5-0.7s1.5-0.9,1.1-1.4c-0.4-0.5-1.3-0.4-2,0.1S250.8,114,251.2,114.5z"/>
</g>
<g>
	<circle class="st25" cx="259.8" cy="125.3" r="3.4"/>
	<path class="st7" d="M257.3,124.9c0.4,0.5,0.8-0.1,1.5-0.7c0.7-0.6,1.5-0.9,1.1-1.4c-0.4-0.5-1.3-0.4-2,0.1
		S256.9,124.4,257.3,124.9z"/>
</g>
<g>
	<circle class="st25" cx="244.2" cy="162.7" r="3.4"/>
	<path class="st7" d="M241.7,162.3c0.4,0.5,0.8-0.1,1.5-0.7c0.7-0.6,1.5-0.9,1.1-1.4c-0.4-0.5-1.3-0.4-2,0.1
		C241.6,160.9,241.3,161.8,241.7,162.3z"/>
</g>
<g>
	<circle class="st25" cx="237.3" cy="93.3" r="5.8"/>
	<path class="st7" d="M233,92.5c0.7,0.9,1.4-0.3,2.6-1.2c1.3-1,2.6-1.5,1.9-2.4c-0.7-0.9-2.2-0.7-3.5,0.3
		C232.8,90.2,232.4,91.7,233,92.5z"/>
</g>
<g>
	<circle class="st25" cx="220.7" cy="108" r="5.8"/>
	<path class="st7" d="M216.4,107.3c0.7,0.9,1.4-0.3,2.6-1.2c1.3-1,2.6-1.5,1.9-2.4c-0.7-0.9-2.2-0.7-3.5,0.3
		C216.2,104.9,215.8,106.4,216.4,107.3z"/>
</g>
<g>
	<circle class="st25" cx="211.7" cy="57.6" r="5.8"/>
	<path class="st7" d="M207.5,56.8c0.7,0.9,1.4-0.3,2.6-1.2c1.3-1,2.6-1.5,1.9-2.4c-0.7-0.9-2.2-0.7-3.5,0.3
		C207.3,54.4,206.8,55.9,207.5,56.8z"/>
</g>
<g>
	<circle class="st25" cx="260.3" cy="141.5" r="5.8"/>
	<path class="st7" d="M256.1,140.7c0.7,0.9,1.4-0.3,2.6-1.2c1.3-1,2.6-1.5,1.9-2.4s-2.2-0.7-3.5,0.3
		C255.9,138.4,255.4,139.9,256.1,140.7z"/>
</g>
<g>
	<circle class="st25" cx="259.8" cy="104.6" r="5.8"/>
	<path class="st7" d="M255.6,103.9c0.7,0.9,1.4-0.3,2.6-1.2c1.3-1,2.6-1.5,1.9-2.4c-0.7-0.9-2.2-0.7-3.5,0.3S254.9,103,255.6,103.9z
		"/>
</g>
<g>
	<circle class="st25" cx="243.1" cy="140.9" r="5.8"/>
	<path class="st7" d="M238.8,140.2c0.7,0.9,1.4-0.3,2.6-1.2c1.3-1,2.6-1.5,1.9-2.4c-0.7-0.9-2.2-0.7-3.5,0.3
		C238.6,137.8,238.2,139.3,238.8,140.2z"/>
</g>
<polygon class="st7" points="115,179 125.1,177.6 115,176.2 113.6,166.1 112.3,176.2 102.2,177.6 112.3,179 113.6,189.1 "/>
<polygon class="st25" points="188.1,45.8 198.2,44.5 188.1,43.1 186.7,33 185.3,43.1 175.3,44.5 185.3,45.8 186.7,55.9 "/>
<polygon class="st7" points="99.3,198.5 104.6,197.8 99.3,197.1 98.6,191.8 97.9,197.1 92.6,197.8 97.9,198.5 98.6,203.8 "/>
<polygon class="st25" points="168.9,61.8 174.2,61.1 168.9,60.4 168.2,55.1 167.5,60.4 162.2,61.1 167.5,61.8 168.2,67.1 "/>
<polygon class="st7" points="40.6,206.5 45.9,205.8 40.6,205.1 39.9,199.8 39.2,205.1 33.9,205.8 39.2,206.5 39.9,211.8 "/>
<polygon class="st7" points="123.3,204.8 128.6,204 123.3,203.3 122.6,198 121.9,203.3 116.6,204 121.9,204.8 122.6,210.1 "/>
</svg>
