<?xml version="1.0" encoding="utf-8"?>
<!-- Generator: Adobe Illustrator 20.0.0, SVG Export Plug-In . SVG Version: 6.00 Build 0)  -->
<svg version="1.1" id="Layer_1" xmlns="http://www.w3.org/2000/svg" xmlns:xlink="http://www.w3.org/1999/xlink" x="0px" y="0px"
	 viewBox="0 0 141.7 141.7" style="enable-background:new 0 0 141.7 141.7;" xml:space="preserve">
<style type="text/css">
	.st0{fill:none;stroke:#3E3E42;stroke-width:3;stroke-linejoin:round;stroke-miterlimit:10;}
</style>
<g>
	<path class="st0" d="M80.2,19.4c0,0-4.4-1.2-9.5-1.2c-5.1,0-9.5,1.2-9.5,1.2l2,2.6c0,0-0.1,1.2,0,2.1c1,0.7,4.8,1.3,7.5,1.3
		s6.5-0.6,7.5-1.3c0.1-0.9,0-2.1,0-2.1L80.2,19.4z"/>
	<path class="st0" d="M63.1,28.3c0,4.1,3.4,7.5,7.5,7.5c4.1,0,7.5-3.4,7.5-7.5"/>
	<path class="st0" d="M83.3,42L83.3,42L83.3,42H59.4l0,0h0c-3.3,0-6,2.7-6,6v33.8c0,1.9,1.5,3.4,3.4,3.4h2.7l0,33.9
		c0,2.6,1.9,4.9,4.4,5.1c2.9,0.3,5.4-2,5.4-4.9V83.3c0-1,0.7-2,1.7-2.2c1.3-0.2,2.4,0.8,2.4,2.1v36c0,2.6,1.9,4.9,4.4,5.1
		c2.9,0.3,5.4-2,5.4-4.9V85.2h2.7c1.9,0,3.4-1.5,3.4-3.4V48.1C89.3,44.7,86.6,42,83.3,42z"/>
	<line class="st0" x1="83.3" y1="85.3" x2="83.3" y2="50.4"/>
	<line class="st0" x1="59.4" y1="50.4" x2="59.4" y2="85.3"/>
</g>
</svg>
