<?xml version="1.0" encoding="utf-8"?>
<!-- Generator: Adobe Illustrator 20.0.0, SVG Export Plug-In . SVG Version: 6.00 Build 0)  -->
<svg version="1.1" id="Layer_1" xmlns="http://www.w3.org/2000/svg" xmlns:xlink="http://www.w3.org/1999/xlink" x="0px" y="0px"
	 viewBox="0 0 100 100" style="enable-background:new 0 0 100 100;" xml:space="preserve">
<style type="text/css">
	.st0{fill:none;stroke:#6171AB;stroke-width:3.8831;stroke-miterlimit:10;}
</style>
<path class="st0" d="M82.9,79.7H18.1c-5.1,0-9.3-4.2-9.3-9.3V36.6c0-5.1,4.2-9.3,9.3-9.3h64.8c5.1,0,9.3,4.2,9.3,9.3v33.7
	C92.2,75.5,88,79.7,82.9,79.7z"/>
<g>
	<path class="st0" d="M60.1,68.1c-0.9-4.1-0.4-7.2,1-8.8s4.3-3.3,9.7-3.3c5.3,0,8.2,1.8,9.7,3.3s1.9,4.7,1,8.8H60.1z"/>
	<circle class="st0" cx="70.8" cy="43.7" r="6.7"/>
</g>
<line class="st0" x1="15.6" y1="39.9" x2="48.6" y2="39.9"/>
<line class="st0" x1="15.6" y1="50.8" x2="48.6" y2="50.8"/>
<line class="st0" x1="15.6" y1="61.7" x2="31.5" y2="61.7"/>
</svg>
