<?xml version="1.0" encoding="utf-8"?>
<!-- Generator: Adobe Illustrator 20.0.0, SVG Export Plug-In . SVG Version: 6.00 Build 0)  -->
<svg version="1.1" id="Layer_1" xmlns="http://www.w3.org/2000/svg" xmlns:xlink="http://www.w3.org/1999/xlink" x="0px" y="0px"
	 viewBox="0 0 50 50" style="enable-background:new 0 0 50 50;" xml:space="preserve">
<style type="text/css">
	.st0{fill:none;stroke:#231F20;stroke-width:2.6996;stroke-linecap:round;stroke-linejoin:round;stroke-miterlimit:10;}
	.st1{enable-background:new    ;}
	.st2{fill:#231F20;}
</style>
<g>
	<circle class="st0" cx="24.4" cy="25.5" r="21.9"/>
	<g class="st1">
		<path class="st2" d="M31.1,30.1v2.8H18.3v-2.6l6.5-7c0.8-0.8,1.3-1.6,1.7-2.3c0.4-0.7,0.5-1.4,0.5-2.1c0-0.9-0.2-1.5-0.7-2
			c-0.5-0.4-1.2-0.7-2.2-0.7c-1.7,0-3.4,0.7-5.2,2l-1.2-2.5c0.8-0.7,1.7-1.2,2.9-1.6c1.2-0.4,2.4-0.6,3.6-0.6c1.9,0,3.4,0.5,4.5,1.4
			c1.1,0.9,1.7,2.2,1.7,3.8c0,1.1-0.2,2.1-0.7,3.1c-0.5,1-1.3,2-2.4,3.2l-4.7,5H31.1z"/>
	</g>
</g>
</svg>
