<?xml version="1.0" encoding="utf-8"?>
<!-- Generator: Adobe Illustrator 20.0.0, SVG Export Plug-In . SVG Version: 6.00 Build 0)  -->
<svg version="1.1" id="Layer_1" xmlns="http://www.w3.org/2000/svg" xmlns:xlink="http://www.w3.org/1999/xlink" x="0px" y="0px"
	 viewBox="0 0 100 100" style="enable-background:new 0 0 100 100;" xml:space="preserve">
<style type="text/css">
	.st0{fill:none;stroke:#6171AB;stroke-width:3.6299;stroke-miterlimit:10;}
	.st1{fill:none;stroke:#6171AB;stroke-width:3.6299;stroke-linecap:round;stroke-linejoin:round;stroke-miterlimit:10;}
</style>
<g>
	<path class="st0" d="M59.7,20.2v2.6c0,2.5-2,4.6-4.6,4.6H44.9c-2.5,0-4.6-2-4.6-4.6V12.5c0-2.5,2-4.6,4.6-4.6h10.2
		c1.2,0,2.3,0.5,3.1,1.2"/>
</g>
<g>
	<path class="st0" d="M55.1,92.1H44.9c-2.5,0-4.6-2-4.6-4.6V77.3c0-2.5,2-4.6,4.6-4.6h10.2c2.5,0,4.6,2,4.6,4.6v10.2
		C59.7,90,57.6,92.1,55.1,92.1z"/>
</g>
<polyline class="st1" points="46.9,15 50.6,20.5 64.1,10.7 "/>
<g>
	<path class="st0" d="M59.7,52.5v2.6c0,2.5-2,4.6-4.6,4.6H44.9c-2.5,0-4.6-2-4.6-4.6V44.9c0-2.5,2-4.6,4.6-4.6h10.2
		c1.2,0,2.3,0.5,3.1,1.2"/>
</g>
<polyline class="st1" points="46.9,47.3 50.6,52.8 64.1,43.1 "/>
</svg>
