<?xml version="1.0" encoding="utf-8"?>
<!-- Generator: Adobe Illustrator 22.0.1, SVG Export Plug-In . SVG Version: 6.00 Build 0)  -->
<svg version="1.1" id="Layer_1" xmlns="http://www.w3.org/2000/svg" xmlns:xlink="http://www.w3.org/1999/xlink" x="0px" y="0px"
	 width="141.7px" height="141.7px" viewBox="0 0 141.7 141.7" style="enable-background:new 0 0 141.7 141.7;" xml:space="preserve"
	>
<style type="text/css">
	.st0{fill:#FFFFFF;}
	.st1{fill:none;stroke:#4BBFA9;stroke-width:5.454;stroke-linecap:round;stroke-linejoin:round;stroke-miterlimit:10;}
	.st2{fill:none;stroke:#4BBFA9;stroke-width:1.818;stroke-linecap:round;stroke-linejoin:round;stroke-miterlimit:10;}
	.st3{fill:#4BBFA9;}
	.st4{fill:none;stroke:#A7A9AC;stroke-width:3.636;stroke-linejoin:round;stroke-miterlimit:10;}
	.st5{fill:none;stroke:#4BBFA9;stroke-width:1.818;stroke-linejoin:round;stroke-miterlimit:10;}
</style>
<g>
	<circle class="st0" cx="70.9" cy="70.9" r="65.4"/>
	<circle class="st1" cx="70.9" cy="70.9" r="65.4"/>
	<g>
		<path class="st2" d="M58.4,79.5c6.4-6.4,16.7-6.4,23,0"/>
		<path class="st2" d="M61.9,83c4.4-4.4,11.6-4.4,16.1,0"/>
		<path class="st2" d="M65.5,86.6c2.4-2.4,6.4-2.4,8.8,0"/>
		<circle class="st3" cx="69.9" cy="90" r="1"/>
	</g>
	<path class="st4" d="M70.9,107.5c0,0-29.2-13.1-29.2-29.2v-36l29.2-8.1l29.2,8.1v36C100,94.4,70.9,107.5,70.9,107.5z"/>
	<g>
		<polygon class="st2" points="83.9,63.5 77.9,61.3 83.6,58.7 85.5,59.4 		"/>
		<line class="st2" x1="59.2" y1="59.7" x2="59.2" y2="69.4"/>
		<line class="st5" x1="59.2" y1="64.5" x2="63.4" y2="64.5"/>
		<line class="st5" x1="65.9" y1="63.2" x2="68.5" y2="60.4"/>
		<polygon class="st2" points="75,62.7 60.5,57.4 63.5,49.3 86.1,57.5 		"/>
		<circle class="st2" cx="64.9" cy="64.2" r="1.8"/>
	</g>
</g>
</svg>
