<?xml version="1.0" encoding="utf-8"?>
<!-- Generator: Adobe Illustrator 22.0.1, SVG Export Plug-In . SVG Version: 6.00 Build 0)  -->
<svg version="1.1" id="Layer_1" xmlns="http://www.w3.org/2000/svg" xmlns:xlink="http://www.w3.org/1999/xlink" x="0px" y="0px"
	 width="141.7px" height="141.7px" viewBox="0 0 141.7 141.7" style="enable-background:new 0 0 141.7 141.7;" xml:space="preserve"
	>
<style type="text/css">
	.st0{fill:#FFFFFF;stroke:#4BBFA9;stroke-width:5.454;stroke-linecap:round;stroke-linejoin:round;stroke-miterlimit:10;}
	.st1{fill:none;stroke:#D1D3D4;stroke-width:2.0321;stroke-miterlimit:10;}
	.st2{fill:none;stroke:#D1D3D4;stroke-width:1.5241;stroke-miterlimit:10;}
	.st3{fill:none;stroke:#D1D3D4;stroke-width:1.5241;stroke-linejoin:round;stroke-miterlimit:10;}
	.st4{fill:#325C7D;}
	.st5{fill:#FFFFFF;}
	.st6{fill:#7B8AA3;}
	.st7{fill:#4BBFA9;}
	.st8{fill:none;stroke:#A7A9AC;stroke-width:2.1154;stroke-linejoin:round;stroke-miterlimit:10;}
	.st9{fill:none;stroke:#A7A9AC;stroke-width:2.2264;stroke-linejoin:round;stroke-miterlimit:10;}
	.st10{fill:none;stroke:#FFFFFF;stroke-width:2.1154;stroke-linejoin:round;stroke-miterlimit:10;}
</style>
<g>
	<circle class="st0" cx="70.9" cy="70.9" r="65.4"/>
	<g>
		<line class="st1" x1="74" y1="37.6" x2="74" y2="73.8"/>
		<line class="st2" x1="61.5" y1="49" x2="61.5" y2="61.8"/>
		<polyline class="st2" points="54.1,48.8 74,48.8 87.4,39.8 		"/>
		<polyline class="st3" points="78.1,46 87.8,61.7 53.9,61.7 		"/>
	</g>
	<g>
		<path class="st4" d="M77.7,64.1c-0.1,0-0.3,0-0.4-0.1L71,61.1L64.6,64c-0.1,0.1-0.3,0.1-0.4,0.1c-0.2,0-0.5-0.1-0.7-0.3
			c-0.3-0.3-0.3-0.7-0.1-1.1l6.7-11.6c0.2-0.3,0.5-0.5,0.8-0.5s0.6,0.2,0.8,0.5l6.7,11.6c0.2,0.3,0.2,0.8-0.1,1.1
			C78.2,64,77.9,64.1,77.7,64.1z"/>
		<path class="st5" d="M71,51.6l6.7,11.6L71,60.1l-6.7,3.1L71,51.6 M71,49.8c-0.6,0-1.2,0.3-1.6,0.9l-6.7,11.6
			c-0.4,0.7-0.3,1.5,0.2,2.1c0.4,0.4,0.8,0.6,1.3,0.6c0.3,0,0.5-0.1,0.8-0.2l6-2.8l6,2.8c0.2,0.1,0.5,0.2,0.8,0.2
			c0.5,0,1-0.2,1.3-0.6c0.5-0.6,0.6-1.4,0.2-2.1l-6.7-11.6C72.2,50.1,71.6,49.8,71,49.8L71,49.8z"/>
	</g>
	<polygon class="st6" points="71,60.1 64.2,63.2 71,51.6 	"/>
	<g>
		<path class="st7" d="M85,69v24.8H56.7V69H67c0,1.9,1.6,3.5,3.5,3.5c1.9,0,3.5-1.5,3.5-3.5H85z"/>
		<path class="st8" d="M90.9,110.8H50.8c-2,0-3.7-1.7-3.7-3.7V34.6c0-2,1.7-3.7,3.7-3.7h40.1c2,0,3.7,1.7,3.7,3.7v72.5
			C94.6,109.2,92.9,110.8,90.9,110.8z"/>
		<rect x="53.9" y="37.9" class="st8" width="33.9" height="56"/>
		<circle class="st9" cx="70.9" cy="102.7" r="3.5"/>
	</g>
	<line class="st10" x1="58.3" y1="76.5" x2="83.6" y2="76.5"/>
	<line class="st10" x1="58.3" y1="82.3" x2="83.6" y2="82.3"/>
	<line class="st10" x1="58.3" y1="88.1" x2="74.5" y2="88.1"/>
</g>
</svg>
