<?xml version="1.0" encoding="utf-8"?>
<!-- Generator: Adobe Illustrator 21.0.2, SVG Export Plug-In . SVG Version: 6.00 Build 0)  -->
<svg version="1.1" id="Layer_1" xmlns="http://www.w3.org/2000/svg" xmlns:xlink="http://www.w3.org/1999/xlink" x="0px" y="0px"
	 width="141.7px" height="141.7px" viewBox="0 0 141.7 141.7" style="enable-background:new 0 0 141.7 141.7;" xml:space="preserve"
	>
<style type="text/css">
	.st0{fill:none;stroke:#3E3E42;stroke-width:3;stroke-linejoin:round;stroke-miterlimit:10;}
</style>
<g>
	<path class="st0" d="M22.3,70.4c-2.4-0.8-4.7-1.6-7-2.4c-0.5-0.2-0.9-0.3-1.4-0.5c-2.2-0.8-2.9-2.3-2.2-4.5c0.3-1,0.7-1.9,1.2-2.8
		c0.6-1,1.5-1.4,2.6-1.4c4.4,0,8.9,0,13.5,0c0.6-1.7,1.1-3.5,1.7-5.2c1-3,1.9-6,3.2-8.9c0.9-1.9,2.7-3,4.9-3c1.2,0,2.4-0.1,3.6-0.1
		c19.6,0,39.3,0,58.9,0c2.1,0,3.9,0.4,5.4,1.9c1.1,1.1,1.6,2.6,2.1,4c0.8,2.3,1.5,4.7,2.3,7.1c0.3,1.1,0.6,2.1,1,3.2
		c0.2,0.7,0.5,1.1,1.4,1.1c4.2-0.1,8.4-0.1,12.6,0c0.8,0,1.7,0.4,2.3,1c1.3,1.3,1.6,3,1.8,4.7c0.1,1.2-1.2,2.5-2.8,3.1
		c-2.4,0.8-4.8,1.6-7.1,2.4c-0.3,0.1-0.7,0.2-1.3,0.6c0.5,0.4,1,0.7,1.5,1.1c2.1,1.9,4.3,3.7,6.3,5.7c1.2,1.2,1.8,2.8,1.8,4.6
		c0,11.3,0,22.5,0,33.8c0,1.9-1.4,3.4-3.3,3.4c-4.7,0-9.5,0-14.2,0c-1.6,0-2.8-1.1-2.9-2.6c-0.2-2.1-0.2-4.2-0.1-6.3
		c0-0.9-0.2-1.2-1.2-1.2c-24.1,0-48.2,0-72.3,0c-1,0-1.3,0.3-1.3,1.3c0,2.1,0,4.3-0.1,6.4c-0.1,1.3-1.3,2.4-2.6,2.4
		c-4.8,0.1-9.6,0.1-14.4,0c-1.9,0-3.3-1.6-3.3-3.5c0-4.6,0-9.1,0-13.7c0-6.1,0.1-12.2,0-18.3c-0.1-3.6,1.3-6.3,4-8.5
		c1.8-1.4,3.5-3,5.2-4.5C22.3,70.7,22.3,70.5,22.3,70.4z"/>
	<g>
		<path class="st0" d="M117.2,80.7c-2.9,0.6-15.8,3.3-16.8,3.7c-1.7,0.8-2.4,2.5-1.9,4.4c0.3,1.1,1.9,2.5,3.6,2.5
			c2.5-0.1,12.9,0,15.6,0c1.4,0,2.9-0.9,3.1-2.2c0.3-2,0.4-4.1,0.1-6C120.6,81.2,118.6,80.5,117.2,80.7z"/>
		<path class="st0" d="M43.8,88.7c0.4-1.9-0.4-3.9-2-4.4c-1.7-0.6-14.9-3.3-16.6-3.6c-1.6-0.3-3.2,0.6-3.6,2.2
			c-0.6,2.1-0.7,4.3,0.1,6.3c0.4,1.1,1.3,2.1,2.7,2.1c2.7,0,13.5,0,16.2-0.1C41.9,91.2,43.6,89.9,43.8,88.7z"/>
		<path class="st0" d="M38.7,52.4c-1.2,3.7-2.5,7.3-3.7,11c-0.4,1.1-0.6,2.2-1,3.4c24.8,0,49.4,0,74.3,0c-0.7-2.1-1.3-4.1-1.9-6
			c-0.5-1.6-1-3.3-1.5-4.9c-0.5-1.4-0.8-2.9-1.5-4.2c-1.2-2.4-3.3-3.4-5.9-3.4c-17.4,0-34.9,0-52.3,0c-0.4,0-0.8,0-1.3,0
			C41.3,48.6,39.3,50.4,38.7,52.4z"/>
	</g>
</g>
</svg>
