<?xml version="1.0" encoding="utf-8"?>
<!-- Generator: Adobe Illustrator 20.0.0, SVG Export Plug-In . SVG Version: 6.00 Build 0)  -->
<svg version="1.1" id="Layer_1" xmlns="http://www.w3.org/2000/svg" xmlns:xlink="http://www.w3.org/1999/xlink" x="0px" y="0px"
	 viewBox="0 0 85 85" style="enable-background:new 0 0 85 85;" xml:space="preserve">
<style type="text/css">
	.st0{fill:none;stroke:#3E3E42;stroke-width:2;stroke-linecap:round;stroke-linejoin:round;stroke-miterlimit:10;}
	.st1{fill:#9AD5C7;stroke:#3E3E42;stroke-width:2;stroke-linecap:round;stroke-linejoin:round;stroke-miterlimit:10;}
</style>
<g>
	<circle class="st0" cx="42.5" cy="42.5" r="30"/>
	<path class="st1" d="M67.7,26.2c-3.3-5-5.5-6.1-5.5-6.1c-2.4-0.4-5,0.1-7,1.5c-1.7,1.1-3.1,2.7-5.1,3.2c-1.4,0.3-2.9,0-4.3,0
		c-1.4,0-3,0.3-3.9,1.5s-0.6,3-1.5,4.1c-0.2,0.2-0.4,0.4-0.7,0.5c-0.9,0.2-1.3-1.3-2.1-1.7c-0.6-0.3-1.3-0.1-1.7,0.4
		c-0.4,0.4-0.7,1.1-0.9,1.6c-0.2,0.6-0.4,1.2-0.1,1.7c0.3,0.6,1,0.8,1.6,0.9c1.2,0.2,2.5,0.3,3.8,0.1c0.2,0.2,0.3,0.5,0.2,0.8
		c-0.4,0-0.7,0.1-0.9,0.4c1.4,0.3,2.8,0.2,4.1-0.2c0,0.6,0.7,1,1.3,1s1.2-0.4,1.8-0.5c1.4-0.4,3.2,0.4,3.1,1.8c-0.1,1.3-1.6,2-3,2.2
		s-2.8,0.3-4.1-0.2c-0.6-0.3-1.1-0.7-1.7-1c-1.6-0.9-3.6-1.1-5.3-0.5s-3.2,2-3.9,3.7c-0.4,1-0.6,2-0.7,3c-0.1,1.5,0,3.2,1.1,4.3
		c2,2,5.8,0.4,8,2.2c1.4,1.2,1.5,3.2,1.5,5c0,1.3,0,2.5,0,3.8c0,1.1,0,2.2,0.5,3.2s1.5,1.8,2.6,1.7c0.7-0.1,1.4-0.5,2-1
		c3.1-2.6,4.3-5.9,6.3-9.5c0.7-1.3,1.4-2.7,1.6-4.2s-0.3-3.3-1.5-4.1c-0.6-0.5-0.5-1-0.4-1.8c0.7-0.3,1.5-0.2,2.1,0.2
		c0.2,0.2,0.4,0.4,0.7,0.5c0.5,0.1,0.9-0.5,1.1-1c0.4-1.2,0.4-2.4,0-3.6c0.4-0.3,0.9-0.2,1.3,0s0.6,0.7,0.9,1.1
		c0.7,1.1,1.4,2.1,2.2,3.1c0.4,0.5,0.8,1,1.4,1.2c1.1,0.4,2.3-0.3,3.2-0.9c1.8-1.2,3.6-2.5,4.4-4.5c1-2.4-0.6-3.9,1.1-5.9
		C71.3,34.2,71,31.2,67.7,26.2z"/>
	<path class="st1" d="M54.7,56.9c-0.1,0.1-0.1,0.2-0.1,0.4c0,0.3-0.2,0.5-0.4,0.6s-0.5,0.1-0.7,0.3c-0.4,0.2-0.6,0.6-0.7,1
		c-0.1,0.4-0.2,0.8-0.2,1.3s-0.1,0.9-0.1,1.4c0,0.3,0,0.5,0.1,0.8c0.1,0.2,0.3,0.3,0.5,0.4c0.7,0.2,1.5-0.2,1.7-0.9
		c0.1-0.4,0.1-0.8,0.3-1.1c0.1-0.2,0.3-0.3,0.4-0.5c0.7-0.8,0.7-1.9,0.6-2.9c0-0.3-0.1-0.6-0.3-0.7c-0.1,0-0.2,0-0.2-0.1
		c-0.2-0.1-0.2-0.5-0.4-0.5L54.7,56.9z"/>
	<path class="st1" d="M34.8,18.2c-0.4,0.4-0.9,0.7-1.4,1s-1,0.7-1,1.3c0,0.2,0,0.4-0.1,0.6c-0.1,0.5-0.7,0.8-1,1.3
		c-0.3,0.4-0.3,0.8-0.4,1.3c0,0.6,0,1.2,0.4,1.6c0.5,0.5,1.3,0.5,1.9,0.2s1.1-0.8,1.6-1.3c0.8-0.7,1.6-1.3,2.6-1.7
		c0.5-0.2,1.1-0.4,1.5-0.8c0.4-0.3,0.7-0.8,0.9-1.2c0.4-0.6,0.7-1.3,0.5-2c-0.2-0.5-0.7-0.7-1.1-0.8c-0.5-0.1-1,0-1.5,0
		c-0.8,0.1-1.7,0.2-2.5,0.3L34.8,18.2z"/>
	<path class="st1" d="M26.5,17.3c-0.2,0.4-0.2,0.9-0.1,1.4c0.6,0.2,1.3,0.1,2-0.1c0.1,0.6,0.1,1.2,0.1,1.8c0.2,0.1,0.4,0.2,0.6,0.3
		c0.3,0.8-0.6,1.5-1.3,1.9c-0.7,0.5-1.3,1.4-0.8,2c0.1,0.1,0.2,0.2,0.4,0.3c1.2,0.8,1.4,2.7,0.4,3.8c-0.5,0.5-1.2,0.9-1.1,1.6
		c0,0.2,0.1,0.4,0.1,0.7c0,0.2-0.2,0.4-0.4,0.5c-0.5,0.3-1.1,0.5-1.6,0.4c0.2-0.6-0.3-1.2-0.9-1.4c-0.6-0.2-1.2,0-1.8,0.3
		c-0.6,0.3-1.2,0.6-1.5,1.2c-0.4,0.7-0.3,1.7-1,2.2c-0.5,0.3-1.2,0.2-1.7,0.5c-0.8,0.4-0.9,1.5-0.9,2.4c0,2.1,0.1,4.5,1.6,5.9
		c1.1,1.1,1.4,2.5,2.8,3.1c2.5,1.1,4.5,3.1,5.6,5.6c0.3,0.6,0.5,1.3,0.5,1.9c0,1.2-0.1,2.6-1,3.5c-1.6,1.5-1.6,2.8-2,5
		c-0.3,1.7,0.2,2.4-0.3,3.9c0,0-2.6-1.9-3.4-2.8c-0.9-0.9-1.6-1.7-1.9-2.3c-0.2-0.5-0.4-1-0.5-1.5c-0.1-1,0.2-1.9,0.3-2.8
		c0.2-1.8-0.4-3.8-1.7-5.1c-0.3-0.2-0.6-0.5-0.8-0.8c-0.4-0.6-0.5-1.3-0.6-2c-0.1-1.3,0-2.5,0.1-3.8c0.1-0.9,0.2-1.9-0.4-2.5
		c-0.2-0.2-0.4-0.3-0.5-0.5c-0.2-0.3-0.1-0.7-0.1-1c0.1-0.7-0.1-1.4-0.6-2c-0.2-0.3-0.4-0.5-0.6-0.8c-0.4-0.7-0.2-1.6,0-2.4
		c0,0,0.6-4.5,4.1-10S26.5,17.3,26.5,17.3z"/>
	<path class="st1" d="M22.8,40.8c0.3,0,0.7-0.1,0.9-0.4c0.1-0.1,0.1-0.3,0.1-0.4c0-0.5,0-1-0.1-1.5c-0.2-0.7-0.9-1.3-1.7-1.4
		c-0.1,0-0.2,0-0.3-0.1c-0.1-0.1-0.2-0.2-0.3-0.3c-0.3-0.3-1-0.2-1.2,0.2c-0.1,0.2-0.1,0.4-0.1,0.6c-0.1,0.2-0.3,0.4-0.4,0.6
		c-0.2,0.4-0.1,0.9,0.2,1.3c0.3,0.4,0.7,0.6,1.2,0.6c0.1,0,0.2,0,0.3,0.1c0,0,0.1,0.1,0.1,0.2c0,0.3-0.1,0.5-0.2,0.7s-0.1,0.5,0,0.7
		c0.1,0.1,0.2,0.1,0.3,0.2c0.3,0.1,0.6,0.2,0.9,0.1c0.3-0.1,0.6-0.3,0.6-0.6s-0.2-0.6-0.5-0.7L22.8,40.8z"/>
</g>
</svg>
