<?xml version="1.0" encoding="utf-8"?>
<!-- Generator: Adobe Illustrator 22.0.1, SVG Export Plug-In . SVG Version: 6.00 Build 0)  -->
<svg version="1.1" id="Layer_1" xmlns="http://www.w3.org/2000/svg" xmlns:xlink="http://www.w3.org/1999/xlink" x="0px" y="0px"
	 width="42.5px" height="42.5px" viewBox="0 0 42.5 42.5" style="enable-background:new 0 0 42.5 42.5;" xml:space="preserve">
<style type="text/css">
	.st0{fill:none;stroke:#4BBFA7;stroke-width:2;stroke-linecap:round;stroke-linejoin:round;stroke-miterlimit:10;}
</style>
<g>
	<g>
		<path class="st0" d="M19.3,14.8l-2.4,1.8c-0.2,0.2-0.4,0.5-0.5,0.8l-0.9,4.8c-0.1,0.7-0.8,1.1-1.4,1h0c-0.6-0.1-1-0.7-0.9-1.3
			l0.9-6.1c0-0.3,0.2-0.6,0.4-0.8l5.1-4.5c0.2-0.2,0.5-0.3,0.8-0.3h2.6c0.5,0,0.9,0.3,1.1,0.7l2.8,5.8c0.2,0.4,0.5,0.7,0.9,0.9
			l4.4,1.9c0.6,0.3,0.9,1.1,0.6,1.7v0c-0.3,0.6-1.1,0.9-1.7,0.6L26,19.5c-0.2-0.1-0.4-0.2-0.5-0.4l-1.3-1.9l-0.8,4.4
			c-0.1,0.5,0,1,0.3,1.4l6.9,11c0.5,0.8,0.3,1.8-0.5,2.3h0c-0.8,0.5-1.9,0.3-2.4-0.5l-9.4-13.4c-0.1-0.2-0.2-0.4-0.1-0.6L19.3,14.8z
			"/>
		<path class="st0" d="M19.7,29c0,0-0.9,1.9-1,2L15,36c-0.6,0.7-1.6,0.8-2.3,0.2l0,0c-0.6-0.5-0.6-1.4-0.2-2l3.5-5
			c0.1-0.1,1.2-3.7,1.2-3.7"/>
		<circle class="st0" cx="24.4" cy="4.8" r="3.3"/>
	</g>
	<line class="st0" x1="9.2" y1="40.6" x2="36.5" y2="40.6"/>
</g>
</svg>
