<?xml version="1.0" encoding="utf-8"?>
<!-- Generator: Adobe Illustrator 20.0.0, SVG Export Plug-In . SVG Version: 6.00 Build 0)  -->
<svg version="1.1" id="Layer_1" xmlns="http://www.w3.org/2000/svg" xmlns:xlink="http://www.w3.org/1999/xlink" x="0px" y="0px"
	 viewBox="0 0 56.7 56.7" style="enable-background:new 0 0 56.7 56.7;" xml:space="preserve">
<style type="text/css">
	.st0{fill:none;stroke:#919192;stroke-width:2;stroke-miterlimit:10;}
	.st1{fill:none;stroke:#919192;stroke-width:2;stroke-linejoin:round;stroke-miterlimit:10;}
</style>
<path class="st0" d="M41.7,36.4l-7.3,8c-0.9,1-2.4,1-3.3,0.2l-0.2-0.2c-1-0.9-1-2.4-0.2-3.3l7.3-8c0.9-1,2.4-1,3.3-0.2l0.2,0.2
	C42.5,34,42.6,35.5,41.7,36.4z"/>
<path class="st1" d="M28.5,11.6c-12.5,0-15.8,7-17,11.4c-1.1,4.3,0.4,9.6,1.6,11.9c0.3-0.1,0.8,0.1,1.2,0.5s8.1,8.9,9.1,10.1
	s-0.8,2.2-1.4,1.7c-5.5-2.2-9.8-9.7-9.8-9.7S7,32.9,8.5,23.3s11.2-14.7,20-14.7s18.5,5.1,20,14.7s-3.7,14.2-3.7,14.2
	S40.5,45,35,47.2c-0.6,0.5-2.4-0.5-1.4-1.7s8.6-9.6,9.1-10.1s0.9-0.6,1.2-0.5c1.2-2.2,2.7-7.6,1.6-11.9C44.4,18.5,41,11.6,28.5,11.6
	z"/>
<path class="st0" d="M15.3,36.4l7.3,8c0.9,1,2.4,1,3.3,0.2l0.2-0.2c1-0.9,1-2.4,0.2-3.3l-7.3-8c-0.9-1-2.4-1-3.3-0.2l-0.2,0.2
	C14.5,34,14.4,35.5,15.3,36.4z"/>
</svg>
