<svg xmlns="http://www.w3.org/2000/svg" width="18" height="13.318" viewBox="0 0 18 13.318">
  <path id="Fill_1" data-name="Fill 1" d="M17.818,7.319a.11.11,0,0,0,.03-.09.226.226,0,0,0,.06-.12c0-.03.03-.06.03-.12,0-.03.03-.09.03-.12,0-.06.03-.12.03-.18v-.12a.379.379,0,0,0-.03-.18c0-.06-.03-.09-.03-.12s-.03-.06-.03-.09c-.03-.06-.06-.09-.09-.15,0-.03-.03-.03-.03-.06-.06-.06-.09-.12-.15-.18L12.208.36a1.194,1.194,0,0,0-1.71,0,1.194,1.194,0,0,0,0,1.71l3.39,3.39H1.2a1.2,1.2,0,0,0,0,2.4H13.888l-3.39,3.39a1.2,1.2,0,1,0,1.68,1.71L17.638,7.5l.18-.18Z" fill="#2d414d"/>
</svg>
