<?xml version="1.0" encoding="utf-8"?>
<!-- Generator: Adobe Illustrator 23.0.3, SVG Export Plug-In . SVG Version: 6.00 Build 0)  -->
<svg version="1.1" id="Layer_1" xmlns="http://www.w3.org/2000/svg" xmlns:xlink="http://www.w3.org/1999/xlink" x="0px" y="0px"
	 width="18.7px" height="14.1px" viewBox="0 0 18.7 14.1" style="enable-background:new 0 0 18.7 14.1;" xml:space="preserve">
<style type="text/css">
	.st0{fill:#4BBFA7;}
</style>
<path id="Fill_1" class="st0" d="M0.5,6.4C0.5,6.4,0.5,6.5,0.5,6.4c0,0.1-0.1,0.2-0.1,0.2v0.1v0.1c0,0.1,0,0.1,0,0.2v0.1
	c0,0.1,0,0.1,0,0.2s0,0.1,0,0.1v0.1c0,0.1,0.1,0.1,0.1,0.2c0,0,0,0,0,0.1C0.6,7.9,0.6,7.9,0.6,8L6,13.4c0.5,0.5,1.2,0.5,1.7,0l0,0
	c0.5-0.5,0.5-1.2,0-1.7l0,0L4.5,8.3h12.7c0.7,0,1.2-0.5,1.2-1.2s-0.5-1.2-1.2-1.2H4.5l3.4-3.4c0.4-0.5,0.5-1.2,0-1.7
	C7.5,0.3,6.7,0.3,6.3,0.7L6.2,0.8L0.7,6.2L0.5,6.4L0.5,6.4z"/>
</svg>
