<?xml version="1.0" encoding="utf-8"?>
<!-- Generator: Adobe Illustrator 22.0.1, SVG Export Plug-In . SVG Version: 6.00 Build 0)  -->
<svg version="1.1" id="Layer_1" xmlns="http://www.w3.org/2000/svg" xmlns:xlink="http://www.w3.org/1999/xlink" x="0px" y="0px"
	 width="42.5px" height="42.5px" viewBox="0 0 42.5 42.5" style="enable-background:new 0 0 42.5 42.5;" xml:space="preserve">
<style type="text/css">
	.st0{fill:none;stroke:#4BBFA7;stroke-width:2;stroke-linecap:round;stroke-linejoin:round;stroke-miterlimit:10;}
</style>
<g>
	<path class="st0" d="M10.6,8.9c-0.2,1-0.6,11.6,1.8,16.3c0.2,0.4,0.7,0.6,1.1,0.5c1.1-0.3,3-0.5,4.4-0.1c0.4,0.1,0.8,0,1.1-0.3
		c1-1.3,1.6-3.2,0.8-6.3c-1-3.6-5.2-9.4-8-10.7C11,7.9,10.8,8.1,10.6,8.9z"/>
	<path class="st0" d="M12,5.2c0,0.2,2.2,0.6,3.3,2.2c0.7,0.2,2-0.9,1.7-3.1s-0.9-2.9-2.6-2.5S12.1,4.4,12,5.2z"/>
	<path class="st0" d="M21.1,28.8c5.1,0,7-1.7,9.7-1.7s3,1.1,3.1,2s0,4.1-1.5,4.5c-1.5,0.4-9,0.4-11.3,0.4s-5.9,0.1-6.4-0.2
		c-0.5-0.3-2.1-4.4-0.1-5.4C16,27.6,16,28.8,21.1,28.8z"/>
	<path class="st0" d="M14.7,37.2v2.5c0,0.2,0.2,0.4,0.4,0.4h17c0.2,0,0.4-0.2,0.4-0.4v-2.7c0-0.3-0.2-0.5-0.5-0.4
		c-1.1,0.1-4,0.4-9.3,0.4c-4.7,0-6.8-0.1-7.6-0.2C14.9,36.8,14.7,37,14.7,37.2z"/>
</g>
</svg>
