<?xml version="1.0" encoding="utf-8"?>
<!-- Generator: Adobe Illustrator 21.0.2, SVG Export Plug-In . SVG Version: 6.00 Build 0)  -->
<svg version="1.1" id="Layer_1" xmlns="http://www.w3.org/2000/svg" xmlns:xlink="http://www.w3.org/1999/xlink" x="0px" y="0px"
	 viewBox="0 0 85 85" style="enable-background:new 0 0 85 85;" xml:space="preserve">
<style type="text/css">
	.st0{fill:none;stroke:#325B7C;stroke-width:2;stroke-miterlimit:10;}
	.st1{fill:#325B7C;}
	.st2{font-family:'MyriadPro-Semibold';}
	.st3{font-size:15.5548px;}
</style>
<g>
	<path class="st0" d="M59.5,58.7l-16.4,4.6L14.4,50c-0.8-0.4-1.4-1.2-1.5-2.1l-0.2-2.1c-0.1-1.1,0.9-1.9,1.9-1.6l17.6,5.1l0.3-3.9
		c0.1-0.9,0.9-1.6,1.9-1.4c3.4,0.7,11,2.2,13.3,2.2c3,0,5.3-4.4,8.4-4.4s3.1,0,3.1,0"/>
	<line class="st0" x1="32.2" y1="49.3" x2="42.9" y2="52.4"/>
	<rect x="59.5" y="40.6" class="st0" width="12.9" height="23.3"/>
	<circle class="st0" cx="65.9" cy="59.4" r="2.1"/>
	<circle class="st0" cx="42.4" cy="28.9" r="8.8"/>
	<text transform="matrix(1 0 0 1 38.4005 33.7892)" class="st1 st2 st3">$</text>
</g>
</svg>
