<?xml version="1.0" encoding="utf-8"?>
<!-- Generator: Adobe Illustrator 23.0.3, SVG Export Plug-In . SVG Version: 6.00 Build 0)  -->
<svg version="1.1" id="Layer_1" xmlns="http://www.w3.org/2000/svg" xmlns:xlink="http://www.w3.org/1999/xlink" x="0px" y="0px"
	 width="90px" height="80px" viewBox="0 0 90 80" style="enable-background:new 0 0 90 80;" xml:space="preserve">
<style type="text/css">
	.st0{fill:url(#SVGID_1_);}
	.st1{fill:#FFFFFF;}
</style>
<g>
	
		<image style="overflow:visible;opacity:0.2;enable-background:new    ;" width="102" height="99" xlink:href="E26F4DBBC1DA0E61.png"  transform="matrix(0.8848 0 0 0.8848 -0.2508 0.5634)">
	</image>
	<g>
		
			<linearGradient id="SVGID_1_" gradientUnits="userSpaceOnUse" x1="14.8281" y1="45.75" x2="75.2281" y2="45.75" gradientTransform="matrix(1 0 0 -1 0 82)">
			<stop  offset="0" style="stop-color:#ED1943"/>
			<stop  offset="1" style="stop-color:#EF4345"/>
		</linearGradient>
		<path class="st0" d="M45,64.9c-0.8,0-1.6-0.3-2.2-0.8c-6.6-5.5-27.9-24.6-27.9-36.9c0-11.5,7.3-19.6,17.8-19.6
			c3.7,0,7.6,1,11.6,2.9c0.2,0.1,0.5,0.2,0.8,0.2s0.5-0.1,0.8-0.2c4-1.9,7.9-2.9,11.6-2.9c10.5,0,17.8,8.1,17.8,19.6
			c0,12.3-21.4,31.3-27.9,36.9C46.6,64.6,45.8,64.9,45,64.9z"/>
		<path class="st1" d="M57.4,9.4c9.4,0,16,7.3,16,17.8c0,9.2-14.1,24.4-27.3,35.5c-0.4,0.3-0.8,0.4-1.1,0.4s-0.7-0.1-1.1-0.4
			C30.7,51.5,16.6,36.4,16.6,27.2c0-5.1,1.6-9.6,4.5-12.8s6.9-5,11.5-4.9l0,0c3.4,0,7,0.9,10.8,2.8c0.5,0.2,1,0.4,1.6,0.4
			s1.1-0.1,1.6-0.4C50.3,10.3,54,9.4,57.4,9.4 M57.4,5.8c-3.8,0-7.9,1-12.4,3.1c-4.4-2.1-8.6-3.1-12.4-3.1C21,5.8,13,15,13,27.2
			C13,40,33.4,58.5,41.6,65.4c1,0.8,2.2,1.2,3.4,1.2s2.4-0.4,3.4-1.2C56.6,58.5,77,40,77,27.2C77,15,69,5.8,57.4,5.8L57.4,5.8z"/>
	</g>
</g>
</svg>
