<?xml version="1.0" encoding="utf-8"?>
<!-- Generator: Adobe Illustrator 24.0.0, SVG Export Plug-In . SVG Version: 6.00 Build 0)  -->
<svg version="1.1" id="Layer_1" xmlns="http://www.w3.org/2000/svg" xmlns:xlink="http://www.w3.org/1999/xlink" x="0px" y="0px"
	 width="140px" height="140px" viewBox="0 0 140 140" style="enable-background:new 0 0 140 140;" xml:space="preserve">
<style type="text/css">
	.st0{enable-background:new    ;}
	.st1{fill:#C48A32;}
	.st2{fill:#E39F3B;}
	.st3{fill:#FAAF40;}
	.st4{fill:#D79837;}
	.st5{fill:#F6B47D;}
	.st6{fill:#E2DEDA;}
	.st7{opacity:0.4;fill:#4D4D4F;enable-background:new    ;}
	.st8{fill:#141A19;}
	.st9{fill:#E8A675;}
	.st10{fill:#333434;}
	.st11{fill:#8393C9;}
	.st12{fill:#A56F32;}
	.st13{fill:#E9AA7A;}
	.st14{fill:#FFFFFF;}
	.st15{fill:#DD9E76;}
	.st16{fill:#262261;}
	.st17{fill:#6A628C;}
	.st18{clip-path:url(#SVGID_2_);}
	.st19{fill:#E6E7E8;}
	.st20{fill:#49BEAF;}
	.st21{fill:#F1F1F2;}
</style>
<g>
	<g class="st0">
		<g>
			<polygon class="st1" points="70.9,64.3 76.4,62.7 89.8,57.2 84.3,58.9 			"/>
		</g>
		<g>
			<polygon class="st2" points="77.5,28.7 82.9,27 67.9,25.4 62.4,27 			"/>
		</g>
		<g>
			<polygon class="st2" points="97.9,72.6 103.3,70.9 100.6,49.8 95.2,51.4 			"/>
		</g>
		<g>
			<polygon class="st2" points="90.9,32.8 96.4,31.1 89.5,10.6 84.1,12.2 			"/>
		</g>
		<g>
			<polygon class="st3" points="84.1,12.2 77.5,28.7 62.4,27 73.4,44.8 70.9,64.3 84.3,58.9 97.9,72.6 95.2,51.4 106,40.3 
				90.9,32.8 			"/>
		</g>
		<g>
			<polygon class="st1" points="95.2,51.4 100.6,49.8 111.4,38.7 106,40.3 			"/>
		</g>
		<g>
			<polygon class="st4" points="106,40.3 111.4,38.7 96.4,31.1 90.9,32.8 			"/>
		</g>
	</g>
</g>
<g>
	<path class="st5" d="M34.7,50.2c0,0-1.5-1.7-1.9-2.3c-0.4-0.5-0.1-1.6,0.3-1.9c0.3-0.3,1-0.8,2-0.1c1,0.7,2.5,2.4,2.5,2.4
		S36.6,50.1,34.7,50.2z"/>
	<path class="st6" d="M52.9,43.7c-0.7-0.7-3.9,2.9-4.7,4s-4.7,5.8-4.7,5.8c-0.6-0.6-4.6-4.7-6.1-5.7c-0.8-0.2-3.1,1.1-2.7,2.4
		c0.9,1.8,7.3,9.2,8.2,9.8s6.9-4.5,7.4-5.3C50.9,53.9,54.4,45.4,52.9,43.7z"/>
	<ellipse class="st7" cx="53.8" cy="130.3" rx="12.8" ry="5.1"/>
	<path class="st8" d="M49.8,129.8c-0.6,0.2-2.2,0.7-2.3,1.6c-0.1,0.9,1.1,1.6,2.1,1.5c1-0.1,3-0.3,3.9-0.6c1-0.3,3.2-2.8,3.6-3.4
		c0.4-0.6,1-1.6,1.1-2.1c0.1-0.5-0.9-2.7-1.4-2S49.8,129.8,49.8,129.8z"/>
	<path class="st9" d="M50.2,99.6c-0.9-1,0.7,6,1.7,9.5c1,3.5,1.7,13.1,1.4,14.3c-0.3,1.3-1.4,3.7-2.2,4.7c-0.8,1-2.1,1.7-1.3,2.1
		c0.9,0.4,2.1,0.5,3.5-0.6c1.3-1,3.3-2.6,3.8-4.4c0.3-1-0.5-2-0.6-3c-0.4-3.8,1.3-11.2,1.4-14.8c0.2-3.6-1-5.9-1.6-6.3
		S51.1,100.5,50.2,99.6z"/>
	<path class="st8" d="M61.8,126.2c0.4,0.3,1.3,2.3,0.8,3.6c-0.4,1.3-4.6,5-6.1,5.4c-2.4,0.6-4.1,0.3-4.6,0c-0.5-0.3-0.6-1.9,0.2-2.6
		c0.4-0.4,2.2-1.7,3.2-1.9C56.2,130.3,61.8,126.2,61.8,126.2z"/>
	<path class="st5" d="M63.2,100.9c0.6,0.9,2,6.5,0.8,12.8c-1.2,6.3-2.5,9.4-2.5,10.8c0,1.3,0.9,2.5,0.2,3.8c-0.7,1.3-4,4.2-5.3,4.4
		s-2.8,0.3-2.1-1c0.8-1.3,4.2-5.4,4.4-6.4c0.2-1,0.1-14.8-0.2-16.1c-0.2-1.3-0.7-1.9-1-3.7c-0.3-1.8-0.6-3.9-0.4-4.7
		C57.3,99.7,63.2,100.9,63.2,100.9z"/>
	<path class="st10" d="M49.8,70.6c-0.3,2.7-0.9,16-0.5,19.1c0.3,3.1,0.2,8.5,0.2,9.1c-0.1,0.6,3.2,3.4,8.5,3.2
		c5.4-0.2,6.6-1.8,6.6-1.8S64.4,89.5,65,86c0.6-3.6,1.6-4,1.3-8c-0.2-4-2-7.3-2-7.3L49.8,70.6z"/>
	<path class="st11" d="M51.8,46.1c-1,3.1-2.4,6.3-2.4,8.1c0,1.8,1.3,4.1,1.8,4.4c0.6,0.3-0.2,4.8-0.7,6.1c-1.1,2.8-0.8,5.9-0.8,5.9
		s5.4,0.9,8.4,0.8s6.1-0.7,6.1-0.7s0.7-16.8,1.1-19.6c0.4-2.8,3-3.1,1.8-5C64.8,42.2,53.8,40,51.8,46.1z"/>
	<path class="st12" d="M51.3,37.1c-0.3,1.5,0.4,10.9,0.5,12.7c1.5-1,4.1-4.5,4.5-7.4C56.6,39.5,51.3,37.1,51.3,37.1z"/>
	<path class="st13" d="M56,41.6c0.4,0.5,0.4,5.8,0.4,5.8s3.8-1.1,4.2-2.5c0.4-1.4,0.2-9.4,0.2-9.4L56,41.6z"/>
	<path class="st14" d="M59.6,46.1l-3.2,1.3l-0.2-5l-1.6,4c0,0,0.1,4,0.4,4.7c1.9-1.1,3.7-2,4-2.5C59.3,48.1,59.6,46.1,59.6,46.1z"/>
	<path class="st15" d="M56,41.6c0,0,2.8-4,3.2-4.6c0.4-0.5,1.5,0.9,1.5,0.9s-0.1,1.1-0.4,1.8C60.1,40.4,58.6,41.4,56,41.6z"/>
	<path class="st5" d="M54.4,42.2c-2.2,0.1-3.2-2.7-3.4-6.7s0.8-7.5,1.5-8.2c0.7-0.7,7.8,2,8.5,3.9c0.7,1.9,0.9,6.5-1.8,6.6
		C59.3,39.2,56.6,42,54.4,42.2z"/>
	<g>
		<path class="st10" d="M65,45.5c-2.3-0.9-6.3,6.5-6.6,10.3c-0.3,3.8,0,5.5,0,5.5h-1.9c0,0,0.6-8.8,3.6-13.2c3-4.4,4.1-3.8,5-3.8
			c0.9,0,4.7,1.5,6.5,14.5c-1,0.9-1.7,0.7-1.7,0.7S70.2,47.6,65,45.5z"/>
		<path class="st10" d="M56.6,60.9c-0.9,0.7-1.3,5.2-1.1,7.6c0.8,1.1,2.9,2.3,2.9,2.3s12.5-1.2,15.1-3.3c0.7-3.4-1.9-9.4-2.3-10
			C70.7,56.8,61.1,57.1,56.6,60.9z"/>
	</g>
	<path class="st5" d="M61.4,55.5c0,0-1.6-2.6-2.2-3.3c-0.6-0.7-2.1-0.5-2.6-0.1c-0.5,0.3-1.3,1.1-0.6,2.6c0.7,1.5,3,3.5,3,3.5
		S60.9,58,61.4,55.5z"/>
	<path class="st6" d="M64.4,45.5c2.3-0.6,3.2,0.7,3.9,2.8c0.7,2.1,2.7,13,2.7,15.3c0,2.3-2.8,3-4.2,2.4c-1.4-0.6-6.5-4.7-8.8-9
		c1.3-0.7,2.5-1.8,2.9-2.4c2.4,2.1,3.7,3.3,3.7,3.3s-1.9-7.2-2.1-8.4C62.3,48.4,61.6,46.2,64.4,45.5z"/>
	<path class="st12" d="M51.1,33.1c-0.8-2.4-0.5-5.5,0.7-7.1s3-2.8,6-2.6c3,0.2,7,3.4,7.1,6.4s0.5,14.8,0.1,15.8
		c-0.5,1.1-1.2,5.7-7.8,6.1c2-2,2.4-6.2,2.6-7.1s0.1-6.9,0.1-6.9s1.4-0.7,1.4-2.9s-1.8-1.9-2.1-1.5c-0.3,0.5-1,0.7-1.5,0.2
		c-0.5-0.5-3.6-2.6-4.2-4.3C53,27.4,52,28.2,52,28.2S51.2,30.7,51.1,33.1z"/>
	<g>
		<path class="st16" d="M34.1,39.3l0,0.3l-2.9,2.5c-0.1,0.1-0.2,0.3-0.1,0.5l2.5,6.8l-0.2,0.2c-0.1,0.1-0.4,0-0.5,0
			c-0.1,0-0.2-0.1-0.3-0.3l-2.1-6.9c0-0.1,0-0.3,0.1-0.4l2.6-2.8c0.1-0.1,0.3-0.2,0.4-0.1C33.9,39.2,34.1,39.2,34.1,39.3z"/>
		<path class="st16" d="M33.5,49.6l3-3.1c0.1-0.1,0.1-0.3,0.1-0.4c0,0-1.9-6.5-2-6.7c-0.1-0.2-0.8-0.3-0.9-0.3l-2.4,3
			c-0.1,0.1-0.2,0.3-0.1,0.5l2.1,6.9C33.3,49.7,33.4,49.7,33.5,49.6z"/>
		<g>
			<path class="st14" d="M31.5,42.5l2.6-2.7c0.1-0.1,0.2-0.1,0.3,0.1l1.9,6.2c0,0.1,0,0.1,0,0.2l-2.6,2.7c-0.1,0.1-0.2,0.1-0.3-0.1
				l-1.9-6.2C31.4,42.6,31.4,42.6,31.5,42.5z"/>
		</g>
		<g>
			<path class="st17" d="M32,41.4l-0.5,0.5c-0.1,0.2-0.3,0.3-0.3,0.5c0,0.2,0.1,0.4,0.1,0.6l0.2,0.6l0,0l-0.2-0.6
				c-0.1-0.2-0.2-0.4-0.2-0.7c0-0.3,0.2-0.4,0.4-0.6L32,41.4L32,41.4z"/>
		</g>
		<g>
			<defs>
				<path id="SVGID_1_" d="M31.5,42.5l2.6-2.7c0.1-0.1,0.2-0.1,0.3,0.1l1.9,6.2c0,0.1,0,0.1,0,0.2l-2.6,2.7
					c-0.1,0.1-0.2,0.1-0.3-0.1l-1.9-6.2C31.4,42.6,31.4,42.6,31.5,42.5z"/>
			</defs>
			<clipPath id="SVGID_2_">
				<use xlink:href="#SVGID_1_"  style="overflow:visible;"/>
			</clipPath>
			<g class="st18">
				<polygon class="st19" points="34.3,43 33.4,43.9 34.3,44.1 35.1,43.2 				"/>
				<polygon class="st19" points="34.9,42.3 34.4,42.9 36.1,43.3 36.2,42.6 				"/>
				<polygon class="st19" points="35.7,41.5 35.1,42.2 36.3,42.5 36.4,41.7 				"/>
				<polygon class="st19" points="33.3,42.8 32.5,43.7 33.3,43.9 34.1,43 				"/>
				<polygon class="st19" points="33.6,39.8 32.1,41.4 32.9,41.6 34.4,40 				"/>
				<polygon class="st19" points="34.4,41.6 33.7,42.4 34.5,42.6 35.2,41.8 				"/>
				<polygon class="st19" points="33.6,42.4 33.4,42.7 34.2,42.9 34.4,42.6 				"/>
				<polygon class="st19" points="32.2,45.2 31.4,46.1 32.2,46.3 33,45.4 				"/>
				<polygon class="st19" points="33.3,44.1 32.6,44.8 33.4,45 34.1,44.3 				"/>
				<polygon class="st19" points="32.5,44.9 32.3,45.1 33.1,45.3 33.3,45.1 				"/>
				<polygon class="st19" points="32.3,43.8 31.7,44.5 32.5,44.7 33.1,44 				"/>
				<polygon class="st19" points="31.3,43.6 30.7,44.3 31.5,44.5 32.1,43.8 				"/>
				<polygon class="st19" points="34.4,40.2 33.8,40.9 34.6,41.1 35.3,40.4 				"/>
				<polygon class="st19" points="32.2,42.6 31.4,43.4 32.2,43.6 33.1,42.8 				"/>
				<polygon class="st19" points="30.5,43.1 30.4,43.2 31.2,43.4 31.9,42.7 				"/>
				<polygon class="st19" points="31.2,42.3 30.7,42.9 32,42.5 				"/>
				<polygon class="st19" points="31.9,41.6 31.3,42.2 32.2,42.4 32.7,41.8 				"/>
				<polygon class="st19" points="32.5,42.5 33.2,42.6 33.7,42.1 				"/>
				<polygon class="st19" points="33.7,41 32.4,42.4 33.8,41.9 34.5,41.2 				"/>
				<polygon class="st19" points="33.8,44.8 33.3,45.4 34.1,45.6 34.6,45 				"/>
				<polygon class="st19" points="33.1,45.5 31.9,46.9 32.7,47.1 34,45.7 				"/>
				<polygon class="st19" points="34.1,44.7 34.8,44.9 35.2,44.4 				"/>
				<polygon class="st19" points="35.3,43.3 34,44.6 35.4,44.2 36.1,43.5 				"/>
				<polygon class="st19" points="35.5,47.1 34.6,47.9 35.5,48.1 36.3,47.3 				"/>
				<polygon class="st19" points="35.8,44.1 34.3,45.7 35.1,45.9 36.6,44.3 				"/>
				<polygon class="st19" points="36.6,45.9 35.8,46.6 36.7,46.8 37.4,46.1 				"/>
				<polygon class="st19" points="35.8,46.7 35.6,46.9 36.4,47.1 36.6,46.9 				"/>
				<polygon class="st19" points="34.5,48.1 33.9,48.8 34.7,49 35.3,48.3 				"/>
				<polygon class="st19" points="33.5,47.8 32.9,48.5 33.7,48.7 34.3,48 				"/>
				<polygon class="st19" points="36.6,44.5 36,45.2 36.8,45.4 37.4,44.7 				"/>
				<polygon class="st19" points="34.4,46.8 33.6,47.7 34.4,47.9 35.2,47 				"/>
				<polygon class="st19" points="32.7,47.3 32.6,47.5 33.4,47.7 34.1,46.9 				"/>
				<polygon class="st19" points="33.4,46.6 32.9,47.2 34.2,46.8 				"/>
				<polygon class="st19" points="34.1,45.8 33.5,46.5 34.4,46.7 34.9,46 				"/>
				<polygon class="st19" points="34.7,46.7 35.4,46.9 35.8,46.4 				"/>
				<polygon class="st19" points="35.9,45.3 34.6,46.6 36,46.2 36.7,45.5 				"/>
				<path class="st20" d="M32.9,42.3c0,0.1-0.1,0.5-0.1,0.5s-0.3-0.2-0.3-0.3s0-0.3,0.1-0.3C32.8,42.1,32.9,42.1,32.9,42.3z"/>
				<circle class="st21" cx="32.8" cy="42.3" r="0.1"/>
			</g>
		</g>
	</g>
</g>
</svg>
