<?xml version="1.0" encoding="utf-8"?>
<!-- Generator: Adobe Illustrator 24.0.0, SVG Export Plug-In . SVG Version: 6.00 Build 0)  -->
<svg version="1.1" id="Layer_1" xmlns="http://www.w3.org/2000/svg" xmlns:xlink="http://www.w3.org/1999/xlink" x="0px" y="0px"
	 width="284.2px" height="284.2px" viewBox="0 0 284.2 284.2" style="enable-background:new 0 0 284.2 284.2;" xml:space="preserve"
	>
<style type="text/css">
	.st0{fill:#44A848;}
	.st1{fill:#008F4A;}
	.st2{opacity:0.3;fill:#4D4D4F;enable-background:new    ;}
	.st3{fill:#4DB648;}
	.st4{fill:#1C9B4A;}
	.st5{fill:#0071BB;}
	.st6{fill:#70CCB9;}
	.st7{opacity:0.2;fill:#004577;enable-background:new    ;}
</style>
<g>
	<path class="st0" d="M137.9,225c-17-8.2-43.2-4.6-70.2-20s-25.9-53-65.6-44.8c53.5-30.6,87.6-16.9,106.7-5.8
		C127.9,165.5,150.1,207.9,137.9,225z"/>
	<path class="st1" d="M137.9,225c-17-8.2-43.2-4.6-70.2-20s-25.9-53-65.6-44.8c0,0,37.4-17.7,88.1,11.4
		C128.3,193.6,137.9,225,137.9,225z"/>
</g>
<ellipse class="st2" cx="143.9" cy="259.6" rx="73.7" ry="10.3"/>
<g>
	<path class="st3" d="M155,222.7c15.7-3.8,37,3.9,62.3-4.2s31.2-39.8,62.9-25.8c-39.3-35.2-70.4-29.8-88.3-23.9
		C174,174.7,147.8,206.2,155,222.7z"/>
	<path class="st4" d="M155,222.7c15.7-3.8,37,3.9,62.3-4.2s31.2-39.8,62.9-25.8c0,0-28.2-21.5-75.8-6.1
		C168.6,198.1,155,222.7,155,222.7z"/>
</g>
<g>
	<path class="st3" d="M138.3,225c-16.1-1.3-36,9.6-62.2,5.6S39,196.2,9.8,215c33.3-40.9,64.8-40.5,83.5-37.5S142.7,207.6,138.3,225z
		"/>
	<path class="st4" d="M138.3,225c-16.1-1.3-36,9.6-62.2,5.6S39,196.2,9.8,215c0,0,24.5-25.7,73.9-17.9
		C121,202.9,138.3,225,138.3,225z"/>
</g>
<g>
	<ellipse class="st5" cx="143.2" cy="131.3" rx="94.3" ry="94.3"/>
	<g>
		<path class="st6" d="M222.8,176.6c0,0-2.4,0.4-2.8,0.5c-0.4,0.1-1.5,0.2-1.8,0.6c-0.4,0.4-0.5-0.1-1.8,0.2c-1.3,0.4-1.7,0.1-1-1.3
			c0.8-1.5,0.2-1.8,0.1-2.9c-0.1-1.1,1.5-1.7-1.2-1.8c-2.7-0.1-2.8-0.6-4.6,0.4c-1.8,1.1-3.3,2.2-3.3,2.2l-1.8-1.1
			c0,0-2.2-2.3-2.5-2.4c-0.4-0.1-1.9-0.1-1.9-0.1s-0.4-1.3-0.1-2.5c0.2-1.2-0.1-1.6-1-1.2c-0.8,0.4-2.3,1.2-2.3,1.2
			s-2.4,0.2-3.9,1.1c-1.5,0.8-1.6,1.3-4,1.1c-2.4-0.2-2.5,1.8-4.4,0.6c-1.8-1.2-2.8-1.6-3.6-2.5c-0.8-1-1.3-0.4-1.1,1
			c0.2,1.4,1.9,1.1,0.2,1.7c-1.8,0.6-2.7-0.2-2.4,1.8c0.3,2,0.4,3.5-0.2,3.5c-0.6,0-1.9-1.5-1-2.8c1.1-1.3,0.1-2.1,0.1-2.1
			s0.4-1,1.1-1.1c0.6-0.1,1.2-1.6-0.1-1.4c-1.3,0.2-1.2-0.4-1.5,0.8c-0.3,1.1-0.6,1.4-1.8,1.7c-1.3,0.3-1.4,0-2.4,0.6
			c-1,0.6,0,1-1.4,1s-1.8,0.4-1.8,1.5s-0.4,1.1-1.1,1.8c-0.6,0.6-0.8,0.8-1.2,1.3s-0.4,0.8-0.4,1.1c-0.1,0.2-0.6,0.4-1,0.2
			c-0.3-0.1-0.8-0.8-1.9-1.5c-1.2-0.8-1.9-1.1-3.3-1.1c-1.4,0-2.6,2.8-4.5,1.9c-1.9-1-1.7-1.1-2.8-1.8c-1.1-0.8-0.8-0.9-1-1.8
			c-0.2-1-0.6-1.1-0.1-1.9c0.5-0.8,0.6-1.3,0.5-3c-0.1-1.6,1.2-3.9,0-4.6c-1.2-0.6,1.4-0.8-2.4-1c-3.8-0.1-3-1-5.6-0.5
			c-2.5,0.4-3.9,0.8-4.6,0.6c-0.8-0.1-1.8-0.3-0.5-1.5c1.3-1.2,1.8-0.4,1.7-1.9c-0.1-1.5-0.6-2.7,0.2-2.3c0.8,0.4,1.3-0.2,1.8-1
			c0.5-0.6-0.9-2,0.5-3.2c1.4-1.1,2.6-1.8,0.4-1.8c-2.2,0-0.4-1-3.2-0.8c-2.8,0.2-2.7,0.1-2.8,1c-0.1,0.9-2.2-0.8-1.2,1.3
			c1,2.2,1,3.2,0.1,3.3c-0.9,0.1-0.2-0.1-2.3,0.3c-2.1,0.4-3.3,1.8-3.9,0.9c-0.5-1,0.3-1.3-1.2-1.3c-1.5,0-1.7,0.6-2.3-1.5
			c-0.5-2.2-2.8-3.9-1.8-3.9s0.9-1.1,0.4-2.2s-0.3-2.7-0.3-3.9s-0.1-3.2,0.8-2.5c0.9,0.8,1,0.2,1-1c0-1.3-1.1-2.2-0.2-3.2
			c0.8-1.1-0.1-1.1,1.6-1.7c1.7-0.6,1.2-0.8,2.9-0.8c1.7-0.1,1.6,0.2,2.4-0.4c0.6-0.8,0.1-2.2,1-1.4c0.9,0.8,0.4,0.5,2.2,0.4
			c1.8-0.1,2.8,0.6,3-0.8c0.2-1.4-0.5-1.5,1.6-1.6c2.2-0.1,3.1-0.2,4.1-0.2c1,0.1,1-0.6,1.2,0.5c0.2,1.1,1.3,0.6,2.1,0.5
			c0.8-0.1,0.9-1.2,1.6-0.5c0.8,0.6,2.4,1.4,2.7,2.2c0.3,0.8,0.6,1.1,0.3,2.4c-0.3,1.3-1,1.7-0.2,2.4c0.8,0.6,1.2,0.3,1.3,1.3
			c0.1,1,0.9,1.8,1,2.4c0.1,0.4,1.1,0.8,1.5,0.6c0.4-0.1,1.7-1.3,0.8-4.7c-1-3.6-0.4-3.7-0.9-5.6c-0.4-1.9-0.8-2.2,0.4-3.9
			c1.2-1.7,1.5-2.4,2.8-3c1.4-0.6,1.8-1.1,2.9-2.7c1.1-1.6,2.1-2.2,3.3-2.7c1.3-0.6,0.2-0.8,0.2-1.4c0-0.6,0.9-0.3,1.5-0.6
			c0.5-0.3,1-0.4,0.6-1c-0.3-0.5-1.1,0.1-1-0.3c0.1-0.4,1.5-1.2,1.1-1.6c-0.3-0.4-0.9-0.5-1.5-0.2c-0.6,0.3-1.4,0.1-1.1-0.3
			s0.8,0.2,0.6-1.1c-0.1-1.3-1.1-3-0.6-3.7c0.4-0.6,0.5-1.4,0.6,0.6c0.1,2.1-0.2,4.1,0.8,3.5c1-0.6,1.7-1.1,1.2-2.3
			c-0.5-1.2-1.3-1.8-0.3-1.4c1,0.4,0.8,1.7,1.4,1c0.6-0.8,1.6-1.6,1.1-2.4c-0.6-0.6-0.1-1.4-0.1-1.8c0-0.4-0.6-1.1,0.4-1.1
			s2.1,0.6,2.6-0.3c0.5-1,1-1.2,0.2-1.1c-0.8,0.1-1.5,0.8-2,0.6c-0.4-0.1,0.9-0.9,1.9-1.1c1.1-0.2,0.1-0.5,1.1-0.5
			c1.1,0,2.4,0.2,2.4-0.4c0-0.6-1-1.5-1.4-1.2c-0.4,0.2-0.6,0-0.6-0.6c0-0.6,0.8-1,1.1-1.7c0.3-0.8,1.6-1.9,1.9-2.2
			c0.3-0.2,1.7,0.5,1.9-0.4s0.3-1.3,0.5-1.4c0.2-0.1,0.6,0.2,1-0.3c0.3-0.6,0.8-1.9,0.9-1c0.1,1-0.2,1.1,0.6,0.4
			c0.9-0.8,1.2-1.6,1.2-1c0,0.5,0.3,1,0.6,0.5c0.3-0.4,0.3,0.5-0.2,0.6c-0.5,0.1-1.4-1-1.3,0.1c0.1,1.1-0.3,0.3-0.4,1.3
			c-0.1,1-0.1,2.9,1.1,1.9c1.2-1,1-1.7,1.7-2.3c0.8-0.5,2-1.2,2-1.2l1.2-1.5c0,0,0.9-0.5-0.1-0.5c-1.1,0-0.8-0.2-1.5,0.1
			c-0.9,0.3-1.2,0.2-1.6-0.2c-0.4-0.4-0.3-0.5-1.3-0.4c-1,0-1.1,0.2-1.5-1.2c-0.4-1.4,1-1.3-0.4-1.4c-1.5-0.1-1.3,0-2.2,0.2
			c-0.9,0.3-1.2,0-0.6-0.4s1.3-0.2,2-0.6c0.8-0.3,1.9-0.2,1.3-1.1c-0.8-0.9-2-1.1-2-1.1L178,90l-1.8,1.6c0,0-1,1.3-1.5,2.1
			c-0.5,0.8-1.5,1.4-1,0.4s1.3-2.4,2-3.2c0.8-0.8,1.3-1.1,1.9-1.7s0.6-2.2,1.6-2.3c1-0.2,1.9-0.1,3.7-0.2c1.7-0.2,3.8-0.3,4.4-0.6
			s0.8-0.9,1-1.5c0.2-0.6,0.2-0.5,1.3-0.8c1-0.2,1-1.4,1-1.9s-1.1-0.8-1.3-1.5c-0.2-0.8,0.1-1.4-0.5-1c-0.5,0.4-0.4,1.4-0.6,1
			c-0.3-0.4,0.5-1.5-0.6-1.2c-1.1,0.2-0.5-0.1-1.6,1.1c-1.1,1.2-1.7,1-1.1,0c0.6-1,2-1.6,2.5-1.8c0.4-0.2-0.9-0.4-2.3-0.6
			c-1.4-0.2-2.3-0.9-2.6-1.2c-0.3-0.3-1-0.3-1.1-0.3c-0.1,0-0.3-0.5-1.7-1.7c-1.4-1.3-3.1-3-4-4c-0.9-1-1.1-2.5-1.3-1.1
			c-0.2,1.4,0.5,2-0.3,2.5c-0.9,0.5-0.5,0.8-1.4,1c-0.9,0.2-0.5,0.1-1.3-0.2c-0.8-0.2-1.5,0.3-1.5-0.2c0-0.5,1.5,0.2,0.1-1.1
			c-1.3-1.3-0.5-0.5-0.5-1.5s-1.8-1.1-3-1.4c-1.1-0.2-0.5-0.9-2-1c-1.5-0.1-2.5-0.3-2.8-0.4c-0.4-0.1-2.9-0.5-2.9-0.5s-1-1.2-1,0.2
			c0,1.5,0,1.6,0,2.3c0,0.6,0.8,1.5,0.8,1.5s1-0.6,1.2-0.1c0.2,0.5-1.6,0.9-2.1,1.2c-0.4,0.3-0.6,0.1,0.3,0.9s1.8,1,2.1,1.5
			c0.2,0.5,0.6,1.4,0.6,1.4s1.1,0.8,0.5,0.8c-0.5,0.1-0.4,0.2-1.2,1.2c-0.8,1-1.7,1.6-2.5,1.9c-0.8,0.2-0.9,0.3-0.5,1.3
			c0.2,1,1.1,0.8,1.2,1.6c0.2,0.9-0.3,0.3,0.3,1.5c0.6,1.2,0.6,1.2,0.6,1.2s-0.6-0.6-0.3,0.3c0.4,1,0.3,1.6-0.2,0.8
			c-0.5-0.9-0.2-1.1-0.8-0.6c-0.4,0.4-0.5,0.5-0.1,1.2c0.4,0.6,0.9,1.7,0.4,1.1c-0.4-0.6-0.5-1.4-1.2-1.1c-0.8,0.3-1.2,1-1.5,0.9
			s0-1,0-1L156,85l-1.1-0.9c0,0-1.5,0.4-1-0.2c0.5-0.6-0.4-0.9-0.6-0.9c-0.3,0-1.3-0.8-0.5-0.8s0.9,0.1,1.2-0.4
			c0.3-0.5-0.2-1.2-0.4-1.6s0.2-1.5-0.8-1.5c-1,0-2.7,0.2-3,0c-0.3-0.2-0.9-0.8-1.6-1c-0.8-0.2-1.7,0.1-2.2,0.1
			c-0.3,0-0.1-0.5-0.4-0.9c-0.2-0.3-1.2-0.6-1.5-0.6c-0.2,0-0.6-0.1-0.6-0.1s-0.6-0.2-0.6-1.1c0-0.9-0.5-1.6-1.1-1.1
			c-0.5,0.4-1,1-1,1s-1.1-1.4-0.9-1.9c0.1-0.6,0.6-0.3,0.6-1c0-0.6,0.1-0.1,0.6-1s0.6-1.7,1.6-1.6s1.6,0.3,1.6-1
			c0.1-1.3,0.2-2.8,1-3.2c0.8-0.5,0.1,0.1,1.2-0.6c1.1-0.8,1.7-1.1,1.1-1.3c-0.6-0.2-1.1,0.2-1.6-0.2c-0.5-0.4-1.4-0.9-0.2-0.8
			c1.1,0.1,1.6,0.8,2.2,0.6c0.5-0.2,1.3-1,1.4-1.2c0.1-0.2,0.3,0.1,0.6-0.2c0.3-0.3,0.1-0.6,0.9-0.3c0.8,0.3,1.1,0.4,1.1-0.2
			s0.8-0.9,0.8-1.4c0-0.5-0.6-0.2-0.9-1.1c-0.2-0.9-0.5-1.6-0.9-1.8c-0.3-0.2-0.9-0.8-1.4-0.3c-0.5,0.4-0.9,0.4-0.8,1
			c0.1,0.5-0.2,1.1-0.2,1.1s-0.2,0.2-0.9,0.8c-0.6,0.6-0.5,1.9-1.1,0.4s-0.4-1.9-1-2.2c-0.5-0.2-0.5-0.1-1,0c-0.4,0.1-0.5,0.1-1.2,0
			c-0.6-0.1-1-0.4-1.1,0c-0.1,0.5,0,1,0.2,1.1c0.2,0.1-0.1,0.2-0.9,0.6c-0.8,0.4-1.1,0.6-1.1,0.6s1,0.5,0.3,0.9
			c-0.5,0.3-0.4,0.4-0.8,0.3c-0.3-0.2-0.9-0.4-0.6-1s0-0.2,0.4-0.8c0.4-0.6,0.9-0.9,1-1.1c0-0.2-0.3-0.6-1-1c-0.6-0.3-1.1-1-1.5-0.5
			c-0.5,0.4-1,0.8-1.1,1c-0.1,0.2,0.6,0.1,1,0.2c0.3,0.1,0.5,0.8,0.5,0.8s0,0.3-0.4,0.5c-0.3,0.1-1,0.4-1,0.4s0.8,0.6-1-0.1
			c-1.7-0.6-2.3-1.2-3.7-1.9c-1.4-0.8-1.5-1.4-1.9-0.8c-0.4,0.6,0.3,0.9-0.8,1c-1.1,0.2-1.3,0.1-1.5,0.5c-0.2,0.4-0.3,1.1-0.3,1.1
			l-0.1,0.6c0,0-0.4,0.6-0.5,0.6s-0.5-0.1-0.6-0.2c-0.1-0.1,0.2-0.9,0.2-1.1s-0.5-1-0.5-1s-0.4-0.9-1.1-0.6
			c-0.6,0.1-1.6,0.2-1.6,0.2s-1.6-0.5-1.5-0.8c0.1-0.2,1-0.2,1-0.4s0.2-0.3-0.8-0.4c-1.1-0.1-2.7-0.5-2.7-1.4c0-0.8-0.6-0.9-1.5-0.9
			c-1,0,0-0.9-1.1-0.4c-1.1,0.3-1.6-0.1-1.6-0.1s0.4-0.4-1.2-0.4c-1.6,0-1.1,0.1-1.8,0.3c-0.8,0.2-0.8,0.1-0.9-0.3
			c-0.1-0.4-0.8-0.5-1.3-0.5c-0.5,0.1-0.9,0.4-0.9,0.4s0-0.5-0.4-1.4c-0.4-0.9,0.1-0.6-0.9-1c-1-0.3-1.9-0.8-1.3-1.1
			c0.6-0.3,1.8-1.1,1.1-1.6c-0.8-0.5-0.6-0.6-1.9-0.3c-1.3,0.3-1.7-0.2-2.3,0.3c-0.4,0.6,0.1,0.5-1.4,1.1c-1.4,0.5-1.1,0.2-1.7,1.2
			c-0.6,1-0.6,1.2-0.9,0.9c-0.2-0.3,0.1-1.4,0.8-2.2c0.3-0.3,0.8-1.1,1.1-1.6c-1.3,0.6-2.5,1.3-3.7,1.9c-0.3,0.3-0.5,0.5-0.5,1
			c-0.2,1.3,0.6,1.8-0.3,2.1c-1,0.2-1.3,0.9-1.8,1c-0.5,0-0.2-0.4-1.5-0.5c-0.6,0-1-0.2-1.3-0.2c-1.9,1.3-3.9,2.6-5.7,4.1
			c1,1.2,0.9,2.2,0.9,2.2l-2.5,1.6l-3.2,1c0,0,1.1,1,3.1,0.4c1.9-0.4,3.2-2.8,3.1-1.8c-0.1,1-1.2,1.4-1.8,2.1
			c-0.6,0.6,2.1-0.2,2.6-0.9c0.5-0.6,1.1-3.1,1.8-2.6c0.8,0.5,0.9,1.4,0.9,1.4l-1.1,1.1l1.6,0.9l2.5,1.3c0,0,0.1,0,0,0.8
			c-0.1,0.8-0.5,0.9-0.3,1.2c0.2,0.3,0.2,0.2-0.2,1c-0.4,0.6-1,1.4-1.1,1.7c-0.1,0.3,0.4,0.4,0.6,0c0.2-0.4,0.5-1.1,0.5-1.1
			s0.9-1.5,1.1-1.4c0.2,0.2,0.3,0.6,0.3,0.6l-0.6,1.6c0,0-0.1,0.4-0.1,0.9c-0.1,0.4,0,0.5-0.2,0.6c-0.2,0.2-0.8-0.6-0.2,0.2
			c0.5,0.8,0.3,0.8,0,1.2c-0.3,0.3-0.6,0.4-0.2,0.8c0.4,0.3,1-0.5,1.2-0.2c0.2,0.2,0.5,0,0.3,0.5c-0.1,0.5,0.5,0.9,0,1.2
			c-0.5,0.3-1.3-0.4-1.5-0.3c-0.3,0.1-0.4,0.1-0.5,0.4s-0.4,0.5,0,0.9c0.4,0.2-0.1,0.6-0.1,0.9s2.4-0.8,1.5,0
			c-0.9,0.8-1.1,0.8-1.3,1.5c-0.2,0.8-0.8,1.3-0.2,1.3s1-0.8,1.4-0.8s0.1,0.4-0.3,0.8c-0.4,0.4-1.2,0-1.4,0.5s-0.4,0.6-0.8,1
			c-0.4,0.3-0.3,0.4,0.2,0.9s1.8-0.2,1.7,0c-0.2,0.2-0.4,0.2-0.6,0.4C93.9,80.7,93.6,81,94,81c0.4-0.1,0.8-0.2,1.1-0.3
			c0.2-0.2,1-0.6,0.5-0.1C95.3,81,95,80.9,95,81.2c0.1,0.3,0.2,0.1,0.1,0.4c0,0.3,0,0.5,0.1,0.6c0.2,0.1,0.6-0.1,0.6-0.3
			c0.1-0.2,0.5-0.2,0.3,0.1c-0.2,0.3-0.6,0.6-0.4,1c0.2,0.3,0.4,0.6,0.4,0.6l-0.3,0.8l-0.8,0.2c0,0-0.2,1.1-0.5,1.7
			c-0.3,0.6-0.8,1.9-0.8,1.9h-0.6l0.1-2.3c0,0-0.2-1.4-0.3-1.5c-0.1-0.1-0.4-0.2-0.6,0.2c-0.2,0.4-0.3,1-0.3,1s0,0.5-0.2,0.9
			c-0.2,0.3-0.3,1.1-0.3,1.1s-0.9,0.4-1.4,1.7c-0.5,1.4-0.9,1.4-1.2,2.5c-0.2,1.2,0.2,1.8-0.9,2.5s-1.2,0.2-1.5,1.5
			c-0.3,1.2,0.2,1.3-0.4,2.5c-0.5,1.1-1,1.1-1,2.1c-0.1,1-0.4,1.8-0.4,2.6c0,0.8-0.5,1.4,0,1.9s0.2,0.5,0.5,0.5c0.3,0,0.2-0.3,0.9,0
			c0.6,0.3,1.1-0.1,0.6,0.3c-0.4,0.4-0.6,0.8-0.6,0.8s-0.3-0.3-0.4,0.2c-0.1,0.6-0.8,0.5-0.6,0.9c0.1,0.3,0.6,0.9,0.6,0.9
			s-1.1,0.1-0.5,1.2s0.4,0.9,0.4,1.7c0,0.9,0.2,1.4,0.2,1.4l0.8,1.3l0.6,0.9c0,0-0.5,0,0.4,0.8c1,0.8,1-0.6,1.2,1
			c0.2,1.6,0.2,2.3,0.2,2.3l0.8,1c0,0,0.2,0.5,0.2,1.7c0,1.1,0,0.4,0,1.8c0,1.4,0,1.7,0.5,2.6c0.5,1,1.7,1.4,1.9,1.9
			c0.2,0.5,0.2,1.6,0.2,1.6s0,0.4,0.2,1.1c0.1,0.6-0.1,0.5-0.6-0.2c-0.5-0.6-1.1,0.1-1.1,0.1s-0.1,0.5,0.4,1.2
			c0.5,0.6,1.5,1.6,1.5,1.6s0.3-0.2,0.6,0.9c0.2,1.2,0.5,0.9,0.5,1.7c0,1-0.3,2.2,1.2,3.3c1.5,1.2,0.8,0.8,1.3,2.2s1.3,2.3,1.9,2.7
			c0.6,0.4,2.5,2.5,1.3,0c-1.2-2.5-1.7-2.3-2.3-3.1c-0.5-0.9,0-1.7-0.6-3.9c-0.8-2.3-1.8-4.4-2.2-5.9c-0.2-1.5-0.2-3.1-1.3-5.7
			c-1.2-2.6-1.8-4.1-0.8-3.5c1.1,0.8,2.4-0.5,2.5,1c0.1,1.5,0.2,3.8,0.2,3.8s0,0.4,1,2.7c1,2.3,1.6,2.4,2.1,2.8
			c0.4,0.4,0.8,1.8,0.8,1.8s1.9,0.8,1.9,1.5s-0.8,0.3,0,1.8c0.8,1.5-0.2,0.2,0.8,1.5c1.1,1.2,1.7,2.6,1.7,2.6l2.7,3.5
			c0,0,0,0.8,0.5,1.7c0.5,1,1.4,0.9,0.9,1.6c-0.6,0.8-1.4,1-1,1.2c0.4,0.2,0.5,0.3,0.2,0.6c-0.3,0.2,0.8,1.4,1.2,2.7
			c0.4,1.3,1.1,1.5,1.9,2.3s0.8,0.8,1.3,1.7c0.5,1-0.1,0.2,1.6,0.9c1.7,0.6,2.5,1.5,2.8,1.7c0.4,0.2,1.2,0.4,4.1,1.9
			c2.8,1.5,3.7,2.2,5.1,2.7c1.4,0.4,1.6,1.1,2.7,0.8c1.1-0.2,1.6-0.9,2.3-0.5c0.6,0.3,0.2,1.1,1.2,0.6c1-0.5,1.1-0.4,1.3,0.2
			c0.2,0.6,1.9,1.7,1.9,1.7s-1.3,0.6,0.9,1.9c2,1.2,4,2.2,4.6,2c0,0.1,0.2,0.3,0.8,0.5c2.1,1.2,2.7,1.9,3.2,2.6s1,1.8,0.9,2.3
			c-0.1,0.4,0.1,1,0.9,1.3c0.8,0.3,1.7,0.1,2.5,0.6s-0.2,0.8,1.3,1.4c1.5,0.6,2.3,0.8,2.3,0.8l0.8-0.3l2.2,0.3c0,0,1,0.5,1,1
			c0,0.4-0.4,0.8,0.3,1.1s1.3,0,1.3,0s2-0.3,1.6-1.1c-0.4-0.8-1.8-0.6-0.8-1.3s1.5-1,1.9-1.2s0.6-0.4,1.5,0.3
			c0.8,0.8,1.3-0.1,0.8,0.8c-0.4,1-0.5,1.2,0.2,1.3c0.6,0.1,1.2,0.4,1.2,0.4s0.9,0.3,0.9,0.9c0,0.4-0.6,0.3-0.6,0.9
			c0.1,0.6-1,0.4-0.4,1c0.4,0.6-0.4,0.9-0.1,1.5c0.3,0.6-0.6,0.8,0.1,1.6c0.8,1,0.2,1.7-1.1,2.2c-1.3,0.4-0.8-0.6-1.5,0.8
			s-0.5,1.5-1.2,1.6c-0.6,0.2-1.3,0.5-2.4,1.1s-1-0.5-1.5,1c-0.5,1.5,0,1.5-1.1,2.5c-1.1,0.9-0.9,1.9-0.9,1.9s4-0.5,2.5,0.5
			c-1.5,1.1-1.6,1.2-2.1,1.6c-0.4,0.4-0.8,1-0.8,1l-0.8,1.3l-0.2,1.5c0,0,0.3-0.3,1.5,0.5c1.2,0.8,1.5,0.9,1.6,1.1
			c0.2,0.2,0.8,1.4,2.2,2.9c1.5,1.5,1.8,1.8,2.5,2.3c0.6,0.4,1.2,0.2,1.1,1.1c-0.1,0.8-0.1,0.4,1.4,1c1.5,0.4,2.5,1,3.6,1
			s3.6,0.4,4.2,0.4c0.8,0,1.2-0.1,0.8,0.4c-0.4,0.5-1.3,2.5-2.5,3.7c-1.1,1.1-1.5,1.8-3,2.4c-1.6,0.5-2.5,1-3.6,1.3
			c-1,0.3-1.6,1.8-1.6,1.8c29.1-5.4,53.6-24.2,66.8-49.7l-1.9,0.2L222.8,176.6z M142.4,91.7c2.6-0.9,1.9-1.5,3.6-0.3
			c1.5,1.2,2.3,0.4,2.5,1.6c0.2,1.2,1.9,2.2,1.9,2.2l2.4,0.4l3.6,0.8c0,0,1.1,0.4,1.3,1.2c0.2,0.9,1,1.2-0.4,1.2
			c-1.5,0-3.2-0.6-3.2-0.6s-0.3,0.3-0.3,1.8c0,1.5,0.8,1.2-0.3,2.1c-1,0.9-3.3,1.6-1.5,1.5c1.8-0.1,3.2-1,4-0.4
			c0.8,0.5,1.3-0.6,2.2-0.8c0.8-0.1-0.1-0.6,0.9-1.3c1-0.8,1.1-1.3,2.6-1.1c1.5,0.2,1.2-0.3,2.6-0.3c1.4,0,2.5,1.2,0.6,1.5
			c-1.8,0.2-2.2-0.1-3.6,0.5c-1.5,0.6-1.5-0.3-1.8,1c-0.3,1.3,1,1.1-0.9,1.8c-1.8,0.6-0.8,0.2-2.8,0.4c-2,0.3-1.6,0.4-3.2,0.3
			c-1.6-0.1-3-0.1-2.3-1.4c0.8-1.3,2.8-0.8,2.4-2.3s-1.1-1.3-2.1-1c-1,0.3,0.4-1.2,0.4-1.8c0-0.5-0.5-1.2-1.5-1.4
			c-1-0.2-1-1.1-1.8,0.2c-0.9,1.4-0.9,0.4-1.2,1.2c-0.3,0.8-0.5-0.1-0.5,2.3s0.4,3.8-1.5,4.2c-1.9,0.4-2.2-2.8-1.3-4.2
			c0.9-1.4,1.6-2.3,0.6-2.3c-1.1,0.1,0.1-1.9,1.3-2.2c1.2-0.2,1.7-0.1,2.7-0.3c1-0.1,1.8,0,1.9-0.3c0.1-0.2-1.1-1.6-2.3-1.4
			c-1.2,0.2-0.2,0.3-1.8,0.5c-1.5,0.2-3-0.1-2.6-0.5s0.8-0.4-0.3-0.9C141.3,93.5,142.4,91.7,142.4,91.7z"/>
		<path class="st6" d="M149.6,62.7c-0.6-0.4-1-1.1-1-0.2c0,0.8-0.6,0.6,0,1.3c0.6,0.8,0.6,0.8,0.1,0.8s-0.8,0.3-0.3,1
			c0.4,0.6-0.1,1.2,0.8,0.9c0.9-0.3,1.5-0.8,1.9-1.1c0.4-0.3,0.2-0.6,1-0.2c0.6,0.4,1.3,0.5,1.8,0.2c0.5-0.2,1.1-0.8,0-0.8
			s-1.4,0-1.4-0.4c0-0.4,0.4-0.5-0.8-0.8C150.3,63,149.6,62.7,149.6,62.7z"/>
		<path class="st6" d="M152.2,66c-1-0.1-1.4-0.3-1.7,0.4c-0.4,0.8-0.4,1.5,0.5,1.1c1-0.4,0.9-0.4,1.4-0.8
			C152.9,66.6,152.9,66,152.2,66z"/>
		<path class="st6" d="M155.9,65.9c-1.4,0-1.9,0.3-1.3,0.9c0.6,0.5,1.1,1,1.3,0.3S156.4,65.9,155.9,65.9z"/>
		<path class="st6" d="M156.5,74.9c-0.4,0-0.5,0.3-0.6,0.8c-0.1,0.4,0,0.3-0.4,0.6c-0.4,0.3-0.1,0.5,0.3,0.6c0.4,0.2,1,0.3,1-0.3
			s-0.2-0.8,0.2-1.1C157.3,75.2,156.8,74.9,156.5,74.9z"/>
		<path class="st6" d="M185.5,87.1c-2.3,0.1-4.6-1.1-3.2,0s1.8,1.5,2.8,1.5C186,88.5,185.5,87.1,185.5,87.1z"/>
		<path class="st6" d="M189.4,90.7c-0.8,0-0.1,0.1-0.8,1.2c-0.4,0.8-1.2,1.5-1.1,1.7c0.1,0.1,0.3-0.1,0.5-0.2
			c0.3-0.2,0.4-0.4,0.6-0.9C188.8,92.6,189.1,91.9,189.4,90.7L189.4,90.7z"/>
		<path class="st6" d="M190.3,92.8c0.3,0.4,0.6,0.4,0.2,0.9c-0.3,0.3-0.1,0-0.4,0.5c-0.3,0.5-0.4,1.2-0.8,0.5
			c-0.3-0.6-0.1-1.4,0.2-1.7C189.9,92.7,190.3,92.8,190.3,92.8z"/>
		<path class="st6" d="M191.5,82.6c-0.5,0.2-0.6,0.5-0.8,1.1c-0.1,0.5-0.2,1.1-0.2,1.1l-0.2,0.8c0,0,0.3,0.4,0.2,0.9
			c-0.2,0.4-0.2,1-0.2,1s-0.5,0.1-0.6,0.3c-0.1,0.2-1-0.4-0.2,0.4c0.8,0.9,0.6,0.5,0.4,1c-0.2,0.4,0.1,1,0.6,0.8s-0.4-0.5,1.4-0.3
			c1.8,0.2,2.1-0.9,2.3-0.4c0.2,0.4,0.2,0.4,0.4,0.1c0.2-0.3,1.3-0.9,0.8-0.2s-1.5,1.3-0.8,1.5c0.6,0.1,1.7-0.2,1.5-1.1
			c-0.2-0.9,0-1.7,0.3-0.9c0.3,0.9,0,1.6,0.6,1.5s0.8,0.2,1.2,0.4s1.1,0.2,0.6-0.8c-0.5-1-0.2-2.2-0.6-1.6c-0.5,0.5-1.1,0.6-1.4-0.1
			c-0.2-0.9-0.2-0.9-0.8-1.3c-0.5-0.4,0.3-1.3-0.8-1.3s-1.2,0.9-1.8,0.4s-0.6-1.2-1.2-0.6c-0.4,0.5-0.9,1.2-1.1,0.6
			s-0.6-0.3-0.3-1.1C191.3,84,192.1,82.3,191.5,82.6z"/>
		<path class="st6" d="M121.1,52.6c-1.3-1-3.5-0.4-1.3-1.6c2.2-1.2,2.3-0.8,3-1.3c0.9-0.6,1.7-0.8,1.7-0.8s2.3,0,2.7,0.4
			s1.5,0.6,0.4,0.8c-1.1,0.1-2,0.5-2,0.5l-1.3,0.6l-1.4,1L121.1,52.6z"/>
		<path class="st6" d="M128.4,51.6c0-0.4,0.2-0.8-0.8-0.5c-0.9,0.2-1.5,0-2.1,0.2s-0.1,0.2-0.8,0.5c-0.5,0.3-1.4,0.8-1.4,0.8
			l1.2,0.3c0,0,1.2,0.5,0.3,0.5c-1,0-3.3-0.1-2.3,0.2c1.1,0.4,2.4,0.1,3.2,0.5c0.9,0.4,0.8,0.5-0.4,0.5s-3-0.9-1.9,0
			c1.1,0.9,1.9,0.3,1.5,1c-0.4,0.5-0.4,0.9,1,0.8c1.3-0.1,1,0.2,2,0c1.2-0.2,2.3-0.6,2.3-0.6s0.6-0.9,1.6-0.2c1,0.6,2.3,1.9,3,1.9
			c0.8-0.1,0.6-0.4,0.2-1s-0.3-0.8,0.3-0.9c0.6-0.1,1.5-0.4,0.5-0.8c-1-0.4-1-1-1-1.6c0-0.6-0.2-1.2-0.5-1.4c-0.2-0.2,0.8-1.3-0.4,0
			c-1.2,1.2-1.4,2.2-1.6,1.7s0-1.4,0-1.4s0.2-0.8-0.5-0.6c-0.8,0.1-0.4-0.1-1.1,0.3s-0.8,0.9-0.9,0.3c-0.1-0.5,0.5-1-0.2-0.9
			c-0.6,0.1-0.8,0.1-1,0.2C128.8,51.8,128.3,52.1,128.4,51.6z"/>
		<path class="st6" d="M139.6,52.1c0.6,0.5,1.1,1.1,1.1,1.1s1.1,0,0.2,0.8c-0.8,0.8-0.8,0.9-1.3,1.1c-0.5,0.2-0.3,1.1-1,0.2
			c-0.5-0.8-0.4-0.9-0.8-1.1c-0.4-0.2-1-0.9-0.2-0.9c0.9-0.1,1-0.1,1.1-0.6C138.9,52,139.6,52.1,139.6,52.1z"/>
		<path class="st6" d="M142.5,54.2c-0.8,0.3-1.9,0.5-1.9,1.1c-0.1,0.5,0.3,1.5,0.3,1.5s0.9-0.2,1.1-0.3c0.2-0.1,0.6-0.2,1.3-0.2
			s1.2-0.1,0.8-0.8C143.6,54.8,142.5,54.2,142.5,54.2z"/>
		<path class="st6" d="M142.1,52.1c-0.3,0.2-0.3,0.3-0.3,0.9c0,0.5-0.2,1,0.2,0.9c0.3-0.1,0.4-0.2,0.8-0.2c0.3-0.1-0.8,0.4,0.5,0
			c1.3-0.4,1.3-0.6,1.5-1c0.2-0.2,1.3-0.5,0-0.5C143.4,52.2,142.1,52.1,142.1,52.1z"/>
		<path class="st6" d="M148.9,51.9c-0.5-0.2-0.4,0-0.9,0.2c-0.4,0.2-0.4-0.5-1.1,0.3c-0.8,0.8-1,0.1-0.8,0.8c0.2,0.6,0.4,1,0.4,1
			s0.9,0.1,0.6,0.6s0.3,0.9,0.6,0.6c0.3-0.2,0.9-0.3,1.4-0.3c0.6,0,1.5,0,2,0.1s1.4,0.1,1.4,0.1s0.3,1,1.1,0.5
			c0.6-0.4,0.5-1.3,1.3-0.8c0.8,0.5,1.4,0.6,1.4,0.6l1.1,0.6l0.9,1.7h1.6c0,0,0.5,0.3,0.6,0.5c0.1,0.2,0.9-1.7,1.3-0.5
			c0.4,1.1,0.3,1.7,0.3,1.7s-0.8,0.2-0.9,0.6c-0.2,0.5,0.3,0.5-0.3,0.8c-0.6,0.2-0.5,0.3-1.3,0.3c-0.8,0,0.2,0.3-1.2,0
			c-1.5-0.3-1.3-0.6-1.7-0.2c-0.4,0.4-0.8,0.2-0.5,1c0.1,0.8,1,1.2,1,1.2s2.2,0.3,2.6-0.3c0.4-0.6,1.1,0,2,0.2
			c1,0.2,2.2,0.8,2.5,1.2c0.3,0.4-0.4,0.2,1.6,0.5c2.1,0.3,2.3,0.3,3.1,0.5c0.9,0.2,1.7,0.5,1.6,0.3c-0.5-0.6-1-1.2-1.9-1.4
			c-1-0.3-1.9-1.1-1.3-0.9c0.6,0.2,1.8,0.6,1.8,0.6s1.8,0.5,2.1,0.8c0.2,0.2,1.7,1.2,0.9,0.1c-1-1.1-1-1.4-1-1.4L170,62
			c0,0-0.5-0.3-1.3-0.4c-0.6-0.1-1.4-0.8-1.4-0.8s0-0.9-0.6-1c-0.6-0.1,0.4-0.8,0.9-0.3c0.4,0.4,0.5,0.8,1.3,1
			c0.8,0.2,0.3-0.3,1.3,0.4c1,0.6,1.5,0.2,1.5,0.2l0.1-1.1l-0.2-1.2c0,0-1.2,0-1.8,0c-0.6,0-1.1-0.6-1.1-0.6l-1-0.2l-1.9-0.3
			c0,0-1.5-0.2-1.3-0.6c0.2-0.4,0.2-1.1,0.2-1.1l-0.8-0.6c0,0-1-0.1-1.4,0c-0.4,0-1.1-0.5-1.1-0.5s0-0.4-1.3-0.4s-1.3,0-1.5-0.1
			c-0.2-0.1-0.1-1.2-1.7-1.3c-1.6-0.1-1.8-0.9-2.6-0.3s-1.1,1.2-1.7,0.3c-0.6-0.9-0.3-1.5-1.4-1.5s-2.1-0.1-1.7,0.6
			c0.3,0.8,1,1.5,1,1.5c-0.8,0.5-0.5,0.6-1,0.6c-0.5,0-0.5-0.2-0.5-0.6s0.2-0.2,0-1.1C148.9,51.9,148.9,51.9,148.9,51.9z"/>
		<path class="st6" d="M153,51.1c-0.5,0.6-0.9,0.8-0.3,1c0.5,0.2,1.2,0.4,1.6,0c0.4-0.4,1.6-0.8,0.6-1C154.1,50.8,153,51.1,153,51.1
			z"/>
		<path class="st6" d="M142.9,49.5c0.1,0.6,0.2,1,0.2,1s0.3,0.3,0.6,0.6c0.4,0.3,1,0.5,1.4,0.4c0.4-0.1,0-0.3,0.8-0.5
			c0.8-0.2,1.1,0,2-0.1c1.1-0.1,2.2-0.1,2.7-0.2c0.5-0.1,0.8-0.6,0.8-0.6s0.2-0.3-1.7-0.3s-1.6,0.2-2.6,0.1c-1-0.1-1-1.1-1.5-0.5
			c-0.5,0.5,0.1,0.9-0.6,1.1c-0.6,0.2-0.6,0.8-1.1,0c-0.3-0.8-0.3-0.9-0.3-1.1C143.7,49,142.9,49.5,142.9,49.5z"/>
		<path class="st6" d="M155.8,45.8c-1.9-0.1-3,0-3,0h-2.5c0,0-0.8-0.2-1,0.1c-0.2,0.4-0.9,0.5-0.9,0.5s-1.2-1.7-1.2-0.9
			c0.1,0.9,0.1,0.9,0.1,0.9s0.8,0.8,0.8,1.1c0,0.3-0.2,1-0.2,1h-0.6v-0.6l1.3,1.7h0.8l-1.1-0.1l-2.1-0.6c0,0-0.4,0.8,0.8,0.8
			c1.2,0,0.9,0.2,2.5-0.2s1.9-0.6,2.8-0.6s-0.9,0.2,1.3,0c2.2-0.2,2.7-0.2,2.6-0.9c-0.1-0.6-0.2-0.5-0.2-1.1
			C156.1,46.1,156.5,45.8,155.8,45.8z"/>
		<path class="st6" d="M141.7,48c0,0,0.3-0.1,0.5,0c0,0,0.2,0.1,0.2,0.3c0,0.3-0.3,0.5-0.5,0.5c-0.2,0-0.5,0-0.6-0.2
			C141.1,48.4,141.4,48.1,141.7,48z"/>
		<path class="st6" d="M139.6,49.3c0.2,0.1,0.2,0.5,0.2,0.5c0,0.4-0.2,0.8-0.3,0.8c-0.1,0.1-0.3,0.3-0.5,0.3c-0.3,0-0.5-0.3-0.5-0.6
			c0-0.2,0.1-0.3,0.3-0.6C139.2,49.5,139.5,49.2,139.6,49.3z"/>
		<path class="st6" d="M141.1,50.6c0.3-0.3,1.1,0,1.1,0.3c0,0.2-0.3,0.4-0.3,0.5c-0.1,0.1-0.4,0.3-0.6,0.2
			C141,51.5,140.9,50.8,141.1,50.6z"/>
		<path class="st6" d="M140.9,49.5c0,0.1,0.1,0.2,0.1,0.2c0.3,0.2,0.9,0.1,0.9-0.1c0-0.1,0-0.2-0.1-0.3
			C141.6,49.1,140.9,49.3,140.9,49.5z"/>
		<path class="st6" d="M138.8,46.7c-0.2-0.1-0.5-0.1-1-0.1c-0.6,0-1,0-1,0.2c-0.1,0.2,0.3,0.5,0.5,0.8c0.5,0.4,1.2,0.3,1.4,0.3
			c0.2,0,0.6-0.1,0.8-0.3C139.4,47.1,139.1,46.8,138.8,46.7z"/>
		<path class="st6" d="M140.5,47.1c-0.3,0-0.5,0.3-0.5,0.6c0,0.2,0.2,0.3,0.4,0.3c0.3,0,0.6-0.2,0.6-0.5
			C141,47.4,140.8,47.1,140.5,47.1z"/>
		<path class="st6" d="M134.7,48.7c0.2,0.1,0,0.4,0.2,0.8c0.2,0.2,0.3,0.2,0.3,0.3c0,0.2-0.2,0.4-0.5,0.5c-0.4,0.1-1.1-0.1-1.2-0.5
			c-0.1-0.3,0.2-0.6,0.2-0.8C134.1,48.7,134.5,48.5,134.7,48.7z"/>
		<path class="st6" d="M129.1,48.8c0.2-0.3,0.5-0.3,1-0.4c0.4-0.1,0.8,0,1,0c0.4,0,0.8,0.1,1,0.2c0.2,0.1,0.8,0.3,1,0.9
			c0,0,0.2,0.4,0,0.6c-0.1,0.1-0.4,0-0.8-0.1c-0.8-0.3-0.9-0.5-1.4-0.5c-0.1,0-0.2,0-0.6,0.1c-0.9,0.1-1.1,0.2-1.2,0.1
			C128.8,49.4,128.8,49,129.1,48.8z"/>
		<path class="st6" d="M126,47.6c0-0.2,0.6-0.3,0.9-0.4c0.4-0.1,0.8-0.1,0.9,0.1c0.2,0.2,0.2,0.5,0.1,0.8c-0.1,0.1-0.3-0.1-0.9-0.1
			c-0.4,0-0.9,0.3-0.9,0.3s-0.4-0.1-0.4-0.2C125.7,47.8,126,47.8,126,47.6z"/>
		<path class="st6" d="M129.8,46.9c-0.1,0-0.4,0.2-0.4,0.3c0,0.2,0.4,0.4,0.8,0.4c0.1,0,0.4,0,0.6-0.3c0.1-0.1,0.2-0.2,0.2-0.4
			C130.9,46.8,130.2,46.8,129.8,46.9z"/>
		<path class="st6" d="M133.2,47.1c-0.4-0.1-1,0-1,0.2c0,0.2,0.2,0.4,0.5,0.5c0.4,0.1,1,0,1-0.2C133.8,47.5,133.5,47.3,133.2,47.1z"
			/>
		<path class="st6" d="M135.4,51.1c0.3-0.3,1.1-0.1,1.2,0.3c0.1,0.3-0.1,0.6-0.2,0.6c-0.2,0.2-0.5,0.4-0.9,0.3
			C135.2,52.2,135.1,51.5,135.4,51.1z"/>
		<path class="st6" d="M157.3,57.3c0.3,0.1,0.6,0.5,0.6,1c-0.1,0.5-0.6,0.6-0.8,0.6c-0.5,0.2-1.3-0.1-1.4-0.5
			C155.7,57.8,156.7,57,157.3,57.3z"/>
		<path class="st6" d="M185.1,92.1c0.5,0.1,0.4,1,1.1,1.1c0.4,0.1,0.8-0.1,0.9,0c0.1,0.1-0.2,0.6-0.6,0.8c-0.4,0-0.5-0.3-1.1-0.5
			c-0.8-0.3-1.3-0.1-1.4-0.3C183.7,92.8,184.5,91.9,185.1,92.1z"/>
		<path class="st6" d="M146.9,152.3c-0.1-0.6,2.2-1.8,4.2-2.5c2.5-0.8,4.5-0.6,5.8-0.6c1.8,0.1,3.2,0.4,4.5,0.8
			c2.2,0.5,3.2,0.8,4.1,1.2c0.2,0.1,0.5,0.3,1.1,0.3c0.8,0.1,1.1-0.2,1.6,0c0.4,0.2,0.3,0.4,0.8,0.9c0.5,0.4,1.3,0.5,1.7,0.6
			c0.9,0.1,1.3-0.1,1.5,0.2s0.2,0.9,0,1.2c-0.4,0.6-1.4,0.6-2.3,0.8c-4,0.2-5.7,1.2-6.1,0.3c-0.4-0.6,0.2-1.6-0.2-1.8
			c-0.4-0.2-1,0.4-1.6,0.2c-0.5-0.2-0.4-0.9-1.1-1.2c-0.3-0.2-0.5-0.1-2.3-0.1c-1.8,0.1-2.3,0-2.7-0.2c-0.4-0.2-0.3-0.3-1-0.6
			c-0.6-0.3-1.8-0.9-2.1-0.5c-0.2,0.2,0.2,0.6,0.1,0.8c-0.2,0.2-0.9-0.5-1.7-0.5c-0.4,0-0.4,0.2-1.6,0.8c-1.2,0.6-1.6,0.6-1.9,0.6
			C147.6,152.8,146.9,152.7,146.9,152.3z"/>
		<path class="st6" d="M173.6,154c0.4-0.5,1.4,0,3.2-0.1c1.3-0.1,1.4-0.4,3-0.6c1.2-0.1,1.7,0.1,1.9,0.1c0.8,0.2,0.8,0.5,1.6,1
			c1.1,0.4,1.7,0.4,1.8,0.8c0.1,0.3-0.2,0.8-0.4,1c-0.9,0.6-1.8-0.3-3.5,0.2c-0.4,0.1-0.5,0.3-1.2,0.4c-0.8,0.2-1.1,0.1-1.4,0.4
			c-0.2,0.2-0.1,0.4-0.4,1c-0.2,0.4-0.3,0.6-0.5,0.8c-0.6,0.4-1.3-0.6-2.8-0.6c-0.8,0-0.9,0.2-1.4,0.1c-0.8-0.2-1.4-1.1-1.2-1.3
			c0.2-0.3,1.2,0.4,1.9,0c0.6-0.3,1.2-1.1,1-1.5c-0.2-0.4-1.2,0-1.6-0.6C173.5,154.7,173.4,154.3,173.6,154z"/>
		<path class="st6" d="M165.2,44.9c-1.1,0.2-1.8,0-3.3,0.3c-0.4,0.1-1,0.2-1.3,0.6c-0.2,0.3-0.2,0.4-0.4,0.6
			c-0.5,0.5-1.4,0.1-1.5,0.4c-0.2,0.3,0.6,1.1,1.1,1.6c0.5,0.5,0.9,0.9,1.2,1c1,0.3,1.5-0.5,2.8-0.4c0.4,0,0.8,0.2,1.4,0.4
			c0.9,0.4,1.4,0.8,2.7,1.6c2.7,1.7,2.9,1.9,3.6,1.9c0.2,0,0.8-0.1,1.3,0.1c0.1,0,0.9,0.3,0.8,0.8c0,0.4-0.9,0.5-1,1
			c0,0.3,0.5,0.6,0.9,0.8c0.3,0.2,0.8,0.4,1.1,0.2c0.4-0.1,0.4-0.5,0.8-0.5c0.2,0,0.3,0.2,0.6,1c0.3,0.5,0.4,0.9,0.4,1
			c0.4,0.8,0.5,1.1,0.9,1.4c0.4,0.4,0.6,0.3,1.2,0.8c0.4,0.3,0.5,0.6,0.9,1c1,1.3,2.5,1.8,2.6,1.7c0.1-0.1-0.5-0.6-0.5-0.6
			c0.1-0.1,1.1,0.6,2.5,1.6c2.2,1.5,2.5,1.7,3.1,1.8c1,0.2,1,0,1.9,0.3c0.9,0.3,1.4,0.6,2.4,0.8c0.1,0,0.4,0.1,1,0
			c0.3-0.1,0.9-0.1,1-0.4c0.2-0.3-0.2-1-0.6-1.5c-1.1-1.4-1.7-1.4-2.4-2.7c-0.4-0.6-0.2-0.9-0.6-1.3c-0.6-0.8-1.5-0.8-1.6-1.4
			c-0.1-0.2,0.1-0.5,0.3-1c0.5-1,1-1.1,1-1.5c0-0.5-0.9-1-2.7-1.9c-0.6-0.3-1-0.4-1.1-0.8c-0.4-0.6,0-1.1-0.2-2.1
			c-0.2-0.5-0.6-1.5-1.3-1.5c-0.2,0-0.3,0-1.6,1c-0.4,0.3-0.6,0.4-0.8,0.3c-0.3-0.1-0.4-0.8-0.2-1.2c0.2-0.5,0.8-0.6,0.8-0.9
			s-0.9-0.3-2.4-0.6c-1.1-0.2-1.5-0.3-1.6-0.6c-0.1-0.3,0.2-0.6,0.1-1.1c-0.1-0.4-0.5-0.5-1.2-1c-0.8-0.4-1.4-0.6-2-0.5
			c-0.5,0.1-0.5,0.3-1,0.3c-0.5,0-0.6-0.6-1.3-1.1c-0.4-0.4-1-0.5-1.5-0.8c-1.5-0.4-2.8-0.2-3.6-0.1
			C166.2,44.3,166.4,44.7,165.2,44.9z"/>
	</g>
</g>
<path class="st7" d="M237.6,131.3c0,52.1-42.2,94.3-94.3,94.3c-25,0-47.8-9.7-64.6-25.7c8.1,1.6,16.7,2.1,25.6,1.4
	c56.2-4.1,105.1-53,109.2-109.2c0.6-9,0.1-17.5-1.4-25.6C227.9,83.6,237.6,106.4,237.6,131.3z"/>
</svg>
