<?xml version="1.0" encoding="utf-8"?>
<!-- Generator: Adobe Illustrator 23.0.3, SVG Export Plug-In . SVG Version: 6.00 Build 0)  -->
<svg version="1.1" id="Layer_1" xmlns="http://www.w3.org/2000/svg" xmlns:xlink="http://www.w3.org/1999/xlink" x="0px" y="0px"
	 width="140px" height="140px" viewBox="0 0 140 140" style="enable-background:new 0 0 140 140;" xml:space="preserve">
<style type="text/css">
	.st0{opacity:0.7;fill:none;stroke:#FFFFFF;stroke-width:0.5532;stroke-miterlimit:10;}
	.st1{fill:none;stroke:#FFFFFF;stroke-width:0.8298;stroke-miterlimit:10;}
	.st2{fill:#006838;}
	.st3{fill:#8BC53F;}
	.st4{fill:#37B34A;}
</style>
<line class="st0" x1="17.7" y1="69" x2="121.4" y2="9.1"/>
<line class="st0" x1="17.7" y1="88.9" x2="121.4" y2="29"/>
<line class="st0" x1="17.7" y1="108.8" x2="121.4" y2="48.9"/>
<line class="st1" x1="17.7" y1="128.7" x2="121.4" y2="68.8"/>
<line class="st1" x1="17.7" y1="128.7" x2="17.7" y2="52.4"/>
<g>
	<g>
		<polygon class="st2" points="74.7,49.4 74.7,45.7 80.2,48.9 80.2,52.6 		"/>
		<g>
			<polygon class="st3" points="101.2,36.2 74.7,45.7 105.3,63.2 			"/>
		</g>
		<polygon class="st2" points="99.9,63.7 99.8,60 105.3,63.2 105.3,66.9 		"/>
	</g>
	<g>
		<polygon class="st2" points="37.3,139.6 37.3,135.9 66.6,118.9 66.6,122.6 		"/>
		<polygon class="st4" points="37.3,135.9 17.7,124.7 47,107.6 66.6,118.9 		"/>
		<polygon class="st3" points="37.3,135.9 17.7,124.7 17.7,128.3 37.3,139.6 		"/>
	</g>
	<g>
		<polygon class="st2" points="99.8,63.7 99.8,60.1 66.6,118.9 66.6,122.4 		"/>
		<polygon class="st3" points="99.8,60.1 80.2,48.8 47,107.6 66.6,118.9 		"/>
	</g>
</g>
</svg>
