<?xml version="1.0" encoding="utf-8"?>
<!-- Generator: Adobe Illustrator 23.0.3, SVG Export Plug-In . SVG Version: 6.00 Build 0)  -->
<svg version="1.1" id="Layer_1" xmlns="http://www.w3.org/2000/svg" xmlns:xlink="http://www.w3.org/1999/xlink" x="0px" y="0px"
	 width="140px" height="140px" viewBox="0 0 140 140" style="enable-background:new 0 0 140 140;" xml:space="preserve">
<style type="text/css">
	.st0{fill:#ACAFB5;}
	.st1{enable-background:new    ;}
	.st2{opacity:0.702;clip-path:url(#SVGID_2_);enable-background:new    ;}
	.st3{fill:#24343E;}
	.st4{fill:#23333C;}
	.st5{fill:#22313B;}
	.st6{fill:#213039;}
	.st7{fill:#202F37;}
	.st8{fill:#202D36;}
	.st9{fill:#1F2C34;}
	.st10{fill:#1E2B33;}
	.st11{fill:#1D2A31;}
	.st12{fill:#1C2830;}
	.st13{fill:#1B272E;}
	.st14{fill:#1A262D;}
	.st15{fill:#19242B;}
	.st16{fill:#18232A;}
	.st17{fill:#172228;}
	.st18{opacity:0.702;clip-path:url(#SVGID_4_);enable-background:new    ;}
	.st19{opacity:0.702;fill:#273842;enable-background:new    ;}
	.st20{fill:#38508C;}
	.st21{opacity:0.702;fill:#182329;enable-background:new    ;}
	.st22{fill:#CDCED0;}
	.st23{clip-path:url(#SVGID_6_);enable-background:new    ;}
	.st24{clip-path:url(#SVGID_8_);enable-background:new    ;}
	.st25{clip-path:url(#SVGID_10_);enable-background:new    ;}
	.st26{fill:#CCCCCC;}
	.st27{fill:#C7C7C7;}
	.st28{fill:#C2C2C2;}
	.st29{fill:#BDBDBD;}
	.st30{fill:#B8B8B8;}
	.st31{fill:#B3B3B3;}
	.st32{fill:#ADADAD;}
	.st33{fill:#A8A8A8;}
	.st34{fill:#A3A3A3;}
	.st35{fill:#9E9E9E;}
	.st36{clip-path:url(#SVGID_12_);enable-background:new    ;}
	.st37{fill:#858585;}
	.st38{fill:#8A8A8A;}
	.st39{fill:#8F8F8F;}
	.st40{fill:#949494;}
	.st41{fill:#999999;}
	.st42{clip-path:url(#SVGID_14_);enable-background:new    ;}
	.st43{clip-path:url(#SVGID_16_);enable-background:new    ;}
	.st44{clip-path:url(#SVGID_18_);enable-background:new    ;}
	.st45{clip-path:url(#SVGID_20_);enable-background:new    ;}
	.st46{clip-path:url(#SVGID_22_);enable-background:new    ;}
	.st47{clip-path:url(#SVGID_24_);enable-background:new    ;}
	.st48{clip-path:url(#SVGID_26_);enable-background:new    ;}
	.st49{clip-path:url(#SVGID_28_);enable-background:new    ;}
	.st50{fill:#4B6ABB;}
	.st51{fill:#B1C4EA;}
	.st52{fill:#E8E8E8;}
	.st53{fill:#F1F1F2;}
</style>
<g id="icon-support_1_">
	<path class="st0" d="M64.6,111.9V98.7L45.3,87.4v13.2c-0.1,1.9,0.5,3.2,1.5,3.8l19.3,11.3C65.2,115,64.6,113.6,64.6,111.9z"/>
	<g class="st1">
		<g class="st1">
			<g>
				<g>
					<defs>
						<path id="SVGID_1_" d="M73.5,64.8c6.5,3.8,12.9,7.5,19.3,11.3c0,3.4-2.5,7.7-5.4,9.4L68.1,74.2C71,72.4,73.5,68.2,73.5,64.8z"
							/>
					</defs>
					<clipPath id="SVGID_2_">
						<use xlink:href="#SVGID_1_"  style="overflow:visible;"/>
					</clipPath>
					<g class="st2">
						<path class="st3" d="M87.5,85.5L68.2,74.2c0.6-0.4,1.2-0.8,1.8-1.4l19.3,11.3C88.7,84.7,88.1,85.2,87.5,85.5"/>
						<path class="st4" d="M89.1,84.1L69.8,72.8c0.2-0.2,0.5-0.5,0.6-0.7l19.3,11.3C89.6,83.6,89.4,83.9,89.1,84.1"/>
						<path class="st5" d="M89.7,83.4L70.4,72.1c0.1-0.2,0.4-0.4,0.5-0.6l19.3,11.4C90.1,83,90,83.3,89.7,83.4"/>
						<path class="st6" d="M90.2,82.9L70.9,71.6c0.1-0.1,0.2-0.4,0.4-0.5l19.3,11.3C90.5,82.6,90.3,82.7,90.2,82.9"/>
						<path class="st7" d="M90.7,82.3L71.4,71c0.1-0.1,0.2-0.4,0.4-0.5l19.2,11.3C90.9,82,90.8,82.2,90.7,82.3"/>
						<path class="st8" d="M90.9,81.9L71.6,70.6c0.1-0.1,0.2-0.4,0.4-0.5l19.3,11.3C91.1,81.5,91,81.7,90.9,81.9"/>
						<path class="st9" d="M91.2,81.4L71.9,70.1c0.1-0.1,0.2-0.4,0.2-0.5l19.3,11.3C91.5,81,91.4,81.2,91.2,81.4"/>
						<path class="st10" d="M91.5,80.9L72.2,69.6c0.1-0.1,0.1-0.4,0.2-0.5l19.3,11.3C91.7,80.6,91.6,80.7,91.5,80.9"/>
						<path class="st11" d="M91.7,80.4L72.4,69.1c0.1-0.1,0.1-0.4,0.2-0.5L92,80C92,80.1,91.8,80.2,91.7,80.4"/>
						<path class="st12" d="M92,80L72.6,68.7c0.1-0.1,0.1-0.4,0.2-0.5l19.3,11.3C92.1,79.6,92.1,79.7,92,80"/>
						<path class="st13" d="M92.2,79.4L72.9,68.1c0.1-0.1,0.1-0.4,0.2-0.5l19.3,11.3C92.3,79,92.2,79.3,92.2,79.4"/>
						<path class="st14" d="M92.3,78.9L73,67.6c0.1-0.2,0.1-0.4,0.1-0.6l19.4,11.3C92.4,78.6,92.4,78.7,92.3,78.9"/>
						<path class="st15" d="M92.5,78.3L73.2,67c0-0.2,0.1-0.4,0.1-0.6l19.3,11.3C92.7,78,92.5,78.2,92.5,78.3"/>
						<path class="st16" d="M92.7,77.7L73.4,66.6c0-0.2,0.1-0.5,0.1-0.7l19.3,11.3C92.8,77.3,92.8,77.5,92.7,77.7"/>
						<path class="st17" d="M92.8,77L73.5,65.7c0-0.4,0.1-0.7,0.1-1.1L92.9,76C92.9,76.3,92.9,76.7,92.8,77"/>
					</g>
				</g>
			</g>
		</g>
		<g class="st1">
			<g>
				<g>
					<defs>
						<path id="SVGID_3_" d="M73.5,64.8L73.5,64.8L92.9,76c0,0,0,0,0,0.1C86.4,72.3,79.9,68.6,73.5,64.8z"/>
					</defs>
					<clipPath id="SVGID_4_">
						<use xlink:href="#SVGID_3_"  style="overflow:visible;"/>
					</clipPath>
					<g class="st18">
						<path class="st17" d="M92.8,77L73.5,65.7c0-0.4,0.1-0.7,0.1-1.1L92.9,76C92.9,76.3,92.9,76.7,92.8,77"/>
					</g>
				</g>
			</g>
		</g>
		<g>
			<polygon class="st19" points="64.6,98.6 45.3,87.4 68.1,74.2 87.5,85.5 			"/>
		</g>
		<g>
			<path class="st20" d="M127.4,22.6c3.1-1.6,5.5-0.2,5.5,3.3l0.1,45.9c0.1,3.4-2.5,7.8-5.4,9.7l-12.7,7.4V105l-16.5-6.6l-28.2,16.2
				c-1.4,0.8-2.8,0.9-3.9,0.4c-1.1-0.6-1.6-2-1.5-3.8V98l22.8-13.2c2.9-1.9,5.4-6.1,5.4-9.5l-0.1-32.7L127.4,22.6z"/>
		</g>
		<g>
			<polygon class="st21" points="92.9,76 73.5,64.8 73.5,32.1 92.8,43.3 			"/>
		</g>
		<path class="st22" d="M128.6,22.8c0.1,0,0.1,0,0.2-0.1c0.1,0,0.1,0,0.2,0c0.1,0,0.2,0,0.4,0h0.1c0.1,0,0.4,0,0.5,0c0,0,0,0,0.1,0
			c0.1,0,0.2,0,0.4,0h0.1c0.1,0,0.2,0,0.2,0.1h0.1c0.1,0,0.2,0.1,0.4,0.1l0,0l0,0L112,11.6l0,0c-0.1,0-0.2-0.1-0.2-0.1l0,0h-0.1
			h-0.1h-0.1h-0.1c0,0,0,0-0.1,0s-0.2,0-0.2,0s0,0-0.1,0l0,0c-0.1,0-0.2,0-0.4,0l0,0h-0.1c-0.1,0-0.1,0-0.2,0c0,0,0,0-0.1,0
			s-0.1,0-0.2,0s-0.1,0-0.2,0c0,0,0,0-0.1,0s-0.4,0.1-0.5,0.1h-0.1l0,0c-0.2,0.1-0.4,0.1-0.6,0.2l-34.6,20l19.3,11.3l34.6-20
			c0.2-0.1,0.4-0.2,0.6-0.2h0.1C128.2,22.9,128.3,22.9,128.6,22.8z"/>
		<g class="st1">
			<g>
				<g>
					<defs>
						<path id="SVGID_5_" d="M55,56.7c0.8,0.5,2,0.5,3.3-0.4l19.3,11.3c-1.3,0.7-2.5,0.8-3.3,0.4C68.5,64.6,60.8,60.1,55,56.7z"/>
					</defs>
					<clipPath id="SVGID_6_">
						<use xlink:href="#SVGID_5_"  style="overflow:visible;"/>
					</clipPath>
					<g class="st23">
						<path class="st12" d="M74.3,67.9L55,56.6l0,0L74.3,67.9L74.3,67.9"/>
						<path class="st11" d="M74.3,68L55,56.7c0.1,0,0.1,0.1,0.2,0.1l19.3,11.3C74.5,68,74.4,68,74.3,68"/>
						<path class="st10" d="M74.5,68.1L55.2,56.8c0.1,0,0.1,0.1,0.2,0.1l19.3,11.3C74.8,68.1,74.6,68.1,74.5,68.1"/>
						<path class="st9" d="M74.8,68.1L55.5,56.8c0.1,0,0.1,0,0.2,0.1L75,68.2C75,68.2,74.9,68.2,74.8,68.1"/>
						<path class="st8" d="M75.1,68.2L55.8,56.9c0.1,0,0.2,0,0.2,0l19.3,11.3C75.2,68.2,75.2,68.2,75.1,68.2"/>
						<path class="st7" d="M75.4,68.2L56.1,57c0.1,0,0.2,0,0.4,0l19.3,11.3C75.6,68.2,75.5,68.2,75.4,68.2"/>
						<path class="st6" d="M75.7,68.2L56.4,56.9c0.1,0,0.2,0,0.4,0l19.3,11.3C75.9,68.2,75.8,68.2,75.7,68.2"/>
						<path class="st5" d="M76.1,68.2L56.8,56.9c0.1,0,0.2,0,0.4-0.1l19.3,11.3C76.3,68.1,76.2,68.2,76.1,68.2"/>
						<path class="st4" d="M76.4,68.1L57.1,56.8c0.2,0,0.4-0.1,0.6-0.2L77,67.9C76.8,68,76.7,68.1,76.4,68.1"/>
						<path class="st3" d="M77,67.9L57.7,56.6c0.2-0.1,0.5-0.2,0.6-0.4l19.3,11.3C77.4,67.7,77.2,67.9,77,67.9"/>
					</g>
				</g>
			</g>
		</g>
		<g class="st1">
			<g>
				<g>
					<defs>
						<path id="SVGID_7_" d="M63,47.8c0-1.6-0.6-2.7-1.4-3.3l19.3,11.3c0.9,0.5,1.4,1.6,1.4,3.3c0,3.2-2.1,6.9-4.7,8.5L58.3,56.3
							C60.9,54.8,63,51,63,47.8z"/>
					</defs>
					<clipPath id="SVGID_8_">
						<use xlink:href="#SVGID_7_"  style="overflow:visible;"/>
					</clipPath>
					<g class="st24">
						<path class="st3" d="M77.6,67.6L58.3,56.3c0.6-0.4,1.1-0.7,1.5-1.2l19.3,11.3C78.7,66.9,78.2,67.3,77.6,67.6"/>
						<path class="st4" d="M79.1,66.4L59.8,55.1c0.1-0.1,0.4-0.4,0.5-0.6l19.3,11.3C79.5,66.1,79.4,66.2,79.1,66.4"/>
						<path class="st5" d="M79.7,65.9L60.4,54.6c0.1-0.1,0.2-0.4,0.4-0.5l19.3,11.3C79.9,65.5,79.8,65.7,79.7,65.9"/>
						<path class="st6" d="M80.1,65.4L60.8,54.2c0.1-0.1,0.2-0.2,0.4-0.5L80.4,65C80.3,65.1,80.2,65.3,80.1,65.4"/>
						<path class="st7" d="M80.4,64.9L61.1,53.6c0.1-0.1,0.2-0.2,0.2-0.5l19.3,11.3C80.5,64.7,80.4,64.8,80.4,64.9"/>
						<path class="st8" d="M80.7,64.6L61.3,53.3c0.1-0.1,0.1-0.2,0.2-0.4l19.3,11.3C80.8,64.3,80.8,64.4,80.7,64.6"/>
						<path class="st9" d="M80.9,64.1L61.6,52.8c0.1-0.1,0.1-0.2,0.2-0.4l19.3,11.3C81,63.9,81,64,80.9,64.1"/>
						<path class="st10" d="M81.1,63.7L61.8,52.4c0.1-0.1,0.1-0.2,0.2-0.5l19.3,11.3C81.2,63.5,81.2,63.6,81.1,63.7"/>
						<path class="st11" d="M81.4,63.3L61.9,52.1c0.1-0.1,0.1-0.2,0.2-0.5l19.3,11.3C81.5,63,81.4,63.1,81.4,63.3"/>
						<path class="st12" d="M81.6,62.9L62.3,51.6c0.1-0.1,0.1-0.4,0.2-0.5l19.3,11.3C81.7,62.6,81.6,62.7,81.6,62.9"/>
						<path class="st13" d="M81.7,62.4L62.4,51.1c0.1-0.1,0.1-0.4,0.1-0.5L81.9,62C81.8,62.1,81.8,62.3,81.7,62.4"/>
						<path class="st14" d="M81.9,62L62.6,50.7c0-0.1,0.1-0.4,0.1-0.5l19.3,11.3C81.9,61.6,81.9,61.7,81.9,62"/>
						<path class="st15" d="M82.1,61.5L62.8,50.2c0-0.2,0.1-0.4,0.1-0.6l19.3,11.3C82.2,61,82.1,61.3,82.1,61.5"/>
						<path class="st16" d="M82.2,60.9L62.9,49.6c0-0.2,0.1-0.5,0.1-0.7l19.3,11.3C82.3,60.3,82.3,60.7,82.2,60.9"/>
						<path class="st17" d="M82.3,60.1L63,48.9c0-0.4,0.1-0.7,0.1-1.1c0-1.6-0.6-2.7-1.4-3.3L81,55.8c0.9,0.5,1.4,1.6,1.4,3.3
							C82.4,59.5,82.4,59.8,82.3,60.1"/>
					</g>
				</g>
			</g>
		</g>
		<g class="st1">
			<g>
				<g>
					<defs>
						<path id="SVGID_9_" d="M61.6,44.7L80.9,56c-0.8-0.5-2-0.5-3.3,0.4L58.3,45C59.6,44.2,60.8,44.1,61.6,44.7z"/>
					</defs>
					<clipPath id="SVGID_10_">
						<use xlink:href="#SVGID_9_"  style="overflow:visible;"/>
					</clipPath>
					<g class="st25">
						<path class="st26" d="M77.6,56.2L58.3,44.9c0.2-0.1,0.5-0.2,0.6-0.4l19.3,11.3C78.1,56,77.8,56.1,77.6,56.2"/>
						<path class="st27" d="M78.2,55.8L58.9,44.5c0.2-0.1,0.4-0.1,0.6-0.2l19.3,11.3C78.7,55.7,78.4,55.7,78.2,55.8"/>
						<path class="st28" d="M78.8,55.6L59.5,44.3c0.1,0,0.2-0.1,0.4-0.1l19.3,11.3C79,55.6,78.9,55.6,78.8,55.6"/>
						<path class="st29" d="M79.2,55.6L59.9,44.3c0.1,0,0.2,0,0.4,0l19.3,11.2C79.5,55.6,79.4,55.6,79.2,55.6"/>
						<path class="st30" d="M79.6,55.5L60.3,44.2c0.1,0,0.2,0,0.4,0l19.3,11.3C79.7,55.5,79.6,55.5,79.6,55.5"/>
						<path class="st31" d="M79.8,55.5L60.5,44.2c0.1,0,0.2,0,0.2,0l19.3,11.3C80.1,55.6,79.9,55.6,79.8,55.5"/>
						<path class="st32" d="M80.2,55.6L60.8,44.3c0.1,0,0.2,0,0.2,0.1L80.2,55.6C80.3,55.6,80.2,55.6,80.2,55.6"/>
						<path class="st33" d="M80.4,55.6L61.1,44.3c0.1,0,0.1,0,0.2,0.1l19.3,11.3C80.5,55.7,80.5,55.7,80.4,55.6"/>
						<path class="st34" d="M80.7,55.7L61.3,44.4c0.1,0,0.1,0.1,0.2,0.1l19.3,11.3C80.8,55.8,80.8,55.7,80.7,55.7"/>
						<path class="st35" d="M80.9,55.8L61.6,44.5l0,0L80.9,55.8L80.9,55.8"/>
					</g>
				</g>
			</g>
		</g>
		<g class="st1">
			<g>
				<g>
					<defs>
						<path id="SVGID_11_" d="M74.3,67.9L55,56.6c-0.9-0.5-1.4-1.6-1.4-3.3c0-3.2,2.1-6.9,4.7-8.5l19.3,11.3
							c-2.6,1.5-4.7,5.3-4.7,8.5C72.9,66.2,73.4,67.4,74.3,67.9z"/>
					</defs>
					<clipPath id="SVGID_12_">
						<use xlink:href="#SVGID_11_"  style="overflow:visible;"/>
					</clipPath>
					<g class="st36">
						<path class="st37" d="M74.3,67.9L55,56.6c-0.9-0.5-1.4-1.6-1.4-3.3c0-0.4,0-0.7,0.1-1.1L73,63.5c0,0.4-0.1,0.7-0.1,1.1
							C72.9,66.2,73.4,67.4,74.3,67.9"/>
						<path class="st38" d="M72.9,63.6L53.6,52.4c0-0.2,0.1-0.5,0.1-0.7L73,63C73,63.1,72.9,63.4,72.9,63.6"/>
						<path class="st39" d="M73,62.9L53.7,51.7c0-0.2,0.1-0.4,0.1-0.6l19.3,11.3C73.1,62.6,73.1,62.7,73,62.9"/>
						<path class="st40" d="M73.1,62.3L53.8,51c0-0.1,0.1-0.4,0.1-0.5l19.4,11.3C73.2,62,73.2,62.2,73.1,62.3"/>
						<path class="st41" d="M73.4,61.8L54.1,50.6c0-0.1,0.1-0.4,0.1-0.5l19.3,11.3C73.5,61.5,73.4,61.6,73.4,61.8"/>
						<path class="st35" d="M73.5,61.4L54.2,50.1c0-0.1,0.1-0.4,0.2-0.5l19.3,11.3C73.6,61,73.6,61.1,73.5,61.4"/>
						<path class="st34" d="M73.7,60.9L54.4,49.6c0.1-0.1,0.1-0.2,0.2-0.5l19.3,11.3C73.8,60.6,73.7,60.8,73.7,60.9"/>
						<path class="st33" d="M73.8,60.4L54.5,49.1c0.1-0.1,0.1-0.2,0.2-0.5L74.1,60C74.1,60.2,73.9,60.3,73.8,60.4"/>
						<path class="st32" d="M74.1,60.1L54.8,48.8c0.1-0.1,0.1-0.2,0.2-0.5l19.3,11.3C74.3,59.7,74.2,59.8,74.1,60.1"/>
						<path class="st31" d="M74.3,59.6L55,48.3c0.1-0.1,0.1-0.2,0.2-0.4l19.3,11.3C74.5,59.4,74.4,59.5,74.3,59.6"/>
						<path class="st30" d="M74.5,59.3L55.2,48c0.1-0.1,0.2-0.2,0.2-0.5l19.4,11.3C74.8,58.9,74.6,59,74.5,59.3"/>
						<path class="st29" d="M74.9,58.8L55.6,47.5c0.1-0.1,0.2-0.2,0.4-0.5l19.2,11.3C75,58.6,75,58.7,74.9,58.8"/>
						<path class="st28" d="M75.1,58.3L55.8,47c0.1-0.1,0.2-0.4,0.4-0.5l19.3,11.3C75.5,58.1,75.2,58.2,75.1,58.3"/>
						<path class="st27" d="M75.6,58L56.3,46.7c0.1-0.2,0.4-0.4,0.5-0.6l19.3,11.3C75.8,57.5,75.7,57.7,75.6,58"/>
						<path class="st26" d="M76.1,57.4L56.8,46.1c0.5-0.5,1.1-0.9,1.5-1.2l19.3,11.3C77,56.4,76.5,56.9,76.1,57.4"/>
					</g>
				</g>
			</g>
		</g>
		<g>
			<polygon class="st22" points="42.8,127.4 23.5,116.1 23.3,100 42.8,111.3 			"/>
		</g>
		<g class="st1">
			<g>
				<g>
					<defs>
						<path id="SVGID_13_" d="M35.9,67.6c0.8,0.5,2,0.5,3.3-0.4l19.3,11.3c-1.3,0.7-2.5,0.8-3.3,0.4C49.5,75.5,41.8,71,35.9,67.6z"
							/>
					</defs>
					<clipPath id="SVGID_14_">
						<use xlink:href="#SVGID_13_"  style="overflow:visible;"/>
					</clipPath>
					<g class="st42">
						<path class="st12" d="M55.3,78.9L36,67.6l0,0L55.3,78.9L55.3,78.9"/>
						<path class="st11" d="M55.3,78.9L36,67.6c0.1,0,0.1,0.1,0.2,0.1L55.6,79C55.5,78.9,55.5,78.9,55.3,78.9"/>
						<path class="st10" d="M55.6,79L36.3,67.7c0.1,0,0.1,0.1,0.2,0.1l19.3,11.3C55.7,79,55.7,79,55.6,79"/>
						<path class="st9" d="M55.8,79L36.5,67.7c0.1,0,0.1,0,0.2,0.1l19.3,11.3C56.1,79.2,55.9,79.2,55.8,79"/>
						<path class="st8" d="M56.1,79.2L36.8,67.9c0.1,0,0.2,0,0.2,0l19.3,11.3C56.3,79.2,56.2,79.2,56.1,79.2"/>
						<path class="st7" d="M56.4,79.2L37.1,67.9c0.1,0,0.2,0,0.4,0l19.3,11.3C56.6,79.2,56.5,79.2,56.4,79.2"/>
						<path class="st6" d="M56.8,79.2L37.5,67.9c0.1,0,0.2,0,0.4,0l19.3,11.3C56.9,79.2,56.8,79.2,56.8,79.2"/>
						<path class="st5" d="M57,79.2L37.7,67.9c0.1,0,0.2,0,0.4-0.1L57.3,79C57.3,79.2,57.2,79.2,57,79.2"/>
						<path class="st4" d="M57.5,79L38.2,67.7c0.2,0,0.4-0.1,0.6-0.2l19.3,11.3C57.8,78.9,57.6,79,57.5,79"/>
						<path class="st3" d="M58.1,78.9L38.8,67.6c0.2-0.1,0.5-0.2,0.6-0.4l19.3,11.3C58.4,78.7,58.2,78.8,58.1,78.9"/>
					</g>
				</g>
			</g>
		</g>
		<g class="st1">
			<g>
				<g>
					<defs>
						<path id="SVGID_15_" d="M44,58.8c0-1.6-0.6-2.7-1.4-3.3l19.3,11.3c0.9,0.5,1.4,1.6,1.4,3.3c0,3.2-2.1,6.9-4.7,8.5L39.3,67.3
							C41.9,65.7,44,62,44,58.8z"/>
					</defs>
					<clipPath id="SVGID_16_">
						<use xlink:href="#SVGID_15_"  style="overflow:visible;"/>
					</clipPath>
					<g class="st43">
						<path class="st3" d="M58.6,78.6L39.3,67.3c0.6-0.4,1.1-0.7,1.5-1.2l19.3,11.3C59.7,77.9,59.2,78.2,58.6,78.6"/>
						<path class="st4" d="M60.2,77.4L40.9,66.1c0.1-0.1,0.4-0.4,0.5-0.6l19.3,11.3C60.5,77,60.4,77.2,60.2,77.4"/>
						<path class="st5" d="M60.6,76.8L41.3,65.5c0.1-0.1,0.2-0.4,0.4-0.5L61,76.3C61,76.6,60.8,76.7,60.6,76.8"/>
						<path class="st6" d="M61.1,76.3L41.8,65c0.1-0.1,0.2-0.2,0.4-0.5L61.3,76C61.2,76.1,61.2,76.2,61.1,76.3"/>
						<path class="st7" d="M61.3,76L42,64.7c0.1-0.1,0.2-0.2,0.2-0.5l19.3,11.3C61.6,75.6,61.5,75.7,61.3,76"/>
						<path class="st8" d="M61.7,75.5L42.4,64.2c0.1-0.1,0.1-0.2,0.2-0.4l19.3,11.3C61.8,75.3,61.7,75.4,61.7,75.5"/>
						<path class="st9" d="M61.9,75.1L42.6,63.9c0.1-0.1,0.1-0.2,0.2-0.5l19.3,11.3C62.1,74.8,61.9,74.9,61.9,75.1"/>
						<path class="st10" d="M62.2,74.7L42.9,63.4c0.1-0.1,0.1-0.2,0.2-0.5l19.3,11.3C62.3,74.4,62.2,74.6,62.2,74.7"/>
						<path class="st11" d="M62.4,74.2L43,63c0.1-0.1,0.1-0.2,0.2-0.5l19.3,11.3C62.5,74,62.4,74.1,62.4,74.2"/>
						<path class="st12" d="M62.5,73.9L43.2,62.6c0.1-0.1,0.1-0.4,0.2-0.5l19.3,11.3C62.6,73.5,62.6,73.7,62.5,73.9"/>
						<path class="st13" d="M62.8,73.4L43.5,62.1c0.1-0.1,0.1-0.4,0.1-0.5l19.3,11.3C62.9,73,62.8,73.3,62.8,73.4"/>
						<path class="st14" d="M62.9,72.9L43.6,61.6c0-0.1,0.1-0.4,0.1-0.5l19.4,11.3C63,72.6,63,72.8,62.9,72.9"/>
						<path class="st15" d="M63.1,72.4L43.8,61.1c0-0.2,0.1-0.4,0.1-0.6l19.3,11.3C63.1,72,63.1,72.2,63.1,72.4"/>
						<path class="st16" d="M63.2,71.9L43.9,60.6c0-0.2,0.1-0.5,0.1-0.7l19.3,11.3C63.4,71.4,63.2,71.6,63.2,71.9"/>
						<path class="st17" d="M63.4,71.1L44,59.8c0-0.4,0.1-0.7,0.1-1.1c0-1.6-0.6-2.7-1.4-3.3l19.2,11.3c0.9,0.5,1.4,1.6,1.4,3.3
							C63.4,70.4,63.4,70.8,63.4,71.1"/>
					</g>
				</g>
			</g>
		</g>
		<g class="st1">
			<g>
				<g>
					<defs>
						<path id="SVGID_17_" d="M42.6,55.6l19.3,11.2c-0.8-0.5-2-0.5-3.3,0.4L39.3,55.8C40.5,55.1,41.7,55.1,42.6,55.6z"/>
					</defs>
					<clipPath id="SVGID_18_">
						<use xlink:href="#SVGID_17_"  style="overflow:visible;"/>
					</clipPath>
					<g class="st44">
						<path class="st26" d="M58.6,67.1L39.3,55.8c0.2-0.1,0.5-0.2,0.6-0.4l19.3,11.3C59,66.9,58.9,67,58.6,67.1"/>
						<path class="st27" d="M59.2,66.8L39.9,55.5c0.2-0.1,0.4-0.1,0.6-0.2l19.3,11.3C59.6,66.7,59.5,66.8,59.2,66.8"/>
						<path class="st28" d="M59.8,66.7L40.5,55.4c0.1,0,0.2-0.1,0.4-0.1l19.3,11.3C60.1,66.6,59.9,66.6,59.8,66.7"/>
						<path class="st29" d="M60.2,66.6L40.9,55.3c0.1,0,0.2,0,0.4,0l19.3,11.3C60.4,66.6,60.3,66.6,60.2,66.6"/>
						<path class="st30" d="M60.5,66.6L41.2,55.3c0.1,0,0.2,0,0.4,0l19.3,11.3C60.8,66.6,60.6,66.6,60.5,66.6"/>
						<path class="st31" d="M60.9,66.6L41.6,55.3c0.1,0,0.2,0,0.2,0l19.3,11.3C61,66.6,61,66.6,60.9,66.6"/>
						<path class="st32" d="M61.1,66.6L41.8,55.3c0.1,0,0.2,0,0.2,0.1l19.4,11.2C61.3,66.6,61.2,66.6,61.1,66.6"/>
						<path class="st33" d="M61.5,66.6L42.2,55.3c0.1,0,0.1,0,0.2,0.1l19.3,11.3C61.6,66.7,61.5,66.7,61.5,66.6"/>
						<path class="st34" d="M61.7,66.7L42.4,55.4c0.1,0,0.1,0.1,0.2,0.1l19.3,11.3C61.8,66.8,61.7,66.7,61.7,66.7"/>
						<path class="st35" d="M61.9,66.8L42.6,55.5l0,0L61.9,66.8L61.9,66.8"/>
					</g>
				</g>
			</g>
		</g>
		<g class="st1">
			<g>
				<g>
					<defs>
						<path id="SVGID_19_" d="M55.3,78.9L36,67.6c-0.9-0.5-1.4-1.6-1.4-3.3c0-3.2,2.1-6.9,4.7-8.5l19.3,11.3
							c-2.6,1.5-4.7,5.3-4.7,8.5C53.8,77.2,54.4,78.3,55.3,78.9z"/>
					</defs>
					<clipPath id="SVGID_20_">
						<use xlink:href="#SVGID_19_"  style="overflow:visible;"/>
					</clipPath>
					<g class="st45">
						<path class="st37" d="M55.3,78.9L36,67.6c-0.9-0.5-1.4-1.6-1.4-3.3c0-0.4,0-0.7,0.1-1.1l19.3,11.3c0,0.4-0.1,0.7-0.1,1.1
							C53.8,77.2,54.4,78.3,55.3,78.9"/>
						<path class="st38" d="M53.9,74.6L34.6,63.3c0-0.2,0.1-0.5,0.1-0.7l19.3,11.3C53.9,74.1,53.9,74.3,53.9,74.6"/>
						<path class="st39" d="M54.1,73.9L34.7,62.6c0-0.2,0.1-0.4,0.1-0.6l19.3,11.3C54.2,73.5,54.1,73.7,54.1,73.9"/>
						<path class="st40" d="M54.2,73.3L34.9,62.1c0-0.1,0.1-0.4,0.1-0.5l19.3,11.3C54.3,72.9,54.3,73.1,54.2,73.3"/>
						<path class="st41" d="M54.3,72.8L35,61.5c0-0.1,0.1-0.4,0.1-0.5l19.3,11.3C54.4,72.4,54.4,72.6,54.3,72.8"/>
						<path class="st35" d="M54.5,72.3L35.2,61c0-0.1,0.1-0.4,0.2-0.5l19.3,11.3C54.6,72,54.5,72.1,54.5,72.3"/>
						<path class="st34" d="M54.6,71.9L35.3,60.6c0.1-0.1,0.1-0.2,0.2-0.5l19.3,11.3C54.9,71.6,54.8,71.7,54.6,71.9"/>
						<path class="st33" d="M54.9,71.4L35.6,60.1c0.1-0.1,0.1-0.2,0.2-0.5l19.3,11.3C55,71.1,55,71.3,54.9,71.4"/>
						<path class="st32" d="M55.1,71L35.8,59.7c0.1-0.1,0.1-0.2,0.2-0.4l19.3,11.3C55.2,70.7,55.2,70.9,55.1,71"/>
						<path class="st31" d="M55.3,70.6L36,59.4c0.1-0.1,0.1-0.2,0.2-0.4l19.3,11.3C55.5,70.3,55.5,70.4,55.3,70.6"/>
						<path class="st30" d="M55.6,70.2L36.3,58.9c0.1-0.1,0.2-0.2,0.2-0.5l19.3,11.3C55.8,69.9,55.7,70.1,55.6,70.2"/>
						<path class="st29" d="M55.8,69.7L36.5,58.4c0.1-0.1,0.2-0.2,0.4-0.5l19.3,11.3C56.1,69.5,55.9,69.6,55.8,69.7"/>
						<path class="st28" d="M56.2,69.4L36.9,58.1c0.1-0.1,0.2-0.4,0.4-0.5l19.3,11.3C56.4,69,56.3,69.1,56.2,69.4"/>
						<path class="st27" d="M56.5,68.9L37.2,57.6c0.1-0.2,0.4-0.4,0.5-0.6L57,68.3C56.9,68.6,56.8,68.7,56.5,68.9"/>
						<path class="st26" d="M57.1,68.3L37.7,57.1c0.5-0.5,1.1-0.9,1.5-1.2l19.3,11.3C58.1,67.5,57.6,67.9,57.1,68.3"/>
					</g>
				</g>
			</g>
		</g>
		<g class="st1">
			<g>
				<g>
					<defs>
						<path id="SVGID_21_" d="M17,78.6c0.8,0.5,2,0.5,3.3-0.4l19.3,11.3c-1.3,0.7-2.5,0.8-3.3,0.4C30.5,86.4,22.7,82,17,78.6z"/>
					</defs>
					<clipPath id="SVGID_22_">
						<use xlink:href="#SVGID_21_"  style="overflow:visible;"/>
					</clipPath>
					<g class="st46">
						<path class="st12" d="M36.3,89.9L17,78.6l0,0L36.3,89.9C36.4,89.9,36.3,89.9,36.3,89.9"/>
						<path class="st11" d="M36.4,89.9L17.1,78.6c0.1,0,0.1,0.1,0.2,0.1L36.6,90C36.5,90,36.4,89.9,36.4,89.9"/>
						<path class="st10" d="M36.6,90L17.2,78.7c0.1,0,0.1,0.1,0.2,0.1l19.4,11.3C36.8,90,36.6,90,36.6,90"/>
						<path class="st9" d="M36.9,90.1L17.6,78.8c0.1,0,0.1,0,0.2,0.1l19.3,11.2C37,90.1,37,90.1,36.9,90.1"/>
						<path class="st8" d="M37.1,90.1L17.8,78.8c0.1,0,0.2,0,0.2,0l19.4,11.3C37.3,90.1,37.2,90.1,37.1,90.1"/>
						<path class="st7" d="M37.5,90.1L18.2,78.8c0.1,0,0.2,0,0.4,0l19.2,11.3C37.6,90.1,37.5,90.1,37.5,90.1"/>
						<path class="st6" d="M37.7,90.1L18.4,78.9c0.1,0,0.2,0,0.4,0L38,90.1C37.9,90.1,37.8,90.1,37.7,90.1"/>
						<path class="st5" d="M38,90.1L18.7,78.8c0.1,0,0.2,0,0.4-0.1L38.4,90C38.3,90.1,38.2,90.1,38,90.1"/>
						<path class="st4" d="M38.5,90L19.2,78.7c0.2,0,0.4-0.1,0.6-0.2l19.3,11.3C38.9,89.9,38.6,90,38.5,90"/>
						<path class="st3" d="M39,89.9L19.7,78.6c0.2-0.1,0.5-0.2,0.6-0.4l19.3,11.3C39.5,89.6,39.2,89.7,39,89.9"/>
					</g>
				</g>
			</g>
		</g>
		<g class="st1">
			<g>
				<g>
					<defs>
						<path id="SVGID_23_" d="M25.1,69.9c0-1.6-0.6-2.7-1.4-3.3L43,77.9c0.9,0.5,1.4,1.6,1.4,3.3c0,3.2-2.1,6.9-4.7,8.5L20.3,78.3
							C23,76.8,25.1,72.9,25.1,69.9z"/>
					</defs>
					<clipPath id="SVGID_24_">
						<use xlink:href="#SVGID_23_"  style="overflow:visible;"/>
					</clipPath>
					<g class="st47">
						<path class="st3" d="M39.7,89.5L20.3,78.3c0.6-0.4,1.1-0.7,1.5-1.2l19.3,11.3C40.8,88.8,40.2,89.2,39.7,89.5"/>
						<path class="st4" d="M41.2,88.3L21.9,77c0.1-0.1,0.4-0.4,0.5-0.6l19.3,11.3C41.6,88,41.3,88.1,41.2,88.3"/>
						<path class="st5" d="M41.7,87.7L22.4,76.4c0.1-0.1,0.2-0.4,0.4-0.5L42,87.3C41.9,87.5,41.8,87.6,41.7,87.7"/>
						<path class="st6" d="M42,87.3L22.7,76c0.1-0.1,0.2-0.2,0.4-0.5l19.3,11.3C42.3,87,42.2,87.2,42,87.3"/>
						<path class="st7" d="M42.4,86.9L23.1,75.6c0.1-0.1,0.2-0.2,0.2-0.5l19.3,11.3C42.6,86.6,42.5,86.8,42.4,86.9"/>
						<path class="st8" d="M42.6,86.4L23.3,75.1c0.1-0.1,0.1-0.2,0.2-0.4l19.3,11.3C42.9,86.2,42.8,86.3,42.6,86.4"/>
						<path class="st9" d="M42.9,86.1L23.6,74.8c0.1-0.1,0.1-0.2,0.2-0.5l19.3,11.3C43.1,85.7,43,86,42.9,86.1"/>
						<path class="st10" d="M43.1,85.6L23.8,74.3c0.1-0.1,0.1-0.2,0.2-0.5l19.3,11.3C43.3,85.4,43.2,85.5,43.1,85.6"/>
						<path class="st11" d="M43.3,85.3L24,74c0.1-0.1,0.1-0.2,0.2-0.5l19.3,11.3C43.5,84.9,43.5,85,43.3,85.3"/>
						<path class="st12" d="M43.6,84.8L24.3,73.5c0.1-0.1,0.1-0.4,0.2-0.5l19.3,11.3C43.7,84.4,43.6,84.7,43.6,84.8"/>
						<path class="st13" d="M43.7,84.3L24.4,73c0.1-0.1,0.1-0.4,0.1-0.5l19.3,11.3C43.8,84,43.8,84.2,43.7,84.3"/>
						<path class="st14" d="M43.9,83.9L24.6,72.6c0-0.1,0.1-0.4,0.1-0.5L44,83.4C44,83.5,43.9,83.7,43.9,83.9"/>
						<path class="st15" d="M44,83.4L24.7,72.1c0-0.2,0.1-0.4,0.1-0.6l19.3,11.3C44.2,82.9,44.2,83.2,44,83.4"/>
						<path class="st16" d="M44.2,82.8L24.9,71.5c0-0.2,0.1-0.5,0.1-0.7l19.3,11.3C44.3,82.3,44.3,82.6,44.2,82.8"/>
						<path class="st17" d="M44.4,82.1L25.1,70.8c0-0.4,0.1-0.7,0.1-1.1c0-1.6-0.6-2.7-1.4-3.3l19.3,11.3c0.9,0.5,1.4,1.6,1.4,3.3
							C44.4,81.4,44.4,81.7,44.4,82.1"/>
					</g>
				</g>
			</g>
		</g>
		<g class="st1">
			<g>
				<g>
					<defs>
						<path id="SVGID_25_" d="M23.6,66.6l19.3,11.3c-0.8-0.5-2-0.5-3.3,0.4L20.3,66.9C21.6,66.1,22.7,66.1,23.6,66.6z"/>
					</defs>
					<clipPath id="SVGID_26_">
						<use xlink:href="#SVGID_25_"  style="overflow:visible;"/>
					</clipPath>
					<g class="st48">
						<path class="st26" d="M39.6,78.1L20.3,66.8c0.2-0.1,0.5-0.2,0.6-0.4l19.3,11.3C40,77.9,39.8,78,39.6,78.1"/>
						<path class="st27" d="M40.3,77.7L20.9,66.6c0.2-0.1,0.4-0.1,0.6-0.2l19.3,11.3C40.6,77.6,40.4,77.7,40.3,77.7"/>
						<path class="st28" d="M40.8,77.6L21.4,66.3c0.1,0,0.2-0.1,0.4-0.1l19.3,11.3C41.1,77.5,41,77.5,40.8,77.6"/>
						<path class="st29" d="M41.2,77.5L21.9,66.2c0.1,0,0.2,0,0.4,0l19.3,11.3C41.5,77.5,41.3,77.5,41.2,77.5"/>
						<path class="st30" d="M41.6,77.5L22.3,66.2c0.1,0,0.2,0,0.4,0l19.3,11.3C41.8,77.5,41.7,77.5,41.6,77.5"/>
						<path class="st31" d="M41.9,77.5L22.6,66.2c0.1,0,0.2,0,0.2,0l19.3,11.3C42,77.5,41.9,77.5,41.9,77.5"/>
						<path class="st32" d="M42.2,77.5L22.9,66.2c0.1,0,0.2,0,0.2,0.1l19.3,11.3C42.3,77.5,42.3,77.5,42.2,77.5"/>
						<path class="st33" d="M42.4,77.6L23.1,66.3c0.1,0,0.1,0,0.2,0.1l19.3,11.3C42.6,77.6,42.5,77.6,42.4,77.6"/>
						<path class="st34" d="M42.6,77.6L23.3,66.3c0.1,0,0.1,0.1,0.2,0.1l19.3,11.3C42.9,77.7,42.8,77.7,42.6,77.6"/>
						<path class="st35" d="M42.9,77.7L23.6,66.6l0,0L42.9,77.7C43,77.7,43,77.7,42.9,77.7"/>
					</g>
				</g>
			</g>
		</g>
		<g class="st1">
			<g>
				<g>
					<defs>
						<path id="SVGID_27_" d="M36.3,89.9L17,78.6c-0.9-0.5-1.4-1.6-1.4-3.3c0-3.2,2.1-6.9,4.7-8.5l19.3,11.3
							c-2.6,1.5-4.7,5.3-4.7,8.5C34.9,88.2,35.5,89.3,36.3,89.9z"/>
					</defs>
					<clipPath id="SVGID_28_">
						<use xlink:href="#SVGID_27_"  style="overflow:visible;"/>
					</clipPath>
					<g class="st49">
						<path class="st37" d="M36.3,89.9L17,78.6c-0.9-0.5-1.4-1.6-1.4-3.3c0-0.4,0-0.7,0.1-1.1L35,85.5c0,0.4-0.1,0.7-0.1,1.1
							C34.9,88.2,35.5,89.3,36.3,89.9"/>
						<path class="st38" d="M35,85.5L15.7,74.2c0-0.2,0.1-0.5,0.1-0.7l19.3,11.3C35,85,35,85.3,35,85.5"/>
						<path class="st39" d="M35.1,84.8L15.7,73.6c0-0.2,0.1-0.4,0.1-0.6l19.4,11.2C35.1,84.4,35.1,84.7,35.1,84.8"/>
						<path class="st40" d="M35.2,84.2L15.9,72.9c0-0.1,0.1-0.4,0.1-0.5l19.3,11.3C35.3,83.9,35.2,84.1,35.2,84.2"/>
						<path class="st41" d="M35.3,83.7L16,72.4c0-0.1,0.1-0.4,0.1-0.5l19.3,11.3C35.5,83.4,35.5,83.6,35.3,83.7"/>
						<path class="st35" d="M35.6,83.3L16.3,72c0-0.1,0.1-0.4,0.2-0.5l19.3,11.3C35.7,82.9,35.6,83.2,35.6,83.3"/>
						<path class="st34" d="M35.7,82.8L16.4,71.5c0.1-0.1,0.1-0.2,0.2-0.5l19.3,11.3C35.8,82.6,35.8,82.7,35.7,82.8"/>
						<path class="st33" d="M35.9,82.3L16.6,71c0.1-0.1,0.1-0.2,0.2-0.5l19.3,11.3C36,82.1,35.9,82.2,35.9,82.3"/>
						<path class="st32" d="M36.2,82L16.9,70.7c0.1-0.1,0.1-0.2,0.2-0.4l19.3,11.3C36.3,81.7,36.2,81.9,36.2,82"/>
						<path class="st31" d="M36.4,81.5L17.1,70.2c0.1-0.1,0.1-0.2,0.2-0.4l19.3,11.3C36.5,81.3,36.4,81.4,36.4,81.5"/>
						<path class="st30" d="M36.6,81.2L17.2,69.9c0.1-0.1,0.2-0.2,0.2-0.5l19.4,11.3C36.8,80.9,36.6,81,36.6,81.2"/>
						<path class="st29" d="M36.9,80.7L17.6,69.4c0.1-0.1,0.2-0.2,0.4-0.5l19.3,11.4C37.1,80.4,37,80.6,36.9,80.7"/>
						<path class="st28" d="M37.2,80.3L17.9,69c0.1-0.1,0.2-0.4,0.4-0.5l19.3,11.3C37.5,80,37.3,80.1,37.2,80.3"/>
						<path class="st27" d="M37.6,79.9L18.3,68.6c0.1-0.2,0.4-0.4,0.5-0.6L38,79.3C37.9,79.5,37.7,79.6,37.6,79.9"/>
						<path class="st26" d="M38,79.3L18.7,68c0.5-0.5,1.1-0.9,1.5-1.2l19.3,11.3C39.1,78.4,38.5,78.8,38,79.3"/>
					</g>
				</g>
			</g>
		</g>
		<g>
			<path class="st50" d="M92.8,43.3l0.1,32.6c0,3.5-2.5,7.8-5.4,9.7l-28.2,16.4l-16.4,25.7v-16.1l-12.7,7.4
				c-3.1,1.6-5.5,0.2-5.5-3.3l-0.1-45.8c-0.1-3.4,2.5-7.8,5.4-9.7l57.4-33.2c3.1-1.6,5.5-0.2,5.5,3.3L92.8,43.3z M58.6,78.6
				c2.6-1.5,4.7-5.3,4.7-8.5c0-3.2-2.1-4.5-4.8-2.9c-2.6,1.5-4.7,5.3-4.7,8.5C53.8,78.8,56.1,80.1,58.6,78.6 M77.6,67.6
				c2.6-1.5,4.7-5.3,4.7-8.5c0-3.2-2.1-4.5-4.8-2.9c-2.6,1.5-4.7,5.3-4.7,8.5C72.9,67.7,75,69.1,77.6,67.6 M39.7,89.5
				c2.6-1.5,4.7-5.3,4.7-8.5c0-3.2-2.1-4.5-4.8-2.9c-2.6,1.5-4.7,5.3-4.7,8.5C34.9,89.7,37,91,39.7,89.5"/>
		</g>
		<g>
			<ellipse transform="matrix(0.472 -0.8816 0.8816 0.472 -13.5856 101.0237)" class="st51" cx="77.5" cy="61.9" rx="6.8" ry="4"/>
		</g>
		<g>
			<ellipse transform="matrix(0.472 -0.8816 0.8816 0.472 -33.2059 90.08)" class="st51" cx="58.6" cy="72.8" rx="6.8" ry="4"/>
		</g>
		<g>
			<ellipse transform="matrix(0.472 -0.8816 0.8816 0.472 -52.9213 79.2003)" class="st51" cx="39.7" cy="83.8" rx="6.8" ry="4"/>
		</g>
		<path class="st52" d="M24.5,115.3l-0.1-25.8L5,78.3l0.1,25.8c0,1.8,0.6,3.1,1.6,3.6L26,119.1C25.1,118.3,24.5,117.1,24.5,115.3z"
			/>
		<path class="st52" d="M24.5,91.2l-0.1-21.7L5,58.3L5.1,80L24.5,91.2z"/>
		<path class="st53" d="M71.8,15.2L71.8,15.2c-0.1-0.1-0.2-0.1-0.4-0.1l0,0h-0.1h-0.1h-0.1H71c0,0,0,0-0.1,0c-0.1,0-0.2,0-0.2,0l0,0
			l0,0c-0.1,0-0.2,0-0.4,0l0,0h-0.1c-0.1,0-0.1,0-0.2,0c0,0,0,0-0.1,0c-0.1,0-0.1,0-0.2,0s-0.1,0-0.2,0c0,0,0,0-0.1,0
			s-0.4,0.1-0.5,0.1h-0.1l0,0c-0.2,0.1-0.4,0.1-0.6,0.2L10.5,48.7c-0.4,0.2-0.7,0.5-1.1,0.7c-0.1,0.1-0.2,0.2-0.4,0.2
			C9,49.7,8.9,49.8,8.7,50c-0.1,0.1-0.2,0.2-0.4,0.4c0,0.1-0.1,0.1-0.1,0.2l-0.1,0.1C8,50.9,7.8,51,7.7,51.3
			c-0.1,0.1-0.1,0.2-0.2,0.4c0,0,0,0.1-0.1,0.1c0,0,0,0.1-0.1,0.1C7.1,52,7,52.2,6.9,52.3c-0.1,0.1-0.2,0.4-0.4,0.5v0.1
			c0,0,0,0,0,0.1s-0.1,0.2-0.1,0.4c-0.1,0.1-0.1,0.4-0.2,0.5C6,54,6,54.2,5.9,54.3l0,0l0,0c-0.1,0.1-0.1,0.4-0.2,0.5
			c-0.1,0.1-0.1,0.4-0.2,0.5c0,0.1-0.1,0.2-0.1,0.4v0.1v0.1c0,0.2-0.1,0.4-0.1,0.6c0,0.1-0.1,0.4-0.1,0.5V57v0.1
			C5.1,57.5,5,58,5,58.3l19.3,11.3c0-0.5,0-0.8,0.1-1.3v-0.1c0.1-0.4,0.1-0.8,0.2-1.3v-0.1c0.1-0.5,0.2-0.8,0.5-1.3l0,0
			c0.2-0.5,0.4-0.8,0.6-1.3c0,0,0,0,0-0.1c0.2-0.5,0.5-0.8,0.8-1.2c0,0,0-0.1,0.1-0.1c0.2-0.4,0.6-0.7,0.8-1.1
			c0-0.1,0.1-0.1,0.1-0.2c0.2-0.2,0.5-0.5,0.7-0.7c0.1-0.1,0.2-0.2,0.4-0.2c0.4-0.2,0.7-0.5,1.1-0.7l57.4-33.2
			c0.2-0.1,0.4-0.2,0.6-0.2h0.1c0.1-0.1,0.4-0.1,0.5-0.1s0.1,0,0.2-0.1c0.1,0,0.1,0,0.2,0c0.1,0,0.2,0,0.4,0h0.1c0.1,0,0.4,0,0.5,0
			l0,0c0.1,0,0.2,0,0.4,0h0.1c0.1,0,0.2,0,0.2,0.1h0.1c0.1,0,0.2,0.1,0.4,0.1L71.8,15.2z"/>
	</g>
</g>
</svg>
