<?xml version="1.0" encoding="utf-8"?>
<!-- Generator: Adobe Illustrator 23.0.3, SVG Export Plug-In . SVG Version: 6.00 Build 0)  -->
<svg version="1.1" id="Layer_1" xmlns="http://www.w3.org/2000/svg" xmlns:xlink="http://www.w3.org/1999/xlink" x="0px" y="0px"
	 width="140px" height="140px" viewBox="0 0 140 140" style="enable-background:new 0 0 140 140;" xml:space="preserve">
<style type="text/css">
	.st0{fill:url(#SVGID_1_);}
	.st1{fill:#828E96;}
	.st2{fill:#94A2AA;}
	.st3{fill:#A7B6BE;}
	.st4{fill:#B9C9D2;}
	.st5{fill:#626B71;}
	.st6{fill:#2A2A2A;}
	.st7{fill:#063D78;}
	.st8{fill:#0A477B;}
	.st9{fill:#FFFFFF;}
	.st10{fill:#FBC8AB;}
	.st11{fill:#FDC7AC;}
	.st12{fill:#FED3BA;}
	.st13{fill:#702B13;}
	.st14{fill:#403E41;}
	.st15{fill:none;stroke:#702B13;stroke-width:2.4723;stroke-miterlimit:10;}
	.st16{fill:#373D41;}
</style>
<linearGradient id="SVGID_1_" gradientUnits="userSpaceOnUse" x1="47.1593" y1="84.1268" x2="94.9819" y2="142.9589">
	<stop  offset="0" style="stop-color:#6D6E70;stop-opacity:0"/>
	<stop  offset="1" style="stop-color:#6D6E70;stop-opacity:0.7"/>
</linearGradient>
<path class="st0" d="M100.1,132.4c-6.8,0.5-13.7-0.4-18.4-2.2c-1.3-0.5-2.8-0.4-4,0.3l0,0c-0.9,0.5-2,0.5-3,0l-47.4-27.1l-0.6-6.8
	l12.8-7.5l1.3,10.2l6.9-4.6l29.6,17.1l13.3-7.7l7.5,4.3l6.6,3.8c1,0.6,1,2,0,2.6h0c-1.6,0.9-1.2,3.3,0.6,3.8
	c4.5,1.1,7.9,2.8,9.2,4.9C117.2,127.6,110.7,131.6,100.1,132.4z"/>
<g>
	<polygon class="st1" points="77.4,120.5 40.8,99.4 47.7,94.8 77.4,111.8 	"/>
	<polygon class="st2" points="77.4,120.5 77.4,111.8 106.9,94.8 106.9,103.4 	"/>
	<polygon class="st3" points="77.4,111.8 47.7,94.8 77.2,77.7 106.9,94.8 	"/>
	<polygon class="st4" points="40.8,40.6 47.7,94.8 77.2,77.7 70.3,23.6 	"/>
	<polygon class="st2" points="40.8,40.6 33.3,39.3 62.8,22.2 70.3,23.6 	"/>
	<polygon class="st1" points="40.8,40.6 33.3,39.3 40.8,99.4 47.7,94.8 	"/>
	<polygon class="st4" points="45.4,20.3 47.1,33.9 58.7,27.1 57,13.5 	"/>
	<polygon class="st2" points="45.4,20.3 41.5,19 53.3,12.1 57,13.5 	"/>
	<polygon class="st1" points="45.4,20.3 41.5,19 43.4,32.6 47.1,33.9 	"/>
</g>
<g>
	<g>
		<polygon class="st1" points="102,67.5 76.5,52.1 76.5,61 101.5,75.4 		"/>
		<polygon class="st2" points="102,67.5 76.5,52.1 85,49.3 110,63.8 		"/>
		<polygon class="st5" points="102,67.5 110,63.7 109.3,72.4 101.5,75.4 		"/>
	</g>
	<path class="st6" d="M98.2,118c0,0,4,3.5,5.6,4.9c1.5,1.4,2.5,4.6,1.5,5.7c-1,1.1-4.8,0.5-6.5-0.7c-1.7-1.2-6.6-6.6-6.6-6.6
		l2.3-5.7L98.2,118z"/>
	<path class="st7" d="M85.5,74.1c5.4,0.5,16.6,5.4,24.8,11.4c8.2,6,6.9,10.7,5.9,12.7s-3.2,7.7-8.9,12c-5.7,4.4-9,7.7-9,7.7l-7-2.7
		c0,0,6.3-14.4,10-15.4c3.7-1,2.2-4.2,1.4-3.8s-14.2-3.8-18.1-5.5C80.6,88.9,85.5,74.1,85.5,74.1z"/>
	<path class="st6" d="M90.8,124.3c0,0,8.6,6.9,9.1,8.1c0.5,1.2,0.3,3.1-3,3.4c-3.3,0.3-5.7-1.1-6.7-1.9c-1-0.8-5.1-6.3-5.8-7
		c-0.7-0.7-1.3-2.9-0.2-4C85.1,121.6,90.8,124.3,90.8,124.3z"/>
	<path class="st8" d="M84.1,79.1c0,0,0.6,6.6,2.4,9.7c1.8,3.1,12.2,11.9,10.9,17.7c-1.3,5.9-6.6,17.7-6.6,17.7l-6.7-1.5
		c0,0-1.6-10.9,2.4-15.1c-5.9-3.3-25.8-14.4-27.9-20.2c-2.2-5.9-1.7-9.7-1.7-9.7L84.1,79.1z"/>
	<path class="st9" d="M90.7,75.3c0,0-0.9-3.6-5.1-6.4c-4.2-2.7-6.4-8.7-6.8-14.4c-0.4-5.7-1.5-6.9-1.5-6.9L80,44
		c0,0-5.2-6.9-8.4-8.3s-8.8,0-8.8,0S48.2,42,46.1,46.3s0,12.5,0,12.5s4.2-4.2,9.2,0.3c0,5.8,1.3,10.8,1.6,13.1
		c0.3,2.3-1.3,7.6,0.2,9.5c1.5,1.9,17,1.9,22.6,0.7C85.1,81.2,90.7,75.3,90.7,75.3z"/>
	<path class="st10" d="M80,44c1.7,2.7,7.8,6.5,7.8,6.5s5.9,4,8.6,4.3c2.7,0.3,6.3,1,8.6,2.4c2.3,1.4,7.3,8.1,7.1,9.2s0,3.7-1.1,4
		c-1.1,0.4-4.3-2-5.3-2.9s-2.8-4-3.2-5.7s-1.3-2-4.2-2s-8-0.2-11-0.7c-3-0.5-8.6-4.6-8.6-4.6l-1.5-6.9L80,44z"/>
	<path class="st11" d="M50.3,31.6c0.9,1.3,2.7,3.9,2.5,5c-0.2,1.1,0,4.5,0,4.5s1.1,2.6,5.3,2.8c4.2,0.2,6.2-0.5,7.2-2.4
		c1-1.9-2.3-2.7-2.7-3.8c-0.4-1.1-1.3-6.1-1.1-6.7C61.9,30.5,48.4,29,50.3,31.6z"/>
	<path class="st12" d="M52.2,32.1c0.9,0,8.6,0.7,10.3-1.2s-0.4-6.6-0.9-7.2c-0.4-0.6-1.5-2.1-1.5-2.1s-2.2-4-5-4.6
		c-2.8-0.6-6.1-0.2-9.5,3.1C42.3,23.4,46.4,31.9,52.2,32.1z"/>
	<path class="st13" d="M50.3,31.6c0,0-3.9-1.7-3.8-2.8c0.1-1.1,2.6-1.3,2.6-1.3s1-0.4,1-0.7c0-0.3-0.5-3.7-0.5-3.7s-1.6-1.8-1.2-3.1
		c0.4-1.3,2.5-3.6,7.7-2.7c-2.2-2.5-5.7-3.4-9-1.8c-3.3,1.5-5.2,8-4,10.4s2.8,5.5,6.3,6.5C50.6,32.5,50.3,31.6,50.3,31.6z"/>
	<path class="st14" d="M53.8,19.5c-1.8,0.8-3.6,2.8-3.8,3.6s1.9,1.8,3.6,1.4s2-1.5,2.3-1.8s0.2-1.4,1.1-1.4c0.9,0,2.8,0.9,3.2,0.3
		c0.4-0.7-0.8-2.5-1.8-2.9S55.9,18.6,53.8,19.5z"/>
	<path class="st15" d="M59.7,24.8"/>
	<g>
		<path class="st16" d="M70.2,23.5c0,0,0.9,43.1-22.6,71.3l3.5,2c1-1.1,22-28,20.5-63.6L70.2,23.5z"/>
		<path class="st16" d="M51.6,97c23.6-3,41.5-20.8,41.5-20.8L90,73.8C77.9,87.1,47.6,94.7,47.6,94.7L51.6,97z"/>
	</g>
	<polygon class="st1" points="65.8,89.1 38.9,72.9 38.9,82.2 65.3,97.5 	"/>
	<polygon class="st2" points="65.8,89.1 38.9,72.9 47.9,70 74.3,85.2 	"/>
	<polygon class="st5" points="65.8,89.1 74.3,85.1 73.4,94.3 65.3,97.5 	"/>
	<path class="st10" d="M46.1,58.8c0,0,1.8,9,2.5,10.8c0.6,1.8,0.3,4.6,3,5.7s12.4,6,13.3,6.5c0.9,0.5,1.6,4.6,3.4,6
		c0.9,3.8,1.4,5.5,2.9,4.4c0.9,0.2,1.7-0.2,1.9-0.8c0.9,0.3,1.5-0.3,1.7-0.7c0.6,0.4,1.7,0,1.9-1c0.2-1.1,0.3-2.9,0.4-4.2
		c-1.1-1.7-2.2-3.4-3.2-4.8c-2.4-1.6-5.3-3.3-7.1-4.3c-1.8-1-8.2-7.2-11.4-7.6c0.3-2.9-0.3-9.7-0.3-9.7S52.7,55,46.1,58.8z"/>
</g>
</svg>
