<?xml version="1.0" encoding="utf-8"?>
<!-- Generator: Adobe Illustrator 24.0.0, SVG Export Plug-In . SVG Version: 6.00 Build 0)  -->
<svg version="1.1" id="Layer_1" xmlns="http://www.w3.org/2000/svg" xmlns:xlink="http://www.w3.org/1999/xlink" x="0px" y="0px"
	 width="140px" height="140px" viewBox="0 0 140 140" style="enable-background:new 0 0 140 140;" xml:space="preserve">
<style type="text/css">
	.st0{opacity:0.4;fill:#4D4D4F;enable-background:new    ;}
	.st1{fill:#3F7AB2;}
	.st2{fill:#2962A5;}
	.st3{fill:#F1F1F2;}
	.st4{fill:#CFCFCF;}
	.st5{fill:#BBBDBF;}
	.st6{fill:#E8E8E8;}
	.st7{enable-background:new    ;}
	.st8{fill:#2D2A2B;}
	.st9{fill:#231F20;}
</style>
<g>
	
		<ellipse transform="matrix(1.607371e-02 -0.9999 0.9999 1.607371e-02 -80.8391 144.2723)" class="st0" cx="32.9" cy="113.2" rx="6.3" ry="16.3"/>
	<path class="st1" d="M50.3,45.8C50.2,56.7,35,102.8,35,102.8l-9.1-5.6c-4.6-7.4-19.3-32-19.1-45.4c0.3-16,9.3-29.4,21.3-31.1
		C33.4,19.9,43,23,43,23S50.5,36.8,50.3,45.8z"/>
	<path class="st2" d="M57.6,48.5c-0.3,16-22.6,54.2-22.6,54.2S13.8,70.4,14.1,54.4c0.3-16,10.2-30.3,22.2-31.9S57.9,32.5,57.6,48.5z
		"/>
	<ellipse transform="matrix(0.1953 -0.9807 0.9807 0.1953 -19.3752 76.6691)" class="st3" cx="37" cy="50.1" rx="13.7" ry="10"/>
</g>
<g>
	<polygon class="st4" points="118.3,63.3 132.9,72.2 132.9,55.9 118.3,47 	"/>
	<polygon class="st5" points="134.4,71.4 132.9,72.2 132.9,55.9 134.4,55 	"/>
	<polygon class="st6" points="119.8,46.2 134.4,55 132.9,55.9 118.3,47 	"/>
	<polygon class="st5" points="131,62.5 102.2,76.1 102.2,78.4 131,65.2 	"/>
	<polygon class="st6" points="131,62.5 102.2,76.1 97.3,73 119.8,55.9 	"/>
	<path class="st4" d="M90.8,80.3c0,0,1.6,2.3,5.5,2.3s5.9-2.3,5.9-2.3V65.1l-10.9,1.2L90.8,80.3z"/>
	<g>
		<g class="st7">
			<g>
				<polygon class="st4" points="84.1,66 84.1,79.1 82.3,80.2 70.3,73.2 69.1,70.7 69.2,57.5 70.8,56.3 82.4,63 				"/>
			</g>
			<g>
				<polygon class="st5" points="84.1,66.1 114,48.7 113.9,61.7 84.1,79.1 				"/>
			</g>
			<g>
				<polygon class="st6" points="70.8,56.3 100.7,39 112.2,45.6 82.4,63 				"/>
			</g>
			<polygon class="st3" points="82.4,63 84.1,66.1 114,48.7 112.2,45.6 			"/>
		</g>
	</g>
	<g>
		<path class="st8" d="M82.3,65.9v9.9c0,1-1.1,1.6-1.9,1.1l-8.6-5c-0.6-0.3-0.9-0.9-0.9-1.6v-9.9c0-1,1.1-1.6,1.9-1.1l8.6,5
			C82,64.7,82.3,65.3,82.3,65.9z"/>
	</g>
	<ellipse transform="matrix(0.9367 -0.3502 0.3502 0.9367 -19.0247 31.142)" class="st9" cx="76.6" cy="68.2" rx="3.4" ry="5.8"/>
	<ellipse transform="matrix(0.9367 -0.3502 0.3502 0.9367 -19.0247 31.142)" class="st8" cx="76.6" cy="68.2" rx="2.6" ry="4.4"/>
	<ellipse transform="matrix(0.9367 -0.3502 0.3502 0.9367 -19.0247 31.142)" class="st9" cx="76.6" cy="68.2" rx="1.8" ry="3.2"/>
	<ellipse transform="matrix(0.9367 -0.3502 0.3502 0.9367 -19.0247 31.142)" class="st5" cx="76.6" cy="68.2" rx="0.6" ry="1"/>
</g>
</svg>
