<?xml version="1.0" encoding="utf-8"?>
<!-- Generator: Adobe Illustrator 24.0.0, SVG Export Plug-In . SVG Version: 6.00 Build 0)  -->
<svg version="1.1" id="Layer_1" xmlns="http://www.w3.org/2000/svg" xmlns:xlink="http://www.w3.org/1999/xlink" x="0px" y="0px"
	 width="140px" height="140px" viewBox="0 0 140 140" style="enable-background:new 0 0 140 140;" xml:space="preserve">
<style type="text/css">
	.st0{fill:#338DC9;}
	.st1{fill:#0071BB;}
	.st2{fill:#FFFFFF;}
	.st3{fill:#49BEAF;}
	.st4{fill:#22427E;}
</style>
<g>
	<g>
		<polygon class="st0" points="39.3,8 37,9.4 37.2,102.4 96.9,137.1 99,135.8 98.9,42.7 		"/>
	</g>
	<g>
		<polygon class="st1" points="37,9.4 37.2,102.4 96.9,137.1 96.6,44 		"/>
	</g>
	<g>
		<polygon class="st2" points="42.1,19.3 42.3,98.8 91.7,127.5 91.5,48 		"/>
	</g>
	<path class="st3" d="M78.4,34.7c0-1.1-0.5-2.2-1.2-3.4c-0.7-1.1-1.6-2.1-2.7-2.7l-6.2-3.6c0-1.9-1.5-4.2-3.4-5.3
		c-1.9-1.1-3.4-0.5-3.4,1.4l-6.2-3.6c-2.1-1.2-3.9-0.5-3.9,1.6v7.3L78.3,42v-7.3H78.4z"/>
	<g>
		<polygon class="st4" points="62.9,46.6 63,51 86.9,64.9 86.8,60.4 		"/>
	</g>
	<g>
		<polygon class="st4" points="62.9,68.3 63,72.9 86.9,86.8 86.8,82.2 		"/>
	</g>
	<g>
		<polygon class="st4" points="62.9,89.6 63,94.1 86.9,107.9 86.8,103.4 		"/>
	</g>
	<g>
		<g>
			<path class="st4" d="M58.7,59.3l-13.2-7.6V36.9l13.2,7.6V59.3z M48.3,50l7.5,4.4v-8.1l-7.5-4.4V50z"/>
		</g>
	</g>
	<g>
		<g>
			<path class="st4" d="M58.7,80.9l-13.2-7.6V58.6l13.2,7.6V80.9z M48.3,71.6l7.5,4.4v-8.1l-7.5-4.4V71.6z"/>
		</g>
	</g>
	<g>
		<g>
			<path class="st4" d="M58.7,102.6L45.5,95V80.3L58.7,88V102.6z M48.3,93.4l7.5,4.4v-8.1l-7.5-4.4V93.4z"/>
		</g>
	</g>
	<g>
		<polygon class="st3" points="50.3,53.3 46.9,44.2 48.6,41.3 51.5,48.6 64.1,38.2 64.3,41.6 		"/>
	</g>
</g>
</svg>
