<?xml version="1.0" encoding="utf-8"?>
<!-- Generator: Adobe Illustrator 23.0.3, SVG Export Plug-In . SVG Version: 6.00 Build 0)  -->
<svg version="1.1" id="Layer_1" xmlns="http://www.w3.org/2000/svg" xmlns:xlink="http://www.w3.org/1999/xlink" x="0px" y="0px"
	 width="140px" height="140px" viewBox="0 0 140 140" style="enable-background:new 0 0 140 140;" xml:space="preserve">
<style type="text/css">
	.st0{opacity:0.4;fill:#4D4D4F;enable-background:new    ;}
	.st1{fill:#603813;}
	.st2{fill:#0F2A4B;}
	.st3{fill:#C3996B;}
	.st4{fill:#F9C992;}
	.st5{fill:#FFFFFF;}
	.st6{fill:#E1AA73;}
	.st7{fill:#FAC882;}
	.st8{fill:#23323C;}
	.st9{fill:#F1F1F2;}
	.st10{fill:#4ABFA8;}
</style>
<ellipse class="st0" cx="68.5" cy="132.1" rx="18.7" ry="7.5"/>
<g>
	<g>
		<path class="st1" d="M68.2,125.2c0,0-0.7,1.1,0,1.7s12,4.9,13.7,3.4s-7.8-7.7-9.4-7.5C71,123.1,68.2,125.2,68.2,125.2z"/>
		<path class="st1" d="M55.7,127.2c0,0-1.4,4.1-1.2,6.8c0.1,2.8,0.9,4,2.7,4.2s3.6-1.8,3.6-4.5c0-2.8-0.5-7.8-0.5-7.8L55.7,127.2z"
			/>
		<path class="st2" d="M74,67.8c0,0-10.2,2.5-23.6,1.4l4.7,57.7c0,0,4,2.8,4.9,0c0.4-3.5,3.8-37.7,3.5-39.5
			c2.3,3.1,4.4,32.3,4.6,37.9c0,0,3.6,0.6,4.4-2.9C73.6,118.7,75.6,81.5,74,67.8z"/>
		<path class="st1" d="M74,67.8l0.2,2.8c0,0-8.2,1.5-21.8,1.2c-0.8-2.1-0.8-2.7-0.8-2.7L74,67.8z"/>
		<rect x="71" y="68.1" class="st3" width="1.2" height="3.5"/>
		<rect x="55.1" y="69" class="st3" width="1.2" height="3.5"/>
		<rect x="62.2" y="68.6" class="st3" width="3.3" height="3.5"/>
		<path class="st4" d="M47.4,77.5c0,0,0.5,3.7,0.7,4.8c0.2,1.1,2,1.8,2.7,1.8s2.1-0.4,2.3-2.4c0.1-2-0.4-5.6-0.4-5.6
			S49.4,75.2,47.4,77.5z"/>
		<path class="st4" d="M94.9,38.3c0,0,3.3-2.8,4.3-3.7c0.9-0.7,3.1-0.1,3.7,0.5s1.6,2,0.1,3.9s-4.6,4.6-4.6,4.6S94.9,42,94.9,38.3z"
			/>
		<g>
			<path class="st5" d="M59,24.6c0,0-9.9,1.7-11.9,5.3s-2.6,19.5-2.6,19.5l7.1,1.6l-1.1,18.2c0,0,4.6,0.4,12.4,0.1
				C71.2,69,74,67.8,74,67.8s1.3-17.5,0.1-23.8c2.9-1.2,4.9-2.6,4.9-2.6S77,27,75.9,25.8C74.8,24.7,67.3,22.1,59,24.6z"/>
			<path class="st4" d="M59.2,21.6c0,0-0.3,3.2-0.2,4.2c0.1,1.1,1.8,3.6,5.3,2.9c3.5-0.6,2.6-0.8,2.5-2.3c-0.1-1.4-0.4-4.2-0.4-4.2
				L59.2,21.6z"/>
			<path class="st6" d="M66.1,23.1c0,0-6.4,0.1-6.9-0.7C59,24.2,59,24.2,59,24.2S63.8,25.4,66.1,23.1z"/>
			<path class="st5" d="M53.4,35.9c0,0-3.8-8.3-5.9-6.7c-2.1,1.6-2.5,3.4-2.5,3.4c-0.1,2-1.1,21.6-1.4,23.4s-0.3,2.4,0,4
				c0.3,1.5,2.3,13.9,2.9,18.2c2.1-2,6-2.1,6-2.1v-1.3l-1.8-11.9c-0.5-2.4-0.6-5.7-0.4-6.9c0.2-1.4,0.7-5.5,1.7-5.2L53.4,35.9z"/>
			<path class="st5" d="M74.1,44c0,0,10.5,10.1,11.4,10.4c0.8,0.3,1.8-0.5,2.6-1.2c0.8-0.7,10.7-8.6,10.7-8.6l-3.7-7.1L86.2,44
				c0,0-8.4-16.8-10.2-18.1"/>
		</g>
		<g>
			<g>
				<path class="st4" d="M63.1,23.7L63.1,23.7c-4.1,0-7.5-3.3-7.6-7.4l-0.2-9.1h15.5V16C70.8,20.3,67.3,23.7,63.1,23.7z"/>
				<path class="st7" d="M57.3,16.9L57.3,16.9c-1.3,0-2.2-0.9-2.2-2.2L55,12h4.6v2.6C59.6,15.9,58.5,16.9,57.3,16.9z"/>
			</g>
			<path class="st1" d="M53.8,5.2c1.1-1.5,4.9-4.6,7.6-4.5c2.6,0.1,5.9,0.7,7.2,2.4c0.3,0.4,0.9,0.8,1.7,1.2
				c1.9,0.8,2.4,3.3,1.2,4.8c-1.2,1.5-2.9,2.6-5.1,2.6c-4.4-0.1-6.9-2.1-6.9-2.1s-0.9,0.6-0.7,1.4c0.2,0.7-0.2,2.7-0.2,3.3
				c0,0.5-0.8,0-0.8,0s-1.3-2-2.4-0.7C53.5,13.1,52,7.7,53.8,5.2z"/>
		</g>
	</g>
</g>
<path class="st8" d="M57.3,25c-2.9,0.6-8.7,2.2-10.2,4.9C52.4,34,51.7,45,51.7,45l-0.8,17.9c0,0,0.7,4.3,0.8,6.4
	c1.9,0.1,5.8,0.2,11.3,0c8.3-0.3,11.2-1.5,11.2-1.5s1.3-17.5,0.1-23.8c2.4-10.4,2.9-17,1.7-18.2c-0.7-0.7-3.9-2-8.2-2.2
	c0,0-0.8,9.1-2.8,11.8C61,32.5,57.3,25,57.3,25z"/>
<g>
	<polygon class="st9" points="64.2,28.8 61,32.5 57.3,25 58.6,23 	"/>
	<polygon class="st9" points="64.2,28.8 67.1,31.6 67.7,23.7 66.2,22.3 	"/>
</g>
<g>
	<g>
		<path class="st10" d="M70.9,33.3L70.9,33.3l0.6-0.3l0,0l0.2-0.8l0,0L70.9,33.3z"/>
	</g>
	<g>
		<path class="st10" d="M72.4,33L72.4,33l-0.6-0.1l0,0l-0.2-0.7l0,0L72.4,33z"/>
	</g>
	<g>
		<path class="st10" d="M67.9,35.2l0.2-0.2c0.1,0.1,0.2,0.1,0.2,0.1c0.1,0,0.2-0.1,0.2-0.2V34h0.3v0.8c0,0.2,0,0.3-0.1,0.4
			c-0.1,0.1-0.2,0.2-0.4,0.2C68.1,35.4,68,35.3,67.9,35.2z"/>
	</g>
	<g>
		<path class="st10" d="M69.4,33.8l1.1-0.1V34l-0.7,0.1v0.3l0.6-0.1v0.3l-0.6,0.1V35l0.7-0.1v0.3l-1.1,0.1V33.8z"/>
	</g>
	<g>
		<path class="st10" d="M73.3,34l-0.5-0.7l0.3-0.1l0.3,0.5l0.3-0.6H74L73.5,34v0.5h-0.3L73.3,34L73.3,34z"/>
	</g>
	<g>
		<polygon class="st10" points="71.5,34.8 71.5,33.5 70.9,33.5 70.9,33.8 71.3,33.8 71.3,34.8 		"/>
	</g>
	<g>
		<polygon class="st10" points="71.7,34.8 71.7,33.4 72.4,33.3 72.4,33.6 72,33.7 72,34.7 		"/>
	</g>
</g>
</svg>
