<?xml version="1.0" encoding="utf-8"?>
<!-- Generator: Adobe Illustrator 24.0.0, SVG Export Plug-In . SVG Version: 6.00 Build 0)  -->
<svg version="1.1" id="Layer_1" xmlns="http://www.w3.org/2000/svg" xmlns:xlink="http://www.w3.org/1999/xlink" x="0px" y="0px"
	 width="140px" height="140px" viewBox="0 0 140 140" style="enable-background:new 0 0 140 140;" xml:space="preserve">
<style type="text/css">
	.st0{opacity:0.3;fill:#4D4D4F;enable-background:new    ;}
	.st1{fill:#FFFFFF;}
	.st2{fill:#F1F1F2;}
	.st3{clip-path:url(#SVGID_2_);}
	.st4{fill:none;stroke:#25A9E0;stroke-width:2.0731;stroke-miterlimit:10;}
	.st5{fill:none;stroke:#FAAF40;stroke-width:2.0731;stroke-miterlimit:10;}
	.st6{fill:none;stroke:#37B34A;stroke-width:2.0731;stroke-miterlimit:10;}
	.st7{fill:none;stroke:#EE4036;stroke-width:2.0731;stroke-miterlimit:10;}
	.st8{fill:#FFFFFF;stroke:#231F20;stroke-width:1.3002;stroke-miterlimit:10;}
	.st9{fill:#FFFFFF;stroke:#231F20;stroke-width:1.284;stroke-miterlimit:10;}
	.st10{fill:#FFFFFF;stroke:#231F20;stroke-width:1.2482;stroke-miterlimit:10;}
	.st11{fill:#FFFFFF;stroke:#231F20;stroke-width:1.2983;stroke-miterlimit:10;}
</style>
<path class="st0" d="M26.5,43.7h87.2c1.3,0,2.3,0.9,2.5,2.2l8.8,72.8c0.2,1.5-1,2.8-2.5,2.8H17.8c-1.5,0-2.6-1.3-2.5-2.8L24,45.8
	C24.2,44.6,25.3,43.7,26.5,43.7z"/>
<path class="st1" d="M23.1,31.2h94.1c1.1,0,2,0.8,2.2,1.9l9.5,78.8c0.2,1.3-0.9,2.4-2.2,2.4h-113c-1.3,0-2.3-1.1-2.2-2.4l9.5-78.8
	C21,32,22,31.2,23.1,31.2z"/>
<polygon class="st2" points="25.9,35.3 114.3,35.3 123.4,110.3 16.9,110.3 "/>
<g>
	<defs>
		<polygon id="SVGID_1_" points="25.9,35.3 114.3,35.3 123.4,110.3 16.9,110.3 		"/>
	</defs>
	<clipPath id="SVGID_2_">
		<use xlink:href="#SVGID_1_"  style="overflow:visible;"/>
	</clipPath>
	<g class="st3">
		<polyline class="st4" points="20.7,78.8 47.9,78.8 78,48.7 117.4,48.7 		"/>
		<polyline class="st5" points="20,84.1 58.5,84.1 73,98.6 73,110.3 		"/>
		<polyline class="st6" points="117.4,60.9 100,73.6 21.3,73.6 		"/>
		<polyline class="st7" points="52.5,33.2 48.7,58.9 38.8,68.8 21.9,68.8 		"/>
		<ellipse class="st8" cx="91.1" cy="73.6" rx="2.7" ry="2.1"/>
		<ellipse class="st8" cx="52.9" cy="73.6" rx="2.7" ry="2.1"/>
		<ellipse class="st9" cx="71.3" cy="55" rx="2.7" ry="2.1"/>
		<ellipse class="st10" cx="58.5" cy="84.1" rx="2.7" ry="2"/>
		<ellipse class="st10" cx="27.9" cy="84.1" rx="2.7" ry="2"/>
		<ellipse class="st11" cx="48.7" cy="58.2" rx="2.7" ry="2.1"/>
	</g>
</g>
</svg>
