<?xml version="1.0" encoding="utf-8"?>
<!-- Generator: Adobe Illustrator 24.0.0, SVG Export Plug-In . SVG Version: 6.00 Build 0)  -->
<svg version="1.1" id="Layer_1" xmlns="http://www.w3.org/2000/svg" xmlns:xlink="http://www.w3.org/1999/xlink" x="0px" y="0px"
	 width="140px" height="140px" viewBox="0 0 140 140" style="enable-background:new 0 0 140 140;" xml:space="preserve">
<style type="text/css">
	.st0{fill:none;}
	.st1{fill:#BABCBE;}
	.st2{opacity:0.3;fill:#4D4D4F;enable-background:new    ;}
	.st3{fill:#F2F2F2;}
	.st4{fill:#E6E6E6;}
	.st5{fill:#626566;}
	.st6{fill:#465E67;}
	.st7{fill:#FFFFFF;}
	.st8{fill:#C8D6DD;}
	.st9{fill:#D47733;}
	.st10{fill:#4C4B4E;}
	.st11{fill:#727170;}
	.st12{fill:#809D99;}
	.st13{fill:#4C6775;}
	.st14{fill:#7095A1;}
	.st15{fill:#49BEAF;}
	.st16{fill:#2E887F;}
	.st17{fill:#006B71;}
	.st18{fill:#82CEC8;}
	.st19{fill:#6A9AA3;}
	.st20{fill:#BE1E2D;}
	.st21{fill:#2C2D2D;}
	.st22{fill:#CCCCCC;}
	.st23{fill:#999999;}
	.st24{fill:#ECEAD3;}
	.st25{fill:#338DC9;}
	.st26{fill:#0071BB;}
	.st27{fill:#22427E;}
</style>
<g>
	<polygon class="st0" points="14.8,29.2 14.8,29.2 14.8,29.2 	"/>
	<path class="st1" d="M100.1,113.4c-0.1,0-0.1,0-0.2,0C100,113.3,100.1,113.3,100.1,113.4z"/>
	<path class="st1" d="M98.4,113.1C98.3,113.1,98.3,113.1,98.4,113.1C98.3,113.1,98.3,113.1,98.4,113.1z"/>
	<path class="st1" d="M96.9,112.7c-0.1,0-0.1,0-0.2-0.1C96.8,112.6,96.9,112.6,96.9,112.7z"/>
	<path class="st1" d="M97.6,112.9c-0.1,0-0.1,0-0.2-0.1C97.5,112.8,97.5,112.8,97.6,112.9z"/>
	<path class="st1" d="M99.3,113.2c-0.1,0-0.2,0-0.2,0C99.1,113.2,99.2,113.2,99.3,113.2z"/>
	<path class="st2" d="M78,107.3L37.6,84.4c-0.9,2-3,2.9-5.5,2.3c17.2,9.9,38.5,22.1,50.9,29.2C80.3,113.7,78.4,110.3,78,107.3z"/>
	<path class="st2" d="M133.4,96.3c-2.1-2.2-6.6-4.2-7.2-5.2c-0.5-1-0.9-6.6-1.2-8.7s-0.5-4.3-4.5-6.6c-0.5-0.3-2.1-1.2-4.3-2.5
		c0.7,1.8,1.2,3,1.2,3s8.1,13,8.2,14.4c0,0.1,0,0.2,0.1,0.4c0,0.1,0,0.1,0,0.2c0,0.1,0,0.2,0,0.3c0,0.1,0,0.1,0,0.2
		c0,0.2,0,0.3,0.1,0.5c0,0.1,0,0.1,0,0.2c0,0.2,0,0.3,0.1,0.5c0,0.1,0,0.2,0,0.2c0,0.1,0,0.3,0.1,0.4c0,0.1,0,0.1,0,0.2
		c0.1,0.4,0.1,0.9,0.2,1.3c0,0.1,0,0.2,0.1,0.4c0,0.1,0,0.1,0,0.1c0,0.1,0,0.2,0,0.2l0,0c0.1,0.8,0.2,1.4,0.2,1.4
		c0.5,0.8,0.7,7.2,0.1,8.4c-0.6,1.2-5.1,4.5-7.5,5.9c-2.4,1.5-10.5,5.5-15.1,6.6c-4.6,1.1-9-1.3-9-1.3l-2.4-1.4
		c-0.9,2.4-3.4,3.3-6.2,2.3c4,2.3,6.5,3.8,6.8,3.9c1.8,1.1,5.3,3.4,8.9,1.4c3.6-2,28.3-16.2,30.9-18
		C135.5,103.1,135.5,98.6,133.4,96.3z"/>
	<path class="st1" d="M126.1,98.5c0-0.2,0.1-0.4,0.1-0.6C126.2,98.1,126.1,98.3,126.1,98.5z"/>
	<path class="st1" d="M103.3,113.2c-0.4,0.1-0.8,0.1-1.1,0.1C102.5,113.3,102.9,113.3,103.3,113.2z"/>
	<path class="st1" d="M101.7,113.4c-0.2,0-0.5,0-0.7,0C101.3,113.4,101.5,113.4,101.7,113.4z"/>
	<path class="st2" d="M23.3,76.3l-8.4-4.7c-0.6-0.7-3-5.5-3-5.5l0-1.2l0-1h0c-3.7,2.2-6.3,3.8-6.7,4.1c-2.1,1.5-1.9,2.1,0,3.2
		c0.6,0.4,10,5.7,22.4,12.8C25.3,81.9,23.7,79,23.3,76.3z"/>
	<path class="st3" d="M14.9,29.2l28,16.2c7.1-4.2,12.3-7.3,12.3-7.3s12.5,7.2,26.5,15.3l14.1-8.2L41.3,13.8L14.9,29.2L14.9,29.2
		L14.9,29.2z"/>
	<path class="st3" d="M81.7,53.4c-14-8.1-26.5-15.3-26.5-15.3s-5.2,3.1-12.3,7.3l26.4,15.2L81.7,53.4z"/>
	<polygon class="st4" points="11.8,37.7 11.8,37.7 11.8,52 11.8,52 	"/>
	<path class="st4" d="M42.9,45.3l-28-16.1l0,0l9.6,5.6l18.3,10.6C42.8,45.4,42.8,45.4,42.9,45.3z"/>
	<path class="st4" d="M101,107.2c-0.3-0.2-0.5-0.4-0.6-0.5c-0.3-0.3-2.9-3.4-3-4.2c-0.1-0.7,0-2.3,0.2-2.8c-1.5-1.9-8.2-8.1-8.2-8.1
		s-2.8-6.6-5.7-15.2c-2.9-8.6-14.3-15.9-14.3-15.9L42.9,45.3c0,0-0.1,0.1-0.1,0.1l9.7,5.6l2.5,7.1l15,8.8l0,12.3l-9.4-5.4l2.4,6.6
		c0.2,0.6-0.1,1.3-0.8,1.5L48.4,86l29.4,16.6c1.2-2.2,4.7-3.8,9.7-0.7c5.2,3.2,6.3,9,6.3,9s1,0.8,2.5,1.4c0.2,0.1,0.3,0.1,0.5,0.2
		c0.1,0,0.1,0,0.2,0.1c0.1,0.1,0.3,0.1,0.5,0.2c0.1,0,0.1,0,0.2,0.1c0.2,0.1,0.5,0.1,0.7,0.2c0,0,0.1,0,0.1,0c0.2,0,0.4,0.1,0.7,0.1
		c0.1,0,0.2,0,0.2,0c0.2,0,0.4,0.1,0.6,0.1c0.1,0,0.1,0,0.2,0c0.3,0,0.6,0,0.8,0C101,113.2,101,109.8,101,107.2z M75.8,99.6
		c0,0-3.2-5.4-3.2-7.7c0-2.3,1.3-3.9,3-3.7c1.7,0.2,3.1,2.3,3.2,4.5S75.8,99.6,75.8,99.6z M87.6,90.6l-0.9-0.3v-0.8l-0.9-0.5v2.6
		c0,0.5-0.4,0.9-0.9,0.8l-1.8-0.4c-0.4-0.1-0.6-0.4-0.6-0.8v-4.9l-10.7-6.2V68l6.9,4.3c1.2,0.7,2,1.8,2.5,3.1l3.3,9.2l0.8,0.2
		c0.4,0.1,0.6,0.4,0.6,0.8v2l1.7,0.9V90.6z"/>
	<path class="st4" d="M59.4,80c-0.1,0-0.2,0.1-0.3,0.1l-13.8,4.1l0,0l13.8-4.1C59.2,80.1,59.3,80.1,59.4,80z"/>
	<path class="st4" d="M59.9,78.8c0,0.3,0,0.5-0.1,0.7C59.9,79.3,60,79.1,59.9,78.8z"/>
	<path class="st4" d="M16.5,68.7l-0.6-0.3C16.1,68.5,16.3,68.6,16.5,68.7z"/>
	<polygon class="st4" points="49.3,49.3 49.3,49.3 51.8,56.3 51.8,56.3 	"/>
	<polygon class="st4" points="11.9,63.9 11.9,64.8 11.9,63.9 	"/>
	<path class="st4" d="M42.9,45.3l-28-16.2l0,0L42.9,45.3C42.9,45.3,42.9,45.3,42.9,45.3z"/>
	<path class="st4" d="M69.3,60.5L42.9,45.3c0,0,0,0,0,0L69.3,60.5z"/>
	<path class="st5" d="M116.1,72.6c0.4-0.1,0.6-0.4,0.6-0.8v-6.2c0-0.5-0.4-0.9-0.9-0.8l-1.1,0.4c-0.4,0.1-0.6,0.4-0.6,0.8v2.4
		c0.6,1.5,1.3,3,1.8,4.3L116.1,72.6z"/>
	<path class="st6" d="M83.4,84.4l1.1,0.2l-3.3-9.2c-0.5-1.3-1.3-2.4-2.5-3.1L71.8,68v12.2l10.7,6.2v-1.3
		C82.5,84.6,83,84.3,83.4,84.4z"/>
	<path class="st5" d="M85.9,87.5v-2c0-0.4-0.3-0.7-0.6-0.8l-0.8-0.2l1.4,3.8V87.5z"/>
	<path class="st5" d="M82.5,86.4v4.9c0,0.4,0.3,0.7,0.6,0.8l1.8,0.4c0.5,0.1,0.9-0.3,0.9-0.8v-2.6v-0.7L82.5,86.4z"/>
	<path class="st5" d="M84.5,84.6l-1.1-0.2c-0.5-0.1-0.9,0.3-0.9,0.8v1.3l3.4,2L84.5,84.6z"/>
	<polygon class="st5" points="85.9,88.4 85.9,89.1 86.8,89.6 86.8,90.3 87.6,90.6 87.6,88.4 85.9,87.5 	"/>
	<path class="st3" d="M116.2,73.3c-0.1-0.2-0.2-0.4-0.3-0.6l-0.5,0.2C115.7,73,115.9,73.2,116.2,73.3z"/>
	<path class="st3" d="M105.6,54.2c2.6,4.5,3.6,9.2,3.6,9.2c0.2-0.1,0.3-0.2,0.4-0.3c0.6-0.3,0.9-0.5,0.9-0.5l3.6,8.5v-2.7
		c-1.3-3-2.6-6-3.6-7.9c-2.3-4.3-4.7-7.6-6.7-10c-2.1-2.5-8-5.3-8-5.3S103,49.7,105.6,54.2z"/>
	<path class="st3" d="M115.1,73c0,0-0.1,0-0.1,0l1.5,3.5l0,0v0c0,0,0,0,0,0c0,0,0,0,0,0c0,0,0,0.1-0.1,0.1c0,0,0,0,0,0.1
		c0,0-0.1,0.1-0.1,0.1c0,0-0.1,0.1-0.1,0.1c0,0.1-0.1,0.1-0.1,0.2c0,0-0.1,0.1-0.1,0.1c0,0-0.1,0.1-0.1,0.1c0,0,0,0,0,0
		c0,0,7.3,15.8,7.7,16.5c0.5,0.7,0.3,5.8,0.4,9c0.3-0.3,0.5-0.5,0.8-0.8c1.1-1.2,1.4-2.6,1.5-3.6c0-0.2,0.1-0.4,0.1-0.6
		c0.1-0.5,0.1-0.8,0.3-0.8c0,0-0.1-0.6-0.2-1.4c0,0.1-0.5,0.6-0.6,0.8c-0.1,0.2-1.4,1.4-1.7,1.1s-0.3-2.8-0.2-3.2
		c0.1-0.4,0.4-0.3,0.9-0.9c0.5-0.6,0.9-2.9,0.9-2.9c-0.2-1.4-8.2-14.4-8.2-14.4s-0.5-1.2-1.2-3c-0.2-0.1-0.5-0.3-0.7-0.4L115.1,73z"
		/>
	<path class="st3" d="M108.1,102.8c-0.4-0.7-14.8-12.4-14.8-12.4l0,0c-1.5,0.6-2.3,0.8-2.3,0.8l-5.6-14.3c0,0,1.3-0.8,3.4-1.9
		c0,0,0,0,0,0c-1.5-5.3-9.6-11.7-13.2-12.8c-3.5-1.1-6.2-1.7-6.2-1.7s11.4,7.4,14.3,15.9c2.9,8.6,5.7,15.2,5.7,15.2s6.7,6.2,8.2,8.1
		c0.1-0.1,0.1-0.2,0.2-0.2c0.4,0.1,1.4,1.1,1.9,1.6c0.4,0.4,2,2.1,2.2,2.1c0.2,0,4.3,0,4.6,0c0.4,0,1-0.1,1.2,0.1
		c0,0,1.5,2.1,1.7,2.3c0.2,0.2-0.2,0.5-0.5,0.6c-0.2,0.1-6.4,1.2-7,1.2c-0.3,0-0.6-0.1-0.9-0.2c0,2.6,0,6,0,6.2c0,0,0,0,0,0
		c0.2,0,0.5,0,0.7,0c0.1,0,0.2,0,0.4,0c0.4,0,0.8-0.1,1.1-0.1c1.9-0.3,6-1.9,9.5-3.5C112.2,108.9,108.4,103.4,108.1,102.8z
		 M75.8,64.6L75.8,64.6L75.8,64.6z"/>
	<path class="st3" d="M126.3,95.4c0,0.1,0,0.1,0,0.1C126.3,95.5,126.3,95.4,126.3,95.4z"/>
	<path class="st3" d="M126.1,93.7c0.1,0.4,0.1,0.9,0.2,1.3C126.2,94.6,126.1,94.1,126.1,93.7z"/>
	<path class="st3" d="M125.7,91.2c0,0.1,0,0.2,0,0.3C125.7,91.4,125.7,91.3,125.7,91.2z"/>
	<path class="st3" d="M125.8,91.7c0,0.2,0,0.3,0.1,0.5C125.8,92,125.8,91.8,125.8,91.7z"/>
	<path class="st3" d="M125.9,92.3c0,0.2,0,0.3,0.1,0.5C125.9,92.7,125.9,92.5,125.9,92.3z"/>
	<path class="st3" d="M126,93.1c0,0.1,0,0.3,0.1,0.4C126,93.4,126,93.2,126,93.1z"/>
	<path class="st3" d="M125.6,90.6c0,0.1,0,0.2,0.1,0.4C125.7,90.8,125.6,90.7,125.6,90.6z"/>
	<path class="st3" d="M114.7,72.4c0.3,0.1,0.5,0.3,0.7,0.4l0.5-0.2c-0.5-1.3-1.1-2.7-1.8-4.3v2.7L114.7,72.4z"/>
	<path class="st3" d="M115.1,73l0.4-0.1c-0.2-0.1-0.5-0.3-0.7-0.4l0.2,0.6C115,73,115,73,115.1,73z"/>
	<path class="st7" d="M104,66.3c0.4-0.2,0.8-0.5,1.3-0.7c0.7-0.4,1.4-0.8,2-1.1c0.3-0.2,0.5-0.3,0.8-0.4c0.4-0.2,0.8-0.5,1.1-0.6
		c0,0-1-4.6-3.6-9.2c-2.6-4.5-9.8-9-9.8-9l-14.1,8.2C89.2,57.7,97.3,62.4,104,66.3z"/>
	<path class="st7" d="M75.5,62.2c3.5,1.1,11.7,7.5,13.2,12.8c0,0,0,0,0,0c3.2-1.8,8.1-4.6,12.5-7.1l0,0c0.1,0,0.1-0.1,0.2-0.1
		c0,0,0.1-0.1,0.1-0.1c0.9-0.5,1.7-1,2.5-1.4c-6.8-3.9-14.8-8.6-22.4-12.9l-12.4,7.2C69.3,60.5,72,61.2,75.5,62.2z"/>
	<path class="st7" d="M115.5,77.6c-0.1,0.1-0.1,0.1-0.2,0.2c-0.1,0.1-0.1,0.1-0.2,0.2c0,0,0,0,0,0l0,0l0,0c-0.1,0.1-0.1,0.1-0.2,0.2
		c-0.1,0.1-0.2,0.1-0.2,0.2c-0.1,0.1-0.2,0.2-0.3,0.3c0,0-0.1,0.1-0.1,0.1c0,0,0,0,0,0c-0.1,0.1-0.2,0.2-0.3,0.3
		c-0.2,0.2-0.5,0.4-0.7,0.6c-0.5,0.4-1.1,0.9-1.8,1.3c-1.3,0.9-3,2-5.1,3.2c-5.4,3-10.2,5-13,6l0,0c0,0,14.4,11.7,14.8,12.4
		c0.4,0.6,4.1,6.1,4.7,7c2.1-0.9,4-1.8,5.2-2.5c2.8-1.6,4.3-2.7,5.9-4.3c-0.1-3.2,0.1-8.3-0.4-9c-0.5-0.7-7.7-16.5-7.7-16.5
		c0,0,0,0,0,0C115.6,77.5,115.6,77.6,115.5,77.6z M104.3,89.3l-4.9,2.8c-0.2,0.1-0.4,0.1-0.5-0.1L98,91.1c-0.2-0.2-0.1-0.5,0.1-0.7
		l5-2.7c0.2-0.1,0.4-0.1,0.5,0.1l0.8,0.8C104.6,88.8,104.6,89.1,104.3,89.3z M121.6,96.6c0.4-0.5,1.2-1.2,1.3-0.7c0,0.1,0,0.6,0,1.1
		c0,0,0,0,0,0l0,1c0,0,0,0,0,0c0,1.2-0.1,2.4-0.1,2.8c-0.1,0.6-0.2,0.9-0.5,1.2c-0.4,0.3-2.8,2.3-3.5,2.7s-4.2,2.2-5.1,2.5
		c-0.9,0.3-1.5,0.3-1.7-0.1c-0.1-0.1-0.2-0.3-0.3-0.5c0,0,0,0-0.1,0l-0.3-0.6c-0.2-0.4-0.5-0.9-0.8-1.3l-0.2-0.3c0,0,0,0,0,0
		c-0.2-0.3-0.3-0.6-0.4-0.8c-0.3-0.6,0.2-1,0.8-1.1c0.6-0.1,4.5-1.4,6.4-2.5C119,98.9,121.2,97,121.6,96.6z M116.1,81.8l-3.2,2.4
		c-0.2,0.1-0.4,0.1-0.6,0l-0.7-0.7c-0.2-0.2-0.2-0.5,0.1-0.7l3.3-2.4c0.2-0.1,0.4-0.1,0.6,0.1l0.7,0.7
		C116.3,81.3,116.3,81.6,116.1,81.8z"/>
	<path class="st8" d="M125.9,92.8c0,0.1,0,0.2,0,0.2C126,93,125.9,92.9,125.9,92.8z"/>
	<path class="st8" d="M125.8,92.1c0,0.1,0,0.1,0,0.2C125.9,92.3,125.8,92.2,125.8,92.1z"/>
	<path class="st8" d="M126.3,95.8c0-0.1,0-0.2,0-0.2C126.3,95.6,126.3,95.7,126.3,95.8L126.3,95.8z"/>
	<path class="st8" d="M125.7,91c0,0.1,0,0.1,0,0.2C125.7,91.1,125.7,91,125.7,91z"/>
	<path class="st8" d="M125.7,91.5c0,0.1,0,0.1,0,0.2C125.8,91.6,125.7,91.5,125.7,91.5z"/>
	<path class="st8" d="M126.2,95c0,0.1,0,0.2,0.1,0.4C126.3,95.3,126.3,95.1,126.2,95z"/>
	<path class="st8" d="M126,93.5c0,0.1,0,0.1,0,0.2C126,93.6,126,93.6,126,93.5z"/>
	<path class="st8" d="M123.8,94.5c-0.1,0.4-0.2,2.9,0.2,3.2s1.6-0.9,1.7-1.1c0.1-0.2,0.6-0.7,0.6-0.8c0-0.1,0-0.2,0-0.2
		c0,0,0-0.1,0-0.1c0-0.1,0-0.2-0.1-0.4c-0.1-0.4-0.1-0.9-0.2-1.3c0-0.1,0-0.1,0-0.2c0-0.1,0-0.3-0.1-0.4c0-0.1,0-0.2,0-0.2
		c0-0.2,0-0.4-0.1-0.5c0-0.1,0-0.1,0-0.2c0-0.2,0-0.3-0.1-0.5c0-0.1,0-0.1,0-0.2c0-0.1,0-0.2,0-0.3c0-0.1,0-0.1,0-0.2
		c0-0.1,0-0.3-0.1-0.4c0,0-0.4,2.4-0.9,2.9C124.2,94.1,123.9,94,123.8,94.5z"/>
	<path class="st8" d="M97.3,102.5c0.1,0.8,2.8,3.9,3,4.2c0.1,0.1,0.3,0.3,0.6,0.5c0-0.8,0-1.5,0-2c0-0.2,0-0.4-0.1-0.6
		c0,0.7-0.2,1.4-0.3,1.3c-0.3-0.2-2-2.1-2.2-2.3c-0.2-0.2-0.6-1-0.6-1.2c0-0.1,0.1-1.3,0.1-1.6c0-0.2,0.2-0.2,0.4-0.1
		c-0.2-0.3-0.4-0.5-0.5-0.7c0-0.1-0.1-0.2-0.2-0.3C97.3,100.2,97.3,101.8,97.3,102.5z"/>
	<path class="st8" d="M98.3,100.7c0.5,0.2,1.1,0.8,1.3,1c0.3,0.3,1.1,1.1,1.2,1.6c0.1,0.2,0.1,0.7,0,1.3c0,0.2,0.1,0.4,0.1,0.6
		c0,0.5,0,1.2,0,2c0.3,0.2,0.6,0.3,0.9,0.2c0.6-0.1,6.8-1.1,7-1.2c0.2-0.1,0.6-0.4,0.5-0.6c-0.2-0.2-1.7-2.3-1.7-2.3
		c-0.2-0.2-0.8-0.1-1.2-0.1c-0.4,0-4.4,0-4.6,0c-0.2,0-1.8-1.7-2.2-2.1c-0.5-0.5-1.5-1.5-1.9-1.6c-0.1,0-0.1,0.1-0.2,0.2
		c0.1,0.1,0.2,0.2,0.2,0.3C97.9,100.2,98.1,100.4,98.3,100.7z"/>
	<path class="st9" d="M97.9,100.8c0,0.3-0.1,1.5-0.1,1.6c0,0.1,0.5,0.9,0.6,1.2c0.2,0.2,1.9,2.1,2.2,2.3c0.2,0.1,0.3-0.6,0.3-1.3
		c-0.3-1.5-1.7-2.8-2.6-3.9C98.1,100.6,97.9,100.6,97.9,100.8z"/>
	<path class="st9" d="M100.9,103.4c-0.1-0.5-0.9-1.3-1.2-1.6c-0.2-0.2-0.9-0.8-1.3-1c0.9,1.1,2.3,2.5,2.6,3.9
		C100.9,104.1,100.9,103.6,100.9,103.4z"/>
	<path class="st10" d="M116.9,103.7C116.9,103.6,116.9,103.6,116.9,103.7l0-1c-2.1,1-5.6,2.3-6.1,2.3l-0.2-0.4
		c0.2,0.4,0.5,0.9,0.8,1.3l0-0.1C111.2,105.9,114.5,104.9,116.9,103.7z"/>
	<path class="st10" d="M109.9,103.6c0.1,0.1,0.2,0.4,0.4,0.8c0.2-0.1,4.6-1.5,7-2.9c2.5-1.5,5.6-4.4,5.7-4.5c0-0.5,0-0.9,0-1.1
		c-0.1-0.5-0.9,0.2-1.3,0.7c-0.4,0.5-2.6,2.4-4.5,3.4c-1.9,1-5.8,2.4-6.4,2.5C110.1,102.6,109.7,103,109.9,103.6z"/>
	<path class="st10" d="M118.8,101.5C118.8,101.5,118.8,101.6,118.8,101.5l0,1c2.2-1.5,4.1-3.4,4.1-3.4l0,1c-0.4,0.5-3,2.9-4.9,3.9
		c-1.8,1-5.7,2.4-6.4,2.6c0.2,0.3,0.3,0.5,0.3,0.5c0.3,0.4,0.8,0.3,1.7,0.1c0.9-0.3,4.4-2,5.1-2.5s3.2-2.4,3.5-2.7
		c0.4-0.3,0.5-0.6,0.5-1.2c0-0.3,0.1-1.6,0.1-2.8C122.7,98.4,120.6,100.3,118.8,101.5z"/>
	<path class="st11" d="M123,98l0-1c0,0,0,0,0,0C123,97.3,123,97.6,123,98C123,98,123,98,123,98z"/>
	<path class="st11" d="M110.3,104.3l0.2,0.3C110.4,104.6,110.4,104.4,110.3,104.3C110.3,104.3,110.3,104.3,110.3,104.3z"/>
	<path class="st11" d="M110.3,104.3c0.1,0.1,0.1,0.2,0.2,0.3l0.2,0.4c0.5-0.1,4-1.3,6.1-2.3v-0.2c0-0.1,0.1-0.2,0.1-0.3l1.4-0.9
		c0.2-0.1,0.4,0,0.4,0.2c1.8-1.3,3.8-3.2,4.2-3.5c0-0.4,0-0.7,0-1c-0.1,0.1-3.2,3.1-5.7,4.5C114.9,102.9,110.5,104.3,110.3,104.3z"
		/>
	<path class="st11" d="M111.6,106.6C111.6,106.6,111.6,106.6,111.6,106.6c-0.1-0.2-0.2-0.4-0.3-0.6L111.6,106.6z"/>
	<path class="st11" d="M122.9,100.1l0-1c0,0-2,1.9-4.1,3.4v0.2c0,0.1-0.1,0.2-0.1,0.3l-1.4,0.9c-0.2,0.1-0.4,0-0.4-0.2
		c-2.4,1.2-5.7,2.2-5.7,2.2l0,0.1c0.1,0.2,0.3,0.4,0.4,0.6c0.8-0.2,4.6-1.6,6.4-2.6C119.9,103,122.5,100.6,122.9,100.1z"/>
	<path class="st6" d="M109.2,63.4c0.2-0.1,0.3-0.2,0.4-0.3C109.5,63.2,109.4,63.3,109.2,63.4L109.2,63.4L109.2,63.4z"/>
	<path class="st6" d="M90.9,91.2l-1.1-2.8c0,0,10.1-6,12-6.9c1.9-0.9,1.3-1.9,1.5-2.6c0.2-0.7,0.9-1.3,3-2.3
		c0.9-0.5,2.7-1.1,4.5-1.6c-3.6-2.6-8.2-6-9.3-6.9c-3.8,2.2-8.5,4.9-12.7,6.9c-2,1.2-3.3,1.9-3.4,1.9L90.9,91.2z"/>
	<polygon class="st6" points="116.4,76.5 116.4,76.5 116.4,76.5 	"/>
	<path class="st6" d="M105.3,65.6c0.7-0.4,1.4-0.8,2-1.1C106.7,64.8,106,65.2,105.3,65.6z"/>
	<path class="st6" d="M109.2,63.4L109.2,63.4c-0.3,0.2-0.7,0.4-1.1,0.6C108.5,63.8,108.9,63.6,109.2,63.4L109.2,63.4z"/>
	<path class="st6" d="M101.2,67.9c-4.4,2.5-9.3,5.3-12.5,7.1c4.2-2.1,8.9-4.7,12.7-6.9C101.3,68,101.2,67.9,101.2,67.9z"/>
	<path class="st6" d="M101.4,67.8c0,0,0.1-0.1,0.1-0.1C101.5,67.7,101.4,67.7,101.4,67.8z"/>
	<path class="st12" d="M109.6,63.1c0.6-0.3,0.9-0.5,0.9-0.5S110.2,62.8,109.6,63.1z"/>
	<path class="st12" d="M105.3,65.6c-0.4,0.2-0.8,0.5-1.3,0.7v0C104.5,66,104.9,65.8,105.3,65.6z"/>
	<path class="st12" d="M107.3,64.4c0.3-0.2,0.5-0.3,0.8-0.4C107.8,64.1,107.6,64.3,107.3,64.4z"/>
	<path class="st12" d="M101.2,67.9L101.2,67.9c0.1,0,0.1-0.1,0.2-0.1C101.3,67.8,101.3,67.8,101.2,67.9z"/>
	<path class="st12" d="M104,66.3L104,66.3c-0.8,0.4-1.6,0.9-2.5,1.4C102.4,67.2,103.2,66.7,104,66.3z"/>
	<polygon class="st12" points="115.1,78.1 115.1,78.1 115.1,78.1 	"/>
	<path class="st12" d="M104.2,66.4c3,1.8,5.8,3.4,8.2,4.8c-1-4.4-1.9-8.5-1.9-8.5s-0.3,0.2-0.9,0.5c-0.1,0.1-0.3,0.2-0.4,0.3
		C109.2,63.4,107.2,64.6,104.2,66.4z"/>
	<path class="st12" d="M110.7,75c0.9-0.3,1.7-0.5,2.4-0.7c-0.2-1-0.5-2.1-0.7-3.1c-2.4-1.4-5.2-3-8.2-4.8c-0.9,0.5-1.8,1.1-2.8,1.7
		C102.5,69,107.2,72.4,110.7,75z"/>
	<path class="st12" d="M104.2,66.4c3-1.8,5-3,5-3c-0.3,0.2-0.7,0.4-1.1,0.6c-0.2,0.1-0.5,0.3-0.8,0.4c-0.6,0.3-1.3,0.7-2,1.1
		c-0.4,0.2-0.8,0.5-1.3,0.7C104.1,66.3,104.2,66.4,104.2,66.4z"/>
	<path class="st12" d="M104.2,66.4c-0.1,0-0.1-0.1-0.2-0.1c-0.8,0.4-1.6,0.9-2.5,1.4c0,0-0.1,0.1-0.1,0.1c-0.1,0-0.1,0.1-0.2,0.1
		c0,0,0.1,0.1,0.2,0.2C102.4,67.5,103.4,66.9,104.2,66.4z"/>
	<path class="st13" d="M116,77.1c0,0-0.1,0.1-0.1,0.1C115.9,77.2,115.9,77.2,116,77.1z"/>
	<path class="st13" d="M116.3,76.7C116.3,76.7,116.3,76.7,116.3,76.7C116.3,76.7,116.3,76.7,116.3,76.7z"/>
	<path class="st13" d="M116.4,76.6C116.4,76.6,116.4,76.6,116.4,76.6C116.4,76.6,116.4,76.6,116.4,76.6z"/>
	<path class="st13" d="M116.2,76.9C116.1,76.9,116.1,76.9,116.2,76.9C116.1,76.9,116.1,76.9,116.2,76.9z"/>
	<path class="st13" d="M114.1,79c0,0,0.1-0.1,0.1-0.1C114.2,78.9,114.2,78.9,114.1,79C114.1,79,114.1,79,114.1,79z"/>
	<path class="st13" d="M115.3,77.9c-0.1,0.1-0.1,0.1-0.2,0.2C115.2,78,115.2,77.9,115.3,77.9z"/>
	<path class="st13" d="M114.8,78.3c-0.1,0.1-0.2,0.1-0.2,0.2C114.7,78.5,114.8,78.4,114.8,78.3z"/>
	<path class="st13" d="M115.7,77.5c0,0.1-0.1,0.1-0.2,0.2C115.6,77.6,115.6,77.5,115.7,77.5z"/>
	<polygon class="st13" points="116.4,76.5 116.4,76.5 116.4,76.5 	"/>
	<path class="st13" d="M114.1,72.1v-1l-3.6-8.5c0,0,0.9,4.1,1.9,8.5C113,71.5,113.6,71.8,114.1,72.1z"/>
	<path class="st13" d="M114.1,72.3v-0.1c-0.5-0.3-1.1-0.6-1.7-1c0.2,1,0.5,2.1,0.7,3.1c1.2-0.3,2.1-0.6,2.1-0.6l1.2,2.8l0,0
		l-1.5-3.5C114.5,73,114.1,72.7,114.1,72.3z"/>
	<path class="st13" d="M114.7,72.4l-0.6-1.3v1C114.3,72.2,114.5,72.3,114.7,72.4z"/>
	<path class="st13" d="M114.1,72.3c0,0.4,0.4,0.8,0.8,0.8l-0.2-0.6c-0.2-0.1-0.4-0.2-0.6-0.3V72.3z"/>
	<path class="st14" d="M116.4,76.6C116.4,76.5,116.4,76.5,116.4,76.6L116.4,76.6C116.4,76.5,116.4,76.5,116.4,76.6
		C116.4,76.6,116.4,76.6,116.4,76.6z"/>
	<path class="st14" d="M115.7,77.4C115.7,77.4,115.7,77.4,115.7,77.4C115.7,77.4,115.7,77.4,115.7,77.4L115.7,77.4z"/>
	<path class="st14" d="M115.7,77.4c0-0.1,0.1-0.1,0.1-0.1c0,0,0,0,0,0C115.8,77.3,115.8,77.4,115.7,77.4z"/>
	<path class="st14" d="M116,77.1C116,77.1,116,77.1,116,77.1c0.1-0.1,0.1-0.1,0.1-0.2c0,0,0,0,0,0C116.1,77,116,77.1,116,77.1z"/>
	<path class="st14" d="M116.2,76.9C116.2,76.9,116.2,76.9,116.2,76.9c0-0.1,0.1-0.1,0.1-0.1c0,0,0,0,0,0
		C116.2,76.8,116.2,76.8,116.2,76.9z"/>
	<path class="st14" d="M116.3,76.7C116.3,76.7,116.3,76.7,116.3,76.7C116.3,76.6,116.4,76.6,116.3,76.7
		C116.4,76.6,116.4,76.6,116.3,76.7C116.4,76.6,116.3,76.6,116.3,76.7z"/>
	<path class="st14" d="M113.8,79.3c0.1-0.1,0.2-0.2,0.3-0.3c0,0,0,0,0,0C114,79.1,113.9,79.2,113.8,79.3z"/>
	<path class="st14" d="M114.8,78.3C114.8,78.3,114.8,78.3,114.8,78.3c0.1-0.1,0.2-0.1,0.2-0.2l0,0C115,78.2,114.9,78.2,114.8,78.3z"
		/>
	<path class="st14" d="M114.3,78.8C114.3,78.8,114.3,78.8,114.3,78.8c0.1-0.1,0.2-0.2,0.3-0.3c0,0,0,0,0,0
		C114.5,78.6,114.4,78.7,114.3,78.8z"/>
	<path class="st14" d="M113.1,79.9c-0.5,0.4-1.1,0.9-1.8,1.3C112,80.7,112.6,80.3,113.1,79.9z"/>
	<path class="st14" d="M115.7,77.5C115.7,77.5,115.7,77.5,115.7,77.5C115.7,77.5,115.7,77.5,115.7,77.5L115.7,77.5
		C115.7,77.5,115.7,77.5,115.7,77.5z"/>
	<path class="st14" d="M115.1,78.1L115.1,78.1C115.1,78.1,115.1,78.1,115.1,78.1C115.1,78.1,115.1,78.1,115.1,78.1
		C115.1,78.1,115.1,78.1,115.1,78.1z"/>
	<path class="st14" d="M115.3,77.9C115.3,77.9,115.3,77.9,115.3,77.9c0.1-0.1,0.1-0.2,0.2-0.2c0,0,0,0,0,0
		C115.4,77.7,115.4,77.8,115.3,77.9z"/>
	<path class="st14" d="M113.8,77.2c-0.8-0.6-1.9-1.3-3-2.2c-1.7,0.5-3.5,1.1-4.5,1.6c-2.1,1.1-2.8,1.7-3,2.3
		c-0.2,0.7,0.4,1.7-1.5,2.6c-1.9,0.9-12,6.9-12,6.9l1.1,2.8c0,0,0.9-0.3,2.3-0.8l20.8-12C113.9,78,113.9,77.6,113.8,77.2z"/>
	<path class="st14" d="M116.3,76.7c0,0-0.1,0.1-0.1,0.1C116.2,76.8,116.2,76.8,116.3,76.7z"/>
	<path class="st14" d="M116.4,76.6C116.4,76.5,116.4,76.5,116.4,76.6L116.4,76.6C116.4,76.5,116.4,76.5,116.4,76.6z"/>
	<path class="st14" d="M116.1,77c0,0.1-0.1,0.1-0.1,0.2C116,77.1,116.1,77,116.1,77z"/>
	<path class="st14" d="M115.7,77.4L115.7,77.4L115.7,77.4C115.7,77.4,115.7,77.4,115.7,77.4c0.1-0.1,0.1-0.1,0.2-0.2
		C115.8,77.3,115.7,77.4,115.7,77.4z"/>
	<path class="st14" d="M116.4,76.6C116.4,76.6,116.3,76.6,116.4,76.6C116.3,76.6,116.4,76.6,116.4,76.6z"/>
	<path class="st14" d="M115.3,77.9c0.1-0.1,0.1-0.2,0.2-0.2C115.4,77.7,115.4,77.8,115.3,77.9z"/>
	<path class="st14" d="M114.6,78.5c-0.1,0.1-0.2,0.2-0.3,0.3C114.4,78.7,114.5,78.6,114.6,78.5z"/>
	<path class="st14" d="M114,78.4l-20.8,12c2.7-1,7.6-3,13-6c2.1-1.1,3.7-2.2,5.1-3.2c0.7-0.5,1.3-0.9,1.8-1.3
		c0.3-0.2,0.5-0.4,0.7-0.6c0.1-0.1,0.2-0.2,0.3-0.3C114.1,78.8,114.1,78.6,114,78.4z"/>
	<path class="st14" d="M114.8,78.3c0.1-0.1,0.2-0.1,0.2-0.2l0,0C115,78.2,114.9,78.2,114.8,78.3z"/>
	<path class="st14" d="M115.1,78.1C115.1,78.1,115.1,78.1,115.1,78.1L115.1,78.1C115.1,78.1,115.1,78.1,115.1,78.1z"/>
	<path class="st14" d="M115.7,77.4L115.7,77.4L115.7,77.4C115.7,77.5,115.7,77.5,115.7,77.4C115.7,77.5,115.7,77.5,115.7,77.4z"/>
	<polygon class="st14" points="115.1,78.1 115.1,78.1 115.1,78.1 115.1,78.1 	"/>
	<path class="st14" d="M113.8,77.2c-0.2-0.9-0.4-1.9-0.6-2.9c-0.7,0.2-1.6,0.5-2.4,0.7C111.9,75.8,113,76.6,113.8,77.2z"/>
	<polygon class="st14" points="115.1,78.1 115.1,78.1 115.1,78.1 115.1,78.1 	"/>
	<path class="st14" d="M116.4,76.6C116.4,76.6,116.4,76.6,116.4,76.6C116.4,76.6,116.4,76.6,116.4,76.6
		C116.4,76.6,116.4,76.6,116.4,76.6C116.4,76.6,116.4,76.6,116.4,76.6z"/>
	<path class="st14" d="M116.1,77C116.1,77,116.1,77,116.1,77C116.1,76.9,116.1,76.9,116.1,77C116.2,76.9,116.2,76.9,116.1,77
		C116.1,76.9,116.1,76.9,116.1,77z"/>
	<path class="st14" d="M115.8,77.3C115.8,77.3,115.8,77.3,115.8,77.3c0,0,0.1-0.1,0.1-0.1c0,0,0,0,0,0
		C115.9,77.2,115.9,77.2,115.8,77.3z"/>
	<path class="st14" d="M116.3,76.7C116.3,76.7,116.3,76.7,116.3,76.7C116.3,76.7,116.3,76.7,116.3,76.7
		C116.3,76.7,116.3,76.7,116.3,76.7C116.3,76.7,116.3,76.7,116.3,76.7z"/>
	<path class="st14" d="M115.1,78.1C115.1,78.1,115.1,78.1,115.1,78.1c0.1-0.1,0.1-0.1,0.2-0.2c0,0,0,0,0,0
		C115.2,77.9,115.2,78,115.1,78.1z"/>
	<path class="st14" d="M114.1,79C114.1,79,114.1,79,114.1,79c0,0,0.1-0.1,0.1-0.1c0,0,0,0,0,0C114.2,78.9,114.2,78.9,114.1,79z"/>
	<path class="st14" d="M115.5,77.6c0.1-0.1,0.1-0.1,0.2-0.2c0,0,0,0,0,0C115.6,77.5,115.6,77.6,115.5,77.6
		C115.5,77.6,115.5,77.6,115.5,77.6z"/>
	<path class="st14" d="M114.6,78.5C114.6,78.5,114.6,78.5,114.6,78.5c0.1-0.1,0.2-0.2,0.2-0.2c0,0,0,0,0,0
		C114.8,78.4,114.7,78.5,114.6,78.5z"/>
	<path class="st14" d="M115.7,77.4c0.1-0.1,0.1-0.1,0.2-0.2c0,0,0.1-0.1,0.1-0.1c0.1-0.1,0.1-0.1,0.1-0.2c0,0,0.1-0.1,0.1-0.1
		c0,0,0.1-0.1,0.1-0.1c0,0,0,0,0-0.1c0,0,0-0.1,0.1-0.1c0,0,0,0,0,0c0,0,0,0,0,0l0,0l-0.9,1L115.7,77.4z"/>
	<path class="st14" d="M114.8,77.9c-0.2-0.2-0.6-0.4-1.1-0.8c0.1,0.4,0.2,0.8,0.3,1.2L114.8,77.9z"/>
	<path class="st14" d="M114.1,79c0,0,0.1-0.1,0.1-0.1c0.1-0.1,0.2-0.2,0.3-0.3c0.1-0.1,0.2-0.2,0.2-0.2c0.1-0.1,0.2-0.1,0.2-0.2
		c0,0-0.1-0.1-0.2-0.2l-0.8,0.5C114.1,78.6,114.1,78.8,114.1,79z"/>
	<path class="st14" d="M115.1,78.1C115.1,78.1,115.1,78.1,115.1,78.1c0.1-0.1,0.2-0.2,0.2-0.2c0.1-0.1,0.1-0.2,0.2-0.2
		c0.1-0.1,0.1-0.1,0.2-0.2c0,0,0,0,0,0l-0.1,0.1L115.1,78.1z"/>
	<path class="st14" d="M114.8,77.9l0.7-0.4l0.9-1l-1.2-2.8c0,0-0.9,0.2-2.1,0.6c0.2,1,0.4,2,0.6,2.9
		C114.3,77.5,114.6,77.8,114.8,77.9z"/>
	<path class="st14" d="M115.1,78.1l0.5-0.6l-0.7,0.4C115,78,115.1,78.1,115.1,78.1C115.1,78.1,115.1,78.1,115.1,78.1z"/>
	<polygon class="st6" points="70,79.1 70,66.9 55,58.1 60.6,73.7 	"/>
	<polygon class="st6" points="51.8,56.3 52.3,57.6 51.8,56.3 	"/>
	<path class="st15" d="M75.6,88.2c-1.7-0.2-3.1,1.4-3,3.7c0,2.3,3.2,7.7,3.2,7.7s3-4.6,3-6.9S77.3,88.4,75.6,88.2z M75.7,95.3
		c-1.2-0.2-2.3-1.7-2.3-3.3c0-1.7,1-2.9,2.2-2.7c1.2,0.2,2.3,1.7,2.3,3.3C78,94.2,77,95.4,75.7,95.3z"/>
	<path class="st4" d="M75.6,89.2c-1.2-0.2-2.2,1-2.2,2.7c0,1.7,1.1,3.1,2.3,3.3c1.2,0.2,2.2-1,2.2-2.7
		C77.9,90.9,76.9,89.4,75.6,89.2z"/>
	<path class="st15" d="M14.8,29.2L14.8,29.2L12.1,36c-0.2,0.5-0.3,1.1-0.3,1.7l0,0c0-0.6,0.1-1.2,0.3-1.7L14.8,29.2z"/>
	<path class="st15" d="M13.3,52l0.9,1.5v9c3.8-2.3,8.3-5,13.1-7.8L26.2,54v-0.2l-3.5-2c-0.4,0-0.8-0.2-1.3-0.4
		c-0.5-0.3-0.9-0.7-1.3-1l-5.1-3v-9.2c0-0.6,0.1-1.2,0.4-1.7l0.6-1.1l20.3,11.9l0.3-0.2c0,0,0.1,0.1,0.1,0.1l-0.1,0.3l0.2,0.1
		l-0.1-0.4c0-0.1,0.1-0.1,0.1,0l0.3,0.5l0.9,0.5c1.6-1,3.2-1.9,4.6-2.8l-24-13.9v0l5.7,3.3l-9.6-5.6L12.2,36
		c-0.2,0.6-0.3,1.1-0.3,1.7l0,14.3H13.3z"/>
	<path class="st15" d="M15.9,68.4l0.6,0.3c1,0.5,2.8,1.4,6.5,3.1c0.7-2.2,4.4-4.8,9.8-0.7c5.4,4.1,6.1,9.6,6.1,9.6l6.2,3.5l13.8-4.1
		c0.1,0,0.2-0.1,0.3-0.1c0.2-0.1,0.3-0.3,0.4-0.4c0.1-0.2,0.2-0.5,0.1-0.7c0-0.1,0-0.2-0.1-0.2l-2.4-6.7l-2.9-1.7v0l-1.2-0.7l0,0
		l-7.5-4.4v0.2l-1.4-0.8v-0.2l-5.8-3.4v0.2l-1.3-0.8v-0.2l-0.4-0.2V60l-0.5-0.3v0.1L35,59.1v-0.2l-3.8-2.2v0.2l-4-2.3
		c-4.7,2.8-9.3,5.5-13.1,7.8V63l-1.5,0.9h-0.9l0,1c0,0,3,2.7,3.6,3.2C15.6,68.1,15.7,68.2,15.9,68.4z"/>
	<path class="st15" d="M49.3,49.3l-6.6-3.8c-1.5,0.9-3,1.8-4.6,2.8l13.7,8L49.3,49.3z"/>
	<path class="st16" d="M31.2,50.3v1.3l-3.5-2v1.3l3,1.7c1.2-0.7,2.5-1.5,3.7-2.2l-1.3,0v-0.5l2.6-2.1l0-1l0.7,0.4l0,0L16,35.3
		l-0.6,1.1c-0.3,0.5-0.4,1.1-0.4,1.7v9.2l5.1,3c-0.4-0.4-0.6-0.8-0.9-1.2l0.9-0.5c0.4,0.6,0.7,1.1,1.2,1.4c0.5,0.3,0.9,0.2,0.9-0.6
		v-4.2l1.5,0.9v4.3c0,0.8-0.2,1.2-0.6,1.4c-0.1,0.1-0.3,0.1-0.4,0.1l3.5,2v-6.4L31.2,50.3z"/>
	<path class="st16" d="M27.6,52.2v1.4l0.7,0.4c0.4-0.2,0.8-0.5,1.2-0.7L27.6,52.2z"/>
	<path class="st16" d="M38.1,48.2l-0.9-0.5l0.4,0.8C37.7,48.4,37.9,48.3,38.1,48.2z"/>
	<path class="st16" d="M36.8,47.5V49c0.1-0.1,0.2-0.1,0.3-0.2L36.8,47.5l-0.1-0.1l0,0L36.8,47.5z"/>
	<path class="st16" d="M40.5,54.3v0.5l-2.9-3.2c-0.1-0.1-0.1-0.2-0.1-0.2l-0.4-2.5c-0.1,0.1-0.2,0.1-0.3,0.2v11l0.4,0.2v-6.4
		l3.3,1.9V57l-2-1.2v5l5.8,3.4v-2.4l-2.5-5.5l1.7,1l1.6,3.6l1.6-1.7l1.6,1l-2.5,2.5v2.4l7.5,4.4l0-9.1l-1-2.8l-0.5-1.3l-13.7-8
		c-0.2,0.1-0.3,0.2-0.5,0.3L40.5,54.3z"/>
	<polygon class="st16" points="54.5,70.2 57.5,71.9 54.5,63.7 	"/>
	<path class="st16" d="M33,52.7v-1.3l2.6,1.5l0-2.4l-1.2,0c-1.2,0.7-2.4,1.5-3.7,2.2l0.1,0.1V54l-1.2-0.7c-0.4,0.2-0.8,0.5-1.2,0.7
		l2.9,1.7v1.1l3.8,2.2v-5L33,52.7z"/>
	<polygon class="st15" points="53.3,69.5 54.5,70.2 54.5,70.2 53.3,69.5 	"/>
	<polygon class="st17" points="53.3,60.3 53.3,69.5 54.5,70.2 54.5,63.7 	"/>
	<polygon class="st15" points="36.3,59.7 36.8,60 36.8,59.9 36.3,59.7 	"/>
	<path class="st17" d="M36.8,49v-1.5l-0.1-0.1l-0.4,1.9C36.4,49.2,36.6,49.1,36.8,49z"/>
	<polygon class="st17" points="35.6,46.8 35.6,47.8 36.3,47.2 	"/>
	<path class="st17" d="M36.2,49.3l-0.2,1c0,0.1,0,0.1-0.1,0.1l-0.3,0l0,2.4l0.8,0.4v6.4l0.5,0.3V49C36.6,49.1,36.4,49.2,36.2,49.3z"
		/>
	<path class="st15" d="M42.8,45.4L24.4,34.8L42.8,45.4C42.7,45.4,42.7,45.4,42.8,45.4z"/>
	<path class="st18" d="M63,80.4l-2.4-6.6l-3.1-1.8l2.4,6.7c0,0.1,0,0.2,0.1,0.2c0,0.3,0,0.5-0.1,0.7c-0.1,0.2-0.2,0.3-0.4,0.4
		c-0.1,0-0.2,0.1-0.3,0.1l-13.8,4.1l3.1,1.8l13.9-4.1C62.9,81.7,63.2,81,63,80.4z"/>
	<path class="st18" d="M51.8,56.3l3.1,1.8L52.4,51l-9.7-5.6c0,0,0,0,0,0l6.6,3.8l0,0l0,0L51.8,56.3z"/>
	<polygon class="st19" points="53.3,57.2 54.5,57.9 54.5,63.7 57.5,71.9 60.6,73.7 55,58.1 51.8,56.3 52.3,57.6 53.3,60.3 	"/>
	<polygon class="st17" points="53.3,57.2 53.3,60.3 54.5,63.7 54.5,57.9 	"/>
	<polygon class="st15" points="24.4,34.8 18.7,31.5 18.7,31.5 42.7,45.4 42.7,45.4 	"/>
	<path class="st15" d="M57.5,71.9L57.5,71.9l2.4,6.7c0,0.1,0,0.2,0.1,0.2c0-0.1,0-0.2-0.1-0.2L57.5,71.9z"/>
	<polygon class="st15" points="49.3,49.3 42.7,45.4 42.7,45.4 49.3,49.3 	"/>
	<path class="st15" d="M59.8,79.6c-0.1,0.2-0.2,0.3-0.4,0.4C59.5,79.9,59.7,79.7,59.8,79.6z"/>
	<polygon class="st15" points="54.5,63.7 54.5,63.7 57.5,71.9 57.5,71.9 	"/>
	<polygon class="st15" points="52.3,57.6 53.3,60.3 53.3,60.3 	"/>
	<polygon class="st15" points="54.5,63.7 53.3,60.3 53.3,60.3 54.5,63.7 	"/>
	<g>
		<path class="st7" d="M36.6,47l-0.3,0.2l0,0l-0.7,0.6L33,49.9v0.5l1.3,0l1.2,0l0.3,0c0.1,0,0.1,0,0.1-0.1l0.2-1l0.4-1.9l0,0
			l0.1-0.3C36.7,47,36.6,46.9,36.6,47z"/>
		<path class="st7" d="M37.2,47.7l-0.3-0.5c0-0.1-0.1-0.1-0.1,0l0.1,0.4l0.2,1.3l0.4,2.5c0,0.1,0,0.2,0.1,0.2l2.9,3.2v-0.5l-2.9-5.8
			L37.2,47.7z"/>
		<path class="st7" d="M22.3,49.4c0,0.8-0.3,0.9-0.9,0.6c-0.5-0.3-0.8-0.7-1.2-1.4l-0.9,0.5c0.2,0.4,0.5,0.8,0.9,1.2
			c0.4,0.4,0.8,0.7,1.3,1c0.5,0.3,0.9,0.4,1.3,0.4c0.2,0,0.3,0,0.4-0.1c0.4-0.2,0.6-0.6,0.6-1.4V46l-1.5-0.9V49.4z"/>
		<polygon class="st7" points="27.6,53.6 27.6,52.2 29.5,53.3 30.7,54 30.7,52.7 30.6,52.6 27.6,50.9 27.6,49.6 31.2,51.6 
			31.2,50.3 26.2,47.4 26.2,53.8 26.2,54 27.3,54.6 31.2,56.9 31.2,56.7 31.2,55.6 28.4,54 		"/>
		<polygon class="st7" points="46.7,59.3 45.1,61 43.5,57.4 41.8,56.5 44.3,61.9 44.3,64.3 44.3,64.5 45.8,65.3 45.8,65.1 
			45.8,62.7 48.3,60.2 		"/>
		<polygon class="st7" points="33,51.3 33,52.7 35,53.8 35,58.9 35,59.1 36.3,59.9 36.3,59.7 36.3,59.7 36.3,53.3 35.6,52.8 		"/>
		<polygon class="st7" points="37.2,60.2 37.2,60.4 38.5,61.1 38.5,60.9 38.5,55.9 40.5,57 40.5,55.7 37.2,53.8 		"/>
	</g>
	<path class="st20" d="M11.8,52L11.8,52l0,11.9h0c0,0,0,0,0,0L11.8,52z"/>
	<path class="st20" d="M11.9,63.8C11.8,63.9,11.8,63.9,11.9,63.8L11.9,63.8L11.9,63.8z"/>
	<polygon class="st20" points="11.9,63.8 11.8,52 11.8,52 11.9,63.8 	"/>
	<rect x="11.9" y="63.8" class="st20" width="0" height="0"/>
	<path class="st20" d="M14.2,53.4L13.3,52h-1.5l0,11.9c0.7-0.4,1.5-0.9,2.3-1.4V53.4z"/>
	<path class="st20" d="M12.7,63.9l1.5-0.9v-0.5c-0.8,0.5-1.6,1-2.3,1.4v0H12.7z"/>
	<path class="st21" d="M126.2,97.9c0,0.2,0,0.4-0.1,0.6c-0.1,1.1-0.4,2.6-1.5,3.8c-0.3,0.3-0.5,0.5-0.7,0.8c0,0,0,0,0,0
		c-0.9,1.3-1.9,2.4-2.9,3.2l0.1,0c0.2-0.2,0.6,0,0.6,0.3v1.9c0,0.1-0.1,0.3-0.2,0.3L116,112c-0.2,0.2-0.6,0-0.6-0.3v-1.9
		c0-0.1,0.1-0.3,0.2-0.3l0.4-0.2c-1.8,0.6-3.1,0.7-3.1,0.7c-3.6,1.5-7.7,3-9.6,3.3c-0.4,0.1-0.8,0.1-1.1,0.1c-0.1,0-0.2,0-0.4,0
		c-0.2,0-0.5,0-0.7,0c0,0,0,0,0,0c-0.3,0-0.6,0-0.8,0c-0.1,0-0.1,0-0.2,0c-0.2,0-0.4-0.1-0.6-0.1c-0.1,0-0.2,0-0.2,0
		c-0.2,0-0.5-0.1-0.7-0.1c0,0-0.1,0-0.1,0c-0.2-0.1-0.5-0.1-0.7-0.2c-0.1,0-0.1,0-0.2-0.1c-0.2-0.1-0.3-0.1-0.5-0.2
		c-0.1,0-0.1,0-0.2-0.1c-0.2-0.1-0.4-0.1-0.5-0.2c-1.5-0.6-2.5-1.1-2.5-1.1s-1.2-6-6.3-9.3c-4.9-3.1-8.4-1.5-9.7,0.7L48.4,86
		l-1.1,0.3l-3.1-1.8l1.1-0.3l0,0l-1.1,0.3l-6.1-3.5c0,0.4,0.1,0.8,0,1.3c-0.1,0.8-0.2,1.5-0.5,2.1L78,107.3c-0.1-0.5-0.1-1,0-1.5
		c0.3-4.1,3.8-5.7,8-3.5c4.1,2.2,7.2,7.3,7,11.4c0,0.7-0.2,1.3-0.4,1.8l2.4,1.4c0,0,4.4,2.4,9,1.3c4.6-1.1,12.7-5.1,15.1-6.6
		c2.4-1.5,6.9-4.7,7.5-5.9c0.6-1.2,0.4-7.6-0.1-8.4C126.3,97.1,126.3,97.4,126.2,97.9z M108.6,114.6c0,0.1,0,0.2-0.1,0.2l-1.2,0.6
		c-0.2,0.1-0.4,0-0.4-0.2V114c0-0.1,0-0.2,0.1-0.2l1.2-0.6c0.2-0.1,0.4,0,0.4,0.2V114.6z M125.7,104.9c0,0.1,0,0.2-0.1,0.2l-0.8,0.7
		c-0.2,0.1-0.4,0-0.4-0.2v-1.2c0-0.1,0-0.2,0.1-0.2l0.8-0.7c0.2-0.1,0.4,0,0.4,0.2V104.9z"/>
	<path class="st21" d="M23.2,74.5c0-0.6,0.2-1.2,0.4-1.7l-7-4c-0.2-0.1-0.4-0.2-0.6-0.3l-0.3-0.2l-3.8-3.4l0,1.2c0,0,2.5,4.8,3,5.5
		l8.4,4.7C23.2,75.7,23.1,75.1,23.2,74.5z"/>
	<path class="st21" d="M98.3,113.1c-0.2-0.1-0.5-0.1-0.7-0.2C97.8,112.9,98,113,98.3,113.1z"/>
	<path class="st21" d="M100.1,113.4c0.3,0,0.5,0,0.8,0c0,0,0,0,0,0C100.7,113.4,100.4,113.4,100.1,113.4z"/>
	<path class="st21" d="M99,113.2c-0.2,0-0.5-0.1-0.7-0.1C98.6,113.1,98.8,113.2,99,113.2z"/>
	<path class="st21" d="M99.9,113.3c-0.2,0-0.4-0.1-0.6-0.1C99.5,113.3,99.7,113.3,99.9,113.3z"/>
	<path class="st21" d="M96.8,112.6c-0.2-0.1-0.4-0.1-0.5-0.2C96.4,112.5,96.6,112.5,96.8,112.6z"/>
	<path class="st21" d="M87.4,102c5.2,3.2,6.3,9.3,6.3,9.3s1,0.5,2.5,1.1c-1.5-0.6-2.5-1.4-2.5-1.4S92.6,105.2,87.4,102z"/>
	<path class="st21" d="M97.4,112.8c-0.2-0.1-0.3-0.1-0.5-0.2C97.1,112.7,97.2,112.8,97.4,112.8z"/>
	<path class="st21" d="M102.1,113.4c-0.1,0-0.2,0-0.4,0C101.9,113.4,102,113.4,102.1,113.4z"/>
	<path class="st21" d="M126.2,97.9c0.1-0.5,0.1-0.8,0.3-0.8C126.3,97.1,126.3,97.4,126.2,97.9z"/>
	<path class="st21" d="M124.6,102.3c1.1-1.2,1.4-2.7,1.5-3.8c-0.1,1-0.4,2.5-1.5,3.6c-0.3,0.3-0.5,0.5-0.8,0.8c0,0.1,0,0.1,0,0.2
		C124.1,102.9,124.3,102.6,124.6,102.3z"/>
	<path class="st21" d="M112.8,109.8c-3.6,1.6-7.6,3.1-9.5,3.5c1.9-0.3,6-1.8,9.6-3.3l0,0C112.9,109.9,112.8,109.9,112.8,109.8z"/>
	<path class="st21" d="M101,113.4C101,113.4,101,113.4,101,113.4C101,113.4,101,113.4,101,113.4C101,113.4,101,113.4,101,113.4z"/>
	<path class="st21" d="M118.3,107.4c-1.2,0.7-3.2,1.6-5.4,2.5c0,0,1.3-0.1,3.1-0.7l5-2.9c1-0.9,2-1.9,2.9-3.2c0,0,0,0,0,0
		C122.3,104.7,121.1,105.9,118.3,107.4z"/>
	<path class="st21" d="M112.8,109.8c0.1,0.1,0.1,0.1,0.1,0.1l0,0c2.2-0.9,4.2-1.8,5.4-2.5c2.8-1.6,4-2.7,5.6-4.3c0-0.1,0-0.1,0-0.2
		c-1.6,1.6-3,2.7-5.9,4.3C116.8,108,114.9,108.9,112.8,109.8z"/>
	<path class="st21" d="M15.9,68.4c-0.2-0.1-0.4-0.3-0.5-0.4c-0.6-0.5-3.6-3.2-3.6-3.2l3.8,3.4L15.9,68.4z"/>
	<path class="st21" d="M32.9,71.1c-5.4-4.1-9.2-1.5-9.8,0.7c-3.7-1.7-5.5-2.5-6.5-3.1l7,4c1-2.8,4.1-3.6,7.6-1.8
		c3.7,2,6.6,6.3,6.9,10.1l6.1,3.5l1.1-0.3L39,80.7C39,80.7,38.3,75.2,32.9,71.1z"/>
	<polygon class="st21" points="44.2,84.6 47.3,86.4 48.4,86 45.3,84.3 	"/>
	<path d="M85,117.2c0.5,0.2,0.9,0.4,1.3,0.6c-1-0.6-2.1-1.2-3.3-1.9C83.6,116.4,84.3,116.8,85,117.2z"/>
	<path d="M92.5,115.4l-2.3-1.3c-0.9,1.7-2.9,2.2-5.3,0.9c-2.5-1.3-4.4-4.1-4.9-6.7l-2.1-1.2c0.4,3.1,2.3,6.4,5,8.6
		c1.2,0.7,2.3,1.3,3.3,1.9C89.2,118.7,91.6,117.8,92.5,115.4z"/>
	<path d="M86,102.2c-4.1-2.2-7.7-0.6-8,3.5c0,0.5,0,1,0,1.5l2.1,1.2c-0.1-0.5-0.1-1-0.1-1.4c0.2-2.9,2.7-4.1,5.7-2.5
		c2.9,1.6,5.2,5.2,5,8.1c0,0.6-0.2,1.1-0.4,1.6l2.3,1.3c0.2-0.5,0.4-1.1,0.4-1.8C93.2,109.5,90.1,104.4,86,102.2z"/>
	<path class="st22" d="M85.7,113c-1.2-0.6-2.2-1.7-2.8-3l-2.8-1.6c0.4,2.6,2.4,5.4,4.9,6.7c2.3,1.2,4.4,0.8,5.3-0.9l-1.8-1
		C87.7,113.5,86.7,113.5,85.7,113z"/>
	<path class="st22" d="M85.7,104.5c-2.9-1.6-5.5-0.4-5.7,2.5c0,0.5,0,1,0.1,1.4l2.8,1.6c-0.4-0.8-0.6-1.7-0.6-2.5
		c0.1-2,1.8-2.7,3.8-1.7c2,1,3.5,3.5,3.3,5.5c-0.1,0.9-0.5,1.5-1.1,1.9l1.8,1c0.2-0.4,0.4-1,0.4-1.6C90.9,109.7,88.6,106,85.7,104.5
		z"/>
	<path class="st23" d="M85.7,113c1.1,0.6,2.1,0.6,2.8,0.2l-5.5-3.1C83.5,111.2,84.5,112.3,85.7,113z"/>
	<path class="st23" d="M89.5,111.3c0.1-2-1.4-4.4-3.3-5.5c-2-1-3.7-0.3-3.8,1.7c-0.1,0.8,0.2,1.7,0.6,2.5l5.5,3.1
		C89,112.8,89.4,112.2,89.5,111.3z M86.2,110.6c-0.3,0.2-0.9,0-1.3-0.5c-0.4-0.5-0.4-1.1-0.1-1.4c0.3-0.2,0.9,0,1.3,0.5
		C86.4,109.8,86.5,110.4,86.2,110.6z"/>
	<path d="M84.8,108.8c-0.3,0.2-0.3,0.9,0.1,1.4c0.4,0.5,1,0.7,1.3,0.5c0.3-0.2,0.3-0.9-0.1-1.4C85.7,108.7,85.1,108.5,84.8,108.8z"
		/>
	<path d="M30.1,85.9c0.7,0.4,1.4,0.6,2,0.8c-1.6-0.9-3.1-1.8-4.6-2.7C28.3,84.7,29.2,85.4,30.1,85.9z"/>
	<path d="M37.6,84.4l-2.3-1.3c-0.9,1.5-2.9,1.9-5.2,0.7c-2.4-1.2-4.3-3.9-4.8-6.4l-2.1-1.2c0.4,2.7,2,5.6,4.3,7.7
		c1.5,0.9,3,1.7,4.6,2.7C34.6,87.3,36.7,86.4,37.6,84.4z"/>
	<path d="M38.1,81.1l-2.3-1.3c0.1,0.5,0.1,1.1,0.1,1.6c0,0.7-0.2,1.3-0.5,1.8l2.3,1.3c0.3-0.6,0.4-1.3,0.5-2.1
		C38.1,81.9,38.1,81.5,38.1,81.1z"/>
	<path d="M25.2,75.7c0-0.7,0.2-1.3,0.5-1.7l-2.1-1.2c-0.2,0.5-0.3,1.1-0.4,1.7c0,0.6,0,1.2,0.1,1.8l2.1,1.2
		C25.2,76.9,25.1,76.3,25.2,75.7z"/>
	<path d="M31.1,70.9c-3.5-1.8-6.5-1-7.6,1.8l2.1,1.2c0.9-1.6,2.9-2,5.2-0.8c2.4,1.3,4.4,4,4.9,6.6l2.3,1.3
		C37.7,77.2,34.8,72.9,31.1,70.9z"/>
	<path class="st22" d="M30.8,81.7c-1-0.5-1.9-1.5-2.5-2.5l-3-1.7c0.5,2.5,2.4,5.1,4.8,6.4c2.2,1.2,4.2,0.8,5.2-0.7l-2-1.1
		C32.6,82.2,31.8,82.2,30.8,81.7z"/>
	<path class="st22" d="M27.5,76.2c0-0.4,0.1-0.7,0.3-1L25.7,74c-0.3,0.5-0.4,1.1-0.5,1.7c0,0.6,0,1.2,0.1,1.8l3,1.7
		C27.7,78.2,27.4,77.1,27.5,76.2z"/>
	<path class="st22" d="M35.7,79.7l-1.1-0.6c0,0.3,0.1,0.6,0,0.9c-0.1,1-0.6,1.7-1.3,2l2,1.1c0.3-0.5,0.5-1.1,0.5-1.8
		C35.9,80.8,35.8,80.3,35.7,79.7z"/>
	<path class="st22" d="M30.9,73.2c-2.3-1.2-4.3-0.8-5.2,0.8l2.1,1.2c0.6-1.2,2-1.5,3.6-0.7c1.7,0.9,3,2.8,3.3,4.6l1.1,0.6
		C35.2,77.2,33.3,74.5,30.9,73.2z"/>
	<path class="st23" d="M30.8,81.7c0.9,0.5,1.8,0.6,2.5,0.3l-5-2.9C28.9,80.2,29.8,81.1,30.8,81.7z"/>
	<path class="st23" d="M27.5,76.2c-0.1,0.9,0.3,2,0.8,3l5,2.9c0.7-0.3,1.3-1,1.3-2c0-0.3,0-0.6,0-0.9l-6.9-3.9
		C27.6,75.5,27.5,75.8,27.5,76.2z M31.2,78c0.4,0.5,0.4,1.1,0.1,1.4c-0.3,0.2-0.9,0-1.3-0.5c-0.4-0.5-0.4-1.1-0.1-1.4
		C30.3,77.2,30.9,77.4,31.2,78z"/>
	<path class="st23" d="M31.3,74.5c-1.6-0.8-3-0.5-3.6,0.7l6.9,3.9C34.3,77.3,33,75.4,31.3,74.5z"/>
	<path d="M30,78.8c0.4,0.5,1,0.7,1.3,0.5c0.3-0.2,0.3-0.9-0.1-1.4c-0.4-0.5-1-0.7-1.3-0.5C29.6,77.7,29.7,78.3,30,78.8z"/>
	<path class="st7" d="M121,106.3L121,106.3l-5.1,2.9l-0.4,0.2c-0.1,0.1-0.2,0.2-0.2,0.3v1.9c0,0.3,0.3,0.5,0.6,0.3l5.4-3.1
		c0.1-0.1,0.2-0.2,0.2-0.3v-1.9C121.6,106.3,121.3,106.2,121,106.3z"/>
	<path class="st24" d="M125.3,103.5l-0.8,0.7c-0.1,0-0.1,0.1-0.1,0.2v1.2c0,0.2,0.2,0.3,0.4,0.2l0.8-0.7c0.1,0,0.1-0.1,0.1-0.2v-1.2
		C125.7,103.5,125.5,103.4,125.3,103.5z"/>
	<path class="st7" d="M118.8,101.5c0-0.2-0.3-0.3-0.4-0.2l-1.4,0.9c-0.1,0.1-0.1,0.1-0.1,0.3v0.2v0.9c0,0,0,0,0,0.1
		c0,0.2,0.3,0.3,0.4,0.2l1.4-0.9c0.1-0.1,0.1-0.1,0.1-0.3v-0.2L118.8,101.5C118.8,101.6,118.8,101.5,118.8,101.5z"/>
	<path class="st24" d="M108.3,113.2l-1.2,0.6c-0.1,0-0.1,0.1-0.1,0.2v1.2c0,0.2,0.2,0.3,0.4,0.2l1.2-0.6c0.1,0,0.1-0.1,0.1-0.2v-1.2
		C108.6,113.2,108.4,113.1,108.3,113.2z"/>
	<path class="st5" d="M103.6,87.8c-0.1-0.1-0.3-0.2-0.5-0.1l-5,2.7c-0.3,0.1-0.3,0.5-0.1,0.7l0.9,0.9c0.1,0.1,0.4,0.2,0.5,0.1
		l4.9-2.8c0.2-0.1,0.3-0.5,0.1-0.7L103.6,87.8z"/>
	<path class="st5" d="M115.4,80.4c-0.2-0.2-0.4-0.2-0.6-0.1l-3.3,2.4c-0.2,0.2-0.3,0.5-0.1,0.7l0.7,0.7c0.2,0.2,0.4,0.2,0.6,0
		l3.2-2.4c0.2-0.2,0.3-0.5,0.1-0.7L115.4,80.4z"/>
</g>
<g>
	<g>
		<polygon class="st25" points="48.2,27.3 46.3,28.5 46.4,107.6 97.2,137.1 99,136 98.9,56.8 		"/>
	</g>
	<g>
		<polygon class="st26" points="46.3,28.5 46.4,107.6 97.2,137.1 97,57.9 		"/>
	</g>
	<g>
		<polygon class="st7" points="50.6,36.9 50.8,104.5 92.8,128.9 92.6,61.3 		"/>
	</g>
	<path class="st15" d="M81.5,50c0-0.9-0.4-1.9-1-2.9c-0.6-0.9-1.4-1.8-2.3-2.3l-5.3-3.1c0-1.6-1.3-3.6-2.9-4.5
		c-1.6-0.9-2.9-0.4-2.9,1.2l-5.3-3.1c-1.8-1-3.3-0.4-3.3,1.4v6.2l22.9,13.3V50z"/>
	<g>
		<polygon class="st27" points="68.3,60.1 68.4,63.9 88.7,75.7 88.6,71.9 		"/>
	</g>
	<g>
		<polygon class="st27" points="68.3,78.6 68.4,82.5 88.7,94.3 88.6,90.4 		"/>
	</g>
	<g>
		<polygon class="st27" points="68.3,96.7 68.4,100.5 88.7,112.3 88.6,108.4 		"/>
	</g>
	<g>
		<g>
			<path class="st27" d="M64.7,70.9l-11.2-6.5l0-12.5l11.2,6.5L64.7,70.9z M55.9,63l6.4,3.7l0-6.9l-6.4-3.7L55.9,63z"/>
		</g>
	</g>
	<g>
		<g>
			<path class="st27" d="M64.7,89.3l-11.2-6.5l0-12.5l11.2,6.5L64.7,89.3z M55.9,81.4l6.4,3.7l0-6.9l-6.4-3.7L55.9,81.4z"/>
		</g>
	</g>
	<g>
		<g>
			<path class="st27" d="M64.7,107.8l-11.2-6.5l0-12.5l11.2,6.5L64.7,107.8z M55.9,99.9l6.4,3.7l0-6.9l-6.4-3.7L55.9,99.9z"/>
		</g>
	</g>
	<g>
		<polygon class="st15" points="57.6,65.8 54.7,58.1 56.1,55.6 58.6,61.8 69.3,53 69.5,55.9 		"/>
	</g>
</g>
</svg>
