<?xml version="1.0" encoding="utf-8"?>
<!-- Generator: Adobe Illustrator 23.0.3, SVG Export Plug-In . SVG Version: 6.00 Build 0)  -->
<svg version="1.1" id="Layer_1" xmlns="http://www.w3.org/2000/svg" xmlns:xlink="http://www.w3.org/1999/xlink" x="0px" y="0px"
	 width="140px" height="140px" viewBox="0 0 140 140" style="enable-background:new 0 0 140 140;" xml:space="preserve">
<style type="text/css">
	.st0{enable-background:new    ;}
	.st1{clip-path:url(#SVGID_2_);enable-background:new    ;}
	.st2{fill:#3C9886;}
	.st3{fill:#3B9483;}
	.st4{fill:#399080;}
	.st5{fill:#388D7C;}
	.st6{fill:#368979;}
	.st7{fill:#358576;}
	.st8{fill:#338172;}
	.st9{fill:#327D6F;}
	.st10{fill:#307A6C;}
	.st11{fill:#2F7668;}
	.st12{fill:#2D7265;}
	.st13{fill:#2C6E61;}
	.st14{fill:#2A6A5E;}
	.st15{fill:#29675B;}
	.st16{fill:#276357;}
	.st17{clip-path:url(#SVGID_4_);enable-background:new    ;}
	.st18{clip-path:url(#SVGID_6_);enable-background:new    ;}
	.st19{fill:#F1F1F2;}
	.st20{clip-path:url(#SVGID_8_);enable-background:new    ;}
	.st21{fill:#165E96;}
	.st22{fill:#155B92;}
	.st23{fill:#15598E;}
	.st24{fill:#14578A;}
	.st25{fill:#135487;}
	.st26{fill:#135283;}
	.st27{fill:#12507F;}
	.st28{fill:#124D7B;}
	.st29{fill:#114B78;}
	.st30{fill:#114974;}
	.st31{fill:#2962A5;}
	.st32{clip-path:url(#SVGID_12_);enable-background:new    ;}
	.st33{clip-path:url(#SVGID_14_);enable-background:new    ;}
	.st34{fill:#3F7AB2;}
	.st35{fill:#404041;}
</style>
<g>
	<g class="st0">
		<g class="st0">
			<g>
				<defs>
					<path id="SVGID_1_" d="M71.6,109.7c19.4-11.2,35.1-38.4,35.1-60.8c3.2,1.8,6.3,3.7,9.5,5.5c0.1,22.3-15.6,49.6-35.1,60.8
						C78.2,113.6,74.4,111.4,71.6,109.7z"/>
				</defs>
				<clipPath id="SVGID_2_">
					<use xlink:href="#SVGID_1_"  style="overflow:visible;"/>
				</clipPath>
				<g class="st1">
					<path class="st2" d="M81.1,115.3l-9.5-5.5c4.1-2.4,8.1-5.5,11.8-9.1l9.5,5.5C89.2,109.8,85.2,112.9,81.1,115.3"/>
					<path class="st3" d="M92.9,106.1l-9.5-5.5c1.3-1.3,2.6-2.7,3.8-4.1l9.5,5.5C95.5,103.5,94.2,104.8,92.9,106.1"/>
					<path class="st4" d="M96.7,102l-9.5-5.5c1-1.1,1.9-2.3,2.9-3.5l9.5,5.5C98.6,99.8,97.7,100.9,96.7,102"/>
					<path class="st5" d="M99.6,98.6L90,93c0.8-1,1.6-2.1,2.3-3.2l9.5,5.5C101.1,96.5,100.4,97.5,99.6,98.6"/>
					<path class="st6" d="M101.9,95.4l-9.5-5.5c0.7-1,1.4-2,2-3l9.5,5.5C103.3,93.4,102.6,94.4,101.9,95.4"/>
					<path class="st7" d="M103.9,92.3l-9.5-5.5c0.6-1,1.2-2,1.8-3l9.5,5.5C105.2,90.4,104.6,91.4,103.9,92.3"/>
					<path class="st8" d="M105.8,89.4l-9.5-5.5c0.6-1,1.1-2,1.7-3l9.5,5.5C106.9,87.4,106.3,88.4,105.8,89.4"/>
					<path class="st9" d="M107.4,86.4l-9.5-5.5c0.5-1,1-2,1.5-3l9.5,5.5C108.4,84.4,107.9,85.4,107.4,86.4"/>
					<path class="st10" d="M108.9,83.4l-9.5-5.5c0.5-1,1-2,1.4-3.1l9.5,5.5C109.9,81.4,109.4,82.4,108.9,83.4"/>
					<path class="st11" d="M110.3,80.4l-9.5-5.5c0.5-1,0.9-2.1,1.3-3.2l9.5,5.5C111.2,78.3,110.8,79.3,110.3,80.4"/>
					<path class="st12" d="M111.6,77.2l-9.5-5.5c0.4-1.1,0.8-2.2,1.2-3.3l9.5,5.5C112.4,75,112,76.1,111.6,77.2"/>
					<path class="st13" d="M112.8,73.9l-9.5-5.5c0.4-1.2,0.8-2.4,1.1-3.6l9.5,5.5C113.6,71.5,113.2,72.7,112.8,73.9"/>
					<path class="st14" d="M113.9,70.3l-9.5-5.5c0.4-1.3,0.7-2.7,1-4l9.5,5.5C114.6,67.6,114.3,68.9,113.9,70.3"/>
					<path class="st15" d="M114.9,66.2l-9.5-5.5c0.3-1.6,0.6-3.3,0.8-4.9l9.5,5.5C115.5,63,115.2,64.6,114.9,66.2"/>
					<path class="st16" d="M115.7,61.4l-9.5-5.5c0.3-2.3,0.5-4.6,0.5-6.9c0-11.1-4-18.9-10.3-22.6l9.5,5.5
						c6.3,3.7,10.2,11.5,10.3,22.6C116.2,56.7,116,59,115.7,61.4"/>
				</g>
			</g>
		</g>
		<g class="st0">
			<g>
				<defs>
					<path id="SVGID_3_" d="M46.5,112.2c6.4,3.7,15.3,3.2,25.1-2.5l9.5,5.5c-9.8,5.6-18.6,6.2-25.1,2.5
						C53.2,116,49.4,113.8,46.5,112.2z"/>
				</defs>
				<clipPath id="SVGID_4_">
					<use xlink:href="#SVGID_3_"  style="overflow:visible;"/>
				</clipPath>
				<g class="st17">
					<path class="st11" d="M56,117.7l-9.5-5.5c0.1,0,0.1,0.1,0.2,0.1l9.5,5.5C56.2,117.8,56.1,117.7,56,117.7"/>
					<path class="st10" d="M56.2,117.8l-9.5-5.5c0.6,0.3,1.2,0.6,1.8,0.9l9.5,5.5C57.4,118.4,56.8,118.1,56.2,117.8"/>
					<path class="st9" d="M58,118.7l-9.5-5.5c0.6,0.3,1.2,0.5,1.9,0.7l9.5,5.5C59.2,119.2,58.6,118.9,58,118.7"/>
					<path class="st8" d="M59.9,119.3l-9.5-5.5c0.6,0.2,1.3,0.3,2,0.5l9.5,5.5C61.2,119.7,60.5,119.5,59.9,119.3"/>
					<path class="st7" d="M61.8,119.8l-9.5-5.5c0.7,0.1,1.4,0.2,2.1,0.2L64,120C63.2,120,62.5,119.9,61.8,119.8"/>
					<path class="st6" d="M64,120l-9.5-5.5c0.8,0,1.5,0.1,2.3,0l9.5,5.5C65.5,120.1,64.7,120.1,64,120"/>
					<path class="st5" d="M66.3,120.1l-9.5-5.5c0.9,0,1.7-0.1,2.6-0.3l9.5,5.5C68,119.9,67.2,120,66.3,120.1"/>
					<path class="st4" d="M68.9,119.8l-9.5-5.5c1-0.2,2-0.4,3.1-0.7l9.5,5.5C71,119.4,69.9,119.6,68.9,119.8"/>
					<path class="st3" d="M72,119.1l-9.5-5.5c1.4-0.4,2.7-0.8,4.1-1.4l9.5,5.5C74.8,118.3,73.4,118.8,72,119.1"/>
					<path class="st2" d="M76.2,117.7l-9.5-5.5c1.6-0.7,3.3-1.5,4.9-2.5l9.5,5.5C79.4,116.2,77.8,117,76.2,117.7"/>
				</g>
			</g>
		</g>
		<g class="st0">
			<g>
				<defs>
					<path id="SVGID_5_" d="M106.7,48.9c0-11.1-4-18.9-10.3-22.6l9.5,5.5c6.3,3.7,10.2,11.5,10.3,22.6
						C113,52.6,109.8,50.8,106.7,48.9z"/>
				</defs>
				<clipPath id="SVGID_6_">
					<use xlink:href="#SVGID_5_"  style="overflow:visible;"/>
				</clipPath>
				<g class="st18">
					<path class="st16" d="M115.7,61.4l-9.5-5.5c0.3-2.3,0.5-4.6,0.5-6.9c0-11.1-4-18.9-10.3-22.6l9.5,5.5
						c6.3,3.7,10.2,11.5,10.3,22.6C116.2,56.7,116,59,115.7,61.4"/>
				</g>
			</g>
		</g>
		<g>
			<path class="st19" d="M80.9,34.3c19.4-11.2,35.3-2.2,35.3,20.2c0.1,22.3-15.6,49.6-35.1,60.8s-35.3,2.2-35.3-20.1
				C45.7,72.8,61.4,45.5,80.9,34.3z"/>
		</g>
		<g class="st0">
			<g>
				<defs>
					<path id="SVGID_7_" d="M96.4,26.3l9.5,5.5c-6.4-3.7-15.3-3.2-25,2.4l-9.5-5.5C81.1,23.1,90,22.6,96.4,26.3z"/>
				</defs>
				<clipPath id="SVGID_8_">
					<use xlink:href="#SVGID_7_"  style="overflow:visible;"/>
				</clipPath>
				<g class="st20">
					<path class="st21" d="M80.9,34.3l-9.5-5.5c1.7-1,3.3-1.8,4.9-2.4l9.5,5.5C84.2,32.5,82.5,33.4,80.9,34.3"/>
					<path class="st22" d="M85.8,31.9l-9.5-5.5c1.4-0.6,2.8-1.1,4.1-1.4l9.5,5.5C88.6,30.8,87.2,31.3,85.8,31.9"/>
					<path class="st23" d="M89.9,30.4l-9.5-5.5c1.1-0.3,2.1-0.5,3.1-0.7l9.5,5.5C92,29.9,91,30.2,89.9,30.4"/>
					<path class="st24" d="M93,29.8l-9.5-5.5c0.9-0.1,1.8-0.2,2.6-0.3l9.5,5.5C94.8,29.6,93.9,29.6,93,29.8"/>
					<path class="st25" d="M95.6,29.5L86.1,24c0.8,0,1.6,0,2.3,0l9.5,5.5C97.2,29.5,96.4,29.5,95.6,29.5"/>
					<path class="st26" d="M98,29.5L88.5,24c0.7,0,1.4,0.1,2.1,0.2l9.5,5.5C99.4,29.7,98.7,29.6,98,29.5"/>
					<path class="st27" d="M100.1,29.8l-9.5-5.5c0.7,0.1,1.3,0.3,2,0.5l9.5,5.5C101.4,30.1,100.8,29.9,100.1,29.8"/>
					<path class="st28" d="M102.1,30.2l-9.5-5.5c0.6,0.2,1.3,0.4,1.9,0.7l9.5,5.5C103.3,30.6,102.7,30.4,102.1,30.2"/>
					<path class="st29" d="M103.9,30.9l-9.5-5.5c0.6,0.3,1.2,0.5,1.8,0.9l9.5,5.5C105.1,31.4,104.5,31.2,103.9,30.9"/>
					<path class="st30" d="M105.7,31.8l-9.5-5.5c0.1,0,0.1,0.1,0.2,0.1l9.5,5.5C105.8,31.8,105.8,31.8,105.7,31.8"/>
				</g>
			</g>
		</g>
		<g>
			<g>
				<path id="SVGID_9_" class="st31" d="M100.8,18.8l9.5,5.5c-7.5-4.4-18-3.8-29.5,2.9l-9.5-5.5C82.8,15,93.3,14.4,100.8,18.8z"/>
			</g>
			<g>
				<defs>
					<path id="SVGID_10_" d="M100.8,18.8l9.5,5.5c-7.5-4.4-18-3.8-29.5,2.9l-9.5-5.5C82.8,15,93.3,14.4,100.8,18.8z"/>
				</defs>
				<clipPath id="SVGID_12_">
					<use xlink:href="#SVGID_10_"  style="overflow:visible;"/>
				</clipPath>
				<g class="st32">
					<path class="st31" d="M80.8,27.2l-9.5-5.5c2-1.1,3.9-2.1,5.8-2.9l9.5,5.5C84.7,25.1,82.8,26.1,80.8,27.2"/>
					<path class="st31" d="M86.6,24.3l-9.5-5.5c1.7-0.7,3.3-1.2,4.9-1.7l9.5,5.5C89.9,23.1,88.3,23.6,86.6,24.3"/>
					<path class="st31" d="M91.5,22.6L82,17.1c1.2-0.3,2.5-0.6,3.6-0.8l9.5,5.5C94,22,92.8,22.3,91.5,22.6"/>
					<path class="st31" d="M95.2,21.9l-9.5-5.5c1.1-0.2,2.1-0.3,3.1-0.3l9.5,5.5C97.2,21.6,96.2,21.7,95.2,21.9"/>
					<path class="st31" d="M98.3,21.5L88.7,16c0.9,0,1.8,0,2.7,0l9.5,5.5C100.1,21.5,99.2,21.5,98.3,21.5"/>
					<path class="st31" d="M101,21.6L91.5,16c0.9,0.1,1.7,0.2,2.5,0.3l9.5,5.5C102.7,21.7,101.8,21.6,101,21.6"/>
					<path class="st31" d="M103.5,21.9L94,16.3c0.8,0.1,1.6,0.3,2.3,0.5l9.5,5.5C105.1,22.2,104.3,22,103.5,21.9"/>
					<path class="st31" d="M105.8,22.4l-9.5-5.5c0.7,0.2,1.5,0.5,2.2,0.8l9.5,5.5C107.3,22.9,106.6,22.6,105.8,22.4"/>
					<path class="st31" d="M108,23.2l-9.5-5.5c0.7,0.3,1.4,0.6,2.1,1l9.5,5.5C109.4,23.8,108.7,23.5,108,23.2"/>
					<path class="st31" d="M110.1,24.2l-9.5-5.5c0.1,0,0.2,0.1,0.2,0.1l9.5,5.5C110.2,24.3,110.2,24.2,110.1,24.2"/>
				</g>
			</g>
		</g>
		<g>
			<g>
				<path id="SVGID_11_" class="st31" d="M51.7,125.3l-9.5-5.5c-7.4-4.3-12-13.5-12.1-26.6C30,66.9,48.5,34.9,71.3,21.7l9.5,5.5
					C58,40.4,39.5,72.4,39.6,98.7C39.6,111.8,44.2,120.9,51.7,125.3z"/>
			</g>
			<g>
				<defs>
					<path id="SVGID_13_" d="M51.7,125.3l-9.5-5.5c-7.4-4.3-12-13.5-12.1-26.6C30,66.9,48.5,34.9,71.3,21.7l9.5,5.5
						C58,40.4,39.5,72.4,39.6,98.7C39.6,111.8,44.2,120.9,51.7,125.3z"/>
				</defs>
				<clipPath id="SVGID_14_">
					<use xlink:href="#SVGID_13_"  style="overflow:visible;"/>
				</clipPath>
				<g class="st33">
					<path class="st31" d="M51.7,125.3l-9.5-5.5c-7.4-4.3-12-13.5-12.1-26.6c0-2.7,0.2-5.4,0.5-8.1l9.5,5.5
						c-0.4,2.7-0.5,5.5-0.5,8.1C39.6,111.8,44.2,120.9,51.7,125.3"/>
					<path class="st31" d="M40.1,90.6l-9.5-5.5c0.2-1.9,0.6-3.8,1-5.7l9.5,5.5C40.7,86.8,40.4,88.7,40.1,90.6"/>
					<path class="st31" d="M41.1,84.8l-9.5-5.5c0.3-1.6,0.7-3.2,1.2-4.8l9.5,5.5C41.8,81.7,41.4,83.3,41.1,84.8"/>
					<path class="st31" d="M42.3,80.1l-9.5-5.5c0.4-1.4,0.8-2.8,1.3-4.2l9.5,5.5C43.1,77.3,42.7,78.7,42.3,80.1"/>
					<path class="st31" d="M43.6,75.9L34,70.3c0.4-1.3,0.9-2.6,1.4-3.9l9.5,5.5C44.5,73.2,44,74.6,43.6,75.9"/>
					<path class="st31" d="M45,71.9l-9.5-5.5c0.5-1.2,1-2.5,1.5-3.7l9.5,5.5C45.9,69.5,45.4,70.7,45,71.9"/>
					<path class="st31" d="M46.5,68.2L37,62.7c0.5-1.2,1.1-2.4,1.6-3.6l9.5,5.5C47.5,65.8,47,67,46.5,68.2"/>
					<path class="st31" d="M48.1,64.6l-9.5-5.5c0.6-1.2,1.2-2.4,1.8-3.5l9.5,5.5C49.3,62.3,48.7,63.5,48.1,64.6"/>
					<path class="st31" d="M49.9,61.1l-9.5-5.5c0.6-1.2,1.3-2.3,1.9-3.5l9.5,5.5C51.2,58.8,50.5,59.9,49.9,61.1"/>
					<path class="st31" d="M51.8,57.6l-9.5-5.5c0.7-1.2,1.4-2.3,2.1-3.5l9.5,5.5C53.2,55.3,52.5,56.5,51.8,57.6"/>
					<path class="st31" d="M54,54.1l-9.5-5.5c0.8-1.2,1.6-2.4,2.4-3.6l9.5,5.5C55.6,51.7,54.8,52.9,54,54.1"/>
					<path class="st31" d="M56.4,50.6L46.9,45c0.9-1.3,1.8-2.5,2.8-3.7l9.5,5.5C58.2,48,57.3,49.3,56.4,50.6"/>
					<path class="st31" d="M59.1,46.8l-9.5-5.5c1.1-1.4,2.2-2.8,3.4-4.1l9.5,5.5C61.3,44.1,60.2,45.4,59.1,46.8"/>
					<path class="st31" d="M62.5,42.7L53,37.2c1.5-1.7,3-3.3,4.5-4.8l9.5,5.5C65.5,39.4,64,41.1,62.5,42.7"/>
					<path class="st31" d="M67,37.9l-9.5-5.5c4.3-4.3,9-7.9,13.8-10.7l9.5,5.5C76,30,71.3,33.7,67,37.9"/>
				</g>
			</g>
		</g>
		<g>
			<path class="st34" d="M80.8,27.2c22.9-13.2,41.5-2.6,41.6,23.7s-18.4,58.3-41.3,71.5S39.6,125,39.6,98.7
				C39.5,72.4,58,40.4,80.8,27.2z M81.1,115.3c19.4-11.2,35.2-38.4,35.1-60.8c-0.1-22.3-15.9-31.4-35.3-20.2S45.7,72.8,45.8,95.1
				C45.8,117.5,61.6,126.5,81.1,115.3"/>
		</g>
	</g>
</g>
<g>
	<path class="st35" d="M81,37.6c1.2-0.7,2.1-0.1,2.1,1.2c0,1.4-0.9,3-2.1,3.7s-2.1,0.1-2.1-1.2C78.8,40,79.8,38.3,81,37.6z"/>
</g>
<g>
	<path class="st35" d="M112.4,55.4c1.2-0.7,2.1-0.1,2.1,1.2c0,1.4-0.9,3-2.1,3.7s-2.1,0.1-2.1-1.2C110.3,57.7,111.3,56.1,112.4,55.4
		z"/>
</g>
<g>
	<path class="st35" d="M50.4,94.6c1.2-0.7,2.1-0.1,2.1,1.2s-0.9,3-2.1,3.7c-1.2,0.7-2.1,0.1-2.1-1.2C48.3,96.9,49.2,95.3,50.4,94.6z
		"/>
</g>
<g>
	<path class="st35" d="M81,108.6c1.2-0.7,2.1-0.1,2.1,1.2c0,1.4-0.9,3-2.1,3.7s-2.1,0.1-2.1-1.2C78.8,110.9,79.8,109.3,81,108.6z"/>
</g>
<path class="st35" d="M107.7,62.5L81,77c-1.2,0.7-2.2,0.2-2.2-1l0,0c0-1.2,1-2.7,2.2-3.4L107.7,58c1.2-0.7,2.2-0.2,2.2,1l0,0
	C109.9,60.3,108.9,61.8,107.7,62.5z"/>
<g>
	<path class="st34" d="M81,70.7c2-1.1,3.6-0.2,3.6,2c0,2.3-1.6,5-3.6,6.2s-3.6,0.2-3.6-2C77.4,74.6,79,71.8,81,70.7z"/>
</g>
<path class="st34" d="M81,75.7L81,75.7c-1.2,0.6-2.1,0.1-2.1-1V52.1c0-1.2,1-2.6,2.1-3.2l0,0c1.2-0.6,2.1-0.1,2.1,1v22.6
	C83.1,73.6,82.2,75.1,81,75.7z"/>
</svg>
