<?xml version="1.0" encoding="utf-8"?>
<!-- Generator: Adobe Illustrator 24.0.0, SVG Export Plug-In . SVG Version: 6.00 Build 0)  -->
<svg version="1.1" id="Layer_1" xmlns="http://www.w3.org/2000/svg" xmlns:xlink="http://www.w3.org/1999/xlink" x="0px" y="0px"
	 width="140px" height="140px" viewBox="0 0 140 140" style="enable-background:new 0 0 140 140;" xml:space="preserve">
<style type="text/css">
	.st0{opacity:0.5;fill:#404041;}
	.st1{fill:#231F20;}
	.st2{fill:#323031;}
	.st3{fill:#CCCCCC;}
	.st4{fill:#999999;}
	.st5{enable-background:new    ;}
	.st6{fill:#E6E6E6;}
	.st7{fill:#58217D;}
	.st8{fill:#5D2684;}
	.st9{fill:#4B166C;}
	.st10{fill:#465E67;}
	.st11{fill:#C8D6DD;}
	.st12{fill:#3E075B;}
	.st13{fill:#FFFFFF;}
	.st14{fill:#809D99;}
	.st15{fill:#33484F;}
	.st16{fill:#BE1E2D;}
	.st17{fill:#6C3493;}
	.st18{fill:#F6B47D;}
	.st19{fill:#E2DEDA;}
	.st20{opacity:0.4;fill:#4D4D4F;enable-background:new    ;}
	.st21{fill:#141A19;}
	.st22{fill:#E8A675;}
	.st23{fill:#333434;}
	.st24{fill:#8393C9;}
	.st25{fill:#A56F32;}
	.st26{fill:#E9AA7A;}
	.st27{fill:#DD9E76;}
	.st28{fill:#262261;}
	.st29{fill:#6A628C;}
	.st30{clip-path:url(#SVGID_2_);}
	.st31{fill:#E6E7E8;}
	.st32{fill:#49BEAF;}
	.st33{fill:#F1F1F2;}
</style>
<g>
	<path class="st0" d="M5.5,99.8L97.8,47L135,68.2c2.8,1.7,2.8,5.8,0,7.4L45.7,127c-2.3,1.3-5.2,1.3-7.5,0L5.5,108.1
		C2.3,106.3,2.3,101.7,5.5,99.8z"/>
	<path class="st1" d="M65.7,98c1.7-1,3.2-1,4.2-0.4l3.2,1.9c0,0,0,0,0,0c1.1,0.6,1.7,1.9,1.8,3.8c0,3.8-2.8,8.2-6,10.1
		c-1.9,1.1-3,1.1-4.1,0.6l-3.2-1.9c-1.1-0.6-1.7-1.9-1.7-3.8C59.8,104.5,62.4,99.9,65.7,98z"/>
	<g>
		<path class="st2" d="M62.4,110.3c0,0.7,0.2,1.3,0.4,1.8c0.8,1.8,2.6,2.5,4.8,2c0.6-0.1,1.2-0.4,1.8-0.7c0.8-0.4,1.6-1,2.3-1.7
			c2-1.8,3.4-4.4,3.8-6.8c0.1-0.5,0.1-1.1,0.1-1.6c0-0.6-0.2-1.1-0.3-1.5c-0.9-2.5-3.7-3.2-6.7-1.6c-3.3,1.7-5.9,5.6-6.2,9
			C62.4,109.6,62.4,110,62.4,110.3z M64.9,111c-0.3-0.4-0.4-1-0.5-1.6c0-0.4,0-0.9,0.1-1.4c0.4-2.3,2.2-4.7,4.3-5.8
			c2-1.1,3.8-0.7,4.6,0.7c0.2,0.4,0.4,0.9,0.4,1.5c0,0.5,0,1-0.1,1.6c-0.5,2.2-2.2,4.5-4.3,5.6C67.5,112.7,65.7,112.4,64.9,111z"/>
		<path class="st3" d="M64.4,109.4c0,0.6,0.2,1.2,0.5,1.6c0.8,1.4,2.6,1.7,4.6,0.6c2.1-1.1,3.8-3.4,4.3-5.6c0.1-0.5,0.2-1.1,0.1-1.6
			c0-0.6-0.2-1.1-0.4-1.5c-0.8-1.4-2.6-1.8-4.6-0.7c-2.2,1.1-3.9,3.5-4.3,5.8C64.4,108.5,64.4,109,64.4,109.4z M66.6,110
			c-0.7-0.3-1.1-0.9-1.2-1.8c0-0.2,0-0.5,0-0.8c0.2-1.6,1.4-3.3,2.9-4.1c1.4-0.7,2.6-0.4,3.2,0.6c0.1,0.3,0.2,0.6,0.2,0.9
			c0.1,0.8-0.2,1.8-0.7,2.6c-0.5,0.9-1.3,1.8-2.3,2.2C68,110.2,67.2,110.2,66.6,110z"/>
		<path class="st4" d="M65.5,108.2c0.1,0.9,0.5,1.5,1.2,1.8c0.6,0.2,1.4,0.2,2.2-0.3c0.9-0.5,1.7-1.3,2.3-2.2
			c0.5-0.8,0.8-1.8,0.7-2.6c0-0.4-0.1-0.6-0.2-0.9c-0.5-1-1.7-1.3-3.2-0.6c-1.5,0.8-2.7,2.5-2.9,4.1C65.5,107.7,65.4,108,65.5,108.2
			z M68.5,106.4c0.3-0.5,0.9-0.7,1.1-0.4c0.3,0.2,0.3,0.8-0.1,1.2c-0.3,0.5-0.9,0.7-1.1,0.4C68.1,107.4,68.2,106.9,68.5,106.4z"/>
		<path d="M69.6,107.2c-0.3,0.5-0.9,0.7-1.1,0.4c-0.3-0.2-0.3-0.8,0.1-1.2c0.3-0.5,0.9-0.7,1.1-0.4
			C69.9,106.2,69.9,106.8,69.6,107.2z"/>
	</g>
	<path class="st1" d="M110.7,72c1.7-1,3.2-1,4.2-0.4l3.2,1.9c0,0,0,0,0,0c1.1,0.6,1.7,1.9,1.8,3.8c0,3.8-2.8,8.2-6,10.1
		c-1.9,1.1-3,1.1-4.1,0.6l-3.2-1.9c-1.1-0.6-1.7-1.9-1.7-3.8C104.8,78.5,107.4,73.9,110.7,72z"/>
	<g class="st5">
		<path class="st6" d="M42.6,104.7c0.9-14.3,2.7-25.6,2.7-25.6l82.4-47.5l1.6,4.2l0.1,37.1l-8.1,4.7c0-0.2,0-0.4,0-0.5
			c0-0.6-0.2-1.2-0.4-1.7c-1-2.7-4-3.5-7.3-1.7c-3.6,1.9-6.4,6.1-6.7,9.8c0,0.4-0.1,0.8,0,1.2c0,0.4,0.1,0.8,0.2,1.2l-30.9,17.9
			c0-0.2,0-0.4,0-0.6c0-0.6-0.2-1.2-0.4-1.7c-1-2.7-4-3.5-7.3-1.7c-3.6,1.9-6.4,6.1-6.7,9.8c0,0.4-0.1,0.8,0,1.2
			c0,0.5,0.1,0.9,0.2,1.3l-19.5,11.3C42.5,123.1,41.7,119,42.6,104.7z"/>
		<g>
			<path class="st7" d="M45.4,79.1L15.2,61.5c0,0-2.8,20.8-2.8,30.9s0,13.2,0,13.2s1.8,3.2,12.2,9.3c10.4,6.1,18,8.3,18,8.3
				s0-4.5,0-16C42.6,97.8,45.4,79.1,45.4,79.1z"/>
		</g>
		<g>
			<path class="st8" d="M127.6,31.6L97.4,14L15.2,61.5c0,0,2.5,3.4,12.6,9.1c10.4,5.9,17.6,8.5,17.6,8.5L127.6,31.6z"/>
		</g>
		<g>
			<path class="st9" d="M129.4,61.1l0,11.7l-8.1,4.7c0-0.2,0-0.4,0-0.5c0-0.6-0.2-1.2-0.4-1.7c-1-2.7-4-3.5-7.3-1.7
				c-3.6,1.9-6.4,6.1-6.7,9.8c0,0.4-0.1,0.8,0,1.2c0,0.4,0.1,0.8,0.2,1.2l-30.9,17.9c0-0.2,0-0.4,0-0.6c0-0.6-0.2-1.2-0.4-1.7
				c-1-2.7-4-3.5-7.3-1.7c-3.6,1.9-6.4,6.1-6.7,9.8c0,0.4-0.1,0.8,0,1.2c0,0.5,0.1,0.9,0.2,1.3l-19.5,11.3c0,0-0.6-2.7-0.3-11.5
				L129.4,61.1z"/>
			<path class="st9" d="M44.2,85.5c0.6-4.9,1.1-6.4,1.1-6.4l82.4-47.5l1.6,4.2l0,0.7L44.2,85.5z"/>
		</g>
	</g>
	<g>
		<path class="st2" d="M107.4,84.3c0,0.7,0.2,1.3,0.4,1.8c0.8,1.8,2.6,2.5,4.8,2c0.6-0.1,1.2-0.4,1.8-0.7c0.8-0.4,1.6-1,2.3-1.7
			c2-1.8,3.4-4.4,3.8-6.8c0.1-0.5,0.1-1.1,0.1-1.6c0-0.6-0.2-1.1-0.3-1.5c-0.9-2.5-3.7-3.2-6.7-1.6c-3.3,1.7-5.9,5.6-6.2,9
			C107.4,83.5,107.4,83.9,107.4,84.3z M109.9,84.9c-0.3-0.4-0.4-1-0.5-1.6c0-0.4,0-0.9,0.1-1.4c0.4-2.3,2.2-4.7,4.3-5.8
			c2-1.1,3.8-0.7,4.6,0.7c0.2,0.4,0.4,0.9,0.4,1.5c0,0.5,0,1-0.1,1.6c-0.5,2.2-2.2,4.5-4.3,5.6C112.5,86.6,110.7,86.3,109.9,84.9z"
			/>
		<path class="st3" d="M109.4,83.4c0,0.6,0.2,1.2,0.5,1.6c0.8,1.4,2.6,1.7,4.6,0.6c2.1-1.1,3.8-3.4,4.3-5.6c0.1-0.5,0.2-1.1,0.1-1.6
			c0-0.6-0.2-1.1-0.4-1.5c-0.8-1.4-2.6-1.8-4.6-0.7c-2.2,1.1-3.9,3.5-4.3,5.8C109.4,82.4,109.4,82.9,109.4,83.4z M111.7,84
			c-0.7-0.3-1.1-0.9-1.2-1.8c0-0.2,0-0.5,0-0.8c0.2-1.6,1.4-3.3,2.9-4.1c1.4-0.7,2.6-0.4,3.2,0.6c0.1,0.3,0.2,0.6,0.2,0.9
			c0.1,0.8-0.2,1.8-0.7,2.6c-0.5,0.9-1.3,1.8-2.3,2.2C113,84.1,112.3,84.2,111.7,84z"/>
		<path class="st4" d="M110.5,82.2c0.1,0.9,0.5,1.5,1.2,1.8c0.6,0.2,1.4,0.2,2.2-0.3c0.9-0.5,1.7-1.3,2.3-2.2
			c0.5-0.8,0.8-1.8,0.7-2.6c0-0.4-0.1-0.6-0.2-0.9c-0.5-1-1.7-1.3-3.2-0.6c-1.5,0.8-2.7,2.5-2.9,4.1
			C110.5,81.7,110.5,81.9,110.5,82.2z M113.5,80.4c0.3-0.5,0.9-0.7,1.1-0.4c0.3,0.2,0.3,0.8-0.1,1.2c-0.3,0.5-0.9,0.7-1.1,0.4
			C113.1,81.4,113.2,80.8,113.5,80.4z"/>
		<path d="M114.6,81.2c-0.3,0.5-0.9,0.7-1.1,0.4c-0.3-0.2-0.3-0.8,0.1-1.2c0.3-0.5,0.9-0.7,1.1-0.4S114.9,80.7,114.6,81.2z"/>
	</g>
	<g>
		<polygon class="st10" points="62.2,76.6 62.2,91.3 126.3,54.4 126.3,39.8 		"/>
	</g>
	<g>
		<path class="st10" d="M48.5,84.6c0,0-1.2,3.2-1.6,7.5c-0.4,4.4-0.2,8.2-0.2,8.2l13.5-8V77.8L48.5,84.6z"/>
	</g>
	<path class="st11" d="M38.9,117.9c0.9,0.5,1.7,0.1,1.8-0.8c0-0.4-0.1-0.8-0.3-1.2c-0.3-0.6-0.7-1.1-1.3-1.4c-0.5-0.3-1-0.3-1.3-0.1
		c-0.3,0.2-0.5,0.5-0.5,0.9C37.3,116.3,38,117.4,38.9,117.9z"/>
	<path class="st11" d="M35.6,116.1c0.5,0.3,0.9,0.1,1-0.4c0-0.2,0-0.4-0.1-0.6c-0.1-0.3-0.4-0.6-0.7-0.7c-0.3-0.1-0.5-0.1-0.7,0
		c-0.1,0.1-0.2,0.2-0.3,0.5C34.7,115.3,35.1,115.9,35.6,116.1z"/>
	<path class="st11" d="M15.2,105.6c0.9,0.5,1.7,0.1,1.8-0.8c0-0.4-0.1-0.8-0.3-1.2c-0.3-0.6-0.7-1.1-1.3-1.4c-0.5-0.3-1-0.3-1.3-0.1
		c-0.3,0.2-0.5,0.5-0.5,0.9C13.6,104,14.3,105.2,15.2,105.6z"/>
	<path class="st11" d="M18.7,107.6c0.5,0.3,0.9,0.1,1-0.4c0-0.2,0-0.4-0.1-0.6c-0.1-0.3-0.4-0.6-0.7-0.7c-0.3-0.1-0.5-0.1-0.7,0
		c-0.1,0.1-0.2,0.2-0.3,0.5C17.8,106.8,18.2,107.4,18.7,107.6z"/>
	<path class="st12" d="M42.3,112.2c0,0-8.1-0.3-17.6-5.2S12.8,96.7,12.8,96.7s3.7,5.5,12.2,9.8C33.2,110.7,42.3,112.2,42.3,112.2z"
		/>
	<path class="st13" d="M23.1,109.5L23.1,109.5l4.2,2.4l0.3,0.2c0.1,0.1,0.2,0.2,0.2,0.3v1.6c0,0.2-0.3,0.4-0.5,0.3l-4.5-2.6
		c-0.1-0.1-0.2-0.2-0.2-0.3v-1.6C22.6,109.5,22.9,109.3,23.1,109.5z"/>
	<path class="st10" d="M15.8,63.3c0,0,2.3,3.2,12,8.7c10,5.7,16.9,8.1,16.9,8.1s-1.8,7.9-2.8,28.5c-10.8-2.3-21.3-6.3-28.7-15
		C13.2,79.2,15.8,63.3,15.8,63.3z"/>
	<path class="st14" d="M14.2,90.7l10.6-6.1V71.9l-4.4-3L16,71.2c0,0-1.1,4.3-1.5,10.4C14.1,87.6,14.2,90.7,14.2,90.7z"/>
	<path class="st15" d="M41.9,105.9c0.7-14.1,1.8-22.2,2.4-25.9c0.3,0.1,0.5,0.2,0.5,0.2s-1.8,7.9-2.8,28.5
		c-10.8-2.3-21.3-6.3-28.7-15c0-0.9,0-1.8,0-2.7C20.6,99.6,31.1,103.5,41.9,105.9z"/>
	<polygon class="st16" points="128.6,63.8 129.4,63.8 129.4,70 129.4,70 128.9,70 128.1,69.6 128.1,69.3 128.1,64.6 	"/>
	<g>
		<polygon class="st15" points="77,68.1 77,82.7 78.2,82 78.2,67.4 		"/>
	</g>
	<g>
		<polygon class="st15" points="111.2,48.4 111.2,63 112.4,62.4 112.4,47.7 		"/>
	</g>
	<g>
		<polygon class="st15" points="93.6,58.5 93.6,73.1 94.8,72.5 94.8,57.9 		"/>
	</g>
	<g>
		<polygon class="st14" points="26.2,72.3 26.2,81.7 34.7,76.8 		"/>
	</g>
	<g>
		<path class="st15" d="M43.8,85.8c-0.6,4.5-1.4,11.8-1.9,22.8c-0.1,0-0.2,0-0.2-0.1C42.3,96.7,43.2,89.5,43.8,85.8z"/>
		<path class="st15" d="M27.5,74.6c-9.7-5.5-12-8.7-12-8.7s-0.1,0.6-0.2,1.6c0.4-2.6,0.6-4.1,0.6-4.1s2.3,3.2,12,8.7
			c10,5.7,16.9,8.1,16.9,8.1s-0.2,0.8-0.5,2.5C43.4,82.3,36.8,79.8,27.5,74.6z"/>
	</g>
	<g>
		<path class="st9" d="M106.9,31.5l-0.4-0.4l-9.4-5.5l-12.4,7.1l-0.5,0.4c0,0,0.7,1,4.1,2.9c3.4,1.9,5.8,2.8,5.8,2.8L106.9,31.5z"/>
	</g>
	<g>
		<path class="st17" d="M106.2,31.2l-9.1-5.3l-12.2,7c0,0,0.8,1,3.9,2.8c3.2,1.8,5.2,2.5,5.2,2.5L106.2,31.2z"/>
	</g>
	<g>
		<path class="st9" d="M64.3,55.6l-0.4-0.4l-9.4-5.5L42,56.8l-0.5,0.4c0,0,0.7,1,4.1,2.9c3.4,1.9,5.8,2.8,5.8,2.8L64.3,55.6z"/>
	</g>
	<g>
		<path class="st17" d="M63.6,55.3l-9.1-5.3l-12.2,7c0,0,0.8,1,3.9,2.8c3.2,1.8,5.2,2.5,5.2,2.5L63.6,55.3z"/>
	</g>
</g>
<g>
	<path class="st18" d="M104.6,95.3c0,0-0.7-0.7-0.8-1c-0.2-0.2,0-0.7,0.1-0.8c0.1-0.1,0.4-0.4,0.9,0c0.4,0.3,1.1,1.1,1.1,1.1
		S105.5,95.3,104.6,95.3z"/>
	<path class="st19" d="M112.5,92.5c-0.3-0.3-1.7,1.3-2,1.7s-2,2.5-2,2.5c-0.2-0.2-2-2-2.6-2.5c-0.4-0.1-1.3,0.5-1.2,1
		c0.4,0.8,3.2,4,3.5,4.2c0.4,0.2,3-2,3.2-2.3C111.6,96.9,113.1,93.2,112.5,92.5z"/>
	<ellipse class="st20" cx="112.9" cy="129.8" rx="5.5" ry="2.2"/>
	<path class="st21" d="M111.1,129.6c-0.3,0.1-0.9,0.3-1,0.7c0,0.4,0.5,0.7,0.9,0.7c0.4,0,1.3-0.1,1.7-0.3s1.4-1.2,1.5-1.5
		c0.2-0.3,0.4-0.7,0.5-0.9c0-0.2-0.4-1.2-0.6-0.9S111.1,129.6,111.1,129.6z"/>
	<path class="st22" d="M111.3,116.6c-0.4-0.4,0.3,2.6,0.8,4.1c0.4,1.5,0.8,5.6,0.6,6.2s-0.6,1.6-1,2s-0.9,0.7-0.5,0.9
		c0.4,0.2,0.9,0.2,1.5-0.2c0.6-0.4,1.4-1.1,1.6-1.9c0.1-0.4-0.2-0.9-0.2-1.3c-0.2-1.6,0.5-4.8,0.6-6.4c0.1-1.6-0.4-2.6-0.7-2.7
		C113.8,117.1,111.7,117,111.3,116.6z"/>
	<path class="st21" d="M116.3,128c0.2,0.1,0.5,1,0.4,1.5s-2,2.2-2.6,2.3c-1,0.3-1.8,0.1-2,0c-0.2-0.1-0.3-0.8,0.1-1.1
		c0.2-0.2,1-0.7,1.4-0.8C113.9,129.8,116.3,128,116.3,128z"/>
	<path class="st18" d="M116.9,117.2c0.3,0.4,0.9,2.8,0.3,5.5c-0.5,2.7-1.1,4.1-1.1,4.6c0,0.6,0.4,1.1,0.1,1.6
		c-0.3,0.6-1.7,1.8-2.3,1.9c-0.5,0.1-1.2,0.1-0.9-0.4s1.8-2.3,1.9-2.8s0-6.4-0.1-7c-0.1-0.6-0.3-0.8-0.4-1.6c-0.1-0.8-0.3-1.7-0.2-2
		C114.4,116.6,116.9,117.2,116.9,117.2z"/>
	<path class="st23" d="M111.2,104.1c-0.1,1.1-0.4,6.9-0.2,8.2c0.1,1.3,0.1,3.6,0.1,3.9c0,0.3,1.4,1.5,3.7,1.4
		c2.3-0.1,2.9-0.8,2.9-0.8s-0.1-4.6,0.2-6.1c0.3-1.5,0.7-1.7,0.6-3.4c-0.1-1.7-0.9-3.1-0.9-3.1L111.2,104.1z"/>
	<path class="st24" d="M112,93.5c-0.4,1.3-1,2.7-1,3.5s0.6,1.8,0.8,1.9c0.2,0.1-0.1,2.1-0.3,2.6c-0.5,1.2-0.3,2.5-0.3,2.5
		s2.3,0.4,3.6,0.3c1.3-0.1,2.6-0.3,2.6-0.3s0.3-7.2,0.5-8.5c0.2-1.2,1.3-1.3,0.8-2.2C117.6,91.8,112.9,90.9,112,93.5z"/>
	<path class="st25" d="M111.8,89.7c-0.1,0.6,0.2,4.7,0.2,5.5c0.7-0.4,1.8-1.9,1.9-3.2C114.1,90.7,111.8,89.7,111.8,89.7z"/>
	<path class="st26" d="M113.8,91.6c0.2,0.2,0.2,2.5,0.2,2.5s1.6-0.5,1.8-1.1s0.1-4,0.1-4L113.8,91.6z"/>
	<path class="st13" d="M115.4,93.5l-1.4,0.6l-0.1-2.2l-0.7,1.7c0,0,0,1.7,0.2,2c0.8-0.5,1.6-0.9,1.7-1.1
		C115.3,94.4,115.4,93.5,115.4,93.5z"/>
	<path class="st27" d="M113.8,91.6c0,0,1.2-1.7,1.4-2c0.2-0.2,0.6,0.4,0.6,0.4s0,0.5-0.2,0.8C115.6,91.1,114.9,91.5,113.8,91.6z"/>
	<path class="st18" d="M113.2,91.8c-0.9,0.1-1.4-1.2-1.5-2.9c-0.1-1.7,0.3-3.3,0.6-3.5c0.3-0.3,3.4,0.9,3.7,1.7
		c0.3,0.8,0.4,2.8-0.8,2.8C115.2,90.6,114.1,91.8,113.2,91.8z"/>
	<g>
		<path class="st23" d="M117.7,93.3c-1-0.4-2.7,2.8-2.9,4.5c-0.1,1.6,0,2.4,0,2.4H114c0,0,0.3-3.8,1.5-5.7c1.3-1.9,1.8-1.6,2.2-1.6
			c0.4,0,2,0.6,2.8,6.3c-0.4,0.4-0.7,0.3-0.7,0.3S119.9,94.2,117.7,93.3z"/>
		<path class="st23" d="M114.1,99.9c-0.4,0.3-0.6,2.2-0.5,3.3c0.4,0.5,1.2,1,1.2,1s5.4-0.5,6.5-1.4c0.3-1.5-0.8-4-1-4.3
			C120.2,98.2,116,98.3,114.1,99.9z"/>
	</g>
	<path class="st18" d="M116.2,97.6c0,0-0.7-1.1-0.9-1.4c-0.2-0.3-0.9-0.2-1.1-0.1c-0.2,0.1-0.6,0.5-0.3,1.1c0.3,0.6,1.3,1.5,1.3,1.5
		S115.9,98.6,116.2,97.6z"/>
	<path class="st19" d="M117.4,93.3c1-0.2,1.4,0.3,1.7,1.2s1.2,5.6,1.2,6.6c0,1-1.2,1.3-1.8,1.1s-2.8-2-3.8-3.9
		c0.6-0.3,1.1-0.8,1.3-1c1,0.9,1.6,1.4,1.6,1.4s-0.8-3.1-0.9-3.6C116.5,94.5,116.2,93.6,117.4,93.3z"/>
	<path class="st25" d="M111.7,87.9c-0.4-1-0.2-2.4,0.3-3.1s1.3-1.2,2.6-1.1s3,1.5,3.1,2.7s0.2,6.4,0,6.8c-0.2,0.5-0.5,2.5-3.4,2.6
		c0.9-0.9,1-2.7,1.1-3.1s0-3,0-3s0.6-0.3,0.6-1.2c0-0.9-0.8-0.8-0.9-0.6c-0.1,0.2-0.4,0.3-0.7,0.1c-0.2-0.2-1.6-1.1-1.8-1.8
		c-0.2-0.7-0.7-0.4-0.7-0.4S111.8,86.9,111.7,87.9z"/>
	<g>
		<path class="st28" d="M104.4,90.6l0,0.1l-1.2,1.1c-0.1,0.1-0.1,0.1-0.1,0.2l1.1,2.9l-0.1,0.1c0,0-0.2,0-0.2,0c0,0-0.1-0.1-0.1-0.1
			l-0.9-3c0-0.1,0-0.1,0-0.2l1.1-1.2c0,0,0.1-0.1,0.2-0.1C104.3,90.5,104.4,90.6,104.4,90.6z"/>
		<path class="st28" d="M104.1,95l1.3-1.4c0,0,0.1-0.1,0-0.2c0,0-0.8-2.8-0.9-2.9c0-0.1-0.4-0.1-0.4-0.1l-1,1.3
			c-0.1,0.1-0.1,0.1-0.1,0.2l0.9,3C104,95.1,104.1,95.1,104.1,95z"/>
		<g>
			<path class="st13" d="M103.3,92l1.1-1.2c0,0,0.1,0,0.1,0l0.8,2.7c0,0,0,0,0,0.1l-1.1,1.2c0,0-0.1,0-0.1,0L103.3,92
				C103.2,92,103.2,92,103.3,92z"/>
		</g>
		<g>
			<path class="st29" d="M103.5,91.5l-0.2,0.2c-0.1,0.1-0.1,0.1-0.1,0.2c0,0.1,0,0.2,0.1,0.3l0.1,0.3l0,0l-0.1-0.3
				c0-0.1-0.1-0.2-0.1-0.3c0-0.1,0.1-0.2,0.2-0.2L103.5,91.5L103.5,91.5z"/>
		</g>
		<g>
			<defs>
				<path id="SVGID_1_" d="M103.3,92l1.1-1.2c0,0,0.1,0,0.1,0l0.8,2.7c0,0,0,0,0,0.1l-1.1,1.2c0,0-0.1,0-0.1,0L103.3,92
					C103.2,92,103.2,92,103.3,92z"/>
			</defs>
			<clipPath id="SVGID_2_">
				<use xlink:href="#SVGID_1_"  style="overflow:visible;"/>
			</clipPath>
			<g class="st30">
				<polygon class="st31" points="104.5,92.2 104.1,92.6 104.5,92.7 104.8,92.3 				"/>
				<polygon class="st31" points="104.7,91.9 104.5,92.2 105.2,92.3 105.3,92 				"/>
				<polygon class="st31" points="105.1,91.6 104.8,91.8 105.3,92 105.4,91.6 				"/>
				<polygon class="st31" points="104,92.1 103.7,92.5 104,92.6 104.4,92.2 				"/>
				<polygon class="st31" points="104.2,90.8 103.5,91.5 103.9,91.6 104.5,90.9 				"/>
				<polygon class="st31" points="104.5,91.6 104.2,91.9 104.5,92 104.9,91.7 				"/>
				<polygon class="st31" points="104.2,91.9 104.1,92.1 104.4,92.1 104.5,92 				"/>
				<polygon class="st31" points="103.6,93.2 103.2,93.5 103.6,93.6 103.9,93.2 				"/>
				<polygon class="st31" points="104,92.6 103.7,93 104.1,93.1 104.4,92.7 				"/>
				<polygon class="st31" points="103.7,93 103.6,93.1 104,93.2 104.1,93.1 				"/>
				<polygon class="st31" points="103.6,92.5 103.3,92.8 103.7,92.9 104,92.6 				"/>
				<polygon class="st31" points="103.2,92.4 102.9,92.7 103.3,92.8 103.5,92.5 				"/>
				<polygon class="st31" points="104.5,91 104.3,91.3 104.6,91.4 104.9,91.1 				"/>
				<polygon class="st31" points="103.6,92 103.2,92.4 103.6,92.5 103.9,92.1 				"/>
				<polygon class="st31" points="102.9,92.2 102.8,92.3 103.2,92.4 103.4,92 				"/>
				<polygon class="st31" points="103.2,91.9 102.9,92.1 103.5,92 				"/>
				<polygon class="st31" points="103.5,91.6 103.2,91.8 103.6,91.9 103.8,91.7 				"/>
				<polygon class="st31" points="103.7,92 104,92 104.2,91.8 				"/>
				<polygon class="st31" points="104.2,91.4 103.7,91.9 104.3,91.7 104.6,91.4 				"/>
				<polygon class="st31" points="104.3,93 104,93.2 104.4,93.3 104.6,93.1 				"/>
				<polygon class="st31" points="104,93.3 103.4,93.9 103.8,94 104.3,93.4 				"/>
				<polygon class="st31" points="104.4,92.9 104.7,93 104.9,92.8 				"/>
				<polygon class="st31" points="104.9,92.3 104.3,92.9 105,92.7 105.2,92.4 				"/>
				<polygon class="st31" points="105,93.9 104.6,94.3 105,94.4 105.3,94 				"/>
				<polygon class="st31" points="105.1,92.7 104.5,93.4 104.8,93.4 105.5,92.7 				"/>
				<polygon class="st31" points="105.4,93.4 105.1,93.8 105.5,93.8 105.8,93.5 				"/>
				<polygon class="st31" points="105.1,93.8 105,93.9 105.4,94 105.5,93.9 				"/>
				<polygon class="st31" points="104.6,94.4 104.3,94.7 104.6,94.8 104.9,94.5 				"/>
				<polygon class="st31" points="104.1,94.3 103.9,94.6 104.2,94.7 104.5,94.4 				"/>
				<polygon class="st31" points="105.5,92.8 105.2,93.1 105.6,93.2 105.8,92.9 				"/>
				<polygon class="st31" points="104.5,93.8 104.2,94.2 104.5,94.3 104.9,93.9 				"/>
				<polygon class="st31" points="103.8,94.1 103.7,94.1 104.1,94.2 104.4,93.9 				"/>
				<polygon class="st31" points="104.1,93.7 103.9,94 104.4,93.8 				"/>
				<polygon class="st31" points="104.4,93.4 104.1,93.7 104.5,93.8 104.8,93.5 				"/>
				<polygon class="st31" points="104.7,93.8 104.9,93.9 105.1,93.7 				"/>
				<polygon class="st31" points="105.1,93.2 104.6,93.8 105.2,93.6 105.5,93.3 				"/>
				<path class="st32" d="M103.9,91.9c0,0.1,0,0.2,0,0.2s-0.1-0.1-0.1-0.1c0-0.1,0-0.1,0-0.1C103.8,91.8,103.9,91.8,103.9,91.9z"/>
				<circle class="st33" cx="103.8" cy="91.9" r="0"/>
			</g>
		</g>
	</g>
</g>
</svg>
