<?xml version="1.0" encoding="utf-8"?>
<!-- Generator: Adobe Illustrator 23.0.3, SVG Export Plug-In . SVG Version: 6.00 Build 0)  -->
<svg version="1.1" id="Layer_1" xmlns="http://www.w3.org/2000/svg" xmlns:xlink="http://www.w3.org/1999/xlink" x="0px" y="0px"
	 width="140px" height="140px" viewBox="0 0 140 140" style="enable-background:new 0 0 140 140;" xml:space="preserve">
<style type="text/css">
	.st0{fill:url(#SVGID_1_);}
	.st1{fill:#828E96;}
	.st2{fill:#94A2AA;}
	.st3{fill:#A7B6BE;}
	.st4{fill:#B9C9D2;}
	.st5{fill:#373D41;}
</style>
<g>
	<linearGradient id="SVGID_1_" gradientUnits="userSpaceOnUse" x1="50.1908" y1="82.6637" x2="80.3265" y2="131.7418">
		<stop  offset="0" style="stop-color:#6D6E70;stop-opacity:0"/>
		<stop  offset="1" style="stop-color:#6D6E70;stop-opacity:0.7"/>
	</linearGradient>
	<polygon class="st0" points="76.7,134.6 25.3,105.1 24.6,97.9 47.8,84.4 57.7,86.2 109.2,115.7 	"/>
	<g>
		<polygon class="st1" points="77.9,123 39.4,100.9 46.7,96 77.9,114 		"/>
		<polygon class="st2" points="77.9,123 77.9,113.9 109,96 109,105.1 		"/>
		<polygon class="st3" points="77.9,114 46.7,96 77.8,78 109,96 		"/>
		<polygon class="st4" points="39.4,39 46.7,96 77.8,78 70.5,21 		"/>
		<polygon class="st2" points="39.4,39 31.6,37.6 62.6,19.6 70.5,21 		"/>
		<polygon class="st1" points="39.4,39 31.6,37.6 39.4,100.9 46.7,96 		"/>
		<polygon class="st4" points="44.2,17.6 46.1,31.9 58.3,24.7 56.5,10.4 		"/>
		<polygon class="st2" points="44.2,17.6 40.1,16.2 52.6,9 56.5,10.4 		"/>
		<polygon class="st1" points="44.2,17.6 40.1,16.2 42.1,30.5 46.1,31.9 		"/>
	</g>
	<path class="st5" d="M70.5,21c0,0,0.9,45.3-23.8,75l3.7,2.1c1.1-1.2,23.2-29.4,21.6-66.8L70.5,21z"/>
	<path class="st5" d="M51,98.5c25-4.1,33.8-16.3,33.8-16.3l-3.4-2C69.8,92.4,46.7,96,46.7,96L51,98.5z"/>
</g>
</svg>
