<?xml version="1.0" encoding="utf-8"?>
<!-- Generator: Adobe Illustrator 24.0.0, SVG Export Plug-In . SVG Version: 6.00 Build 0)  -->
<svg version="1.1" id="Layer_1" xmlns="http://www.w3.org/2000/svg" xmlns:xlink="http://www.w3.org/1999/xlink" x="0px" y="0px"
	 width="140px" height="140px" viewBox="0 0 140 140" style="enable-background:new 0 0 140 140;" xml:space="preserve">
<style type="text/css">
	.st0{opacity:0.4;fill:#4D4D4F;enable-background:new    ;}
	.st1{fill:#606A70;}
	.st2{fill:#727D83;}
	.st3{fill:#828E96;}
	.st4{fill:#E6E7E8;}
	.st5{fill:#D0D2D3;}
	.st6{fill:#A6A8AB;}
	.st7{fill:#6D6E70;}
	.st8{fill:#808184;}
	.st9{fill:#4A93BD;}
	.st10{fill:#6EA9CA;}
	.st11{fill:#D17261;}
	.st12{fill:#C85248;}
	.st13{fill:#AD3429;}
	.st14{fill:#B3493F;}
	.st15{fill:#FBBB76;}
	.st16{fill:#F6921E;}
	.st17{fill:#F9A64A;}
	.st18{fill:#FFFFFF;}
	.st19{font-family:'Metropolis-Bold';}
	.st20{font-size:2.5472px;}
	.st21{fill:none;stroke:#FFFFFF;stroke-width:9.809001e-02;stroke-miterlimit:10;}
	.st22{fill:#82271F;}
	.st23{fill:#F1F1F2;}
	.st24{fill:none;}
	.st25{fill:#BBBDBF;}
	.st26{font-size:6.3158px;}
	.st27{fill:url(#SVGID_1_);}
	.st28{fill:#273842;}
	.st29{fill:#556166;}
	.st30{fill:#576771;}
	.st31{opacity:0.2;}
	.st32{fill:none;stroke:#707070;stroke-width:0.1208;}
	.st33{fill:none;stroke:#4BBFA7;stroke-width:0.7248;stroke-linecap:round;stroke-miterlimit:10;}
	.st34{enable-background:new    ;}
	.st35{fill:#4BBFA7;}
	.st36{fill:#2D414D;}
	.st37{fill:#BCBCBC;}
	.st38{fill:none;stroke:#BCBCBC;stroke-width:0.2416;stroke-miterlimit:10;}
</style>
<g>
	<g>
		<polygon class="st0" points="77.7,127.2 134.5,94.4 77.7,61.6 20.9,94.4 		"/>
		<polygon class="st1" points="77.7,123.4 136.8,89.2 136.8,87 77.7,121.1 		"/>
		<polygon class="st2" points="77.7,121.1 136.8,87 77.7,52.8 18.6,87 		"/>
		<polygon class="st3" points="77.7,123.4 18.6,89.2 18.6,87 77.7,121.1 		"/>
	</g>
	<g>
		<polygon class="st4" points="63.4,101.8 63.4,73.3 38.8,59 38.8,87.5 		"/>
		<polygon class="st5" points="63.4,101.8 101.3,79.9 101.3,51.4 63.4,73.3 		"/>
	</g>
	<polygon class="st6" points="63.4,101.8 101.3,79.9 101.3,74.1 111.7,80.1 73.9,102 	"/>
	<g>
		<polygon class="st6" points="81.6,70.9 98.3,61.2 97.5,60.7 80.8,70.4 		"/>
		<polygon class="st7" points="81.6,70.9 98.3,61.2 98.3,77.1 81.6,86.7 		"/>
		<polygon class="st8" points="81.6,70.9 80.8,70.4 80.8,86.3 81.6,86.7 		"/>
		<polygon class="st9" points="82.3,71.3 97.6,62.4 97.6,76.6 82.3,85.4 		"/>
		<polygon class="st8" points="97.6,76.6 96.8,76.1 96.8,62.9 97.6,62.4 		"/>
		<polygon class="st6" points="82.3,85.4 97.6,76.6 96.8,76.1 82.3,84.5 		"/>
		<polygon class="st10" points="96.8,62.9 96.8,76.1 82.3,84.5 		"/>
		<polygon class="st4" points="86.9,72.9 92.9,69.5 92.9,75 86.9,78.4 		"/>
	</g>
	<g>
		<polygon class="st6" points="59.6,78.6 42.8,68.8 43.6,68.3 60.4,78.1 		"/>
		<polygon class="st8" points="59.6,78.6 42.8,68.8 42.8,84.8 59.6,94.4 		"/>
		<polygon class="st7" points="59.6,78.6 60.4,78.1 60.4,94 59.6,94.4 		"/>
		<polygon class="st9" points="58.9,79 43.5,70.1 43.5,84.3 58.9,93.1 		"/>
		<polygon class="st7" points="43.5,84.3 44.3,83.8 44.3,70.6 43.5,70.1 		"/>
		<polygon class="st6" points="58.9,93.1 43.5,84.3 44.3,83.8 58.9,92.1 		"/>
		<polygon class="st10" points="44.3,83.8 58.9,79 58.9,92.1 		"/>
	</g>
	<g>
		<polygon class="st6" points="68.7,81.1 77.8,75.8 77,75.3 67.9,80.6 		"/>
		<polygon class="st7" points="68.7,81.1 77.8,75.8 77.8,94.4 68.7,99.6 		"/>
		<polygon class="st8" points="68.7,81.1 67.9,80.6 67.9,99.2 68.7,99.6 		"/>
		<polygon class="st9" points="69.4,81.6 77.1,77 77.1,93.9 69.4,98.3 		"/>
		<polygon class="st8" points="77.1,93.9 76.3,93.4 76.3,77.5 77.1,77 		"/>
		<polygon class="st6" points="69.4,98.3 77.1,93.9 76.3,93.4 69.4,97.4 		"/>
		<polygon class="st6" points="69.4,89.2 77.1,84.8 76.3,84.3 69.4,88.3 		"/>
		<polygon class="st7" points="69.4,89.2 77.1,84.7 77.1,87.2 69.4,91.7 		"/>
		<polygon class="st10" points="76.3,87.7 76.3,93.4 69.4,97.4 		"/>
		<polygon class="st10" points="76.3,77.5 76.3,84.3 69.4,88.3 		"/>
		<polygon class="st4" points="71.6,82.4 74.1,81 74.1,83.4 71.6,84.8 		"/>
	</g>
	<g>
		<g>
			<polygon class="st5" points="63.4,78.8 63.4,73.3 38.8,59 38.8,64.5 			"/>
			<polygon class="st5" points="63.4,78.8 101.3,56.9 101.3,51.4 63.4,73.3 			"/>
		</g>
		<path class="st11" d="M104.6,45.8L77.7,30.2L36.5,54.1l0,0l0,0l26.8,15.6v-0.1l0,0l0,0v0.1L104.6,45.8L104.6,45.8L104.6,45.8z
			 M63.4,66.8L44,55.5l33.7-19.4l19.4,11.2L63.4,66.8z"/>
		<polygon class="st12" points="63.4,77 63.4,69.6 36.5,54.1 36.5,61.4 		"/>
		<polygon class="st13" points="63.4,77 104.6,53.2 104.6,45.8 63.4,69.6 		"/>
		<polygon class="st12" points="77.8,36.1 77.7,33.2 99.6,45.8 97.1,47.3 		"/>
		<polygon class="st14" points="77.7,36.1 77.7,33.2 41.5,54.1 44,55.5 		"/>
		<polygon class="st13" points="44,55.5 77.7,36.1 97.1,47.3 63.4,66.8 		"/>
	</g>
	<g>
		<polygon class="st15" points="66,70.8 78.8,63.4 77.7,62.7 64.9,70.1 		"/>
		<polygon class="st16" points="66,70.8 78.8,63.4 78.8,66.6 66,73.9 		"/>
		<polygon class="st17" points="66,70.8 64.9,70.1 64.9,73.3 66,73.9 		"/>
		<text transform="matrix(1 -0.5838 0 1 66.8997 72.8121)" class="st18 st19 st20">TIENDA</text>
		<text transform="matrix(1 -0.5838 0 1 66.8997 72.8121)" class="st21 st19 st20">TIENDA</text>
	</g>
	<g>
		<polygon class="st15" points="69.4,108.2 82.1,100.8 81,100.1 68.3,107.5 		"/>
		<polygon class="st16" points="69.4,108.3 82.1,100.8 82.1,101.7 69.4,109 		"/>
		<polygon class="st17" points="69.4,108.3 68.3,107.5 68.3,108.3 69.4,109 		"/>
	</g>
	<g>
		<polygon class="st15" points="85.7,98.8 98.4,91.4 97.3,90.7 84.6,98.1 		"/>
		<polygon class="st16" points="85.7,98.8 98.4,91.4 98.4,92.2 85.7,99.5 		"/>
		<polygon class="st17" points="85.7,98.8 84.6,98.1 84.6,98.9 85.7,99.5 		"/>
	</g>
	<g>
		<polygon class="st15" points="101.7,89.6 114.4,82.2 113.3,81.5 100.5,88.9 		"/>
		<polygon class="st16" points="101.7,89.6 114.4,82.2 114.4,83.1 101.7,90.4 		"/>
		<polygon class="st17" points="101.7,89.6 100.5,88.9 100.6,89.7 101.7,90.4 		"/>
	</g>
	<g>
		<polygon class="st22" points="73.5,47.6 79.8,43.9 79.8,43 82.1,44.1 75.9,47.7 		"/>
		<polygon class="st4" points="73.5,47.6 73.5,42 69.3,39.6 69.3,45.2 		"/>
		<polygon class="st5" points="73.5,47.6 79.8,43.9 79.8,38.3 73.5,42 		"/>
		<g>
			<polygon class="st23" points="69.3,39.6 75.7,35.9 79.8,38.3 73.5,42 			"/>
		</g>
		<polygon class="st6" points="73.8,47.1 74.2,46.9 74.2,41.8 73.8,42 		"/>
		<polygon class="st6" points="74.9,46.5 75.3,46.3 75.3,41.2 74.9,41.4 		"/>
		<polygon class="st6" points="76,45.9 76.4,45.7 76.4,40.6 76,40.8 		"/>
		<polygon class="st6" points="77.1,45.3 77.5,45.1 77.5,40 77.1,40.2 		"/>
		<polygon class="st6" points="78.2,44.7 78.5,44.5 78.5,39.4 78.2,39.6 		"/>
		<polygon class="st6" points="79.3,44.1 79.6,43.9 79.6,38.8 79.3,39 		"/>
	</g>
	<line class="st24" x1="66.6" y1="97.2" x2="52" y2="88.9"/>
	<path class="st25" d="M129.4,66.8L129.4,66.8c-0.5,0-0.9,0.4-0.9,0.9v18.7c0,0.5,0.4,0.9,0.9,0.9l0,0c0.5,0,0.9-0.4,0.9-0.9V67.7
		C130.3,67.2,129.9,66.8,129.4,66.8z"/>
	<g>
		
			<ellipse transform="matrix(0.8676 -0.4972 0.4972 0.8676 -15.6206 72.9462)" class="st9" cx="129.2" cy="65.8" rx="3.5" ry="5.5"/>
		<ellipse transform="matrix(0.8676 -0.4972 0.4972 0.8676 -15.6206 72.9462)" class="st18" cx="129.2" cy="65.8" rx="3" ry="4.7"/>
		<text transform="matrix(1.0036 0.478 0 1 127.0735 66.8396)" class="st9 st19 st26">E</text>
	</g>
</g>
<g>
	
		<linearGradient id="SVGID_1_" gradientUnits="userSpaceOnUse" x1="-1810.8009" y1="315.8656" x2="-1787.3256" y2="341.5919" gradientTransform="matrix(-1 0 0 1 -1756.4941 -212)">
		<stop  offset="0" style="stop-color:#6D6E70;stop-opacity:0"/>
		<stop  offset="1" style="stop-color:#6D6E70;stop-opacity:0.7"/>
	</linearGradient>
	<path class="st27" d="M5.9,107.2l26.7-15.8l51.2,30L55,138.3c-0.7,0.4-1.6,0.4-2.3,0L6,111.3C4.4,110.4,4.4,108.1,5.9,107.2z"/>
	<g>
		<path class="st28" d="M2.8,9.2c0,3,0,91.6,0,91.6c0,2,1.1,3.8,2.8,4.8L54.7,134c0.2,0.1,0.3,0.1,0.5,0.2l0,0l0,0
			c0.2,0.1,0.4,0.1,0.6,0.1c1.7,0,4-1.2,5.3-1.9s2.3-2.5,2.3-4.5V33c0-2-1.1-3.9-2.9-4.9l-43.3-25c-1.3-0.7-2.8-0.9-4.2-0.6
			C11.2,2.5,2.8,6.4,2.8,9.2z"/>
		<g>
			<path class="st29" d="M53,36.7L10.5,12.1c-1.4-0.8-3.1,0.2-3.1,1.8v84.8c0,0.7,0.4,1.4,1,1.8l42.4,24.6c1.4,0.8,3.1-0.2,3.1-1.8
				V38.5C54,37.8,53.6,37.1,53,36.7z"/>
		</g>
		<path class="st30" d="M42.8,24.5c2.5,1.6,5,3.2,7.5,4.7l3.8,2.3c1.2,0.7,2,1.8,2.5,3.1c0.3,0.6,0.4,1.3,0.5,2c0,0.7,0,1.5,0,2.2
			c0,1.5,0,3,0.1,4.4c0.1,3,0.1,5.9,0.3,8.9h0.4c0.2-3,0.2-5.9,0.3-8.9c0-1.5,0-3,0.1-4.4c0-0.8,0-1.4,0-2.2s-0.2-1.6-0.5-2.3
			c-0.6-1.5-1.7-2.8-3-3.6c-1.3-0.8-2.6-1.5-3.9-2.2c-2.6-1.4-5.2-2.8-7.8-4.2L42.8,24.5z"/>
	</g>
	<g>
		<path class="st28" d="M41.4,26.6L21,14.8c-0.7-0.4-1.5,0.1-1.5,0.9v5.2c0,0.4,0.2,0.7,0.5,0.9l20.3,11.8c0.7,0.4,1.5-0.1,1.5-0.9
			v-5.2C41.8,27.1,41.7,26.7,41.4,26.6z"/>
	</g>
	<g>
		<g>
			<g id="QR_POP_2_2_">
				<g id="Rectangle_47_2_" transform="translate(46.5 80.5)" class="st31">
					<path class="st18" d="M-30.1-51.5L-1.8-35c0.9,0.5,1.7,1.9,1.7,2.9V0.7c0,1.1-0.8,1.5-1.7,1l-28.3-16.5
						c-0.9-0.5-1.7-1.9-1.7-2.9v-32.8C-31.7-51.6-31-52-30.1-51.5z"/>
					<path class="st32" d="M-30.1-51.4L-1.8-35c0.9,0.5,1.6,1.8,1.6,2.8V0.6c0,1-0.7,1.5-1.6,0.9L-30.1-15c-0.9-0.5-1.6-1.8-1.6-2.8
						v-32.8C-31.7-51.5-31-51.9-30.1-51.4z"/>
				</g>
				<g id="Group_806_2_" transform="translate(-296.766 -69.54)">
					<path id="Path_1059_2_" class="st33" d="M343.1,122.3v-3.9c0-1.4-1-3-2.1-3.7l-3.4-2"/>
					<path id="Path_1060_2_" class="st33" d="M317,100.7l-3.4-2c-1.2-0.7-2.1-0.1-2.1,1.2l0,0v3.9"/>
					<path id="Path_1061_2_" class="st33" d="M311.5,127.8v3.9c0,1.4,1,3,2.1,3.7l0,0l3.4,2"/>
					<path id="Path_1062_2_" class="st33" d="M337.7,149.4l3.4,2c1.2,0.7,2.1,0.1,2.1-1.2v-3.9"/>
				</g>
				<g id="Rectangle_46_2_" transform="translate(69.5 103.5)">
					<polygon class="st18" points="-52.2,-71 -25.9,-55.7 -25.9,-25.3 -52.2,-40.6 					"/>
					<polygon class="st32" points="-52.1,-70.9 -26,-55.7 -26,-25.4 -52.1,-40.6 					"/>
				</g>
				<g id="Group_2_Copy_2_" transform="translate(100.988 125.048)">
					<g id="Group_38_2_">
						<path id="Fill_1_2_" d="M-69.9-81.7l1.8,1.1v1.1L-69-80v1.1l-1.8-1.1v3.2l-1.8-1.1V-79l0.9,0.5v-3.2l1.8,1.1V-81.7z"/>
						<path id="Fill_2_2_" d="M-73.6-76.3l-6.5-3.8v-7.5l6.5,3.8V-76.3L-73.6-76.3z M-79.2-86v5.4l4.6,2.7v-5.4L-79.2-86z"/>
						<path id="Fill_3_2_" d="M-60.8-68.9l-6.5-3.8v-7.5l6.5,3.8L-60.8-68.9L-60.8-68.9z M-66.3-78.6v5.4l4.6,2.7v-5.4L-66.3-78.6z"
							/>
						<path id="Fill_4_2_" d="M-78.3-84.5l2.8,1.6v3.2l-2.8-1.6V-84.5z"/>
						<path id="Fill_5_2_" d="M-65.4-77l2.8,1.6v3.2l-2.8-1.6V-77z"/>
						<path id="Fill_6_2_" d="M-69.9-78.5L-69-78v1l-0.9-0.5V-78.5z"/>
						<path id="Fill_7_2_" d="M-69.1-76.9l0.9,0.5v4.3l-0.9-0.5v-2.2l-0.9-0.5v1.1l-0.9-0.5v-2.2l1.8,1.1V-76.9z"/>
						<path id="Fill_8_2_" d="M-72.8-77.1l0.9,0.5v1.1L-71-75v1.1l-0.9-0.5v2.2l0.9,0.5v-1.1l0.9,0.5v-1.1l0.9,0.5v3.3l-1.9-1.1v1.1
							l-0.9-0.5v-1.1l-0.9-0.5v-2.2l-1.9-1.1v-1l1.9,1.1L-72.8-77.1L-72.8-77.1z"/>
						<path id="Fill_9_2_" d="M-78.3-78l1.9,1.1v1l-1.9-1.1V-78z"/>
						<path id="Fill_10_2_" d="M-68.1-72.1l1.9,1.1v1.1l-1-0.6v1.1l-1-0.6L-68.1-72.1L-68.1-72.1z"/>
						<path id="Fill_11_2_" d="M-65.4-70.4l0.9,0.5v1l-0.9-0.5V-70.4z"/>
						<path id="Fill_12_2_" d="M-80.1-78l1.8,1.1v1.1l0.9,0.5v1.1l-0.9-0.5v1.1l-0.9-0.5v-2.1l-0.9-0.5V-78z"/>
						<path id="Fill_13_2_" d="M-76.4-75.8l1.9,1.1v1.1l-1-0.6v1.1l1,0.6v1.1l-1.9-1.1V-75.8z"/>
						<path id="Fill_14_2_" d="M-64.5-68.9l0.9,0.5v1.1l0.9,0.5v3.2l-0.9-0.5v-1.1l-1.9-1.1v1.1l-0.9-0.5v-2.2l1.9,1.1V-68.9z"/>
						<path id="Fill_15_2_" d="M-74.5-73.7l0.9,0.5v1l-0.9-0.5V-73.7z"/>
						<path id="Fill_16_2_" d="M-61.6-66.3l0.9,0.5v1l-0.9-0.5V-66.3z"/>
						<path id="Fill_17_2_" d="M-73.7-72.2l1,0.6v2.2l-1.9-1.1v-1.1l1,0.6L-73.7-72.2L-73.7-72.2z"/>
						<path id="Fill_18_2_" d="M-69.1-69.4l0.9,0.5v1l-0.9-0.5V-69.4z"/>
						<path id="Fill_19_2_" d="M-80.1-74.8l0.9,0.5v1l-0.9-0.5V-74.8z"/>
						<path id="Fill_20_2_" d="M-78.2-73.7l0.9,0.5v1l-0.9-0.5V-73.7z"/>
						<path id="Fill_21_2_" d="M-70.9-69.4l1.9,1.1v1.1l-0.9-0.5v2.1l-0.9-0.5v2.1l-0.9-0.5v-2.1l-0.9-0.5v-2.1l0.9,0.5v1.1l0.9,0.5
							L-70.9-69.4z"/>
						<path id="Fill_22_2_" d="M-68.1-67.8l0.9,0.5v1l-0.9-0.5V-67.8z"/>
						<path id="Fill_23_2_" d="M-61.6-64l0.9,0.5v1l-0.9-0.5V-64z"/>
						<path id="Fill_24_2_" d="M-69.1-67.3l0.9,0.5v2.2l-0.9-0.5V-67.3z"/>
						<path id="Fill_25_2_" d="M-64.4-64.5l0.9,0.5v2.2l-0.9-0.5V-64.5z"/>
						<path id="Fill_26_2_" d="M-62.6-63.5l0.9,0.5v1l-0.9-0.5V-63.5z"/>
						<path id="Fill_27_2_" d="M-66.3-64.6l0.9,0.5v1.1l0.9,0.5v2.2l2.8,1.6v1.1l-3.7-2.2v2.2l-0.9-0.5v-2.2l-0.9-0.5v1.1l-0.9-0.5
							v1.1l0.9,0.5v1.1l-4.6-2.7v-1.1l2.8,1.6v-2.2l0.9,0.5v-3.2l1.9,1.1v-1.1C-66.2-64.6-66.3-64.6-66.3-64.6z"/>
						<path id="Fill_28_2_" d="M-73.6-61.4l-6.5-3.8v-7.5l6.5,3.8V-61.4L-73.6-61.4z M-79.2-71.1v5.4l4.6,2.7v-5.4L-79.2-71.1z"/>
						<path id="Fill_29_2_" d="M-69.9-65.5L-69-65v1l-0.9-0.5V-65.5z"/>
						<path id="Fill_30_2_" d="M-63.5-61.8l1.9,1.1v1l-1.9-1.1V-61.8z"/>
						<path id="Fill_31_2_" d="M-78.3-69.4l2.8,1.6v3.2l-2.8-1.6V-69.4z"/>
						<path id="Fill_32_2_" d="M-61.6-59.7l0.9,0.5v1l-0.9-0.5V-59.7z"/>
						<path id="Fill_33_2_" d="M-72.8-65.2l1,0.6v1.1l1,0.6v1.1l-1.9-1.1L-72.8-65.2L-72.8-65.2z"/>
						<path id="Fill_34_2_" d="M-71-64l1.9,1.1v1L-71-63V-64z"/>
						<path id="Fill_35_2_" d="M-63.5-57.6l0.9,0.5v1l-0.9-0.5V-57.6z"/>
						<path id="Fill_36_2_" d="M-61.6-56.5l0.9,0.5v1l-0.9-0.5V-56.5z"/>
						<path id="Fill_37_2_" d="M-65.4-57.5l0.9,0.5v1l-0.9-0.5V-57.5z"/>
					</g>
				</g>
				<g class="st34">
					<path class="st18" d="M22.6,26.9l1,0.6v0.4l-0.7-0.4v0.3l0.6,0.4v0.4l-0.6-0.4v0.3l0.7,0.4v0.4l-1-0.6V26.9z"/>
					<path class="st18" d="M24.1,29v0.1l0.1,0.1h0.1c0,0,0,0,0-0.1c0,0,0,0,0-0.1l-0.1-0.1l-0.1-0.1L24,28.7c0-0.1-0.1-0.1-0.1-0.2
						s0-0.1,0-0.2v-0.1c0,0,0-0.1,0.1-0.1h0.1c0,0,0.1,0,0.2,0.1s0.2,0.2,0.3,0.3c0.1,0.1,0.1,0.2,0.1,0.3l-0.3-0.1v-0.1
						c0,0,0-0.1-0.1-0.1h-0.1c0,0,0,0,0,0.1c0,0,0,0,0,0.1l0.1,0.1l0.1,0.1l0.1,0.1c0,0.1,0.1,0.1,0.1,0.2s0,0.1,0,0.2v0.1
						c0,0,0,0.1-0.1,0.1h-0.1c-0.1,0-0.1,0-0.2-0.1s-0.2-0.2-0.3-0.3c-0.1-0.1-0.1-0.2-0.1-0.4L24.1,29z"/>
					<path class="st18" d="M25.3,28.9c0.1,0,0.1,0.1,0.1,0.1l0.1,0.1l0.1,0.1c0,0,0,0.1,0.1,0.1c0,0.1,0.1,0.2,0.1,0.3l-0.3-0.2
						v-0.1c0,0,0-0.1-0.1-0.1s-0.1-0.1-0.1-0.1c-0.1,0-0.1,0-0.2,0c0,0-0.1,0.1-0.1,0.2s0,0.2,0.1,0.3c0,0.1,0.1,0.1,0.2,0.2h0.1
						c0,0,0,0,0.1,0c0,0,0,0,0-0.1l0.3,0.2c0,0.1-0.1,0.1-0.1,0.2c0,0,0,0-0.1,0h-0.1h-0.1c0,0-0.1,0-0.1-0.1
						c-0.1,0-0.1-0.1-0.2-0.2s-0.1-0.1-0.2-0.2c0-0.1-0.1-0.2-0.1-0.3c0-0.1,0-0.2,0-0.3s0-0.2,0-0.2c0-0.1,0.1-0.1,0.1-0.1
						s0.1,0,0.2,0C25.2,28.8,25.3,28.8,25.3,28.9z"/>
					<path class="st18" d="M26.4,29.5c0.1,0,0.1,0.1,0.2,0.1c0.1,0.1,0.1,0.1,0.1,0.2s0.1,0.1,0.1,0.2s0,0.1,0,0.2V31l-0.2-0.1v-0.1
						h-0.1h-0.1c0,0-0.1,0-0.1-0.1c-0.1-0.1-0.2-0.1-0.3-0.2c0-0.2,0-0.3,0-0.4s0-0.1,0-0.1l0.1-0.1c0,0,0.1,0,0.2,0
						s0.2,0.1,0.3,0.1c0-0.1,0-0.1,0-0.2l-0.1-0.1h-0.1l0,0l0,0H26c0-0.1,0-0.1,0-0.1l0.1-0.1h0.1C26.3,29.5,26.4,29.5,26.4,29.5z
						 M26.4,30.5c0.1,0,0.1,0,0.1,0l0.1-0.1v-0.1c-0.1,0-0.1-0.1-0.2-0.1h-0.1l0,0c0,0,0,0,0,0.1C26.3,30.3,26.3,30.3,26.4,30.5
						C26.3,30.4,26.3,30.4,26.4,30.5z"/>
					<path class="st18" d="M27.7,30.2c0.1,0,0.1,0.1,0.2,0.1c0.1,0.1,0.1,0.1,0.1,0.2s0.1,0.1,0.1,0.2s0,0.1,0,0.2v0.7l-0.3-0.2
						v-0.6c0-0.1,0-0.1-0.1-0.2c0-0.1-0.1-0.1-0.1-0.1c-0.1,0-0.1,0-0.1,0s-0.1,0.1-0.1,0.2v0.6l-0.3-0.2v-1.2l0.2,0.1v0.1h0.1h0.1
						C27.6,30.2,27.6,30.2,27.7,30.2z"/>
					<path class="st18" d="M29.2,32c0,0,0,0.1-0.1,0.1c0,0-0.1,0-0.1,0.1h-0.1c-0.1,0-0.1,0-0.2-0.1c-0.1,0-0.1-0.1-0.2-0.2
						s-0.1-0.1-0.2-0.2c0-0.1-0.1-0.2-0.1-0.3c0-0.1,0-0.2,0-0.3c0-0.1,0-0.2,0-0.2c0-0.1,0.1-0.1,0.1-0.1s0.1,0,0.2,0
						s0.1,0,0.2,0.1c0.1,0,0.1,0.1,0.2,0.2s0.1,0.1,0.2,0.2c0,0.1,0.1,0.2,0.1,0.3c0,0.1,0,0.2,0,0.3l0,0l0,0l0,0l-0.7-0.4
						c0,0.1,0,0.1,0.1,0.2c0,0.1,0.1,0.1,0.1,0.1h0.1l0,0l0,0L29.2,32z M28.8,31.2c-0.1,0-0.1,0-0.1,0s-0.1,0-0.1,0.1l0.4,0.2
						c0-0.1,0-0.1-0.1-0.2C28.9,31.3,28.8,31.2,28.8,31.2z"/>
					<path class="st18" d="M29.9,31.5c0.1,0,0.1,0.1,0.2,0.1c0.1,0.1,0.1,0.1,0.1,0.2s0.1,0.1,0.1,0.2s0,0.1,0,0.2V33l-0.2-0.1v-0.1
						H30h-0.1c0,0-0.1,0-0.1-0.1c-0.1-0.1-0.2-0.1-0.3-0.2c-0.1-0.1-0.1-0.2-0.1-0.3s0-0.1,0-0.1l0.1-0.1c0,0,0.1,0,0.2,0
						s0.2,0.1,0.3,0.1c0-0.1,0-0.1,0-0.2l-0.1-0.1h-0.1l0,0l0,0l-0.3-0.2c0-0.1,0-0.1,0-0.1l0.1-0.1h0.1
						C29.8,31.5,29.8,31.5,29.9,31.5z M29.8,32.5c0.1,0,0.1,0,0.1,0l0.1-0.1v-0.1c-0.1,0-0.1-0.1-0.2-0.1h-0.1l0,0c0,0,0,0,0,0.1
						C29.7,32.3,29.7,32.3,29.8,32.5C29.8,32.4,29.8,32.4,29.8,32.5z"/>
					<path class="st18" d="M31.1,32.2L31.1,32.2L31.1,32.2C31.1,32.3,31.1,32.3,31.1,32.2l0.1,0.4l0,0l0,0l0,0c-0.1,0-0.1,0-0.1,0
						S31,32.7,31,32.8v0.6l-0.3-0.2V32l0.2,0.1v0.2C30.9,32.3,30.9,32.3,31.1,32.2C31,32.3,31,32.3,31.1,32.2
						C31,32.2,31,32.2,31.1,32.2z"/>
					<path class="st18" d="M32.5,33.9c0.1,0.1,0.2,0.1,0.2,0c0.1,0,0.1-0.1,0.1-0.1l0.3,0.2c0,0.1,0,0.1-0.1,0.2l-0.1,0.1
						c-0.1,0-0.1,0-0.2,0c-0.1,0-0.2,0-0.2-0.1c-0.1-0.1-0.2-0.1-0.3-0.2c-0.1-0.1-0.2-0.2-0.2-0.3s-0.1-0.2-0.1-0.4
						c0-0.1-0.1-0.2-0.1-0.4s0-0.2,0.1-0.3c0-0.1,0.1-0.1,0.1-0.2s0.1-0.1,0.2,0c0.1,0,0.2,0,0.3,0.1c0.1,0,0.2,0.1,0.2,0.2
						c0.1,0.1,0.1,0.2,0.2,0.2C33,33,33,33.1,33,33.2s0.1,0.2,0.1,0.3l-0.3-0.2v-0.1c0,0,0-0.1-0.1-0.1S32.6,33,32.6,33l-0.1-0.1
						c-0.1,0-0.1,0-0.1,0h-0.1L32.2,33c0,0,0,0.1,0,0.2s0,0.1,0,0.2c0,0.1,0,0.1,0.1,0.2C32.3,33.7,32.4,33.7,32.5,33.9
						C32.4,33.8,32.4,33.9,32.5,33.9z"/>
					<path class="st18" d="M33.2,34.1c0-0.1,0-0.2,0-0.2c0-0.1,0.1-0.1,0.1-0.1s0.1,0,0.2,0c0.1,0,0.1,0,0.2,0.1
						c0.1,0,0.1,0.1,0.2,0.2c0.1,0.1,0.1,0.1,0.2,0.2c0,0.1,0.1,0.2,0.1,0.3s0,0.2,0,0.3s0,0.2,0,0.2c0,0.1-0.1,0.1-0.1,0.1
						s-0.1,0-0.2,0c-0.1,0-0.1,0-0.2-0.1c-0.1,0-0.1-0.1-0.2-0.2c-0.1-0.1-0.1-0.1-0.2-0.2c0-0.1-0.1-0.2-0.1-0.3
						S33.2,34.2,33.2,34.1z M34,34.5c0-0.1,0-0.2-0.1-0.3c0-0.1-0.1-0.1-0.2-0.2c-0.1,0-0.1,0-0.2,0s-0.1,0.1-0.1,0.2s0,0.2,0.1,0.3
						c0,0.1,0.1,0.1,0.2,0.2c0.1,0,0.1,0,0.2,0C33.9,34.7,34,34.6,34,34.5z M33.8,33.3l0.3,0.2l-0.2,0.2l-0.2-0.1L33.8,33.3z"/>
					<path class="st18" d="M34.9,35.7c-0.1,0-0.1-0.1-0.2-0.2c-0.1-0.1-0.1-0.1-0.2-0.2c0-0.1-0.1-0.2-0.1-0.3s0-0.2,0-0.3
						s0-0.2,0-0.2c0-0.1,0.1-0.1,0.1-0.1s0.1,0,0.2,0c0.1,0,0.1,0,0.2,0.1c0,0,0.1,0,0.1,0.1l0.1,0.1c0,0,0,0.1,0.1,0.1v-0.5
						l0.3,0.2V36l-0.2-0.1v-0.1c0,0,0,0-0.1,0h-0.1C35,35.7,34.9,35.7,34.9,35.7z M34.7,34.9c0,0.1,0,0.2,0.1,0.2
						c0,0.1,0.1,0.1,0.2,0.2c0.1,0,0.1,0,0.2,0c0,0,0.1-0.1,0.1-0.2c0-0.1,0-0.2-0.1-0.2c0-0.1-0.1-0.1-0.2-0.2c-0.1,0-0.1,0-0.2,0
						C34.7,34.8,34.7,34.9,34.7,34.9z"/>
					<path class="st18" d="M35.7,34.6C35.7,34.5,35.7,34.5,35.7,34.6L35.7,34.6h0.2c0,0.1,0.1,0.1,0.1,0.2c0,0.1,0,0.1-0.1,0.1h-0.1
						l-0.1-0.1C35.7,34.7,35.7,34.6,35.7,34.6z M36,36.3l-0.3-0.2v-1.2l0.3,0.2V36.3z"/>
					<path class="st18" d="M36.7,35.5L36.7,35.5l0.2,0.2l0.1,0.1v-0.1l0.2,0.1v1.1c0,0.1,0,0.1,0,0.2c0,0.1-0.1,0.1-0.1,0.1
						s-0.1,0-0.2,0c-0.1,0-0.1,0-0.2-0.1c-0.1-0.1-0.2-0.1-0.2-0.2c-0.1-0.1-0.1-0.2-0.1-0.2c0-0.1-0.1-0.2-0.1-0.3l0.3,0.2v0.1
						c0,0,0,0,0.1,0.1c0,0,0.1,0,0.1,0.1c0.1,0,0.1,0,0.2,0l0.1-0.1v-0.1c0,0,0,0-0.1,0c0,0,0,0-0.1,0c0,0-0.1,0-0.1-0.1
						c-0.1,0-0.1-0.1-0.2-0.2c-0.1-0.1-0.1-0.1-0.2-0.2c0-0.1-0.1-0.2-0.1-0.2c0-0.1,0-0.2,0-0.2s0-0.1,0-0.2c0-0.1,0.1-0.1,0.1-0.1
						S36.5,35.5,36.7,35.5C36.5,35.4,36.6,35.4,36.7,35.5z M36.5,35.9c0,0.1,0,0.1,0.1,0.2c0,0.1,0.1,0.1,0.2,0.2c0.1,0,0.1,0,0.2,0
						l0.1-0.1c0-0.1,0-0.1-0.1-0.2c0-0.1-0.1-0.1-0.2-0.2C36.7,35.8,36.7,35.8,36.5,35.9C36.5,35.8,36.5,35.9,36.5,35.9z"/>
					<path class="st18" d="M37.4,36.5c0-0.1,0-0.2,0-0.2c0-0.1,0.1-0.1,0.1-0.1s0.1,0,0.2,0c0.1,0,0.1,0,0.2,0.1
						c0.1,0,0.1,0.1,0.2,0.2c0.1,0.1,0.1,0.1,0.2,0.2c0,0.1,0.1,0.2,0.1,0.3s0,0.2,0,0.3s0,0.2,0,0.2c0,0.1-0.1,0.1-0.1,0.1
						s-0.1,0-0.2,0c-0.1,0-0.1,0-0.2-0.1c-0.1,0-0.1-0.1-0.2-0.2c-0.1-0.1-0.1-0.1-0.2-0.2c0-0.1-0.1-0.2-0.1-0.3
						S37.4,36.6,37.4,36.5z M38.1,36.9c0-0.1,0-0.2-0.1-0.3c0-0.1-0.1-0.1-0.2-0.2c-0.1,0-0.1,0-0.2,0c0,0-0.1,0.1-0.1,0.2
						c0,0.1,0,0.2,0.1,0.3c0,0.1,0.1,0.1,0.2,0.2c0.1,0,0.1,0,0.2,0C38.1,37.1,38.1,37,38.1,36.9z"/>
				</g>
				<g class="st34">
					<path class="st35" d="M18.4,72.7l-0.3-0.2V71l0.3,0.2V72.7z"/>
					<path class="st35" d="M19.1,72.1c0.1,0,0.1,0.1,0.2,0.1c0,0,0.1,0.1,0.1,0.2s0.1,0.1,0.1,0.2s0,0.1,0,0.2v0.6l-0.3-0.2v-0.6
						c0-0.1,0-0.1,0-0.2s-0.1-0.1-0.1-0.1c-0.1,0-0.1,0-0.1,0v0.1V73l-0.3-0.2v-1.1l0.2,0.1v0.1c0,0,0,0,0.1,0h0.1
						C19,72,19.1,72,19.1,72.1z"/>
					<path class="st35" d="M20.1,72.6l0.1,0.1l0.1,0.1c0,0,0,0.1,0.1,0.1v-0.1l0.2,0.1v1c0,0.1,0,0.1,0,0.2l-0.1,0.1h-0.1
						c-0.1,0-0.1,0-0.2-0.1c-0.2,0-0.2-0.1-0.3-0.2s-0.1-0.1-0.1-0.2s-0.1-0.2-0.1-0.2l0.3,0.1v0.1c0,0,0,0,0,0.1c0,0,0,0,0.1,0.1
						c0.1,0,0.1,0,0.1,0l0.1-0.1v-0.1c0,0,0,0-0.1,0c0,0,0,0-0.1,0H20c-0.1,0-0.1-0.1-0.2-0.1c-0.1-0.1-0.1-0.1-0.1-0.2
						s-0.1-0.1-0.1-0.2s0-0.1,0-0.2s0-0.1,0-0.2s0.1-0.1,0.1-0.1h0.1C20,72.6,20,72.6,20.1,72.6z M19.9,73c0,0.1,0,0.1,0.1,0.2
						c0,0.1,0.1,0.1,0.1,0.1c0.1,0,0.1,0,0.1,0l0.1-0.1c0-0.1,0-0.1-0.1-0.2c0-0.1-0.1-0.1-0.1-0.1c-0.1,0-0.1,0-0.1,0
						C19.9,72.9,19.9,73,19.9,73z"/>
					<path class="st35" d="M21.2,73.3C21.3,73.3,21.3,73.3,21.2,73.3C21.3,73.3,21.3,73.3,21.2,73.3C21.3,73.3,21.3,73.3,21.2,73.3
						l0.1,0.4l0,0l0,0l0,0c-0.1,0-0.1,0-0.1,0v0.1v0.5l-0.3-0.2V73l0.2,0.1v0.1c0,0,0,0,0.1,0C21.1,73.3,21.1,73.3,21.2,73.3
						L21.2,73.3z"/>
					<path class="st35" d="M22.3,74.7C22.3,74.7,22.3,74.8,22.3,74.7c-0.1,0.1-0.1,0.1-0.1,0.2h-0.1c0,0-0.1,0-0.2-0.1
						c-0.1,0-0.1-0.1-0.2-0.1c-0.1-0.1-0.1-0.1-0.1-0.2s-0.1-0.2-0.1-0.2c0-0.1,0-0.2,0-0.2c0-0.1,0-0.1,0-0.2s0.1-0.1,0.1-0.1h0.1
						c0.1,0,0.1,0,0.2,0.1c0.1,0,0.1,0.1,0.2,0.1c0.1,0.1,0.1,0.1,0.1,0.2s0.1,0.2,0.1,0.2C22.3,74.5,22.3,74.6,22.3,74.7L22.3,74.7
						L22.3,74.7L22.3,74.7l-0.6-0.4c0,0,0,0.1,0.1,0.1c0,0.1,0.1,0.1,0.1,0.1s0,0,0.1,0l0,0l0,0L22.3,74.7z M21.9,73.9
						c-0.1,0-0.1,0-0.1,0s-0.1,0-0.1,0.1l0.4,0.2C22.1,74.1,22.1,74.1,21.9,73.9C22,74,21.9,74,21.9,73.9z"/>
					<path class="st35" d="M22.7,74.9L22.7,74.9c0,0.1,0,0.2,0.1,0.2h0.1l0,0c0,0,0,0,0-0.1l-0.1-0.1H22.7l-0.1-0.2
						c0,0-0.1-0.1-0.1-0.2s0-0.1,0-0.2v-0.1c0,0,0-0.1,0.1-0.1h0.1c0,0,0.1,0,0.1,0.1c0.1,0.1,0.2,0.2,0.3,0.3
						c0.1,0.1,0.1,0.2,0.1,0.3L23,74.6v-0.1c0,0,0-0.1-0.1-0.1h-0.1l0,0c0,0,0,0,0,0.1l0.1,0.1l0.1,0.1l0.1,0.1c0,0,0.1,0.1,0.1,0.2
						s0,0.1,0,0.2v0.1c0,0,0,0.1-0.1,0.1H23c0,0-0.1,0-0.2-0.1s-0.2-0.2-0.3-0.3c-0.1-0.1-0.1-0.2-0.1-0.3L22.7,74.9z"/>
					<path class="st35" d="M23.8,74.8c0.1,0,0.1,0.1,0.2,0.1c0,0,0.1,0.1,0.1,0.2s0.1,0.1,0.1,0.2s0,0.1,0,0.2v0.7L24,76v-0.1
						c0,0,0,0-0.1,0h-0.1h-0.1c-0.1-0.1-0.2-0.1-0.2-0.2c-0.1-0.1-0.1-0.2-0.1-0.3c0-0.1,0-0.1,0-0.1s0-0.1,0.1-0.1c0,0,0.1,0,0.2,0
						s0.2,0.1,0.3,0.1c0-0.1,0-0.1,0-0.1l-0.1-0.1c0,0,0,0-0.1,0l0,0l0,0l-0.3-0.2v-0.1c0,0,0-0.1,0.1-0.1h0.1
						C23.7,74.7,23.7,74.7,23.8,74.8z M23.7,75.6c0.1,0,0.1,0,0.1,0v-0.1l0,0c-0.1,0-0.1-0.1-0.1-0.1h-0.1l0,0c0,0,0,0,0,0.1
						C23.6,75.5,23.6,75.5,23.7,75.6L23.7,75.6z"/>
					<path class="st35" d="M24.8,75.4C24.9,75.4,24.9,75.4,24.8,75.4C24.9,75.4,24.9,75.4,24.8,75.4C24.9,75.4,24.9,75.4,24.8,75.4
						l0.1,0.4l0,0l0,0l0,0c-0.1,0-0.1,0-0.1,0v0.1v0.5l-0.3-0.2v-1.1l0.2,0.1L24.8,75.4C24.7,75.3,24.7,75.3,24.8,75.4
						C24.7,75.4,24.7,75.3,24.8,75.4L24.8,75.4z"/>
					<path class="st35" d="M26,76l0.1,0.1l0.1,0.1l0.1,0.1c0,0,0,0.1,0.1,0.1c0,0.1,0.1,0.2,0.1,0.3l-0.3-0.1v-0.1
						c0,0,0-0.1-0.1-0.1c0,0,0-0.1-0.1-0.1s-0.1,0-0.1,0s-0.1,0.1-0.1,0.2s0,0.2,0.1,0.2c0,0.1,0.1,0.1,0.1,0.2h0.1c0,0,0,0,0.1,0
						c0,0,0,0,0-0.1l0.3,0.2c0,0.1,0,0.1-0.1,0.2c0,0,0,0-0.1,0c0,0,0,0-0.1,0h-0.1c0,0-0.1,0-0.1-0.1c-0.1,0-0.1-0.1-0.2-0.2
						s-0.1-0.1-0.1-0.2s-0.1-0.2-0.1-0.2c0-0.1,0-0.2,0-0.2c0-0.1,0-0.1,0-0.2s0.1-0.1,0.1-0.1h0.1C25.8,76,25.9,76,26,76z"/>
					<path class="st35" d="M26.5,76.9c0-0.1,0-0.1,0-0.2s0.1-0.1,0.1-0.1s0.1,0,0.2,0s0.1,0,0.2,0.1c0.1,0,0.1,0.1,0.2,0.2
						s0.1,0.1,0.1,0.2s0.1,0.2,0.1,0.2c0,0.1,0,0.2,0,0.2c0,0.1,0,0.1,0,0.2s-0.1,0.1-0.1,0.1h-0.1c-0.1,0-0.1,0-0.2-0.1
						c-0.1,0-0.1-0.1-0.2-0.2s-0.1-0.1-0.2-0.2c0-0.1-0.1-0.2-0.1-0.2S26.5,77,26.5,76.9z M27.2,77.3c0-0.1,0-0.2-0.1-0.2
						c0-0.1-0.1-0.1-0.1-0.2c-0.1,0-0.1,0-0.1,0s-0.1,0.1-0.1,0.2s0,0.2,0.1,0.2c0,0.1,0.1,0.1,0.1,0.2c0.1,0,0.1,0,0.1,0
						C27.2,77.4,27.2,77.4,27.2,77.3z M27,76.2l0.3,0.2l-0.2,0.2l-0.2-0.1L27,76.2z"/>
					<path class="st35" d="M28,78.3c-0.1,0-0.1-0.1-0.2-0.1c-0.1-0.1-0.1-0.1-0.1-0.2s-0.1-0.1-0.1-0.2s0-0.2,0-0.2s0-0.1,0-0.2
						s0.1-0.1,0.1-0.1h0.1c0,0,0.1,0,0.2,0.1c0,0,0.1,0,0.1,0.1l0.1,0.1c0,0,0,0.1,0.1,0.1V77l0.3,0.2v1.5l-0.2-0.1v-0.1
						c0,0,0,0-0.1,0h-0.1C28.1,78.4,28.1,78.4,28,78.3z M27.9,77.7c0,0.1,0,0.1,0.1,0.2c0,0.1,0.1,0.1,0.1,0.2c0.1,0,0.1,0,0.1,0
						s0.1-0.1,0.1-0.2s0-0.1-0.1-0.2c0-0.1-0.1-0.1-0.1-0.2c-0.1,0-0.1,0-0.1,0C27.9,77.6,27.9,77.6,27.9,77.7z"/>
					<path class="st35" d="M28.7,77.4C28.7,77.3,28.8,77.3,28.7,77.4c0.1-0.1,0.1-0.1,0.2-0.1l0.1,0.1c0,0.1,0,0.1,0,0.1v0.1h-0.1
						l-0.1-0.1C28.8,77.5,28.7,77.4,28.7,77.4z M29,78.9l-0.3-0.2v-1.1l0.3,0.2V78.9z"/>
					<path class="st35" d="M29.6,78.2l0.1,0.1l0.1,0.1c0,0,0,0.1,0.1,0.1v-0.1l0.2,0.1v1c0,0.1,0,0.1,0,0.2L30,79.8h-0.1
						c-0.1,0-0.1,0-0.2-0.1s-0.2-0.1-0.2-0.2c-0.1-0.1-0.1-0.1-0.1-0.2s-0.1-0.2-0.1-0.2l0.3,0.1v0.1c0,0,0,0,0,0.1c0,0,0,0,0.1,0.1
						c0.1,0,0.1,0,0.1,0l0.1-0.1v-0.1c0,0,0,0-0.1,0c0,0,0,0-0.1,0h-0.1c-0.1,0-0.1-0.1-0.2-0.1c-0.1-0.1-0.1-0.1-0.1-0.2
						s-0.1-0.1-0.1-0.2s0-0.2,0-0.2c0-0.1,0-0.1,0-0.2s0.1-0.1,0.1-0.1h0.1C29.5,78.1,29.6,78.1,29.6,78.2z M29.5,78.6
						c0,0.1,0,0.1,0.1,0.2c0,0.1,0.1,0.1,0.1,0.1c0.1,0,0.1,0,0.1,0l0.1-0.1c0,0,0-0.1-0.1-0.2c0-0.1-0.1-0.1-0.1-0.1
						c-0.1,0-0.1,0-0.1,0C29.5,78.5,29.5,78.5,29.5,78.6z"/>
					<path class="st35" d="M30.3,79.1c0-0.1,0-0.1,0-0.2s0.1-0.1,0.1-0.1h0.1c0,0,0.1,0,0.2,0.1c0.1,0,0.1,0.1,0.2,0.2
						s0.1,0.1,0.2,0.2c0,0.1,0.1,0.2,0.1,0.2c0,0.1,0,0.2,0,0.2c0,0.1,0,0.1,0,0.2S31.1,80,31.1,80s-0.1,0-0.2,0s-0.1,0-0.2-0.1
						c-0.1,0-0.1-0.1-0.2-0.2s-0.1-0.1-0.1-0.2s-0.1-0.2-0.1-0.2C30.3,79.3,30.3,79.2,30.3,79.1z M31,79.5c0-0.1,0-0.2-0.1-0.2
						c0-0.1-0.1-0.1-0.1-0.2c-0.1,0-0.1,0-0.1,0s-0.1,0.1-0.1,0.2s0,0.2,0.1,0.2c0,0.1,0.1,0.1,0.1,0.2s0.1,0,0.1,0
						C30.9,79.6,31,79.6,31,79.5z"/>
					<path class="st35" d="M32.3,79.7L32.3,79.7l0.2,0.2c0,0,0,0.1,0.1,0.1c0,0,0,0,0.1,0h0.1h0.1c0.1,0.1,0.2,0.1,0.2,0.3
						s0.1,0.2,0.1,0.4v0.6l-0.3-0.2v-0.6c0-0.1,0-0.1,0-0.2l-0.1-0.1h-0.1v0.1V81l-0.3-0.2v-0.6c0-0.1,0-0.1,0-0.2l-0.1-0.1h-0.1V80
						v0.6l-0.3-0.2v-1.1l0.2,0.1v0.1c0,0,0,0,0.1,0C32.2,79.7,32.2,79.7,32.3,79.7L32.3,79.7z"/>
					<path class="st35" d="M33.8,80.6c0.1,0,0.1,0.1,0.2,0.1c0,0,0.1,0.1,0.1,0.2s0.1,0.1,0.1,0.2s0,0.1,0,0.2V82L34,81.8v-0.1
						c0,0,0,0-0.1,0h-0.1h-0.1c-0.1-0.1-0.2-0.1-0.2-0.2c-0.1-0.1-0.1-0.2-0.1-0.3c0-0.1,0-0.1,0-0.1s0-0.1,0.1-0.1c0,0,0.1,0,0.2,0
						c0.1,0,0.2,0.1,0.3,0.1c0-0.1,0-0.1,0-0.1l-0.1-0.1c0,0,0,0-0.1,0l0,0l0,0l-0.3-0.2v-0.1c0,0,0-0.1,0.1-0.1L33.8,80.6
						C33.7,80.5,33.7,80.6,33.8,80.6z M33.7,81.4C33.8,81.4,33.8,81.4,33.7,81.4L33.7,81.4L33.7,81.4c0-0.1,0-0.2,0-0.2h-0.1l0,0
						l0,0C33.6,81.3,33.6,81.3,33.7,81.4L33.7,81.4z"/>
					<path class="st35" d="M34.9,81.2c0.1,0,0.1,0.1,0.2,0.1c0,0,0.1,0.1,0.1,0.2s0.1,0.1,0.1,0.2s0,0.1,0,0.2v0.6L35,82.4v-0.6
						c0-0.1,0-0.1,0-0.2s-0.1-0.1-0.1-0.1c-0.1,0-0.1,0-0.1,0v0.1v0.6L34.4,82v-1.1l0.2,0.1v0.1c0,0,0,0,0.1,0h0.1
						C34.8,81.2,34.9,81.2,34.9,81.2z"/>
					<path class="st35" d="M35.8,82.9c-0.1,0-0.1-0.1-0.2-0.1c0,0-0.1-0.1-0.1-0.2s-0.1-0.1-0.1-0.2s0-0.1,0-0.2v-0.6l0.3,0.2v0.6
						c0,0.1,0,0.1,0,0.2s0.1,0.1,0.1,0.1c0.1,0,0.1,0,0.1,0v-0.1V82l0.3,0.2v1.1L36.1,83v-0.1c0,0,0,0-0.1,0h-0.1
						C35.9,82.9,35.9,82.9,35.8,82.9z"/>
					<path class="st35" d="M36.9,82.4c0.1,0,0.1,0.1,0.2,0.1c0,0,0.1,0.1,0.1,0.2s0.1,0.1,0.1,0.2s0,0.1,0,0.2v0.7l-0.2-0.1v-0.1
						c0,0,0,0-0.1,0h-0.1h-0.1c-0.1-0.1-0.2-0.1-0.2-0.2c-0.1-0.1-0.1-0.2-0.1-0.3c0-0.1,0-0.1,0-0.1s0-0.1,0.1-0.1c0,0,0.1,0,0.2,0
						c0.1,0,0.2,0.1,0.3,0.1c0-0.1,0-0.1,0-0.1L37,82.8c0,0,0,0-0.1,0l0,0l0,0l-0.3-0.2v-0.1c0,0,0-0.1,0.1-0.1L36.9,82.4
						C36.8,82.4,36.9,82.4,36.9,82.4z M36.9,83.3C37,83.3,37,83.3,36.9,83.3L36.9,83.3L36.9,83.3c0-0.1,0-0.2,0-0.2h-0.1l0,0l0,0
						C36.8,83.1,36.8,83.1,36.9,83.3C36.8,83.2,36.9,83.2,36.9,83.3z"/>
					<path class="st35" d="M37.8,84l-0.3-0.2v-1.5l0.3,0.2V84z"/>
					<path class="st35" d="M38.5,83.3L38.5,83.3l0.2,0.2c0,0,0,0.1,0.1,0.1c0,0,0,0,0.1,0H39h0.1c0.1,0.1,0.2,0.1,0.2,0.3
						c0.1,0.1,0.1,0.2,0.1,0.4v0.6l-0.3-0.2v-0.6c0-0.1,0-0.1,0-0.2L39,83.8h-0.1v0.1v0.6l-0.3-0.2v-0.6c0-0.1,0-0.1,0-0.2l-0.1-0.1
						h-0.1v0.1v0.6H38V83l0.2,0.1v0.1c0,0,0,0,0.1,0C38.3,83.3,38.4,83.3,38.5,83.3C38.4,83.3,38.4,83.3,38.5,83.3z"/>
					<path class="st35" d="M40.4,85.2C40.4,85.2,40.4,85.3,40.4,85.2C40.3,85.3,40.3,85.3,40.4,85.2l-0.2,0.1c0,0-0.1,0-0.2-0.1
						c-0.1,0-0.1-0.1-0.2-0.1c-0.1-0.1-0.1-0.1-0.1-0.2s-0.1-0.2-0.1-0.2c0-0.1,0-0.2,0-0.2s0-0.1,0-0.2s0.1-0.1,0.1-0.1h0.1
						c0.1,0,0.1,0,0.2,0.1c0.1,0,0.1,0.1,0.2,0.1c0.1,0.1,0.1,0.1,0.1,0.2s0.1,0.2,0.1,0.2C40.4,84.9,40.4,85,40.4,85.2L40.4,85.2
						L40.4,85.2L40.4,85.2l-0.6-0.5c0,0,0,0.1,0.1,0.2C39.9,85,40,85,40,85s0,0,0.1,0l0,0l0,0L40.4,85.2z M40,84.5
						C39.9,84.5,39.9,84.5,40,84.5c-0.1,0-0.2,0-0.2,0.1l0.4,0.2c0-0.1,0-0.1-0.1-0.2C40.1,84.5,40,84.5,40,84.5z"/>
					<path class="st35" d="M41.1,84.8c0.1,0,0.1,0.1,0.2,0.1c0,0,0.1,0.1,0.1,0.2s0.1,0.1,0.1,0.2s0,0.1,0,0.2v0.6L41.2,86v-0.6
						c0-0.1,0-0.1,0-0.2s-0.1-0.1-0.1-0.1c-0.1,0-0.1,0-0.1,0v0.1v0.6l-0.3-0.2v-1.1l0.2,0.1v0.1C40.9,84.7,40.9,84.7,41.1,84.8
						L41.1,84.8C41,84.8,41.1,84.8,41.1,84.8z"/>
					<path class="st35" d="M41.7,85.5L41.7,85.5l-0.1-0.4h0.1c0.1,0,0.1,0,0.1-0.1l0,0l0.2,0.1v0.3l0.2,0.1v0.3L42,85.7V86v0.1
						l0.1,0.1l0,0l0,0l0,0v0.3l0,0H42c-0.1-0.1-0.2-0.1-0.2-0.2c-0.1-0.1-0.1-0.2-0.1-0.3V85.5z"/>
					<path class="st35" d="M43.2,86.9L43.2,86.9C43.2,87,43.1,87,43.2,86.9L43,87c0,0-0.1,0-0.2-0.1c-0.1,0-0.1-0.1-0.2-0.1
						c-0.1-0.1-0.1-0.1-0.1-0.2s-0.1-0.2-0.1-0.2c0-0.1,0-0.2,0-0.2c0-0.1,0-0.1,0-0.2s0.1-0.1,0.1-0.1h0.1c0.1,0,0.1,0,0.2,0.1
						c0.1,0,0.1,0.1,0.2,0.1c0.1,0.1,0.1,0.1,0.1,0.2s0.1,0.2,0.1,0.2C43.2,86.6,43.2,86.7,43.2,86.9L43.2,86.9L43.2,86.9L43.2,86.9
						l-0.6-0.5c0,0,0,0.1,0.1,0.2c0,0.1,0.1,0.1,0.1,0.1s0,0,0.1,0l0,0l0,0L43.2,86.9z M42.8,86.1C42.7,86.1,42.7,86.1,42.8,86.1
						c-0.1,0-0.2,0-0.2,0.1l0.4,0.2c0-0.1,0-0.1-0.1-0.2C42.9,86.2,42.9,86.1,42.8,86.1z"/>
				</g>
				<g transform="matrix(1, 0, 0, 1, 0, 0)">
					<polygon id="Rectangle-2_3_" class="st18" points="10.5,72.6 50.7,96 50.7,123.9 10.5,100.5 					"/>
				</g>
				<g class="st34">
					<path class="st36" d="M13.8,78.1v1.1l-0.2-0.1l-0.4-0.9v0.7L13,78.8v-1.1l0.2,0.1l0.4,0.9V78L13.8,78.1z"/>
					<path class="st36" d="M14.2,79.5l-0.1-0.1L14,79.3c0,0,0-0.1-0.1-0.1c0-0.1,0-0.1,0-0.2v-0.5l0.2,0.1V79c0,0.1,0,0.1,0,0.2
						l0.1,0.1h0.1v-0.1v-0.4l0.2,0.1v0.8l-0.2-0.1L14.2,79.5C14.3,79.5,14.3,79.5,14.2,79.5C14.4,79.6,14.3,79.6,14.2,79.5
						C14.3,79.6,14.3,79.6,14.2,79.5z M14.3,78.4l0.2,0.1l-0.1,0.2l-0.2-0.1L14.3,78.4z"/>
					<path class="st36" d="M15.2,79.2C15.2,79.2,15.2,79.3,15.2,79.2c0.1,0.1,0.1,0.1,0.2,0.1v0.1c0,0,0,0,0.1,0c0,0,0,0,0.1,0h0.1
						c0.1,0,0.1,0.1,0.2,0.2c0,0.1,0.1,0.2,0.1,0.3v0.5l-0.2-0.1v-0.5v-0.1c0,0,0-0.1-0.1-0.1h-0.1c0,0,0,0,0,0.1v0.5l-0.2-0.1v-0.5
						v-0.1c0,0,0-0.1-0.1-0.1h-0.1c0,0,0,0,0,0.1V80L15,79.9V79L15.2,79.2L15.2,79.2L15.2,79.2C15,79.2,15.1,79.2,15.2,79.2
						C15.1,79.2,15.1,79.2,15.2,79.2z"/>
					<path class="st36" d="M16.6,80.7L16.6,80.7c-0.1,0.1-0.1,0.1-0.1,0.1h-0.1c0,0-0.1,0-0.1-0.1l-0.1-0.1c0,0-0.1-0.1-0.1-0.2
						S16,80.3,16,80.2s0-0.1,0-0.2s0-0.1,0-0.2c0,0,0-0.1,0.1-0.1h0.1h0.1l0.1,0.1c0,0,0.1,0.1,0.1,0.2s0.1,0.1,0.1,0.2s0,0.1,0,0.2
						l0,0l0,0C16.7,80.6,16.7,80.6,16.6,80.7l-0.5-0.4c0,0,0,0.1,0.1,0.1l0.1,0.1c0,0,0,0,0.1,0l0,0l0,0L16.6,80.7z M16.3,80.1
						C16.3,80.1,16.2,80.1,16.3,80.1c-0.1,0-0.1,0-0.1,0l0.3,0.2C16.5,80.3,16.4,80.3,16.3,80.1C16.4,80.2,16.4,80.1,16.3,80.1z"/>
					<path class="st36" d="M17.2,80.4L17.2,80.4L17.2,80.4L17.2,80.4l0.1,0.3l0,0l0,0l0,0h-0.1v0.1v0.4L16.8,81v-0.8l0.2,0.1v0.1
						l0,0C17,80.4,17.1,80.4,17.2,80.4C17.1,80.4,17.1,80.4,17.2,80.4z"/>
					<path class="st36" d="M17.3,80.9c0-0.1,0-0.1,0-0.2c0,0,0-0.1,0.1-0.1h0.1h0.1c0.1,0,0.1,0.1,0.1,0.1s0.1,0.1,0.1,0.2
						s0.1,0.1,0.1,0.2s0,0.1,0,0.2s0,0.1,0,0.2c0,0,0,0.1-0.1,0.1h-0.1c0,0-0.1,0-0.1-0.1c-0.1,0-0.1-0.1-0.1-0.1s-0.1-0.1-0.1-0.2
						S17.3,81.1,17.3,80.9L17.3,80.9z M17.8,81.2c0-0.1,0-0.1,0-0.2s-0.1-0.1-0.1-0.1h-0.1V81c0,0.1,0,0.1,0,0.2s0.1,0.1,0.1,0.1
						L17.8,81.2C17.8,81.3,17.8,81.3,17.8,81.2z"/>
					<path class="st36" d="M18.8,82.2l-0.1-0.1c0,0-0.1-0.1-0.1-0.2s-0.1-0.1-0.1-0.2s0-0.1,0-0.2s0-0.1,0-0.2c0,0,0-0.1,0.1-0.1
						h0.1h0.1c0,0,0.1,0,0.1,0.1c0,0,0,0,0.1,0.1c0,0,0,0,0,0.1v-0.4l0.2,0.1v1.1L19,82.2v-0.1c0,0,0,0-0.1,0
						C18.9,82.3,18.9,82.2,18.8,82.2C18.9,82.2,18.9,82.2,18.8,82.2z M18.7,81.7c0,0.1,0,0.1,0,0.2s0.1,0.1,0.1,0.1h0.1v-0.1
						c0-0.1,0-0.1,0-0.2s-0.1-0.1-0.1-0.1L18.7,81.7C18.7,81.6,18.7,81.6,18.7,81.7z"/>
					<path class="st36" d="M20,82.7L20,82.7c-0.1,0.1-0.1,0.1-0.1,0.1h-0.1c0,0-0.1,0-0.1-0.1l-0.1-0.1c0,0-0.1-0.1-0.1-0.2
						s-0.1-0.1-0.1-0.2s0-0.1,0-0.2s0-0.1,0-0.2c0,0,0-0.1,0.1-0.1h0.1c0,0,0.1,0,0.1,0.1l0.1,0.1c0,0,0.1,0.1,0.1,0.2
						s0.1,0.1,0.1,0.2s0,0.1,0,0.2l0,0l0,0C20.1,82.6,20.1,82.6,20,82.7l-0.5-0.4c0,0,0,0.1,0.1,0.1l0.1,0.1c0,0,0,0,0.1,0l0,0l0,0
						L20,82.7z M19.7,82.1C19.7,82.1,19.6,82.1,19.7,82.1c-0.1,0-0.1,0-0.1,0l0.3,0.2C19.8,82.3,19.8,82.2,19.7,82.1
						C19.8,82.1,19.7,82.1,19.7,82.1z"/>
					<path class="st36" d="M20.9,82.6l0.1,0.1c0,0,0.1,0.1,0.1,0.2s0.1,0.1,0.1,0.2s0,0.1,0,0.2s0,0.1,0,0.2c0,0,0,0.1-0.1,0.1H21
						h-0.1c0,0-0.1,0-0.1-0.1c0,0,0,0-0.1-0.1c0,0,0,0,0-0.1v0.4l-0.2-0.1v-1.1l0.2,0.1v0.1c0,0,0,0,0.1,0
						C20.8,82.5,20.8,82.5,20.9,82.6L20.9,82.6z M21.1,83.1c0-0.1,0-0.1,0-0.2S21,82.8,21,82.8h-0.1v0.1c0,0.1,0,0.1,0,0.2
						s0.1,0.1,0.1,0.1L21.1,83.1C21,83.2,21.1,83.1,21.1,83.1z"/>
					<path class="st36" d="M21.7,83l0.1,0.1l0.1,0.1c0,0,0,0.1,0.1,0.1c0,0.1,0,0.1,0,0.2V84h-0.1v-0.1c0,0,0,0-0.1,0c0,0,0,0-0.1,0
						h-0.1c-0.1,0-0.1-0.1-0.2-0.2c0-0.1-0.1-0.1-0.1-0.2v-0.1c0,0,0,0,0.1,0h0.1c0.1,0,0.1,0.1,0.2,0.1v-0.1c0,0,0-0.1-0.1-0.1l0,0
						l0,0l0,0l-0.2-0.1v-0.1c0,0,0,0,0.1-0.1h0.1C21.6,83,21.7,83,21.7,83z M21.7,83.7L21.7,83.7c0.1,0,0.1,0,0.1-0.1l0,0
						c0,0-0.1,0-0.1-0.1h-0.1l0,0l0,0C21.6,83.6,21.6,83.6,21.7,83.7C21.6,83.6,21.6,83.7,21.7,83.7z"/>
					<path class="st36" d="M22.3,84L22.3,84c0,0.1,0.1,0.1,0.1,0.1s0,0,0.1,0l0,0c0,0,0,0,0-0.1C22.5,84,22.4,84,22.3,84
						C22.4,83.9,22.4,83.9,22.3,84c0-0.1-0.1-0.1-0.1-0.2l-0.1-0.1v-0.1v-0.1c0,0,0,0,0.1,0h0.1h0.1c0.1,0.1,0.2,0.1,0.2,0.2
						s0.1,0.2,0.1,0.2l-0.2-0.1c0,0,0,0,0-0.1c0,0,0,0-0.1-0.1c0,0,0,0-0.1,0l0,0c0,0,0,0,0,0.1c0,0,0,0,0.1,0.1l0.1,0.1l0.1,0.1
						c0,0,0,0.1,0.1,0.1v0.1v0.1c0,0,0,0-0.1,0h-0.1h-0.1c-0.1-0.1-0.2-0.1-0.2-0.2s-0.1-0.2-0.1-0.3L22.3,84z"/>
					<path class="st36" d="M23.5,84.7L23.5,84.7c-0.1,0.1-0.1,0.1-0.1,0.1h-0.1c0,0-0.1,0-0.1-0.1l-0.1-0.1c0,0-0.1-0.1-0.1-0.2
						s-0.1-0.1-0.1-0.2s0-0.1,0-0.2s0-0.1,0-0.2c0,0,0-0.1,0.1-0.1h0.1h0.1l0.1,0.1c0,0,0.1,0.1,0.1,0.2s0.1,0.1,0.1,0.2
						s0,0.1,0,0.2l0,0l0,0C23.5,84.6,23.5,84.6,23.5,84.7L23,84.3c0,0,0,0.1,0.1,0.1l0.1,0.1c0,0,0,0,0.1,0l0,0l0,0L23.5,84.7z
						 M23.2,84.1C23.2,84.1,23.1,84.1,23.2,84.1c-0.1,0-0.1,0-0.1,0.1l0.3,0.2C23.3,84.3,23.3,84.3,23.2,84.1
						C23.3,84.2,23.2,84.1,23.2,84.1z"/>
					<path class="st36" d="M23.8,84.8C23.8,84.9,23.9,84.9,23.8,84.8c0,0.1,0.1,0.1,0.1,0.1s0,0,0.1,0l0,0c0,0,0,0,0-0.1
						C24,84.9,24,84.9,23.8,84.8C23.9,84.8,23.9,84.8,23.8,84.8c0-0.1-0.1-0.1-0.1-0.2l-0.1-0.1v-0.1v-0.1c0,0,0,0,0.1,0h0.1h0.1
						c0.1,0.1,0.2,0.1,0.2,0.2s0.1,0.2,0.1,0.2L24,84.6c0,0,0,0,0-0.1c0,0,0,0-0.1-0.1c0,0,0,0-0.1,0l0,0c0,0,0,0,0,0.1
						c0,0,0,0,0.1,0.1l0.1,0.1l0.1,0.1c0,0,0,0.1,0.1,0.1V85v0.1c0,0,0,0-0.1,0.1H24h-0.1c-0.1-0.1-0.2-0.1-0.2-0.2
						c-0.1-0.1-0.1-0.2-0.1-0.3L23.8,84.8z"/>
				</g>
				<path id="Rectangle-3_2_" class="st36" d="M15.7,86l1.1,0.7c0.1,0.1,0.2,0.2,0.2,0.3s-0.1,0.2-0.2,0.1l-1.1-0.7
					c-0.1-0.1-0.2-0.2-0.2-0.3C15.5,86,15.6,85.9,15.7,86z"/>
				<g id="Rectangle_Copy_6_2_" transform="translate(88.5 492)">
					<path class="st18" d="M-62.3-396l-6.6-3.9v-7.7l6.6,3.9C-62.3-403.7-62.3-396-62.3-396z"/>
					<path class="st37" d="M-68.8-407.3v7.4l6.4,3.7v-7.4L-68.8-407.3 M-69-407.7l6.8,4v7.9l-6.8-4V-407.7z"/>
				</g>
				<g class="st34">
					<path class="st36" d="M23.5,91.3v0.4L22.4,91v-0.3l0.6-0.4c0,0,0.1,0,0.1-0.1c0,0,0,0,0.1-0.1V90c0-0.1,0-0.1,0-0.2
						s-0.1-0.1-0.1-0.1c-0.1,0-0.1,0-0.2,0c0,0-0.1,0.1-0.1,0.2l-0.4-0.3c0-0.1,0-0.2,0-0.2c0-0.1,0.1-0.1,0.1-0.1
						c0.1,0,0.1,0,0.2,0s0.2,0,0.2,0.1c0.1,0.1,0.2,0.1,0.3,0.2c0.1,0.1,0.1,0.2,0.2,0.2c0.1,0.1,0.1,0.2,0.1,0.3c0,0.1,0,0.2,0,0.3
						c0,0.1,0,0.1,0,0.2s-0.1,0.1-0.1,0.1l-0.1,0.1L23,90.9L23.5,91.3z"/>
				</g>
				<g class="st34">
					<path class="st36" d="M35.8,98.2c-0.1-0.1-0.3-0.3-0.3-0.4c-0.1-0.2-0.1-0.3-0.1-0.5l0.4,0.2c0,0.2,0.1,0.3,0.2,0.4
						c0.1,0,0.1,0.1,0.2,0l0.1-0.1c0,0,0-0.1-0.1-0.2c0,0-0.1-0.1-0.2-0.2c-0.1-0.1-0.1-0.1-0.2-0.2c-0.1-0.1-0.1-0.1-0.2-0.2
						c-0.1-0.1-0.1-0.2-0.2-0.3c0-0.1-0.1-0.2-0.1-0.3c0-0.1,0-0.1,0-0.2l0.1-0.1h0.1c0.1,0,0.1,0,0.2,0V96l0.4,0.2v0.3
						c0.1,0.1,0.1,0.1,0.2,0.2c0,0.1,0.1,0.1,0.1,0.2s0.1,0.1,0.1,0.2s0,0.2,0,0.2l-0.4-0.2c0-0.1,0-0.2-0.1-0.2
						c0-0.1-0.1-0.1-0.2-0.2c-0.1,0-0.1,0-0.1,0l-0.1,0.1c0,0,0,0.1,0.1,0.1c0,0,0.1,0.1,0.2,0.2c0.1,0.1,0.1,0.1,0.2,0.2
						c0.1,0.1,0.1,0.1,0.2,0.2c0.1,0.1,0.1,0.2,0.2,0.3c0,0.1,0.1,0.2,0.1,0.3c0,0.1,0,0.1,0,0.2l-0.1,0.1h-0.1c-0.1,0-0.1,0-0.2,0
						v0.3l-0.4-0.2C35.8,98.5,35.8,98.2,35.8,98.2z"/>
					<path class="st36" d="M37.5,97.2v2L37.1,99v-1.4h-0.2l-0.2-0.5l0.4-0.1L37.5,97.2z"/>
					<path class="st36" d="M38.4,97.7v2L38,99.5v-1.4h-0.2l-0.2-0.5l0.4-0.1L38.4,97.7z"/>
					<path class="st36" d="M39.3,98.8c0.1,0,0.1,0.1,0.2,0.1l0.1,0.1l0.1,0.1h0.1h0.1c0,0,0.1,0,0.1,0.1c0.1,0.1,0.2,0.2,0.3,0.3
						c0.1,0.1,0.1,0.3,0.1,0.5v0.9l-0.4-0.2v-0.8c0-0.1,0-0.2-0.1-0.2c0-0.1-0.1-0.1-0.1-0.1h-0.1c0,0-0.1,0.1-0.1,0.2v0.8l-0.4-0.2
						v-0.8c0-0.1,0-0.2-0.1-0.2c0-0.1-0.1-0.1-0.1-0.1h-0.1c0,0-0.1,0.1-0.1,0.2v0.8l-0.4-0.2v-1.4l0.3,0.2l0.1,0.2h0.1H39
						C39.2,98.7,39.3,98.8,39.3,98.8z"/>
					<path class="st36" d="M41.8,100.3l-0.4,0.5l0.4,1l-0.4-0.2l-0.2-0.6l-0.2,0.3l-0.4-0.2l0.4-0.5l-0.4-0.9l0.4,0.2l0.2,0.5
						l0.2-0.3L41.8,100.3z"/>
					<path class="st36" d="M42.7,100.7c0.1,0,0.1,0.1,0.2,0.2c0.1,0.1,0.1,0.1,0.2,0.2c0,0.1,0.1,0.2,0.1,0.2c0,0.1,0,0.2,0,0.3v0.8
						l-0.4-0.2v-0.8c0-0.1,0-0.2-0.1-0.3c0-0.1-0.1-0.1-0.2-0.2c-0.1,0-0.1,0-0.2,0c0,0-0.1,0.1-0.1,0.2v0.8l-0.4-0.2v-1.4l0.3,0.2
						l0.1,0.2h0.1h0.1C42.6,100.7,42.6,100.7,42.7,100.7z"/>
				</g>
				<g id="Group_2_" transform="translate(147.5 492)">
					<g id="Rectangle_Copy_3_2_">
						<polygon class="st18" points="-121.4,-403.9 -114.6,-399.9 -114.6,-392 -121.4,-396 						"/>
						<polygon class="st38" points="-121.3,-403.7 -114.7,-399.8 -114.7,-392.2 -121.3,-396 						"/>
					</g>
					<g id="Group_2_2_" transform="translate(24 23)">
						<path id="Rectangle_Copy_4_2_" class="st35" d="M-142.5-421.4l1.1,0.7c0.1,0.1,0.2,0.2,0.2,0.3l0,0c0,0.1-0.1,0.2-0.2,0.1
							l-1.1-0.7c-0.1-0.1-0.2-0.2-0.2-0.3l0,0C-142.7-421.5-142.6-421.5-142.5-421.4z"/>
						<path id="Rectangle_Copy_5_2_" class="st35" d="M-141.8-421.5v1.3c0,0.1-0.1,0.2-0.2,0.1l0,0c-0.1-0.1-0.2-0.2-0.2-0.3v-1.3
							c0-0.1,0.1-0.2,0.2-0.1l0,0C-141.9-421.7-141.8-421.6-141.8-421.5z"/>
					</g>
				</g>
				<g id="Group-2_2_" transform="translate(29.5 492)">
					<g id="Rectangle_Copy_3-2_2_">
						<polygon class="st18" points="-16.7,-411.6 -9.8,-407.6 -9.8,-399.7 -16.7,-403.7 						"/>
						<polygon class="st38" points="-16.5,-411.4 -9.9,-407.5 -9.9,-399.9 -16.5,-403.7 						"/>
					</g>
					<g id="Group_2-2_2_" transform="translate(24 23)">
						<path id="Rectangle_Copy_4-2_2_" class="st35" d="M-37.8-429.2l1.1,0.7c0.1,0.1,0.2,0.2,0.2,0.3l0,0c0,0.1-0.1,0.2-0.2,0.1
							l-1.1-0.7c-0.1-0.1-0.2-0.2-0.2-0.3l0,0C-38-429.2-37.9-429.2-37.8-429.2z"/>
					</g>
				</g>
				<path id="Fill_1-2_2_" class="st18" d="M12.2,20.4l0.2-0.1l-0.6-1.1l0.6-0.4l-0.2-0.4l-0.9,0.5L12.2,20.4z"/>
				<g class="st34">
					<path class="st36" d="M27.7,67.2l-0.1-0.1l-0.1-0.5l-0.6-0.3l-0.1,0.3l-0.1-0.1l0.5-1.2h0.1L27.7,67.2z M27.2,65.6L27,66.2
						l0.5,0.3L27.2,65.6z"/>
					<path class="st36" d="M28.2,67.5c-0.1,0-0.1-0.1-0.2-0.1c0-0.1-0.1-0.1-0.1-0.2s-0.1-0.1-0.1-0.2s0-0.1,0-0.2s0-0.1,0-0.2
						l0.1-0.1H28l-0.1-0.1c0,0,0-0.1-0.1-0.1c0-0.1,0-0.1,0-0.2s0-0.1,0-0.1s0-0.1,0.1-0.1H28c0,0,0.1,0,0.1,0.1
						c0.1,0,0.1,0.1,0.1,0.1l0.1,0.1c0,0.1,0.1,0.1,0.1,0.2s0,0.1,0,0.2s0,0.1,0,0.1s0,0-0.1,0.1h-0.1l0.1,0.1c0,0,0.1,0.1,0.1,0.2
						s0,0.1,0,0.2s0,0.1,0,0.1s0,0.1-0.1,0.1H28.2C28.3,67.5,28.3,67.5,28.2,67.5z M27.9,66.9L27.9,66.9c0,0.1,0,0.2,0.1,0.2
						l0.1,0.1l0.1,0.1h0.1h0.1c0,0,0,0,0.1-0.1v-0.1V67c0,0,0-0.1-0.1-0.1l-0.1-0.1l-0.1-0.1h-0.1H28C28,66.7,28,66.7,27.9,66.9
						C27.9,66.8,27.9,66.8,27.9,66.9z M28,66.2L28,66.2c0,0.1,0,0.2,0.1,0.2c0,0,0,0.1,0.1,0.1l0.1,0.1h0.1h0.1c0,0,0,0,0.1-0.1
						v-0.1v-0.1c0,0,0-0.1-0.1-0.1c0,0,0-0.1-0.1-0.1L28.3,66h-0.1h-0.1C28,66.1,28,66.1,28,66.2C28,66.1,28,66.2,28,66.2z"/>
					<path class="st36" d="M29.8,68.4l-0.1-0.1l-0.1-0.5L29,67.5l-0.1,0.3l-0.1-0.1l0.5-1.2h0.1L29.8,68.4z M29.3,66.8L29,67.4
						l0.5,0.3L29.3,66.8z"/>
					<path class="st36" d="M30.9,68.3c0,0.1,0,0.2,0,0.3c0,0.1-0.1,0.1-0.1,0.2c-0.1,0-0.1,0-0.2,0s-0.2,0-0.2-0.1L30,68.5V67
						l0.3,0.2c0.1,0.1,0.2,0.1,0.2,0.2c0.1,0.1,0.1,0.2,0.2,0.3c0.1,0.1,0.1,0.2,0.1,0.3C30.9,68,30.9,68.2,30.9,68.3z M30.3,68.5
						c0.1,0,0.1,0.1,0.2,0.1s0.1,0,0.2,0l0.1-0.1c0-0.1,0-0.1,0-0.2s0-0.2,0-0.3c0-0.1-0.1-0.2-0.1-0.3c0-0.1-0.1-0.2-0.2-0.2
						c-0.1-0.1-0.1-0.1-0.2-0.2l-0.2-0.1v1.3L30.3,68.5z"/>
					<path class="st36" d="M31.5,69.4c-0.1,0-0.1-0.1-0.2-0.1c0-0.1-0.1-0.1-0.1-0.2s-0.1-0.1-0.1-0.2s0-0.1,0-0.2v-0.1v-0.1
						c0,0,0-0.1,0.1-0.1l0.4-0.4l0.1,0.1l-0.3,0.4l0,0l0,0c0,0,0,0,0.1,0s0.1,0.1,0.2,0.1c0.1,0.1,0.1,0.1,0.1,0.2s0.1,0.1,0.1,0.2
						s0,0.1,0,0.2s0,0.1,0,0.2l-0.1,0.1h-0.1C31.6,69.4,31.5,69.4,31.5,69.4z M31.5,69.3h0.1h0.1c0,0,0.1,0,0.1-0.1v-0.1
						c0,0,0-0.1,0-0.2s0-0.1-0.1-0.2c0-0.1-0.1-0.1-0.1-0.1l-0.1-0.1h-0.1h-0.1c0,0-0.1,0-0.1,0.1v0.1c0,0.1,0,0.1,0,0.2
						s0,0.1,0.1,0.2c0,0.1,0.1,0.1,0.1,0.1C31.4,69.2,31.4,69.2,31.5,69.3z"/>
					<path class="st36" d="M32.6,70L32.6,70L32,68.2l0.1,0.1l0.4,1.6l0.4-1.1l0.1,0.1L32.6,70z"/>
					<path class="st36" d="M33.6,70.6c-0.1,0-0.1-0.1-0.2-0.1s-0.1-0.1-0.1-0.2s-0.1-0.1-0.1-0.2s0-0.1,0-0.2s0-0.1,0-0.2l0.1-0.1
						h0.1l-0.1-0.1c0,0,0-0.1-0.1-0.1c0-0.1,0-0.1,0-0.2s0-0.1,0-0.1s0-0.1,0.1-0.1h0.1c0,0,0.1,0,0.1,0.1l0.1,0.1l0.1,0.1
						c0,0.1,0.1,0.1,0.1,0.2s0,0.1,0,0.2s0,0.1,0,0.1s0,0-0.1,0.1h-0.1l0.1,0.1c0,0,0.1,0.1,0.1,0.2s0,0.1,0,0.2s0,0.1,0,0.1
						S33.8,70.6,33.6,70.6L33.6,70.6C33.7,70.6,33.7,70.6,33.6,70.6z M33.3,70L33.3,70c0,0.1,0,0.2,0.1,0.2l0.1,0.1l0.1,0.1h0.1h0.1
						c0,0,0,0,0.1-0.1v-0.1v-0.1c0,0,0-0.1-0.1-0.1l-0.1-0.1l-0.1-0.1h-0.1h-0.1C33.4,69.8,33.4,69.8,33.3,70
						C33.3,69.9,33.3,69.9,33.3,70z M33.3,69.3L33.3,69.3c0,0.1,0,0.2,0.1,0.2c0,0,0,0.1,0.1,0.1l0.1,0.1h0.1h0.1c0,0,0,0,0.1-0.1
						v-0.1v-0.1c0,0,0-0.1-0.1-0.1c0,0,0-0.1-0.1-0.1l-0.1-0.1h-0.1h-0.1C33.4,69.2,33.4,69.2,33.3,69.3
						C33.4,69.3,33.3,69.3,33.3,69.3z"/>
				</g>
				<g>
					<g>
						<g id="Group_13_3_" transform="translate(29.5 572.5)">
							<path id="Rectangle-4_2_" class="st35" d="M-16.1-481.3l34.4,20c0.3,0.2,0.6,0.6,0.6,1v6.5c0,0.4-0.3,0.5-0.6,0.3l-34.4-20
								c-0.3-0.2-0.6-0.6-0.6-1v-6.5C-16.7-481.3-16.4-481.5-16.1-481.3z"/>
							<g class="st34">
								<path class="st18" d="M-6.8-471.8c0.1,0.1,0.2,0.1,0.2,0.1c0.1,0,0.1-0.1,0.1-0.1l0.4,0.2c0,0.1,0,0.1-0.1,0.2
									c0,0.1-0.1,0.1-0.2,0.1s-0.1,0-0.2,0s-0.2,0-0.3-0.1c-0.1-0.1-0.2-0.1-0.3-0.2c-0.1-0.1-0.2-0.2-0.2-0.3
									c-0.1-0.1-0.1-0.3-0.2-0.4c0-0.1-0.1-0.3-0.1-0.4s0-0.2,0.1-0.3c0-0.1,0.1-0.2,0.2-0.2s0.2-0.1,0.2-0.1c0.1,0,0.2,0,0.3,0.1
									c0.1,0.1,0.2,0.1,0.3,0.2c0.1,0.1,0.1,0.2,0.2,0.3c0.1,0.1,0.1,0.2,0.2,0.3c0,0.1,0.1,0.2,0.1,0.3l-0.4-0.2v-0.1
									c0,0,0-0.1-0.1-0.1l-0.1-0.1l-0.1-0.1c-0.1,0-0.1-0.1-0.2-0.1h-0.1l-0.1,0.1c0,0.1,0,0.1,0,0.2s0,0.1,0,0.2s0.1,0.1,0.1,0.2
									S-7-472-7-471.9C-6.9-471.9-6.8-471.9-6.8-471.8z"/>
								<path class="st18" d="M-6-471.6c0-0.1,0-0.2,0-0.2c0-0.1,0.1-0.1,0.1-0.1c0.1,0,0.1,0,0.2,0s0.1,0,0.2,0.1
									c0.1,0,0.2,0.1,0.2,0.2c0.1,0.1,0.1,0.2,0.2,0.3C-5-471.2-5-471.1-5-471s0,0.2,0,0.3s0,0.2,0,0.2c0,0.1-0.1,0.1-0.1,0.1
									c-0.1,0-0.1,0-0.2,0s-0.1,0-0.2-0.1c-0.1,0-0.2-0.1-0.2-0.2c-0.1-0.1-0.1-0.2-0.2-0.3c-0.1-0.1-0.1-0.2-0.1-0.3
									C-5.9-471.4-6-471.5-6-471.6z M-5.1-471.2c0-0.1,0-0.2-0.1-0.3c0-0.1-0.1-0.1-0.2-0.2c-0.1,0-0.1,0-0.2,0
									c0,0-0.1,0.1-0.1,0.2s0,0.2,0.1,0.3c0,0.1,0.1,0.2,0.2,0.2s0.1,0,0.2,0C-5.2-471-5.1-471.1-5.1-471.2z"/>
								<path class="st18" d="M-4-471.2c0.1,0,0.1,0.1,0.1,0.1l0.1,0.1l0.1,0.1h0.1h0.1c0,0,0.1,0,0.1,0.1c0.1,0.1,0.2,0.2,0.3,0.3
									C-3-470.4-3-470.2-3-470v0.8l-0.3-0.2v-0.7c0-0.1,0-0.1,0-0.2s-0.1-0.1-0.1-0.1h-0.1v0.1v0.7l-0.3-0.2v-0.7
									c0-0.1,0-0.1,0-0.2s-0.1-0.1-0.1-0.1H-4v0.1v0.7l-0.3-0.2v-1.3l0.2,0.1L-4-471.2L-4-471.2h0.2C-4.1-471.2-4.1-471.2-4-471.2
									z"/>
								<path class="st18" d="M-2.1-470.1c0.1,0,0.1,0.1,0.2,0.2s0.1,0.2,0.2,0.2c0,0.1,0.1,0.2,0.1,0.3c0,0.1,0,0.2,0,0.3
									c0,0.1,0,0.2,0,0.2c0,0.1-0.1,0.1-0.1,0.1s-0.1,0-0.2,0s-0.1,0-0.2-0.1l-0.1-0.1l-0.1-0.1l-0.1-0.1v0.6l-0.3-0.2v-1.8
									l0.2,0.1l0.1,0.2h0.1h0.1C-2.2-470.1-2.2-470.1-2.1-470.1z M-1.9-469.3c0-0.1,0-0.2-0.1-0.3c0-0.1-0.1-0.1-0.2-0.2
									c-0.1,0-0.1,0-0.2,0c0,0-0.1,0.1-0.1,0.2s0,0.2,0.1,0.3c0,0.1,0.1,0.1,0.2,0.2s0.1,0,0.2,0C-1.9-469.1-1.9-469.2-1.9-469.3z
									"/>
								<path class="st18" d="M-0.8-469.3L-0.8-469.3C-0.8-469.3-0.7-469.3-0.8-469.3C-0.7-469.3-0.7-469.2-0.8-469.3l0.1,0.5l0,0
									l0,0l0,0c-0.1,0-0.1,0-0.2,0c0,0-0.1,0.1-0.1,0.2v0.7l-0.3-0.2v-1.3l0.2,0.1l0.1,0.2c0,0,0,0,0.1,0h0.1
									C-0.9-469.4-0.8-469.3-0.8-469.3z"/>
								<path class="st18" d="M-0.1-468.9c0.1,0,0.1,0.1,0.2,0.1c0.1,0.1,0.1,0.1,0.1,0.2s0.1,0.2,0.1,0.2c0,0.1,0,0.2,0,0.2v0.8
									l-0.2-0.1v-0.2H0h-0.1c0,0-0.1,0-0.1-0.1c-0.1-0.1-0.2-0.2-0.3-0.3c-0.1-0.1-0.1-0.2-0.1-0.3c0-0.1,0-0.1,0-0.2l0.1-0.1
									c0.1,0,0.1,0,0.2,0s0.2,0.1,0.3,0.2c0-0.1,0-0.1,0-0.2s-0.1-0.1-0.1-0.1h-0.1l0,0l0,0l-0.3-0.2c0-0.1,0-0.1,0.1-0.1l0.1-0.1
									h0.1C-0.2-469-0.1-468.9-0.1-468.9z M-0.1-467.9c0.1,0,0.1,0,0.2,0l0.1-0.1v-0.1c-0.1,0-0.1-0.1-0.2-0.1h-0.1c0,0,0,0-0.1,0
									c0,0,0,0,0,0.1v0.1C-0.2-467.9-0.2-467.9-0.1-467.9z"/>
								<path class="st18" d="M1.2-468.1L1.2-468.1C1.3-468.1,1.3-468.1,1.2-468.1C1.3-468.1,1.3-468.1,1.2-468.1l0.1,0.5l0,0l0,0
									l0,0c-0.1,0-0.1,0-0.2,0c0,0-0.1,0.1-0.1,0.2v0.7l-0.3-0.2v-1.3l0.2,0.1l0.1,0.2c0,0,0,0,0.1,0h0.1
									C1.1-468.2,1.2-468.2,1.2-468.1z"/>
								<path class="st18" d="M2.4-466.1c-0.1-0.1-0.2-0.2-0.3-0.4C2-466.6,2-466.8,2-466.9l0.3,0.2c0,0.2,0.1,0.3,0.2,0.4
									c0.1,0,0.1,0.1,0.2,0c0,0,0.1,0,0.1-0.1c0,0,0-0.1-0.1-0.1c0,0-0.1-0.1-0.1-0.2c-0.1-0.1-0.1-0.1-0.2-0.2
									c-0.1-0.1-0.1-0.1-0.2-0.2c-0.1-0.1-0.1-0.2-0.1-0.2c0-0.1-0.1-0.2-0.1-0.3c0-0.1,0-0.1,0-0.2c0,0,0-0.1,0.1-0.1h0.1
									c0,0,0.1,0,0.2,0v-0.2l0.3,0.2v0.3c0.1,0,0.1,0.1,0.2,0.2c0,0.1,0.1,0.1,0.1,0.2s0.1,0.1,0.1,0.2s0,0.1,0,0.2L2.8-467
									c0-0.1,0-0.1-0.1-0.2c0-0.1-0.1-0.1-0.1-0.1c-0.1,0-0.1,0-0.1,0s-0.1,0-0.1,0.1s0,0.1,0.1,0.1l0.1,0.1
									c0.1,0.1,0.1,0.1,0.2,0.2c0.1,0.1,0.1,0.1,0.2,0.2c0.1,0.1,0.1,0.2,0.1,0.2c0,0.1,0.1,0.2,0.1,0.3c0,0.1,0,0.1,0,0.2
									c0,0,0,0.1-0.1,0.1H3c-0.1,0-0.1,0-0.2,0v0.2l-0.3-0.2L2.4-466.1L2.4-466.1L2.4-466.1z"/>
								<path class="st18" d="M4.4-465.4v0.4l-1.1-0.6v-0.3l0.6-0.4c0,0,0,0,0.1-0.1c0,0,0,0,0-0.1v-0.1c0-0.1,0-0.1,0-0.2
									s-0.1-0.1-0.1-0.1c-0.1,0-0.1,0-0.1,0l-0.1,0.1L3.4-467c0-0.1,0-0.1,0-0.2s0.1-0.1,0.1-0.1s0.1,0,0.2,0c0.1,0,0.1,0,0.2,0.1
									c0.1,0,0.2,0.1,0.2,0.2c0.1,0.1,0.1,0.1,0.2,0.2c0,0.1,0.1,0.2,0.1,0.2c0,0.1,0,0.2,0,0.2c0,0.1,0,0.1,0,0.2l-0.1,0.1
									L4.2-466l-0.3,0.2L4.4-465.4z"/>
								<path class="st18" d="M5.6-464.6v0.4l-1.1-0.6v-0.3l0.6-0.4c0,0,0,0,0.1-0.1c0,0,0,0,0-0.1v-0.1c0-0.1,0-0.1,0-0.2
									s-0.1-0.1-0.1-0.1C5-466,5-466,5-466l-0.1,0.1l-0.3-0.2c0-0.1,0-0.1,0-0.2s0.1-0.1,0.1-0.1s0.1,0,0.2,0s0.1,0,0.2,0.1
									c0.1,0,0.2,0.1,0.2,0.2c0.1,0.1,0.1,0.1,0.2,0.2c0,0.1,0.1,0.2,0.1,0.2c0,0.1,0,0.2,0,0.2c0,0.1,0,0.1,0,0.2l-0.1,0.1
									l-0.1,0.1L5.1-465L5.6-464.6z"/>
								<path class="st18" d="M6.4-465.1c0.1,0,0.1,0.1,0.1,0.1l0.1,0.1l0.1,0.1h0.1h0.1c0,0,0.1,0,0.1,0.1c0.1,0.1,0.2,0.2,0.3,0.3
									c0.1,0.1,0.1,0.3,0.1,0.5v0.8l-0.3-0.2v-0.7c0-0.1,0-0.1,0-0.2S7-464.3,7-464.3H6.9v0.1v0.7l-0.3-0.2v-0.7
									c0-0.1,0-0.1,0-0.2s-0.1-0.1-0.1-0.1H6.4v0.1v0.7l-0.3-0.2v-1.3l0.2,0.1L6.4-465.1L6.4-465.1h0.2
									C6.3-465.1,6.4-465.1,6.4-465.1z"/>
								<path class="st18" d="M8.7-463.8l-0.3,0.4l0.4,0.9l-0.4-0.2l-0.2-0.5L8-462.9l-0.4-0.2l0.4-0.5l-0.3-0.8l0.4,0.2l0.2,0.5
									l0.2-0.3L8.7-463.8z"/>
								<path class="st18" d="M9.5-463.3c0.1,0,0.1,0.1,0.2,0.1c0.1,0.1,0.1,0.1,0.1,0.2s0.1,0.1,0.1,0.2s0,0.2,0,0.3v0.8l-0.3-0.2
									v-0.7c0-0.1,0-0.2-0.1-0.2c0-0.1-0.1-0.1-0.2-0.2c-0.1,0-0.1,0-0.2,0c0,0-0.1,0.1-0.1,0.2v0.7l-0.3-0.2v-1.3l0.2,0.1
									l0.1,0.2h0.1h0.1C9.4-463.4,9.4-463.4,9.5-463.3z"/>
							</g>
						</g>
					</g>
				</g>
			</g>
		</g>
	</g>
</g>
</svg>
