<?xml version="1.0" encoding="utf-8"?>
<!-- Generator: Adobe Illustrator 24.0.0, SVG Export Plug-In . SVG Version: 6.00 Build 0)  -->
<svg version="1.1" id="Layer_1" xmlns="http://www.w3.org/2000/svg" xmlns:xlink="http://www.w3.org/1999/xlink" x="0px" y="0px"
	 width="140px" height="140px" viewBox="0 0 140 140" style="enable-background:new 0 0 140 140;" xml:space="preserve">
<style type="text/css">
	.st0{opacity:0.3;fill:#4D4D4F;enable-background:new    ;}
	.st1{fill:#323232;}
	.st2{fill:#020202;}
	.st3{fill:#8FDFE9;}
	.st4{fill:#B3B3B3;}
	.st5{fill:#F5F5F5;}
	.st6{fill:#FFFFFF;}
	.st7{fill:#F9F9F9;}
	.st8{fill:#343434;}
	.st9{fill:#273842;}
	.st10{clip-path:url(#SVGID_2_);}
	.st11{fill:#603813;}
	.st12{fill:#C3996B;}
	.st13{fill:#F9C992;}
	.st14{fill:#E1AA73;}
	.st15{fill:#FAC882;}
	.st16{clip-path:url(#SVGID_4_);fill:#23323C;}
	.st17{clip-path:url(#SVGID_6_);}
	.st18{fill:#F1F1F2;}
	.st19{clip-path:url(#SVGID_8_);}
	.st20{fill:#4ABFA8;}
</style>
<path class="st0" d="M58.9,136.7L130,95.6c0.7-0.4,0.7-1.2,0-1.6L86.4,68.7c-0.8-0.5-1.7-0.5-2.4,0l-70.4,41.7
	c-0.6,0.4-0.6,1.2,0,1.6l42.8,24.8C57.3,137.2,58.1,137.2,58.9,136.7z"/>
<g>
	<g>
		<path class="st1" d="M82.8,63.9l-70.3,41.5c-0.7,0.4-2.4-0.5-2.4-1.4V48c0-1.4,0.8-2.8,2-3.5l71-41.1c0.7-0.4,1.6,0.1,1.6,0.9v56
			C84.8,61.8,84,63.1,82.8,63.9z"/>
		<path class="st2" d="M83.9,64.2l-71,41.1c-0.7,0.4-1.6-0.1-1.6-0.9v-56c0-1.4,0.8-2.8,2-3.5l71-41.1c0.7-0.4,1.6,0.1,1.6,0.9v56
			C85.9,62.2,85.1,63.5,83.9,64.2z"/>
		<polygon class="st3" points="82.1,58.8 15,97.6 15,48.2 82.1,9.4 		"/>
	</g>
	<g>
		<path class="st4" d="M58.9,132.4l72.7-42.1c0.6-0.4,0.5-2.6,0.5-2.6L85.9,62.2c-0.8-0.4-1.7-0.4-2.4,0l-71.2,42.3
			c0,0-0.1,2.1,0.5,2.5l43.8,25.4C57.2,132.8,58.2,132.8,58.9,132.4z"/>
		<path class="st5" d="M58.9,130.8l72.7-42.1c0.6-0.4,0.6-1.2,0-1.6L87,61.2c-0.7-0.4-1.6-0.4-2.4,0l-71.9,42.6
			c-0.6,0.4-0.6,1.2,0,1.6l43.8,25.4C57.2,131.2,58.2,131.2,58.9,130.8z"/>
		<path class="st6" d="M83.6,114.5l20.1-11.6c0.4-0.2,0.4-0.9,0-1.1l-12-7c-0.3-0.2-0.7-0.2-1.1,0l-20.4,12.1
			c-0.2,0.1-0.2,0.4,0,0.5l12.4,7.2C82.9,114.7,83.3,114.7,83.6,114.5z"/>
		<g>
			<path class="st7" d="M113.2,80.5l-70,40.5c-0.3,0.2-0.8,0.2-1.1,0l-26.6-15.3c-0.7-0.4-0.7-1.5,0-1.9l70.1-40.5
				c0.3-0.2,0.8-0.2,1.1,0l26.6,15.3C114,79.1,114,80.1,113.2,80.5z"/>
			<path class="st8" d="M89.5,92.4l-26.4,15.2c-0.1,0.1-0.2,0.1-0.3,0l-3.4-2c-0.2-0.1-0.2-0.4,0-0.5l26.4-15.2
				c0.1-0.1,0.2-0.1,0.3,0l3.4,2C89.7,92,89.7,92.3,89.5,92.4z"/>
			<path class="st8" d="M46.6,111l-9.2,5.4c-0.1,0.1-0.2,0.1-0.3,0l-3.4-2c-0.2-0.1-0.2-0.4,0-0.5l9.2-5.4c0.1-0.1,0.2-0.1,0.3,0
				l3.4,2C46.8,110.7,46.8,110.9,46.6,111z"/>
			<path class="st8" d="M39.7,109.4l-7,4c-0.1,0.1-0.2,0.1-0.3,0l-3.4-2c-0.2-0.1-0.2-0.4,0-0.5l7-4c0.1-0.1,0.2-0.1,0.3,0l3.4,2
				C39.9,109,39.9,109.3,39.7,109.4z"/>
			<path class="st8" d="M106.6,76.4l-9.3,5.4c-0.1,0.1-0.2,0.1-0.3,0l-3.4-2c-0.2-0.1-0.2-0.4,0-0.5l9.3-5.4c0.1-0.1,0.2-0.1,0.3,0
				l3.4,2C106.8,76,106.8,76.3,106.6,76.4z"/>
			<path class="st8" d="M108.1,81.5l-2.6,1.6h-0.1l-1.2-0.7c-0.1,0-0.1-0.1,0-0.2l2.6-1.6h0.1l1.2,0.7
				C108.2,81.3,108.2,81.4,108.1,81.5z"/>
			<path class="st8" d="M105.9,80.2l-2.6,1.6h-0.1l-1.2-0.7c-0.1,0-0.1-0.1,0-0.2l2.6-1.6h0.1l1.2,0.7
				C105.9,80.1,105.9,80.2,105.9,80.2z"/>
			<path class="st8" d="M111.9,79.2l-2.6,1.6h-0.1L108,80c-0.1,0-0.1-0.1,0-0.2l2.6-1.6h0.1l1.2,0.7C112,79,112,79.1,111.9,79.2z"/>
			<path class="st8" d="M104.5,83.5l-2.6,1.6h-0.1l-1.2-0.7c-0.1,0-0.1-0.1,0-0.2l2.6-1.6h0.1l1.2,0.7
				C104.6,83.3,104.6,83.4,104.5,83.5z"/>
			<path class="st8" d="M46.1,117.3l-3.6,2.1c-0.1,0.1-0.2,0.1-0.3,0l-3.4-2c-0.2-0.1-0.2-0.4,0-0.5l3.6-2.1c0.1-0.1,0.2-0.1,0.3,0
				l3.4,2C46.3,117,46.3,117.2,46.1,117.3z"/>
			<path class="st8" d="M50.8,114.7l-3.6,2.1c-0.1,0.1-0.2,0.1-0.3,0l-3.4-2c-0.2-0.1-0.2-0.4,0-0.5l3.6-2.1c0.1-0.1,0.2-0.1,0.3,0
				l3.4,2C51,114.3,51,114.6,50.8,114.7z"/>
			<path class="st8" d="M55.7,111.9l-3.6,2.1c-0.1,0.1-0.2,0.1-0.3,0l-3.4-2c-0.2-0.1-0.2-0.4,0-0.5l3.6-2.1c0.1-0.1,0.2-0.1,0.3,0
				l3.4,2C55.9,111.5,55.9,111.8,55.7,111.9z"/>
			<path class="st8" d="M52,108.1l-3.6,2.1c-0.1,0.1-0.2,0.1-0.3,0l-3.4-2c-0.2-0.1-0.2-0.4,0-0.5l3.6-2.1c0.1-0.1,0.2-0.1,0.3,0
				l3.4,2C52.2,107.7,52.2,108,52,108.1z"/>
			<path class="st8" d="M56.8,105.2l-3.6,2.1c-0.1,0.1-0.2,0.1-0.3,0l-3.4-2c-0.2-0.1-0.2-0.4,0-0.5l3.6-2.1c0.1-0.1,0.2-0.1,0.3,0
				l3.4,2C57,104.8,57,105.1,56.8,105.2z"/>
			<path class="st8" d="M61.7,102.4l-3.6,2.1c-0.1,0.1-0.2,0.1-0.3,0l-3.4-2c-0.2-0.1-0.2-0.4,0-0.5l3.6-2.1c0.1-0.1,0.2-0.1,0.3,0
				l3.4,2C61.9,102,61.9,102.3,61.7,102.4z"/>
			<path class="st8" d="M66.5,99.5l-3.6,2.1c-0.1,0.1-0.2,0.1-0.3,0l-3.4-2c-0.2-0.1-0.2-0.4,0-0.5l3.6-2.1c0.1-0.1,0.2-0.1,0.3,0
				l3.4,2C66.7,99.1,66.7,99.4,66.5,99.5z"/>
			<path class="st8" d="M71.5,96.8l-3.6,2.1c-0.1,0.1-0.2,0.1-0.3,0l-3.4-2c-0.2-0.1-0.2-0.4,0-0.5l3.6-2.1c0.1-0.1,0.2-0.1,0.3,0
				l3.4,2C71.7,96.4,71.7,96.7,71.5,96.8z"/>
			<path class="st8" d="M76.3,93.9L72.7,96c-0.1,0.1-0.2,0.1-0.3,0L69,94c-0.2-0.1-0.2-0.4,0-0.5l3.6-2.1c0.1-0.1,0.2-0.1,0.3,0
				l3.4,2C76.5,93.5,76.5,93.8,76.3,93.9z"/>
			<path class="st8" d="M81.1,91.2l-3.6,2.1c-0.1,0.1-0.2,0.1-0.3,0l-3.4-2c-0.2-0.1-0.2-0.4,0-0.5l3.6-2.1c0.1-0.1,0.2-0.1,0.3,0
				l3.4,2C81.3,90.8,81.3,91.1,81.1,91.2z"/>
			<path class="st8" d="M85.9,88.3l-3.6,2.1c-0.1,0.1-0.2,0.1-0.3,0l-3.4-2c-0.2-0.1-0.2-0.4,0-0.5l3.6-2.1c0.1-0.1,0.2-0.1,0.3,0
				l3.4,2C86.1,87.9,86.1,88.2,85.9,88.3z"/>
			<path class="st8" d="M90.9,85.6l-3.6,2.1c-0.1,0.1-0.2,0.1-0.3,0l-3.4-2c-0.2-0.1-0.2-0.4,0-0.5l3.6-2.1c0.1-0.1,0.2-0.1,0.3,0
				l3.4,2C91.1,85.3,91.1,85.5,90.9,85.6z"/>
			<path class="st8" d="M95.7,82.7l-3.6,2.1c-0.1,0.1-0.2,0.1-0.3,0l-3.4-2c-0.2-0.1-0.2-0.4,0-0.5l3.6-2.1c0.1-0.1,0.2-0.1,0.3,0
				l3.4,2C95.9,82.3,95.9,82.6,95.7,82.7z"/>
			<path class="st8" d="M44.4,106.8l-3.6,2.1c-0.1,0.1-0.2,0.1-0.3,0l-3.4-2c-0.2-0.1-0.2-0.4,0-0.5l3.6-2.1c0.1-0.1,0.2-0.1,0.3,0
				l3.4,2C44.6,106.4,44.6,106.7,44.4,106.8z"/>
			<path class="st8" d="M49.3,103.9l-3.6,2.1c-0.1,0.1-0.2,0.1-0.3,0l-3.4-2c-0.2-0.1-0.2-0.4,0-0.5l3.6-2.1c0.1-0.1,0.2-0.1,0.3,0
				l3.4,2C49.4,103.5,49.4,103.8,49.3,103.9z"/>
			<path class="st8" d="M54.1,101.1l-3.6,2.1c-0.1,0.1-0.2,0.1-0.3,0l-3.4-2c-0.2-0.1-0.2-0.4,0-0.5l3.6-2.1c0.1-0.1,0.2-0.1,0.3,0
				l3.4,2C54.3,100.7,54.3,101,54.1,101.1z"/>
			<path class="st8" d="M59,98.2l-3.6,2.1c-0.1,0.1-0.2,0.1-0.3,0l-3.4-2c-0.2-0.1-0.2-0.4,0-0.5l3.6-2.1c0.1-0.1,0.2-0.1,0.3,0
				l3.4,2C59.2,97.8,59.2,98.1,59,98.2z"/>
			<path class="st8" d="M63.9,95.5l-3.6,2.1c-0.1,0.1-0.2,0.1-0.3,0l-3.4-2c-0.2-0.1-0.2-0.4,0-0.5l3.6-2.1c0.1-0.1,0.2-0.1,0.3,0
				l3.4,2C64.1,95.1,64.1,95.4,63.9,95.5z"/>
			<path class="st8" d="M68.7,92.6l-3.6,2.1c-0.1,0.1-0.2,0.1-0.3,0l-3.4-2c-0.2-0.1-0.2-0.4,0-0.5l3.6-2.1c0.1-0.1,0.2-0.1,0.3,0
				l3.4,2C68.9,92.2,68.9,92.5,68.7,92.6z"/>
			<path class="st8" d="M73.6,89.9L70,92c-0.1,0.1-0.2,0.1-0.3,0l-3.4-2c-0.2-0.1-0.2-0.4,0-0.5l3.6-2.1c0.1-0.1,0.2-0.1,0.3,0
				l3.4,2C73.8,89.5,73.8,89.8,73.6,89.9z"/>
			<path class="st8" d="M78.4,87l-3.6,2.1c-0.1,0.1-0.2,0.1-0.3,0l-3.4-2c-0.2-0.1-0.2-0.4,0-0.5l3.6-2.1c0.1-0.1,0.2-0.1,0.3,0
				l3.4,2C78.6,86.6,78.6,86.9,78.4,87z"/>
			<path class="st8" d="M83.4,84.3l-3.6,2.1c-0.1,0.1-0.2,0.1-0.3,0l-3.4-2c-0.2-0.1-0.2-0.4,0-0.5l3.6-2.1c0.1-0.1,0.2-0.1,0.3,0
				l3.4,2C83.6,84,83.6,84.2,83.4,84.3z"/>
			<path class="st8" d="M88.2,81.4l-3.6,2.1c-0.1,0.1-0.2,0.1-0.3,0l-3.4-2c-0.2-0.1-0.2-0.4,0-0.5l3.6-2.1c0.1-0.1,0.2-0.1,0.3,0
				l3.4,2C88.4,81,88.4,81.3,88.2,81.4z"/>
			<path class="st8" d="M93,78.7l-3.6,2.1c-0.1,0.1-0.2,0.1-0.3,0l-3.4-2c-0.2-0.1-0.2-0.4,0-0.5l3.6-2.1c0.1-0.1,0.2-0.1,0.3,0
				l3.4,2C93.2,78.3,93.2,78.5,93,78.7z"/>
			<path class="st8" d="M33.5,107.3l-5.8,3.3c-0.1,0.1-0.2,0.1-0.3,0l-3.4-2c-0.2-0.1-0.2-0.4,0-0.5l5.8-3.3c0.1-0.1,0.2-0.1,0.3,0
				l3.4,2C33.7,106.9,33.7,107.2,33.5,107.3z"/>
			<path class="st8" d="M38.3,104.7l-3.6,2.1c-0.1,0.1-0.2,0.1-0.3,0l-3.4-2c-0.2-0.1-0.2-0.4,0-0.5l3.6-2.1c0.1-0.1,0.2-0.1,0.3,0
				l3.4,2C38.4,104.3,38.4,104.6,38.3,104.7z"/>
			<path class="st8" d="M43.1,101.8l-3.6,2.1c-0.1,0.1-0.2,0.1-0.3,0l-3.4-2c-0.2-0.1-0.2-0.4,0-0.5l3.6-2.1c0.1-0.1,0.2-0.1,0.3,0
				l3.4,2C43.3,101.4,43.3,101.7,43.1,101.8z"/>
			<path class="st8" d="M48,99l-3.6,2.1c-0.1,0.1-0.2,0.1-0.3,0l-3.4-2c-0.2-0.1-0.2-0.4,0-0.5l3.6-2.1c0.1-0.1,0.2-0.1,0.3,0l3.4,2
				C48.2,98.6,48.2,98.9,48,99z"/>
			<path class="st8" d="M52.8,96.1l-3.6,2.1c-0.1,0.1-0.2,0.1-0.3,0l-3.4-2c-0.2-0.1-0.2-0.4,0-0.5l3.6-2.1c0.1-0.1,0.2-0.1,0.3,0
				l3.4,2C53,95.7,53,96,52.8,96.1z"/>
			<path class="st8" d="M57.8,93.4l-3.6,2.1c-0.1,0.1-0.2,0.1-0.3,0l-3.4-2c-0.2-0.1-0.2-0.4,0-0.5l3.6-2.1c0.1-0.1,0.2-0.1,0.3,0
				l3.4,2C58,93,58,93.3,57.8,93.4z"/>
			<path class="st8" d="M62.6,90.5l-3.6,2c-0.1,0.1-0.2,0.1-0.3,0l-3.4-2c-0.2-0.1-0.2-0.4,0-0.5l3.6-2.1c0.1-0.1,0.2-0.1,0.3,0
				l3.4,2C62.8,90.1,62.8,90.4,62.6,90.5z"/>
			<path class="st8" d="M67.4,87.8l-3.6,2.1c-0.1,0.1-0.2,0.1-0.3,0l-3.4-2c-0.2-0.1-0.2-0.4,0-0.5l3.6-2.1c0.1-0.1,0.2-0.1,0.3,0
				l3.4,2C67.6,87.4,67.6,87.7,67.4,87.8z"/>
			<path class="st8" d="M72.2,84.9L68.7,87c-0.1,0.1-0.2,0.1-0.3,0L65,85c-0.2-0.1-0.2-0.4,0-0.5l3.6-2.1c0.1-0.1,0.2-0.1,0.3,0
				l3.4,2C72.4,84.5,72.4,84.8,72.2,84.9z"/>
			<path class="st8" d="M77.2,82.2l-3.6,2.1c-0.1,0.1-0.2,0.1-0.3,0l-3.4-2c-0.2-0.1-0.2-0.4,0-0.5l3.6-2.1c0.1-0.1,0.2-0.1,0.3,0
				l3.4,2C77.4,81.8,77.4,82.1,77.2,82.2z"/>
			<path class="st8" d="M82,79.3l-3.6,2.1c-0.1,0.1-0.2,0.1-0.3,0l-3.4-2c-0.2-0.1-0.2-0.4,0-0.5l3.6-2.1c0.1-0.1,0.2-0.1,0.3,0
				l3.4,2C82.2,78.9,82.2,79.2,82,79.3z"/>
			<path class="st8" d="M86.9,76.5l-3.6,2.1c-0.1,0.1-0.2,0.1-0.3,0l-3.4-2c-0.2-0.1-0.2-0.4,0-0.5l3.6-2.1c0.1-0.1,0.2-0.1,0.3,0
				l3.4,2C87.1,76.2,87.1,76.4,86.9,76.5z"/>
			<path class="st8" d="M92.1,73.6l-3.6,2.1c-0.1,0.1-0.2,0.1-0.3,0l-3.4-2c-0.2-0.1-0.2-0.4,0-0.5l3.6-2.1c0.1-0.1,0.2-0.1,0.3,0
				l3.4,2C92.3,73.2,92.3,73.5,92.1,73.6z"/>
			<path class="st8" d="M96.9,70.8l-3.6,2.1c-0.1,0.1-0.2,0.1-0.3,0l-3.4-2c-0.2-0.1-0.2-0.4,0-0.5l3.6-2.1c0.1-0.1,0.2-0.1,0.3,0
				l3.4,2C97.1,70.5,97.1,70.7,96.9,70.8z"/>
			<path class="st8" d="M26.4,105.8l-3.6,2.1c-0.1,0.1-0.2,0.1-0.3,0l-3.4-2c-0.2-0.1-0.2-0.4,0-0.5l3.6-2.1c0.1-0.1,0.2-0.1,0.3,0
				l3.4,2C26.6,105.4,26.6,105.7,26.4,105.8z"/>
			<path class="st8" d="M31.2,102.9l-3.6,2.1c-0.1,0.1-0.2,0.1-0.3,0l-3.4-2c-0.2-0.1-0.2-0.4,0-0.5l3.6-2.1c0.1-0.1,0.2-0.1,0.3,0
				l3.4,2C31.4,102.5,31.4,102.8,31.2,102.9z"/>
			<path class="st8" d="M36.1,100.1l-3.6,2.1c-0.1,0.1-0.2,0.1-0.3,0l-3.4-2c-0.2-0.1-0.2-0.4,0-0.5l3.6-2.1c0.1-0.1,0.2-0.1,0.3,0
				l3.4,2C36.3,99.8,36.3,100,36.1,100.1z"/>
			<path class="st8" d="M40.9,97.3l-3.6,2.1c-0.1,0.1-0.2,0.1-0.3,0l-3.4-2c-0.2-0.1-0.2-0.4,0-0.5l3.6-2.1c0.1-0.1,0.2-0.1,0.3,0
				l3.4,2C41.1,96.9,41.1,97.1,40.9,97.3z"/>
			<path class="st8" d="M45.9,94.6l-3.6,2.1c-0.1,0.1-0.2,0.1-0.3,0l-3.4-2c-0.2-0.1-0.2-0.4,0-0.5l3.6-2.1c0.1-0.1,0.2-0.1,0.3,0
				l3.4,2C46.1,94.2,46.1,94.5,45.9,94.6z"/>
			<path class="st8" d="M50.7,91.6l-3.6,2.1c-0.1,0.1-0.2,0.1-0.3,0l-3.4-2c-0.2-0.1-0.2-0.4,0-0.5l3.6-2.1c0.1-0.1,0.2-0.1,0.3,0
				l3.4,2C50.9,91.3,50.9,91.5,50.7,91.6z"/>
			<path class="st8" d="M55.6,89L52,91c-0.1,0.1-0.2,0.1-0.3,0l-3.4-2c-0.2-0.1-0.2-0.4,0-0.5l3.6-2.1c0.1-0.1,0.2-0.1,0.3,0l3.4,2
				C55.7,88.6,55.7,88.8,55.6,89z"/>
			<path class="st8" d="M60.4,86.1l-3.6,2.1c-0.1,0.1-0.2,0.1-0.3,0l-3.4-2c-0.2-0.1-0.2-0.4,0-0.5l3.6-2.1c0.1-0.1,0.2-0.1,0.3,0
				l3.4,2C60.6,85.7,60.6,86,60.4,86.1z"/>
			<path class="st8" d="M65.4,83.4l-3.6,2.1c-0.1,0.1-0.2,0.1-0.3,0l-3.4-2c-0.2-0.1-0.2-0.4,0-0.5l3.6-2.1c0.1-0.1,0.2-0.1,0.3,0
				l3.4,2C65.5,83,65.5,83.3,65.4,83.4z"/>
			<path class="st8" d="M70.2,80.5l-3.6,2.1c-0.1,0.1-0.2,0.1-0.3,0l-3.4-2c-0.2-0.1-0.2-0.4,0-0.5l3.6-2.1c0.1-0.1,0.2-0.1,0.3,0
				l3.4,2C70.3,80.1,70.3,80.3,70.2,80.5z"/>
			<path class="st8" d="M75,77.7l-3.6,2.1c-0.1,0.1-0.2,0.1-0.3,0l-3.4-2c-0.2-0.1-0.2-0.4,0-0.5l3.6-2.1c0.1-0.1,0.2-0.1,0.3,0
				l3.4,2C75.2,77.3,75.2,77.6,75,77.7z"/>
			<path class="st8" d="M80.2,74.8l-3.6,2.1c-0.1,0.1-0.2,0.1-0.3,0l-3.4-2c-0.2-0.1-0.2-0.4,0-0.5l3.6-2.1c0.1-0.1,0.2-0.1,0.3,0
				l3.4,2C80.4,74.4,80.4,74.6,80.2,74.8z"/>
			<path class="st8" d="M85.1,72l-3.6,2.1c-0.1,0.1-0.2,0.1-0.3,0l-3.4-2c-0.2-0.1-0.2-0.4,0-0.5l3.6-2.1c0.1-0.1,0.2-0.1,0.3,0
				l3.4,2C85.3,71.6,85.3,71.9,85.1,72z"/>
			<path class="st8" d="M91.6,68l-5.5,3.1c-0.1,0.1-0.2,0.1-0.3,0l-3.4-2c-0.2-0.1-0.2-0.4,0-0.5l5.5-3.1c0.1-0.1,0.2-0.1,0.3,0
				l3.4,2C91.8,67.7,91.8,67.9,91.6,68z"/>
			<path class="st8" d="M101.7,73.7l-7,4c-0.1,0.1-0.2,0.1-0.3,0l-3.4-2c-0.2-0.1-0.2-0.4,0-0.5l7-4c0.1-0.1,0.2-0.1,0.3,0l3.4,2
				C101.9,73.3,101.9,73.5,101.7,73.7z"/>
			<path class="st8" d="M100.4,86l-3.6,2.1c-0.1,0.1-0.2,0.1-0.3,0l-3.4-2c-0.2-0.1-0.2-0.4,0-0.5l3.6-2.1c0.1-0.1,0.2-0.1,0.3,0
				l3.4,2C100.6,85.7,100.6,85.9,100.4,86z"/>
			<path class="st8" d="M61.6,108.5l-4.4,2.6c-0.1,0.1-0.2,0.1-0.3,0l-3.4-2c-0.2-0.1-0.2-0.4,0-0.5l4.4-2.6c0.1-0.1,0.2-0.1,0.3,0
				l3.4,2C61.8,108.1,61.8,108.4,61.6,108.5z"/>
			<path class="st8" d="M95.5,89l-4.4,2.6c-0.1,0.1-0.2,0.1-0.3,0l-3.4-2c-0.2-0.1-0.2-0.4,0-0.5l4.4-2.6c0.1-0.1,0.2-0.1,0.3,0
				l3.4,2C95.7,88.6,95.7,88.9,95.5,89z"/>
		</g>
	</g>
</g>
<g>
	<polygon class="st9" points="19.2,80.7 19.2,83.2 40.6,70.6 40.6,68.1 	"/>
</g>
<g>
	<polygon class="st9" points="19.1,86.5 19.1,89 30.5,82.3 30.4,79.9 	"/>
</g>
<g>
	<g>
		<polygon class="st9" points="47.5,44.4 47.5,46.7 78.3,28.1 78.2,25.8 		"/>
	</g>
	<g>
		<polygon class="st9" points="47.5,38.9 47.6,41.2 78.4,22.5 78.3,20.3 		"/>
	</g>
	<g>
		<polygon class="st9" points="47.4,55.8 47.5,58 78.2,39.4 78.2,37.2 		"/>
	</g>
	<g>
		<polygon class="st9" points="47.3,61.4 47.4,63.6 68.6,50.6 68.5,48.3 		"/>
	</g>
	<g>
		<polygon class="st9" points="47.4,50.3 47.5,52.5 78.3,33.8 78.2,31.6 		"/>
	</g>
</g>
<g>
	<g>
		<ellipse transform="matrix(0.5025 -0.8646 0.8646 0.5025 -35.9225 53.898)" class="st6" cx="28.9" cy="58.2" rx="15.8" ry="9.1"/>
	</g>
	<g>
		<g>
			<defs>
				
					<ellipse id="SVGID_1_" transform="matrix(0.5025 -0.8646 0.8646 0.5025 -35.9225 53.898)" cx="28.9" cy="58.2" rx="15.8" ry="9.1"/>
			</defs>
			<clipPath id="SVGID_2_">
				<use xlink:href="#SVGID_1_"  style="overflow:visible;"/>
			</clipPath>
			<g class="st10">
				<g>
					<path class="st11" d="M35.4,87.1l0.1,1.6c0,0-4.7,0.9-12.4,0.7c-0.5-1.2-0.5-1.5-0.5-1.5L35.4,87.1z"/>
					<rect x="33.7" y="87.3" class="st12" width="0.7" height="2"/>
					<rect x="24.6" y="87.8" class="st12" width="0.7" height="2"/>
					<rect x="28.7" y="87.6" class="st12" width="1.9" height="2"/>
					<g>
						<path class="st6" d="M26.8,62.6c0,0-5.6,1-6.8,3c-1.1,2-1.5,11.1-1.5,11.1l4,0.9L22,87.9c0,0,2.6,0.2,7.1,0.1
							c4.7-0.2,6.3-0.9,6.3-0.9s0.7-9.9,0.1-13.5c1.6-0.7,2.8-1.5,2.8-1.5s-1.1-8.2-1.8-8.9C35.8,62.6,31.6,61.2,26.8,62.6z"/>
						<path class="st13" d="M26.9,60.9c0,0-0.2,1.8-0.1,2.4c0.1,0.6,1,2,3,1.6c2-0.3,1.5-0.5,1.4-1.3S31,61.2,31,61.2L26.9,60.9z"/>
						<path class="st14" d="M30.9,61.7c0,0-3.6,0.1-3.9-0.4c-0.1,1-0.1,1-0.1,1S29.6,63,30.9,61.7z"/>
						<path class="st6" d="M23.6,69c0,0-2.2-4.7-3.4-3.8c-1.2,0.9-1.4,1.9-1.4,1.9c-0.1,1.1-0.6,12.3-0.8,13.3s-0.2,1.4,0,2.3
							s1.3,7.9,1.6,10.3c1.2-1.1,3.4-1.2,3.4-1.2v-0.7l-1-6.8c-0.3-1.4-0.3-3.2-0.2-3.9c0.1-0.8,0.4-3.1,1-3L23.6,69z"/>
						<path class="st6" d="M35.4,73.6c0,0,6,5.7,6.5,5.9c0.5,0.2,1-0.3,1.5-0.7c0.5-0.4,6.1-4.9,6.1-4.9l-2.1-4l-5.1,3.7
							c0,0-4.8-9.6-5.8-10.3"/>
					</g>
					<g>
						<g>
							<path class="st13" d="M29.2,62.1L29.2,62.1c-2.3,0-4.3-1.9-4.3-4.2l-0.1-5.2h8.8v5C33.5,60.1,31.6,62.1,29.2,62.1z"/>
							<path class="st15" d="M25.9,58.2L25.9,58.2c-0.7,0-1.3-0.5-1.3-1.3l-0.1-1.5h2.6v1.5C27.2,57.6,26.5,58.2,25.9,58.2z"/>
						</g>
						<path class="st11" d="M23.9,51.6c0.6-0.9,2.8-2.6,4.3-2.6c1.5,0.1,3.4,0.4,4.1,1.4c0.2,0.2,0.5,0.5,1,0.7
							c1.1,0.5,1.4,1.9,0.7,2.7c-0.7,0.9-1.6,1.5-2.9,1.5c-2.5-0.1-3.9-1.2-3.9-1.2s-0.5,0.3-0.4,0.8c0.1,0.4-0.1,1.5-0.1,1.9
							c0,0.3-0.5,0-0.5,0s-0.7-1.1-1.4-0.4C23.7,56,22.9,53,23.9,51.6z"/>
					</g>
				</g>
			</g>
		</g>
		<g>
			<defs>
				
					<ellipse id="SVGID_3_" transform="matrix(0.5025 -0.8646 0.8646 0.5025 -35.9225 53.898)" cx="28.9" cy="58.2" rx="15.8" ry="9.1"/>
			</defs>
			<clipPath id="SVGID_4_">
				<use xlink:href="#SVGID_3_"  style="overflow:visible;"/>
			</clipPath>
			<path class="st16" d="M25.9,62.8c-1.6,0.3-4.9,1.3-5.8,2.8c3,2.3,2.6,8.6,2.6,8.6l-0.5,10.2c0,0,0.4,2.4,0.5,3.6
				c1.1,0.1,3.3,0.1,6.4,0c4.7-0.2,6.4-0.9,6.4-0.9s0.7-9.9,0.1-13.5c1.4-5.9,1.6-9.7,1-10.3c-0.4-0.4-2.2-1.1-4.7-1.3
				c0,0-0.5,5.2-1.6,6.7C28,67.1,25.9,62.8,25.9,62.8z"/>
		</g>
		<g>
			<defs>
				
					<ellipse id="SVGID_5_" transform="matrix(0.5025 -0.8646 0.8646 0.5025 -35.9225 53.898)" cx="28.9" cy="58.2" rx="15.8" ry="9.1"/>
			</defs>
			<clipPath id="SVGID_6_">
				<use xlink:href="#SVGID_5_"  style="overflow:visible;"/>
			</clipPath>
			<g class="st17">
				<polygon class="st18" points="29.8,65 28,67.1 25.9,62.8 26.6,61.7 				"/>
				<polygon class="st18" points="29.8,65 31.4,66.6 31.8,62.1 30.9,61.3 				"/>
			</g>
		</g>
		<g>
			<defs>
				
					<ellipse id="SVGID_7_" transform="matrix(0.5025 -0.8646 0.8646 0.5025 -35.9225 53.898)" cx="28.9" cy="58.2" rx="15.8" ry="9.1"/>
			</defs>
			<clipPath id="SVGID_8_">
				<use xlink:href="#SVGID_7_"  style="overflow:visible;"/>
			</clipPath>
			<g class="st19">
				<g>
					<path class="st20" d="M33.6,67.5L33.6,67.5l0.3-0.2l0,0l0.1-0.5l0,0L33.6,67.5z"/>
				</g>
				<g>
					<path class="st20" d="M34.5,67.4L34.5,67.4l-0.3-0.1l0,0L34,66.9l0,0L34.5,67.4z"/>
				</g>
				<g>
					<path class="st20" d="M31.9,68.6l0.1-0.1c0.1,0.1,0.1,0.1,0.1,0.1c0.1,0,0.1-0.1,0.1-0.1V68h0.2v0.5c0,0.1,0,0.2-0.1,0.2
						c-0.1,0.1-0.1,0.1-0.2,0.1S31.9,68.7,31.9,68.6z"/>
				</g>
				<g>
					<path class="st20" d="M32.7,67.8l0.6-0.1v0.2L33,68v0.2l0.3-0.1v0.2l-0.3,0v0.2l0.4-0.1v0.2l-0.6,0.1v-0.9H32.7z"/>
				</g>
				<g>
					<path class="st20" d="M35,67.9l-0.3-0.4l0.2-0.1l0.2,0.3l0.2-0.3h0.2l-0.3,0.5v0.3H35L35,67.9L35,67.9z"/>
				</g>
				<g>
					<polygon class="st20" points="33.9,68.4 33.9,67.6 33.6,67.6 33.6,67.8 33.8,67.8 33.8,68.4 					"/>
				</g>
				<g>
					<polygon class="st20" points="34.1,68.4 34.1,67.6 34.5,67.5 34.5,67.7 34.2,67.8 34.2,68.3 					"/>
				</g>
			</g>
		</g>
	</g>
</g>
</svg>
