<?xml version="1.0" encoding="utf-8"?>
<!-- Generator: Adobe Illustrator 24.0.0, SVG Export Plug-In . SVG Version: 6.00 Build 0)  -->
<svg version="1.1" id="Layer_1" xmlns="http://www.w3.org/2000/svg" xmlns:xlink="http://www.w3.org/1999/xlink" x="0px" y="0px"
	 width="140px" height="140px" viewBox="0 0 140 140" style="enable-background:new 0 0 140 140;" xml:space="preserve">
<style type="text/css">
	.st0{fill:none;}
	.st1{fill:#BABCBE;}
	.st2{opacity:0.4;fill:#4D4D4F;enable-background:new    ;}
	.st3{fill:#F2F2F2;}
	.st4{fill:#E6E6E6;}
	.st5{fill:#626566;}
	.st6{fill:#465E67;}
	.st7{fill:#FFFFFF;}
	.st8{fill:#C8D6DD;}
	.st9{fill:#D47733;}
	.st10{fill:#4C4B4E;}
	.st11{fill:#727170;}
	.st12{fill:#809D99;}
	.st13{fill:#4C6775;}
	.st14{fill:#7095A1;}
	.st15{fill:#49BEAF;}
	.st16{fill:#2E887F;}
	.st17{fill:#006B71;}
	.st18{fill:#82CEC8;}
	.st19{fill:#6A9AA3;}
	.st20{fill:#BE1E2D;}
	.st21{fill:#2C2D2D;}
	.st22{fill:#CCCCCC;}
	.st23{fill:#999999;}
	.st24{fill:#ECEAD3;}
	.st25{fill:#603813;}
	.st26{fill:#0F2A4B;}
	.st27{fill:#C3996B;}
	.st28{fill:#F9C992;}
	.st29{fill:#E1AA73;}
	.st30{fill:#FAC882;}
	.st31{fill:#23323C;}
	.st32{fill:#F1F1F2;}
	.st33{fill:#4ABFA8;}
</style>
<g>
	<path class="st0" d="M13.3,28.9h-0.1H13.3z"/>
	<path class="st1" d="M101.4,115.8c-0.1,0-0.2,0-0.2,0C101.3,115.8,101.3,115.8,101.4,115.8z"/>
	<path class="st1" d="M99.6,115.5C99.5,115.5,99.5,115.5,99.6,115.5C99.5,115.5,99.5,115.5,99.6,115.5z"/>
	<path class="st1" d="M98.1,115.1c-0.1,0-0.1,0-0.2-0.1C98,115.1,98,115.1,98.1,115.1z"/>
	<path class="st1" d="M98.7,115.3c-0.1,0-0.1,0-0.2-0.1C98.6,115.3,98.7,115.3,98.7,115.3z"/>
	<path class="st1" d="M100.5,115.7c-0.1,0-0.2,0-0.2,0S100.4,115.7,100.5,115.7z"/>
	<path class="st2" d="M78.6,109.5L36.8,85.9c-0.9,2.1-3.1,2.9-5.6,2.3C49,98.5,71,111.1,83.7,118.4
		C80.9,116.1,78.9,112.7,78.6,109.5z"/>
	<path class="st2" d="M135.8,98.2c-2.2-2.3-6.9-4.3-7.4-5.4c-0.5-1-0.9-6.8-1.3-9s-0.5-4.5-4.7-6.9c-0.5-0.3-2.1-1.2-4.5-2.6
		c0.7,1.8,1.2,3.1,1.2,3.1s8.3,13.4,8.5,14.8c0,0.1,0,0.2,0.1,0.4c0,0.1,0,0.1,0,0.2s0,0.2,0,0.3c0,0.1,0,0.1,0,0.2
		c0,0.2,0,0.3,0.1,0.5c0,0.1,0,0.1,0,0.2c0,0.2,0,0.4,0.1,0.5c0,0.1,0,0.2,0,0.3c0,0.2,0,0.3,0.1,0.5c0,0.1,0,0.1,0,0.2
		c0.1,0.5,0.1,0.9,0.2,1.4c0,0.1,0,0.3,0.1,0.4c0,0.1,0,0.1,0,0.2s0,0.2,0,0.3l0,0c0.1,0.8,0.2,1.4,0.2,1.4c0.5,0.9,0.7,7.4,0.1,8.7
		c-0.6,1.3-5.3,4.6-7.8,6.1s-10.9,5.7-15.6,6.8c-4.8,1.1-9.3-1.3-9.3-1.3l-2.5-1.4c-1,2.4-3.5,3.4-6.4,2.4c4.1,2.4,6.8,3.9,7.1,4.1
		c1.9,1.1,5.5,3.6,9.2,1.4c3.7-2.1,29.3-16.7,31.9-18.6C137.9,105.3,137.9,100.5,135.8,98.2z"/>
	<path class="st1" d="M128.2,100.5c0-0.2,0.1-0.4,0.1-0.6C128.3,100.1,128.3,100.3,128.2,100.5z"/>
	<path class="st1" d="M104.6,115.7c-0.4,0.1-0.8,0.1-1.2,0.1C103.8,115.8,104.2,115.8,104.6,115.7z"/>
	<path class="st1" d="M103.1,115.8c-0.2,0-0.5,0-0.7,0C102.6,115.9,102.8,115.9,103.1,115.8z"/>
	<path class="st2" d="M22,77.5l-8.7-4.9c-0.6-0.7-3.1-5.6-3.1-5.6v-1.3v-1l0,0C6.4,67,3.8,68.6,3.3,69c-2.2,1.6-1.9,2.2,0,3.3
		c0.6,0.4,10.3,5.9,23.1,13.3C24.1,83.4,22.4,80.4,22,77.5z"/>
	<polygon class="st3" points="97,45.5 40.6,13 13.3,28.9 69.5,61.3 	"/>
	<polygon class="st4" points="10.2,37.7 10.2,37.7 10.2,52.4 10.2,52.4 	"/>
	<path class="st4" d="M42.3,45.6l-29-16.7l0,0l9.9,5.8l18.9,11C42.2,45.6,42.2,45.6,42.3,45.6z"/>
	<path class="st4" d="M102.3,109.5c-0.3-0.2-0.5-0.4-0.6-0.5c-0.3-0.3-3-3.5-3.1-4.4c-0.1-0.7,0-2.4,0.2-2.9
		c-1.5-1.9-8.5-8.3-8.5-8.3s-2.9-6.8-5.9-15.7c-3-8.8-14.8-16.4-14.8-16.4L42.3,45.6l-0.1,0.1l10,5.8l2.6,7.3l15.5,9.1v12.7L60.6,75
		l2.5,6.9c0.2,0.7-0.1,1.4-0.8,1.6L48,87.8L78.3,105c1.3-2.3,4.9-3.9,10-0.7c5.3,3.3,6.5,9.3,6.5,9.3s1.1,0.8,2.6,1.4
		c0.2,0.1,0.4,0.1,0.5,0.2c0.1,0,0.1,0,0.2,0.1c0.2,0.1,0.3,0.1,0.5,0.2c0.1,0,0.1,0,0.2,0.1c0.2,0.1,0.5,0.1,0.7,0.2h0.1
		c0.2,0.1,0.5,0.1,0.7,0.1c0.1,0,0.2,0,0.2,0c0.2,0,0.4,0.1,0.7,0.1c0.1,0,0.2,0,0.2,0c0.3,0,0.6,0,0.9,0
		C102.3,115.7,102.3,112.1,102.3,109.5z M76.3,101.6c0,0-3.3-5.6-3.3-8s1.4-4.1,3.1-3.8c1.8,0.2,3.2,2.3,3.3,4.7
		S76.3,101.6,76.3,101.6z M88.5,92.3L87.6,92v-0.8l-0.9-0.5v2.7c0,0.5-0.5,0.9-1,0.8l-1.9-0.4c-0.4-0.1-0.6-0.4-0.6-0.8v-5l-11-6.4
		V69l7.1,4.4c1.2,0.7,2.1,1.9,2.6,3.2l3.4,9.5l0.8,0.2c0.4,0.1,0.6,0.4,0.6,0.8v2.1l1.8,0.9V92.3z"/>
	<path class="st4" d="M59.3,81.4c-0.1,0-0.2,0.1-0.3,0.1l-14.3,4.3l0,0L59,81.5C59.1,81.5,59.2,81.4,59.3,81.4z"/>
	<path class="st4" d="M59.9,80.2c0,0.3,0,0.5-0.1,0.8C59.9,80.7,59.9,80.4,59.9,80.2z"/>
	<path class="st4" d="M15,69.7l-0.6-0.3C14.6,69.5,14.8,69.6,15,69.7z"/>
	<polygon class="st4" points="48.9,49.6 48.9,49.6 51.5,56.8 51.5,56.8 	"/>
	<path class="st4" d="M10.2,64.7v1V64.7z"/>
	<path class="st4" d="M42.3,45.6l-29-16.7l0,0L42.3,45.6L42.3,45.6z"/>
	<path class="st4" d="M69.5,61.3L42.3,45.6l0,0L69.5,61.3z"/>
	<path class="st5" d="M117.9,73.7c0.4-0.1,0.6-0.4,0.6-0.8v-6.4c0-0.5-0.5-0.9-1-0.8l-1.1,0.4c-0.4,0.1-0.6,0.4-0.6,0.8v2.4
		c0.7,1.6,1.3,3.1,1.8,4.4H117.9z"/>
	<path class="st6" d="M84.1,85.9l1.1,0.2l-3.4-9.5c-0.5-1.3-1.4-2.5-2.6-3.2l-7-4.4v12.6l11,6.4v-1.4C83.2,86.2,83.7,85.8,84.1,85.9
		z"/>
	<path class="st5" d="M86.7,89.2v-2.1c0-0.4-0.3-0.7-0.6-0.8l-0.8-0.2l1.4,4V89.2z"/>
	<path class="st5" d="M83.2,88v5.1c0,0.4,0.3,0.7,0.6,0.8l1.9,0.4c0.5,0.1,1-0.3,1-0.8v-2.7v-0.7L83.2,88z"/>
	<path class="st5" d="M85.3,86.1l-1.1-0.2c-0.5-0.1-1,0.3-1,0.8V88l3.5,2L85.3,86.1z"/>
	<polygon class="st5" points="86.7,90.1 86.7,90.8 87.6,91.2 87.6,92 88.5,92.3 88.5,90.1 86.7,89.2 	"/>
	<path class="st3" d="M118,74.4c-0.1-0.2-0.2-0.4-0.3-0.6l-0.5,0.2C117.5,74.2,117.7,74.3,118,74.4z"/>
	<path class="st3" d="M107,54.7c2.7,4.7,3.7,9.5,3.7,9.5c0.2-0.1,0.3-0.2,0.5-0.3c0.6-0.3,0.9-0.5,0.9-0.5l3.7,8.8v-2.8
		c-1.3-3.1-2.7-6.2-3.7-8.1c-2.4-4.5-4.8-7.8-6.9-10.3s-8.3-5.5-8.3-5.5S104.3,50.1,107,54.7z"/>
	<path class="st3" d="M116.8,74.2L116.8,74.2l1.4,3.6l0,0l0,0l0,0l0,0c0,0,0,0.1-0.1,0.1c0,0,0,0,0,0.1l-0.1,0.1l-0.1,0.1
		c0,0.1-0.1,0.1-0.1,0.2l-0.1,0.1c0,0.1-0.1,0.1-0.1,0.2l0,0c0,0,7.5,16.3,8,17.1c0.5,0.7,0.3,6,0.4,9.3c0.3-0.3,0.5-0.5,0.8-0.8
		c1.1-1.2,1.4-2.7,1.6-3.8c0-0.2,0.1-0.5,0.1-0.6c0.1-0.5,0.1-0.8,0.3-0.8c0,0-0.1-0.6-0.2-1.4c0,0.1-0.5,0.7-0.7,0.8
		c-0.1,0.2-1.4,1.4-1.8,1.1s-0.3-2.9-0.2-3.3c0.1-0.4,0.4-0.3,0.9-0.9s0.9-3,0.9-3c-0.2-1.4-8.5-14.8-8.5-14.8s-0.5-1.2-1.2-3.1
		c-0.2-0.1-0.5-0.3-0.8-0.4L116.8,74.2z"/>
	<path class="st3" d="M109.6,104.9c-0.4-0.7-15.3-12.8-15.3-12.8l0,0c-1.5,0.6-2.4,0.9-2.4,0.9l-5.8-14.8c0,0,1.4-0.8,3.5-2l0,0
		C88.1,70.7,79.6,64.1,76,63c-3.7-1.1-6.4-1.7-6.4-1.7s11.8,7.6,14.8,16.4s5.9,15.7,5.9,15.7s6.9,6.4,8.5,8.3
		c0.1-0.1,0.1-0.2,0.2-0.2c0.4,0.1,1.4,1.1,2,1.6c0.4,0.4,2,2.1,2.3,2.2c0.2,0,4.4,0,4.8,0s1.1-0.1,1.2,0.1c0,0,1.6,2.2,1.7,2.4
		c0.2,0.2-0.2,0.5-0.5,0.6c-0.2,0.1-6.7,1.2-7.3,1.3c-0.3,0-0.6-0.1-0.9-0.2c0,2.6,0,6.2,0,6.4l0,0c0.2,0,0.5,0,0.7,0
		c0.1,0,0.3,0,0.4,0c0.4,0,0.8-0.1,1.2-0.1c2-0.3,6.2-1.9,9.8-3.6C113.8,111.2,110,105.5,109.6,104.9z M76.3,65.5L76.3,65.5
		L76.3,65.5z"/>
	<path class="st3" d="M128.4,97.2c0,0.1,0,0.1,0,0.2C128.4,97.3,128.4,97.3,128.4,97.2z"/>
	<path class="st3" d="M128.2,95.5c0.1,0.5,0.1,0.9,0.2,1.4C128.3,96.4,128.2,96,128.2,95.5z"/>
	<path class="st3" d="M127.8,92.9c0,0.1,0,0.2,0,0.3C127.8,93.1,127.8,93,127.8,92.9z"/>
	<path class="st3" d="M127.9,93.4c0,0.2,0,0.3,0.1,0.5C127.9,93.7,127.9,93.6,127.9,93.4z"/>
	<path class="st3" d="M128,94.1c0,0.2,0,0.4,0.1,0.5C128,94.5,128,94.3,128,94.1z"/>
	<path class="st3" d="M128.1,94.9c0,0.2,0,0.3,0.1,0.5C128.1,95.2,128.1,95,128.1,94.9z"/>
	<path class="st3" d="M127.7,92.3c0,0.1,0,0.2,0.1,0.4C127.7,92.6,127.7,92.4,127.7,92.3z"/>
	<path class="st3" d="M116.4,73.6c0.3,0.2,0.5,0.3,0.8,0.4l0.5-0.2c-0.5-1.3-1.2-2.8-1.8-4.4v2.8L116.4,73.6z"/>
	<path class="st3" d="M116.8,74.2l0.4-0.2c-0.2-0.1-0.5-0.3-0.8-0.4L116.8,74.2C116.7,74.2,116.8,74.2,116.8,74.2z"/>
	<path class="st7" d="M107.1,54.7C104.4,50,97,45.4,97,45.4L69.6,61.3c-0.1,0,2.7,0.6,6.4,1.7s12.1,7.7,13.6,13.2
		c3.3-1.9,8.4-4.8,12.9-7.3c0.1,0,0.1-0.1,0.2-0.1c0.1,0,0.1-0.1,0.2-0.1c0.9-0.5,1.8-1,2.6-1.5c0,0,0,0-0.1,0
		c0.4-0.3,0.9-0.5,1.3-0.7c0.7-0.4,1.4-0.8,2.1-1.2c0.3-0.2,0.5-0.3,0.8-0.4c0.4-0.2,0.8-0.5,1.2-0.7
		C110.8,64.2,109.8,59.4,107.1,54.7z"/>
	<path class="st7" d="M117.3,78.9c-0.1,0.1-0.1,0.2-0.2,0.2c-0.1,0.1-0.1,0.1-0.2,0.2l0,0l0,0l0,0c-0.1,0.1-0.2,0.2-0.2,0.2
		c-0.1,0.1-0.2,0.2-0.2,0.2c-0.1,0.1-0.2,0.2-0.3,0.3l-0.1,0.1l0,0c-0.1,0.1-0.2,0.2-0.4,0.3c-0.2,0.2-0.5,0.4-0.7,0.6
		c-0.5,0.4-1.1,0.9-1.8,1.4c-1.4,1-3.1,2.1-5.3,3.3c-5.6,3.1-10.6,5.2-13.4,6.2l0,0c0,0,14.9,12.1,15.3,12.8
		c0.4,0.6,4.2,6.3,4.9,7.2c2.1-1,4.1-1.9,5.4-2.6c2.9-1.6,4.4-2.8,6.1-4.5c-0.1-3.3,0.1-8.5-0.4-9.3s-8-17.1-8-17.1l0,0
		C117.4,78.8,117.3,78.9,117.3,78.9z M105.7,90.9l-5.1,2.9c-0.2,0.1-0.4,0.1-0.5-0.1l-0.9-1C99,92.5,99,92.1,99.3,92l5.2-2.8
		c0.2-0.1,0.4-0.1,0.5,0.1l0.9,0.9C106,90.5,106,90.8,105.7,90.9z M123.6,98.5c0.4-0.5,1.3-1.2,1.4-0.7c0,0.2,0,0.6,0,1.1l0,0v1l0,0
		c0,1.2-0.1,2.5-0.1,2.9c-0.1,0.6-0.2,0.9-0.5,1.2c-0.4,0.3-2.9,2.4-3.6,2.8c-0.8,0.5-4.3,2.3-5.3,2.6c-1,0.3-1.5,0.3-1.8-0.1
		c-0.1-0.1-0.2-0.3-0.4-0.6c0,0,0,0-0.1,0l-0.3-0.7c-0.3-0.4-0.5-0.9-0.8-1.3l-0.2-0.3l0,0c-0.2-0.4-0.4-0.7-0.4-0.8
		c-0.3-0.6,0.2-1,0.9-1.1c0.6-0.1,4.6-1.5,6.6-2.6C120.9,100.9,123.2,99,123.6,98.5z M117.8,83.2l-3.4,2.5c-0.2,0.1-0.5,0.1-0.6-0.1
		l-0.7-0.8c-0.2-0.2-0.2-0.6,0.1-0.7l3.4-2.4c0.2-0.1,0.5-0.1,0.6,0.1l0.7,0.7C118.1,82.7,118.1,83,117.8,83.2z"/>
	<path class="st8" d="M128,94.6c0,0.1,0,0.2,0,0.3C128.1,94.8,128,94.7,128,94.6z"/>
	<path class="st8" d="M127.9,93.9c0,0.1,0,0.1,0,0.2C127.9,94,127.9,94,127.9,93.9z"/>
	<path class="st8" d="M128.4,97.6c0-0.1,0-0.2,0-0.3C128.4,97.5,128.4,97.6,128.4,97.6L128.4,97.6z"/>
	<path class="st8" d="M127.8,92.7c0,0.1,0,0.1,0,0.2C127.8,92.8,127.8,92.8,127.8,92.7z"/>
	<path class="st8" d="M127.8,93.2c0,0.1,0,0.1,0,0.2C127.9,93.3,127.8,93.3,127.8,93.2z"/>
	<path class="st8" d="M128.3,96.9c0,0.1,0,0.3,0.1,0.4C128.4,97.1,128.4,97,128.3,96.9z"/>
	<path class="st8" d="M128.1,95.4c0,0.1,0,0.1,0,0.2C128.1,95.5,128.1,95.4,128.1,95.4z"/>
	<path class="st8" d="M125.9,96.3c-0.1,0.4-0.2,3,0.2,3.3s1.7-1,1.8-1.1c0.1-0.2,0.7-0.7,0.7-0.8c0-0.1,0-0.2,0-0.3
		c0-0.1,0-0.1,0-0.2s0-0.2-0.1-0.4c-0.1-0.4-0.1-0.9-0.2-1.4c0-0.1,0-0.1,0-0.2c0-0.2,0-0.3-0.1-0.5c0-0.1,0-0.2,0-0.3
		c0-0.2-0.1-0.4-0.1-0.5s0-0.1,0-0.2c0-0.2,0-0.3-0.1-0.5c0-0.1,0-0.1,0-0.2s0-0.2,0-0.3c0-0.1,0-0.1,0-0.2s0-0.3-0.1-0.4
		c0,0-0.4,2.5-0.9,3C126.2,96,126,95.9,125.9,96.3z"/>
	<path class="st8" d="M98.5,104.6c0.1,0.9,2.9,4.1,3.1,4.4c0.1,0.2,0.4,0.4,0.6,0.5c0-0.8,0-1.6,0-2.1c0-0.2,0-0.4-0.1-0.6
		c0,0.7-0.2,1.4-0.3,1.3c-0.3-0.2-2.1-2.1-2.2-2.4c-0.2-0.2-0.7-1.1-0.7-1.2s0.1-1.4,0.1-1.7c0-0.2,0.2-0.2,0.4-0.1
		c-0.2-0.3-0.4-0.5-0.5-0.8c-0.1-0.1-0.1-0.2-0.2-0.3C98.5,102.2,98.4,103.9,98.5,104.6z"/>
	<path class="st8" d="M99.5,102.8c0.5,0.2,1.2,0.8,1.4,1c0.3,0.3,1.1,1.2,1.3,1.7c0.1,0.2,0.1,0.8,0,1.3c0,0.2,0.1,0.4,0.1,0.6
		c0,0.5,0,1.3,0,2.1c0.3,0.2,0.6,0.3,0.9,0.2c0.6-0.1,7-1.1,7.3-1.3c0.2-0.1,0.7-0.4,0.5-0.6s-1.7-2.4-1.7-2.4
		c-0.2-0.2-0.9-0.1-1.2-0.1c-0.4,0-4.6,0-4.8,0c-0.2,0-1.9-1.8-2.3-2.2c-0.5-0.5-1.6-1.6-2-1.6c-0.1,0-0.1,0.1-0.2,0.2
		c0.1,0.1,0.2,0.2,0.2,0.3C99.1,102.2,99.3,102.5,99.5,102.8z"/>
	<path class="st9" d="M99.1,102.9c0,0.3-0.1,1.5-0.1,1.7s0.5,1,0.7,1.2s1.9,2.2,2.2,2.4c0.2,0.1,0.3-0.6,0.3-1.3
		c-0.3-1.5-1.8-2.9-2.7-4C99.3,102.6,99.1,102.6,99.1,102.9z"/>
	<path class="st9" d="M102.2,105.5c-0.1-0.5-0.9-1.3-1.3-1.7c-0.2-0.2-0.9-0.8-1.4-1c0.9,1.1,2.4,2.5,2.7,4
		C102.2,106.3,102.2,105.7,102.2,105.5z"/>
	<path class="st10" d="M118.7,105.8L118.7,105.8v-1c-2.2,1-5.7,2.3-6.3,2.4l-0.2-0.4c0.2,0.4,0.5,0.9,0.8,1.3V108
		C112.8,108.1,116.2,107,118.7,105.8z"/>
	<path class="st10" d="M111.5,105.7c0.1,0.2,0.2,0.4,0.4,0.8c0.2-0.1,4.8-1.5,7.2-3c2.6-1.5,5.8-4.6,5.9-4.7c0-0.5,0-1,0-1.1
		c-0.1-0.5-1,0.2-1.4,0.7s-2.7,2.5-4.7,3.5c-1.9,1.1-5.9,2.5-6.6,2.6C111.7,104.7,111.2,105.1,111.5,105.7z"/>
	<path class="st10" d="M120.7,103.6L120.7,103.6v1c2.2-1.5,4.2-3.5,4.2-3.5v1c-0.4,0.5-3.1,3-5,4c-1.9,1.1-5.8,2.5-6.6,2.7
		c0.2,0.3,0.3,0.5,0.4,0.6c0.3,0.4,0.8,0.3,1.8,0.1c1-0.3,4.6-2.1,5.3-2.6c0.8-0.5,3.3-2.5,3.6-2.8c0.4-0.3,0.5-0.6,0.5-1.2
		c0-0.4,0.1-1.7,0.1-2.9C124.7,100.3,122.5,102.3,120.7,103.6z"/>
	<path class="st11" d="M125,99.9v-1l0,0C125,99.2,125,99.6,125,99.9L125,99.9z"/>
	<path class="st11" d="M111.9,106.5l0.2,0.3C112,106.7,112,106.6,111.9,106.5L111.9,106.5z"/>
	<path class="st11" d="M111.9,106.5c0.1,0.1,0.1,0.2,0.2,0.3l0.2,0.4c0.6-0.1,4.1-1.4,6.3-2.4v-0.2c0-0.1,0.1-0.2,0.1-0.3l1.4-0.9
		c0.2-0.1,0.4,0,0.4,0.2c1.8-1.3,4-3.3,4.3-3.7c0-0.4,0-0.7,0-1c-0.1,0.1-3.3,3.2-5.9,4.7C116.7,105,112.1,106.5,111.9,106.5z"/>
	<path class="st11" d="M113.2,108.8C113.2,108.8,113.3,108.8,113.2,108.8c-0.1-0.2-0.2-0.4-0.3-0.7L113.2,108.8z"/>
	<path class="st11" d="M124.9,102.1v-1c0,0-2,2-4.2,3.5v0.2c0,0.1-0.1,0.2-0.1,0.3l-1.4,0.9c-0.2,0.1-0.4,0-0.4-0.2
		c-2.5,1.2-5.8,2.3-5.8,2.3v0.1c0.1,0.2,0.3,0.5,0.4,0.6c0.8-0.2,4.7-1.6,6.6-2.7C121.8,105.1,124.5,102.6,124.9,102.1z"/>
	<path class="st6" d="M110.7,64.2c0.2-0.1,0.3-0.2,0.5-0.3C111.1,64,110.9,64.1,110.7,64.2L110.7,64.2L110.7,64.2z"/>
	<path class="st6" d="M118.2,77.8L118.2,77.8L118.2,77.8z"/>
	<path class="st6" d="M106.7,66.5c0.8-0.4,1.4-0.8,2.1-1.2C108.2,65.7,107.5,66.1,106.7,66.5z"/>
	<path class="st6" d="M110.7,64.2L110.7,64.2c-0.3,0.2-0.7,0.4-1.2,0.7C110,64.6,110.4,64.4,110.7,64.2L110.7,64.2z"/>
	<path class="st6" d="M102.7,68.8c-4.2,2.4-9.1,5.1-12.4,7c-0.2,0.1-0.4,0.2-0.6,0.3c-2.1,1.2-3.5,2-3.5,2L91.9,93l-1.1-2.9
		c0,0,10.4-6.2,12.4-7.1c1.9-0.9,1.3-2,1.5-2.7s0.9-1.3,3.1-2.4c1-0.5,4.6-1.7,4.6-1.7L102.7,68.8z"/>
	<path class="st12" d="M111.2,63.9c0.6-0.3,0.9-0.5,0.9-0.5S111.8,63.6,111.2,63.9z"/>
	<path class="st12" d="M106.7,66.5c-0.4,0.2-0.8,0.5-1.3,0.7l0,0C105.9,67,106.3,66.7,106.7,66.5z"/>
	<path class="st12" d="M108.8,65.3c0.3-0.2,0.5-0.3,0.8-0.4C109.3,65,109.1,65.2,108.8,65.3z"/>
	<path class="st12" d="M116.8,79.4L116.8,79.4L116.8,79.4z"/>
	<g>
		<path class="st12" d="M102.7,68.8c3.1-1.8,8-4.6,8-4.6c0.2-0.1,0.4-0.2,0.5-0.3c0.6-0.3,0.9-0.5,0.9-0.5s1,4.2,2,8.8l0.8,3.3
			l-2.5,0.7L102.7,68.8z"/>
	</g>
	<path class="st13" d="M117.7,78.4L117.7,78.4C117.7,78.5,117.7,78.5,117.7,78.4z"/>
	<path class="st13" d="M118.1,77.9C118.1,78,118.1,78,118.1,77.9C118.1,78,118.1,78,118.1,77.9z"/>
	<path class="st13" d="M118.2,77.8L118.2,77.8L118.2,77.8z"/>
	<path class="st13" d="M118,78.1C117.9,78.2,117.9,78.2,118,78.1C117.9,78.2,117.9,78.2,118,78.1z"/>
	<path class="st13" d="M115.9,80.3L115.9,80.3C115.9,80.2,115.9,80.3,115.9,80.3L115.9,80.3z"/>
	<path class="st13" d="M117,79.2c-0.1,0.1-0.1,0.1-0.2,0.2C116.9,79.3,117,79.2,117,79.2z"/>
	<path class="st13" d="M116.6,79.6c-0.1,0.1-0.2,0.2-0.2,0.2C116.4,79.8,116.5,79.7,116.6,79.6z"/>
	<path class="st13" d="M117.4,78.8c0,0.1-0.1,0.1-0.2,0.2C117.3,78.9,117.4,78.8,117.4,78.8z"/>
	<path class="st13" d="M118.2,77.8L118.2,77.8L118.2,77.8z"/>
	<path class="st13" d="M115.9,73.2v-1l-3.7-8.8c0,0,1,4.3,2,8.8C114.7,72.6,115.3,72.9,115.9,73.2z"/>
	<path class="st13" d="M115.9,73.4L115.9,73.4c-0.6-0.4-1.1-0.8-1.7-1.1c0.2,1.1,0.5,2.2,0.7,3.2c1.2-0.4,2.1-0.6,2.1-0.6l1.2,2.9
		l0,0l-1.5-3.6C116.2,74.2,115.9,73.8,115.9,73.4z"/>
	<path class="st13" d="M116.4,73.6l-0.6-1.3v1C116,73.3,116.2,73.5,116.4,73.6z"/>
	<path class="st13" d="M115.9,73.4c0,0.5,0.4,0.8,0.8,0.8l-0.3-0.6C116.2,73.5,116,73.4,115.9,73.4L115.9,73.4L115.9,73.4z"/>
	<path class="st14" d="M118.2,77.8L118.2,77.8L118.2,77.8L118.2,77.8L118.2,77.8z"/>
	<path class="st14" d="M117.5,78.7L117.5,78.7L117.5,78.7L117.5,78.7z"/>
	<path class="st14" d="M117.5,78.7c0.1-0.1,0.1-0.1,0.1-0.2l0,0C117.6,78.6,117.5,78.6,117.5,78.7z"/>
	<path class="st14" d="M117.7,78.4L117.7,78.4c0.1-0.1,0.1-0.1,0.1-0.2l0,0C117.8,78.3,117.8,78.3,117.7,78.4z"/>
	<path class="st14" d="M118,78.1L118,78.1C118,78,118.1,78,118,78.1L118,78.1C118,78,118,78.1,118,78.1z"/>
	<path class="st14" d="M118.1,77.9L118.1,77.9L118.1,77.9C118.2,77.8,118.2,77.8,118.1,77.9L118.1,77.9z"/>
	<path class="st14" d="M115.5,80.6c0.1-0.1,0.2-0.2,0.4-0.3l0,0C115.7,80.4,115.6,80.5,115.5,80.6z"/>
	<path class="st14" d="M116.6,79.6L116.6,79.6c0.1-0.1,0.2-0.2,0.2-0.2l0,0C116.7,79.5,116.7,79.6,116.6,79.6z"/>
	<path class="st14" d="M116,80.2L116,80.2c0.1-0.1,0.2-0.2,0.3-0.3l0,0C116.2,80,116.1,80.1,116,80.2z"/>
	<path class="st14" d="M114.8,81.2c-0.5,0.4-1.1,0.9-1.8,1.4C113.6,82.1,114.2,81.7,114.8,81.2z"/>
	<path class="st14" d="M117.4,78.8L117.4,78.8C117.4,78.7,117.4,78.7,117.4,78.8L117.4,78.8C117.4,78.7,117.4,78.7,117.4,78.8z"/>
	<path class="st14" d="M116.8,79.4L116.8,79.4L116.8,79.4L116.8,79.4L116.8,79.4z"/>
	<path class="st14" d="M117,79.2L117,79.2c0.1-0.1,0.2-0.2,0.2-0.2l0,0C117.2,79,117.1,79.1,117,79.2z"/>
	<path class="st14" d="M118,78L118,78C118,78.1,118,78,118,78z"/>
	<path class="st14" d="M118.2,77.8L118.2,77.8L118.2,77.8L118.2,77.8z"/>
	<path class="st14" d="M117.9,78.2c0,0.1-0.1,0.1-0.1,0.2C117.8,78.3,117.8,78.3,117.9,78.2z"/>
	<path class="st14" d="M117.4,78.7L117.4,78.7L117.4,78.7C117.5,78.7,117.5,78.7,117.4,78.7c0.1-0.1,0.1-0.1,0.2-0.2
		C117.6,78.6,117.5,78.7,117.4,78.7z"/>
	<path class="st14" d="M118.2,77.8C118.1,77.9,118.1,77.9,118.2,77.8C118.1,77.9,118.1,77.9,118.2,77.8z"/>
	<path class="st14" d="M117,79.2c0.1-0.1,0.2-0.2,0.2-0.2S117.1,79.1,117,79.2z"/>
	<path class="st14" d="M116.3,79.9c-0.1,0.1-0.2,0.2-0.3,0.3C116.1,80.1,116.2,80,116.3,79.9z"/>
	<path class="st14" d="M116.6,79.6c0.1-0.1,0.2-0.2,0.2-0.2l0,0C116.7,79.5,116.7,79.6,116.6,79.6z"/>
	<path class="st14" d="M116.8,79.4L116.8,79.4L116.8,79.4L116.8,79.4z"/>
	<path class="st14" d="M117.5,78.7L117.5,78.7L117.5,78.7C117.4,78.7,117.4,78.7,117.5,78.7C117.4,78.7,117.4,78.7,117.5,78.7z"/>
	<polygon class="st14" points="116.8,79.4 116.8,79.4 116.8,79.4 	"/>
	<polygon class="st14" points="116.8,79.4 116.8,79.4 116.8,79.4 	"/>
	<path class="st14" d="M118.2,77.8L118.2,77.8L118.2,77.8L118.2,77.8L118.2,77.8z"/>
	<path class="st14" d="M117.9,78.2L117.9,78.2L117.9,78.2L117.9,78.2C117.9,78.2,117.9,78.2,117.9,78.2z"/>
	<path class="st14" d="M117.6,78.5L117.6,78.5L117.6,78.5L117.6,78.5C117.7,78.5,117.7,78.5,117.6,78.5z"/>
	<path class="st14" d="M118,78C118,78,118.1,78,118,78C118.1,78,118.1,78,118,78C118.1,77.9,118.1,77.9,118,78
		C118.1,78,118.1,78,118,78z"/>
	<path class="st14" d="M116.8,79.4L116.8,79.4c0.1-0.1,0.1-0.1,0.2-0.2l0,0C117,79.2,116.9,79.3,116.8,79.4z"/>
	<path class="st14" d="M115.9,80.3L115.9,80.3L115.9,80.3L115.9,80.3C115.9,80.2,115.9,80.3,115.9,80.3z"/>
	<path class="st14" d="M117.3,78.9c0.1-0.1,0.1-0.1,0.2-0.2l0,0C117.4,78.8,117.3,78.9,117.3,78.9L117.3,78.9z"/>
	<path class="st14" d="M116.3,79.9L116.3,79.9c0.1-0.1,0.2-0.2,0.2-0.2l0,0C116.5,79.7,116.4,79.8,116.3,79.9z"/>
	<path class="st14" d="M117.4,78.7c0.1-0.1,0.1-0.1,0.2-0.2l0.1-0.1c0.1-0.1,0.1-0.1,0.1-0.2l0.1-0.1L118,78c0,0,0,0,0.1-0.1
		c0,0,0-0.1,0.1-0.1l0,0l0,0l0,0l-0.9,1L117.4,78.7z"/>
	<path class="st14" d="M116.8,79.4L116.8,79.4c0.1-0.1,0.2-0.2,0.2-0.2c0.1-0.1,0.2-0.2,0.2-0.2c0.1-0.1,0.1-0.1,0.2-0.2l0,0
		l-0.1,0.1L116.8,79.4z"/>
	<path class="st14" d="M118.3,77.8l-1.2-2.9c0,0-0.9,0.2-2,0.6c0,0,0,0,0,0c-0.8,0.2-1.7,0.5-2.7,0.8c0,0,0,0,0,0
		c-1.8,0.6-3.7,1.2-4.6,1.7c-2.2,1.1-2.9,1.7-3.1,2.4s0.4,1.8-1.5,2.7c-1.9,0.9-12.4,7.1-12.4,7.1l1.1,2.9c0,0,0.9-0.3,2.4-0.9
		c2.8-1.1,7.8-3.1,13.4-6.2c2.1-1.2,3.9-2.3,5.3-3.3c0.7-0.5,1.3-1,1.8-1.4c0.3-0.2,0.5-0.4,0.7-0.6c0.1-0.1,0.2-0.2,0.4-0.3
		l0.1-0.1c0.1-0.1,0.2-0.2,0.3-0.3c0.1-0.1,0.2-0.2,0.2-0.2c0.1-0.1,0.2-0.2,0.2-0.2l0.1-0.1l0.6-0.6L118.3,77.8z"/>
	<polygon class="st6" points="70.2,80.5 70.2,67.8 54.7,58.7 60.6,74.9 	"/>
	<path class="st6" d="M51.5,56.8l0.5,1.4L51.5,56.8z"/>
	<path class="st15" d="M76.1,89.8c-1.8-0.2-3.2,1.5-3.1,3.8s3.3,8,3.3,8s3.1-4.8,3.1-7.1S77.8,90,76.1,89.8z M76.2,97.1
		c-1.3-0.2-2.4-1.7-2.4-3.4c0-1.7,1-3,2.3-2.8s2.4,1.7,2.4,3.4C78.5,96.1,77.5,97.3,76.2,97.1z"/>
	<path class="st4" d="M76.1,90.9c-1.3-0.2-2.3,1.1-2.3,2.8c0,1.7,1.1,3.2,2.4,3.4c1.3,0.2,2.3-1.1,2.3-2.8
		C78.4,92.6,77.4,91.1,76.1,90.9z"/>
	<path class="st15" d="M13.3,28.9L13.3,28.9l-2.8,7c-0.2,0.6-0.3,1.1-0.3,1.7l0,0c0-0.6,0.1-1.2,0.3-1.8L13.3,28.9z"/>
	<path class="st16" d="M30.2,50.7V52l-3.6-2.1v1.4l3.1,1.8c1.3-0.8,2.5-1.5,3.8-2.3h-1.4v-0.5l2.7-2.2V47l0.8,0.4l0,0l-21-12.3
		L14,36.2c-0.3,0.6-0.4,1.2-0.4,1.8v9.5l5.3,3.1c-0.4-0.4-0.7-0.8-0.9-1.2l0.9-0.5c0.4,0.7,0.8,1.1,1.2,1.4c0.6,0.3,0.9,0.2,0.9-0.6
		v-4.4l1.5,0.9v4.4c0,0.8-0.2,1.3-0.6,1.4c-0.1,0.1-0.3,0.1-0.5,0.1l3.6,2.1v-6.6L30.2,50.7z"/>
	<path class="st16" d="M26.5,52.6V54l0.7,0.4c0.4-0.2,0.8-0.5,1.2-0.7L26.5,52.6z"/>
	<path class="st16" d="M37.3,48.5L36.4,48l0.4,0.8C37,48.7,37.1,48.6,37.3,48.5z"/>
	<path class="st16" d="M36,47.8v1.5c0.1-0.1,0.2-0.1,0.3-0.2L36,47.8L36,47.8L36,47.8L36,47.8z"/>
	<path class="st16" d="M39.8,54.8v0.5l-3-3.3c-0.1-0.1-0.1-0.2-0.1-0.2l-0.5-2.6c-0.1,0.1-0.2,0.1-0.3,0.2v11.3l0.4,0.2v-6.6l3.4,2
		v1.4l-2.1-1.2v5.2l6,3.5v-2.5L41,57.1l1.7,1l1.6,3.7L46,60l1.7,1l-2.6,2.6V66l7.8,4.5v-9.4l-1-2.9l-0.5-1.3l-14.2-8.3
		c-0.2,0.1-0.3,0.2-0.5,0.3L39.8,54.8z"/>
	<polygon class="st16" points="54.3,71.2 57.3,73 54.3,64.6 	"/>
	<path class="st16" d="M32,53.2v-1.4l2.7,1.5v-2.4h-1.3c-1.3,0.7-2.5,1.5-3.8,2.3l0.1,0.1v1.3l-1.2-0.7c-0.4,0.2-0.8,0.5-1.2,0.7
		l2.9,1.7v1.1l3.9,2.2v-5.2L32,53.2z"/>
	<polygon class="st15" points="53,70.6 54.3,71.3 54.3,71.2 53,70.5 	"/>
	<polygon class="st17" points="53,61.1 53,70.5 54.3,71.2 54.3,64.6 	"/>
	<polygon class="st15" points="35.5,60.4 36,60.7 36,60.7 	"/>
	<path class="st17" d="M36,49.3v-1.5l-0.1-0.1l-0.5,2C35.6,49.6,35.8,49.4,36,49.3z"/>
	<polygon class="st17" points="34.7,47.1 34.7,48.1 35.5,47.5 	"/>
	<path class="st17" d="M35.4,49.7l-0.2,1.1c0,0.1,0,0.1-0.1,0.1h-0.3v2.4l0.8,0.4v6.6l0.5,0.3V49.3C35.8,49.4,35.6,49.6,35.4,49.7z"
		/>
	<path class="st15" d="M42.1,45.7l-18.9-11L42.1,45.7L42.1,45.7z"/>
	<path class="st18" d="M63,81.7l-2.5-6.9L57.3,73l2.5,6.9c0,0.1,0.1,0.2,0.1,0.3c0,0.3,0,0.5-0.1,0.8c-0.1,0.2-0.3,0.3-0.4,0.5
		c-0.1,0-0.2,0.1-0.3,0.1l-14.3,4.3l3.2,1.8l14.3-4.3C62.9,83.1,63.3,82.4,63,81.7z"/>
	<polygon class="st19" points="53,57.8 54.3,58.5 54.3,64.6 57.3,73 60.6,74.9 54.7,58.7 51.5,56.8 52,58.2 53,61.1 	"/>
	<polygon class="st17" points="53,57.8 53,61.1 54.3,64.6 54.3,58.5 	"/>
	<polygon class="st15" points="23.2,34.7 17.3,31.3 17.3,31.3 42.1,45.7 42.1,45.7 	"/>
	<path class="st15" d="M57.3,73L57.3,73l2.5,6.9c0,0.1,0.1,0.2,0.1,0.2c0-0.1,0-0.2-0.1-0.3L57.3,73z"/>
	<path class="st15" d="M59.7,80.9c-0.1,0.2-0.3,0.3-0.4,0.5C59.5,81.3,59.6,81.1,59.7,80.9z"/>
	<polygon class="st15" points="54.3,64.6 54.3,64.6 57.3,73 57.3,73 	"/>
	<polygon class="st15" points="52,58.2 53,61.1 53,61.1 	"/>
	<polygon class="st15" points="54.3,64.6 53,61.1 53,61.1 	"/>
	<g>
		<path class="st7" d="M35.8,47.3l-0.3,0.2l0,0l-0.8,0.6L32,50.3v0.5h1.4h1.3H35c0.1,0,0.1-0.1,0.1-0.1l0.2-1.1l0.5-2l0,0V47.3
			C35.9,47.3,35.8,47.2,35.8,47.3z"/>
		<path class="st7" d="M36.4,48l-0.3-0.6c0-0.1-0.1-0.1-0.1,0l0.1,0.4l0.2,1.3l0.5,2.6c0,0.1,0,0.2,0.1,0.2l3,3.3v-0.5l-3-6L36.4,48
			z"/>
		<path class="st7" d="M21,49.8c0,0.8-0.3,0.9-0.9,0.6c-0.5-0.3-0.9-0.7-1.2-1.4L18,49.5c0.2,0.4,0.5,0.8,0.9,1.2s0.8,0.8,1.3,1.1
			s0.9,0.4,1.3,0.5c0.2,0,0.3,0,0.5-0.1c0.4-0.2,0.6-0.6,0.6-1.4v-4.4l-1.6-1V49.8z"/>
		<polygon class="st7" points="26.5,54.1 26.5,52.6 28.5,53.8 29.7,54.5 29.7,53.2 29.6,53.1 26.5,51.3 26.5,49.9 30.2,52 
			30.2,50.7 25,47.7 25,54.3 25,54.5 26.1,55.2 30.2,57.5 30.2,57.3 30.2,56.2 27.3,54.5 		"/>
		<polygon class="st7" points="46.2,60 44.5,61.7 42.9,58.1 41.2,57.1 43.8,62.7 43.8,65.2 43.8,65.4 45.3,66.2 45.3,66 45.3,63.5 
			47.9,60.9 		"/>
		<polygon class="st7" points="32,51.8 32,53.2 34.1,54.4 34.1,59.6 34.1,59.8 35.5,60.6 35.5,60.4 35.5,60.4 35.5,53.8 34.7,53.3 
					"/>
		<polygon class="st7" points="36.4,60.9 36.4,61.1 37.7,61.9 37.7,61.7 37.7,56.5 39.8,57.7 39.8,56.3 36.4,54.3 		"/>
	</g>
	<path class="st20" d="M10.2,52.4L10.2,52.4v12.3l0,0l0,0V52.4z"/>
	<path class="st20" d="M10.2,64.7L10.2,64.7L10.2,64.7L10.2,64.7z"/>
	<polygon class="st20" points="10.2,64.7 10.2,52.4 10.2,52.4 	"/>
	<polygon class="st20" points="10.2,64.7 10.2,64.7 10.2,64.7 	"/>
	<path class="st20" d="M12.6,53.9l-0.9-1.5h-1.5v13l2.4-1.5C12.6,63.9,12.6,53.9,12.6,53.9z"/>
	<path class="st21" d="M128.3,99.9c0,0.2-0.1,0.4-0.1,0.6c-0.2,1.1-0.4,2.7-1.6,3.9c-0.3,0.3-0.5,0.6-0.8,0.8l0,0
		c-0.9,1.4-1.9,2.4-3,3.3h0.1c0.3-0.2,0.6,0,0.6,0.3v1.9c0,0.1-0.1,0.3-0.2,0.3l-5.6,3.2c-0.3,0.2-0.6,0-0.6-0.3V112
		c0-0.1,0.1-0.3,0.2-0.3l0.4-0.2c-1.9,0.7-3.2,0.7-3.2,0.7c-3.7,1.6-8,3.1-9.9,3.4c-0.4,0.1-0.8,0.1-1.2,0.1c-0.1,0-0.3,0-0.4,0
		c-0.2,0-0.5,0-0.7,0l0,0c-0.3,0-0.6,0-0.9,0c-0.1,0-0.2,0-0.2,0c-0.2,0-0.4-0.1-0.7-0.1c-0.1,0-0.2,0-0.2,0c-0.2,0-0.5-0.1-0.7-0.1
		h-0.1c-0.3-0.1-0.5-0.1-0.7-0.2c-0.1,0-0.1,0-0.2-0.1c-0.2-0.1-0.3-0.1-0.5-0.2c-0.1,0-0.1,0-0.2-0.1c-0.2-0.1-0.4-0.1-0.5-0.2
		c-1.5-0.6-2.6-1.2-2.6-1.2s-1.2-6.2-6.6-9.6c-5.1-3.2-8.7-1.6-10,0.7l-30.3-17l-1.1,0.3l-3.2-1.8l1.1-0.3l0,0l-1.2,0.3l-6.3-3.6
		c0,0.4,0.1,0.9,0,1.3c-0.1,0.8-0.2,1.5-0.5,2.1l41.8,23.6c-0.1-0.5-0.1-1,0-1.5c0.3-4.3,4-5.9,8.2-3.6c4.3,2.2,7.5,7.5,7.2,11.8
		c0,0.7-0.2,1.3-0.4,1.9l2.5,1.4c0,0,4.6,2.5,9.3,1.3c4.8-1.1,13.1-5.3,15.6-6.8s7.1-4.9,7.8-6.1c0.6-1.3,0.4-7.8-0.1-8.7
		C128.4,99.1,128.4,99.4,128.3,99.9z M110.2,117.1c0,0.1,0,0.2-0.1,0.2l-1.2,0.6c-0.2,0.1-0.4,0-0.4-0.2v-1.3c0-0.1,0-0.2,0.1-0.2
		l1.2-0.6c0.2-0.1,0.4,0,0.4,0.2V117.1z M127.8,107.1c0,0.1,0,0.2-0.1,0.2l-0.8,0.7c-0.2,0.1-0.4,0-0.4-0.2v-1.3
		c0-0.1,0-0.2,0.1-0.2l0.8-0.7c0.2-0.1,0.4,0,0.4,0.2V107.1z"/>
	<path class="st21" d="M21.9,75.7c0-0.7,0.2-1.3,0.4-1.8L15,69.7c-0.2-0.1-0.4-0.2-0.6-0.3l-0.3-0.2l-3.9-3.5V67
		c0,0,2.6,4.9,3.1,5.6l8.7,4.9C21.9,76.9,21.9,76.3,21.9,75.7z"/>
	<path class="st21" d="M99.5,115.5c-0.3-0.1-0.5-0.1-0.7-0.2C99,115.4,99.2,115.4,99.5,115.5z"/>
	<path class="st21" d="M101.4,115.8c0.3,0,0.6,0,0.9,0l0,0C102,115.9,101.7,115.8,101.4,115.8z"/>
	<path class="st21" d="M100.3,115.7c-0.2,0-0.5-0.1-0.7-0.1C99.8,115.6,100,115.6,100.3,115.7z"/>
	<path class="st21" d="M101.2,115.8c-0.2,0-0.4-0.1-0.7-0.1C100.7,115.7,100.9,115.8,101.2,115.8z"/>
	<path class="st21" d="M97.9,115c-0.2-0.1-0.4-0.1-0.5-0.2C97.5,114.9,97.7,115,97.9,115z"/>
	<path class="st21" d="M88.2,104.1c5.3,3.3,6.6,9.6,6.6,9.6s1.1,0.6,2.6,1.2c-1.5-0.6-2.6-1.4-2.6-1.4S93.6,107.4,88.2,104.1z"/>
	<path class="st21" d="M98.6,115.3c-0.2-0.1-0.3-0.1-0.5-0.2C98.2,115.2,98.4,115.2,98.6,115.3z"/>
	<path class="st21" d="M103.4,115.8c-0.1,0-0.3,0-0.4,0C103.2,115.8,103.3,115.8,103.4,115.8z"/>
	<path class="st21" d="M128.3,99.9c0.1-0.5,0.1-0.8,0.3-0.8C128.4,99.1,128.4,99.4,128.3,99.9z"/>
	<path class="st21" d="M126.6,104.4c1.1-1.2,1.4-2.8,1.6-3.9C128.1,101.6,127.8,103.1,126.6,104.4c-0.3,0.2-0.5,0.5-0.8,0.7
		c0,0.1,0,0.1,0,0.2C126.1,105,126.4,104.7,126.6,104.4z"/>
	<path class="st21" d="M114.5,112.1c-3.7,1.6-7.9,3.2-9.8,3.6c2-0.3,6.2-1.8,9.9-3.4l0,0C114.6,112.3,114.5,112.2,114.5,112.1z"/>
	<path class="st21" d="M102.3,115.9L102.3,115.9L102.3,115.9L102.3,115.9z"/>
	<path class="st21" d="M120.1,109.7c-1.3,0.7-3.3,1.7-5.6,2.6c0,0,1.3-0.1,3.2-0.7l5.2-3c1-0.9,2.1-2,3-3.3l0,0
		C124.3,106.9,123.1,108.1,120.1,109.7z"/>
	<path class="st21" d="M114.5,112.1c0.1,0.1,0.1,0.2,0.1,0.2l0,0c2.2-0.9,4.3-1.9,5.6-2.6c2.9-1.6,4.2-2.8,5.7-4.4
		c0-0.1,0-0.1,0-0.2c-1.6,1.7-3.1,2.8-6.1,4.5C118.6,110.2,116.6,111.2,114.5,112.1z"/>
	<path class="st21" d="M14.5,69.4c-0.2-0.1-0.4-0.3-0.5-0.4c-0.6-0.5-3.7-3.3-3.7-3.3l3.9,3.5L14.5,69.4z"/>
	<path class="st21" d="M31.9,72.2c-5.6-4.2-9.5-1.6-10.2,0.7c-3.8-1.7-5.7-2.6-6.7-3.2l7.3,4.2c1.1-2.9,4.3-3.7,7.8-1.8
		c3.8,2,6.8,6.5,7.2,10.5l6.3,3.6l1.2-0.3l-6.4-3.6C38.3,82.1,37.5,76.4,31.9,72.2z"/>
	<polygon class="st21" points="43.6,86.1 46.8,87.9 47.9,87.6 44.7,85.8 	"/>
	<path d="M85.7,119.7c0.5,0.2,0.9,0.4,1.4,0.6c-1-0.6-2.2-1.2-3.4-1.9C84.3,118.9,85,119.4,85.7,119.7z"/>
	<path d="M93.5,118l-2.3-1.3c-0.9,1.8-3,2.3-5.4,1c-2.6-1.3-4.6-4.2-5-6.9l-2.1-1.2c0.4,3.2,2.4,6.6,5.1,8.9
		c1.2,0.7,2.3,1.3,3.4,1.9C90.1,121.4,92.6,120.4,93.5,118z"/>
	<path d="M86.7,104.3c-4.3-2.2-7.9-0.6-8.2,3.6c0,0.5,0,1,0,1.5l2.1,1.2c-0.1-0.5-0.1-1-0.1-1.5c0.2-3,2.8-4.2,5.9-2.6
		c3,1.6,5.3,5.4,5.1,8.4c0,0.6-0.2,1.2-0.4,1.6l2.3,1.3c0.2-0.6,0.4-1.2,0.4-1.9C94.2,111.8,91,106.6,86.7,104.3z"/>
	<path class="st22" d="M86.4,115.4c-1.2-0.6-2.2-1.8-2.9-3.1l-2.9-1.6c0.5,2.7,2.5,5.6,5,6.9c2.4,1.3,4.6,0.8,5.4-1l-1.9-1.1
		C88.6,116,87.6,116,86.4,115.4z"/>
	<path class="st22" d="M86.5,106.6c-3-1.6-5.7-0.4-5.9,2.6c0,0.5,0,1,0.1,1.5l2.9,1.6c-0.4-0.9-0.7-1.8-0.6-2.6c0.1-2,1.9-2.8,4-1.8
		c2,1.1,3.6,3.6,3.5,5.7c-0.1,0.9-0.5,1.6-1.1,1.9l1.9,1.1c0.2-0.5,0.4-1,0.4-1.6C91.8,112,89.5,108.2,86.5,106.6z"/>
	<path class="st23" d="M86.4,115.4c1.1,0.6,2.1,0.6,2.9,0.2l-5.7-3.2C84.2,113.6,85.2,114.8,86.4,115.4z"/>
	<path class="st23" d="M90.4,113.7c0.1-2-1.4-4.6-3.5-5.7c-2-1.1-3.8-0.3-4,1.8c-0.1,0.8,0.2,1.7,0.6,2.6l5.7,3.2
		C89.9,115.2,90.3,114.6,90.4,113.7z M87,113c-0.3,0.3-0.9,0-1.3-0.5s-0.4-1.2-0.1-1.4c0.3-0.3,0.9,0,1.3,0.5S87.3,112.7,87,113z"/>
	<path d="M85.5,111.1c-0.3,0.3-0.3,0.9,0.1,1.4s1,0.8,1.3,0.5s0.3-0.9-0.1-1.4S85.9,110.8,85.5,111.1z"/>
	<path d="M29.1,87.4c0.7,0.4,1.4,0.6,2.1,0.8c-1.6-0.9-3.2-1.9-4.8-2.7C27.2,86.3,28.1,86.9,29.1,87.4z"/>
	<path d="M36.8,85.9l-2.4-1.3c-1,1.6-3,2-5.3,0.7c-2.4-1.3-4.4-4-5-6.6L22,77.5c0.4,2.8,2.1,5.8,4.4,8c1.5,0.9,3.1,1.8,4.8,2.7
		C33.7,88.9,35.9,88,36.8,85.9z"/>
	<path d="M37.3,82.5l-2.4-1.4c0.1,0.6,0.1,1.1,0.1,1.6c0,0.7-0.2,1.4-0.5,1.9l2.4,1.3c0.3-0.6,0.5-1.3,0.5-2.1
		C37.3,83.4,37.3,82.9,37.3,82.5z"/>
	<path d="M24,76.9c0-0.7,0.2-1.3,0.5-1.8l-2.2-1.3c-0.2,0.5-0.3,1.1-0.4,1.8c0,0.6,0,1.2,0.1,1.9l2.1,1.2C24,78.1,23.9,77.5,24,76.9
		z"/>
	<path d="M30.1,72c-3.6-1.9-6.8-1-7.8,1.8l2.2,1.3c0.9-1.6,3-2,5.4-0.8c2.5,1.3,4.5,4.1,5,6.8l2.4,1.4C36.9,78.5,34,74,30.1,72z"/>
	<path class="st22" d="M29.8,83.1c-1.1-0.6-2-1.5-2.6-2.6l-3.1-1.7c0.6,2.6,2.5,5.3,5,6.6c2.3,1.2,4.4,0.8,5.3-0.7l-2-1.2
		C31.7,83.7,30.8,83.6,29.8,83.1z"/>
	<path class="st22" d="M26.4,77.4c0-0.4,0.1-0.8,0.3-1.1l-2.2-1.2c-0.3,0.5-0.5,1.1-0.5,1.8c0,0.6,0,1.2,0.2,1.8l3.1,1.7
		C26.6,79.5,26.3,78.4,26.4,77.4z"/>
	<path class="st22" d="M34.9,81.1l-1.1-0.7c0,0.3,0.1,0.6,0,0.9c-0.1,1.1-0.6,1.8-1.4,2.1l2,1.2c0.3-0.5,0.5-1.1,0.5-1.9
		C35,82.2,35,81.7,34.9,81.1z"/>
	<path class="st22" d="M29.9,74.3c-2.3-1.2-4.4-0.8-5.4,0.8l2.2,1.2c0.6-1.2,2-1.6,3.7-0.7c1.8,0.9,3.1,2.9,3.4,4.8l1.1,0.7
		C34.4,78.5,32.4,75.7,29.9,74.3z"/>
	<path class="st23" d="M29.8,83.1c1,0.5,1.9,0.6,2.6,0.3l-5.2-2.9C27.8,81.6,28.7,82.5,29.8,83.1z"/>
	<path class="st23" d="M26.4,77.4c-0.1,1,0.3,2.1,0.8,3l5.2,2.9c0.8-0.3,1.3-1,1.4-2.1c0-0.3,0-0.6,0-0.9l-7.1-4.1
		C26.5,76.7,26.4,77,26.4,77.4z M30.2,79.3c0.4,0.5,0.4,1.2,0.1,1.4c-0.3,0.3-0.9,0-1.3-0.5s-0.4-1.2-0.1-1.4
		C29.2,78.5,29.8,78.7,30.2,79.3z"/>
	<path class="st23" d="M30.3,75.7c-1.6-0.9-3.1-0.5-3.7,0.7l7.1,4.1C33.5,78.6,32.1,76.6,30.3,75.7z"/>
	<path d="M29,80.2c0.4,0.5,1,0.8,1.3,0.5s0.3-0.9-0.1-1.4s-1-0.8-1.3-0.5C28.6,79,28.6,79.7,29,80.2z"/>
	<path class="st7" d="M123,108.5L123,108.5l-5.2,3l-0.4,0.2c-0.1,0.1-0.2,0.2-0.2,0.3v1.9c0,0.3,0.3,0.5,0.6,0.3l5.6-3.2
		c0.1-0.1,0.2-0.2,0.2-0.3v-1.9C123.6,108.6,123.2,108.4,123,108.5z"/>
	<path class="st24" d="M127.4,105.6l-0.8,0.7c-0.1,0-0.1,0.1-0.1,0.2v1.3c0,0.2,0.2,0.3,0.4,0.2l0.8-0.7c0.1,0,0.1-0.1,0.1-0.2v-1.3
		C127.8,105.6,127.6,105.5,127.4,105.6z"/>
	<path class="st7" d="M120.7,103.6c-0.1-0.2-0.3-0.3-0.4-0.2l-1.4,0.9c-0.1,0.1-0.1,0.2-0.1,0.3v0.2v0.9c0,0,0,0,0,0.1
		c0,0.2,0.3,0.3,0.4,0.2l1.4-0.9c0.1-0.1,0.1-0.2,0.1-0.3v-0.2V103.6L120.7,103.6z"/>
	<path class="st24" d="M109.8,115.6l-1.2,0.6c-0.1,0-0.1,0.1-0.1,0.2v1.3c0,0.2,0.2,0.3,0.4,0.2l1.2-0.6c0.1,0,0.1-0.1,0.1-0.2v-1.3
		C110.2,115.6,110,115.5,109.8,115.6z"/>
	<path class="st5" d="M104.9,89.4c-0.1-0.1-0.4-0.2-0.5-0.1l-5.2,2.8c-0.3,0.1-0.3,0.5-0.1,0.7l0.9,1c0.1,0.1,0.4,0.2,0.5,0.1
		l5.1-2.9c0.3-0.1,0.3-0.5,0.1-0.7L104.9,89.4z"/>
	<path class="st5" d="M117.2,81.8c-0.2-0.2-0.4-0.2-0.6-0.1l-3.4,2.4c-0.2,0.2-0.3,0.5-0.1,0.7l0.7,0.8c0.2,0.2,0.4,0.2,0.6,0.1
		l3.4-2.5c0.2-0.2,0.3-0.5,0.1-0.7L117.2,81.8z"/>
	<g>
		<path class="st15" d="M12.6,53.9l-0.9-1.5h-1.5V37.7c0-0.6,0.1-1.2,0.3-1.8l2.8-7l9.9,5.8l-5.9-3.4l31.6,18.3l2.6,7.2L36.4,48
			l-0.3-0.6c0-0.1-0.1-0.1-0.1,0v0.3l-0.2-0.1l0.1-0.3l-0.1-0.1l-0.3,0.2l-21-12.3l-0.6,1.1c-0.2,0.6-0.4,1.2-0.4,1.8v9.5l5.3,3.1
			c0.3,0.4,0.8,0.8,1.3,1.1s0.9,0.5,1.3,0.5l3.6,2.1v0.2l5.2,3.1v-0.2l3.9,2.2v0.2l1.4,0.8v-0.1l0.5,0.3v-0.1l0.4,0.1V61l1.4,0.8
			v-0.2l6,3.5v0.2l1.5,0.9V66l7.7,4.5v0.1l1.3,0.6l3,1.8l2.4,6.9c0.1,0,0.1,0.1,0.1,0.2c0.1,0.3,0,0.6-0.1,0.8
			c-0.1,0.2-0.2,0.4-0.4,0.5c-0.1,0-0.2,0.1-0.3,0.1l-14.3,4.2l-6.4-3.6c0,0-0.7-5.7-6.3-9.9s-9.5-1.6-10.2,0.7
			c-3.8-1.8-5.7-2.6-6.7-3.2l-0.6-0.3c-0.3-0.2-0.4-0.3-0.6-0.4c-0.6-0.6-3.7-3.3-3.7-3.3v-1h0.9l1.5-0.9V53.9z"/>
	</g>
	<polygon class="st18" points="51.5,56.8 48.9,49.6 52.2,51.5 54.8,58.8 	"/>
</g>
<g>
	<ellipse class="st2" cx="58.6" cy="119.5" rx="6.3" ry="2.5"/>
	<g>
		<g>
			<path class="st25" d="M58.6,117.1c0,0-0.3,0.4,0,0.6s4,1.7,4.6,1.1c0.6-0.5-2.6-2.6-3.2-2.5C59.5,116.4,58.6,117.1,58.6,117.1z"
				/>
			<path class="st25" d="M54.3,117.8c0,0-0.5,1.4-0.4,2.3s0.3,1.4,0.9,1.4c0.6,0.1,1.2-0.6,1.2-1.5s-0.2-2.6-0.2-2.6L54.3,117.8z"/>
			<path class="st26" d="M60.5,97.7c0,0-3.5,0.9-8,0.5l1.4,19.6c0,0,2,0.8,2.3-0.1c0.2-1.2,0.8-13.4,0.7-14c0.8,1,1.3,11.8,1.4,13.7
				c0,0,1.8,0.3,2.1-0.9C60.8,115.3,61,102.4,60.5,97.7z"/>
			<path class="st25" d="M60.5,97.7l0.1,1c0,0-2.8,0.5-7.3,0.4C53,98.4,53,98.2,53,98.2L60.5,97.7z"/>
			<rect x="59.4" y="97.8" class="st27" width="0.4" height="1.2"/>
			<rect x="54.1" y="98.1" class="st27" width="0.4" height="1.2"/>
			<rect x="56.5" y="98" class="st27" width="1.1" height="1.2"/>
			<path class="st28" d="M51.5,101c0,0,0.2,1.3,0.2,1.6c0.1,0.4,0.7,0.6,0.9,0.6s0.7-0.1,0.8-0.8c0.1-0.7-0.1-1.9-0.1-1.9
				S52.2,100.2,51.5,101z"/>
			<path class="st28" d="M67.5,87.8c0,0,1.1-1,1.5-1.2c0.3-0.3,1,0,1.2,0.2s0.5,0.7,0,1.3c-0.5,0.6-1.6,1.6-1.6,1.6
				S67.5,89,67.5,87.8z"/>
			<g>
				<path class="st7" d="M55.4,83.1c0,0-3.3,0.6-4,1.8c-0.7,1.2-0.9,6.6-0.9,6.6l2.4,0.5l-0.4,6.2c0,0,1.6,0.1,4.2,0
					c2.8-0.1,3.8-0.5,3.8-0.5s0.4-5.9,0-8c1-0.4,1.7-0.9,1.7-0.9s-0.7-4.9-1.1-5.3S58.2,82.3,55.4,83.1z"/>
				<path class="st28" d="M55.5,82.1c0,0-0.1,1.1-0.1,1.4s0.6,1.2,1.8,1s0.9-0.3,0.8-0.8s-0.1-1.4-0.1-1.4L55.5,82.1z"/>
				<path class="st29" d="M57.8,82.6c0,0-2.2,0-2.3-0.2c0,0.6,0,0.6,0,0.6S57,83.4,57.8,82.6z"/>
				<path class="st7" d="M53.5,87c0,0-1.3-2.8-2-2.3s-0.9,1.1-0.9,1.1c0,0.7-0.3,7.3-0.5,7.9c-0.1,0.6-0.1,0.8,0,1.3s0.8,4.7,1,6.2
					c0.7-0.7,2-0.7,2-0.7v-0.4l-0.6-4c-0.2-0.8-0.2-1.9-0.1-2.4c0.1-0.5,0.3-1.9,0.6-1.7L53.5,87z"/>
				<path class="st7" d="M60.5,89.7c0,0,3.6,3.4,3.9,3.5s0.6-0.2,0.9-0.4c0.3-0.2,3.6-2.9,3.6-2.9l-1.3-2.4l-3,2.2
					c0,0-2.8-5.7-3.5-6.1"/>
			</g>
			<g>
				<g>
					<path class="st28" d="M56.8,82.8L56.8,82.8c-1.4,0-2.5-1.1-2.6-2.5l-0.1-3.1h5.2v3C59.4,81.7,58.2,82.8,56.8,82.8z"/>
					<path class="st30" d="M54.8,80.6L54.8,80.6c-0.4,0-0.8-0.3-0.8-0.7V79h1.6v0.9C55.6,80.2,55.3,80.6,54.8,80.6z"/>
				</g>
				<path class="st25" d="M53.7,76.6c0.3-0.5,1.7-1.6,2.6-1.5s2,0.2,2.4,0.8c0.1,0.1,0.3,0.3,0.6,0.4c0.6,0.3,0.8,1.1,0.4,1.6
					c-0.4,0.5-1,0.9-1.7,0.9c-1.5,0-2.4-0.7-2.4-0.7s-0.3,0.2-0.3,0.5s-0.1,0.9-0.1,1.1s-0.3,0-0.3,0s-0.4-0.7-0.8-0.3
					C53.6,79.3,53.1,77.4,53.7,76.6z"/>
			</g>
		</g>
	</g>
	<path class="st31" d="M54.8,83.3c-1,0.2-2.9,0.8-3.5,1.7c1.8,1.4,1.5,5.1,1.5,5.1l-0.3,6.1c0,0,0.2,1.5,0.3,2.2
		c0.6,0,1.9,0.1,3.8,0c2.8-0.1,3.8-0.5,3.8-0.5s0.4-5.9,0-8c0.8-3.5,1-5.8,0.6-6.1c-0.2-0.2-1.3-0.7-2.8-0.8c0,0-0.3,3.1-1,4
		C56.1,85.8,54.8,83.3,54.8,83.3z"/>
	<g>
		<polygon class="st32" points="57.2,84.6 56.1,85.8 54.8,83.3 55.3,82.6 		"/>
		<polygon class="st32" points="57.2,84.6 58.2,85.5 58.3,82.8 57.9,82.4 		"/>
	</g>
	<g>
		<g>
			<path class="st33" d="M59.4,86.1L59.4,86.1l0.2-0.1l0,0l0.1-0.3l0,0L59.4,86.1z"/>
		</g>
		<g>
			<path class="st33" d="M60,86L60,86l-0.2-0.1l0,0l-0.1-0.3l0,0L60,86z"/>
		</g>
		<g>
			<path class="st33" d="M58.4,86.7L58.4,86.7c0.1-0.1,0.1,0,0.2,0c0,0,0.1,0,0.1-0.1v-0.3h0.1v0.3c0,0.1,0,0.1,0,0.1l-0.1,0.1
				C58.5,86.8,58.4,86.8,58.4,86.7z"/>
		</g>
		<g>
			<path class="st33" d="M58.9,86.2l0.4-0.1v0.1H59v0.1h0.2v0.1H59v0.1h0.3v0.1l-0.4,0.1V86.2z"/>
		</g>
		<g>
			<path class="st33" d="M60.2,86.3L60,86.1h0.1L60.2,86.3l0.1-0.2h0.1L60.2,86.3l0,0.3h-0.1L60.2,86.3L60.2,86.3z"/>
		</g>
		<g>
			<polygon class="st33" points="59.7,86.6 59.7,86.1 59.4,86.2 59.4,86.3 59.6,86.2 59.6,86.6 			"/>
		</g>
		<g>
			<polygon class="st33" points="59.7,86.6 59.7,86.1 60,86.1 60,86.2 59.8,86.2 59.8,86.6 			"/>
		</g>
	</g>
</g>
</svg>
