<?xml version="1.0" encoding="utf-8"?>
<!-- Generator: Adobe Illustrator 24.0.0, SVG Export Plug-In . SVG Version: 6.00 Build 0)  -->
<svg version="1.1" id="Layer_1" xmlns="http://www.w3.org/2000/svg" xmlns:xlink="http://www.w3.org/1999/xlink" x="0px" y="0px"
	 width="140px" height="140px" viewBox="0 0 140 140" style="enable-background:new 0 0 140 140;" xml:space="preserve">
<style type="text/css">
	.st0{fill:none;}
	.st1{fill:#BABCBE;}
	.st2{opacity:0.4;fill:#4D4D4F;enable-background:new    ;}
	.st3{fill:#F2F2F2;}
	.st4{fill:#E6E6E6;}
	.st5{fill:#626566;}
	.st6{fill:#465E67;}
	.st7{fill:#FFFFFF;}
	.st8{fill:#C8D6DD;}
	.st9{fill:#D47733;}
	.st10{fill:#4C4B4E;}
	.st11{fill:#727170;}
	.st12{fill:#809D99;}
	.st13{fill:#4C6775;}
	.st14{fill:#7095A1;}
	.st15{fill:#49BEAF;}
	.st16{fill:#2E887F;}
	.st17{fill:#006B71;}
	.st18{fill:#82CEC8;}
	.st19{fill:#6A9AA3;}
	.st20{fill:#BE1E2D;}
	.st21{fill:#2C2D2D;}
	.st22{fill:#CCCCCC;}
	.st23{fill:#999999;}
	.st24{fill:#ECEAD3;}
	.st25{fill:url(#SVGID_1_);}
	.st26{fill:#4BBFA7;}
	.st27{font-family:'TTCommons-Medium';}
	.st28{font-size:3.8902px;}
	.st29{clip-path:url(#SVGID_3_);}
	.st30{fill:#E6E7E8;}
	.st31{fill:#2D414D;}
	.st32{font-family:'TTCommons-Bold';}
	.st33{font-size:2.8292px;}
	.st34{font-family:'TTCommons-DemiBold';}
	.st35{font-size:3.7399px;}
	.st36{fill:none;stroke:#44C0A7;stroke-width:0.2671;stroke-miterlimit:10;}
	.st37{fill:none;stroke:#F1F3F5;stroke-width:0.3361;stroke-miterlimit:10;}
	.st38{font-size:1.3445px;}
	.st39{fill:#2D414D;stroke:#000000;stroke-width:0.6722;stroke-linejoin:round;}
	.st40{fill:none;stroke:#F1F3F5;stroke-width:0.2145;}
	.st41{fill:#BCBCBC;}
	.st42{font-family:'TTCommons-Light';}
	.st43{font-size:4.291px;}
	.st44{font-family:'TTCommons-Regular';}
	.st45{font-size:3.0037px;}
</style>
<g>
	<path class="st0" d="M125.9,37.9L125.9,37.9L125.9,37.9z"/>
	<path class="st1" d="M37.9,124.8c0,0-0.1,0-0.2,0C37.8,124.8,37.8,124.8,37.9,124.8z"/>
	<path class="st1" d="M39.5,124.5C39.6,124.5,39.6,124.5,39.5,124.5C39.6,124.5,39.6,124.5,39.5,124.5z"/>
	<path class="st1" d="M41.2,124c-0.1,0.1-0.1,0.1-0.2,0.1C41.1,124.1,41.1,124.1,41.2,124z"/>
	<path class="st1" d="M40.6,124.2c-0.1,0.1-0.1,0.1-0.2,0.1C40.4,124.3,40.5,124.3,40.6,124.2z"/>
	<path class="st1" d="M38.8,124.7c0,0-0.1,0-0.2,0C38.7,124.7,38.8,124.7,38.8,124.7z"/>
	<path class="st2" d="M55.4,127.4c12.7-7.3,34.7-19.9,52.5-30.2c-2.5,0.6-4.7-0.2-5.6-2.3l-41.8,23.6
		C60.2,121.7,58.2,125.1,55.4,127.4z"/>
	<path class="st2" d="M3.9,116.4c2.6,1.9,28.2,16.5,31.9,18.6c3.7,2.2,7.3-0.3,9.2-1.4c0.3-0.2,3-1.7,7.1-4.1c-2.9,1-5.4,0-6.4-2.4
		l-2.5,1.4c0,0-4.5,2.4-9.3,1.3c-4.7-1.1-13.1-5.3-15.6-6.8s-7.2-4.8-7.8-6.1c-0.6-1.3-0.4-7.8,0.1-8.7c0,0,0.1-0.6,0.2-1.4l0,0
		c0-0.1,0-0.2,0-0.3s0-0.1,0-0.2c0.1-0.1,0.1-0.3,0.1-0.4c0.1-0.5,0.1-0.9,0.2-1.4c0-0.1,0-0.1,0-0.2c0.1-0.2,0.1-0.3,0.1-0.5
		c0-0.1,0-0.2,0-0.3c0.1-0.1,0.1-0.3,0.1-0.5c0-0.1,0-0.1,0-0.2c0.1-0.2,0.1-0.3,0.1-0.5c0-0.1,0-0.1,0-0.2s0-0.2,0-0.3s0-0.1,0-0.2
		c0.1-0.2,0.1-0.3,0.1-0.4c0.2-1.4,8.5-14.8,8.5-14.8s0.5-1.3,1.2-3.1c-2.4,1.4-4,2.3-4.5,2.6c-4.2,2.4-4.3,4.7-4.7,6.9
		s-0.8,8-1.3,9c-0.5,1.1-5.2,3.1-7.4,5.4C1.2,109.5,1.2,114.3,3.9,116.4z"/>
	<path class="st1" d="M10.8,108.9c0,0.2,0.1,0.4,0.1,0.6C10.8,109.3,10.8,109.1,10.8,108.9z"/>
	<path class="st1" d="M35.7,124.8c-0.4,0-0.8,0-1.2-0.1C34.9,124.8,35.3,124.8,35.7,124.8z"/>
	<path class="st1" d="M36.7,124.8c-0.2,0-0.5,0-0.7,0C36.3,124.9,36.5,124.9,36.7,124.8z"/>
	<path class="st2" d="M112.7,94.6c12.8-7.4,22.5-12.9,23.1-13.3c1.9-1.1,2.2-1.7,0-3.3c-0.5-0.4-3.1-2-6.9-4.3l0,0v1V76
		c0,0-2.5,4.9-3.1,5.6l-8.7,4.9C116.7,89.4,115,92.4,112.7,94.6z"/>
	<polygon class="st3" points="69.6,70.3 125.8,37.9 98.5,22 42.1,54.5 	"/>
	<polygon class="st4" points="128.9,61.4 128.9,61.4 128.9,46.7 128.9,46.7 	"/>
	<path class="st4" d="M97,54.7l18.9-11l9.9-5.8l0,0l-29,16.7C96.9,54.6,96.9,54.6,97,54.7z"/>
	<path class="st4" d="M36.8,125c0.3,0,0.6,0,0.9,0c0,0,0.1,0,0.2,0c0.3,0,0.5-0.1,0.7-0.1c0,0,0.1,0,0.2,0c0.2,0,0.5,0,0.7-0.1h0.1
		c0.2-0.1,0.5-0.1,0.7-0.2c0.1-0.1,0.1-0.1,0.2-0.1c0.2-0.1,0.3-0.1,0.5-0.2c0.1-0.1,0.1-0.1,0.2-0.1c0.1-0.1,0.3-0.1,0.5-0.2
		c1.5-0.6,2.6-1.4,2.6-1.4s1.2-6,6.5-9.3c5.1-3.2,8.7-1.6,10,0.7l30.3-17.2l-14.3-4.3c-0.7-0.2-1-0.9-0.8-1.6l2.5-6.9l-9.7,5.6V76.9
		l15.5-9.1l2.6-7.3l10-5.8l-0.1-0.1L69.5,70.3c0,0-11.8,7.6-14.8,16.4c-3,8.9-5.9,15.7-5.9,15.7s-7,6.4-8.5,8.3
		c0.2,0.5,0.3,2.2,0.2,2.9c-0.1,0.9-2.8,4.1-3.1,4.4c-0.1,0.1-0.3,0.3-0.6,0.5C36.8,121.1,36.8,124.7,36.8,125z M59.7,103.5
		c0.1-2.4,1.5-4.5,3.3-4.7c1.7-0.3,3.1,1.4,3.1,3.8s-3.3,8-3.3,8S59.6,105.9,59.7,103.5z M50.6,99.1l1.8-0.9v-2.1
		c0-0.4,0.2-0.7,0.6-0.8l0.8-0.2l3.4-9.5c0.5-1.3,1.4-2.5,2.6-3.2l7.1-4.4v12.6l-11,6.4v5c0,0.4-0.2,0.7-0.6,0.8l-1.9,0.4
		c-0.5,0.1-1-0.3-1-0.8v-2.7l-0.9,0.5v0.8l-0.9,0.3C50.6,101.3,50.6,99.1,50.6,99.1z"/>
	<path class="st4" d="M80.1,90.5l14.3,4.3l0,0L80.1,90.5c-0.1,0-0.2-0.1-0.3-0.1C79.9,90.4,80,90.5,80.1,90.5z"/>
	<path class="st4" d="M79.3,90c-0.1-0.3-0.1-0.5-0.1-0.8C79.2,89.4,79.2,89.7,79.3,90z"/>
	<path class="st4" d="M124.7,78.4l-0.6,0.3C124.3,78.6,124.5,78.5,124.7,78.4z"/>
	<polygon class="st4" points="87.6,65.8 87.6,65.8 90.2,58.6 90.2,58.6 	"/>
	<path class="st4" d="M128.9,74.7v-1V74.7z"/>
	<path class="st4" d="M96.8,54.6l29-16.7l0,0L96.8,54.6L96.8,54.6z"/>
	<path class="st4" d="M96.8,54.6L96.8,54.6L69.6,70.3L96.8,54.6z"/>
	<path class="st5" d="M21.5,82.7c0.5-1.3,1.1-2.8,1.8-4.4v-2.4c0-0.4-0.2-0.7-0.6-0.8l-1.1-0.4c-0.5-0.1-1,0.3-1,0.8v6.4
		c0,0.4,0.2,0.7,0.6,0.8H21.5z"/>
	<path class="st6" d="M55.9,95.6V97l11-6.4V78l-7,4.4c-1.2,0.7-2.1,1.9-2.6,3.2l-3.4,9.5l1.1-0.2C55.4,94.8,55.9,95.2,55.9,95.6z"/>
	<path class="st5" d="M52.4,99.1l1.4-4L53,95.3c-0.3,0.1-0.6,0.4-0.6,0.8v2.1V99.1z"/>
	<path class="st5" d="M52.4,99.1v0.7v2.7c0,0.5,0.5,0.9,1,0.8l1.9-0.4c0.3-0.1,0.6-0.4,0.6-0.8V97L52.4,99.1z"/>
	<path class="st5" d="M52.4,99l3.5-2v-1.3c0-0.5-0.5-0.9-1-0.8l-1.1,0.2L52.4,99z"/>
	<polygon class="st5" points="52.4,98.2 50.6,99.1 50.6,101.3 51.5,101 51.5,100.2 52.4,99.8 52.4,99.1 	"/>
	<path class="st3" d="M21.9,83l-0.5-0.2c-0.1,0.2-0.2,0.4-0.3,0.6C21.4,83.3,21.6,83.2,21.9,83z"/>
	<path class="st3" d="M42.2,54.5c0,0-6.2,3-8.3,5.5s-4.5,5.8-6.9,10.3c-1,1.9-2.4,5-3.7,8.1v2.8l3.7-8.8c0,0,0.3,0.2,0.9,0.5
		c0.2,0.1,0.3,0.2,0.5,0.3c0,0,1-4.8,3.7-9.5C34.8,59.1,42.2,54.5,42.2,54.5z"/>
	<path class="st3" d="M21.9,83.1c-0.3,0.1-0.6,0.3-0.8,0.4c-0.7,1.9-1.2,3.1-1.2,3.1s-8.3,13.4-8.5,14.8c0,0,0.4,2.4,0.9,3
		s0.8,0.5,0.9,0.9c0.1,0.4,0.2,3-0.2,3.3s-1.7-0.9-1.8-1.1c-0.2-0.1-0.7-0.7-0.7-0.8c-0.1,0.8-0.2,1.4-0.2,1.4
		c0.2,0,0.2,0.3,0.3,0.8c0,0.1,0.1,0.4,0.1,0.6c0.2,1.1,0.5,2.6,1.6,3.8c0.3,0.3,0.5,0.5,0.8,0.8c0.1-3.3-0.1-8.6,0.4-9.3
		c0.5-0.8,8-17.1,8-17.1l0,0c0-0.1-0.1-0.1-0.1-0.2l-0.1-0.1c0-0.1-0.1-0.1-0.1-0.2l-0.1-0.1L21,87c0-0.1,0-0.1,0-0.1
		c-0.1,0-0.1-0.1-0.1-0.1l0,0l0,0l0,0l0,0l1.4-3.6l0,0L21.9,83.1z"/>
	<path class="st3" d="M24.7,121.2c3.6,1.7,7.8,3.3,9.8,3.6c0.4,0,0.8,0.1,1.2,0.1c0.1,0,0.3,0,0.4,0c0.2,0,0.5,0,0.7,0l0,0
		c0-0.2,0-3.8,0-6.4c-0.3,0.1-0.6,0.2-0.9,0.2c-0.6-0.1-7.1-1.2-7.3-1.3c-0.3-0.1-0.7-0.4-0.5-0.6c0.1-0.2,1.7-2.4,1.7-2.4
		c0.1-0.2,0.8-0.1,1.2-0.1s4.6,0,4.8,0c0.3-0.1,1.9-1.8,2.3-2.2c0.6-0.5,1.6-1.5,2-1.6c0.1,0,0.1,0.1,0.2,0.2
		c1.6-1.9,8.5-8.3,8.5-8.3s2.9-6.9,5.9-15.7s14.8-16.4,14.8-16.4s-2.7,0.6-6.4,1.7c-3.6,1.1-12.1,7.7-13.6,13.2l0,0
		c2.1,1.2,3.5,2,3.5,2L47.2,102c0,0-0.9-0.3-2.4-0.9l0,0c0,0-14.9,12.1-15.3,12.8C29.1,114.5,25.3,120.2,24.7,121.2z M62.8,74.5
		L62.8,74.5L62.8,74.5z"/>
	<path class="st3" d="M10.7,106.4c0-0.1,0-0.1,0-0.2C10.7,106.3,10.7,106.3,10.7,106.4z"/>
	<path class="st3" d="M10.7,105.9c0.1-0.5,0.1-0.9,0.2-1.4C10.9,105,10.8,105.4,10.7,105.9z"/>
	<path class="st3" d="M11.3,102.2c0-0.1,0-0.2,0-0.3C11.3,102,11.3,102.1,11.3,102.2z"/>
	<path class="st3" d="M11.1,102.9c0.1-0.2,0.1-0.3,0.1-0.5C11.2,102.6,11.2,102.7,11.1,102.9z"/>
	<path class="st3" d="M11,103.6c0.1-0.1,0.1-0.3,0.1-0.5C11.1,103.3,11.1,103.5,11,103.6z"/>
	<path class="st3" d="M10.9,104.4c0.1-0.2,0.1-0.3,0.1-0.5C11,104,11,104.2,10.9,104.4z"/>
	<path class="st3" d="M11.3,101.7c0.1-0.2,0.1-0.3,0.1-0.4C11.4,101.4,11.4,101.6,11.3,101.7z"/>
	<path class="st3" d="M23.2,81.2v-2.8c-0.6,1.6-1.3,3.1-1.8,4.4l0.5,0.2c0.3-0.1,0.5-0.2,0.8-0.4L23.2,81.2z"/>
	<path class="st3" d="M22.3,83.2l0.4-0.6c-0.3,0.1-0.6,0.3-0.8,0.4L22.3,83.2C22.3,83.2,22.4,83.2,22.3,83.2z"/>
	<path class="st7" d="M28.3,73.2c0.4,0.2,0.8,0.5,1.2,0.7c0.3,0.1,0.5,0.2,0.8,0.4c0.7,0.4,1.4,0.8,2.1,1.2c0.4,0.2,0.9,0.4,1.3,0.7
		c-0.1,0-0.1,0-0.1,0c0.8,0.5,1.7,1,2.6,1.5c0.1,0,0.1,0.1,0.2,0.1s0.1,0.1,0.2,0.1c4.5,2.5,9.6,5.4,12.9,7.3
		C51,79.7,59.4,73.1,63.1,72s6.5-1.7,6.4-1.7L42.1,54.4c0,0-7.4,4.6-10.1,9.3S28.3,73.2,28.3,73.2z"/>
	<path class="st7" d="M21.3,87.4L21.3,87.4c0,0-7.5,16.3-8,17.1s-0.3,6-0.4,9.3c1.7,1.7,3.2,2.9,6.1,4.5c1.3,0.7,3.3,1.6,5.4,2.6
		c0.7-0.9,4.5-6.6,4.9-7.2c0.4-0.7,15.3-12.8,15.3-12.8l0,0c-2.8-1-7.8-3.1-13.4-6.2c-2.2-1.2-3.9-2.3-5.3-3.3
		c-0.7-0.5-1.3-1-1.8-1.4c-0.2-0.2-0.5-0.4-0.7-0.6c-0.2-0.1-0.3-0.2-0.4-0.3l0,0L22.9,89c-0.1-0.1-0.2-0.2-0.3-0.3
		c0,0-0.1-0.1-0.2-0.2c0,0-0.1-0.1-0.2-0.2l0,0l0,0l0,0c-0.1-0.1-0.1-0.1-0.2-0.2c-0.1,0-0.1-0.1-0.2-0.2
		C21.8,87.9,21.7,87.8,21.3,87.4z M33.2,99.2l0.9-0.9c0.1-0.2,0.3-0.2,0.5-0.1l5.2,2.8c0.3,0.1,0.3,0.5,0.1,0.7l-0.9,1
		c-0.1,0.2-0.3,0.2-0.5,0.1l-5.1-2.9C33.1,99.8,33.1,99.5,33.2,99.2z M20.1,110.9c2,1.1,6,2.5,6.6,2.6c0.7,0.1,1.2,0.5,0.9,1.1
		c0,0.1-0.2,0.4-0.4,0.8l0,0l-0.2,0.3c-0.3,0.4-0.5,0.9-0.8,1.3l-0.3,0.7c-0.1,0-0.1,0-0.1,0c-0.2,0.3-0.3,0.5-0.4,0.6
		c-0.3,0.4-0.8,0.4-1.8,0.1s-4.5-2.1-5.3-2.6c-0.7-0.4-3.2-2.5-3.6-2.8c-0.3-0.3-0.4-0.6-0.5-1.2c0-0.4-0.1-1.7-0.1-2.9l0,0v-1l0,0
		c0-0.5,0-0.9,0-1.1c0.1-0.5,1,0.2,1.4,0.7S18.2,109.9,20.1,110.9z M21.2,91.5l0.7-0.7c0.1-0.2,0.4-0.2,0.6-0.1l3.4,2.4
		c0.3,0.1,0.3,0.5,0.1,0.7l-0.7,0.8c-0.1,0.2-0.4,0.2-0.6,0.1l-3.4-2.5C21,92,21,91.7,21.2,91.5z"/>
	<path class="st8" d="M11.1,103.9c0-0.1,0-0.2,0-0.3C11.1,103.7,11,103.8,11.1,103.9z"/>
	<path class="st8" d="M11.2,103.1c0-0.1,0-0.1,0-0.2C11.2,103,11.2,103,11.2,103.1z"/>
	<path class="st8" d="M10.7,106.6c0,0,0-0.1,0-0.3C10.7,106.4,10.7,106.5,10.7,106.6L10.7,106.6z"/>
	<path class="st8" d="M11.3,101.9c0-0.1,0-0.1,0-0.2C11.3,101.8,11.3,101.8,11.3,101.9z"/>
	<path class="st8" d="M11.3,102.4c0-0.1,0-0.1,0-0.2C11.3,102.3,11.2,102.3,11.3,102.4z"/>
	<path class="st8" d="M10.7,106.3c0.1-0.1,0.1-0.3,0.1-0.4C10.7,106,10.7,106.1,10.7,106.3z"/>
	<path class="st8" d="M11,104.6c0-0.1,0-0.1,0-0.2C11,104.4,11,104.5,11,104.6z"/>
	<path class="st8" d="M12.1,104.1c-0.5-0.5-0.9-3-0.9-3c-0.1,0.1-0.1,0.3-0.1,0.4s0,0.1,0,0.2s0,0.2,0,0.3s0,0.1,0,0.2
		c-0.1,0.2-0.1,0.3-0.1,0.5c0,0.1,0,0.1,0,0.2s-0.1,0.3-0.1,0.5c0,0.1,0,0.2,0,0.3c-0.1,0.2-0.1,0.3-0.1,0.5c0,0.1,0,0.1,0,0.2
		c-0.1,0.5-0.1,1-0.2,1.4c-0.1,0.2-0.1,0.3-0.1,0.4s0,0.1,0,0.2s0,0.2,0,0.3c0,0.1,0.6,0.6,0.7,0.8c0.1,0.1,1.4,1.4,1.8,1.1
		s0.3-2.9,0.2-3.3S12.9,105,12.1,104.1z"/>
	<path class="st8" d="M40.4,110.6c-0.1,0.1-0.1,0.2-0.2,0.3c-0.1,0.3-0.3,0.5-0.5,0.8c0.2-0.1,0.4-0.1,0.4,0.1
		c0,0.3,0.1,1.6,0.1,1.7s-0.5,1-0.7,1.2c-0.1,0.3-1.9,2.2-2.2,2.4c-0.1,0.1-0.3-0.6-0.3-1.3c-0.1,0.2-0.1,0.4-0.1,0.6
		c0,0.5,0,1.3,0,2.1c0.2-0.1,0.5-0.3,0.6-0.5c0.2-0.3,3-3.5,3.1-4.4C40.7,112.9,40.6,111.2,40.4,110.6z"/>
	<path class="st8" d="M40.1,111c0-0.1,0.1-0.2,0.2-0.3c-0.1-0.1-0.1-0.2-0.2-0.2c-0.4,0-1.5,1.1-2,1.6c-0.4,0.4-2.1,2.2-2.3,2.2
		s-4.4,0-4.8,0c-0.3,0-1-0.1-1.2,0.1c0,0-1.5,2.2-1.7,2.4s0.3,0.5,0.5,0.6c0.3,0.2,6.7,1.2,7.3,1.3c0.3,0.1,0.6,0,0.9-0.2
		c0-0.8,0-1.6,0-2.1c0-0.2,0.1-0.4,0.1-0.6c-0.1-0.5-0.1-1.1,0-1.3c0.2-0.5,1-1.4,1.3-1.7c0.2-0.2,0.9-0.8,1.4-1
		C39.8,111.5,40,111.2,40.1,111z"/>
	<path class="st9" d="M39.6,111.9c-0.9,1.1-2.4,2.5-2.7,4c0,0.7,0.1,1.4,0.3,1.3c0.3-0.2,2-2.2,2.2-2.4s0.7-1,0.7-1.2
		s-0.1-1.4-0.1-1.7S39.8,111.6,39.6,111.9z"/>
	<path class="st9" d="M36.9,115.8c0.3-1.5,1.8-2.9,2.7-4c-0.5,0.2-1.2,0.8-1.4,1c-0.4,0.4-1.2,1.2-1.3,1.7
		C36.9,114.7,36.9,115.3,36.9,115.8z"/>
	<path class="st10" d="M26.1,117L26.1,117c0.3-0.3,0.6-0.8,0.8-1.2l-0.2,0.4c-0.6-0.1-4.1-1.4-6.3-2.4v1l0,0
		C22.9,116,26.3,117.1,26.1,117z"/>
	<path class="st10" d="M26.8,113.5c-0.7-0.1-4.7-1.5-6.6-2.6c-2-1-4.3-3-4.7-3.5s-1.3-1.2-1.4-0.7c0,0.1,0,0.6,0,1.1
		c0.1,0.1,3.3,3.2,5.9,4.7c2.4,1.5,7,2.9,7.2,3c0.2-0.4,0.3-0.6,0.4-0.8C27.9,114.1,27.4,113.7,26.8,113.5z"/>
	<path class="st10" d="M14.1,109c0,1.2,0.1,2.5,0.1,2.9c0,0.6,0.1,0.9,0.5,1.2c0.3,0.3,2.8,2.3,3.6,2.8c0.7,0.5,4.3,2.3,5.3,2.6
		c1,0.2,1.5,0.3,1.8-0.1c0.1-0.1,0.2-0.3,0.4-0.6c-0.8-0.2-4.7-1.6-6.6-2.7c-1.9-1-4.6-3.5-5-4v-1c0,0,2,2,4.2,3.5v-1l0,0
		C16.6,111.3,14.4,109.3,14.1,109z"/>
	<path class="st11" d="M14.1,108.9c0-0.3,0-0.7,0-1l0,0V108.9L14.1,108.9z"/>
	<path class="st11" d="M27.2,115.5c-0.1,0.1-0.1,0.2-0.2,0.3L27.2,115.5L27.2,115.5z"/>
	<path class="st11" d="M20.2,112.6c-2.6-1.5-5.8-4.6-5.9-4.7c0,0.3,0,0.6,0,1c0.3,0.4,2.5,2.4,4.3,3.7c0-0.2,0.2-0.3,0.4-0.2
		l1.4,0.9c0,0.1,0.1,0.2,0.1,0.3v0.2c2.2,1,5.7,2.3,6.3,2.4l0.2-0.4c0.1-0.1,0.1-0.2,0.2-0.3C27,115.5,22.4,114,20.2,112.6z"/>
	<path class="st11" d="M26.2,117.1c-0.1,0.3-0.2,0.5-0.3,0.7c-0.1,0,0,0,0,0L26.2,117.1z"/>
	<path class="st11" d="M19.1,115.1c1.9,1.1,5.8,2.5,6.6,2.7c0.1-0.1,0.3-0.4,0.4-0.6v-0.1c0,0-3.3-1.1-5.8-2.3
		c0,0.2-0.2,0.3-0.4,0.2l-1.4-0.9c0-0.1-0.1-0.2-0.1-0.3v-0.2c-2.2-1.5-4.2-3.5-4.2-3.5v1C14.6,111.6,17.3,114.1,19.1,115.1z"/>
	<path class="st6" d="M28.4,73.2L28.4,73.2c-0.2-0.1-0.4-0.2-0.5-0.3C28.1,73,28.2,73.1,28.4,73.2L28.4,73.2z"/>
	<path class="st6" d="M20.9,86.8L20.9,86.8L20.9,86.8z"/>
	<path class="st6" d="M30.3,74.3c0.7,0.4,1.3,0.8,2.1,1.2C31.6,75.1,30.9,74.7,30.3,74.3z"/>
	<path class="st6" d="M28.4,73.2c0.3,0.2,0.7,0.4,1.2,0.7C29.1,73.6,28.7,73.4,28.4,73.2L28.4,73.2L28.4,73.2z"/>
	<path class="st6" d="M26.7,85.2c0,0,3.6,1.2,4.6,1.7c2.2,1.1,2.9,1.7,3.1,2.4S34,91.1,35.9,92c2,0.9,12.4,7.1,12.4,7.1l-1.1,2.9
		l5.7-14.9c0,0-1.4-0.8-3.5-2c-0.2-0.1-0.4-0.2-0.6-0.3c-3.3-1.9-8.2-4.6-12.4-7L26.7,85.2z"/>
	<path class="st12" d="M27,72.4c0,0,0.3,0.2,0.9,0.5C27.3,72.6,27,72.4,27,72.4z"/>
	<path class="st12" d="M33.7,76.2L33.7,76.2c-0.5-0.2-0.9-0.5-1.3-0.7C32.8,75.7,33.2,76,33.7,76.2z"/>
	<path class="st12" d="M29.5,73.9c0.3,0.1,0.5,0.2,0.8,0.4C30,74.2,29.8,74,29.5,73.9z"/>
	<path class="st12" d="M22.3,88.4L22.3,88.4L22.3,88.4z"/>
	<g>
		<path class="st12" d="M26.7,85.2l-2.5-0.7l0.8-3.3c1-4.6,2-8.8,2-8.8s0.3,0.2,0.9,0.5c0.1,0.1,0.3,0.2,0.5,0.3c0,0,4.9,2.8,8,4.6
			L26.7,85.2z"/>
	</g>
	<path class="st13" d="M21.4,87.4L21.4,87.4C21.4,87.5,21.4,87.5,21.4,87.4z"/>
	<path class="st13" d="M21,86.9C21,87,21,87,21,86.9C21,87,21,87,21,86.9z"/>
	<path class="st13" d="M20.9,86.8L20.9,86.8L20.9,86.8z"/>
	<path class="st13" d="M21.1,87.1C21.2,87.2,21.2,87.2,21.1,87.1C21.2,87.2,21.2,87.2,21.1,87.1z"/>
	<path class="st13" d="M23.2,89.3C23.2,89.3,23.2,89.2,23.2,89.3L23.2,89.3L23.2,89.3z"/>
	<path class="st13" d="M22.3,88.4c-0.1-0.1-0.1-0.1-0.2-0.2C22.1,88.2,22.2,88.3,22.3,88.4z"/>
	<path class="st13" d="M22.7,88.8c0,0-0.1-0.1-0.2-0.2C22.6,88.7,22.7,88.8,22.7,88.8z"/>
	<path class="st13" d="M21.9,88c-0.1-0.1-0.2-0.1-0.2-0.2C21.7,87.8,21.8,87.9,21.9,88z"/>
	<path class="st13" d="M20.9,86.8L20.9,86.8L20.9,86.8z"/>
	<path class="st13" d="M24.9,81.2c1-4.5,2-8.8,2-8.8l-3.7,8.8v1C23.8,81.9,24.4,81.6,24.9,81.2z"/>
	<path class="st13" d="M22.4,83.2l-1.5,3.6l0,0l1.2-2.9c0,0,0.9,0.2,2.1,0.6c0.2-1,0.5-2.1,0.7-3.2c-0.6,0.3-1.1,0.7-1.7,1.1l0,0
		C23.2,82.8,22.9,83.2,22.4,83.2z"/>
	<path class="st13" d="M23.3,82.3v-1l-0.6,1.3C22.9,82.5,23.1,82.3,23.3,82.3z"/>
	<path class="st13" d="M23.2,82.4L23.2,82.4c-0.1,0-0.3,0.1-0.5,0.2l-0.3,0.6C22.8,83.2,23.2,82.9,23.2,82.4L23.2,82.4z"/>
	<path class="st14" d="M20.9,86.8L20.9,86.8L20.9,86.8L20.9,86.8L20.9,86.8z"/>
	<path class="st14" d="M21.6,87.7L21.6,87.7L21.6,87.7L21.6,87.7z"/>
	<path class="st14" d="M21.5,87.5L21.5,87.5c0,0.1,0,0.1,0.1,0.2C21.6,87.6,21.5,87.6,21.5,87.5z"/>
	<path class="st14" d="M21.3,87.2L21.3,87.2c0,0.1,0,0.1,0.1,0.2l0,0C21.3,87.3,21.3,87.3,21.3,87.2z"/>
	<path class="st14" d="M21.1,87.1L21.1,87.1C21,87,21.1,87,21.1,87.1L21.1,87.1C21.1,87.1,21.1,87,21.1,87.1z"/>
	<path class="st14" d="M21,86.9C20.9,86.8,20.9,86.8,21,86.9L21,86.9L21,86.9L21,86.9z"/>
	<path class="st14" d="M23.2,89.3L23.2,89.3c0.2,0.1,0.3,0.2,0.4,0.3C23.5,89.5,23.4,89.4,23.2,89.3z"/>
	<path class="st14" d="M22.3,88.4L22.3,88.4c0,0,0.1,0.1,0.2,0.2l0,0C22.4,88.6,22.4,88.5,22.3,88.4z"/>
	<path class="st14" d="M22.8,88.9L22.8,88.9c0.1,0.1,0.2,0.2,0.3,0.3l0,0C23,89.1,22.9,89,22.8,88.9z"/>
	<path class="st14" d="M26.1,91.6c-0.7-0.5-1.3-1-1.8-1.4C24.9,90.7,25.5,91.1,26.1,91.6z"/>
	<path class="st14" d="M21.7,87.8L21.7,87.8C21.7,87.7,21.7,87.7,21.7,87.8L21.7,87.8C21.7,87.7,21.7,87.7,21.7,87.8z"/>
	<path class="st14" d="M22.3,88.4L22.3,88.4L22.3,88.4L22.3,88.4L22.3,88.4z"/>
	<path class="st14" d="M21.9,88L21.9,88c0,0,0.1,0.1,0.2,0.2l0,0C22,88.1,21.9,88,21.9,88z"/>
	<path class="st14" d="M21.1,87L21.1,87C21.1,87,21.1,87.1,21.1,87z"/>
	<path class="st14" d="M20.9,86.8L20.9,86.8L20.9,86.8L20.9,86.8z"/>
	<path class="st14" d="M21.3,87.4c0-0.1-0.1-0.1-0.1-0.2C21.3,87.3,21.3,87.3,21.3,87.4z"/>
	<path class="st14" d="M21.5,87.5c0.1,0.1,0.1,0.1,0.2,0.2c-0.1,0-0.1,0,0,0l0,0l0,0C21.6,87.7,21.5,87.6,21.5,87.5z"/>
	<path class="st14" d="M20.9,86.8C21,86.9,21,86.9,20.9,86.8C21,86.9,21,86.9,20.9,86.8z"/>
	<path class="st14" d="M21.9,88c0,0,0.1,0.1,0.2,0.2C22,88.1,21.9,88,21.9,88z"/>
	<path class="st14" d="M23.1,89.2c-0.1-0.1-0.2-0.2-0.3-0.3C22.9,89,23,89.1,23.1,89.2z"/>
	<path class="st14" d="M22.3,88.4L22.3,88.4c0,0,0.1,0.1,0.2,0.2C22.4,88.6,22.4,88.5,22.3,88.4z"/>
	<path class="st14" d="M22.3,88.4L22.3,88.4L22.3,88.4L22.3,88.4z"/>
	<path class="st14" d="M21.6,87.7C21.7,87.7,21.7,87.7,21.6,87.7L21.6,87.7L21.6,87.7C21.7,87.7,21.7,87.7,21.6,87.7z"/>
	<path class="st14" d="M22.3,88.4L22.3,88.4L22.3,88.4z"/>
	<path class="st14" d="M22.3,88.4L22.3,88.4L22.3,88.4z"/>
	<path class="st14" d="M20.9,86.8L20.9,86.8L20.9,86.8L20.9,86.8L20.9,86.8z"/>
	<path class="st14" d="M21.2,87.2L21.2,87.2L21.2,87.2L21.2,87.2L21.2,87.2z"/>
	<path class="st14" d="M21.5,87.5L21.5,87.5L21.5,87.5L21.5,87.5C21.4,87.5,21.4,87.5,21.5,87.5z"/>
	<path class="st14" d="M21.1,87C21,86.9,21,86.9,21.1,87C21,87,21,87,21.1,87C21,87,21.1,87,21.1,87C21,87,21,87,21.1,87z"/>
	<path class="st14" d="M22.1,88.2L22.1,88.2c0.1,0.1,0.1,0.1,0.2,0.2l0,0C22.2,88.3,22.1,88.2,22.1,88.2z"/>
	<path class="st14" d="M23.2,89.3L23.2,89.3L23.2,89.3L23.2,89.3C23.2,89.3,23.2,89.2,23.2,89.3z"/>
	<path class="st14" d="M21.8,87.9c0,0-0.1-0.1-0.2-0.2l0,0C21.7,87.8,21.7,87.8,21.8,87.9L21.8,87.9z"/>
	<path class="st14" d="M22.6,88.7L22.6,88.7c0,0,0.1,0.1,0.2,0.2l0,0C22.7,88.8,22.6,88.7,22.6,88.7z"/>
	<path class="st14" d="M21.8,87.8l-0.9-1l0,0l0,0l0,0c0.1,0,0.1,0.1,0.1,0.1c0.1,0.1,0.1,0.1,0.1,0.1l0.1,0.1l0.1,0.1
		c0,0.1,0,0.1,0.1,0.2l0.1,0.1c0.1,0.1,0.1,0.1,0.2,0.2L21.8,87.8z"/>
	<path class="st14" d="M21.8,87.9L21.8,87.9L21.8,87.9L21.8,87.9c0.1,0.1,0.2,0.2,0.3,0.3c0,0,0.1,0.1,0.2,0.2l0,0L21.8,87.9z"/>
	<path class="st14" d="M21.7,87.9l0.6,0.6l0.1,0.1c0,0,0.1,0.1,0.2,0.2c0,0,0.1,0.1,0.2,0.2s0.2,0.2,0.3,0.3l0.1,0.1
		c0.2,0.1,0.3,0.2,0.4,0.3c0.2,0.2,0.4,0.4,0.7,0.6c0.5,0.4,1.1,0.9,1.8,1.4c1.4,1,3.2,2.1,5.3,3.3c5.6,3.1,10.6,5.1,13.4,6.2
		c1.5,0.6,2.4,0.9,2.4,0.9l1.1-2.9c0,0-10.5-6.2-12.4-7.1s-1.3-2-1.5-2.7s-0.9-1.3-3.1-2.4c-0.9-0.5-2.8-1.1-4.6-1.7l0,0
		c-1-0.3-1.9-0.6-2.7-0.8l0,0c-1.1-0.4-2-0.6-2-0.6l-1.2,2.9L21.7,87.9z"/>
	<polygon class="st6" points="78.5,83.9 84.4,67.7 68.9,76.8 68.9,89.5 	"/>
	<path class="st6" d="M87.1,67.2l0.5-1.4L87.1,67.2z"/>
	<path class="st15" d="M59.7,103.5c0,2.3,3.1,7.1,3.1,7.1s3.2-5.7,3.3-8s-1.3-4-3.1-3.8C61.3,99,59.7,101.2,59.7,103.5z M60.6,103.3
		c0-1.7,1.1-3.2,2.4-3.4c1.3-0.2,2.3,1.1,2.3,2.8c0,1.7-1.1,3.2-2.4,3.4C61.6,106.3,60.6,105.1,60.6,103.3z"/>
	<path class="st4" d="M60.6,103.3c0,1.7,1,3,2.3,2.8s2.4-1.7,2.4-3.4c0-1.7-1-3-2.3-2.8C61.7,100.1,60.7,101.6,60.6,103.3z"/>
	<path class="st15" d="M128.6,44.8c0.2,0.6,0.3,1.2,0.3,1.8l0,0C128.9,46,128.8,45.5,128.6,44.8l-2.8-6.9l0,0L128.6,44.8z"/>
	<path class="st16" d="M114.1,56.6v6.6l3.6-2.1c-0.2,0-0.4,0-0.5-0.1c-0.4-0.1-0.6-0.6-0.6-1.4v-4.4l1.5-0.9v4.4
		c0,0.8,0.3,0.9,0.9,0.6c0.4-0.3,0.8-0.7,1.2-1.4l0.9,0.5c-0.2,0.4-0.5,0.8-0.9,1.2l5.3-3.1V47c0-0.6-0.1-1.2-0.4-1.8l-0.6-1.1
		l-21,12.3l0,0l0.8-0.4v1.1l2.7,2.2v0.5h-1.4c1.3,0.8,2.5,1.5,3.8,2.3l3.1-1.8v-1.4l-3.6,2.1v-1.3L114.1,56.6z"/>
	<path class="st16" d="M110.7,62.7c0.4,0.2,0.8,0.5,1.2,0.7l0.7-0.4v-1.4L110.7,62.7z"/>
	<path class="st16" d="M102.3,57.8l0.4-0.8l-0.9,0.5C102,57.6,102.1,57.7,102.3,57.8z"/>
	<path class="st16" d="M103.1,56.8L103.1,56.8L103.1,56.8l-0.3,1.3c0.1,0.1,0.2,0.1,0.3,0.2V56.8L103.1,56.8z"/>
	<path class="st16" d="M102.4,57.9c-0.2-0.1-0.3-0.2-0.5-0.3l-14.2,8.3l-0.5,1.3l-1,2.9v9.4L94,75v-2.4L91.4,70l1.7-1l1.7,1.8
		l1.6-3.7l1.7-1l-2.6,5.6v2.5l6-3.5v-5.2l-2.1,1.2v-1.4l3.4-2v6.6l0.4-0.2V58.4c-0.1-0.1-0.2-0.1-0.3-0.2l-0.5,2.6
		c0,0,0,0.1-0.1,0.2l-3,3.3v-0.5L102.4,57.9z"/>
	<polygon class="st16" points="84.8,73.6 81.8,82 84.8,80.2 	"/>
	<path class="st16" d="M105,63.4v5.2l3.9-2.2v-1.1l2.9-1.7c-0.4-0.2-0.8-0.5-1.2-0.7l-1.2,0.7v-1.3l0.1-0.1
		c-1.3-0.8-2.5-1.6-3.8-2.3h-1.3v2.4l2.7-1.5v1.4L105,63.4z"/>
	<polygon class="st15" points="86.1,79.5 84.8,80.2 84.8,80.3 86.1,79.6 	"/>
	<polygon class="st17" points="84.8,73.6 84.8,80.2 86.1,79.5 86.1,70.1 	"/>
	<polygon class="st15" points="103.1,69.7 103.1,69.7 103.6,69.4 	"/>
	<path class="st17" d="M103.7,58.7l-0.5-2l-0.1,0.1v1.5C103.3,58.4,103.5,58.6,103.7,58.7z"/>
	<polygon class="st17" points="103.6,56.5 104.4,57.1 104.4,56.1 	"/>
	<path class="st17" d="M103,58.3v11.3l0.5-0.3v-6.6l0.8-0.4v-2.4H104c-0.1,0-0.1,0-0.1-0.1l-0.2-1.1C103.5,58.6,103.3,58.4,103,58.3
		z"/>
	<path class="st15" d="M97,54.7l18.9-11L97,54.7L97,54.7z"/>
	<path class="st18" d="M76.8,92.4l14.3,4.3l3.2-1.8L80,90.6c-0.1,0-0.2-0.1-0.3-0.1c-0.1-0.2-0.3-0.3-0.4-0.5
		c-0.1-0.3-0.1-0.5-0.1-0.8c0-0.1,0.1-0.2,0.1-0.3l2.5-6.9l-3.2,1.8l-2.5,6.9C75.8,91.4,76.2,92.1,76.8,92.4z"/>
	<polygon class="st19" points="86.1,70.1 87.1,67.2 87.6,65.8 84.4,67.7 78.5,83.9 81.8,82 84.8,73.6 84.8,67.5 86.1,66.8 	"/>
	<polygon class="st17" points="84.8,67.5 84.8,73.6 86.1,70.1 86.1,66.8 	"/>
	<polygon class="st15" points="97,54.7 97,54.7 121.8,40.3 121.8,40.3 115.9,43.7 	"/>
	<path class="st15" d="M79.3,88.8c-0.1,0.1-0.1,0.2-0.1,0.3c0,0,0.1-0.1,0.1-0.2l2.5-6.9l0,0L79.3,88.8z"/>
	<path class="st15" d="M79.8,90.4c-0.1-0.2-0.3-0.3-0.4-0.5C79.5,90.1,79.6,90.3,79.8,90.4z"/>
	<polygon class="st15" points="81.8,82 81.8,82 84.8,73.6 84.8,73.6 	"/>
	<polygon class="st15" points="86.1,70.1 86.1,70.1 87.1,67.2 	"/>
	<polygon class="st15" points="86.1,70.1 86.1,70.1 84.8,73.6 	"/>
	<g>
		<path class="st7" d="M103.3,56.3v0.3l0,0l0.5,2l0.2,1.1c0,0,0,0.1,0.1,0.1h0.3h1.3h1.4v-0.5l-2.7-2.2l-0.8-0.6l0,0L103.3,56.3
			C103.3,56.2,103.2,56.3,103.3,56.3z"/>
		<path class="st7" d="M102.2,57.7l-3,6v0.5l3-3.3c0.1,0,0.1-0.1,0.1-0.2l0.5-2.6l0.2-1.3l0.1-0.4c0-0.1-0.1-0.1-0.1,0l-0.3,0.6
			L102.2,57.7z"/>
		<path class="st7" d="M118.1,54.4l-1.6,1v4.4c0,0.8,0.2,1.2,0.6,1.4c0.2,0.1,0.3,0.1,0.5,0.1c0.4-0.1,0.8-0.2,1.3-0.5
			s0.9-0.7,1.3-1.1c0.4-0.4,0.7-0.8,0.9-1.2l-0.9-0.5c-0.3,0.7-0.7,1.1-1.2,1.4c-0.6,0.3-0.9,0.2-0.9-0.6
			C118.1,58.8,118.1,54.4,118.1,54.4z"/>
		<polygon class="st7" points="111.8,63.5 108.9,65.2 108.9,66.3 108.9,66.5 113,64.2 114.1,63.5 114.1,63.3 114.1,56.7 108.9,59.7 
			108.9,61 112.6,58.9 112.6,60.3 109.5,62.1 109.4,62.2 109.4,63.5 110.6,62.8 112.6,61.6 112.6,63.1 		"/>
		<polygon class="st7" points="91.2,69.9 93.8,72.5 93.8,75 93.8,75.2 95.3,74.4 95.3,74.2 95.3,71.7 97.9,66.1 96.2,67.1 
			94.6,70.7 92.9,69 		"/>
		<polygon class="st7" points="104.4,62.3 103.6,62.8 103.6,69.4 103.6,69.4 103.6,69.6 105,68.8 105,68.6 105,63.4 107.1,62.2 
			107.1,60.8 		"/>
		<polygon class="st7" points="102.7,63.3 99.3,65.3 99.3,66.7 101.4,65.5 101.4,70.7 101.4,70.9 102.7,70.1 102.7,69.9 		"/>
	</g>
	<path class="st20" d="M128.9,73.7L128.9,73.7L128.9,73.7V61.4l0,0V73.7z"/>
	<path class="st20" d="M128.9,73.7L128.9,73.7L128.9,73.7L128.9,73.7z"/>
	<polygon class="st20" points="128.9,61.4 128.9,61.4 128.9,73.7 	"/>
	<path class="st20" d="M128.9,73.7L128.9,73.7L128.9,73.7z"/>
	<path class="st20" d="M126.5,72.9l2.4,1.5v-13h-1.5l-0.9,1.5C126.5,62.9,126.5,72.9,126.5,72.9z"/>
	<path class="st21" d="M10.5,108.2c-0.5,0.9-0.7,7.4-0.1,8.7c0.7,1.2,5.3,4.6,7.8,6.1s10.8,5.7,15.6,6.8c4.7,1.2,9.3-1.3,9.3-1.3
		l2.5-1.4c-0.2-0.6-0.4-1.2-0.4-1.9c-0.3-4.3,2.9-9.6,7.2-11.8c4.2-2.3,7.9-0.7,8.2,3.6c0.1,0.5,0.1,1,0,1.5l41.8-23.6
		c-0.3-0.6-0.4-1.3-0.5-2.1c-0.1-0.4,0-0.9,0-1.3l-6.3,3.6l-1.2-0.3l0,0l1.1,0.3l-3.2,1.8l-1.1-0.3l-30.3,17
		c-1.3-2.3-4.9-3.9-10-0.7c-5.4,3.4-6.6,9.6-6.6,9.6s-1.1,0.6-2.6,1.2c-0.1,0.1-0.3,0.1-0.5,0.2c-0.1,0.1-0.1,0.1-0.2,0.1
		c-0.2,0.1-0.3,0.1-0.5,0.2c-0.1,0.1-0.1,0.1-0.2,0.1c-0.2,0.1-0.4,0.1-0.7,0.2h-0.1c-0.2,0-0.5,0.1-0.7,0.1c0,0-0.1,0-0.2,0
		c-0.3,0-0.5,0.1-0.7,0.1c0,0-0.1,0-0.2,0c-0.3,0-0.6,0-0.9,0l0,0c-0.2,0-0.5,0-0.7,0c-0.1,0-0.3,0-0.4,0c-0.4,0-0.8,0-1.2-0.1
		c-1.9-0.3-6.2-1.8-9.9-3.4c0,0-1.3,0-3.2-0.7l0.4,0.2c0.1,0,0.2,0.2,0.2,0.3v1.9c0,0.3-0.3,0.5-0.6,0.3l-5.6-3.2
		c-0.1,0-0.2-0.2-0.2-0.3v-1.9c0-0.3,0.3-0.5,0.6-0.3h0.1c-1.1-0.9-2.1-1.9-3-3.3l0,0c-0.3-0.2-0.5-0.5-0.8-0.8
		c-1.2-1.2-1.4-2.8-1.6-3.9c0-0.2-0.1-0.4-0.1-0.6C10.7,108.4,10.7,108.1,10.5,108.2z M28.9,124.8c0-0.2,0.2-0.3,0.4-0.2l1.2,0.6
		c0.1,0,0.1,0.1,0.1,0.2v1.3c0,0.2-0.2,0.3-0.4,0.2l-1.2-0.6c-0.1,0-0.1-0.1-0.1-0.2V124.8z M11.3,114.8c0-0.2,0.2-0.3,0.4-0.2
		l0.8,0.7c0.1,0,0.1,0.1,0.1,0.2v1.3c0,0.2-0.2,0.3-0.4,0.2l-0.8-0.7c-0.1,0-0.1-0.1-0.1-0.2V114.8z"/>
	<path class="st21" d="M117.1,86.5l8.7-4.9c0.5-0.7,3.1-5.6,3.1-5.6v-1.3l-3.9,3.5l-0.3,0.2c-0.2,0.1-0.4,0.2-0.6,0.3l-7.3,4.2
		c0.2,0.5,0.4,1.1,0.4,1.8C117.2,85.3,117.2,85.9,117.1,86.5z"/>
	<path class="st21" d="M40.3,124.3c-0.2,0.1-0.4,0.1-0.7,0.2C39.9,124.4,40.1,124.4,40.3,124.3z"/>
	<path class="st21" d="M36.8,124.8L36.8,124.8c0.3,0,0.6,0,0.9,0C37.4,124.8,37.1,124.9,36.8,124.8z"/>
	<path class="st21" d="M39.5,124.6c-0.2,0-0.5,0.1-0.7,0.1C39.1,124.6,39.3,124.6,39.5,124.6z"/>
	<path class="st21" d="M38.6,124.7c-0.3,0-0.5,0.1-0.7,0.1C38.2,124.8,38.4,124.7,38.6,124.7z"/>
	<path class="st21" d="M41.7,123.8c-0.1,0.1-0.3,0.1-0.5,0.2C41.4,124,41.6,123.9,41.7,123.8z"/>
	<path class="st21" d="M44.3,122.5c0,0-1.1,0.8-2.6,1.4c1.5-0.6,2.6-1.2,2.6-1.2s1.3-6.3,6.6-9.6C45.5,116.4,44.3,122.5,44.3,122.5z
		"/>
	<path class="st21" d="M41,124.1c-0.2,0.1-0.3,0.1-0.5,0.2C40.7,124.2,40.9,124.2,41,124.1z"/>
	<path class="st21" d="M36.1,124.8c-0.1,0-0.3,0-0.4,0C35.8,124.8,35.9,124.8,36.1,124.8z"/>
	<path class="st21" d="M10.5,108.1c0.2,0,0.2,0.3,0.3,0.8C10.7,108.4,10.7,108.1,10.5,108.1z"/>
	<path class="st21" d="M13.3,114.3c0-0.1,0-0.1,0-0.2c-0.3-0.2-0.5-0.5-0.8-0.7c-1.2-1.3-1.5-2.8-1.6-3.9c0.2,1.1,0.5,2.7,1.6,3.9
		C12.7,113.7,13,114,13.3,114.3z"/>
	<path class="st21" d="M24.5,121.3L24.5,121.3c3.7,1.6,7.9,3.1,9.9,3.4c-1.9-0.4-6.1-2-9.8-3.6C24.6,121.2,24.5,121.3,24.5,121.3z"
		/>
	<path class="st21" d="M36.8,124.9L36.8,124.9L36.8,124.9L36.8,124.9z"/>
	<path class="st21" d="M13.2,114.3L13.2,114.3c0.9,1.3,2,2.4,3,3.3l5.2,3c1.9,0.6,3.2,0.7,3.2,0.7c-2.3-0.9-4.3-1.9-5.6-2.6
		C16,117.1,14.8,115.9,13.2,114.3z"/>
	<path class="st21" d="M19.3,118.6c-3-1.7-4.5-2.8-6.1-4.5c0,0.1,0,0.1,0,0.2c1.5,1.6,2.8,2.8,5.7,4.4c1.3,0.7,3.4,1.7,5.6,2.6l0,0
		c0,0,0-0.1,0.1-0.2C22.5,120.2,20.5,119.2,19.3,118.6z"/>
	<path class="st21" d="M124.9,78.2l3.9-3.5c0,0-3.1,2.8-3.7,3.3c-0.1,0.1-0.3,0.3-0.5,0.4L124.9,78.2z"/>
	<path class="st21" d="M100.7,91.3l-6.4,3.6l1.2,0.3l6.3-3.6c0.4-4,3.4-8.5,7.2-10.5c3.5-1.9,6.7-1.1,7.8,1.8l7.3-4.2
		c-1,0.6-2.9,1.5-6.7,3.2c-0.7-2.3-4.6-4.9-10.2-0.7C101.6,85.4,100.8,91.1,100.7,91.3z"/>
	<polygon class="st21" points="94.4,94.8 91.2,96.6 92.3,96.9 95.5,95.1 	"/>
	<path d="M55.4,127.4c-1.2,0.7-2.4,1.3-3.4,1.9c0.5-0.2,0.9-0.4,1.4-0.6C54.1,128.4,54.8,127.9,55.4,127.4z"/>
	<path d="M51.9,129.4c1.1-0.6,2.2-1.2,3.4-1.9c2.7-2.3,4.7-5.7,5.1-8.9l-2.1,1.2c-0.4,2.7-2.4,5.6-5,6.9c-2.4,1.3-4.5,0.8-5.4-1
		l-2.3,1.3C46.5,129.4,49,130.4,51.9,129.4z"/>
	<path d="M45.3,124.9c0,0.7,0.2,1.3,0.4,1.9l2.3-1.3c-0.2-0.4-0.4-1-0.4-1.6c-0.2-3,2.1-6.8,5.1-8.4c3.1-1.6,5.7-0.4,5.9,2.6
		c0,0.5,0,1-0.1,1.5l2.1-1.2c0-0.5,0-1,0-1.5c-0.3-4.2-3.9-5.8-8.2-3.6C48.1,115.6,44.9,120.8,45.3,124.9z"/>
	<path class="st22" d="M50,124.5l-1.9,1.1c0.8,1.8,3,2.3,5.4,1c2.5-1.3,4.5-4.2,5-6.9l-2.9,1.6c-0.7,1.3-1.7,2.5-2.9,3.1
		S50.5,125,50,124.5z"/>
	<path class="st22" d="M47.4,124c0,0.6,0.2,1.1,0.4,1.6l1.9-1.1c-0.6-0.3-1-1-1.1-1.9c-0.1-2.1,1.5-4.6,3.5-5.7c2.1-1,3.9-0.2,4,1.8
		c0.1,0.8-0.2,1.7-0.6,2.6l2.9-1.6c0.1-0.5,0.1-1,0.1-1.5c-0.2-3-2.9-4.2-5.9-2.6S47.3,121,47.4,124z"/>
	<path class="st23" d="M55.5,121.4l-5.7,3.2c0.8,0.4,1.8,0.4,2.9-0.2C53.9,123.8,54.9,122.6,55.5,121.4z"/>
	<path class="st23" d="M49.9,124.6l5.7-3.2c0.4-0.9,0.7-1.8,0.6-2.6c-0.2-2.1-2-2.9-4-1.8c-2.1,1.1-3.6,3.7-3.5,5.7
		C48.8,123.6,49.2,124.2,49.9,124.6z M52.2,120.6c0.4-0.5,1-0.8,1.3-0.5c0.3,0.2,0.3,0.9-0.1,1.4s-1,0.8-1.3,0.5
		S51.8,121.1,52.2,120.6z"/>
	<path d="M52.3,120.6c-0.4,0.5-0.4,1.1-0.1,1.4s0.9,0,1.3-0.5s0.4-1.1,0.1-1.4C53.2,119.8,52.7,120.1,52.3,120.6z"/>
	<path d="M112.7,94.5c-1.6,0.8-3.2,1.8-4.8,2.7c0.7-0.2,1.4-0.4,2.1-0.8C111,95.9,111.9,95.3,112.7,94.5z"/>
	<path d="M107.9,97.2c1.7-0.9,3.3-1.8,4.8-2.7c2.3-2.2,4-5.2,4.4-8l-2.1,1.2c-0.6,2.6-2.6,5.3-5,6.6c-2.3,1.3-4.3,0.9-5.3-0.7
		l-2.4,1.3C103.2,97,105.4,97.9,107.9,97.2z"/>
	<path d="M101.7,92.8c0,0.8,0.2,1.5,0.5,2.1l2.4-1.3c-0.3-0.5-0.5-1.2-0.5-1.9c0-0.5,0-1,0.1-1.6l-2.4,1.4
		C101.8,91.9,101.8,92.4,101.7,92.8z"/>
	<path d="M115,87.7l2.1-1.2c0.1-0.7,0.1-1.3,0.1-1.9c-0.1-0.7-0.2-1.3-0.4-1.8l-2.2,1.3c0.3,0.5,0.5,1.1,0.5,1.8
		C115.2,86.5,115.1,87.1,115,87.7z"/>
	<path d="M101.8,91.5l2.4-1.4c0.5-2.7,2.5-5.5,5-6.8c2.4-1.2,4.5-0.8,5.4,0.8l2.2-1.3c-1-2.8-4.2-3.7-7.8-1.8
		C105.1,83,102.2,87.5,101.8,91.5z"/>
	<path class="st22" d="M106.7,92.5l-2,1.2c0.9,1.5,3,1.9,5.3,0.7c2.5-1.3,4.4-4,5-6.6l-3.1,1.7c-0.6,1.1-1.5,2-2.6,2.6
		C108.3,92.6,107.4,92.7,106.7,92.5z"/>
	<path class="st22" d="M111.8,89.4l3.1-1.7c0.2-0.6,0.2-1.2,0.2-1.8c0-0.7-0.2-1.3-0.5-1.8l-2.2,1.2c0.2,0.3,0.3,0.7,0.3,1.1
		C112.8,87.4,112.5,88.5,111.8,89.4z"/>
	<path class="st22" d="M104.2,91.7c0,0.8,0.2,1.4,0.5,1.9l2-1.2c-0.8-0.3-1.3-1-1.4-2.1c-0.1-0.3,0-0.6,0-0.9l-1.1,0.7
		C104.1,90.7,104.1,91.2,104.2,91.7z"/>
	<path class="st22" d="M104.2,90.1l1.1-0.7c0.3-1.9,1.6-3.9,3.4-4.8c1.7-0.9,3.1-0.5,3.7,0.7l2.2-1.2c-1-1.6-3.1-2-5.4-0.8
		C106.7,84.7,104.7,87.5,104.2,90.1z"/>
	<path class="st23" d="M111.9,89.5l-5.2,2.9c0.7,0.3,1.6,0.2,2.6-0.3C110.4,91.5,111.3,90.6,111.9,89.5z"/>
	<path class="st23" d="M112.4,85.2l-7.1,4.1c0,0.3,0,0.6,0,0.9c0.1,1.1,0.6,1.8,1.4,2.1l5.2-2.9c0.5-0.9,0.9-2,0.8-3
		C112.7,86,112.6,85.7,112.4,85.2z M110.2,87.8c0.3,0.2,0.3,0.9-0.1,1.4s-1,0.8-1.3,0.5c-0.3-0.2-0.3-0.9,0.1-1.4
		C109.3,87.7,109.9,87.5,110.2,87.8z"/>
	<path class="st23" d="M105.4,89.5l7.1-4.1c-0.6-1.2-2.1-1.6-3.7-0.7C107,85.6,105.6,87.6,105.4,89.5z"/>
	<path d="M110.2,87.8c-0.3-0.3-0.9,0-1.3,0.5s-0.4,1.1-0.1,1.4s0.9,0,1.3-0.5C110.5,88.7,110.5,88,110.2,87.8z"/>
	<path class="st7" d="M15.5,117.8v1.9c0,0.1,0.1,0.2,0.2,0.3l5.6,3.2c0.3,0.2,0.6,0,0.6-0.3V121c0-0.1-0.1-0.2-0.2-0.3l-0.4-0.2
		l-5.2-3l0,0C15.9,117.4,15.5,117.6,15.5,117.8z"/>
	<path class="st24" d="M11.3,114.8v1.3c0,0.1,0,0.2,0.1,0.2l0.8,0.7c0.2,0.1,0.4,0,0.4-0.2v-1.3c0-0.1,0-0.2-0.1-0.2l-0.8-0.7
		C11.5,114.5,11.3,114.6,11.3,114.8z"/>
	<path class="st7" d="M18.4,112.6v1v0.2c0,0.1,0,0.2,0.1,0.3l1.4,0.9c0.1,0.1,0.4,0,0.4-0.2c0-0.1,0-0.1,0-0.1v-0.9v-0.2
		c0-0.1,0-0.2-0.1-0.3l-1.4-0.9C18.7,112.3,18.5,112.4,18.4,112.6L18.4,112.6z"/>
	<path class="st24" d="M28.9,124.8v1.3c0,0.1,0,0.2,0.1,0.2l1.2,0.6c0.2,0.1,0.4,0,0.4-0.2v-1.3c0-0.1,0-0.2-0.1-0.2l-1.2-0.6
		C29.1,124.5,28.9,124.6,28.9,124.8z"/>
	<path class="st5" d="M33.4,99.3c-0.2,0.2-0.2,0.6,0.1,0.7l5.1,2.9c0.1,0.1,0.4,0,0.5-0.1l0.9-1c0.2-0.2,0.2-0.6-0.1-0.7l-5.2-2.8
		c-0.1-0.1-0.4,0-0.5,0.1L33.4,99.3z"/>
	<path class="st5" d="M21.2,91.5c-0.2,0.2-0.1,0.5,0.1,0.7l3.4,2.5c0.2,0.1,0.4,0.1,0.6-0.1l0.7-0.8c0.2-0.2,0.1-0.5-0.1-0.7
		l-3.4-2.4c-0.2-0.1-0.4-0.1-0.6,0.1L21.2,91.5z"/>
	<g>
		<path class="st15" d="M126.5,72.8l1.5,0.9h0.9v1c0,0-3.1,2.7-3.7,3.3c-0.2,0.1-0.3,0.2-0.6,0.4l-0.6,0.3c-1,0.6-2.9,1.4-6.7,3.2
			c-0.7-2.3-4.6-4.9-10.2-0.7s-6.3,9.9-6.3,9.9l-6.4,3.6l-14.3-4.2c-0.1,0-0.2-0.1-0.3-0.1c-0.2-0.1-0.3-0.3-0.4-0.5
			s-0.2-0.5-0.1-0.8c0-0.1,0-0.2,0.1-0.2l2.4-6.9l3-1.8l1.3-0.6v-0.1l7.7-4.5v0.2l1.5-0.9v-0.2l6-3.5v0.2l1.4-0.8v-0.2l0.4-0.1v0.1
			l0.5-0.3v0.1l1.4-0.8v-0.2l3.9-2.2v0.2l5.2-3.1v-0.2l3.6-2.1c0.4,0,0.8-0.2,1.3-0.5s1-0.7,1.3-1.1l5.3-3.1V47
			c0-0.6-0.2-1.2-0.4-1.8l-0.6-1.1l-21,12.3l-0.3-0.2l-0.1,0.1l0.1,0.3l-0.2,0.1v-0.3c0-0.1-0.1-0.1-0.1,0l-0.3,0.6l-15.1,8.8
			l2.6-7.2l31.6-18.3l-5.9,3.4l9.9-5.8l2.8,7c0.2,0.6,0.3,1.2,0.3,1.8v14.7h-1.5l-0.9,1.5C126.5,62.9,126.5,72.8,126.5,72.8z"/>
	</g>
	<polygon class="st18" points="84.3,67.8 86.9,60.5 90.2,58.6 87.6,65.8 	"/>
</g>
<linearGradient id="SVGID_1_" gradientUnits="userSpaceOnUse" x1="75.7992" y1="-326.0208" x2="102.1013" y2="-354.8449" gradientTransform="matrix(1 0 0 -1 0 -228.7244)">
	<stop  offset="0" style="stop-color:#6D6E70;stop-opacity:0"/>
	<stop  offset="1" style="stop-color:#6D6E70;stop-opacity:0.7"/>
</linearGradient>
<path class="st25" d="M130.1,101l-30-17.7L42.7,117l32.4,18.8c0.8,0.5,1.8,0.5,2.6,0l52.3-30.3C131.8,104.5,131.8,102,130.1,101z"/>
<g id="Calificar_viaje_POP_2_">
	<g transform="matrix(1, 0, 0, 1, 0, 0)">
		<path id="Rectangle-2_4_" class="st7" d="M74.5,32.4l53.6-30.5c2-1.1,3.5-0.4,3.5,1.5v91.4c0,2-1.6,4.4-3.5,5.6l-53.6,30.5
			c-2,1.1-3.5,0.4-3.5-1.5V38C71,36,72.6,33.5,74.5,32.4z"/>
	</g>
	<g>
		<g>
			<g id="Group_13_4_" transform="translate(26.313 566.5)">
				<path id="Rectangle-5_2_" class="st26" d="M47.4-450l55.1-31.4c0.5-0.3,0.9-0.1,0.9,0.4v8.8c0,0.5-0.4,1.1-0.9,1.4l-55.1,31.4
					c-0.5,0.3-0.9,0.1-0.9-0.4v-8.8C46.5-449.1,46.9-449.8,47.4-450z"/>
				<text transform="matrix(1 -0.5702 0 1 68.2098 -455.1299)" class="st7 st27 st28">Continuar</text>
			</g>
		</g>
	</g>
</g>
<g>
	<g>
		<g>
			<defs>
				<path id="SVGID_2_" d="M73.9,43.7l52-30.2c1.7-1,3.8,0.2,3.8,2.2v13.9c0,0.9-0.5,1.7-1.2,2.2l-51.9,30c-1.7,1-3.8-0.2-3.8-2.2
					V45.9C72.7,45,73.2,44.1,73.9,43.7z"/>
			</defs>
			<clipPath id="SVGID_3_">
				<use xlink:href="#SVGID_2_"  style="overflow:visible;"/>
			</clipPath>
			<g class="st29">
				<polygon class="st30" points="93.8,50.2 83.8,56 90.9,60.2 100.9,54.4 				"/>
				<polygon class="st30" points="102.2,45.4 95.4,49.4 110.2,58.1 113.5,52.1 				"/>
				<polygon class="st30" points="111.4,40.1 103.7,44.6 114.3,50.7 118,44 				"/>
				<polygon class="st30" points="85.3,45.1 75.2,50.9 82.3,55.2 92.4,49.3 				"/>
				<polygon class="st30" points="96.9,18.1 78.1,29.1 85.1,33.3 104,22.3 				"/>
				<polygon class="st30" points="102.3,34.9 90.2,42.2 97.2,46.3 109.5,39 				"/>
				<polygon class="st30" points="89.6,42.6 86.7,44.3 93.7,48.5 96.6,46.8 				"/>
				<polygon class="st30" points="68.3,64.9 58.1,70.7 65.2,74.9 75.3,69.1 				"/>
				<polygon class="st30" points="81.8,57 73.1,61.9 80.1,66 88.9,61.1 				"/>
				<polygon class="st30" points="72.5,62.3 69.6,64 76.7,68.2 79.6,66.5 				"/>
				<polygon class="st30" points="73.6,52 65.6,56.5 72.6,60.8 80.7,56.1 				"/>
				<polygon class="st30" points="64.8,46.9 56.8,51.5 63.9,55.6 71.9,51 				"/>
				<polygon class="st30" points="103.5,24.4 95.5,29 102.5,33.2 110.5,28.6 				"/>
				<polygon class="st30" points="76.3,40.2 66.3,46 73.3,50.1 83.3,44.3 				"/>
				<polygon class="st30" points="59.1,40.1 57.6,40.8 64.6,45.1 73.1,40.1 				"/>
				<polygon class="st30" points="67.6,35 61,38.9 74.1,38.8 				"/>
				<polygon class="st30" points="76.3,30.1 69,34.2 76.1,38.4 83.3,34.2 				"/>
				<polygon class="st30" points="79.4,40.2 85.1,43.4 90.8,40.2 				"/>
				<polygon class="st30" points="94,29.9 78.4,38.8 93,38.7 101,34.1 				"/>
				<polygon class="st30" points="84.9,65.7 78.3,69.4 85.4,73.6 92,69.8 				"/>
				<polygon class="st30" points="76.4,70.4 60.8,79.6 67.8,83.7 83.6,74.6 				"/>
				<polygon class="st30" points="88,65.6 93.6,68.9 99.4,65.6 				"/>
				<polygon class="st30" points="102.6,55.4 87,64.3 101.6,64.2 109.7,59.6 				"/>
				<polygon class="st30" points="133,27.6 122.9,33.4 130,37.6 140.1,31.8 				"/>
				<polygon class="st30" points="144.6,0.5 125.7,11.5 132.8,15.6 151.7,4.6 				"/>
				<polygon class="st30" points="146.6,19.6 137.8,24.5 144.9,28.7 153.7,23.8 				"/>
				<polygon class="st30" points="137.2,25 134.3,26.7 141.4,30.9 144.3,29.2 				"/>
				<polygon class="st30" points="121.3,34.4 113.2,39 120.3,43.1 128.3,38.5 				"/>
				<polygon class="st30" points="112.5,29.2 104.5,33.8 111.6,38 119.5,33.5 				"/>
				<polygon class="st30" points="151.1,6.9 143.1,11.4 150.2,15.6 158.2,11 				"/>
				<polygon class="st30" points="123.9,22.5 113.9,28.3 121,32.5 131,26.7 				"/>
				<polygon class="st30" points="106.8,22.5 105.2,23.3 112.3,27.4 120.7,22.5 				"/>
				<polygon class="st30" points="115.3,17.5 108.7,21.3 121.7,21.2 				"/>
				<polygon class="st30" points="123.9,12.4 116.6,16.6 123.7,20.8 131,16.6 				"/>
				<polygon class="st30" points="127.1,22.5 132.7,25.8 138.4,22.5 				"/>
				<polygon class="st30" points="141.6,12.3 126,21.2 140.7,21.1 148.8,16.4 				"/>
			</g>
		</g>
	</g>
</g>
<g>
	<text transform="matrix(0.9967 -0.576 0 1 84.5379 33.6163)" class="st31 st32 st33">Cuautitlán</text>
</g>
<g>
	<text transform="matrix(0.9967 -0.576 0 1 104.6681 21.977)" class="st31 st32 st33">Santa Fe</text>
</g>
<path id="Fill_1_Copy" class="st26" d="M102.7,22.3L102.7,22.3L102.7,22.3L102.7,22.3c0-0.1,0-0.1,0-0.1l0,0l0,0l0,0l0,0l0,0l0,0
	l0,0l0,0l-1-0.4c-0.1,0-0.2,0-0.3,0.2l0,0c-0.1,0.1-0.1,0.3,0,0.3l0,0l0.6,0.3L99.6,24c-0.1,0.1-0.2,0.2-0.2,0.4s0.1,0.2,0.2,0.1
	l2.4-1.4l-0.6,1c-0.1,0.1-0.1,0.3,0,0.3s0.2,0,0.3-0.2l0,0L102.7,22.3L102.7,22.3z"/>
<g>
	<text transform="matrix(1 -0.5779 0 1 74.0315 95.1427)" class="st31 st34 st35">Selecciona un horario</text>
	<g>
		<text transform="matrix(1 -0.5779 0 1 74.0306 73.6091)" class="st31 st34 st35">Selecciona una fecha</text>
	</g>
	<path class="st0" d="M75.1,97.2l13.9-8c0.6-0.3,1.1-0.1,1.1,0.5v4.5c0,0.6-0.5,1.3-1.1,1.7l-13.9,8c-0.6,0.3-1.1,0.1-1.1-0.5v-4.5
		C74,98.3,74.5,97.5,75.1,97.2z"/>
	<path class="st36" d="M75.1,97.3l13.9-8c0.5-0.3,0.9-0.1,0.9,0.4v4.5c0,0.5-0.4,1.2-0.9,1.5l-13.9,8c-0.5,0.3-0.9,0.1-0.9-0.4v-4.5
		C74.2,98.3,74.6,97.6,75.1,97.3z"/>
	<text transform="matrix(1 -0.5779 0 1 75.9111 101.0028)" class="st26 st34 st35">6:30 am</text>
	<path class="st0" d="M75.1,104.9l13.9-8c0.6-0.3,1.1-0.1,1.1,0.5v4.5c0,0.6-0.5,1.3-1.1,1.7l-13.9,8c-0.6,0.3-1.1,0.1-1.1-0.5v-4.5
		C74,106,74.5,105.3,75.1,104.9z"/>
	<path class="st36" d="M75.1,105.1l13.9-8c0.5-0.3,0.9-0.1,0.9,0.4v4.5c0,0.5-0.4,1.2-0.9,1.5l-13.9,8c-0.5,0.3-0.9,0.1-0.9-0.4
		v-4.5C74.2,106,74.6,105.4,75.1,105.1z"/>
	<text transform="matrix(1 -0.5779 0 1 75.6304 108.9131)" class="st26 st34 st35">11:30 am</text>
	<path id="Rectangle-4" class="st26" d="M92.3,87.2l13.9-8c0.6-0.3,1.1-0.1,1.1,0.5v4.5c0,0.6-0.5,1.3-1.1,1.7l-13.9,8
		c-0.6,0.3-1.1,0.1-1.1-0.5v-4.5C91.3,88.3,91.7,87.6,92.3,87.2z"/>
	<text transform="matrix(1 -0.5779 0 1 93.2545 90.98)" class="st7 st34 st35">7:30 am</text>
	<path class="st0" d="M92.3,95l13.9-8c0.6-0.3,1.1-0.1,1.1,0.5V92c0,0.6-0.5,1.3-1.1,1.7l-13.9,8c-0.6,0.3-1.1,0.1-1.1-0.5v-4.5
		C91.3,96.1,91.7,95.3,92.3,95z"/>
	<path class="st36" d="M92.3,95.1l13.9-8c0.5-0.3,0.9-0.1,0.9,0.4V92c0,0.5-0.4,1.2-0.9,1.5l-13.9,8c-0.5,0.3-0.9,0.1-0.9-0.4v-4.5
		C91.4,96.1,91.8,95.4,92.3,95.1z"/>
	<text transform="matrix(1 -0.5779 0 1 92.4293 99.205)" class="st26 st34 st35">12:30 pm</text>
	<path class="st0" d="M109.4,77.4l13.9-8c0.6-0.3,1.1-0.1,1.1,0.5v4.5c0,0.6-0.5,1.3-1.1,1.7l-13.9,8c-0.6,0.3-1.1,0.1-1.1-0.5V79
		C108.4,78.5,108.8,77.7,109.4,77.4z"/>
	<path class="st36" d="M109.4,77.5l13.9-8c0.5-0.3,0.9-0.1,0.9,0.4v4.5c0,0.5-0.4,1.2-0.9,1.5l-13.9,8c-0.5,0.3-0.9,0.1-0.9-0.4V79
		C108.5,78.5,108.9,77.8,109.4,77.5z"/>
	<text transform="matrix(1 -0.5779 0 1 110.2564 81.1547)" class="st26 st34 st35">8:30 am</text>
	<path class="st7" d="M100.7,44.4l6.4-3.7c0.4-0.2,0.7-0.1,0.7,0.3v6.4c0,0.4-0.3,0.8-0.7,1.1l-6.4,3.7c-0.4,0.2-0.7,0.1-0.7-0.3
		v-6.4C100,45.1,100.3,44.6,100.7,44.4z"/>
	<path class="st37" d="M100.7,44.6l6.4-3.7c0.3-0.2,0.5-0.1,0.5,0.2v6.4c0,0.3-0.2,0.6-0.5,0.8l-6.4,3.7c-0.3,0.2-0.5,0.1-0.5-0.2
		v-6.4C100.2,45.1,100.4,44.7,100.7,44.6z"/>
	<text transform="matrix(1 -0.5779 0 1 102.5173 52.5714)" class="st26 st34 st38">VAN</text>
	<path id="Path_1066" class="st26" d="M106.5,45.5C106.5,45.4,106.4,45.4,106.5,45.5c-0.1-0.2-0.1-0.2-0.2-0.3h-0.4
		c0,0-0.7-0.2-0.8-0.3c-0.1,0-0.3,0-0.4,0.1c-0.2,0.1-1,0.5-1.3,0.7l-2,1.1c-0.1,0-0.1,0.2-0.2,0.3c0,0.4-0.1,0.8-0.1,1.2l0,0v0.3
		c0,0,0,0,0.2,0c0.1,0,0.3-0.2,0.5-0.3v-0.1c0-0.2,0.2-0.5,0.4-0.6l0,0l0.2-0.1c0.2-0.1,0.4,0,0.4,0.2l0,0V48l2.3-1.3v-0.1
		c0-0.2,0.2-0.5,0.4-0.6l0,0l0.2-0.1c0.2-0.1,0.4,0,0.4,0.2l0,0v0.1l0.2-0.1l0.2-0.1l0,0l0.1-0.1l0,0
		C106.6,45.7,106.5,45.6,106.5,45.5z M104.5,46.2C104.5,46.2,104.5,46.3,104.5,46.2L104.5,46.2l-2.6,1.6c-0.1,0.1-0.2,0-0.2,0
		l-0.1-0.3v-0.1l0,0l2.8-1.6h0.1L104.5,46.2z M105.7,45.6l-0.6,0.3c-0.1,0.1-0.2,0-0.2-0.1l-0.1-0.3v-0.1l0,0l0.3-0.1
		c0.1,0,0.1,0,0.2,0L105.7,45.6L105.7,45.6L105.7,45.6L105.7,45.6z"/>
	<path id="Path_1067" class="st26" d="M102.4,48c-0.2,0.1-0.3,0.3-0.3,0.5s0.1,0.2,0.3,0.1c0.2-0.1,0.3-0.3,0.3-0.5
		C102.7,48,102.6,47.9,102.4,48z M102.4,48.5C102.3,48.5,102.3,48.5,102.4,48.5c-0.1-0.2,0-0.3,0-0.3c0.1,0,0.1,0,0.1,0.1
		S102.5,48.4,102.4,48.5L102.4,48.5L102.4,48.5z"/>
	<path id="Path_1068" class="st26" d="M105.6,46.1c-0.2,0.1-0.3,0.3-0.3,0.5s0.1,0.2,0.3,0.1c0.2-0.1,0.3-0.3,0.3-0.5
		C105.9,46.1,105.8,46,105.6,46.1z M105.6,46.6C105.5,46.6,105.5,46.6,105.6,46.6c-0.1-0.2,0-0.3,0-0.3c0.1,0,0.1,0,0.1,0.1
		C105.8,46.4,105.7,46.5,105.6,46.6L105.6,46.6L105.6,46.6z"/>
	<g id="Group_675" transform="translate(4.84 10.455)">
		<path id="Path_986" class="st39" d="M107.1,89.4"/>
	</g>
	<path id="Rectangle_2" class="st26" d="M119.7,49.3l8.6-5c0.6-0.3,1.1-0.1,1.1,0.5v10.7c0,0.6-0.5,1.4-1.1,1.7l-8.6,5
		c-0.6,0.3-1.1,0.1-1.1-0.5V51C118.6,50.4,119.1,49.6,119.7,49.3z"/>
	<path class="st0" d="M77.8,73.5l8.6-5c0.6-0.3,1.1-0.1,1.1,0.5v10.7c0,0.6-0.5,1.4-1.1,1.7l-8.6,5c-0.6,0.3-1.1,0.1-1.1-0.5V75.2
		C76.7,74.6,77.2,73.8,77.8,73.5z"/>
	<path class="st40" d="M77.8,73.6l8.6-5c0.5-0.3,1-0.1,1,0.4v10.7c0,0.5-0.4,1.2-1,1.5l-8.6,5c-0.5,0.3-1,0.1-1-0.4V75.1
		C76.8,74.6,77.3,73.9,77.8,73.6z"/>
	<path class="st0" d="M91.8,65.4l8.6-5c0.6-0.3,1.1-0.1,1.1,0.5v10.7c0,0.6-0.5,1.4-1.1,1.7l-8.6,5c-0.6,0.3-1.1,0.1-1.1-0.5V67.1
		C90.7,66.5,91.2,65.8,91.8,65.4z"/>
	<path class="st40" d="M91.8,65.5l8.6-5c0.5-0.3,1-0.1,1,0.4v10.7c0,0.5-0.4,1.2-1,1.5l-8.6,5c-0.5,0.3-1,0.1-1-0.4V67.1
		C90.8,66.5,91.2,65.8,91.8,65.5z"/>
	<path class="st0" d="M105.7,57.4l8.6-5c0.6-0.3,1.1-0.1,1.1,0.5v10.7c0,0.6-0.5,1.4-1.1,1.7l-8.6,5c-0.6,0.3-1.1,0.1-1.1-0.5V59.1
		C104.6,58.5,105.1,57.7,105.7,57.4z"/>
	<path class="st40" d="M105.7,57.5l8.6-5c0.5-0.3,1-0.1,1,0.4v10.7c0,0.5-0.4,1.2-1,1.5l-8.6,5c-0.5,0.3-1,0.1-1-0.4V59
		C104.7,58.5,105.2,57.8,105.7,57.5z"/>
	<text transform="matrix(1 -0.5779 0 1 93.8726 72.1375)" class="st41 st42 st43">28</text>
	<text transform="matrix(1 -0.5779 0 1 93.2512 68.2076)" class="st41 st44 st45">MAR</text>
	<text transform="matrix(1 -0.5779 0 1 93.4093 75.8379)" class="st41 st44 st45">MAY</text>
	<text transform="matrix(1 -0.5779 0 1 80.0559 80.1212)" class="st41 st42 st43">27</text>
	<text transform="matrix(1 -0.5779 0 1 79.4555 76.1791)" class="st41 st44 st45">HOY</text>
	<text transform="matrix(1 -0.5779 0 1 79.4632 83.8973)" class="st41 st44 st45">MAY</text>
	<text transform="matrix(1 -0.5779 0 1 108.0115 63.9676)" class="st41 st42 st43">29</text>
	<text transform="matrix(1 -0.5779 0 1 107.8991 59.7426)" class="st41 st44 st45">MIE</text>
	<text transform="matrix(1 -0.5779 0 1 107.5685 67.6553)" class="st41 st44 st45">MAY</text>
	<text transform="matrix(1 -0.5779 0 1 121.5602 56.1378)" class="st7 st42 st43">30</text>
	<text transform="matrix(1 -0.5779 0 1 121.5399 51.8605)" class="st7 st44 st45">JUE</text>
	<text transform="matrix(1 -0.5779 0 1 121.299 59.7214)" class="st7 st44 st45">MAY</text>
</g>
</svg>
