<?xml version="1.0" encoding="utf-8"?>
<!-- Generator: Adobe Illustrator 23.0.3, SVG Export Plug-In . SVG Version: 6.00 Build 0)  -->
<svg version="1.1" id="Layer_1" xmlns="http://www.w3.org/2000/svg" xmlns:xlink="http://www.w3.org/1999/xlink" x="0px" y="0px"
	 width="140px" height="140px" viewBox="0 0 140 140" style="enable-background:new 0 0 140 140;" xml:space="preserve">
<style type="text/css">
	.st0{fill:#FFFFFF;}
	.st1{fill:none;}
	.st2{fill:#BABCBE;}
	.st3{opacity:0.3;fill:#404041;enable-background:new    ;}
	.st4{fill:#F5F5F5;}
	.st5{fill:#E6E6E6;}
	.st6{fill:#626566;}
	.st7{fill:#465E67;}
	.st8{fill:#F2F2F2;}
	.st9{fill:#C8D6DD;}
	.st10{fill:#D47733;}
	.st11{fill:#4C4B4E;}
	.st12{fill:#727170;}
	.st13{fill:#809D99;}
	.st14{fill:#4C6775;}
	.st15{fill:#7095A1;}
	.st16{fill:#49BEAF;}
	.st17{fill:#BE1E2D;}
	.st18{fill:#2C2D2D;}
	.st19{fill:#CCCCCC;}
	.st20{fill:#999999;}
	.st21{fill:#ECEAD3;}
</style>
<g>
	<path class="st0" d="M87,122.4c3,1.1,5.4,0.1,6.4-2.3l2.5,1.4c0,0,4.5,2.4,9.2,1.3c4.8-1.1,13-5.2,15.5-6.7s7.1-4.9,7.7-6.1
		c0.6-1.2,0.4-7.7-0.1-8.6c0,0-0.1-0.6-0.2-1.4c0,0,0-0.1,0-0.2s0-0.1,0-0.2c-0.1-0.2-0.1-0.3-0.1-0.4c-0.1-0.4-0.1-0.8-0.2-1.3
		c0-0.1,0-0.1,0-0.2c-0.1-0.1-0.1-0.3-0.1-0.4c0-0.1,0-0.2,0-0.3c-0.1-0.1-0.1-0.3-0.1-0.5c0-0.1,0-0.1,0-0.2
		c-0.1-0.2-0.1-0.3-0.1-0.5c0-0.1,0-0.1,0-0.2c0-0.1,0-0.2,0-0.3s0-0.1,0-0.2c-0.1-0.2-0.1-0.3-0.1-0.4c-0.2-1.4-8.4-14.7-8.4-14.7
		s-0.5-1.2-1.2-3c0.1,0,0.1,0.1,0.2,0.1c0,0,0,0,0,0c-0.1,0-0.2-0.1-0.3-0.2c-0.1-0.1-0.1-0.3-0.2-0.4l0.1-0.1h0.2
		c0.4-0.1,0.6-0.4,0.6-0.8v-6.4c0-0.5-0.5-0.9-0.9-0.8l-1.1,0.4c-0.4,0.1-0.6,0.4-0.6,0.8V72v0.1c-1.3-3-2.7-6.2-3.7-8
		c-2.4-4.4-4.8-7.7-6.9-10.2c-1.7-2.1-8.2-5.5-8.2-5.5L41.2,16.3L14.1,32l-2.7,7c-0.2,0.6-0.3,1.2-0.3,1.8v26.6v0.1v1v1.3
		c0,0,2.5,4.9,3.1,5.6l8.6,4.8c0.4,2.8,2.1,5.7,4.3,7.9c0,0,43.7,25,56.4,32.2c0.1,0.1,0.3,0.3,0.4,0.4c0.2,0.1,0.4,0.2,0.6,0.3
		c0.4,0.3,0.9,0.6,1.3,0.9c0.3,0.1,0.5,0.2,0.7,0.3c0.2,0.1,0.5,0.3,0.7,0.4c0.1,0,0.2,0,0.2,0.1C87.3,122.6,87.2,122.5,87,122.4z
		 M31.8,90.7c2.6,0.6,4.7-0.3,5.6-2.3l41.3,23.4c0.4,3.1,2.4,6.6,5.1,8.7C71.2,113.3,49.4,100.8,31.8,90.7z"/>
	<path class="st0" d="M122.1,79.6c-0.5-0.3-2-1.1-4.2-2.5C120.1,78.5,121.6,79.3,122.1,79.6z"/>
	<path class="st0" d="M93.8,126.3C93.8,126.3,93.8,126.3,93.8,126.3C93.8,126.3,93.8,126.3,93.8,126.3z"/>
</g>
<g>
	<path class="st1" d="M14.2,32L14.2,32L14.2,32z"/>
	<path class="st2" d="M101.3,118c-0.1,0-0.1,0-0.2,0C101.2,118,101.3,118,101.3,118z"/>
	<path class="st2" d="M99.5,117.7L99.5,117.7L99.5,117.7z"/>
	<path class="st2" d="M98,117.3c-0.1,0-0.1,0-0.2-0.1C97.9,117.3,98,117.3,98,117.3z"/>
	<path class="st2" d="M98.7,117.5c-0.1,0-0.1,0-0.2-0.1C98.6,117.5,98.6,117.5,98.7,117.5z"/>
	<path class="st2" d="M100.5,117.9c-0.1,0-0.2,0-0.2,0S100.4,117.9,100.5,117.9z"/>
	<path class="st3" d="M78.7,111.8L37.4,88.4c-0.9,2-3,2.9-5.6,2.3c17.6,10.1,39.4,22.6,52,29.8C81.1,118.4,79.1,114.9,78.7,111.8z"
		/>
	<path class="st3" d="M135.3,100.6c-2.1-2.3-6.8-4.3-7.3-5.3s-0.9-6.7-1.3-8.9c-0.4-2.2-0.5-4.4-4.6-6.8c-0.5-0.3-2.1-1.2-4.4-2.6
		c0.7,1.8,1.2,3,1.2,3s8.2,13.3,8.4,14.7c0,0.1,0,0.2,0.1,0.4c0,0.1,0,0.1,0,0.2s0,0.2,0,0.3c0,0.1,0,0.1,0,0.2c0,0.2,0,0.3,0.1,0.5
		c0,0.1,0,0.1,0,0.2c0,0.2,0,0.4,0.1,0.5c0,0.1,0,0.2,0,0.3c0,0.1,0,0.3,0.1,0.4c0,0.1,0,0.1,0,0.2c0.1,0.5,0.1,0.9,0.2,1.3
		c0,0.1,0,0.2,0.1,0.4c0,0.1,0,0.1,0,0.2s0,0.2,0,0.2l0,0c0.1,0.8,0.2,1.4,0.2,1.4c0.5,0.9,0.7,7.4,0.1,8.6
		c-0.6,1.2-5.2,4.6-7.7,6.1s-10.7,5.6-15.5,6.7c-4.7,1.1-9.2-1.3-9.2-1.3l-2.5-1.4c-1,2.4-3.4,3.4-6.4,2.3c4.1,2.4,6.7,3.8,7,4
		c1.9,1.1,5.4,3.5,9.1,1.4s28.9-16.5,31.6-18.4C137.5,107.6,137.5,102.9,135.3,100.6z"/>
	<path class="st2" d="M127.9,102.9c0-0.2,0.1-0.4,0.1-0.6C127.9,102.4,127.9,102.6,127.9,102.9z"/>
	<path class="st2" d="M104.5,117.9c-0.4,0.1-0.8,0.1-1.2,0.1C103.7,118,104.1,118,104.5,117.9z"/>
	<path class="st2" d="M103,118.1c-0.2,0-0.5,0-0.7,0C102.5,118.1,102.7,118.1,103,118.1z"/>
	<path class="st3" d="M22.8,80.2l-8.6-4.8c-0.6-0.7-3.1-5.6-3.1-5.6v-1.3v-1l0,0c-3.8,2.3-6.4,3.9-6.9,4.2c-2.2,1.6-1.9,2.2,0,3.3
		c0.6,0.4,10.2,5.8,22.9,13.1C24.9,85.9,23.2,83,22.8,80.2z"/>
	<polygon class="st4" points="14.1,32 14.2,32 14.2,32 42.9,48.5 69.8,64.1 82.5,56.7 96.9,48.4 41.2,16.3 	"/>
	<polygon class="st5" points="11.1,40.7 11.1,40.7 11.1,55.3 11.1,55.3 	"/>
	<path class="st5" d="M59.7,84c-0.1,0-0.2,0.1-0.3,0.1l-14.1,4.2l0,0l14.1-4.2C59.5,84,59.6,84,59.7,84z"/>
	<path class="st5" d="M60.3,82.8c0,0.3,0,0.5-0.1,0.8C60.2,83.3,60.3,83,60.3,82.8z"/>
	<path class="st5" d="M15.9,72.4l-0.6-0.3C15.5,72.2,15.7,72.3,15.9,72.4z"/>
	<polygon class="st5" points="49.4,52.6 49.4,52.5 52,59.7 52,59.7 	"/>
	<path class="st5" d="M11.1,67.5v1V67.5z"/>
	<path class="st5" d="M42.9,48.5L14.2,32l0,0L42.9,48.5C42.8,48.5,42.9,48.5,42.9,48.5z"/>
	<path class="st5" d="M69.8,64.1L42.9,48.5l0,0L69.8,64.1z"/>
	<path class="st6" d="M117.7,76.4c0.4-0.1,0.6-0.4,0.6-0.8v-6.4c0-0.5-0.5-0.9-0.9-0.8l-1.1,0.4c-0.4,0.1-0.6,0.4-0.6,0.8V72
		c0.7,1.6,1.3,3.1,1.8,4.4H117.7z"/>
	<path class="st7" d="M84.3,88.4l1.1,0.2L82,79.2c-0.5-1.3-1.4-2.4-2.6-3.2l-7-4.4v12.5l10.9,6.4v-1.3
		C83.3,88.7,83.8,88.3,84.3,88.4z"/>
	<path class="st6" d="M86.8,91.7v-2.1c0-0.4-0.3-0.7-0.6-0.8l-0.8-0.2l1.4,3.9V91.7z"/>
	<path class="st6" d="M83.3,90.5v5c0,0.4,0.3,0.7,0.6,0.8l1.9,0.4c0.5,0.1,0.9-0.3,0.9-0.8v-2.7v-0.7L83.3,90.5z"/>
	<path class="st6" d="M85.4,88.6l-1.1-0.2c-0.5-0.1-0.9,0.3-0.9,0.8v1.3l3.5,2L85.4,88.6z"/>
	<polygon class="st6" points="86.8,92.6 86.8,93.2 87.7,93.7 87.7,94.5 88.6,94.8 88.6,92.6 86.8,91.7 	"/>
	<path class="st8" d="M117.7,77.1c-0.1-0.2-0.2-0.4-0.3-0.6l-0.5,0.2C117.2,76.8,117.5,77,117.7,77.1z"/>
	<path class="st8" d="M106.9,57.6c2.7,4.6,3.7,9.4,3.7,9.4c0.2-0.1,0.3-0.2,0.5-0.3c0.6-0.3,0.9-0.5,0.9-0.5l3.7,8.7v-2.8
		c-1.3-3-2.7-6.2-3.7-8c-2.4-4.4-4.8-7.7-6.9-10.2s-8.2-5.5-8.2-5.5S104.2,53,106.9,57.6z"/>
	<path class="st8" d="M116.6,76.8L116.6,76.8l1.4,3.6l0,0l0,0l0,0l0,0c0,0,0,0.1-0.1,0.1c0,0,0,0,0,0.1l-0.1,0.1l-0.1,0.1
		c0,0.1-0.1,0.1-0.1,0.2l-0.1,0.1c0,0.1-0.1,0.1-0.1,0.2l0,0c0,0,7.4,16.1,7.9,16.9c0.5,0.7,0.3,5.9,0.4,9.2
		c0.3-0.3,0.5-0.5,0.8-0.8c1.1-1.2,1.4-2.6,1.5-3.7c0-0.2,0.1-0.4,0.1-0.6c0.1-0.5,0.1-0.8,0.3-0.8c0,0-0.1-0.6-0.2-1.4
		c0,0.1-0.5,0.7-0.6,0.8c-0.1,0.2-1.4,1.4-1.7,1.1s-0.3-2.8-0.2-3.3c0.1-0.4,0.4-0.3,0.9-0.9s0.9-3,0.9-3
		c-0.2-1.4-8.4-14.7-8.4-14.7s-0.5-1.2-1.2-3c-0.2-0.1-0.5-0.3-0.8-0.4L116.6,76.8z"/>
	<path class="st8" d="M109.4,107.2c-0.4-0.7-15.2-12.7-15.2-12.7l0,0c-1.5,0.6-2.4,0.9-2.4,0.9l-5.7-14.6c0,0,1.4-0.8,3.4-2l0,0
		c-1.5-5.4-9.8-11.9-13.5-13c-3.6-1.1-6.4-1.7-6.4-1.7s11.6,7.5,14.6,16.3c3,8.7,5.9,15.5,5.9,15.5s6.9,6.3,8.4,8.2
		c0.1-0.1,0.1-0.2,0.2-0.2c0.4,0.1,1.4,1.1,1.9,1.6c0.4,0.4,2,2.1,2.3,2.2c0.2,0,4.4,0,4.7,0c0.4,0,1.1-0.1,1.2,0.1
		c0,0,1.5,2.2,1.7,2.4c0.2,0.2-0.2,0.5-0.5,0.6c-0.2,0.1-6.6,1.2-7.2,1.3c-0.3,0-0.6-0.1-0.9-0.2c0,2.6,0,6.1,0,6.3l0,0
		c0.2,0,0.5,0,0.7,0c0.1,0,0.2,0,0.4,0c0.4,0,0.8-0.1,1.2-0.1c2-0.3,6.1-1.9,9.7-3.5C113.6,113.4,109.8,107.8,109.4,107.2z
		 M76.5,68.3L76.5,68.3L76.5,68.3z"/>
	<path class="st8" d="M128,99.6c0,0.1,0,0.1,0,0.2C128.1,99.8,128.1,99.7,128,99.6z"/>
	<path class="st8" d="M127.8,97.9c0.1,0.5,0.1,0.9,0.2,1.3C127.9,98.9,127.9,98.4,127.8,97.9z"/>
	<path class="st8" d="M127.4,95.3c0,0.1,0,0.2,0,0.3C127.5,95.5,127.5,95.4,127.4,95.3z"/>
	<path class="st8" d="M127.5,95.9c0,0.2,0,0.3,0.1,0.5C127.6,96.2,127.5,96,127.5,95.9z"/>
	<path class="st8" d="M127.6,96.5c0,0.2,0,0.4,0.1,0.5C127.7,96.9,127.6,96.7,127.6,96.5z"/>
	<path class="st8" d="M127.7,97.3c0,0.1,0,0.3,0.1,0.4C127.8,97.6,127.7,97.5,127.7,97.3z"/>
	<path class="st8" d="M127.4,94.8c0,0.1,0,0.2,0.1,0.4C127.4,95,127.4,94.9,127.4,94.8z"/>
	<path class="st8" d="M116.2,76.2c0.3,0.2,0.5,0.3,0.8,0.4l0.5-0.2c-0.5-1.3-1.2-2.8-1.8-4.4v2.8L116.2,76.2z"/>
	<path class="st8" d="M116.6,76.8l0.4-0.2c-0.2-0.1-0.5-0.3-0.8-0.4l0.2,0.6C116.5,76.8,116.5,76.8,116.6,76.8z"/>
	<path class="st0" d="M110.7,67c-0.4,0.1-0.8,0.4-1.2,0.6c-0.3,0.1-0.5,0.2-0.8,0.4c-0.7,0.4-1.4,0.8-2.1,1.2
		c-0.4,0.2-0.9,0.5-1.3,0.7c0.1,0,0.1,0.1,0.2,0.1c-0.9,0.4-1.7,0.9-2.6,1.4c-0.1,0-0.1,0.1-0.2,0.1c-0.1,0-0.1,0.1-0.2,0.1
		c-2.2,1.2-4.6,2.6-6.8,3.8c-2.2,1.3-4.3,2.4-6,3.4c-1.5-5.4-9.9-11.9-13.5-13c-3.3-1-6-1.6-6.2-1.7l12.7-7.3c0,0,0,0-0.1,0L97,48.4
		c0,0,7.3,4.5,10,9.2C109.7,62.3,110.7,67,110.7,67z"/>
	<path class="st0" d="M117,81.5c-0.1,0.1-0.1,0.2-0.2,0.2c-0.1,0.1-0.1,0.1-0.2,0.2l0,0l0,0l0,0c-0.1,0.1-0.2,0.1-0.2,0.2
		c-0.1,0.1-0.2,0.2-0.2,0.2c-0.1,0.1-0.2,0.2-0.3,0.3l-0.1,0.1l0,0c-0.1,0.1-0.2,0.2-0.4,0.3c-0.2,0.2-0.5,0.4-0.7,0.6
		c-0.5,0.4-1.1,0.9-1.8,1.4c-1.4,1-3.1,2.1-5.2,3.2c-5.5,3.1-10.5,5.1-13.2,6.2l0,0c0,0,14.7,12,15.2,12.7c0.4,0.6,4.2,6.2,4.8,7.2
		c2.1-0.9,4.1-1.9,5.3-2.6c2.9-1.6,4.4-2.8,6-4.4c-0.1-3.3,0.1-8.5-0.4-9.2c-0.5-0.8-7.9-16.9-7.9-16.9l0,0
		C117.2,81.4,117.1,81.5,117,81.5z M105.6,93.4l-5,2.9c-0.2,0.1-0.4,0.1-0.5-0.1l-0.9-0.9c-0.2-0.2-0.2-0.6,0.1-0.7l5.1-2.8
		c0.2-0.1,0.4-0.1,0.5,0.1l0.9,0.9C105.9,92.9,105.8,93.3,105.6,93.4z M123.3,100.9c0.4-0.5,1.3-1.2,1.4-0.7c0,0.2,0,0.6,0,1.1l0,0
		v1l0,0c0,1.2-0.1,2.5-0.1,2.8c-0.1,0.6-0.2,0.9-0.5,1.2c-0.4,0.3-2.9,2.3-3.6,2.8s-4.3,2.3-5.2,2.5c-1,0.3-1.5,0.3-1.7-0.1
		c-0.1-0.1-0.2-0.3-0.4-0.6c0,0,0,0-0.1,0l-0.3-0.7c-0.3-0.4-0.5-0.9-0.8-1.3l-0.2-0.3l0,0c-0.2-0.4-0.4-0.6-0.4-0.8
		c-0.3-0.6,0.2-1,0.8-1.1c0.6-0.1,4.6-1.5,6.5-2.5C120.6,103.3,122.9,101.3,123.3,100.9z M117.6,85.8l-3.3,2.4
		c-0.2,0.1-0.5,0.1-0.6-0.1l-0.7-0.7c-0.2-0.2-0.2-0.5,0.1-0.7l3.3-2.4c0.2-0.1,0.5-0.1,0.6,0.1l0.7,0.7
		C117.9,85.3,117.8,85.6,117.6,85.8z"/>
	<path class="st9" d="M127.7,97.1c0,0.1,0,0.2,0,0.3C127.7,97.2,127.7,97.2,127.7,97.1z"/>
	<path class="st9" d="M127.6,96.4c0,0.1,0,0.1,0,0.2C127.6,96.5,127.6,96.4,127.6,96.4z"/>
	<path class="st9" d="M128.1,100c0-0.1,0-0.2,0-0.2C128.1,99.9,128.1,100,128.1,100L128.1,100z"/>
	<path class="st9" d="M127.4,95.2c0,0.1,0,0.1,0,0.2C127.4,95.3,127.4,95.2,127.4,95.2z"/>
	<path class="st9" d="M127.5,95.7c0,0.1,0,0.1,0,0.2C127.5,95.8,127.5,95.7,127.5,95.7z"/>
	<path class="st9" d="M128,99.3c0,0.1,0,0.3,0.1,0.4C128,99.5,128,99.4,128,99.3z"/>
	<path class="st9" d="M127.8,97.8c0,0.1,0,0.1,0,0.2C127.8,97.9,127.8,97.8,127.8,97.8z"/>
	<path class="st9" d="M125.5,98.7c-0.1,0.4-0.2,3,0.2,3.3s1.6-1,1.7-1.1c0.1-0.2,0.7-0.7,0.6-0.8c0-0.1,0-0.2,0-0.2s0-0.1,0-0.2
		s0-0.2-0.1-0.4c-0.1-0.4-0.1-0.9-0.2-1.3c0-0.1,0-0.1,0-0.2c0-0.2,0-0.3-0.1-0.4c0-0.1,0-0.2,0-0.3c0-0.2-0.1-0.4-0.1-0.5
		s0-0.1,0-0.2c0-0.2,0-0.3-0.1-0.5c0-0.1,0-0.1,0-0.2s0-0.2,0-0.3c0-0.1,0-0.1,0-0.2s0-0.3-0.1-0.4c0,0-0.4,2.4-0.9,3
		S125.6,98.3,125.5,98.7z"/>
	<path class="st9" d="M98.5,106.9c0.1,0.9,2.8,4,3.1,4.3c0.1,0.2,0.4,0.4,0.6,0.5c0-0.8,0-1.6,0-2.1c0-0.2,0-0.4-0.1-0.6
		c0,0.7-0.2,1.4-0.3,1.3c-0.3-0.2-2-2.1-2.2-2.4c-0.2-0.2-0.6-1.1-0.6-1.2s0.1-1.4,0.1-1.6s0.2-0.2,0.4-0.1
		c-0.2-0.3-0.4-0.5-0.5-0.7c0-0.1-0.1-0.2-0.2-0.3C98.4,104.6,98.4,106.2,98.5,106.9z"/>
	<path class="st9" d="M99.5,105.1c0.5,0.2,1.1,0.8,1.4,1c0.3,0.3,1.1,1.2,1.3,1.7c0.1,0.2,0.1,0.8,0,1.3c0,0.2,0.1,0.4,0.1,0.6
		c0,0.5,0,1.2,0,2.1c0.3,0.2,0.6,0.3,0.9,0.2c0.6-0.1,7-1.1,7.2-1.3c0.2-0.1,0.6-0.4,0.5-0.6c-0.2-0.2-1.7-2.4-1.7-2.4
		c-0.2-0.2-0.9-0.1-1.2-0.1c-0.4,0-4.5,0-4.7,0s-1.9-1.8-2.3-2.2c-0.5-0.5-1.5-1.5-1.9-1.6c-0.1,0-0.1,0.1-0.2,0.2
		c0.1,0.1,0.2,0.2,0.2,0.3C99.1,104.6,99.2,104.8,99.5,105.1z"/>
	<path class="st10" d="M99,105.2c0,0.3-0.1,1.5-0.1,1.6s0.5,1,0.6,1.2c0.2,0.2,1.9,2.2,2.2,2.4c0.2,0.1,0.3-0.6,0.3-1.3
		c-0.3-1.5-1.7-2.9-2.7-4C99.2,105,99,105,99,105.2z"/>
	<path class="st10" d="M102.1,107.8c-0.1-0.5-0.9-1.3-1.3-1.7c-0.2-0.2-0.9-0.8-1.4-1c0.9,1.1,2.3,2.5,2.7,4
		C102.2,108.6,102.2,108,102.1,107.8z"/>
	<path class="st11" d="M118.4,108.1L118.4,108.1v-1c-2.1,1-5.7,2.3-6.2,2.4l-0.2-0.4c0.2,0.4,0.5,0.9,0.8,1.3v-0.1
		C112.7,110.4,116,109.3,118.4,108.1z"/>
	<path class="st11" d="M111.3,108c0.1,0.1,0.2,0.4,0.4,0.8c0.2-0.1,4.7-1.5,7.1-2.9c2.6-1.5,5.8-4.5,5.8-4.6c0-0.5,0-1,0-1.1
		c-0.1-0.5-1,0.2-1.4,0.7s-2.7,2.4-4.6,3.5s-5.9,2.4-6.5,2.5C111.5,107,111.1,107.4,111.3,108z"/>
	<path class="st11" d="M120.4,105.9C120.4,106,120.4,106,120.4,105.9v1c2.2-1.5,4.2-3.4,4.2-3.4v1c-0.4,0.5-3,2.9-5,4
		c-1.9,1-5.8,2.5-6.6,2.6c0.2,0.3,0.3,0.5,0.4,0.6c0.3,0.4,0.8,0.3,1.7,0.1c1-0.3,4.5-2.1,5.2-2.5c0.7-0.5,3.2-2.5,3.6-2.8
		s0.5-0.6,0.5-1.2c0-0.3,0.1-1.7,0.1-2.8C124.3,102.7,122.2,104.6,120.4,105.9z"/>
	<path class="st12" d="M124.7,102.3v-1l0,0C124.7,101.6,124.7,101.9,124.7,102.3L124.7,102.3z"/>
	<path class="st12" d="M111.7,108.8l0.2,0.3C111.9,109,111.8,108.9,111.7,108.8L111.7,108.8z"/>
	<path class="st12" d="M111.7,108.8c0.1,0.1,0.1,0.2,0.2,0.3l0.2,0.4c0.6-0.1,4.1-1.4,6.2-2.4v-0.2c0-0.1,0.1-0.2,0.1-0.3l1.4-0.9
		c0.2-0.1,0.4,0,0.4,0.2c1.8-1.3,3.9-3.2,4.3-3.6c0-0.4,0-0.7,0-1c-0.1,0.1-3.3,3.1-5.8,4.6C116.5,107.3,111.9,108.8,111.7,108.8z"
		/>
	<path class="st12" d="M113,111.1C113,111.1,113.1,111.1,113,111.1c-0.1-0.2-0.2-0.4-0.3-0.7L113,111.1z"/>
	<path class="st12" d="M124.6,104.5v-1c0,0-2,1.9-4.2,3.4v0.2c0,0.1-0.1,0.2-0.1,0.3l-1.4,0.9c-0.2,0.1-0.4,0-0.4-0.2
		c-2.5,1.2-5.8,2.3-5.8,2.3v0.1c0.1,0.2,0.3,0.5,0.4,0.6c0.8-0.2,4.7-1.6,6.6-2.6C121.5,107.4,124.2,104.9,124.6,104.5z"/>
	<path class="st7" d="M110.6,67c0.2-0.1,0.3-0.2,0.5-0.3C110.9,66.8,110.8,66.9,110.6,67L110.6,67L110.6,67z"/>
	<path class="st7" d="M91.9,95.4l-1.1-2.9c0,0,10.3-6.2,12.2-7c1.9-0.9,1.3-2,1.5-2.7s0.9-1.3,3.1-2.4c0.9-0.5,2.8-1.1,4.6-1.6
		c-3.6-2.6-8.4-6.1-9.5-7.1c-3.9,2.3-8.7,5-13,7.1c-2.1,1.2-3.4,2-3.4,2L91.9,95.4z"/>
	<path class="st7" d="M118,80.4L118,80.4L118,80.4z"/>
	<path class="st7" d="M106.6,69.2c0.7-0.4,1.4-0.8,2.1-1.2C108,68.4,107.3,68.8,106.6,69.2z"/>
	<path class="st7" d="M110.6,67L110.6,67c-0.3,0.2-0.7,0.4-1.2,0.6C109.9,67.4,110.3,67.2,110.6,67L110.6,67z"/>
	<path class="st7" d="M102.4,71.6c-4.5,2.5-9.5,5.4-12.8,7.2c4.3-2.1,9.1-4.8,13-7.1C102.5,71.7,102.5,71.6,102.4,71.6z"/>
	<path class="st7" d="M102.6,71.5c0.1,0,0.1-0.1,0.2-0.1C102.7,71.4,102.7,71.4,102.6,71.5z"/>
	<path class="st13" d="M111,66.7c0.6-0.3,0.9-0.5,0.9-0.5S111.6,66.4,111,66.7z"/>
	<path class="st13" d="M106.6,69.2c-0.4,0.2-0.8,0.5-1.3,0.7l0,0C105.8,69.7,106.2,69.4,106.6,69.2z"/>
	<path class="st13" d="M108.7,68.1c0.3-0.2,0.5-0.3,0.8-0.4C109.2,67.8,108.9,67.9,108.7,68.1z"/>
	<path class="st13" d="M102.4,71.6L102.4,71.6c0.1,0,0.1-0.1,0.2-0.1C102.6,71.5,102.5,71.5,102.4,71.6z"/>
	<path class="st13" d="M105.3,69.9L105.3,69.9c-0.8,0.5-1.7,0.9-2.6,1.4C103.7,70.9,104.5,70.4,105.3,69.9z"/>
	<path class="st13" d="M116.6,82L116.6,82L116.6,82z"/>
	<path class="st13" d="M105.5,70c3.1,1.8,6,3.5,8.4,4.9c-1-4.5-2-8.7-2-8.7s-0.3,0.2-0.9,0.5c-0.1,0.1-0.3,0.2-0.5,0.3
		C110.6,67,108.5,68.2,105.5,70z"/>
	<path class="st13" d="M112.2,78.8c0.9-0.3,1.7-0.5,2.5-0.7c-0.2-1-0.5-2.1-0.7-3.2c-2.4-1.4-5.3-3.1-8.4-4.9
		c-0.9,0.5-1.9,1.1-2.9,1.7C103.8,72.7,108.5,76.2,112.2,78.8z"/>
	<path class="st13" d="M105.5,70c3-1.8,5.1-3.1,5.1-3.1c-0.3,0.2-0.7,0.4-1.2,0.6c-0.2,0.1-0.5,0.3-0.8,0.4
		c-0.6,0.4-1.3,0.7-2.1,1.2c-0.4,0.2-0.8,0.5-1.3,0.7C105.4,70,105.4,70,105.5,70z"/>
	<path class="st13" d="M105.5,70c-0.1,0-0.1-0.1-0.2-0.1c-0.8,0.5-1.7,0.9-2.6,1.4c-0.1,0-0.1,0.1-0.2,0.1s-0.1,0.1-0.2,0.1
		c0,0,0.1,0.1,0.2,0.2C103.7,71.1,104.6,70.6,105.5,70z"/>
	<path class="st14" d="M117.5,81L117.5,81C117.4,81.1,117.5,81.1,117.5,81z"/>
	<path class="st14" d="M117.9,80.6C117.8,80.6,117.8,80.6,117.9,80.6C117.8,80.6,117.8,80.6,117.9,80.6z"/>
	<path class="st14" d="M117.9,80.4L117.9,80.4L117.9,80.4z"/>
	<path class="st14" d="M117.7,80.7C117.7,80.8,117.7,80.8,117.7,80.7C117.7,80.8,117.7,80.8,117.7,80.7z"/>
	<path class="st14" d="M115.6,82.9L115.6,82.9C115.7,82.8,115.7,82.8,115.6,82.9L115.6,82.9z"/>
	<path class="st14" d="M116.8,81.8c-0.1,0.1-0.1,0.1-0.2,0.2C116.7,81.9,116.8,81.8,116.8,81.8z"/>
	<path class="st14" d="M116.3,82.2c-0.1,0.1-0.2,0.2-0.2,0.2C116.2,82.4,116.3,82.3,116.3,82.2z"/>
	<path class="st14" d="M117.2,81.4c0,0.1-0.1,0.1-0.2,0.2C117.1,81.5,117.2,81.4,117.2,81.4z"/>
	<path class="st14" d="M118,80.4L118,80.4L118,80.4z"/>
	<path class="st14" d="M115.6,75.9v-1l-3.7-8.7c0,0,1,4.2,2,8.7C114.5,75.2,115.1,75.6,115.6,75.9z"/>
	<path class="st14" d="M115.6,76L115.6,76c-0.5-0.4-1.1-0.7-1.7-1.1c0.2,1.1,0.5,2.1,0.7,3.2c1.2-0.4,2.1-0.6,2.1-0.6l1.2,2.9l0,0
		l-1.5-3.6C116,76.8,115.6,76.5,115.6,76z"/>
	<path class="st14" d="M116.2,76.2l-0.6-1.3v1C115.8,76,116,76.1,116.2,76.2z"/>
	<path class="st14" d="M115.6,76c0,0.5,0.4,0.8,0.8,0.8l-0.2-0.6C116,76.1,115.8,76,115.6,76C115.6,75.9,115.6,76,115.6,76z"/>
	<path class="st15" d="M117.9,80.4C118,80.4,118,80.4,117.9,80.4L117.9,80.4C118,80.4,118,80.4,117.9,80.4L117.9,80.4z"/>
	<path class="st15" d="M117.2,81.3L117.2,81.3L117.2,81.3L117.2,81.3z"/>
	<path class="st15" d="M117.2,81.3c0-0.1,0.1-0.1,0.1-0.2l0,0C117.3,81.2,117.3,81.2,117.2,81.3z"/>
	<path class="st15" d="M117.5,81L117.5,81c0.1-0.1,0.1-0.1,0.1-0.2l0,0C117.6,80.9,117.5,81,117.5,81z"/>
	<path class="st15" d="M117.7,80.7L117.7,80.7C117.7,80.6,117.8,80.6,117.7,80.7L117.7,80.7C117.8,80.7,117.8,80.7,117.7,80.7z"/>
	<path class="st15" d="M117.9,80.6L117.9,80.6C117.9,80.5,117.9,80.5,117.9,80.6C117.9,80.5,117.9,80.5,117.9,80.6
		C117.9,80.5,117.9,80.5,117.9,80.6z"/>
	<path class="st15" d="M115.3,83.2c0.1-0.1,0.2-0.2,0.4-0.3l0,0C115.5,83,115.4,83.1,115.3,83.2z"/>
	<path class="st15" d="M116.3,82.2L116.3,82.2c0.1-0.1,0.2-0.2,0.2-0.2l0,0C116.5,82.1,116.4,82.2,116.3,82.2z"/>
	<path class="st15" d="M115.8,82.8L115.8,82.8c0.1-0.1,0.2-0.2,0.3-0.3l0,0C116,82.6,115.9,82.7,115.8,82.8z"/>
	<path class="st15" d="M114.5,83.8c-0.5,0.4-1.1,0.9-1.8,1.4C113.4,84.7,114,84.2,114.5,83.8z"/>
	<path class="st15" d="M117.2,81.4L117.2,81.4C117.2,81.3,117.2,81.3,117.2,81.4L117.2,81.4C117.2,81.3,117.2,81.3,117.2,81.4z"/>
	<path class="st15" d="M116.6,82L116.6,82L116.6,82L116.6,82L116.6,82z"/>
	<path class="st15" d="M116.8,81.8L116.8,81.8c0.1-0.1,0.2-0.2,0.2-0.2l0,0C117,81.6,116.9,81.7,116.8,81.8z"/>
	<path class="st15" d="M115.3,81.1c-0.8-0.6-1.9-1.4-3.1-2.2c-1.8,0.5-3.6,1.2-4.6,1.6c-2.2,1.1-2.9,1.7-3.1,2.4
		c-0.2,0.7,0.4,1.8-1.5,2.7c-1.9,0.9-12.2,7-12.2,7l1.1,2.9c0,0,0.9-0.3,2.4-0.9l21.2-12.2C115.4,81.9,115.4,81.5,115.3,81.1z"/>
	<path class="st15" d="M117.8,80.6L117.8,80.6C117.8,80.7,117.8,80.7,117.8,80.6z"/>
	<path class="st15" d="M117.9,80.4C118,80.4,118,80.4,117.9,80.4L117.9,80.4C118,80.4,118,80.4,117.9,80.4z"/>
	<path class="st15" d="M117.6,80.8c0,0.1-0.1,0.1-0.1,0.2C117.5,81,117.6,80.9,117.6,80.8z"/>
	<path class="st15" d="M117.2,81.3L117.2,81.3L117.2,81.3L117.2,81.3c0.1-0.1,0.1-0.1,0.2-0.2C117.3,81.2,117.3,81.3,117.2,81.3z"/>
	<path class="st15" d="M117.9,80.5L117.9,80.5L117.9,80.5z"/>
	<path class="st15" d="M116.8,81.8c0.1-0.1,0.2-0.2,0.2-0.2C117,81.6,116.9,81.7,116.8,81.8z"/>
	<path class="st15" d="M116.1,82.5c-0.1,0.1-0.2,0.2-0.3,0.3C115.9,82.7,116,82.6,116.1,82.5z"/>
	<path class="st15" d="M115.5,82.3L94.3,94.6c2.8-1.1,7.7-3.1,13.2-6.2c2.1-1.2,3.8-2.3,5.2-3.2c0.7-0.5,1.3-0.9,1.8-1.4
		c0.3-0.2,0.5-0.4,0.7-0.6c0.1-0.1,0.2-0.2,0.4-0.3C115.6,82.7,115.6,82.5,115.5,82.3z"/>
	<path class="st15" d="M116.3,82.2c0.1-0.1,0.2-0.2,0.2-0.2l0,0C116.5,82.1,116.4,82.2,116.3,82.2z"/>
	<path class="st15" d="M116.6,82L116.6,82L116.6,82L116.6,82z"/>
	<path class="st15" d="M117.2,81.3L117.2,81.3L117.2,81.3L117.2,81.3L117.2,81.3z"/>
	<polygon class="st15" points="116.6,82 116.6,82 116.6,82 	"/>
	<path class="st15" d="M115.3,81.1c-0.2-0.9-0.4-1.9-0.6-3c-0.7,0.2-1.6,0.5-2.5,0.7C113.4,79.7,114.5,80.5,115.3,81.1z"/>
	<polygon class="st15" points="116.6,82 116.6,82 116.6,82 	"/>
	<path class="st15" d="M117.9,80.5L117.9,80.5C117.9,80.4,117.9,80.4,117.9,80.5C117.9,80.4,117.9,80.4,117.9,80.5
		C117.9,80.4,117.9,80.5,117.9,80.5z"/>
	<path class="st15" d="M117.6,80.8L117.6,80.8L117.6,80.8L117.6,80.8C117.7,80.8,117.7,80.8,117.6,80.8z"/>
	<path class="st15" d="M117.4,81.2L117.4,81.2L117.4,81.2L117.4,81.2C117.5,81.1,117.4,81.1,117.4,81.2z"/>
	<path class="st15" d="M117.8,80.6L117.8,80.6L117.8,80.6C117.9,80.6,117.9,80.6,117.8,80.6L117.8,80.6z"/>
	<path class="st15" d="M116.6,82L116.6,82c0.1-0.1,0.1-0.1,0.2-0.2l0,0C116.8,81.8,116.7,81.9,116.6,82z"/>
	<path class="st15" d="M115.6,82.9L115.6,82.9L115.6,82.9L115.6,82.9C115.7,82.8,115.7,82.8,115.6,82.9z"/>
	<path class="st15" d="M117,81.5c0.1-0.1,0.1-0.1,0.2-0.2l0,0C117.2,81.4,117.1,81.5,117,81.5L117,81.5z"/>
	<path class="st15" d="M116.1,82.5L116.1,82.5c0.1-0.1,0.2-0.2,0.2-0.2l0,0C116.3,82.3,116.2,82.4,116.1,82.5z"/>
	<path class="st15" d="M117.2,81.3c0.1-0.1,0.1-0.1,0.2-0.2l0.1-0.1c0.1-0.1,0.1-0.1,0.1-0.2l0.1-0.1l0.1-0.1c0,0,0,0,0.1-0.1
		c0,0,0-0.1,0.1-0.1l0,0l0,0l0,0l-0.9,1L117.2,81.3z"/>
	<path class="st15" d="M116.3,81.8c-0.2-0.2-0.6-0.4-1.1-0.8c0.1,0.4,0.2,0.9,0.3,1.3L116.3,81.8z"/>
	<path class="st15" d="M115.6,82.9L115.6,82.9c0.2-0.2,0.3-0.3,0.4-0.4c0.1-0.1,0.2-0.2,0.2-0.2c0.1-0.1,0.2-0.2,0.2-0.2
		s-0.1-0.1-0.2-0.2l-0.8,0.5C115.6,82.5,115.6,82.7,115.6,82.9z"/>
	<path class="st15" d="M116.6,82L116.6,82c0.1-0.1,0.2-0.2,0.2-0.2c0.1-0.1,0.2-0.2,0.2-0.2c0.1-0.1,0.1-0.1,0.2-0.2l0,0l-0.1,0.1
		L116.6,82z"/>
	<path class="st15" d="M116.3,81.8l0.7-0.4l0.9-1l-1.2-2.9c0,0-0.9,0.2-2.1,0.6c0.2,1,0.4,2.1,0.6,3
		C115.8,81.4,116.1,81.7,116.3,81.8z"/>
	<path class="st15" d="M116.6,82l0.5-0.6l-0.7,0.4C116.5,81.9,116.6,82,116.6,82L116.6,82z"/>
	<polygon class="st7" points="55.2,61.6 70.5,70.5 70.5,83.1 60.9,77.5 57.7,75.7 54.7,73.9 54.7,61.3 	"/>
	<path class="st7" d="M52,59.7l0.4,1.3L52,59.7z"/>
	<path class="st16" d="M14.2,32L14.2,32l-2.8,7c-0.2,0.6-0.3,1.1-0.3,1.7l0,0c0-0.6,0.1-1.2,0.3-1.8L14.2,32z"/>
	<polygon class="st7" points="36.7,50.7 52,59.7 52.5,61 53.5,63.9 53.5,73.2 45.8,68.8 44.3,67.9 38.4,64.5 37,63.7 36.6,63.4 
		36.6,50.7 36.5,50.6 36.5,50.6 	"/>
	<polygon class="st7" points="52.5,61 52,59.7 53.5,60.6 53.5,63.9 	"/>
	<path class="st7" d="M14.8,39.4l0.6-1.1l20.7,12.1l0,0L35.4,50v1.1v2.7v2.4v6.5l-21-12.1v-9.4C14.4,40.6,14.5,39.9,14.8,39.4z"/>
	<polygon class="st16" points="53.5,73.3 54.7,74 54.7,73.9 53.5,73.2 	"/>
	<g>
		<path class="st5" d="M101.6,111.2c-0.3-0.3-3-3.5-3.1-4.3c-0.1-0.7,0-2.3,0.2-2.9c-1.5-1.9-8.4-8.2-8.4-8.2s-2.9-6.7-5.9-15.5
			C81.4,71.6,69.8,64,69.8,64l-27-15.5L14.2,32.1L11.4,39c-0.2,0.6-0.3,1.2-0.3,1.8v14.6h1.5l0.9,1.5v9.7L12,67.5h-0.9v1
			c0,0,3.1,2.7,3.7,3.2c0.1,0.1,0.3,0.2,0.5,0.4l0.6,0.3c1,0.5,2.9,1.4,6.7,3.1c0.7-2.2,4.5-4.9,10.1-0.7c5.5,4.2,6.3,9.8,6.3,9.8
			l6.4,3.6l3.2,1.8l30,17c1.3-2.2,4.9-3.8,9.9-0.7c5.3,3.3,6.5,9.2,6.5,9.2s1.1,0.8,2.6,1.4c0.2,0.1,0.3,0.1,0.5,0.2
			c0.1,0,0.1,0,0.2,0.1c0.2,0.1,0.3,0.1,0.5,0.2c0.1,0,0.1,0,0.2,0.1c0.2,0.1,0.5,0.1,0.7,0.2h0.1c0.2,0.1,0.4,0.1,0.7,0.1
			c0.1,0,0.2,0,0.2,0c0.2,0,0.4,0.1,0.7,0.1c0.1,0,0.2,0,0.2,0c0.3,0,0.6,0,0.9,0.1v-6.3C101.9,111.6,101.7,111.4,101.6,111.2z
			 M60.9,77.5l-3.2-1.8l-3-1.7l0,0l-1.2-0.7l0,0l-7.7-4.5l-1.5-0.9l-5.9-3.4L37,63.7l-0.4-0.2l-0.5-0.3l-1.4-0.8l-3.8-2.2l-5.1-3
			l-11.4-6.6v-9.4c0-0.6,0.1-1.2,0.4-1.8l0.6-1.1l20.7,12.1l0.3,0.2l0.2,0.1l0.3,0.2l0.9,0.5l14,8.2l3.2,1.9l15.3,9V83L60.9,77.5z
			 M88.6,94.8l-0.9-0.3v-0.8l-0.9-0.5v2.7c0,0.5-0.5,0.9-1,0.8L84,96.3c-0.4-0.1-0.6-0.4-0.6-0.8v-5l-10.9-6.4V71.7l7,4.4
			c1.2,0.7,2.1,1.8,2.5,3.2l3.4,9.4l0.8,0.2c0.4,0.1,0.6,0.4,0.6,0.8v2.1l1.8,0.9C88.6,92.7,88.6,94.8,88.6,94.8z"/>
	</g>
	<g>
		<polygon class="st5" points="35.4,50 36.6,50.7 36.6,52.2 36.6,63.4 36.1,63.2 35.4,62.7 35.4,53.8 		"/>
	</g>
	<polygon class="st5" points="54.7,61.3 54.7,73.9 53.5,73.2 53.5,63.9 53.5,60.6 	"/>
	<path class="st16" d="M60.1,83.5c-0.1,0.2-0.3,0.3-0.4,0.5C59.9,83.8,60,83.7,60.1,83.5z"/>
	<path class="st17" d="M11.1,55.3L11.1,55.3v12.2l0,0l0,0V55.3z"/>
	<path class="st17" d="M11.1,67.4C11.1,67.4,11.1,67.5,11.1,67.4L11.1,67.4L11.1,67.4z"/>
	<polygon class="st17" points="11.1,67.4 11.1,55.3 11.1,55.3 	"/>
	<polygon class="st17" points="11.1,67.4 11.1,67.4 11.1,67.4 	"/>
	<path class="st17" d="M13.5,56.8l-0.9-1.5h-1.5v12.1c0.8-0.5,1.6-0.9,2.4-1.4V56.8z"/>
	<path class="st17" d="M12,67.5l1.5-0.9V66c-0.8,0.5-1.6,1-2.4,1.4l0,0L12,67.5L12,67.5z"/>
	<path class="st18" d="M128.3,101.4c-0.2,0-0.3,0.3-0.3,0.8c0,0.2,0,0.4-0.1,0.6c-0.1,1.1-0.4,2.7-1.6,3.9c-0.3,0.3-0.5,0.6-0.8,0.8
		c-0.9,1.3-1.9,2.4-2.9,3.3l0,0c0.3-0.2,0.6,0,0.6,0.3v1.9c0,0.1-0.1,0.3-0.2,0.3l-5.5,3.2c-0.2,0.2-0.6,0-0.6-0.3v-1.9
		c0-0.1,0.1-0.3,0.2-0.3l0.4-0.2c-1.8,0.6-3.1,0.7-3.1,0.7c-3.7,1.6-7.9,3.1-9.8,3.4c-0.4,0.1-0.8,0.1-1.2,0.1c-0.1,0-0.2,0-0.4,0
		c-0.2,0-0.5,0-0.7,0l0,0c-0.3,0-0.6,0-0.8-0.1c-0.1,0-0.2,0-0.2,0c-0.2,0-0.4-0.1-0.7-0.1c-0.1,0-0.2,0-0.2,0
		c-0.2,0-0.5-0.1-0.7-0.1h-0.1c-0.2-0.1-0.5-0.1-0.7-0.2c-0.1,0-0.1,0-0.2,0c-0.2-0.1-0.3-0.1-0.5-0.2c-0.1,0-0.1,0-0.2-0.1
		c-0.2-0.1-0.4-0.1-0.5-0.2c-1.5-0.6-2.5-1.2-2.5-1.2s-1.2-6.2-6.5-9.5c-5-3.2-8.6-1.6-9.9,0.7l-30-17l-3.2-1.8L39,84.6
		c0,0-0.8-5.6-6.3-9.8c-5.5-4.2-9.3-1.6-10.1,0.7c-3.5-1.6-5.4-2.5-6.5-3l-0.2-0.1c-0.2-0.1-0.4-0.2-0.6-0.3L15,71.9l-3.9-3.4v1.3
		c0,0,2.5,4.8,3.1,5.6l8.6,4.9c-0.1-0.6-0.1-1.3-0.1-1.9c0.1-0.7,0.2-1.2,0.4-1.8c1.1-2.8,4.2-3.7,7.8-1.8c3.8,2,6.7,6.4,7.1,10.4
		c0,0.4,0.1,0.9,0,1.3c-0.1,0.8-0.2,1.5-0.5,2.1l41.3,23.3c-0.1-0.5-0.1-1,0-1.5c0.3-4.2,3.9-5.8,8.1-3.6c4.2,2.2,7.4,7.4,7.1,11.6
		c0,0.7-0.2,1.3-0.4,1.9l2.5,1.4c0,0,4.5,2.4,9.2,1.3s13-5.3,15.5-6.8s7.1-4.8,7.7-6.1C129,108.8,128.8,102.3,128.3,101.4z
		 M110,119.3c0,0.1,0,0.2-0.1,0.2l-1.2,0.6c-0.2,0.1-0.4,0-0.4-0.2v-1.3c0-0.1,0-0.2,0.1-0.2l1.2-0.6c0.2-0.1,0.4,0,0.4,0.2V119.3z
		 M127.5,109.4c0,0.1,0,0.2-0.1,0.2l-0.8,0.7c-0.2,0.1-0.4,0-0.4-0.2v-1.3c0-0.1,0-0.2,0.1-0.2l0.8-0.7c0.2-0.1,0.4,0,0.4,0.2V109.4
		z"/>
	<path class="st18" d="M99.4,117.7c-0.3-0.1-0.5-0.1-0.7-0.2C98.9,117.6,99.2,117.7,99.4,117.7z"/>
	<path class="st18" d="M101.3,118c0.3,0,0.6,0,0.9,0l0,0C101.9,118.1,101.6,118,101.3,118z"/>
	<path class="st18" d="M100.2,117.9c-0.2,0-0.5-0.1-0.7-0.1C99.7,117.8,100,117.8,100.2,117.9z"/>
	<path class="st18" d="M101.1,118c-0.2,0-0.4-0.1-0.7-0.1C100.7,117.9,100.9,118,101.1,118z"/>
	<path class="st18" d="M97.9,117.3c-0.2-0.1-0.4-0.1-0.5-0.2C97.5,117.1,97.7,117.2,97.9,117.3z"/>
	<path class="st18" d="M88.3,106.4c5.3,3.3,6.5,9.5,6.5,9.5s1,0.6,2.5,1.2c-1.5-0.6-2.6-1.4-2.6-1.4S93.6,109.7,88.3,106.4z"/>
	<path class="st18" d="M98.5,117.5c-0.2-0.1-0.3-0.1-0.5-0.2C98.2,117.4,98.4,117.4,98.5,117.5z"/>
	<path class="st18" d="M103.4,118c-0.1,0-0.3,0-0.4,0C103.1,118,103.2,118.1,103.4,118z"/>
	<path class="st18" d="M128,102.2c0.1-0.5,0.1-0.8,0.3-0.8C128.1,101.4,128,101.8,128,102.2z"/>
	<path class="st18" d="M126.3,106.8c1.1-1.2,1.4-2.8,1.6-3.9c-0.1,1.1-0.4,2.5-1.5,3.7c-0.3,0.3-0.5,0.6-0.8,0.8c0,0.1,0,0.1,0,0.2
		C125.8,107.3,126,107,126.3,106.8z"/>
	<path class="st18" d="M114.2,114.4c-3.6,1.6-7.8,3.2-9.7,3.5c1.9-0.3,6.1-1.8,9.8-3.4l0,0C114.4,114.5,114.3,114.5,114.2,114.4z"/>
	<path class="st18" d="M102.2,118.1L102.2,118.1L102.2,118.1L102.2,118.1z"/>
	<path class="st18" d="M119.9,112c-1.3,0.7-3.3,1.6-5.5,2.6c0,0,1.3-0.1,3.2-0.7l5.1-2.9c1-0.9,2-2,2.9-3.3l0,0
		C124,109.2,122.8,110.4,119.9,112z"/>
	<path class="st18" d="M114.2,114.4c0.1,0.1,0.1,0.2,0.1,0.2l0,0c2.2-0.9,4.3-1.9,5.5-2.6c2.9-1.6,4.1-2.8,5.7-4.4
		c0-0.1,0-0.1,0-0.2c-1.6,1.6-3.1,2.8-6,4.4C118.3,112.5,116.4,113.4,114.2,114.4z"/>
	<path class="st18" d="M15.3,72.1c-0.2-0.1-0.4-0.3-0.5-0.4c-0.6-0.5-3.7-3.2-3.7-3.2l3.8,3.4L15.3,72.1z"/>
	<path d="M85.8,121.9c0.5,0.2,0.9,0.4,1.4,0.6c-1-0.6-2.1-1.2-3.3-1.9C84.5,121.1,85.1,121.5,85.8,121.9z"/>
	<path d="M93.6,120.2l-2.3-1.3c-0.9,1.8-3,2.2-5.4,1c-2.5-1.3-4.5-4.2-5-6.8l-2.1-1.2c0.4,3.1,2.4,6.6,5.1,8.8
		c1.2,0.7,2.3,1.3,3.3,1.9C90.1,123.5,92.6,122.6,93.6,120.2z"/>
	<path d="M86.8,106.7c-4.2-2.2-7.9-0.6-8.1,3.6c0,0.5,0,1,0,1.5l2.1,1.2c-0.1-0.5-0.1-1-0.1-1.5c0.2-3,2.8-4.2,5.8-2.6
		s5.3,5.3,5.1,8.3c0,0.6-0.2,1.1-0.4,1.6l2.3,1.3c0.2-0.5,0.4-1.2,0.4-1.9C94.2,114.1,91.1,108.9,86.8,106.7z"/>
	<path class="st19" d="M86.5,117.6c-1.2-0.6-2.2-1.8-2.8-3l-2.9-1.6c0.5,2.7,2.5,5.5,5,6.8c2.4,1.3,4.5,0.8,5.4-1l-1.9-1
		C88.7,118.2,87.6,118.2,86.5,117.6z"/>
	<path class="st19" d="M86.6,108.9c-3-1.6-5.6-0.4-5.8,2.6c0,0.5,0,1,0.1,1.5l2.9,1.6c-0.4-0.9-0.7-1.8-0.6-2.6
		c0.1-2,1.9-2.8,3.9-1.7c2,1.1,3.6,3.6,3.4,5.6c-0.1,0.9-0.5,1.6-1.1,1.9l1.9,1c0.2-0.5,0.4-1,0.4-1.6
		C91.8,114.2,89.6,110.5,86.6,108.9z"/>
	<path class="st20" d="M86.5,117.6c1.1,0.6,2.1,0.6,2.8,0.2l-5.7-3.2C84.3,115.8,85.3,117,86.5,117.6z"/>
	<path class="st20" d="M90.5,115.9c0.1-2-1.4-4.5-3.4-5.6s-3.8-0.3-3.9,1.7c-0.1,0.8,0.2,1.7,0.6,2.6l5.7,3.2
		C90,117.4,90.4,116.8,90.5,115.9z M87.1,115.2c-0.3,0.3-0.9,0-1.3-0.5s-0.4-1.2-0.1-1.4c0.3-0.3,0.9,0,1.3,0.5S87.4,115,87.1,115.2
		z"/>
	<path d="M85.6,113.3c-0.3,0.3-0.3,0.9,0.1,1.4s1,0.8,1.3,0.5s0.3-0.9-0.1-1.4S86,113.1,85.6,113.3z"/>
	<path d="M29.8,90c0.7,0.4,1.4,0.6,2.1,0.8c-1.6-0.9-3.2-1.8-4.7-2.7C28,88.8,28.9,89.5,29.8,90z"/>
	<path d="M37.4,88.4l-2.3-1.3c-0.9,1.6-3,1.9-5.3,0.7c-2.4-1.3-4.4-3.9-4.9-6.5l-2.1-1.2c0.4,2.8,2.1,5.7,4.4,7.9
		c1.5,0.9,3.1,1.8,4.7,2.7C34.4,91.4,36.5,90.5,37.4,88.4z"/>
	<path d="M37.9,85.1l-2.4-1.4c0.1,0.5,0.1,1.1,0.1,1.6c0,0.7-0.2,1.3-0.5,1.8l2.3,1.3c0.3-0.6,0.4-1.3,0.5-2.1
		C38,85.9,38,85.5,37.9,85.1z"/>
	<path d="M24.7,79.5c0-0.7,0.2-1.3,0.5-1.8L23,76.4c-0.2,0.5-0.3,1.1-0.4,1.8c0,0.6,0,1.2,0.1,1.9l2.1,1.2
		C24.8,80.7,24.7,80.1,24.7,79.5z"/>
	<path d="M30.8,74.7c-3.6-1.9-6.7-1-7.8,1.8l2.2,1.3c0.9-1.6,3-2,5.3-0.8c2.5,1.3,4.5,4.1,5,6.7l2.4,1.4
		C37.6,81.1,34.6,76.7,30.8,74.7z"/>
	<path class="st19" d="M30.5,85.7c-1.1-0.6-2-1.5-2.6-2.6l-3-1.7c0.6,2.6,2.5,5.2,4.9,6.5c2.3,1.2,4.3,0.8,5.3-0.7l-2-1.1
		C32.4,86.2,31.5,86.2,30.5,85.7z"/>
	<path class="st19" d="M27.1,80.1c0-0.4,0.1-0.7,0.3-1l-2.1-1.2c-0.3,0.5-0.5,1.1-0.5,1.8c0,0.6,0,1.2,0.2,1.8l3,1.7
		C27.4,82.1,27,81,27.1,80.1z"/>
	<path class="st19" d="M35.5,83.7L34.4,83c0,0.3,0.1,0.6,0,0.9C34.3,85,33.8,85.7,33,86l2,1.1c0.3-0.5,0.5-1.1,0.5-1.8
		C35.7,84.8,35.6,84.2,35.5,83.7z"/>
	<path class="st19" d="M30.6,77c-2.3-1.2-4.4-0.8-5.3,0.8l2.1,1.2c0.6-1.2,2-1.5,3.6-0.7c1.7,0.9,3.1,2.9,3.4,4.7l1.1,0.7
		C35,81.1,33,78.3,30.6,77z"/>
	<path class="st20" d="M30.5,85.7c1,0.5,1.9,0.6,2.6,0.3l-5.2-2.9C28.5,84.1,29.5,85.1,30.5,85.7z"/>
	<path class="st20" d="M27.1,80.1c-0.1,1,0.3,2,0.8,3l5.2,2.9c0.8-0.3,1.3-1,1.4-2.1c0-0.3,0-0.6,0-0.9l-7-4
		C27.2,79.3,27.1,79.6,27.1,80.1z M30.9,81.9c0.4,0.5,0.4,1.2,0.1,1.4c-0.3,0.3-0.9,0-1.3-0.5s-0.4-1.2-0.1-1.4
		C30,81.1,30.5,81.3,30.9,81.9z"/>
	<path class="st20" d="M31,78.3c-1.6-0.9-3.1-0.5-3.6,0.7l7,4C34.1,81.2,32.8,79.2,31,78.3z"/>
	<path d="M29.7,82.8c0.4,0.5,1,0.8,1.3,0.5s0.3-0.9-0.1-1.4s-1-0.8-1.3-0.5C29.3,81.6,29.3,82.2,29.7,82.8z"/>
	<path class="st0" d="M117.1,114c-0.1,0.1-0.2,0.2-0.2,0.3v1.9c0,0.3,0.3,0.5,0.6,0.3l5.6-3.2c0.1-0.1,0.2-0.2,0.2-0.3v-1.9
		c0-0.3-0.3-0.5-0.6-0.3h-0.1c-1.8,1.5-3.6,2.4-5.1,2.9L117.1,114z"/>
	<path class="st0" d="M122.6,110.9l-5.1,2.9C119,113.3,120.8,112.4,122.6,110.9z"/>
	<path class="st21" d="M127.1,107.9l-0.8,0.7c-0.1,0-0.1,0.1-0.1,0.2v1.3c0,0.2,0.2,0.3,0.4,0.2l0.8-0.7c0.1,0,0.1-0.1,0.1-0.2v-1.3
		C127.5,108,127.2,107.8,127.1,107.9z"/>
	<path class="st0" d="M118.4,108.1c0.3-0.2,0.6-0.3,0.9-0.5c0.4-0.2,0.7-0.5,1.1-0.7V106c0,0,0,0,0-0.1c-0.4,0.3-0.9,0.6-1.2,0.8
		c-0.2,0.1-0.5,0.3-0.8,0.4V108.1L118.4,108.1z"/>
	<path class="st0" d="M120.4,105.9c0-0.2-0.3-0.3-0.4-0.2l-1.4,0.9c-0.1,0.1-0.1,0.2-0.1,0.3v0.2c0.3-0.1,0.6-0.3,0.8-0.4
		C119.6,106.5,120,106.2,120.4,105.9z"/>
	<path class="st0" d="M118.4,108.1c0,0.2,0.3,0.3,0.4,0.2l1.4-0.9c0.1-0.1,0.1-0.2,0.1-0.3v-0.2c-0.4,0.2-0.7,0.5-1.1,0.7
		C119.1,107.8,118.7,108,118.4,108.1z"/>
	<path class="st21" d="M109.6,117.8l-1.2,0.6c-0.1,0-0.1,0.1-0.1,0.2v1.3c0,0.2,0.2,0.3,0.4,0.2l1.2-0.6c0.1,0,0.1-0.1,0.1-0.2V118
		C110,117.9,109.8,117.7,109.6,117.8z"/>
	<path class="st6" d="M104.8,91.9c-0.1-0.1-0.4-0.2-0.5-0.1l-5.1,2.8c-0.3,0.1-0.3,0.5-0.1,0.7l0.9,0.9c0.1,0.1,0.4,0.2,0.5,0.1
		l5-2.9c0.3-0.1,0.3-0.5,0.1-0.7L104.8,91.9z"/>
	<path class="st6" d="M117,84.3c-0.2-0.2-0.4-0.2-0.6-0.1l-3.3,2.4c-0.2,0.2-0.3,0.5-0.1,0.7l0.7,0.7c0.2,0.2,0.4,0.2,0.6,0.1
		l3.3-2.4c0.2-0.2,0.3-0.5,0.1-0.7L117,84.3z"/>
</g>
</svg>
