<?xml version="1.0" encoding="utf-8"?>
<!-- Generator: Adobe Illustrator 24.0.0, SVG Export Plug-In . SVG Version: 6.00 Build 0)  -->
<svg version="1.1" id="Layer_1" xmlns="http://www.w3.org/2000/svg" xmlns:xlink="http://www.w3.org/1999/xlink" x="0px" y="0px"
	 width="140px" height="140px" viewBox="0 0 140 140" style="enable-background:new 0 0 140 140;" xml:space="preserve">
<style type="text/css">
	.st0{fill:none;}
	.st1{fill:#BABCBE;}
	.st2{opacity:0.4;fill:#4D4D4F;enable-background:new    ;}
	.st3{fill:#F2F2F2;}
	.st4{fill:#E6E6E6;}
	.st5{fill:#626566;}
	.st6{fill:#465E67;}
	.st7{fill:#FFFFFF;}
	.st8{fill:#C8D6DD;}
	.st9{fill:#D47733;}
	.st10{fill:#4C4B4E;}
	.st11{fill:#727170;}
	.st12{fill:#809D99;}
	.st13{fill:#4C6775;}
	.st14{fill:#7095A1;}
	.st15{fill:#49BEAF;}
	.st16{fill:#2E887F;}
	.st17{fill:#006B71;}
	.st18{fill:#82CEC8;}
	.st19{fill:#6A9AA3;}
	.st20{fill:#BE1E2D;}
	.st21{fill:#2C2D2D;}
	.st22{fill:#CCCCCC;}
	.st23{fill:#999999;}
	.st24{fill:#ECEAD3;}
	.st25{fill:url(#SVGID_1_);}
	.st26{fill:#FFAD51;}
	.st27{fill:#BCBCBC;}
	.st28{enable-background:new    ;}
	.st29{fill:#2D414D;}
	.st30{fill:#E6E7E8;}
	.st31{fill:#4BBFA7;}
</style>
<g>
	<path class="st0" d="M125.9,37.9L125.9,37.9L125.9,37.9z"/>
	<path class="st1" d="M37.9,124.8c0,0-0.1,0-0.2,0C37.8,124.8,37.8,124.8,37.9,124.8z"/>
	<path class="st1" d="M39.5,124.5C39.6,124.5,39.6,124.5,39.5,124.5C39.6,124.5,39.6,124.5,39.5,124.5z"/>
	<path class="st1" d="M41.2,124c-0.1,0.1-0.1,0.1-0.2,0.1C41.1,124.1,41.1,124.1,41.2,124z"/>
	<path class="st1" d="M40.6,124.2c-0.1,0.1-0.1,0.1-0.2,0.1C40.4,124.3,40.5,124.3,40.6,124.2z"/>
	<path class="st1" d="M38.8,124.7c0,0-0.1,0-0.2,0C38.7,124.7,38.8,124.7,38.8,124.7z"/>
	<path class="st2" d="M55.4,127.4c12.7-7.3,34.7-19.9,52.5-30.2c-2.5,0.6-4.7-0.2-5.6-2.3l-41.8,23.6
		C60.2,121.7,58.2,125.1,55.4,127.4z"/>
	<path class="st2" d="M3.9,116.4c2.6,1.9,28.2,16.5,31.9,18.6c3.7,2.2,7.3-0.3,9.2-1.4c0.3-0.2,3-1.7,7.1-4.1c-2.9,1-5.4,0-6.4-2.4
		l-2.5,1.4c0,0-4.5,2.4-9.3,1.3c-4.7-1.1-13.1-5.3-15.6-6.8s-7.2-4.8-7.8-6.1c-0.6-1.3-0.4-7.8,0.1-8.7c0,0,0.1-0.6,0.2-1.4l0,0
		c0-0.1,0-0.2,0-0.3s0-0.1,0-0.2c0.1-0.1,0.1-0.3,0.1-0.4c0.1-0.5,0.1-0.9,0.2-1.4c0-0.1,0-0.1,0-0.2c0.1-0.2,0.1-0.3,0.1-0.5
		c0-0.1,0-0.2,0-0.3c0.1-0.1,0.1-0.3,0.1-0.5c0-0.1,0-0.1,0-0.2c0.1-0.2,0.1-0.3,0.1-0.5c0-0.1,0-0.1,0-0.2s0-0.2,0-0.3s0-0.1,0-0.2
		c0.1-0.2,0.1-0.3,0.1-0.4c0.2-1.4,8.5-14.8,8.5-14.8s0.5-1.3,1.2-3.1c-2.4,1.4-4,2.3-4.5,2.6c-4.2,2.4-4.3,4.7-4.7,6.9
		s-0.8,8-1.3,9c-0.5,1.1-5.2,3.1-7.4,5.4C1.2,109.5,1.2,114.3,3.9,116.4z"/>
	<path class="st1" d="M10.8,108.9c0,0.2,0.1,0.4,0.1,0.6C10.8,109.3,10.8,109.1,10.8,108.9z"/>
	<path class="st1" d="M35.7,124.8c-0.4,0-0.8,0-1.2-0.1C34.9,124.8,35.3,124.8,35.7,124.8z"/>
	<path class="st1" d="M36.7,124.8c-0.2,0-0.5,0-0.7,0C36.3,124.9,36.5,124.9,36.7,124.8z"/>
	<path class="st2" d="M112.7,94.6c12.8-7.4,22.5-12.9,23.1-13.3c1.9-1.1,2.2-1.7,0-3.3c-0.5-0.4-3.1-2-6.9-4.3l0,0v1V76
		c0,0-2.5,4.9-3.1,5.6l-8.7,4.9C116.7,89.4,115,92.4,112.7,94.6z"/>
	<polygon class="st3" points="69.6,70.3 125.8,37.9 98.5,22 42.1,54.5 	"/>
	<polygon class="st4" points="128.9,61.4 128.9,61.4 128.9,46.7 128.9,46.7 	"/>
	<path class="st4" d="M97,54.7l18.9-11l9.9-5.8l0,0l-29,16.7C96.9,54.6,96.9,54.6,97,54.7z"/>
	<path class="st4" d="M36.8,125c0.3,0,0.6,0,0.9,0c0,0,0.1,0,0.2,0c0.3,0,0.5-0.1,0.7-0.1c0,0,0.1,0,0.2,0c0.2,0,0.5,0,0.7-0.1h0.1
		c0.2-0.1,0.5-0.1,0.7-0.2c0.1-0.1,0.1-0.1,0.2-0.1c0.2-0.1,0.3-0.1,0.5-0.2c0.1-0.1,0.1-0.1,0.2-0.1c0.1-0.1,0.3-0.1,0.5-0.2
		c1.5-0.6,2.6-1.4,2.6-1.4s1.2-6,6.5-9.3c5.1-3.2,8.7-1.6,10,0.7l30.3-17.2l-14.3-4.3c-0.7-0.2-1-0.9-0.8-1.6l2.5-6.9l-9.7,5.6V76.9
		l15.5-9.1l2.6-7.3l10-5.8l-0.1-0.1L69.5,70.3c0,0-11.8,7.6-14.8,16.4c-3,8.9-5.9,15.7-5.9,15.7s-7,6.4-8.5,8.3
		c0.2,0.5,0.3,2.2,0.2,2.9c-0.1,0.9-2.8,4.1-3.1,4.4c-0.1,0.1-0.3,0.3-0.6,0.5C36.8,121.1,36.8,124.7,36.8,125z M59.7,103.5
		c0.1-2.4,1.5-4.5,3.3-4.7c1.7-0.3,3.1,1.4,3.1,3.8s-3.3,8-3.3,8S59.6,105.9,59.7,103.5z M50.6,99.1l1.8-0.9v-2.1
		c0-0.4,0.2-0.7,0.6-0.8l0.8-0.2l3.4-9.5c0.5-1.3,1.4-2.5,2.6-3.2l7.1-4.4v12.6l-11,6.4v5c0,0.4-0.2,0.7-0.6,0.8l-1.9,0.4
		c-0.5,0.1-1-0.3-1-0.8v-2.7l-0.9,0.5v0.8l-0.9,0.3C50.6,101.3,50.6,99.1,50.6,99.1z"/>
	<path class="st4" d="M80.1,90.5l14.3,4.3l0,0L80.1,90.5c-0.1,0-0.2-0.1-0.3-0.1C79.9,90.4,80,90.5,80.1,90.5z"/>
	<path class="st4" d="M79.3,90c-0.1-0.3-0.1-0.5-0.1-0.8C79.2,89.4,79.2,89.7,79.3,90z"/>
	<path class="st4" d="M124.7,78.4l-0.6,0.3C124.3,78.6,124.5,78.5,124.7,78.4z"/>
	<polygon class="st4" points="87.6,65.8 87.6,65.8 90.2,58.6 90.2,58.6 	"/>
	<path class="st4" d="M128.9,74.7v-1V74.7z"/>
	<path class="st4" d="M96.8,54.6l29-16.7l0,0L96.8,54.6L96.8,54.6z"/>
	<path class="st4" d="M96.8,54.6L96.8,54.6L69.6,70.3L96.8,54.6z"/>
	<path class="st5" d="M21.5,82.7c0.5-1.3,1.1-2.8,1.8-4.4v-2.4c0-0.4-0.2-0.7-0.6-0.8l-1.1-0.4c-0.5-0.1-1,0.3-1,0.8v6.4
		c0,0.4,0.2,0.7,0.6,0.8H21.5z"/>
	<path class="st6" d="M55.9,95.6V97l11-6.4V78l-7,4.4c-1.2,0.7-2.1,1.9-2.6,3.2l-3.4,9.5l1.1-0.2C55.4,94.8,55.9,95.2,55.9,95.6z"/>
	<path class="st5" d="M52.4,99.1l1.4-4L53,95.3c-0.3,0.1-0.6,0.4-0.6,0.8v2.1V99.1z"/>
	<path class="st5" d="M52.4,99.1v0.7v2.7c0,0.5,0.5,0.9,1,0.8l1.9-0.4c0.3-0.1,0.6-0.4,0.6-0.8V97L52.4,99.1z"/>
	<path class="st5" d="M52.4,99l3.5-2v-1.3c0-0.5-0.5-0.9-1-0.8l-1.1,0.2L52.4,99z"/>
	<polygon class="st5" points="52.4,98.2 50.6,99.1 50.6,101.3 51.5,101 51.5,100.2 52.4,99.8 52.4,99.1 	"/>
	<path class="st3" d="M21.9,83l-0.5-0.2c-0.1,0.2-0.2,0.4-0.3,0.6C21.4,83.3,21.6,83.2,21.9,83z"/>
	<path class="st3" d="M42.2,54.5c0,0-6.2,3-8.3,5.5s-4.5,5.8-6.9,10.3c-1,1.9-2.4,5-3.7,8.1v2.8l3.7-8.8c0,0,0.3,0.2,0.9,0.5
		c0.2,0.1,0.3,0.2,0.5,0.3c0,0,1-4.8,3.7-9.5C34.8,59.1,42.2,54.5,42.2,54.5z"/>
	<path class="st3" d="M21.9,83.1c-0.3,0.1-0.6,0.3-0.8,0.4c-0.7,1.9-1.2,3.1-1.2,3.1s-8.3,13.4-8.5,14.8c0,0,0.4,2.4,0.9,3
		s0.8,0.5,0.9,0.9c0.1,0.4,0.2,3-0.2,3.3s-1.7-0.9-1.8-1.1c-0.2-0.1-0.7-0.7-0.7-0.8c-0.1,0.8-0.2,1.4-0.2,1.4
		c0.2,0,0.2,0.3,0.3,0.8c0,0.1,0.1,0.4,0.1,0.6c0.2,1.1,0.5,2.6,1.6,3.8c0.3,0.3,0.5,0.5,0.8,0.8c0.1-3.3-0.1-8.6,0.4-9.3
		c0.5-0.8,8-17.1,8-17.1l0,0c0-0.1-0.1-0.1-0.1-0.2l-0.1-0.1c0-0.1-0.1-0.1-0.1-0.2l-0.1-0.1L21,87c0-0.1,0-0.1,0-0.1
		c-0.1,0-0.1-0.1-0.1-0.1l0,0l0,0l0,0l0,0l1.4-3.6l0,0L21.9,83.1z"/>
	<path class="st3" d="M24.7,121.2c3.6,1.7,7.8,3.3,9.8,3.6c0.4,0,0.8,0.1,1.2,0.1c0.1,0,0.3,0,0.4,0c0.2,0,0.5,0,0.7,0l0,0
		c0-0.2,0-3.8,0-6.4c-0.3,0.1-0.6,0.2-0.9,0.2c-0.6-0.1-7.1-1.2-7.3-1.3c-0.3-0.1-0.7-0.4-0.5-0.6c0.1-0.2,1.7-2.4,1.7-2.4
		c0.1-0.2,0.8-0.1,1.2-0.1s4.6,0,4.8,0c0.3-0.1,1.9-1.8,2.3-2.2c0.6-0.5,1.6-1.5,2-1.6c0.1,0,0.1,0.1,0.2,0.2
		c1.6-1.9,8.5-8.3,8.5-8.3s2.9-6.9,5.9-15.7s14.8-16.4,14.8-16.4s-2.7,0.6-6.4,1.7c-3.6,1.1-12.1,7.7-13.6,13.2l0,0
		c2.1,1.2,3.5,2,3.5,2L47.2,102c0,0-0.9-0.3-2.4-0.9l0,0c0,0-14.9,12.1-15.3,12.8C29.1,114.5,25.3,120.2,24.7,121.2z M62.8,74.5
		L62.8,74.5L62.8,74.5z"/>
	<path class="st3" d="M10.7,106.4c0-0.1,0-0.1,0-0.2C10.7,106.3,10.7,106.3,10.7,106.4z"/>
	<path class="st3" d="M10.7,105.9c0.1-0.5,0.1-0.9,0.2-1.4C10.9,105,10.8,105.4,10.7,105.9z"/>
	<path class="st3" d="M11.3,102.2c0-0.1,0-0.2,0-0.3C11.3,102,11.3,102.1,11.3,102.2z"/>
	<path class="st3" d="M11.1,102.9c0.1-0.2,0.1-0.3,0.1-0.5C11.2,102.6,11.2,102.7,11.1,102.9z"/>
	<path class="st3" d="M11,103.6c0.1-0.1,0.1-0.3,0.1-0.5C11.1,103.3,11.1,103.5,11,103.6z"/>
	<path class="st3" d="M10.9,104.4c0.1-0.2,0.1-0.3,0.1-0.5C11,104,11,104.2,10.9,104.4z"/>
	<path class="st3" d="M11.3,101.7c0.1-0.2,0.1-0.3,0.1-0.4C11.4,101.4,11.4,101.6,11.3,101.7z"/>
	<path class="st3" d="M23.2,81.2v-2.8c-0.6,1.6-1.3,3.1-1.8,4.4l0.5,0.2c0.3-0.1,0.5-0.2,0.8-0.4L23.2,81.2z"/>
	<path class="st3" d="M22.3,83.2l0.4-0.6c-0.3,0.1-0.6,0.3-0.8,0.4L22.3,83.2C22.3,83.2,22.4,83.2,22.3,83.2z"/>
	<path class="st7" d="M28.3,73.2c0.4,0.2,0.8,0.5,1.2,0.7c0.3,0.1,0.5,0.2,0.8,0.4c0.7,0.4,1.4,0.8,2.1,1.2c0.4,0.2,0.9,0.4,1.3,0.7
		c-0.1,0-0.1,0-0.1,0c0.8,0.5,1.7,1,2.6,1.5c0.1,0,0.1,0.1,0.2,0.1s0.1,0.1,0.2,0.1c4.5,2.5,9.6,5.4,12.9,7.3
		C51,79.7,59.4,73.1,63.1,72s6.5-1.7,6.4-1.7L42.1,54.4c0,0-7.4,4.6-10.1,9.3S28.3,73.2,28.3,73.2z"/>
	<path class="st7" d="M21.3,87.4L21.3,87.4c0,0-7.5,16.3-8,17.1s-0.3,6-0.4,9.3c1.7,1.7,3.2,2.9,6.1,4.5c1.3,0.7,3.3,1.6,5.4,2.6
		c0.7-0.9,4.5-6.6,4.9-7.2c0.4-0.7,15.3-12.8,15.3-12.8l0,0c-2.8-1-7.8-3.1-13.4-6.2c-2.2-1.2-3.9-2.3-5.3-3.3
		c-0.7-0.5-1.3-1-1.8-1.4c-0.2-0.2-0.5-0.4-0.7-0.6c-0.2-0.1-0.3-0.2-0.4-0.3l0,0L22.9,89c-0.1-0.1-0.2-0.2-0.3-0.3
		c0,0-0.1-0.1-0.2-0.2c0,0-0.1-0.1-0.2-0.2l0,0l0,0l0,0c-0.1-0.1-0.1-0.1-0.2-0.2c-0.1,0-0.1-0.1-0.2-0.2
		C21.8,87.9,21.7,87.8,21.3,87.4z M33.2,99.2l0.9-0.9c0.1-0.2,0.3-0.2,0.5-0.1l5.2,2.8c0.3,0.1,0.3,0.5,0.1,0.7l-0.9,1
		c-0.1,0.2-0.3,0.2-0.5,0.1l-5.1-2.9C33.1,99.8,33.1,99.5,33.2,99.2z M20.1,110.9c2,1.1,6,2.5,6.6,2.6c0.7,0.1,1.2,0.5,0.9,1.1
		c0,0.1-0.2,0.4-0.4,0.8l0,0l-0.2,0.3c-0.3,0.4-0.5,0.9-0.8,1.3l-0.3,0.7c-0.1,0-0.1,0-0.1,0c-0.2,0.3-0.3,0.5-0.4,0.6
		c-0.3,0.4-0.8,0.4-1.8,0.1s-4.5-2.1-5.3-2.6c-0.7-0.4-3.2-2.5-3.6-2.8c-0.3-0.3-0.4-0.6-0.5-1.2c0-0.4-0.1-1.7-0.1-2.9l0,0v-1l0,0
		c0-0.5,0-0.9,0-1.1c0.1-0.5,1,0.2,1.4,0.7S18.2,109.9,20.1,110.9z M21.2,91.5l0.7-0.7c0.1-0.2,0.4-0.2,0.6-0.1l3.4,2.4
		c0.3,0.1,0.3,0.5,0.1,0.7l-0.7,0.8c-0.1,0.2-0.4,0.2-0.6,0.1l-3.4-2.5C21,92,21,91.7,21.2,91.5z"/>
	<path class="st8" d="M11.1,103.9c0-0.1,0-0.2,0-0.3C11.1,103.7,11,103.8,11.1,103.9z"/>
	<path class="st8" d="M11.2,103.1c0-0.1,0-0.1,0-0.2C11.2,103,11.2,103,11.2,103.1z"/>
	<path class="st8" d="M10.7,106.6c0,0,0-0.1,0-0.3C10.7,106.4,10.7,106.5,10.7,106.6L10.7,106.6z"/>
	<path class="st8" d="M11.3,101.9c0-0.1,0-0.1,0-0.2C11.3,101.8,11.3,101.8,11.3,101.9z"/>
	<path class="st8" d="M11.3,102.4c0-0.1,0-0.1,0-0.2C11.3,102.3,11.2,102.3,11.3,102.4z"/>
	<path class="st8" d="M10.7,106.3c0.1-0.1,0.1-0.3,0.1-0.4C10.7,106,10.7,106.1,10.7,106.3z"/>
	<path class="st8" d="M11,104.6c0-0.1,0-0.1,0-0.2C11,104.4,11,104.5,11,104.6z"/>
	<path class="st8" d="M12.1,104.1c-0.5-0.5-0.9-3-0.9-3c-0.1,0.1-0.1,0.3-0.1,0.4s0,0.1,0,0.2s0,0.2,0,0.3s0,0.1,0,0.2
		c-0.1,0.2-0.1,0.3-0.1,0.5c0,0.1,0,0.1,0,0.2s-0.1,0.3-0.1,0.5c0,0.1,0,0.2,0,0.3c-0.1,0.2-0.1,0.3-0.1,0.5c0,0.1,0,0.1,0,0.2
		c-0.1,0.5-0.1,1-0.2,1.4c-0.1,0.2-0.1,0.3-0.1,0.4s0,0.1,0,0.2s0,0.2,0,0.3c0,0.1,0.6,0.6,0.7,0.8c0.1,0.1,1.4,1.4,1.8,1.1
		s0.3-2.9,0.2-3.3S12.9,105,12.1,104.1z"/>
	<path class="st8" d="M40.4,110.6c-0.1,0.1-0.1,0.2-0.2,0.3c-0.1,0.3-0.3,0.5-0.5,0.8c0.2-0.1,0.4-0.1,0.4,0.1
		c0,0.3,0.1,1.6,0.1,1.7s-0.5,1-0.7,1.2c-0.1,0.3-1.9,2.2-2.2,2.4c-0.1,0.1-0.3-0.6-0.3-1.3c-0.1,0.2-0.1,0.4-0.1,0.6
		c0,0.5,0,1.3,0,2.1c0.2-0.1,0.5-0.3,0.6-0.5c0.2-0.3,3-3.5,3.1-4.4C40.7,112.9,40.6,111.2,40.4,110.6z"/>
	<path class="st8" d="M40.1,111c0-0.1,0.1-0.2,0.2-0.3c-0.1-0.1-0.1-0.2-0.2-0.2c-0.4,0-1.5,1.1-2,1.6c-0.4,0.4-2.1,2.2-2.3,2.2
		s-4.4,0-4.8,0c-0.3,0-1-0.1-1.2,0.1c0,0-1.5,2.2-1.7,2.4s0.3,0.5,0.5,0.6c0.3,0.2,6.7,1.2,7.3,1.3c0.3,0.1,0.6,0,0.9-0.2
		c0-0.8,0-1.6,0-2.1c0-0.2,0.1-0.4,0.1-0.6c-0.1-0.5-0.1-1.1,0-1.3c0.2-0.5,1-1.4,1.3-1.7c0.2-0.2,0.9-0.8,1.4-1
		C39.8,111.5,40,111.2,40.1,111z"/>
	<path class="st9" d="M39.6,111.9c-0.9,1.1-2.4,2.5-2.7,4c0,0.7,0.1,1.4,0.3,1.3c0.3-0.2,2-2.2,2.2-2.4s0.7-1,0.7-1.2
		s-0.1-1.4-0.1-1.7S39.8,111.6,39.6,111.9z"/>
	<path class="st9" d="M36.9,115.8c0.3-1.5,1.8-2.9,2.7-4c-0.5,0.2-1.2,0.8-1.4,1c-0.4,0.4-1.2,1.2-1.3,1.7
		C36.9,114.7,36.9,115.3,36.9,115.8z"/>
	<path class="st10" d="M26.1,117L26.1,117c0.3-0.3,0.6-0.8,0.8-1.2l-0.2,0.4c-0.6-0.1-4.1-1.4-6.3-2.4v1l0,0
		C22.9,116,26.3,117.1,26.1,117z"/>
	<path class="st10" d="M26.8,113.5c-0.7-0.1-4.7-1.5-6.6-2.6c-2-1-4.3-3-4.7-3.5s-1.3-1.2-1.4-0.7c0,0.1,0,0.6,0,1.1
		c0.1,0.1,3.3,3.2,5.9,4.7c2.4,1.5,7,2.9,7.2,3c0.2-0.4,0.3-0.6,0.4-0.8C27.9,114.1,27.4,113.7,26.8,113.5z"/>
	<path class="st10" d="M14.1,109c0,1.2,0.1,2.5,0.1,2.9c0,0.6,0.1,0.9,0.5,1.2c0.3,0.3,2.8,2.3,3.6,2.8c0.7,0.5,4.3,2.3,5.3,2.6
		c1,0.2,1.5,0.3,1.8-0.1c0.1-0.1,0.2-0.3,0.4-0.6c-0.8-0.2-4.7-1.6-6.6-2.7c-1.9-1-4.6-3.5-5-4v-1c0,0,2,2,4.2,3.5v-1l0,0
		C16.6,111.3,14.4,109.3,14.1,109z"/>
	<path class="st11" d="M14.1,108.9c0-0.3,0-0.7,0-1l0,0V108.9L14.1,108.9z"/>
	<path class="st11" d="M27.2,115.5c-0.1,0.1-0.1,0.2-0.2,0.3L27.2,115.5L27.2,115.5z"/>
	<path class="st11" d="M20.2,112.6c-2.6-1.5-5.8-4.6-5.9-4.7c0,0.3,0,0.6,0,1c0.3,0.4,2.5,2.4,4.3,3.7c0-0.2,0.2-0.3,0.4-0.2
		l1.4,0.9c0,0.1,0.1,0.2,0.1,0.3v0.2c2.2,1,5.7,2.3,6.3,2.4l0.2-0.4c0.1-0.1,0.1-0.2,0.2-0.3C27,115.5,22.4,114,20.2,112.6z"/>
	<path class="st11" d="M26.2,117.1c-0.1,0.3-0.2,0.5-0.3,0.7c-0.1,0,0,0,0,0L26.2,117.1z"/>
	<path class="st11" d="M19.1,115.1c1.9,1.1,5.8,2.5,6.6,2.7c0.1-0.1,0.3-0.4,0.4-0.6v-0.1c0,0-3.3-1.1-5.8-2.3
		c0,0.2-0.2,0.3-0.4,0.2l-1.4-0.9c0-0.1-0.1-0.2-0.1-0.3v-0.2c-2.2-1.5-4.2-3.5-4.2-3.5v1C14.6,111.6,17.3,114.1,19.1,115.1z"/>
	<path class="st6" d="M28.4,73.2L28.4,73.2c-0.2-0.1-0.4-0.2-0.5-0.3C28.1,73,28.2,73.1,28.4,73.2L28.4,73.2z"/>
	<path class="st6" d="M20.9,86.8L20.9,86.8L20.9,86.8z"/>
	<path class="st6" d="M30.3,74.3c0.7,0.4,1.3,0.8,2.1,1.2C31.6,75.1,30.9,74.7,30.3,74.3z"/>
	<path class="st6" d="M28.4,73.2c0.3,0.2,0.7,0.4,1.2,0.7C29.1,73.6,28.7,73.4,28.4,73.2L28.4,73.2L28.4,73.2z"/>
	<path class="st6" d="M26.7,85.2c0,0,3.6,1.2,4.6,1.7c2.2,1.1,2.9,1.7,3.1,2.4S34,91.1,35.9,92c2,0.9,12.4,7.1,12.4,7.1l-1.1,2.9
		l5.7-14.9c0,0-1.4-0.8-3.5-2c-0.2-0.1-0.4-0.2-0.6-0.3c-3.3-1.9-8.2-4.6-12.4-7L26.7,85.2z"/>
	<path class="st12" d="M27,72.4c0,0,0.3,0.2,0.9,0.5C27.3,72.6,27,72.4,27,72.4z"/>
	<path class="st12" d="M33.7,76.2L33.7,76.2c-0.5-0.2-0.9-0.5-1.3-0.7C32.8,75.7,33.2,76,33.7,76.2z"/>
	<path class="st12" d="M29.5,73.9c0.3,0.1,0.5,0.2,0.8,0.4C30,74.2,29.8,74,29.5,73.9z"/>
	<path class="st12" d="M22.3,88.4L22.3,88.4L22.3,88.4z"/>
	<g>
		<path class="st12" d="M26.7,85.2l-2.5-0.7l0.8-3.3c1-4.6,2-8.8,2-8.8s0.3,0.2,0.9,0.5c0.1,0.1,0.3,0.2,0.5,0.3c0,0,4.9,2.8,8,4.6
			L26.7,85.2z"/>
	</g>
	<path class="st13" d="M21.4,87.4L21.4,87.4C21.4,87.5,21.4,87.5,21.4,87.4z"/>
	<path class="st13" d="M21,86.9C21,87,21,87,21,86.9C21,87,21,87,21,86.9z"/>
	<path class="st13" d="M20.9,86.8L20.9,86.8L20.9,86.8z"/>
	<path class="st13" d="M21.1,87.1C21.2,87.2,21.2,87.2,21.1,87.1C21.2,87.2,21.2,87.2,21.1,87.1z"/>
	<path class="st13" d="M23.2,89.3C23.2,89.3,23.2,89.2,23.2,89.3L23.2,89.3L23.2,89.3z"/>
	<path class="st13" d="M22.3,88.4c-0.1-0.1-0.1-0.1-0.2-0.2C22.1,88.2,22.2,88.3,22.3,88.4z"/>
	<path class="st13" d="M22.7,88.8c0,0-0.1-0.1-0.2-0.2C22.6,88.7,22.7,88.8,22.7,88.8z"/>
	<path class="st13" d="M21.9,88c-0.1-0.1-0.2-0.1-0.2-0.2C21.7,87.8,21.8,87.9,21.9,88z"/>
	<path class="st13" d="M20.9,86.8L20.9,86.8L20.9,86.8z"/>
	<path class="st13" d="M24.9,81.2c1-4.5,2-8.8,2-8.8l-3.7,8.8v1C23.8,81.9,24.4,81.6,24.9,81.2z"/>
	<path class="st13" d="M22.4,83.2l-1.5,3.6l0,0l1.2-2.9c0,0,0.9,0.2,2.1,0.6c0.2-1,0.5-2.1,0.7-3.2c-0.6,0.3-1.1,0.7-1.7,1.1l0,0
		C23.2,82.8,22.9,83.2,22.4,83.2z"/>
	<path class="st13" d="M23.3,82.3v-1l-0.6,1.3C22.9,82.5,23.1,82.3,23.3,82.3z"/>
	<path class="st13" d="M23.2,82.4L23.2,82.4c-0.1,0-0.3,0.1-0.5,0.2l-0.3,0.6C22.8,83.2,23.2,82.9,23.2,82.4L23.2,82.4z"/>
	<path class="st14" d="M20.9,86.8L20.9,86.8L20.9,86.8L20.9,86.8L20.9,86.8z"/>
	<path class="st14" d="M21.6,87.7L21.6,87.7L21.6,87.7L21.6,87.7z"/>
	<path class="st14" d="M21.5,87.5L21.5,87.5c0,0.1,0,0.1,0.1,0.2C21.6,87.6,21.5,87.6,21.5,87.5z"/>
	<path class="st14" d="M21.3,87.2L21.3,87.2c0,0.1,0,0.1,0.1,0.2l0,0C21.3,87.3,21.3,87.3,21.3,87.2z"/>
	<path class="st14" d="M21.1,87.1L21.1,87.1C21,87,21.1,87,21.1,87.1L21.1,87.1C21.1,87.1,21.1,87,21.1,87.1z"/>
	<path class="st14" d="M21,86.9C20.9,86.8,20.9,86.8,21,86.9L21,86.9L21,86.9L21,86.9z"/>
	<path class="st14" d="M23.2,89.3L23.2,89.3c0.2,0.1,0.3,0.2,0.4,0.3C23.5,89.5,23.4,89.4,23.2,89.3z"/>
	<path class="st14" d="M22.3,88.4L22.3,88.4c0,0,0.1,0.1,0.2,0.2l0,0C22.4,88.6,22.4,88.5,22.3,88.4z"/>
	<path class="st14" d="M22.8,88.9L22.8,88.9c0.1,0.1,0.2,0.2,0.3,0.3l0,0C23,89.1,22.9,89,22.8,88.9z"/>
	<path class="st14" d="M26.1,91.6c-0.7-0.5-1.3-1-1.8-1.4C24.9,90.7,25.5,91.1,26.1,91.6z"/>
	<path class="st14" d="M21.7,87.8L21.7,87.8C21.7,87.7,21.7,87.7,21.7,87.8L21.7,87.8C21.7,87.7,21.7,87.7,21.7,87.8z"/>
	<path class="st14" d="M22.3,88.4L22.3,88.4L22.3,88.4L22.3,88.4L22.3,88.4z"/>
	<path class="st14" d="M21.9,88L21.9,88c0,0,0.1,0.1,0.2,0.2l0,0C22,88.1,21.9,88,21.9,88z"/>
	<path class="st14" d="M21.1,87L21.1,87C21.1,87,21.1,87.1,21.1,87z"/>
	<path class="st14" d="M20.9,86.8L20.9,86.8L20.9,86.8L20.9,86.8z"/>
	<path class="st14" d="M21.3,87.4c0-0.1-0.1-0.1-0.1-0.2C21.3,87.3,21.3,87.3,21.3,87.4z"/>
	<path class="st14" d="M21.5,87.5c0.1,0.1,0.1,0.1,0.2,0.2c-0.1,0-0.1,0,0,0l0,0l0,0C21.6,87.7,21.5,87.6,21.5,87.5z"/>
	<path class="st14" d="M20.9,86.8C21,86.9,21,86.9,20.9,86.8C21,86.9,21,86.9,20.9,86.8z"/>
	<path class="st14" d="M21.9,88c0,0,0.1,0.1,0.2,0.2C22,88.1,21.9,88,21.9,88z"/>
	<path class="st14" d="M23.1,89.2c-0.1-0.1-0.2-0.2-0.3-0.3C22.9,89,23,89.1,23.1,89.2z"/>
	<path class="st14" d="M22.3,88.4L22.3,88.4c0,0,0.1,0.1,0.2,0.2C22.4,88.6,22.4,88.5,22.3,88.4z"/>
	<path class="st14" d="M22.3,88.4L22.3,88.4L22.3,88.4L22.3,88.4z"/>
	<path class="st14" d="M21.6,87.7C21.7,87.7,21.7,87.7,21.6,87.7L21.6,87.7L21.6,87.7C21.7,87.7,21.7,87.7,21.6,87.7z"/>
	<path class="st14" d="M22.3,88.4L22.3,88.4L22.3,88.4z"/>
	<path class="st14" d="M22.3,88.4L22.3,88.4L22.3,88.4z"/>
	<path class="st14" d="M20.9,86.8L20.9,86.8L20.9,86.8L20.9,86.8L20.9,86.8z"/>
	<path class="st14" d="M21.2,87.2L21.2,87.2L21.2,87.2L21.2,87.2L21.2,87.2z"/>
	<path class="st14" d="M21.5,87.5L21.5,87.5L21.5,87.5L21.5,87.5C21.4,87.5,21.4,87.5,21.5,87.5z"/>
	<path class="st14" d="M21.1,87C21,86.9,21,86.9,21.1,87C21,87,21,87,21.1,87C21,87,21.1,87,21.1,87C21,87,21,87,21.1,87z"/>
	<path class="st14" d="M22.1,88.2L22.1,88.2c0.1,0.1,0.1,0.1,0.2,0.2l0,0C22.2,88.3,22.1,88.2,22.1,88.2z"/>
	<path class="st14" d="M23.2,89.3L23.2,89.3L23.2,89.3L23.2,89.3C23.2,89.3,23.2,89.2,23.2,89.3z"/>
	<path class="st14" d="M21.8,87.9c0,0-0.1-0.1-0.2-0.2l0,0C21.7,87.8,21.7,87.8,21.8,87.9L21.8,87.9z"/>
	<path class="st14" d="M22.6,88.7L22.6,88.7c0,0,0.1,0.1,0.2,0.2l0,0C22.7,88.8,22.6,88.7,22.6,88.7z"/>
	<path class="st14" d="M21.8,87.8l-0.9-1l0,0l0,0l0,0c0.1,0,0.1,0.1,0.1,0.1c0.1,0.1,0.1,0.1,0.1,0.1l0.1,0.1l0.1,0.1
		c0,0.1,0,0.1,0.1,0.2l0.1,0.1c0.1,0.1,0.1,0.1,0.2,0.2L21.8,87.8z"/>
	<path class="st14" d="M21.8,87.9L21.8,87.9L21.8,87.9L21.8,87.9c0.1,0.1,0.2,0.2,0.3,0.3c0,0,0.1,0.1,0.2,0.2l0,0L21.8,87.9z"/>
	<path class="st14" d="M21.7,87.9l0.6,0.6l0.1,0.1c0,0,0.1,0.1,0.2,0.2c0,0,0.1,0.1,0.2,0.2s0.2,0.2,0.3,0.3l0.1,0.1
		c0.2,0.1,0.3,0.2,0.4,0.3c0.2,0.2,0.4,0.4,0.7,0.6c0.5,0.4,1.1,0.9,1.8,1.4c1.4,1,3.2,2.1,5.3,3.3c5.6,3.1,10.6,5.1,13.4,6.2
		c1.5,0.6,2.4,0.9,2.4,0.9l1.1-2.9c0,0-10.5-6.2-12.4-7.1s-1.3-2-1.5-2.7s-0.9-1.3-3.1-2.4c-0.9-0.5-2.8-1.1-4.6-1.7l0,0
		c-1-0.3-1.9-0.6-2.7-0.8l0,0c-1.1-0.4-2-0.6-2-0.6l-1.2,2.9L21.7,87.9z"/>
	<polygon class="st6" points="78.5,83.9 84.4,67.7 68.9,76.8 68.9,89.5 	"/>
	<path class="st6" d="M87.1,67.2l0.5-1.4L87.1,67.2z"/>
	<path class="st15" d="M59.7,103.5c0,2.3,3.1,7.1,3.1,7.1s3.2-5.7,3.3-8s-1.3-4-3.1-3.8C61.3,99,59.7,101.2,59.7,103.5z M60.6,103.3
		c0-1.7,1.1-3.2,2.4-3.4c1.3-0.2,2.3,1.1,2.3,2.8c0,1.7-1.1,3.2-2.4,3.4C61.6,106.3,60.6,105.1,60.6,103.3z"/>
	<path class="st4" d="M60.6,103.3c0,1.7,1,3,2.3,2.8s2.4-1.7,2.4-3.4c0-1.7-1-3-2.3-2.8C61.7,100.1,60.7,101.6,60.6,103.3z"/>
	<path class="st15" d="M128.6,44.8c0.2,0.6,0.3,1.2,0.3,1.8l0,0C128.9,46,128.8,45.5,128.6,44.8l-2.8-6.9l0,0L128.6,44.8z"/>
	<path class="st16" d="M114.1,56.6v6.6l3.6-2.1c-0.2,0-0.4,0-0.5-0.1c-0.4-0.1-0.6-0.6-0.6-1.4v-4.4l1.5-0.9v4.4
		c0,0.8,0.3,0.9,0.9,0.6c0.4-0.3,0.8-0.7,1.2-1.4l0.9,0.5c-0.2,0.4-0.5,0.8-0.9,1.2l5.3-3.1V47c0-0.6-0.1-1.2-0.4-1.8l-0.6-1.1
		l-21,12.3l0,0l0.8-0.4v1.1l2.7,2.2v0.5h-1.4c1.3,0.8,2.5,1.5,3.8,2.3l3.1-1.8v-1.4l-3.6,2.1v-1.3L114.1,56.6z"/>
	<path class="st16" d="M110.7,62.7c0.4,0.2,0.8,0.5,1.2,0.7l0.7-0.4v-1.4L110.7,62.7z"/>
	<path class="st16" d="M102.3,57.8l0.4-0.8l-0.9,0.5C102,57.6,102.1,57.7,102.3,57.8z"/>
	<path class="st16" d="M103.1,56.8L103.1,56.8L103.1,56.8l-0.3,1.3c0.1,0.1,0.2,0.1,0.3,0.2V56.8L103.1,56.8z"/>
	<path class="st16" d="M102.4,57.9c-0.2-0.1-0.3-0.2-0.5-0.3l-14.2,8.3l-0.5,1.3l-1,2.9v9.4L94,75v-2.4L91.4,70l1.7-1l1.7,1.8
		l1.6-3.7l1.7-1l-2.6,5.6v2.5l6-3.5v-5.2l-2.1,1.2v-1.4l3.4-2v6.6l0.4-0.2V58.4c-0.1-0.1-0.2-0.1-0.3-0.2l-0.5,2.6
		c0,0,0,0.1-0.1,0.2l-3,3.3v-0.5L102.4,57.9z"/>
	<polygon class="st16" points="84.8,73.6 81.8,82 84.8,80.2 	"/>
	<path class="st16" d="M105,63.4v5.2l3.9-2.2v-1.1l2.9-1.7c-0.4-0.2-0.8-0.5-1.2-0.7l-1.2,0.7v-1.3l0.1-0.1
		c-1.3-0.8-2.5-1.6-3.8-2.3h-1.3v2.4l2.7-1.5v1.4L105,63.4z"/>
	<polygon class="st15" points="86.1,79.5 84.8,80.2 84.8,80.3 86.1,79.6 	"/>
	<polygon class="st17" points="84.8,73.6 84.8,80.2 86.1,79.5 86.1,70.1 	"/>
	<polygon class="st15" points="103.1,69.7 103.1,69.7 103.6,69.4 	"/>
	<path class="st17" d="M103.7,58.7l-0.5-2l-0.1,0.1v1.5C103.3,58.4,103.5,58.6,103.7,58.7z"/>
	<polygon class="st17" points="103.6,56.5 104.4,57.1 104.4,56.1 	"/>
	<path class="st17" d="M103,58.3v11.3l0.5-0.3v-6.6l0.8-0.4v-2.4H104c-0.1,0-0.1,0-0.1-0.1l-0.2-1.1C103.5,58.6,103.3,58.4,103,58.3
		z"/>
	<path class="st15" d="M97,54.7l18.9-11L97,54.7L97,54.7z"/>
	<path class="st18" d="M76.8,92.4l14.3,4.3l3.2-1.8L80,90.6c-0.1,0-0.2-0.1-0.3-0.1c-0.1-0.2-0.3-0.3-0.4-0.5
		c-0.1-0.3-0.1-0.5-0.1-0.8c0-0.1,0.1-0.2,0.1-0.3l2.5-6.9l-3.2,1.8l-2.5,6.9C75.8,91.4,76.2,92.1,76.8,92.4z"/>
	<polygon class="st19" points="86.1,70.1 87.1,67.2 87.6,65.8 84.4,67.7 78.5,83.9 81.8,82 84.8,73.6 84.8,67.5 86.1,66.8 	"/>
	<polygon class="st17" points="84.8,67.5 84.8,73.6 86.1,70.1 86.1,66.8 	"/>
	<polygon class="st15" points="97,54.7 97,54.7 121.8,40.3 121.8,40.3 115.9,43.7 	"/>
	<path class="st15" d="M79.3,88.8c-0.1,0.1-0.1,0.2-0.1,0.3c0,0,0.1-0.1,0.1-0.2l2.5-6.9l0,0L79.3,88.8z"/>
	<path class="st15" d="M79.8,90.4c-0.1-0.2-0.3-0.3-0.4-0.5C79.5,90.1,79.6,90.3,79.8,90.4z"/>
	<polygon class="st15" points="81.8,82 81.8,82 84.8,73.6 84.8,73.6 	"/>
	<polygon class="st15" points="86.1,70.1 86.1,70.1 87.1,67.2 	"/>
	<polygon class="st15" points="86.1,70.1 86.1,70.1 84.8,73.6 	"/>
	<g>
		<path class="st7" d="M103.3,56.3v0.3l0,0l0.5,2l0.2,1.1c0,0,0,0.1,0.1,0.1h0.3h1.3h1.4v-0.5l-2.7-2.2l-0.8-0.6l0,0L103.3,56.3
			C103.3,56.2,103.2,56.3,103.3,56.3z"/>
		<path class="st7" d="M102.2,57.7l-3,6v0.5l3-3.3c0.1,0,0.1-0.1,0.1-0.2l0.5-2.6l0.2-1.3l0.1-0.4c0-0.1-0.1-0.1-0.1,0l-0.3,0.6
			L102.2,57.7z"/>
		<path class="st7" d="M118.1,54.4l-1.6,1v4.4c0,0.8,0.2,1.2,0.6,1.4c0.2,0.1,0.3,0.1,0.5,0.1c0.4-0.1,0.8-0.2,1.3-0.5
			s0.9-0.7,1.3-1.1c0.4-0.4,0.7-0.8,0.9-1.2l-0.9-0.5c-0.3,0.7-0.7,1.1-1.2,1.4c-0.6,0.3-0.9,0.2-0.9-0.6
			C118.1,58.8,118.1,54.4,118.1,54.4z"/>
		<polygon class="st7" points="111.8,63.5 108.9,65.2 108.9,66.3 108.9,66.5 113,64.2 114.1,63.5 114.1,63.3 114.1,56.7 108.9,59.7 
			108.9,61 112.6,58.9 112.6,60.3 109.5,62.1 109.4,62.2 109.4,63.5 110.6,62.8 112.6,61.6 112.6,63.1 		"/>
		<polygon class="st7" points="91.2,69.9 93.8,72.5 93.8,75 93.8,75.2 95.3,74.4 95.3,74.2 95.3,71.7 97.9,66.1 96.2,67.1 
			94.6,70.7 92.9,69 		"/>
		<polygon class="st7" points="104.4,62.3 103.6,62.8 103.6,69.4 103.6,69.4 103.6,69.6 105,68.8 105,68.6 105,63.4 107.1,62.2 
			107.1,60.8 		"/>
		<polygon class="st7" points="102.7,63.3 99.3,65.3 99.3,66.7 101.4,65.5 101.4,70.7 101.4,70.9 102.7,70.1 102.7,69.9 		"/>
	</g>
	<path class="st20" d="M128.9,73.7L128.9,73.7L128.9,73.7V61.4l0,0V73.7z"/>
	<path class="st20" d="M128.9,73.7L128.9,73.7L128.9,73.7L128.9,73.7z"/>
	<polygon class="st20" points="128.9,61.4 128.9,61.4 128.9,73.7 	"/>
	<path class="st20" d="M128.9,73.7L128.9,73.7L128.9,73.7z"/>
	<path class="st20" d="M126.5,72.9l2.4,1.5v-13h-1.5l-0.9,1.5C126.5,62.9,126.5,72.9,126.5,72.9z"/>
	<path class="st21" d="M10.5,108.2c-0.5,0.9-0.7,7.4-0.1,8.7c0.7,1.2,5.3,4.6,7.8,6.1s10.8,5.7,15.6,6.8c4.7,1.2,9.3-1.3,9.3-1.3
		l2.5-1.4c-0.2-0.6-0.4-1.2-0.4-1.9c-0.3-4.3,2.9-9.6,7.2-11.8c4.2-2.3,7.9-0.7,8.2,3.6c0.1,0.5,0.1,1,0,1.5l41.8-23.6
		c-0.3-0.6-0.4-1.3-0.5-2.1c-0.1-0.4,0-0.9,0-1.3l-6.3,3.6l-1.2-0.3l0,0l1.1,0.3l-3.2,1.8l-1.1-0.3l-30.3,17
		c-1.3-2.3-4.9-3.9-10-0.7c-5.4,3.4-6.6,9.6-6.6,9.6s-1.1,0.6-2.6,1.2c-0.1,0.1-0.3,0.1-0.5,0.2c-0.1,0.1-0.1,0.1-0.2,0.1
		c-0.2,0.1-0.3,0.1-0.5,0.2c-0.1,0.1-0.1,0.1-0.2,0.1c-0.2,0.1-0.4,0.1-0.7,0.2h-0.1c-0.2,0-0.5,0.1-0.7,0.1c0,0-0.1,0-0.2,0
		c-0.3,0-0.5,0.1-0.7,0.1c0,0-0.1,0-0.2,0c-0.3,0-0.6,0-0.9,0l0,0c-0.2,0-0.5,0-0.7,0c-0.1,0-0.3,0-0.4,0c-0.4,0-0.8,0-1.2-0.1
		c-1.9-0.3-6.2-1.8-9.9-3.4c0,0-1.3,0-3.2-0.7l0.4,0.2c0.1,0,0.2,0.2,0.2,0.3v1.9c0,0.3-0.3,0.5-0.6,0.3l-5.6-3.2
		c-0.1,0-0.2-0.2-0.2-0.3v-1.9c0-0.3,0.3-0.5,0.6-0.3h0.1c-1.1-0.9-2.1-1.9-3-3.3l0,0c-0.3-0.2-0.5-0.5-0.8-0.8
		c-1.2-1.2-1.4-2.8-1.6-3.9c0-0.2-0.1-0.4-0.1-0.6C10.7,108.4,10.7,108.1,10.5,108.2z M28.9,124.8c0-0.2,0.2-0.3,0.4-0.2l1.2,0.6
		c0.1,0,0.1,0.1,0.1,0.2v1.3c0,0.2-0.2,0.3-0.4,0.2l-1.2-0.6c-0.1,0-0.1-0.1-0.1-0.2V124.8z M11.3,114.8c0-0.2,0.2-0.3,0.4-0.2
		l0.8,0.7c0.1,0,0.1,0.1,0.1,0.2v1.3c0,0.2-0.2,0.3-0.4,0.2l-0.8-0.7c-0.1,0-0.1-0.1-0.1-0.2V114.8z"/>
	<path class="st21" d="M117.1,86.5l8.7-4.9c0.5-0.7,3.1-5.6,3.1-5.6v-1.3l-3.9,3.5l-0.3,0.2c-0.2,0.1-0.4,0.2-0.6,0.3l-7.3,4.2
		c0.2,0.5,0.4,1.1,0.4,1.8C117.2,85.3,117.2,85.9,117.1,86.5z"/>
	<path class="st21" d="M40.3,124.3c-0.2,0.1-0.4,0.1-0.7,0.2C39.9,124.4,40.1,124.4,40.3,124.3z"/>
	<path class="st21" d="M36.8,124.8L36.8,124.8c0.3,0,0.6,0,0.9,0C37.4,124.8,37.1,124.9,36.8,124.8z"/>
	<path class="st21" d="M39.5,124.6c-0.2,0-0.5,0.1-0.7,0.1C39.1,124.6,39.3,124.6,39.5,124.6z"/>
	<path class="st21" d="M38.6,124.7c-0.3,0-0.5,0.1-0.7,0.1C38.2,124.8,38.4,124.7,38.6,124.7z"/>
	<path class="st21" d="M41.7,123.8c-0.1,0.1-0.3,0.1-0.5,0.2C41.4,124,41.6,123.9,41.7,123.8z"/>
	<path class="st21" d="M44.3,122.5c0,0-1.1,0.8-2.6,1.4c1.5-0.6,2.6-1.2,2.6-1.2s1.3-6.3,6.6-9.6C45.5,116.4,44.3,122.5,44.3,122.5z
		"/>
	<path class="st21" d="M41,124.1c-0.2,0.1-0.3,0.1-0.5,0.2C40.7,124.2,40.9,124.2,41,124.1z"/>
	<path class="st21" d="M36.1,124.8c-0.1,0-0.3,0-0.4,0C35.8,124.8,35.9,124.8,36.1,124.8z"/>
	<path class="st21" d="M10.5,108.1c0.2,0,0.2,0.3,0.3,0.8C10.7,108.4,10.7,108.1,10.5,108.1z"/>
	<path class="st21" d="M13.3,114.3c0-0.1,0-0.1,0-0.2c-0.3-0.2-0.5-0.5-0.8-0.7c-1.2-1.3-1.5-2.8-1.6-3.9c0.2,1.1,0.5,2.7,1.6,3.9
		C12.7,113.7,13,114,13.3,114.3z"/>
	<path class="st21" d="M24.5,121.3L24.5,121.3c3.7,1.6,7.9,3.1,9.9,3.4c-1.9-0.4-6.1-2-9.8-3.6C24.6,121.2,24.5,121.3,24.5,121.3z"
		/>
	<path class="st21" d="M36.8,124.9L36.8,124.9L36.8,124.9L36.8,124.9z"/>
	<path class="st21" d="M13.2,114.3L13.2,114.3c0.9,1.3,2,2.4,3,3.3l5.2,3c1.9,0.6,3.2,0.7,3.2,0.7c-2.3-0.9-4.3-1.9-5.6-2.6
		C16,117.1,14.8,115.9,13.2,114.3z"/>
	<path class="st21" d="M19.3,118.6c-3-1.7-4.5-2.8-6.1-4.5c0,0.1,0,0.1,0,0.2c1.5,1.6,2.8,2.8,5.7,4.4c1.3,0.7,3.4,1.7,5.6,2.6l0,0
		c0,0,0-0.1,0.1-0.2C22.5,120.2,20.5,119.2,19.3,118.6z"/>
	<path class="st21" d="M124.9,78.2l3.9-3.5c0,0-3.1,2.8-3.7,3.3c-0.1,0.1-0.3,0.3-0.5,0.4L124.9,78.2z"/>
	<path class="st21" d="M100.7,91.3l-6.4,3.6l1.2,0.3l6.3-3.6c0.4-4,3.4-8.5,7.2-10.5c3.5-1.9,6.7-1.1,7.8,1.8l7.3-4.2
		c-1,0.6-2.9,1.5-6.7,3.2c-0.7-2.3-4.6-4.9-10.2-0.7C101.6,85.4,100.8,91.1,100.7,91.3z"/>
	<polygon class="st21" points="94.4,94.8 91.2,96.6 92.3,96.9 95.5,95.1 	"/>
	<path d="M55.4,127.4c-1.2,0.7-2.4,1.3-3.4,1.9c0.5-0.2,0.9-0.4,1.4-0.6C54.1,128.4,54.8,127.9,55.4,127.4z"/>
	<path d="M51.9,129.4c1.1-0.6,2.2-1.2,3.4-1.9c2.7-2.3,4.7-5.7,5.1-8.9l-2.1,1.2c-0.4,2.7-2.4,5.6-5,6.9c-2.4,1.3-4.5,0.8-5.4-1
		l-2.3,1.3C46.5,129.4,49,130.4,51.9,129.4z"/>
	<path d="M45.3,124.9c0,0.7,0.2,1.3,0.4,1.9l2.3-1.3c-0.2-0.4-0.4-1-0.4-1.6c-0.2-3,2.1-6.8,5.1-8.4c3.1-1.6,5.7-0.4,5.9,2.6
		c0,0.5,0,1-0.1,1.5l2.1-1.2c0-0.5,0-1,0-1.5c-0.3-4.2-3.9-5.8-8.2-3.6C48.1,115.6,44.9,120.8,45.3,124.9z"/>
	<path class="st22" d="M50,124.5l-1.9,1.1c0.8,1.8,3,2.3,5.4,1c2.5-1.3,4.5-4.2,5-6.9l-2.9,1.6c-0.7,1.3-1.7,2.5-2.9,3.1
		S50.5,125,50,124.5z"/>
	<path class="st22" d="M47.4,124c0,0.6,0.2,1.1,0.4,1.6l1.9-1.1c-0.6-0.3-1-1-1.1-1.9c-0.1-2.1,1.5-4.6,3.5-5.7c2.1-1,3.9-0.2,4,1.8
		c0.1,0.8-0.2,1.7-0.6,2.6l2.9-1.6c0.1-0.5,0.1-1,0.1-1.5c-0.2-3-2.9-4.2-5.9-2.6S47.3,121,47.4,124z"/>
	<path class="st23" d="M55.5,121.4l-5.7,3.2c0.8,0.4,1.8,0.4,2.9-0.2C53.9,123.8,54.9,122.6,55.5,121.4z"/>
	<path class="st23" d="M49.9,124.6l5.7-3.2c0.4-0.9,0.7-1.8,0.6-2.6c-0.2-2.1-2-2.9-4-1.8c-2.1,1.1-3.6,3.7-3.5,5.7
		C48.8,123.6,49.2,124.2,49.9,124.6z M52.2,120.6c0.4-0.5,1-0.8,1.3-0.5c0.3,0.2,0.3,0.9-0.1,1.4s-1,0.8-1.3,0.5
		S51.8,121.1,52.2,120.6z"/>
	<path d="M52.3,120.6c-0.4,0.5-0.4,1.1-0.1,1.4s0.9,0,1.3-0.5s0.4-1.1,0.1-1.4C53.2,119.8,52.7,120.1,52.3,120.6z"/>
	<path d="M112.7,94.5c-1.6,0.8-3.2,1.8-4.8,2.7c0.7-0.2,1.4-0.4,2.1-0.8C111,95.9,111.9,95.3,112.7,94.5z"/>
	<path d="M107.9,97.2c1.7-0.9,3.3-1.8,4.8-2.7c2.3-2.2,4-5.2,4.4-8l-2.1,1.2c-0.6,2.6-2.6,5.3-5,6.6c-2.3,1.3-4.3,0.9-5.3-0.7
		l-2.4,1.3C103.2,97,105.4,97.9,107.9,97.2z"/>
	<path d="M101.7,92.8c0,0.8,0.2,1.5,0.5,2.1l2.4-1.3c-0.3-0.5-0.5-1.2-0.5-1.9c0-0.5,0-1,0.1-1.6l-2.4,1.4
		C101.8,91.9,101.8,92.4,101.7,92.8z"/>
	<path d="M115,87.7l2.1-1.2c0.1-0.7,0.1-1.3,0.1-1.9c-0.1-0.7-0.2-1.3-0.4-1.8l-2.2,1.3c0.3,0.5,0.5,1.1,0.5,1.8
		C115.2,86.5,115.1,87.1,115,87.7z"/>
	<path d="M101.8,91.5l2.4-1.4c0.5-2.7,2.5-5.5,5-6.8c2.4-1.2,4.5-0.8,5.4,0.8l2.2-1.3c-1-2.8-4.2-3.7-7.8-1.8
		C105.1,83,102.2,87.5,101.8,91.5z"/>
	<path class="st22" d="M106.7,92.5l-2,1.2c0.9,1.5,3,1.9,5.3,0.7c2.5-1.3,4.4-4,5-6.6l-3.1,1.7c-0.6,1.1-1.5,2-2.6,2.6
		C108.3,92.6,107.4,92.7,106.7,92.5z"/>
	<path class="st22" d="M111.8,89.4l3.1-1.7c0.2-0.6,0.2-1.2,0.2-1.8c0-0.7-0.2-1.3-0.5-1.8l-2.2,1.2c0.2,0.3,0.3,0.7,0.3,1.1
		C112.8,87.4,112.5,88.5,111.8,89.4z"/>
	<path class="st22" d="M104.2,91.7c0,0.8,0.2,1.4,0.5,1.9l2-1.2c-0.8-0.3-1.3-1-1.4-2.1c-0.1-0.3,0-0.6,0-0.9l-1.1,0.7
		C104.1,90.7,104.1,91.2,104.2,91.7z"/>
	<path class="st22" d="M104.2,90.1l1.1-0.7c0.3-1.9,1.6-3.9,3.4-4.8c1.7-0.9,3.1-0.5,3.7,0.7l2.2-1.2c-1-1.6-3.1-2-5.4-0.8
		C106.7,84.7,104.7,87.5,104.2,90.1z"/>
	<path class="st23" d="M111.9,89.5l-5.2,2.9c0.7,0.3,1.6,0.2,2.6-0.3C110.4,91.5,111.3,90.6,111.9,89.5z"/>
	<path class="st23" d="M112.4,85.2l-7.1,4.1c0,0.3,0,0.6,0,0.9c0.1,1.1,0.6,1.8,1.4,2.1l5.2-2.9c0.5-0.9,0.9-2,0.8-3
		C112.7,86,112.6,85.7,112.4,85.2z M110.2,87.8c0.3,0.2,0.3,0.9-0.1,1.4s-1,0.8-1.3,0.5c-0.3-0.2-0.3-0.9,0.1-1.4
		C109.3,87.7,109.9,87.5,110.2,87.8z"/>
	<path class="st23" d="M105.4,89.5l7.1-4.1c-0.6-1.2-2.1-1.6-3.7-0.7C107,85.6,105.6,87.6,105.4,89.5z"/>
	<path d="M110.2,87.8c-0.3-0.3-0.9,0-1.3,0.5s-0.4,1.1-0.1,1.4s0.9,0,1.3-0.5C110.5,88.7,110.5,88,110.2,87.8z"/>
	<path class="st7" d="M15.5,117.8v1.9c0,0.1,0.1,0.2,0.2,0.3l5.6,3.2c0.3,0.2,0.6,0,0.6-0.3V121c0-0.1-0.1-0.2-0.2-0.3l-0.4-0.2
		l-5.2-3l0,0C15.9,117.4,15.5,117.6,15.5,117.8z"/>
	<path class="st24" d="M11.3,114.8v1.3c0,0.1,0,0.2,0.1,0.2l0.8,0.7c0.2,0.1,0.4,0,0.4-0.2v-1.3c0-0.1,0-0.2-0.1-0.2l-0.8-0.7
		C11.5,114.5,11.3,114.6,11.3,114.8z"/>
	<path class="st7" d="M18.4,112.6v1v0.2c0,0.1,0,0.2,0.1,0.3l1.4,0.9c0.1,0.1,0.4,0,0.4-0.2c0-0.1,0-0.1,0-0.1v-0.9v-0.2
		c0-0.1,0-0.2-0.1-0.3l-1.4-0.9C18.7,112.3,18.5,112.4,18.4,112.6L18.4,112.6z"/>
	<path class="st24" d="M28.9,124.8v1.3c0,0.1,0,0.2,0.1,0.2l1.2,0.6c0.2,0.1,0.4,0,0.4-0.2v-1.3c0-0.1,0-0.2-0.1-0.2l-1.2-0.6
		C29.1,124.5,28.9,124.6,28.9,124.8z"/>
	<path class="st5" d="M33.4,99.3c-0.2,0.2-0.2,0.6,0.1,0.7l5.1,2.9c0.1,0.1,0.4,0,0.5-0.1l0.9-1c0.2-0.2,0.2-0.6-0.1-0.7l-5.2-2.8
		c-0.1-0.1-0.4,0-0.5,0.1L33.4,99.3z"/>
	<path class="st5" d="M21.2,91.5c-0.2,0.2-0.1,0.5,0.1,0.7l3.4,2.5c0.2,0.1,0.4,0.1,0.6-0.1l0.7-0.8c0.2-0.2,0.1-0.5-0.1-0.7
		l-3.4-2.4c-0.2-0.1-0.4-0.1-0.6,0.1L21.2,91.5z"/>
	<g>
		<path class="st15" d="M126.5,72.8l1.5,0.9h0.9v1c0,0-3.1,2.7-3.7,3.3c-0.2,0.1-0.3,0.2-0.6,0.4l-0.6,0.3c-1,0.6-2.9,1.4-6.7,3.2
			c-0.7-2.3-4.6-4.9-10.2-0.7s-6.3,9.9-6.3,9.9l-6.4,3.6l-14.3-4.2c-0.1,0-0.2-0.1-0.3-0.1c-0.2-0.1-0.3-0.3-0.4-0.5
			s-0.2-0.5-0.1-0.8c0-0.1,0-0.2,0.1-0.2l2.4-6.9l3-1.8l1.3-0.6v-0.1l7.7-4.5v0.2l1.5-0.9v-0.2l6-3.5v0.2l1.4-0.8v-0.2l0.4-0.1v0.1
			l0.5-0.3v0.1l1.4-0.8v-0.2l3.9-2.2v0.2l5.2-3.1v-0.2l3.6-2.1c0.4,0,0.8-0.2,1.3-0.5s1-0.7,1.3-1.1l5.3-3.1V47
			c0-0.6-0.2-1.2-0.4-1.8l-0.6-1.1l-21,12.3l-0.3-0.2l-0.1,0.1l0.1,0.3l-0.2,0.1v-0.3c0-0.1-0.1-0.1-0.1,0l-0.3,0.6l-15.1,8.8
			l2.6-7.2l31.6-18.3l-5.9,3.4l9.9-5.8l2.8,7c0.2,0.6,0.3,1.2,0.3,1.8v14.7h-1.5l-0.9,1.5C126.5,62.9,126.5,72.8,126.5,72.8z"/>
	</g>
	<polygon class="st18" points="84.3,67.8 86.9,60.5 90.2,58.6 87.6,65.8 	"/>
</g>
<linearGradient id="SVGID_1_" gradientUnits="userSpaceOnUse" x1="72.6091" y1="96.5004" x2="99.5492" y2="126.0237">
	<stop  offset="0" style="stop-color:#6D6E70;stop-opacity:0"/>
	<stop  offset="1" style="stop-color:#6D6E70;stop-opacity:0.7"/>
</linearGradient>
<path class="st25" d="M128.2,100.3L97.5,82.2l-58.8,34.4L71.8,136c0.8,0.5,1.8,0.5,2.7,0l53.6-31
	C129.9,103.9,129.9,101.4,128.2,100.3z"/>
<g id="Calificar_viaje_POP">
	<g transform="matrix(1, 0, 0, 1, 0, 0)">
		<path id="Rectangle-2" class="st7" d="M71.2,33.2l54.9-31.3c2-1.1,3.6-0.4,3.6,1.5V94c0,2-1.6,4.5-3.6,5.7L71.2,131
			c-2,1.1-3.6,0.4-3.6-1.5V38.8C67.6,36.8,69.3,34.3,71.2,33.2z"/>
	</g>
	<g id="Group_752" transform="translate(12.5 -15)">
		<g id="Path_756" transform="translate(76.025 445.013)">
			<path class="st26" d="M-9.9-370l-1.6,0.1l0,0l0,0c-0.1,0-0.1,0-0.3,0.1c-0.1,0.1-0.1,0.1-0.3,0.1l0,0l0,0l-1.6,1.7l0.3-1.9
				c0-0.3,0-0.4-0.1-0.4l-1.3-0.4l1.7-1.3l0,0l0,0c0.3-0.1,0.4-0.4,0.4-0.6l0.9-2l0.9,1.2c0.1,0.1,0.3,0.1,0.4,0.1l0,0l0,0l1.7-0.7
				l-1.2,2l0,0l0,0c-0.1,0.3-0.3,0.6-0.1,0.7L-9.9-370z"/>
			<path class="st26" d="M-11.8-373.7l-0.4,1.2c-0.1,0.4-0.4,0.7-0.7,1l0,0l0,0l-1,0.7l0.7,0.3c0.3,0.1,0.4,0.4,0.3,0.7l-0.1,1
				l0.9-1l0,0l0,0c0.1-0.1,0.3-0.3,0.4-0.3c0.1-0.1,0.3-0.1,0.4-0.1l0,0l0,0h0.9l-0.1-0.9c0-0.3,0-0.7,0.3-1.2l0,0l0,0l0.7-1l-1,0.4
				l0,0l0,0c-0.3,0.1-0.6,0-0.7-0.1L-11.8-373.7 M-11.8-375c0.1,0,0.1,0,0.3,0l0.9,1.3h0.1l2-0.9c0.3-0.1,0.3,0.1,0.1,0.4l-1.4,2.2
				c0,0.1-0.1,0.3-0.1,0.3l0.3,1.7c0,0.1-0.1,0.4-0.3,0.4H-10l-1.7,0.1h-0.1c0,0-0.1,0-0.1,0.1l-1.7,1.9l-0.1,0.1
				c-0.1,0.1-0.3,0-0.3-0.1l0.3-2.2c0-0.1,0-0.1-0.1-0.1l-1.4-0.6c-0.1,0-0.1-0.4,0.1-0.6l2-1.4c0.1,0,0.1-0.1,0.1-0.3l0.9-2.3
				C-11.9-374.9-11.9-375-11.8-375z"/>
		</g>
		<g id="Path_758" transform="translate(118.257 445.013)">
			<path class="st26" d="M-41.2-376.1l-1.6,0.1l0,0l0,0c-0.1,0-0.1,0-0.3,0.1c-0.1,0-0.1,0.1-0.3,0.1l0,0l0,0l-1.6,1.7l0.3-1.9
				c0-0.3,0-0.4-0.1-0.4l-1.3-0.4l1.7-1.3l0,0l0,0c0.3-0.1,0.4-0.4,0.4-0.6l0.9-2l0.9,1.2c0.1,0.1,0.3,0.1,0.4,0.1l0,0l0,0l1.7-0.7
				l-1.3,1.9l0,0l0,0c-0.1,0.3-0.3,0.6-0.1,0.7L-41.2-376.1z"/>
			<path class="st26" d="M-43.3-380l-0.4,1.2c-0.1,0.4-0.4,0.7-0.7,1l0,0l0,0l-1,0.7l0.7,0.3c0.3,0.1,0.4,0.4,0.3,0.7l-0.1,1l0.9-1
				l0,0l0,0c0.1-0.1,0.3-0.3,0.4-0.3c0.1-0.1,0.3-0.1,0.4-0.1l0,0l0,0h0.9l-0.1-0.9c0-0.3,0-0.7,0.3-1.2l0,0l0,0l0.7-1l-1,0.4l0,0
				l0,0c-0.3,0.1-0.6,0-0.7-0.1L-43.3-380 M-43.3-381.3c0.1,0,0.1,0,0.3,0l0.9,1.3h0.1l2-0.9c0.3-0.1,0.3,0.1,0.1,0.4l-1.4,2.2
				c0,0.1-0.1,0.3-0.1,0.3l0.3,1.7c0,0.1-0.1,0.4-0.3,0.4h-0.1l-1.7,0.1h-0.1c0,0-0.1,0-0.1,0.1l-1.7,1.9l-0.1,0.1
				c-0.1,0.1-0.3,0-0.3-0.1l0.3-2.2c0-0.1,0-0.1-0.1-0.1l-1.4-0.6c-0.1,0-0.1-0.4,0.1-0.6l2-1.4c0.1,0,0.1-0.1,0.1-0.3l0.9-2.3
				C-43.4-381.1-43.3-381.3-43.3-381.3z"/>
		</g>
		<g id="Path_759" transform="translate(160.489 445.013)">
			<path class="st26" d="M-72.7-382.3l-1.6,0.1l0,0l0,0c-0.1,0-0.1,0-0.3,0.1c-0.1,0.1-0.1,0.1-0.3,0.1l0,0l0,0l-1.6,1.7l0.3-1.9
				c0-0.3,0-0.4-0.1-0.4l-1.3-0.4l1.7-1.3l0,0l0,0c0.3-0.1,0.4-0.4,0.4-0.6l0.9-2l0.9,1.2c0.1,0.1,0.3,0.1,0.4,0.1l0,0l0,0l1.7-0.7
				l-1.3,1.9l0,0l0,0c-0.1,0.3-0.3,0.6-0.1,0.7L-72.7-382.3z"/>
			<path class="st26" d="M-74.6-386l-0.4,1.2c-0.1,0.4-0.4,0.7-0.7,1l0,0l0,0l-1,0.7l0.7,0.3c0.3,0.1,0.4,0.4,0.3,0.7l-0.1,1l0.9-1
				l0,0l0,0c0.1-0.1,0.3-0.3,0.4-0.3c0.1-0.1,0.3-0.1,0.4-0.1l0,0l0,0h0.9l-0.1-0.9c0-0.3,0-0.7,0.3-1.2l0,0l0,0l0.7-1l-1,0.4l0,0
				l0,0c-0.3,0.1-0.6,0-0.7-0.1L-74.6-386 M-74.6-387.5c0.1,0,0.1,0,0.3,0l0.9,1.3h0.1l2-0.9c0.3-0.1,0.3,0.1,0.1,0.4l-1.4,2.2
				c0,0.1-0.1,0.3-0.1,0.3l0.3,1.7c0,0.1-0.1,0.4-0.3,0.4h-0.1l-1.7,0.1h-0.1c0,0-0.1,0-0.1,0.1l-1.7,1.9l-0.1,0.1
				c-0.1,0.1-0.3,0-0.3-0.1l0.3-2.2c0-0.1,0-0.1-0.1-0.1l-1.4-0.6c-0.1,0-0.1-0.4,0.1-0.6l2-1.4c0.1,0,0.1-0.1,0.1-0.3l0.9-2.3
				C-74.9-387.2-74.8-387.3-74.6-387.5z"/>
		</g>
		<g id="Path_760" transform="translate(202.72 445.013)">
			<path class="st26" d="M-104.2-388.5l-1.6,0.1l0,0l0,0c-0.1,0-0.1,0-0.3,0.1s-0.1,0.1-0.3,0.1l0,0l0,0l-1.6,1.7l0.3-1.9
				c0-0.3,0-0.4-0.1-0.4l-1.3-0.4l1.7-1.3l0,0l0,0c0.3-0.1,0.4-0.4,0.4-0.6l0.9-2l0.9,1.2c0.1,0.1,0.3,0.1,0.4,0.1l0,0l0,0l1.7-0.7
				l-1.3,1.9l0,0l0,0c-0.1,0.3-0.3,0.6-0.1,0.7L-104.2-388.5z"/>
			<path class="st26" d="M-106.1-392.2l-0.4,1.2c-0.1,0.4-0.4,0.7-0.7,1l0,0l0,0l-1,0.7l0.7,0.3c0.3,0.1,0.4,0.4,0.3,0.7l-0.1,1
				l0.9-1l0,0l0,0c0.1-0.1,0.3-0.3,0.4-0.3c0.1-0.1,0.3-0.1,0.4-0.1l0,0l0,0h0.9l-0.1-0.9c0-0.3,0-0.7,0.3-1.2l0,0l0,0l0.7-1l-1,0.4
				l0,0l0,0c-0.3,0.1-0.6,0-0.7-0.1L-106.1-392.2 M-106.1-393.5c0.1,0,0.1,0,0.3,0l0.9,1.3h0.1l2-0.9c0.3-0.1,0.3,0.1,0.1,0.4
				l-1.4,2.2c0,0.1-0.1,0.3-0.1,0.3l0.3,1.7c0,0.1-0.1,0.4-0.3,0.4h-0.1l-1.7,0.1h-0.1c0,0-0.1,0-0.1,0.1l-1.7,1.9l-0.1,0.1
				c-0.1,0.1-0.3,0-0.3-0.1l0.3-2.2c0-0.1,0-0.1-0.1-0.1l-1.4-0.6c-0.1,0-0.1-0.4,0.1-0.6l2-1.4c0.1,0,0.1-0.1,0.1-0.3l0.9-2.3
				C-106.3-393.4-106.3-393.5-106.1-393.5z"/>
		</g>
		<g id="Path_757" transform="translate(243.452 443.513)">
			<path class="st27" d="M-136.1-396.8l-0.4,1.2c-0.1,0.4-0.4,0.7-0.7,1l0,0l-1,0.7l0.7,0.3c0.3,0.1,0.4,0.4,0.3,0.7l-0.1,1l1-1l0,0
				c0.1-0.1,0.3-0.3,0.4-0.3c0.1-0.1,0.3-0.1,0.4-0.1l0,0h0.9l-0.1-0.9c0-0.3,0-0.7,0.3-1.2l0,0l0.7-1l-1,0.4l0,0
				c-0.3,0.1-0.6,0-0.7-0.1L-136.1-396.8 M-136.1-398.3c0.1,0,0.1,0,0.3,0l0.9,1.3h0.1l2-0.9c0.3-0.1,0.3,0.1,0.1,0.4l-1.4,2.2
				c0,0.1-0.1,0.3-0.1,0.3l0.3,1.7c0,0.1-0.1,0.4-0.3,0.4h-0.1l-1.7,0.1h-0.1c0,0-0.1,0-0.1,0.1l-1.7,1.9l-0.1,0.1
				c-0.1,0.1-0.3,0-0.3-0.1l0.3-2.2c0-0.1,0-0.1-0.1-0.1l-1.4-0.6c-0.1,0-0.1-0.4,0.1-0.6l2-1.4c0.1,0,0.1-0.1,0.1-0.3l0.9-2.3
				C-136.2-398.1-136.1-398.1-136.1-398.3z"/>
		</g>
	</g>
	<g class="st28">
		<path class="st29" d="M71.3,54c0-0.1,0-0.2,0-0.3s0.1-0.2,0.1-0.2c0-0.1,0.1-0.1,0.1-0.2c0.1-0.1,0.1-0.1,0.1-0.2
			c0-0.1,0.1-0.1,0.1-0.2c0-0.1,0-0.2,0.1-0.2l0.6-0.3c0,0.1,0,0.2,0,0.3s-0.1,0.2-0.1,0.3s-0.1,0.2-0.1,0.2c0,0.1-0.1,0.1-0.1,0.2
			c0,0.1-0.1,0.1-0.1,0.2c0,0.1,0,0.1,0,0.2c0,0.1,0,0.1,0.1,0.1c0,0,0.1,0,0.2,0s0.1-0.1,0.2-0.2c0.1-0.1,0.1-0.2,0.1-0.3l0.6-0.3
			c0,0.3-0.1,0.5-0.3,0.8c-0.2,0.2-0.4,0.4-0.6,0.6c-0.1,0.1-0.3,0.1-0.4,0.2s-0.2,0-0.3,0c-0.1,0-0.1-0.1-0.2-0.1
			C71.4,54.2,71.3,54.1,71.3,54z M72.5,51.8c0,0.1,0,0.2-0.1,0.3s-0.1,0.2-0.2,0.2s-0.2,0.1-0.2,0c-0.1,0-0.1-0.1-0.1-0.2
			c0-0.1,0-0.2,0.1-0.3s0.1-0.2,0.2-0.2s0.2-0.1,0.2,0S72.5,51.7,72.5,51.8z"/>
		<path class="st29" d="M74.5,51.7c0.2-0.1,0.3-0.2,0.4-0.3s0.2-0.3,0.2-0.4l0.6-0.3c0,0.1-0.1,0.3-0.1,0.4
			c-0.1,0.2-0.2,0.3-0.3,0.4c-0.1,0.1-0.2,0.3-0.3,0.4c-0.1,0.1-0.3,0.2-0.4,0.3c-0.2,0.1-0.3,0.2-0.5,0.2s-0.3,0-0.4,0
			c-0.1-0.1-0.2-0.1-0.3-0.3c-0.1-0.1-0.1-0.3-0.1-0.5s0-0.4,0.1-0.6c0.1-0.2,0.2-0.4,0.3-0.6c0.1-0.2,0.2-0.4,0.4-0.5
			c0.2-0.2,0.3-0.3,0.5-0.4c0.2-0.1,0.3-0.1,0.4-0.2c0.1,0,0.2,0,0.3,0c0.1,0,0.2,0.1,0.3,0.1c0.1,0.1,0.1,0.2,0.1,0.3l-0.6,0.4
			c0,0,0-0.1-0.1-0.1c0,0-0.1,0-0.1-0.1c0,0-0.1,0-0.2,0s-0.1,0-0.2,0.1s-0.2,0.1-0.3,0.2c-0.1,0.1-0.2,0.2-0.2,0.3s0,0.4-0.1,0.5
			c0,0.1-0.1,0.2-0.1,0.3s0,0.2,0.1,0.3c0,0.1,0.1,0.1,0.1,0.1s0.1,0,0.2,0C74.4,51.7,74.4,51.7,74.5,51.7z"/>
		<path class="st29" d="M75.9,50.5c0-0.1,0-0.3,0.1-0.4c0.1-0.1,0.1-0.3,0.2-0.4c0.1-0.1,0.2-0.3,0.3-0.4c0.1-0.1,0.2-0.2,0.4-0.3
			c0.1-0.1,0.3-0.1,0.4-0.1s0.2,0,0.3,0c0.1,0,0.2,0.1,0.2,0.2c0.1,0.1,0.1,0.2,0.1,0.3s0,0.3-0.1,0.4c-0.1,0.1-0.1,0.3-0.2,0.4
			c-0.1,0.1-0.2,0.3-0.3,0.4c-0.1,0.1-0.2,0.2-0.4,0.3C76.8,51,76.6,51,76.5,51s-0.2,0-0.3,0S76,50.9,76,50.8
			C75.9,50.8,75.9,50.6,75.9,50.5z M77.3,49.7c0-0.1,0-0.2-0.1-0.3c-0.1,0-0.2,0-0.3,0c-0.1,0.1-0.2,0.2-0.3,0.3
			c-0.1,0.1-0.1,0.3-0.1,0.4s0,0.2,0.1,0.3c0.1,0,0.2,0,0.3,0c0.1-0.1,0.2-0.2,0.3-0.3C77.2,50,77.3,49.9,77.3,49.7z M76.9,48.2
			l0.6-0.3l-0.4,0.8l-0.4,0.2L76.9,48.2z"/>
		<path class="st29" d="M79.1,47.7c0.1-0.1,0.2-0.1,0.2-0.1c0.1,0,0.1,0,0.2,0c0,0,0.1,0,0.1,0.1c0-0.1,0.1-0.1,0.2-0.2
			c0-0.1,0.1-0.1,0.2-0.2c0.1-0.1,0.1-0.1,0.2-0.2c0.2-0.1,0.4-0.1,0.5-0.1s0.2,0.2,0.2,0.5v1.1l-0.6,0.3v-1.1c0-0.1,0-0.2-0.1-0.2
			s-0.1,0-0.2,0s-0.1,0.1-0.2,0.2c-0.1,0.1-0.1,0.2-0.1,0.3v1.1l-0.6,0.3v-1.1c0-0.1,0-0.2-0.1-0.2s-0.1,0-0.2,0s-0.1,0.1-0.2,0.2
			c-0.1,0.1-0.1,0.2-0.1,0.3v1.1l-0.6,0.3v-1.9l0.4-0.2l0.1,0.1c0-0.1,0.1-0.1,0.1-0.2c0,0,0.1-0.1,0.1-0.2
			C79,47.8,79,47.7,79.1,47.7z"/>
		<path class="st29" d="M81.2,47.5c0-0.1,0-0.3,0.1-0.4c0.1-0.1,0.1-0.3,0.2-0.4c0.1-0.1,0.2-0.3,0.3-0.4c0.1-0.1,0.2-0.2,0.4-0.3
			c0.1-0.1,0.3-0.1,0.4-0.1s0.2,0,0.3,0c0.1,0,0.2,0.1,0.2,0.2c0.1,0.1,0.1,0.2,0.1,0.3s0,0.3-0.1,0.4c0,0.1-0.1,0.3-0.2,0.4
			s-0.2,0.3-0.3,0.4c-0.1,0.1-0.2,0.2-0.4,0.3C82,48,81.9,48,81.7,48.1c-0.1,0-0.2,0-0.3,0s-0.2-0.1-0.2-0.2
			C81.2,47.7,81.2,47.6,81.2,47.5z M82.5,46.7c0-0.1,0-0.2-0.1-0.3c-0.1,0-0.2,0-0.3,0c-0.1,0.1-0.2,0.2-0.3,0.3
			c-0.1,0.1-0.1,0.3-0.1,0.4s0,0.2,0.1,0.3c0.1,0,0.2,0,0.3,0c0.1-0.1,0.2-0.2,0.3-0.3C82.5,47,82.5,46.9,82.5,46.7z"/>
		<path class="st29" d="M85.2,44.2c0.1-0.1,0.2-0.1,0.3-0.1c0.1,0,0.1,0,0.2,0s0.1,0,0.2,0c0,0,0.1,0,0.1,0.1
			c0.1,0.1,0.1,0.2,0.2,0.3l-0.6,0.4c0,0,0-0.1-0.1-0.1h-0.1c0,0-0.1,0-0.2,0.1s-0.2,0.2-0.3,0.3c-0.1,0.1-0.1,0.3-0.1,0.4
			s0,0.2,0.1,0.3c0.1,0,0.2,0,0.3,0c0.1,0,0.1-0.1,0.2-0.1c0-0.1,0.1-0.1,0.1-0.2c0-0.1,0.1-0.1,0.1-0.2l0.6-0.3
			c0,0.2-0.1,0.3-0.2,0.5c0,0.1-0.1,0.1-0.1,0.2c0,0.1-0.1,0.1-0.2,0.2c-0.1,0.1-0.1,0.1-0.2,0.2c-0.1,0.1-0.2,0.1-0.3,0.2
			c-0.1,0.1-0.3,0.1-0.4,0.1s-0.2,0-0.3,0s-0.2-0.1-0.2-0.2c-0.1-0.1-0.1-0.2-0.1-0.3s0-0.3,0.1-0.4c0-0.1,0.1-0.3,0.2-0.4
			c0.1-0.1,0.2-0.3,0.3-0.4C85,44.4,85.1,44.3,85.2,44.2z"/>
		<path class="st29" d="M87.3,43c0.1-0.1,0.2-0.1,0.3-0.1c0.1,0,0.2,0,0.2,0c0.1,0,0.1,0.1,0.2,0.2s0.1,0.2,0.1,0.3v1.1l-0.4,0.2
			l-0.1-0.1c0,0.1-0.1,0.1-0.2,0.2c0,0.1-0.1,0.1-0.2,0.2c-0.1,0.1-0.1,0.1-0.2,0.2c-0.2,0.1-0.4,0.2-0.5,0.1
			c-0.1,0-0.2-0.1-0.2-0.3c0-0.1,0-0.2,0.1-0.3c0-0.1,0.1-0.2,0.2-0.3s0.2-0.2,0.3-0.3c0.1-0.1,0.3-0.2,0.5-0.4c0-0.1,0-0.2-0.1-0.2
			c0,0-0.1,0-0.2,0S87,43.6,87,43.6l-0.1,0.1v0.1l-0.6,0.3c0-0.1,0-0.2,0.1-0.3c0-0.1,0.1-0.2,0.2-0.3s0.1-0.2,0.2-0.3
			C87,43.2,87.1,43.1,87.3,43z M87.1,44.6c0.1-0.1,0.2-0.1,0.3-0.2c0.1-0.1,0.1-0.2,0.1-0.3V44c-0.1,0.1-0.2,0.1-0.3,0.2
			c-0.1,0.1-0.1,0.1-0.2,0.2l-0.1,0.1v0.1C86.9,44.7,86.9,44.7,87.1,44.6C87,44.7,87.1,44.7,87.1,44.6z"/>
		<path class="st29" d="M89,44l-0.6,0.3v-2.6l0.6-0.3V44z"/>
		<path class="st29" d="M89.4,41.4c0-0.1,0-0.2,0.1-0.3s0.1-0.2,0.2-0.2s0.2-0.1,0.2,0c0.1,0,0.1,0.1,0.1,0.2c0,0.1,0,0.2-0.1,0.3
			s-0.1,0.2-0.2,0.2s-0.2,0.1-0.2,0C89.4,41.5,89.4,41.4,89.4,41.4z M89.9,43.4l-0.6,0.3v-1.9l0.6-0.3V43.4z"/>
		<path class="st29" d="M92.2,42.1l-0.6,0.3v-1.3L91,41.4v1.3L90.4,43v-1.3l-0.2,0.1v-0.5l0.2-0.1v-0.1c0-0.2,0.1-0.4,0.2-0.6
			s0.3-0.3,0.5-0.5c0,0,0.1,0,0.1-0.1h0.1h0.1v0.5l0,0l0,0c0,0,0,0-0.1,0s-0.1,0.1-0.2,0.2c0,0.1-0.1,0.2-0.1,0.2l0,0l1.1-0.6
			L92.2,42.1L92.2,42.1z M91.6,40.2c0-0.1,0-0.2,0.1-0.3s0.1-0.2,0.2-0.2s0.2-0.1,0.2,0s0.1,0.1,0.1,0.2s0,0.2-0.1,0.3
			s-0.1,0.2-0.2,0.2s-0.2,0.1-0.2,0C91.7,40.3,91.6,40.3,91.6,40.2z"/>
		<path class="st29" d="M93.5,39.5c0.1-0.1,0.2-0.1,0.3-0.1s0.1,0,0.2,0s0.1,0,0.2,0c0,0,0.1,0,0.1,0.1c0.1,0.1,0.1,0.2,0.2,0.3
			l-0.6,0.4c0,0,0-0.1-0.1-0.1h-0.1c0,0-0.1,0-0.2,0.1s-0.2,0.2-0.3,0.3c-0.1,0.1-0.1,0.3-0.1,0.4s0,0.2,0.1,0.3c0.1,0,0.2,0,0.3,0
			c0.1,0,0.1-0.1,0.2-0.1c0-0.1,0.1-0.1,0.1-0.2c0-0.1,0.1-0.1,0.1-0.2l0.6-0.3c0,0.2-0.1,0.3-0.2,0.5c0,0.1-0.1,0.1-0.1,0.2
			c0,0.1-0.1,0.1-0.2,0.2c-0.1,0.1-0.1,0.1-0.2,0.2c-0.1,0.1-0.2,0.1-0.3,0.2c-0.1,0.1-0.3,0.1-0.4,0.1s-0.2,0-0.3,0
			c-0.1,0-0.2-0.1-0.2-0.2s-0.1-0.2-0.1-0.3s0-0.3,0.1-0.4s0.1-0.3,0.2-0.4c0.1-0.1,0.2-0.3,0.3-0.4S93.4,39.5,93.5,39.5z"/>
		<path class="st29" d="M95.5,38.3c0.1-0.1,0.2-0.1,0.3-0.1c0.1,0,0.2,0,0.2,0c0.1,0,0.1,0.1,0.2,0.2c0,0.1,0.1,0.2,0.1,0.3v1.1
			L95.9,40l-0.1-0.1c0,0.1-0.1,0.1-0.2,0.2c0,0.1-0.1,0.1-0.2,0.2c-0.1,0.1-0.1,0.1-0.2,0.2c-0.2,0.1-0.4,0.2-0.5,0.1
			c-0.1,0-0.2-0.1-0.2-0.3c0-0.1,0-0.2,0.1-0.3c0-0.1,0.1-0.2,0.2-0.3s0.2-0.2,0.3-0.3s0.3-0.2,0.5-0.4c0-0.1,0-0.2-0.1-0.2
			c0,0-0.1,0-0.2,0s-0.1,0.1-0.1,0.1L95.1,39v0.1l-0.6,0.3c0-0.1,0-0.2,0.1-0.3c0-0.1,0.1-0.2,0.2-0.3s0.1-0.2,0.2-0.3
			C95.3,38.5,95.4,38.4,95.5,38.3z M95.4,39.9c0.1-0.1,0.2-0.1,0.3-0.2c0.1-0.1,0.1-0.2,0.1-0.3v-0.1c-0.1,0.1-0.2,0.1-0.3,0.2
			c-0.1,0.1-0.1,0.1-0.2,0.2l-0.1,0.1v0.1C95.2,40,95.2,40,95.4,39.9L95.4,39.9z"/>
		<path class="st29" d="M97.7,37.1L97.7,37.1C97.8,37.1,97.8,37,97.7,37.1L97.7,37.1l0.1,0.5c0,0,0,0-0.1,0c0,0,0,0-0.1,0
			s-0.1,0-0.1,0c-0.1,0.1-0.2,0.1-0.3,0.2c-0.1,0.1-0.1,0.2-0.1,0.3v1l-0.6,0.3v-1.9l0.4-0.2l0.1,0.2c0-0.1,0.1-0.1,0.1-0.2
			c0-0.1,0.1-0.1,0.1-0.2C97.5,37.2,97.6,37.2,97.7,37.1z"/>
		<path class="st29" d="M98.1,36.4c0-0.1,0-0.2,0.1-0.3s0.1-0.2,0.2-0.2s0.2-0.1,0.2,0c0.1,0,0.1,0.1,0.1,0.2c0,0.1,0,0.2-0.1,0.3
			s-0.1,0.2-0.2,0.2s-0.2,0.1-0.2,0C98.1,36.5,98.1,36.5,98.1,36.4z M98.7,38.4l-0.6,0.3v-1.9l0.6-0.3V38.4z"/>
		<path class="st29" d="M99.9,35.8c0.1-0.1,0.2-0.1,0.3-0.1c0.1,0,0.2,0,0.2,0c0.1,0,0.1,0.1,0.2,0.2c0,0.1,0.1,0.2,0.1,0.3v1.1
			l-0.4,0.2l-0.1-0.1c0,0.1-0.1,0.1-0.2,0.2c0,0.1-0.1,0.1-0.2,0.2c-0.1,0.1-0.1,0.1-0.2,0.2c-0.2,0.1-0.4,0.2-0.5,0.1
			c-0.1,0-0.2-0.1-0.2-0.3c0-0.1,0-0.2,0.1-0.3c0-0.1,0.1-0.2,0.2-0.3s0.2-0.2,0.3-0.3c0.1-0.1,0.3-0.2,0.5-0.4c0-0.1,0-0.2-0.1-0.2
			c0,0-0.1,0-0.2,0s-0.1,0.1-0.1,0.1l-0.1,0.1v0.1l-0.6,0.3c0-0.1,0-0.2,0.1-0.3c0-0.1,0.1-0.2,0.2-0.3s0.1-0.2,0.2-0.3
			C99.7,35.9,99.8,35.9,99.9,35.8z M99.8,37.4c0.1-0.1,0.2-0.1,0.3-0.2c0.1-0.1,0.1-0.2,0.1-0.3v-0.1c-0.1,0.1-0.2,0.1-0.3,0.2
			c-0.1,0.1-0.1,0.1-0.2,0.2l-0.1,0.1v0.1C99.6,37.5,99.6,37.5,99.8,37.4C99.7,37.5,99.7,37.4,99.8,37.4z"/>
		<path class="st29" d="M101.6,36.2C101.6,36.3,101.6,36.3,101.6,36.2c0.1,0.1,0.2,0.1,0.3,0.1s0.1-0.1,0.2-0.1
			C102,36,102,36,102,36s0,0-0.1,0c0,0-0.1,0-0.2,0s-0.1,0-0.2,0.1s-0.2,0-0.2,0c-0.1,0-0.1,0-0.2-0.1c0,0-0.1-0.1-0.1-0.2
			c0-0.1,0-0.2,0-0.2c0-0.1,0.1-0.2,0.1-0.3c0.1-0.1,0.1-0.2,0.2-0.3s0.2-0.2,0.3-0.2c0.2-0.1,0.4-0.2,0.6-0.2
			c0.1,0,0.2,0.1,0.2,0.3l-0.5,0.3c0,0,0-0.1-0.1-0.1c0,0-0.1,0-0.2,0s-0.1,0.1-0.1,0.1v0.1c0,0,0,0,0.1,0c0,0,0.1,0,0.2,0
			s0.1,0,0.2-0.1c0.1,0,0.2,0,0.2,0c0.1,0,0.1,0,0.2,0.1c0,0,0.1,0.1,0.1,0.2c0,0.1,0,0.2-0.1,0.2c0,0.1-0.1,0.2-0.1,0.3
			c-0.1,0.1-0.1,0.2-0.2,0.3s-0.2,0.2-0.3,0.2c-0.3,0.1-0.4,0.2-0.6,0.2c-0.1,0-0.2-0.1-0.2-0.3L101.6,36.2z"/>
		<path class="st29" d="M104.7,33.1c0.1-0.1,0.2-0.1,0.3-0.1c0.1,0,0.2,0,0.2,0c0.1,0,0.1,0.1,0.2,0.2c0,0.1,0.1,0.2,0.1,0.3v1.1
			l-0.4,0.2l-0.1-0.1c0,0.1-0.1,0.1-0.2,0.2c0,0.1-0.1,0.1-0.2,0.2c-0.1,0.1-0.1,0.1-0.2,0.2c-0.2,0.1-0.4,0.2-0.5,0.1
			c-0.1,0-0.2-0.1-0.2-0.3c0-0.1,0-0.2,0.1-0.3c0-0.1,0.1-0.2,0.2-0.3s0.2-0.2,0.3-0.3c0.1-0.1,0.3-0.2,0.5-0.4c0-0.1,0-0.2-0.1-0.2
			c0,0-0.1,0-0.2,0s-0.1,0.1-0.1,0.1l-0.1,0.1v0.1l-0.6,0.3c0-0.1,0-0.2,0.1-0.3c0-0.1,0.1-0.2,0.2-0.3s0.1-0.2,0.2-0.3
			C104.5,33.2,104.6,33.2,104.7,33.1z M104.6,34.7c0.1-0.1,0.2-0.1,0.3-0.2c0.1-0.1,0.1-0.2,0.1-0.3v-0.1c-0.1,0.1-0.2,0.1-0.3,0.2
			c-0.1,0.1-0.1,0.1-0.2,0.2l-0.1,0.1v0.1C104.4,34.8,104.4,34.8,104.6,34.7C104.4,34.8,104.5,34.7,104.6,34.7z"/>
		<path class="st29" d="M106.4,34l-0.6,0.3v-2.6l0.6-0.3V34z"/>
		<path class="st29" d="M108.6,30.8c0.1-0.1,0.2-0.1,0.3-0.1c0.1,0,0.1,0,0.2,0s0.1,0,0.2,0c0,0,0.1,0,0.1,0.1
			c0.1,0.1,0.1,0.2,0.2,0.3l-0.6,0.4c0,0,0-0.1-0.1-0.1h-0.1c0,0-0.1,0-0.2,0.1s-0.2,0.2-0.3,0.3c-0.1,0.1-0.1,0.3-0.1,0.4
			s0,0.2,0.1,0.3c0.1,0,0.2,0,0.3,0c0.1,0,0.1-0.1,0.2-0.1c0-0.1,0.1-0.1,0.1-0.2c0-0.1,0.1-0.1,0.1-0.2l0.6-0.3
			c0,0.2-0.1,0.3-0.2,0.5c0,0.1-0.1,0.1-0.1,0.2c0,0.1-0.1,0.1-0.2,0.2c-0.1,0.1-0.1,0.1-0.2,0.2c-0.1,0.1-0.2,0.1-0.3,0.2
			c-0.1,0.1-0.3,0.1-0.4,0.1s-0.2,0-0.3,0c-0.1,0-0.2-0.1-0.2-0.2c-0.1-0.1-0.1-0.2-0.1-0.3s0-0.3,0.1-0.4c0-0.1,0.1-0.3,0.2-0.4
			s0.2-0.3,0.3-0.4S108.5,30.9,108.6,30.8z"/>
		<path class="st29" d="M109.8,31.2c0-0.1,0-0.3,0.1-0.4c0-0.1,0.1-0.3,0.2-0.4s0.2-0.3,0.3-0.4s0.2-0.2,0.4-0.3
			c0.1-0.1,0.3-0.1,0.4-0.1s0.2,0,0.3,0c0.1,0,0.2,0.1,0.2,0.2c0.1,0.1,0.1,0.2,0.1,0.3c0,0.1,0,0.3-0.1,0.4c0,0.1-0.1,0.3-0.2,0.4
			s-0.2,0.3-0.3,0.4c-0.1,0.1-0.2,0.2-0.4,0.3c-0.1,0.1-0.3,0.1-0.4,0.1s-0.2,0-0.3,0c-0.1,0-0.2-0.1-0.2-0.2
			C109.8,31.4,109.8,31.3,109.8,31.2z M111.1,30.4c0-0.1,0-0.2-0.1-0.3c-0.1,0-0.2,0-0.3,0s-0.2,0.2-0.3,0.3
			c-0.1,0.1-0.1,0.3-0.1,0.4s0,0.2,0.1,0.3c0.1,0,0.2,0,0.3,0s0.2-0.2,0.3-0.3C111.1,30.7,111.1,30.6,111.1,30.4z"/>
		<path class="st29" d="M113,28.4c0.1-0.1,0.2-0.1,0.3-0.1s0.2,0,0.2,0s0.1,0.1,0.2,0.2c0,0.1,0.1,0.2,0.1,0.3v1.1l-0.6,0.3v-1
			c0-0.1,0-0.2-0.1-0.2s-0.1,0-0.3,0s-0.2,0.1-0.3,0.2c-0.1,0.1-0.1,0.2-0.1,0.3v1l-0.6,0.3V29l0.4-0.2l0.1,0.1
			c0-0.1,0.1-0.1,0.2-0.2c0-0.1,0.1-0.1,0.2-0.2C112.9,28.5,113,28.4,113,28.4z"/>
		<path class="st29" d="M115,29.2c-0.1,0.1-0.2,0.1-0.3,0.1c-0.1,0-0.2,0-0.3,0c-0.1,0-0.1-0.1-0.2-0.2c0-0.1-0.1-0.2-0.1-0.3
			c0-0.1,0-0.3,0.1-0.4c0-0.1,0.1-0.3,0.2-0.4s0.2-0.3,0.3-0.4c0.1-0.1,0.2-0.2,0.3-0.3c0.1,0,0.1-0.1,0.2-0.1s0.1,0,0.1,0h0.1v-0.8
			L116,26v2.6l-0.4,0.2l-0.1-0.1c0,0.1-0.1,0.1-0.1,0.2s-0.1,0.1-0.2,0.2C115.1,29.1,115.1,29.1,115,29.2z M114.7,28.4
			c0,0.1,0,0.2,0.1,0.3s0.2,0,0.3,0c0.1-0.1,0.2-0.2,0.3-0.3c0.1-0.1,0.1-0.3,0.1-0.4s0-0.2-0.1-0.3c-0.1,0-0.2,0-0.3,0
			c-0.1,0.1-0.2,0.2-0.3,0.3C114.7,28.1,114.7,28.3,114.7,28.4z"/>
		<path class="st29" d="M117.2,27.9c-0.1,0.1-0.2,0.1-0.3,0.1c-0.1,0-0.2,0-0.2,0c-0.1,0-0.1-0.1-0.2-0.2c0-0.1-0.1-0.2-0.1-0.3
			v-1.1l0.6-0.3v1c0,0.1,0,0.2,0.1,0.2s0.1,0,0.3,0c0.1-0.1,0.2-0.1,0.3-0.2s0.1-0.2,0.1-0.3v-1l0.6-0.3v1.9l-0.4,0.2l-0.1-0.1
			c0,0.1-0.1,0.1-0.2,0.2c0,0.1-0.1,0.1-0.2,0.2C117.3,27.8,117.2,27.9,117.2,27.9z"/>
		<path class="st29" d="M119.5,24.7c0.1-0.1,0.2-0.1,0.3-0.1c0.1,0,0.1,0,0.2,0c0.1,0,0.1,0,0.2,0c0,0,0.1,0,0.1,0.1
			c0.1,0.1,0.1,0.2,0.2,0.3l-0.6,0.4c0,0,0-0.1-0.1-0.1h-0.1c0,0-0.1,0-0.2,0.1s-0.2,0.2-0.3,0.3c-0.1,0.1-0.1,0.3-0.1,0.4
			s0,0.2,0.1,0.3c0.1,0,0.2,0,0.3,0c0.1,0,0.1-0.1,0.2-0.1c0-0.1,0.1-0.1,0.1-0.2s0.1-0.1,0.1-0.2l0.6-0.3c0,0.2-0.1,0.3-0.2,0.5
			c0,0.1-0.1,0.1-0.1,0.2s-0.1,0.1-0.2,0.2c-0.1,0.1-0.1,0.1-0.2,0.2s-0.2,0.1-0.3,0.2c-0.1,0.1-0.3,0.1-0.4,0.1s-0.2,0-0.3,0
			c-0.1,0-0.2-0.1-0.2-0.2c-0.1-0.1-0.1-0.2-0.1-0.3c0-0.1,0-0.3,0.1-0.4c0-0.1,0.1-0.3,0.2-0.4s0.2-0.3,0.3-0.4
			C119.2,24.8,119.3,24.7,119.5,24.7z"/>
		<path class="st29" d="M120.9,24.4l-0.3,0.2v-0.5l0.1-0.1c0.2-0.1,0.2-0.2,0.2-0.4v-0.3l0.5-0.3v0.4l0.4-0.2v0.5l-0.4,0.2v0.6
			c0,0.1,0,0.1,0.1,0.2c0,0,0.1,0,0.2,0c0,0,0,0,0.1,0l0,0l0,0v0.5c0,0,0,0-0.1,0.1c-0.1,0-0.1,0.1-0.2,0.1
			c-0.2,0.1-0.4,0.2-0.5,0.1s-0.2-0.2-0.2-0.4L120.9,24.4L120.9,24.4z"/>
		<path class="st29" d="M122.1,24.2c0-0.1,0-0.3,0.1-0.4c0-0.1,0.1-0.3,0.2-0.4c0.1-0.1,0.2-0.3,0.3-0.4s0.2-0.2,0.4-0.3
			c0.1-0.1,0.3-0.1,0.4-0.1c0.1,0,0.2,0,0.3,0s0.2,0.1,0.2,0.2c0.1,0.1,0.1,0.2,0.1,0.3c0,0.1,0,0.3-0.1,0.4c0,0.1-0.1,0.3-0.2,0.4
			c-0.1,0.1-0.2,0.3-0.3,0.4s-0.2,0.2-0.4,0.3c-0.1,0.1-0.3,0.1-0.4,0.1c-0.1,0-0.2,0-0.3,0s-0.2-0.1-0.2-0.2
			C122.1,24.4,122.1,24.3,122.1,24.2z M123.4,23.4c0-0.1,0-0.2-0.1-0.3c-0.1,0-0.2,0-0.3,0c-0.1,0.1-0.2,0.2-0.3,0.3
			c-0.1,0.1-0.1,0.3-0.1,0.4s0,0.2,0.1,0.3c0.1,0,0.2,0,0.3,0c0.1-0.1,0.2-0.2,0.3-0.3S123.4,23.5,123.4,23.4z"/>
		<path class="st29" d="M125.2,21.4C125.3,21.4,125.3,21.4,125.2,21.4c0.1,0,0.1-0.1,0.1-0.1l0,0v0.6c0,0,0,0-0.1,0c0,0,0,0-0.1,0
			H125c-0.1,0.1-0.2,0.1-0.3,0.2s-0.1,0.2-0.1,0.3v1l-0.6,0.3v-1.9l0.4-0.2l0.1,0.2c0-0.1,0.1-0.1,0.1-0.2s0.1-0.1,0.1-0.2
			C125.1,21.5,125.2,21.4,125.2,21.4z"/>
		<path class="st29" d="M127.3,20.2c0,0.1,0,0.2,0,0.3c0,0.1-0.1,0.2-0.1,0.2c0,0.1-0.1,0.1-0.1,0.2S127,21,127,21.1
			s-0.1,0.2-0.1,0.2c0,0.1,0,0.2-0.1,0.3l-0.6,0.3c0-0.1,0-0.2,0-0.3c0-0.1,0.1-0.2,0.1-0.3c0-0.1,0.1-0.2,0.1-0.2
			c0-0.1,0.1-0.1,0.1-0.2s0.1-0.1,0.1-0.2s0-0.1,0-0.2s0-0.1-0.1-0.1c0,0-0.1,0-0.2,0c-0.1,0-0.1,0.1-0.2,0.2
			c-0.1,0.1-0.1,0.2-0.1,0.3l-0.6,0.3c0-0.3,0.1-0.5,0.3-0.8c0.2-0.2,0.4-0.4,0.6-0.6c0.1-0.1,0.3-0.1,0.4-0.2c0.1,0,0.2,0,0.3,0
			s0.1,0.1,0.2,0.1C127.3,20.1,127.3,20.1,127.3,20.2z M126.1,22.5c0-0.1,0-0.2,0.1-0.3c0.1-0.1,0.1-0.2,0.2-0.2
			c0.1,0,0.2-0.1,0.2,0c0.1,0,0.1,0.1,0.1,0.2s0,0.2-0.1,0.3c-0.1,0.1-0.1,0.2-0.2,0.2c-0.1,0-0.2,0.1-0.2,0
			C126.2,22.6,126.1,22.6,126.1,22.5z"/>
	</g>
	<path id="Rectangle_Copy" class="st30" d="M71.2,75.1l55.1-31.3c0.8-0.4,1.4-0.2,1.4,0.6v30.2c0,0.8-0.6,1.8-1.4,2.3l-55.1,31.3
		c-0.8,0.4-1.4,0.2-1.4-0.6V77.4C69.8,76.7,70.5,75.6,71.2,75.1z"/>
	<g>
		<g>
			<g id="Group_13" transform="translate(26.313 566.5)">
				<path id="Rectangle-5" class="st31" d="M44.1-453.4l56.4-32.2c0.5-0.3,0.9-0.1,0.9,0.4v9c0,0.5-0.4,1.1-0.9,1.4l-56.4,32.2
					c-0.5,0.3-0.9,0.1-0.9-0.4v-9C43.2-452.5,43.6-453.1,44.1-453.4z"/>
				<g class="st28">
					<path class="st7" d="M65.9-460.1c0,0.1,0,0.2,0.1,0.3c0,0.1,0.1,0.2,0.2,0.2s0.2,0.1,0.3,0c0.1,0,0.2,0,0.3-0.1
						c0.1-0.1,0.2-0.1,0.3-0.2c0.1-0.1,0.1-0.1,0.2-0.2s0.1-0.2,0.1-0.3c0-0.1,0.1-0.2,0.1-0.3l0.4-0.2c0,0.1-0.1,0.3-0.1,0.4
						s-0.1,0.3-0.2,0.4s-0.2,0.3-0.3,0.4c-0.1,0.1-0.3,0.2-0.4,0.3c-0.2,0.1-0.3,0.1-0.5,0.2c-0.1,0-0.3,0-0.4-0.1s-0.2-0.1-0.3-0.3
						c-0.1-0.1-0.1-0.3-0.1-0.4c0-0.2,0-0.4,0.1-0.6s0.2-0.4,0.3-0.6c0.1-0.2,0.2-0.3,0.4-0.5c0.1-0.1,0.3-0.3,0.5-0.4
						c0.1-0.1,0.3-0.1,0.4-0.2c0.1,0,0.2,0,0.3,0c0.1,0,0.2,0.1,0.2,0.1c0.1,0.1,0.1,0.2,0.1,0.3l-0.4,0.2c0-0.1,0-0.1-0.1-0.2
						l-0.1-0.1c0,0-0.1,0-0.2,0s-0.2,0-0.2,0.1c-0.1,0.1-0.2,0.1-0.3,0.2c-0.1,0.1-0.2,0.2-0.3,0.3c-0.1,0.1-0.1,0.3-0.2,0.4
						C66-460.4,65.9-460.2,65.9-460.1z"/>
					<path class="st7" d="M68.9-462.3c0.1-0.1,0.2-0.1,0.3-0.1s0.2,0,0.2,0c0.1,0,0.1,0.1,0.1,0.1c0,0.1,0,0.1,0,0.2v1.2l-0.3,0.1
						l-0.1-0.1c0,0.1-0.1,0.1-0.1,0.2s-0.1,0.1-0.2,0.2s-0.1,0.1-0.2,0.2c-0.2,0.1-0.4,0.2-0.5,0.1c-0.1,0-0.2-0.1-0.2-0.3
						c0-0.1,0-0.2,0.1-0.3c0-0.1,0.1-0.2,0.2-0.3c0.1-0.1,0.2-0.2,0.3-0.3c0.1-0.1,0.3-0.2,0.5-0.4v-0.1c0-0.1,0-0.1-0.1-0.2
						c-0.1,0-0.1,0-0.3,0.1c-0.1,0.1-0.2,0.1-0.3,0.2c-0.1,0.1-0.1,0.1-0.1,0.2l-0.4,0.2c0-0.2,0.1-0.3,0.2-0.5
						C68.5-462.1,68.6-462.2,68.9-462.3z M68.7-460.7c0.2-0.1,0.3-0.2,0.4-0.3c0.1-0.1,0.1-0.2,0.1-0.4v-0.1
						c-0.2,0.1-0.3,0.2-0.4,0.2s-0.2,0.1-0.2,0.2c-0.1,0.1-0.1,0.1-0.1,0.2v0.1C68.5-460.7,68.5-460.7,68.7-460.7
						C68.6-460.7,68.6-460.7,68.7-460.7z"/>
					<path class="st7" d="M70.4-461.4l-0.4,0.2v-2.5l0.4-0.2V-461.4z"/>
					<path class="st7" d="M71.1-463.8c-0.1,0-0.1,0-0.2,0l-0.1-0.1c0-0.1,0-0.1,0.1-0.2c0-0.1,0.1-0.1,0.2-0.2c0.1,0,0.1,0,0.2,0
						l0.1,0.1c0,0,0,0.1-0.1,0.2S71.1-463.9,71.1-463.8z M71.3-461.9l-0.4,0.2v-1.8l0.4-0.2V-461.9z"/>
					<path class="st7" d="M73.2-463l-0.4,0.2v-1.5l-0.7,0.4v1.5l-0.4,0.2v-1.5l-0.2,0.1v-0.3l0.2-0.1v-0.1c0-0.1,0-0.2,0-0.3
						c0-0.1,0.1-0.2,0.1-0.3c0.1-0.1,0.1-0.2,0.2-0.2c0.1-0.1,0.1-0.1,0.2-0.2h0.1c0,0,0,0,0.1,0c0,0,0,0,0.1,0v0.3l0,0l0,0l0,0
						c-0.1,0-0.1,0.1-0.2,0.2s-0.1,0.2-0.1,0.2v0.1l1-0.6C73.2-464.9,73.2-463,73.2-463z M73-464.9c-0.1,0-0.1,0-0.2,0l-0.1-0.1
						c0-0.1,0-0.1,0.1-0.2c0-0.1,0.1-0.1,0.2-0.2s0.1,0,0.2,0l0.1,0.1c0,0.1,0,0.1-0.1,0.2S73-465,73-464.9z"/>
					<path class="st7" d="M75.2-464.8c0,0.1-0.1,0.2-0.1,0.3c0,0.1-0.1,0.2-0.2,0.3c-0.1,0.1-0.1,0.2-0.2,0.3
						c-0.1,0.1-0.2,0.2-0.3,0.2c-0.1,0.1-0.2,0.1-0.3,0.1c-0.1,0-0.2,0-0.3,0c-0.1,0-0.1-0.1-0.2-0.2c0-0.1-0.1-0.2-0.1-0.3
						c0-0.1,0-0.3,0.1-0.4c0-0.1,0.1-0.3,0.2-0.4s0.2-0.2,0.3-0.3c0.1-0.1,0.2-0.2,0.3-0.3c0.1-0.1,0.2-0.1,0.3-0.1
						c0.1,0,0.2,0,0.2,0c0.1,0,0.1,0.1,0.2,0.1c0,0.1,0.1,0.1,0.1,0.2l-0.4,0.2c0-0.1-0.1-0.1-0.1-0.2c-0.1,0-0.2,0-0.3,0.1
						c-0.1,0-0.1,0.1-0.2,0.1s-0.1,0.1-0.2,0.2c0,0.1-0.1,0.2-0.1,0.2c0,0.1,0,0.2,0,0.3c0,0.1,0,0.2,0,0.2c0,0.1,0.1,0.1,0.1,0.1
						s0.1,0,0.2,0s0.1,0,0.2-0.1s0.2-0.1,0.3-0.2s0.1-0.2,0.1-0.3L75.2-464.8z"/>
					<path class="st7" d="M76.3-466.5c0.1-0.1,0.2-0.1,0.3-0.1c0.1,0,0.2,0,0.2,0c0.1,0,0.1,0.1,0.1,0.1c0,0.1,0,0.1,0,0.2v1.2
						l-0.3,0.1l-0.1-0.1c0,0.1-0.1,0.1-0.1,0.2s-0.1,0.1-0.2,0.2s-0.1,0.1-0.2,0.2c-0.2,0.1-0.4,0.2-0.5,0.1c-0.1,0-0.2-0.1-0.2-0.3
						c0-0.1,0-0.2,0.1-0.3s0.1-0.2,0.2-0.3c0.1-0.1,0.2-0.2,0.3-0.3c0.1-0.1,0.3-0.2,0.5-0.4v-0.1c0-0.1,0-0.1-0.1-0.2
						c-0.1,0-0.1,0-0.3,0.1c-0.1,0.1-0.2,0.1-0.3,0.2c-0.1,0.1-0.1,0.1-0.1,0.2l-0.4,0.2c0-0.2,0.1-0.3,0.2-0.5
						C75.9-466.3,76-466.4,76.3-466.5z M76.1-464.9c0.2-0.1,0.3-0.2,0.4-0.3c0.1-0.1,0.1-0.2,0.1-0.4v-0.1c-0.2,0.1-0.3,0.2-0.4,0.2
						c-0.1,0.1-0.2,0.1-0.2,0.2c-0.1,0.1-0.1,0.1-0.1,0.2s0,0.1,0,0.1C75.9-464.9,75.9-464.9,76.1-464.9
						C76-464.9,76-464.9,76.1-464.9z"/>
					<path class="st7" d="M78.2-467.7L78.2-467.7C78.3-467.7,78.3-467.7,78.2-467.7C78.3-467.7,78.3-467.7,78.2-467.7l0.1,0.4l0,0
						l0,0l0,0c-0.1,0-0.1,0.1-0.2,0.1c-0.1,0.1-0.1,0.1-0.1,0.2s-0.1,0.1-0.1,0.2s0,0.1,0,0.2v1l-0.4,0.2v-1.8l0.3-0.1l0.1,0.1
						c0-0.1,0.1-0.1,0.1-0.2l0.1-0.1C78.1-467.6,78.1-467.6,78.2-467.7z"/>
				</g>
			</g>
		</g>
	</g>
</g>
</svg>
