<?xml version="1.0" encoding="utf-8"?>
<!-- Generator: Adobe Illustrator 24.0.0, SVG Export Plug-In . SVG Version: 6.00 Build 0)  -->
<svg version="1.1" id="Layer_1" xmlns="http://www.w3.org/2000/svg" xmlns:xlink="http://www.w3.org/1999/xlink" x="0px" y="0px"
	 width="140px" height="140px" viewBox="0 0 140 140" style="enable-background:new 0 0 140 140;" xml:space="preserve">
<style type="text/css">
	.st0{opacity:0.4;fill:#4D4D4F;enable-background:new    ;}
	.st1{fill:#606A70;}
	.st2{fill:#727D83;}
	.st3{fill:#828E96;}
	.st4{fill:#E6E7E8;}
	.st5{fill:#D0D2D3;}
	.st6{fill:#A6A8AB;}
	.st7{fill:#6D6E70;}
	.st8{fill:#808184;}
	.st9{fill:#4A93BD;}
	.st10{fill:#6EA9CA;}
	.st11{fill:#D17261;}
	.st12{fill:#C85248;}
	.st13{fill:#AD3429;}
	.st14{fill:#B3493F;}
	.st15{fill:#FBBB76;}
	.st16{fill:#F6921E;}
	.st17{fill:#F9A64A;}
	.st18{fill:#FFFFFF;stroke:#FFFFFF;stroke-width:9.808946e-02;stroke-miterlimit:10;}
	.st19{font-family:'Metropolis-Bold';}
	.st20{font-size:2.5471px;}
	.st21{fill:#82271F;}
	.st22{fill:#F1F1F2;}
	.st23{fill:#BBBDBF;}
	.st24{fill:#FFFFFF;}
	.st25{font-size:6.3158px;}
	.st26{fill:url(#SVGID_1_);}
	.st27{fill:#262247;}
	.st28{fill:#504A6A;}
	.st29{font-size:4.2154px;}
	.st30{fill:#4BBFA8;}
	.st31{font-size:2.9101px;}
</style>
<g>
	<g>
		<polygon class="st0" points="77.7,127.2 134.5,94.4 77.7,61.6 20.9,94.4 		"/>
		<polygon class="st1" points="77.7,123.4 136.8,89.2 136.8,87 77.7,121.1 		"/>
		<polygon class="st2" points="77.7,121.1 136.8,87 77.7,52.8 18.6,87 		"/>
		<polygon class="st3" points="77.7,123.4 18.6,89.2 18.6,87 77.7,121.1 		"/>
	</g>
	<g>
		<polygon class="st4" points="63.4,101.8 63.4,73.3 38.8,59 38.8,87.5 		"/>
		<polygon class="st5" points="63.4,101.8 101.3,79.9 101.3,51.4 63.4,73.3 		"/>
	</g>
	<polygon class="st6" points="63.4,101.8 101.3,79.9 101.3,74.1 111.7,80.1 73.9,102 	"/>
	<g>
		<polygon class="st6" points="81.6,70.9 98.3,61.2 97.5,60.7 80.8,70.4 		"/>
		<polygon class="st7" points="81.6,70.9 98.3,61.2 98.3,77.1 81.6,86.7 		"/>
		<polygon class="st8" points="81.6,70.9 80.8,70.4 80.8,86.3 81.6,86.7 		"/>
		<polygon class="st9" points="82.3,71.3 97.6,62.4 97.6,76.6 82.3,85.4 		"/>
		<polygon class="st8" points="97.6,76.6 96.8,76.1 96.8,62.9 97.6,62.4 		"/>
		<polygon class="st6" points="82.3,85.4 97.6,76.6 96.8,76.1 82.3,84.5 		"/>
		<polygon class="st10" points="96.8,62.9 96.8,76.1 82.3,84.5 		"/>
		<polygon class="st4" points="86.9,72.9 92.9,69.5 92.9,75 86.9,78.4 		"/>
	</g>
	<g>
		<polygon class="st6" points="59.6,78.6 42.8,68.8 43.6,68.3 60.4,78.1 		"/>
		<polygon class="st8" points="59.6,78.6 42.8,68.8 42.8,84.8 59.6,94.4 		"/>
		<polygon class="st7" points="59.6,78.6 60.4,78.1 60.4,94 59.6,94.4 		"/>
		<polygon class="st9" points="58.9,79 43.5,70.1 43.5,84.3 58.9,93.1 		"/>
		<polygon class="st7" points="43.5,84.3 44.3,83.8 44.3,70.6 43.5,70.1 		"/>
		<polygon class="st6" points="58.9,93.1 43.5,84.3 44.3,83.8 58.9,92.1 		"/>
		<polygon class="st10" points="44.3,83.8 58.9,79 58.9,92.1 		"/>
	</g>
	<g>
		<polygon class="st6" points="68.7,81.1 77.8,75.8 77,75.3 67.9,80.6 		"/>
		<polygon class="st7" points="68.7,81.1 77.8,75.8 77.8,94.4 68.7,99.6 		"/>
		<polygon class="st8" points="68.7,81.1 67.9,80.6 67.9,99.2 68.7,99.6 		"/>
		<polygon class="st9" points="69.4,81.6 77.1,77 77.1,93.9 69.4,98.3 		"/>
		<polygon class="st8" points="77.1,93.9 76.3,93.4 76.3,77.5 77.1,77 		"/>
		<polygon class="st6" points="69.4,98.3 77.1,93.9 76.3,93.4 69.4,97.4 		"/>
		<polygon class="st6" points="69.4,89.2 77.1,84.8 76.3,84.3 69.4,88.3 		"/>
		<polygon class="st7" points="69.4,89.2 77.1,84.7 77.1,87.2 69.4,91.7 		"/>
		<polygon class="st10" points="76.3,87.7 76.3,93.4 69.4,97.4 		"/>
		<polygon class="st10" points="76.3,77.5 76.3,84.3 69.4,88.3 		"/>
		<polygon class="st4" points="71.6,82.4 74.1,81 74.1,83.4 71.6,84.8 		"/>
	</g>
	<g>
		<g>
			<polygon class="st5" points="63.4,78.8 63.4,73.3 38.8,59 38.8,64.5 			"/>
			<polygon class="st5" points="63.4,78.8 101.3,56.9 101.3,51.4 63.4,73.3 			"/>
		</g>
		<path class="st11" d="M104.6,45.8L77.7,30.2L36.5,54.1l0,0l0,0l26.8,15.6l0-0.1l0,0l0,0l0,0.1L104.6,45.8L104.6,45.8L104.6,45.8z
			 M63.4,66.8L44,55.5l33.7-19.4l19.4,11.2L63.4,66.8z"/>
		<polygon class="st12" points="63.4,77 63.4,69.6 36.5,54.1 36.5,61.4 		"/>
		<polygon class="st13" points="63.4,77 104.6,53.2 104.6,45.8 63.4,69.6 		"/>
		<polygon class="st12" points="77.8,36.1 77.7,33.2 99.6,45.8 97.1,47.3 		"/>
		<polygon class="st14" points="77.7,36.1 77.7,33.2 41.5,54.1 44,55.5 		"/>
		<polygon class="st13" points="44,55.5 77.7,36.1 97.1,47.3 63.4,66.8 		"/>
	</g>
	<g>
		<polygon class="st15" points="66,70.8 78.8,63.4 77.7,62.7 64.9,70.1 		"/>
		<polygon class="st16" points="66,70.8 78.8,63.4 78.8,66.6 66,73.9 		"/>
		<polygon class="st17" points="66,70.8 64.9,70.1 64.9,73.3 66,73.9 		"/>
		<text transform="matrix(1 -0.5838 0 1 66.919 72.8009)" class="st18 st19 st20">TIENDA</text>
	</g>
	<g>
		<polygon class="st15" points="69.4,108.2 82.1,100.8 81,100.1 68.3,107.5 		"/>
		<polygon class="st16" points="69.4,108.3 82.1,100.8 82.1,101.7 69.4,109 		"/>
		<polygon class="st17" points="69.4,108.3 68.3,107.5 68.3,108.3 69.4,109 		"/>
	</g>
	<g>
		<polygon class="st15" points="85.7,98.8 98.4,91.4 97.3,90.7 84.6,98.1 		"/>
		<polygon class="st16" points="85.7,98.8 98.4,91.4 98.4,92.2 85.7,99.5 		"/>
		<polygon class="st17" points="85.7,98.8 84.6,98.1 84.6,98.9 85.7,99.5 		"/>
	</g>
	<g>
		<polygon class="st15" points="101.7,89.6 114.4,82.2 113.3,81.5 100.5,88.9 		"/>
		<polygon class="st16" points="101.7,89.6 114.4,82.2 114.4,83.1 101.7,90.4 		"/>
		<polygon class="st17" points="101.7,89.6 100.5,88.9 100.6,89.7 101.7,90.4 		"/>
	</g>
	<g>
		<polygon class="st21" points="73.5,47.6 79.8,43.9 79.8,43 82.1,44.1 75.9,47.7 		"/>
		<polygon class="st4" points="73.5,47.6 73.5,42 69.3,39.6 69.3,45.2 		"/>
		<polygon class="st5" points="73.5,47.6 79.8,43.9 79.8,38.3 73.5,42 		"/>
		<g>
			<polygon class="st22" points="69.3,39.6 75.7,35.9 79.8,38.3 73.5,42 			"/>
		</g>
		<polygon class="st6" points="73.8,47.1 74.2,46.9 74.2,41.8 73.8,42 		"/>
		<polygon class="st6" points="74.9,46.5 75.3,46.3 75.3,41.2 74.9,41.4 		"/>
		<polygon class="st6" points="76,45.9 76.4,45.7 76.4,40.6 76,40.8 		"/>
		<polygon class="st6" points="77.1,45.3 77.5,45.1 77.5,40 77.1,40.2 		"/>
		<polygon class="st6" points="78.2,44.7 78.5,44.5 78.5,39.4 78.2,39.6 		"/>
		<polygon class="st6" points="79.3,44.1 79.6,43.9 79.6,38.8 79.3,39 		"/>
	</g>
	<line class="st4" x1="66.6" y1="97.2" x2="52" y2="88.9"/>
	<path class="st23" d="M129.4,66.8L129.4,66.8c-0.5,0-0.9,0.4-0.9,0.9v18.7c0,0.5,0.4,0.9,0.9,0.9l0,0c0.5,0,0.9-0.4,0.9-0.9V67.7
		C130.3,67.2,129.9,66.8,129.4,66.8z"/>
	<g>
		
			<ellipse transform="matrix(0.8676 -0.4972 0.4972 0.8676 -15.5947 72.9673)" class="st9" cx="129.2" cy="65.8" rx="3.5" ry="5.5"/>
		<ellipse transform="matrix(0.8676 -0.4972 0.4972 0.8676 -15.5947 72.9673)" class="st24" cx="129.2" cy="65.8" rx="3" ry="4.7"/>
		<text transform="matrix(1.0036 0.478 0 1 127.0669 66.8367)" class="st9 st19 st25">E</text>
	</g>
</g>
<g>
	
		<linearGradient id="SVGID_1_" gradientUnits="userSpaceOnUse" x1="1897.0908" y1="94.418" x2="1924.6039" y2="124.5691" gradientTransform="matrix(-1 0 0 1 1956.2474 0)">
		<stop  offset="0" style="stop-color:#6D6E70;stop-opacity:0"/>
		<stop  offset="1" style="stop-color:#6D6E70;stop-opacity:0.7"/>
	</linearGradient>
	<path class="st26" d="M8.6,105.4l35.7-21.6l42.5,24.9l-37.5,22.5c-0.6,0.3-1.3,0.3-1.9,0L8.6,108.7C7.4,108,7.4,106.1,8.6,105.4z"
		/>
	<g>
		<path class="st27" d="M8.7,18.7l1.1,2.6l37.8,17.6c1.8,1,2.9,2.9,2.9,5l-5.1,81.8l3,1.6c1.4,0.3,3.7-0.9,4.9-1.5
			c1.1-0.5,1.9-2.1,1.9-3.8V40.6c0-1.7-0.9-3.3-2.4-4.1L16.9,15.8c-1.5-0.8-3.2-0.8-4.7,0C10.6,16.6,8.6,17.5,8.7,18.7z"/>
		<path class="st27" d="M47.9,127.2L7.2,103.7c-1.4-0.8-2.3-2.3-2.3-4c0,0,0-76.4,0-78.9s7.9-5.9,8.7-5.5l33.9,23.6
			c1.8,1,2.9,3,2.9,5l0,81.8C50.4,127,49,127.8,47.9,127.2z"/>
		<g>
			<path class="st4" d="M46.5,43.8L11.3,23.3c-1.1-0.7-2.6,0.2-2.6,1.5l0,73.3c0,0.6,0.3,1.2,0.9,1.5L44.8,120
				c1.1,0.7,2.6-0.2,2.6-1.5V45.2C47.4,44.6,47.1,44.1,46.5,43.8z"/>
		</g>
		<g>
			<path class="st28" d="M38.3,33.3c2.2,1.1,4.3,2.3,6.5,3.5c1.1,0.6,2.1,1.2,3.2,1.8c1.1,0.7,2,1.8,2.5,3c0.2,0.6,0.4,1.3,0.4,1.9
				c0,0.7,0,1.2,0,1.9c0,1.2,0,2.4,0,3.7c0,2.4-0.1,4.9-0.2,7.3h-0.4c-0.1-2.4-0.2-4.9-0.2-7.3c0-1.2,0-2.4,0-3.7c0-0.6,0-1.3,0-1.8
				c0-0.6-0.2-1.1-0.4-1.6c-0.4-1-1.1-2-2.1-2.6l-3.1-1.9c-2.1-1.3-4.2-2.5-6.2-3.9L38.3,33.3z"/>
		</g>
		<path class="st27" d="M35.3,36.2l-16.1-9.3l0,4.8c0,0.2,0.1,0.4,0.3,0.6l14.8,8.5c0.4,0.2,1-0.1,1-0.6V36.2z"/>
	</g>
	<polygon class="st24" points="43.4,66.3 11.1,47.1 11.2,100.5 43.4,119.2 	"/>
	<text transform="matrix(0.8636 0.5022 0 1 18.1958 59.0459)"><tspan x="0" y="0" class="st2 st19 st29">Pago por </tspan><tspan x="5.4" y="5.1" class="st2 st19 st29">SPEI</tspan></text>
	<path class="st30" d="M16.7,90.8l20.2,11.6c0.3,0.2,0.8,1,0.8,1.4l0,6c0,0.2-0.1,0.2-0.3,0.1L17.2,98.1c-0.3-0.2-0.8-1-0.8-1.3
		v-5.8C16.4,90.7,16.5,90.7,16.7,90.8z"/>
	<text transform="matrix(0.8636 0.5022 0 1 21.083 97.7026)" class="st24 st19 st31">Transferir</text>
	<g>
		<g>
			<path class="st30" d="M25.7,44.5l0,0.4l2.3,0.1c0,0,0.1,0,0.1-0.1l0.6-2.7c0-0.1-0.1-0.1-0.1-0.1L25.7,44.5z"/>
		</g>
		<g>
			<path class="st30" d="M31.7,48.1l0,0.4l-2.3-2.7c0-0.1-0.1-0.1-0.1-0.2l-0.6-3.4c0-0.1,0.1,0,0.1,0L31.7,48.1z"/>
		</g>
		<g>
			<path class="st30" d="M14.7,43.8l0.7-0.4c0.3,0.5,0.6,0.9,1,1.1c0.4,0.3,0.7,0.2,0.7-0.5l0-3.5l1.2,0.7l0,3.5
				c0,0.6-0.2,1-0.5,1.1c-0.3,0.1-0.8,0-1.4-0.3C15.6,45.2,15.1,44.5,14.7,43.8z"/>
		</g>
		<g>
			<path class="st30" d="M20.2,42.4l4,2.4l0,1.1l-2.8-1.7l0,1.1l2.5,1.5l0,1.1l-2.5-1.5l0,1.1l2.9,1.7l0,1.1l-4-2.4L20.2,42.4z"/>
		</g>
		<g>
			<path class="st30" d="M34.8,54.3l-2.1-4.5l1.4,0.8l1.3,2.9l1.3-1.4L38,53l-2,2l0,2.2l-1.2-0.7L34.8,54.3z"/>
		</g>
		<g>
			<polygon class="st30" points="28.4,52.6 28.3,47.2 25.7,45.7 25.7,46.7 27.3,47.7 27.3,52 			"/>
		</g>
		<g>
			<polygon class="st30" points="29.1,53 29,47.6 31.7,49.2 31.7,50.3 30.1,49.4 30.1,53.7 			"/>
		</g>
	</g>
	<g>
		<g>
			<path class="st30" d="M27.3,85.6v0.6l-0.7-0.4v-0.6c-0.8-0.6-1.5-1.3-2.1-2.2l0.5-0.3c0.4,0.7,0.9,1.3,1.6,1.8v-2.4
				c-1.1-0.9-1.8-1.8-1.8-2.8c0-0.9,0.8-1.3,1.8-0.8v-0.6l0.7,0.4v0.6c0.8,0.5,1.4,1.2,1.9,2l-0.5,0.3c-0.4-0.6-0.9-1.2-1.4-1.6v2.3
				c1.2,1,2.1,1.9,2.1,3C29.4,85.9,28.7,86.3,27.3,85.6z M26.6,81.3v-2.1c-0.6-0.3-1.1,0-1.1,0.5S25.9,80.7,26.6,81.3z M28.6,84.6
				c0-0.6-0.5-1.1-1.3-1.9V85C28.2,85.4,28.6,85.1,28.6,84.6z"/>
		</g>
		<g>
			<g>
				<g>
					<path class="st30" d="M20.3,77L19.5,76c0.8-3,3.7-3.7,7.2-1.7c1.9,1.1,3.7,2.8,5.1,4.9c1,1.4,1.7,3,2.2,4.5l-0.7-0.5
						c-0.4-1.2-0.9-2.4-1.7-3.5c-1.2-1.8-2.8-3.3-4.5-4.3C23.9,73.6,21,74.3,20.3,77z"/>
				</g>
				<g>
					<g>
						<polygon class="st30" points="34.5,82 33.6,83.2 31.9,81.4 32.3,82.6 33.9,84.5 34.8,83.3 						"/>
					</g>
				</g>
			</g>
			<g>
				<g>
					<path class="st30" d="M23.2,86.6c-0.4-0.5-0.9-1.1-1.3-1.7c-1-1.5-1.7-3-2.2-4.5l0.7,0.5c0.4,1.2,0.9,2.4,1.7,3.5
						c1.2,1.8,2.8,3.3,4.5,4.3c3.3,1.9,6.1,1.2,6.8-1.6l0.8,1.1c-0.7,3-3.7,3.7-7.2,1.7C25.8,89.1,24.4,87.9,23.2,86.6z"/>
				</g>
				<g>
					<g>
						<polygon class="st30" points="19.4,82.1 20.2,80.9 21.9,82.7 21.6,81.5 19.9,79.6 19,80.8 						"/>
					</g>
				</g>
			</g>
		</g>
	</g>
</g>
</svg>
