<?xml version="1.0" encoding="utf-8"?>
<!-- Generator: Adobe Illustrator 24.0.0, SVG Export Plug-In . SVG Version: 6.00 Build 0)  -->
<svg version="1.1" id="Layer_1" xmlns="http://www.w3.org/2000/svg" xmlns:xlink="http://www.w3.org/1999/xlink" x="0px" y="0px"
	 width="140px" height="140px" viewBox="0 0 140 140" style="enable-background:new 0 0 140 140;" xml:space="preserve">
<style type="text/css">
	.st0{opacity:0.5;fill:#404041;enable-background:new    ;}
	.st1{fill:#231F20;}
	.st2{fill:#323031;}
	.st3{fill:#CCCCCC;}
	.st4{fill:#999999;}
	.st5{enable-background:new    ;}
	.st6{fill:#E6E6E6;}
	.st7{fill:#FFFFFF;}
	.st8{fill:#F5F5F5;}
	.st9{fill:#465E67;}
	.st10{fill:#C8D6DD;}
	.st11{fill:#809D99;}
	.st12{fill:#33484F;}
	.st13{fill:#BE1E2D;}
	.st14{clip-path:url(#SVGID_2_);enable-background:new    ;}
	.st15{fill:#815C24;}
	.st16{clip-path:url(#SVGID_4_);enable-background:new    ;}
	.st17{fill:#866025;}
	.st18{clip-path:url(#SVGID_6_);enable-background:new    ;}
	.st19{fill:#8F6627;}
	.st20{clip-path:url(#SVGID_8_);enable-background:new    ;}
	.st21{clip-path:url(#SVGID_10_);enable-background:new    ;}
	.st22{clip-path:url(#SVGID_12_);enable-background:new    ;}
	.st23{fill:#926728;}
	.st24{clip-path:url(#SVGID_14_);enable-background:new    ;}
	.st25{fill:#8D6427;}
	.st26{clip-path:url(#SVGID_16_);enable-background:new    ;}
	.st27{fill:#F9AE42;}
	.st28{clip-path:url(#SVGID_18_);enable-background:new    ;}
	.st29{clip-path:url(#SVGID_20_);enable-background:new    ;}
	.st30{clip-path:url(#SVGID_22_);enable-background:new    ;}
	.st31{clip-path:url(#SVGID_24_);enable-background:new    ;}
	.st32{clip-path:url(#SVGID_26_);enable-background:new    ;}
	.st33{clip-path:url(#SVGID_28_);enable-background:new    ;}
	.st34{clip-path:url(#SVGID_30_);enable-background:new    ;}
	.st35{clip-path:url(#SVGID_32_);enable-background:new    ;}
	.st36{clip-path:url(#SVGID_34_);enable-background:new    ;}
	.st37{clip-path:url(#SVGID_36_);enable-background:new    ;}
	.st38{clip-path:url(#SVGID_38_);enable-background:new    ;}
	.st39{clip-path:url(#SVGID_40_);enable-background:new    ;}
	.st40{clip-path:url(#SVGID_42_);enable-background:new    ;}
	.st41{clip-path:url(#SVGID_44_);enable-background:new    ;}
	.st42{clip-path:url(#SVGID_46_);enable-background:new    ;}
	.st43{clip-path:url(#SVGID_48_);enable-background:new    ;}
	.st44{clip-path:url(#SVGID_50_);enable-background:new    ;}
	.st45{clip-path:url(#SVGID_52_);enable-background:new    ;}
	.st46{clip-path:url(#SVGID_54_);enable-background:new    ;}
	.st47{clip-path:url(#SVGID_56_);enable-background:new    ;}
	.st48{clip-path:url(#SVGID_58_);enable-background:new    ;}
	.st49{clip-path:url(#SVGID_60_);enable-background:new    ;}
	.st50{clip-path:url(#SVGID_62_);enable-background:new    ;}
	.st51{clip-path:url(#SVGID_64_);enable-background:new    ;}
	.st52{clip-path:url(#SVGID_66_);enable-background:new    ;}
	.st53{clip-path:url(#SVGID_68_);enable-background:new    ;}
	.st54{clip-path:url(#SVGID_70_);enable-background:new    ;}
	.st55{clip-path:url(#SVGID_72_);enable-background:new    ;}
	.st56{fill:#916728;}
	.st57{clip-path:url(#SVGID_74_);enable-background:new    ;}
	.st58{clip-path:url(#SVGID_76_);enable-background:new    ;}
	.st59{clip-path:url(#SVGID_78_);enable-background:new    ;}
	.st60{fill:#7D5923;}
	.st61{clip-path:url(#SVGID_80_);enable-background:new    ;}
	.st62{fill:#7F7F7F;}
	.st63{clip-path:url(#SVGID_82_);enable-background:new    ;}
	.st64{clip-path:url(#SVGID_84_);enable-background:new    ;}
</style>
<g>
	<path class="st0" d="M6,104.4l92.3-52.8l37.2,21.2c2.8,1.7,2.8,5.8,0,7.4l-89.3,51.4c-2.3,1.3-5.2,1.3-7.5,0L5.9,112.7
		C2.7,110.8,2.7,106.2,6,104.4z"/>
	<path class="st1" d="M66.1,102.6c1.7-1,3.2-1,4.2-0.4l3.2,1.9l0,0c1.1,0.6,1.7,1.9,1.8,3.8c0,3.8-2.8,8.2-6,10.1
		c-1.9,1.1-3,1.1-4.1,0.6l-3.2-1.9c-1.1-0.6-1.7-1.9-1.7-3.8C60.2,109.1,62.8,104.5,66.1,102.6z"/>
	<g>
		<path class="st2" d="M62.8,114.9c0,0.7,0.2,1.3,0.4,1.8c0.8,1.8,2.6,2.5,4.8,2c0.6-0.1,1.2-0.4,1.8-0.7c0.8-0.4,1.6-1,2.3-1.7
			c2-1.8,3.4-4.4,3.8-6.8c0.1-0.5,0.1-1.1,0.1-1.6c0-0.6-0.2-1.1-0.3-1.5c-0.9-2.5-3.7-3.2-6.7-1.6c-3.3,1.7-5.9,5.6-6.2,9
			C62.8,114.2,62.8,114.5,62.8,114.9z M65.3,115.6c-0.3-0.4-0.4-1-0.5-1.6c0-0.4,0-0.9,0.1-1.4c0.4-2.3,2.2-4.7,4.3-5.8
			c2-1.1,3.8-0.7,4.6,0.7c0.2,0.4,0.4,0.9,0.4,1.5c0,0.5,0,1-0.1,1.6c-0.5,2.2-2.2,4.5-4.3,5.6C67.9,117.2,66.1,116.9,65.3,115.6z"
			/>
		<path class="st3" d="M64.8,114c0,0.6,0.2,1.2,0.5,1.6c0.8,1.4,2.6,1.7,4.6,0.6c2.1-1.1,3.8-3.4,4.3-5.6c0.1-0.5,0.2-1.1,0.1-1.6
			c0-0.6-0.2-1.1-0.4-1.5c-0.8-1.4-2.6-1.8-4.6-0.7c-2.2,1.1-3.9,3.5-4.3,5.8C64.9,113.1,64.8,113.5,64.8,114z M67.1,114.6
			c-0.7-0.3-1.1-0.9-1.2-1.8c0-0.2,0-0.5,0-0.8c0.2-1.6,1.4-3.3,2.9-4.1c1.4-0.7,2.6-0.4,3.2,0.6c0.1,0.3,0.2,0.6,0.2,0.9
			c0.1,0.8-0.2,1.8-0.7,2.6c-0.5,0.9-1.3,1.8-2.3,2.2C68.4,114.7,67.7,114.8,67.1,114.6z"/>
		<path class="st4" d="M65.9,112.8c0.1,0.9,0.5,1.5,1.2,1.8c0.6,0.2,1.4,0.2,2.2-0.3c0.9-0.5,1.7-1.3,2.3-2.2
			c0.5-0.8,0.8-1.8,0.7-2.6c0-0.4-0.1-0.6-0.2-0.9c-0.5-1-1.7-1.3-3.2-0.6c-1.5,0.8-2.7,2.5-2.9,4.1
			C65.9,112.3,65.9,112.5,65.9,112.8z M68.9,111c0.3-0.5,0.9-0.7,1.1-0.4c0.3,0.2,0.3,0.8-0.1,1.2c-0.3,0.5-0.9,0.7-1.1,0.4
			C68.5,112,68.6,111.5,68.9,111z"/>
		<path d="M70,111.8c-0.3,0.5-0.9,0.7-1.1,0.4c-0.3-0.2-0.3-0.8,0.1-1.2c0.3-0.5,0.9-0.7,1.1-0.4S70.3,111.3,70,111.8z"/>
	</g>
	<path class="st1" d="M111.1,76.5c1.7-1,3.2-1,4.2-0.4l3.2,1.9l0,0c1.1,0.6,1.7,1.9,1.8,3.8c0,3.8-2.8,8.2-6,10.1
		c-1.9,1.1-3,1.1-4.1,0.6l-3.2-1.9c-1.1-0.6-1.7-1.9-1.7-3.8C105.2,83.1,107.9,78.4,111.1,76.5z"/>
	<g class="st5">
		<path class="st6" d="M43,109.3c0.9-14.3,2.7-25.6,2.7-25.6l82.4-47.5l1.6,4.2l0.1,37.1l-8.1,4.7c0-0.2,0-0.4,0-0.5
			c0-0.6-0.2-1.2-0.4-1.7c-1-2.7-4-3.5-7.3-1.7c-3.6,1.9-6.4,6.1-6.7,9.8c0,0.4-0.1,0.8,0,1.2c0,0.4,0.1,0.8,0.2,1.2l-30.9,17.9
			c0-0.2,0-0.4,0-0.6c0-0.6-0.2-1.2-0.4-1.7c-1-2.7-4-3.5-7.3-1.7c-3.6,1.9-6.4,6.1-6.7,9.8c0,0.4-0.1,0.8,0,1.2
			c0,0.5,0.1,0.9,0.2,1.3L42.9,128C42.9,127.7,42.1,123.6,43,109.3z"/>
		<g>
			<path class="st7" d="M45.8,83.6L15.6,66.1c0,0-2.8,20.8-2.8,30.9s0,13.2,0,13.2s1.8,3.2,12.2,9.3c10.4,6.1,18,8.3,18,8.3
				s0-4.5,0-16C43,102.3,45.8,83.6,45.8,83.6z"/>
		</g>
		<g>
			<path class="st8" d="M128.1,36.1L97.8,18.6L15.6,66.1c0,0,2.5,3.4,12.6,9.1c10.4,5.9,17.6,8.5,17.6,8.5L128.1,36.1z"/>
		</g>
		<g>
			<path class="st6" d="M129.8,65.7v11.7l-8.1,4.7c0-0.2,0-0.4,0-0.5c0-0.6-0.2-1.2-0.4-1.7c-1-2.7-4-3.5-7.3-1.7
				c-3.6,1.9-6.4,6.1-6.7,9.8c0,0.4-0.1,0.8,0,1.2c0,0.4,0.1,0.8,0.2,1.2l-30.9,17.9c0-0.2,0-0.4,0-0.6c0-0.6-0.2-1.2-0.4-1.7
				c-1-2.7-4-3.5-7.3-1.7c-3.6,1.9-6.4,6.1-6.7,9.8c0,0.4-0.1,0.8,0,1.2c0,0.5,0.1,0.9,0.2,1.3l-19.5,11.3c0,0-0.6-2.7-0.3-11.5
				L129.8,65.7z"/>
			<path class="st6" d="M44.6,90.1c0.6-4.9,1.1-6.4,1.1-6.4l82.4-47.5l1.6,4.2v0.7L44.6,90.1z"/>
		</g>
	</g>
	<g>
		<path class="st2" d="M107.9,88.8c0,0.7,0.2,1.3,0.4,1.8c0.8,1.8,2.6,2.5,4.8,2c0.6-0.1,1.2-0.4,1.8-0.7c0.8-0.4,1.6-1,2.3-1.7
			c2-1.8,3.4-4.4,3.8-6.8c0.1-0.5,0.1-1.1,0.1-1.6c0-0.6-0.2-1.1-0.3-1.5c-0.9-2.5-3.7-3.2-6.7-1.6c-3.3,1.7-5.9,5.6-6.2,9
			C107.8,88.1,107.8,88.5,107.9,88.8z M110.3,89.5c-0.3-0.4-0.4-1-0.5-1.6c0-0.4,0-0.9,0.1-1.4c0.4-2.3,2.2-4.7,4.3-5.8
			c2-1.1,3.8-0.7,4.6,0.7c0.2,0.4,0.4,0.9,0.4,1.5c0,0.5,0,1-0.1,1.6c-0.5,2.2-2.2,4.5-4.3,5.6C112.9,91.2,111.1,90.9,110.3,89.5z"
			/>
		<path class="st3" d="M109.9,87.9c0,0.6,0.2,1.2,0.5,1.6c0.8,1.4,2.6,1.7,4.6,0.6c2.1-1.1,3.8-3.4,4.3-5.6c0.1-0.5,0.2-1.1,0.1-1.6
			c0-0.6-0.2-1.1-0.4-1.5c-0.8-1.4-2.6-1.8-4.6-0.7c-2.2,1.1-3.9,3.5-4.3,5.8C109.9,87,109.8,87.5,109.9,87.9z M112.1,88.5
			c-0.7-0.3-1.1-0.9-1.2-1.8c0-0.2,0-0.5,0-0.8c0.2-1.6,1.4-3.3,2.9-4.1c1.4-0.7,2.6-0.4,3.2,0.6c0.1,0.3,0.2,0.6,0.2,0.9
			c0.1,0.8-0.2,1.8-0.7,2.6c-0.5,0.9-1.3,1.8-2.3,2.2C113.5,88.7,112.7,88.7,112.1,88.5z"/>
		<path class="st4" d="M110.9,86.7c0.1,0.9,0.5,1.5,1.2,1.8c0.6,0.2,1.4,0.2,2.2-0.3c0.9-0.5,1.7-1.3,2.3-2.2
			c0.5-0.8,0.8-1.8,0.7-2.6c0-0.4-0.1-0.6-0.2-0.9c-0.5-1-1.7-1.3-3.2-0.6c-1.5,0.8-2.7,2.5-2.9,4.1
			C110.9,86.2,110.9,86.5,110.9,86.7z M113.9,84.9c0.3-0.5,0.9-0.7,1.1-0.4c0.3,0.2,0.3,0.8-0.1,1.2c-0.3,0.5-0.9,0.7-1.1,0.4
			C113.6,85.9,113.6,85.4,113.9,84.9z"/>
		<path d="M115,85.7c-0.3,0.5-0.9,0.7-1.1,0.4c-0.3-0.2-0.3-0.8,0.1-1.2c0.3-0.5,0.9-0.7,1.1-0.4C115.4,84.7,115.3,85.3,115,85.7z"
			/>
	</g>
	<g>
		<polygon class="st9" points="62.6,81.2 62.6,95.8 126.7,59 126.7,44.3 		"/>
	</g>
	<g>
		<path class="st9" d="M48.9,89.1c0,0-1.2,3.2-1.6,7.5c-0.4,4.4-0.2,8.2-0.2,8.2l13.5-8V82.4L48.9,89.1z"/>
	</g>
	<path class="st10" d="M39.3,122.5c0.9,0.5,1.7,0.1,1.8-0.8c0-0.4-0.1-0.8-0.3-1.2c-0.3-0.6-0.7-1.1-1.3-1.4c-0.5-0.3-1-0.3-1.3-0.1
		c-0.3,0.2-0.5,0.5-0.5,0.9C37.7,120.9,38.4,122,39.3,122.5z"/>
	<path class="st10" d="M36,120.7c0.5,0.3,0.9,0.1,1-0.4c0-0.2,0-0.4-0.1-0.6c-0.1-0.3-0.4-0.6-0.7-0.7s-0.5-0.1-0.7,0
		c-0.1,0.1-0.2,0.2-0.3,0.5C35.1,119.8,35.5,120.4,36,120.7z"/>
	<path class="st10" d="M15.6,110.2c0.9,0.5,1.7,0.1,1.8-0.8c0-0.4-0.1-0.8-0.3-1.2c-0.3-0.6-0.7-1.1-1.3-1.4c-0.5-0.3-1-0.3-1.3-0.1
		c-0.3,0.2-0.5,0.5-0.5,0.9C14,108.6,14.7,109.7,15.6,110.2z"/>
	<path class="st10" d="M19.1,112.2c0.5,0.3,0.9,0.1,1-0.4c0-0.2,0-0.4-0.1-0.6c-0.1-0.3-0.4-0.6-0.7-0.7c-0.3-0.1-0.5-0.1-0.7,0
		c-0.1,0.1-0.2,0.2-0.3,0.5S18.6,111.9,19.1,112.2z"/>
	<path class="st10" d="M42.7,116.7c0,0-8.1-0.3-17.6-5.2c-9.6-4.8-11.9-10.3-11.9-10.3s3.7,5.5,12.2,9.8
		C33.6,115.2,42.7,116.7,42.7,116.7z"/>
	<path class="st10" d="M23.5,114L23.5,114l4.2,2.4l0.3,0.2c0.1,0.1,0.2,0.2,0.2,0.3v1.6c0,0.2-0.3,0.4-0.5,0.3l-4.5-2.6
		c-0.1-0.1-0.2-0.2-0.2-0.3v-1.6C23.1,114,23.3,113.9,23.5,114z"/>
	<path class="st9" d="M16.2,67.9c0,0,2.3,3.2,12,8.7c10,5.7,16.9,8.1,16.9,8.1s-1.8,7.9-2.8,28.5c-10.8-2.3-21.3-6.3-28.7-15
		C13.6,83.8,16.2,67.9,16.2,67.9z"/>
	<path class="st11" d="M14.7,95.3l10.6-6.1V76.5l-4.4-3l-4.5,2.2c0,0-1.1,4.3-1.5,10.4C14.6,92.2,14.7,95.3,14.7,95.3z"/>
	<path class="st12" d="M42.3,110.4c0.7-14,1.7-22.2,2.3-25.9c0.3,0.1,0.5,0.2,0.5,0.2s-1.8,7.9-2.8,28.5c-10.8-2.3-21.3-6.3-28.7-15
		c0-0.9,0-1.8,0-2.7C21,104.1,31.5,108.1,42.3,110.4z"/>
	<polygon class="st13" points="129,68.3 129.8,68.3 129.8,74.6 129.8,74.6 129.4,74.6 128.6,74.1 128.6,73.9 128.6,69.1 	"/>
	<g>
		<polygon class="st12" points="77.5,72.7 77.5,87.3 78.6,86.6 78.6,72 		"/>
	</g>
	<g>
		<polygon class="st12" points="111.6,53 111.6,67.6 112.8,66.9 112.8,52.3 		"/>
	</g>
	<g>
		<polygon class="st12" points="94.1,63.1 94.1,77.7 95.2,77 95.2,62.4 		"/>
	</g>
	<g>
		<polygon class="st11" points="26.6,76.8 26.6,86.3 35.1,81.4 		"/>
	</g>
	<g>
		<path class="st12" d="M44.2,90.4c-0.6,4.5-1.4,11.8-1.9,22.8c-0.1,0-0.2,0-0.2-0.1C42.7,101.3,43.6,94.1,44.2,90.4z"/>
		<path class="st12" d="M27.9,79.1c-9.7-5.5-12-8.7-12-8.7S15.7,71,15.6,72c0.4-2.6,0.6-4.1,0.6-4.1s2.3,3.2,12,8.7
			c10,5.7,16.9,8.1,16.9,8.1s-0.2,0.8-0.5,2.5C43.8,86.9,37.2,84.4,27.9,79.1z"/>
	</g>
	<g>
		<path class="st10" d="M107.4,36.1l-0.4-0.4l-9.4-5.5l-12.4,7.1l-0.5,0.4c0,0,0.7,1,4.1,2.9s5.8,2.8,5.8,2.8L107.4,36.1z"/>
	</g>
	<g>
		<path class="st7" d="M106.7,35.8l-9.1-5.3l-12.2,7c0,0,0.8,1,3.9,2.8c3.2,1.8,5.2,2.5,5.2,2.5L106.7,35.8z"/>
	</g>
	<g>
		<path class="st10" d="M64.7,60.1l-0.4-0.4l-9.4-5.5l-12.4,7.1L42,61.7c0,0,0.7,1,4.1,2.9c3.4,1.9,5.8,2.8,5.8,2.8L64.7,60.1z"/>
	</g>
	<g>
		<path class="st7" d="M64,59.8l-9.1-5.3l-12.2,7c0,0,0.8,1,3.9,2.8c3.2,1.8,5.2,2.5,5.2,2.5L64,59.8z"/>
	</g>
</g>
<g>
	<g class="st5">
		<g class="st5">
			<defs>
				<path id="SVGID_1_" class="st5" d="M84.4,12.5l-3.9-2.2c0,0-0.1,0-0.1,0l3.9,2.2C84.4,12.5,84.4,12.5,84.4,12.5z"/>
			</defs>
			<clipPath id="SVGID_2_">
				<use xlink:href="#SVGID_1_"  style="overflow:visible;"/>
			</clipPath>
			<g class="st14">
				<path class="st15" d="M84.4,12.5l-3.9-2.2c0,0-0.1,0-0.1,0l3.9,2.2C84.4,12.5,84.4,12.5,84.4,12.5"/>
			</g>
		</g>
		<g class="st5">
			<defs>
				<path id="SVGID_3_" class="st5" d="M73.7,20.1l3.9,2.2c0,0-0.1-0.1-0.1-0.2l-3.9-2.2C73.7,20,73.7,20,73.7,20.1z"/>
			</defs>
			<clipPath id="SVGID_4_">
				<use xlink:href="#SVGID_3_"  style="overflow:visible;"/>
			</clipPath>
			<g class="st16">
				<path class="st17" d="M77.5,22.1l-3.9-2.2c0,0,0,0,0,0L77.5,22.1C77.5,22.2,77.5,22.2,77.5,22.1"/>
				<path class="st15" d="M77.5,22.2l-3.9-2.2c0,0.1,0,0.1,0.1,0.1l3.9,2.2C77.6,22.3,77.5,22.2,77.5,22.2"/>
			</g>
		</g>
		<g>
			<polygon class="st17" points="84.3,12.5 80.5,10.3 77.9,11.4 81.7,13.6 			"/>
		</g>
		<g class="st5">
			<defs>
				<path id="SVGID_5_" class="st5" d="M77.8,11.4l3.9,2.2c0,0,0.1,0,0.1,0l-3.9-2.2C77.8,11.4,77.8,11.4,77.8,11.4z"/>
			</defs>
			<clipPath id="SVGID_6_">
				<use xlink:href="#SVGID_5_"  style="overflow:visible;"/>
			</clipPath>
			<g class="st18">
				<path class="st15" d="M81.7,13.6l-3.9-2.2c0,0-0.1,0-0.1,0l3.9,2.2C81.6,13.6,81.7,13.6,81.7,13.6"/>
			</g>
		</g>
		<g>
			<polygon class="st19" points="78,18.9 74.1,16.7 73.7,19.9 77.5,22.1 			"/>
		</g>
		<g class="st5">
			<defs>
				<path id="SVGID_7_" class="st5" d="M77.9,18.7l-3.9-2.2c0,0,0.1,0.1,0.1,0.2l3.9,2.2C78,18.8,78,18.8,77.9,18.7z"/>
			</defs>
			<clipPath id="SVGID_8_">
				<use xlink:href="#SVGID_7_"  style="overflow:visible;"/>
			</clipPath>
			<g class="st20">
				<path class="st15" d="M77.9,18.7l-3.9-2.2c0,0,0.1,0.1,0.1,0.1l3.9,2.2C78,18.8,77.9,18.8,77.9,18.7"/>
				<path class="st17" d="M78,18.9l-3.9-2.2c0,0,0,0,0,0L78,18.9C78,18.9,78,18.9,78,18.9"/>
			</g>
		</g>
		<g class="st5">
			<defs>
				<path id="SVGID_9_" class="st5" d="M78.9,15.1L75,12.9c0,0.1-0.1,0.2-0.2,0.2l3.9,2.2C78.8,15.3,78.9,15.2,78.9,15.1z"/>
			</defs>
			<clipPath id="SVGID_10_">
				<use xlink:href="#SVGID_9_"  style="overflow:visible;"/>
			</clipPath>
			<g class="st21">
				<path class="st17" d="M78.9,15.1L75,12.9c0,0.1-0.1,0.2-0.2,0.2l3.9,2.2C78.8,15.3,78.9,15.2,78.9,15.1"/>
			</g>
		</g>
		<g class="st5">
			<defs>
				<path id="SVGID_11_" class="st5" d="M80.4,11.5l-3.9-2.2c0,0-0.1,0-0.1,0l3.9,2.2C80.3,11.5,80.3,11.5,80.4,11.5z"/>
			</defs>
			<clipPath id="SVGID_12_">
				<use xlink:href="#SVGID_11_"  style="overflow:visible;"/>
			</clipPath>
			<g class="st22">
				<path class="st15" d="M80.4,11.5l-3.9-2.2c0,0-0.1,0-0.1,0l3.9,2.2C80.3,11.5,80.3,11.5,80.4,11.5"/>
			</g>
		</g>
		<g>
			<polygon class="st23" points="80,11.7 76.2,9.5 75,12.9 78.9,15.1 			"/>
		</g>
		<g class="st5">
			<defs>
				<path id="SVGID_13_" class="st5" d="M80.2,11.5l-3.9-2.2c-0.1,0-0.1,0.1-0.2,0.2l3.9,2.2C80.1,11.6,80.1,11.5,80.2,11.5z"/>
			</defs>
			<clipPath id="SVGID_14_">
				<use xlink:href="#SVGID_13_"  style="overflow:visible;"/>
			</clipPath>
			<g class="st24">
				<path class="st15" d="M80.2,11.5l-3.9-2.2c0,0,0,0,0,0L80.2,11.5C80.2,11.5,80.2,11.5,80.2,11.5"/>
				<path class="st17" d="M80.2,11.5l-3.9-2.2c-0.1,0-0.1,0.1-0.2,0.2l3.9,2.2C80.1,11.6,80.1,11.6,80.2,11.5"/>
			</g>
		</g>
		<g>
			<polygon class="st25" points="78.7,15.3 74.9,13.1 72.3,15 76.1,17.3 			"/>
		</g>
		<g class="st5">
			<defs>
				<path id="SVGID_15_" class="st5" d="M76.1,17.3L72.3,15c-0.2,0.1-0.2,0.4-0.1,0.5l3.9,2.2C75.9,17.7,76,17.4,76.1,17.3z"/>
			</defs>
			<clipPath id="SVGID_16_">
				<use xlink:href="#SVGID_15_"  style="overflow:visible;"/>
			</clipPath>
			<g class="st26">
				<path class="st17" d="M76.1,17.3L72.3,15c-0.1,0.1-0.2,0.2-0.2,0.3l3.9,2.2C76,17.5,76,17.3,76.1,17.3"/>
				<path class="st15" d="M76,17.6l-3.9-2.2c0,0.1,0,0.1,0.1,0.1l3.9,2.2C76,17.7,76,17.7,76,17.6"/>
			</g>
		</g>
		<g>
			<path class="st27" d="M80.2,11.5c-0.1,0-0.1,0.1-0.2,0.2l-1.2,3.4c0,0.1-0.1,0.2-0.2,0.2l-2.6,1.9c-0.2,0.1-0.2,0.4-0.1,0.5
				l1.9,1c0,0,0.1,0.1,0.1,0.2l-0.4,3.2c0,0.2,0.1,0.2,0.2,0.2c0,0,0.1,0,0.1-0.1l2.3-2.7c0,0,0.1-0.1,0.1-0.1s0.1,0,0.1,0l2.3,0.1
				c0,0,0.1,0,0.1,0c0.1-0.1,0.2-0.3,0.2-0.4l-0.5-2.7c0-0.1,0-0.2,0.1-0.2l1.9-3.2c0.1-0.2,0.1-0.4-0.1-0.3l-2.6,1.1
				c-0.1,0-0.1,0-0.2,0l-1.2-2C80.4,11.5,80.3,11.5,80.2,11.5z"/>
		</g>
	</g>
	<g class="st5">
		<g class="st5">
			<defs>
				<path id="SVGID_17_" class="st5" d="M72,19.7l-3.9-2.2c0,0-0.1,0-0.1,0l3.9,2.2C72,19.7,72,19.7,72,19.7z"/>
			</defs>
			<clipPath id="SVGID_18_">
				<use xlink:href="#SVGID_17_"  style="overflow:visible;"/>
			</clipPath>
			<g class="st28">
				<path class="st15" d="M72,19.7l-3.9-2.2c0,0-0.1,0-0.1,0l3.9,2.2C72,19.7,72,19.7,72,19.7"/>
			</g>
		</g>
		<g class="st5">
			<defs>
				<path id="SVGID_19_" class="st5" d="M61.3,27.2l3.9,2.2c0,0-0.1-0.1-0.1-0.2l-3.9-2.2C61.3,27.1,61.3,27.2,61.3,27.2z"/>
			</defs>
			<clipPath id="SVGID_20_">
				<use xlink:href="#SVGID_19_"  style="overflow:visible;"/>
			</clipPath>
			<g class="st29">
				<path class="st17" d="M65.1,29.3l-3.9-2.2c0,0,0,0,0,0L65.1,29.3C65.1,29.3,65.1,29.3,65.1,29.3"/>
				<path class="st15" d="M65.1,29.3l-3.9-2.2c0,0.1,0,0.1,0.1,0.1l3.9,2.2C65.2,29.4,65.1,29.4,65.1,29.3"/>
			</g>
		</g>
		<g>
			<polygon class="st17" points="71.9,19.7 68.1,17.5 65.5,18.5 69.3,20.8 			"/>
		</g>
		<g class="st5">
			<defs>
				<path id="SVGID_21_" class="st5" d="M65.4,18.5l3.9,2.2c0,0,0.1,0,0.1,0l-3.9-2.2C65.4,18.5,65.4,18.5,65.4,18.5z"/>
			</defs>
			<clipPath id="SVGID_22_">
				<use xlink:href="#SVGID_21_"  style="overflow:visible;"/>
			</clipPath>
			<g class="st30">
				<path class="st15" d="M69.3,20.8l-3.9-2.2c0,0-0.1,0-0.1,0l3.9,2.2C69.2,20.8,69.3,20.8,69.3,20.8"/>
			</g>
		</g>
		<g>
			<polygon class="st19" points="65.6,26.1 61.7,23.8 61.3,27.1 65.1,29.3 			"/>
		</g>
		<g class="st5">
			<defs>
				<path id="SVGID_23_" class="st5" d="M65.5,25.9l-3.9-2.2c0,0,0.1,0.1,0.1,0.2l3.9,2.2C65.6,26,65.6,25.9,65.5,25.9z"/>
			</defs>
			<clipPath id="SVGID_24_">
				<use xlink:href="#SVGID_23_"  style="overflow:visible;"/>
			</clipPath>
			<g class="st31">
				<path class="st15" d="M65.5,25.9l-3.9-2.2c0,0,0.1,0.1,0.1,0.1l3.9,2.2C65.6,26,65.6,25.9,65.5,25.9"/>
				<path class="st17" d="M65.6,26l-3.9-2.2c0,0,0,0,0,0L65.6,26C65.6,26.1,65.6,26,65.6,26"/>
			</g>
		</g>
		<g class="st5">
			<defs>
				<path id="SVGID_25_" class="st5" d="M66.5,22.3L62.6,20c0,0.1-0.1,0.2-0.2,0.2l3.9,2.2C66.4,22.4,66.5,22.4,66.5,22.3z"/>
			</defs>
			<clipPath id="SVGID_26_">
				<use xlink:href="#SVGID_25_"  style="overflow:visible;"/>
			</clipPath>
			<g class="st32">
				<path class="st17" d="M66.5,22.3L62.6,20c0,0.1-0.1,0.2-0.2,0.2l3.9,2.2C66.4,22.4,66.5,22.4,66.5,22.3"/>
			</g>
		</g>
		<g class="st5">
			<defs>
				<path id="SVGID_27_" class="st5" d="M68,18.6l-3.9-2.2c0,0-0.1,0-0.1,0l3.9,2.2C67.9,18.6,67.9,18.6,68,18.6z"/>
			</defs>
			<clipPath id="SVGID_28_">
				<use xlink:href="#SVGID_27_"  style="overflow:visible;"/>
			</clipPath>
			<g class="st33">
				<path class="st15" d="M68,18.6l-3.9-2.2c0,0-0.1,0-0.1,0l3.9,2.2C67.9,18.6,67.9,18.6,68,18.6"/>
			</g>
		</g>
		<g>
			<polygon class="st23" points="67.6,18.9 63.8,16.7 62.6,20 66.5,22.3 			"/>
		</g>
		<g class="st5">
			<defs>
				<path id="SVGID_29_" class="st5" d="M67.8,18.7L64,16.4c-0.1,0-0.1,0.1-0.2,0.2l3.9,2.2C67.7,18.8,67.8,18.7,67.8,18.7z"/>
			</defs>
			<clipPath id="SVGID_30_">
				<use xlink:href="#SVGID_29_"  style="overflow:visible;"/>
			</clipPath>
			<g class="st34">
				<path class="st15" d="M67.8,18.7L64,16.4c0,0,0,0,0,0L67.8,18.7C67.8,18.7,67.8,18.7,67.8,18.7"/>
				<path class="st17" d="M67.8,18.7l-3.9-2.2c-0.1,0-0.1,0.1-0.2,0.2l3.9,2.2C67.7,18.8,67.7,18.7,67.8,18.7"/>
			</g>
		</g>
		<g>
			<polygon class="st25" points="66.3,22.5 62.5,20.2 59.9,22.2 63.7,24.4 			"/>
		</g>
		<g class="st5">
			<defs>
				<path id="SVGID_31_" class="st5" d="M63.7,24.4l-3.9-2.2c-0.2,0.1-0.2,0.4-0.1,0.5l3.9,2.2C63.5,24.8,63.6,24.5,63.7,24.4z"/>
			</defs>
			<clipPath id="SVGID_32_">
				<use xlink:href="#SVGID_31_"  style="overflow:visible;"/>
			</clipPath>
			<g class="st35">
				<path class="st17" d="M63.7,24.4l-3.9-2.2c-0.1,0.1-0.2,0.2-0.2,0.3l3.9,2.2C63.6,24.6,63.6,24.5,63.7,24.4"/>
				<path class="st15" d="M63.6,24.8l-3.9-2.2c0,0.1,0,0.1,0.1,0.1l3.9,2.2C63.6,24.9,63.6,24.8,63.6,24.8"/>
			</g>
		</g>
		<g>
			<path class="st27" d="M67.8,18.7c-0.1,0-0.1,0.1-0.2,0.2l-1.2,3.4c0,0.1-0.1,0.2-0.2,0.2l-2.6,1.9c-0.2,0.1-0.2,0.4-0.1,0.5
				l1.9,1c0,0,0.1,0.1,0.1,0.2l-0.4,3.2c0,0.2,0.1,0.2,0.2,0.2c0,0,0.1,0,0.1-0.1l2.3-2.7c0,0,0.1-0.1,0.1-0.1s0.1,0,0.1,0l2.3,0.1
				c0,0,0.1,0,0.1,0c0.1-0.1,0.2-0.3,0.2-0.4l-0.5-2.7c0-0.1,0-0.2,0.1-0.2L72,20c0.1-0.2,0.1-0.4-0.1-0.3l-2.6,1.1
				c-0.1,0-0.1,0-0.2,0l-1.2-2C68,18.6,67.9,18.6,67.8,18.7z"/>
		</g>
	</g>
	<g class="st5">
		<g class="st5">
			<defs>
				<path id="SVGID_33_" class="st5" d="M59.2,27.1l-3.9-2.2c0,0-0.1,0-0.1,0l3.9,2.2C59.2,27.1,59.2,27.1,59.2,27.1z"/>
			</defs>
			<clipPath id="SVGID_34_">
				<use xlink:href="#SVGID_33_"  style="overflow:visible;"/>
			</clipPath>
			<g class="st36">
				<path class="st15" d="M59.2,27.1l-3.9-2.2c0,0-0.1,0-0.1,0l3.9,2.2C59.2,27.1,59.2,27.1,59.2,27.1"/>
			</g>
		</g>
		<g class="st5">
			<defs>
				<path id="SVGID_35_" class="st5" d="M48.6,34.6l3.9,2.2c0,0-0.1-0.1-0.1-0.2l-3.9-2.2C48.5,34.5,48.5,34.6,48.6,34.6z"/>
			</defs>
			<clipPath id="SVGID_36_">
				<use xlink:href="#SVGID_35_"  style="overflow:visible;"/>
			</clipPath>
			<g class="st37">
				<path class="st17" d="M52.4,36.7l-3.9-2.2c0,0,0,0,0,0L52.4,36.7C52.3,36.7,52.3,36.7,52.4,36.7"/>
				<path class="st15" d="M52.3,36.7l-3.9-2.2c0,0.1,0,0.1,0.1,0.1l3.9,2.2C52.4,36.8,52.3,36.8,52.3,36.7"/>
			</g>
		</g>
		<g>
			<polygon class="st17" points="59.1,27.1 55.3,24.8 52.7,25.9 56.5,28.1 			"/>
		</g>
		<g class="st5">
			<defs>
				<path id="SVGID_37_" class="st5" d="M52.6,25.9l3.9,2.2c0,0,0.1,0,0.1,0l-3.9-2.2C52.6,25.9,52.6,25.9,52.6,25.9z"/>
			</defs>
			<clipPath id="SVGID_38_">
				<use xlink:href="#SVGID_37_"  style="overflow:visible;"/>
			</clipPath>
			<g class="st38">
				<path class="st15" d="M56.5,28.1l-3.9-2.2c0,0-0.1,0-0.1,0l3.9,2.2C56.5,28.2,56.5,28.2,56.5,28.1"/>
			</g>
		</g>
		<g>
			<polygon class="st19" points="52.8,33.5 48.9,31.2 48.5,34.4 52.4,36.7 			"/>
		</g>
		<g class="st5">
			<defs>
				<path id="SVGID_39_" class="st5" d="M52.7,33.3L48.9,31c0,0,0.1,0.1,0.1,0.2l3.9,2.2C52.8,33.4,52.8,33.3,52.7,33.3z"/>
			</defs>
			<clipPath id="SVGID_40_">
				<use xlink:href="#SVGID_39_"  style="overflow:visible;"/>
			</clipPath>
			<g class="st39">
				<path class="st15" d="M52.7,33.3L48.9,31c0,0,0.1,0.1,0.1,0.1l3.9,2.2C52.8,33.4,52.8,33.3,52.7,33.3"/>
				<path class="st17" d="M52.8,33.4l-3.9-2.2c0,0,0,0,0,0L52.8,33.4C52.8,33.4,52.8,33.4,52.8,33.4"/>
			</g>
		</g>
		<g class="st5">
			<defs>
				<path id="SVGID_41_" class="st5" d="M53.7,29.6l-3.9-2.2c0,0.1-0.1,0.2-0.2,0.2l3.9,2.2C53.6,29.8,53.7,29.7,53.7,29.6z"/>
			</defs>
			<clipPath id="SVGID_42_">
				<use xlink:href="#SVGID_41_"  style="overflow:visible;"/>
			</clipPath>
			<g class="st40">
				<path class="st17" d="M53.7,29.6l-3.9-2.2c0,0.1-0.1,0.2-0.2,0.2l3.9,2.2C53.6,29.8,53.7,29.7,53.7,29.6"/>
			</g>
		</g>
		<g class="st5">
			<defs>
				<path id="SVGID_43_" class="st5" d="M55.2,26l-3.9-2.2c0,0-0.1,0-0.1,0L55,26C55.1,26,55.1,26,55.2,26z"/>
			</defs>
			<clipPath id="SVGID_44_">
				<use xlink:href="#SVGID_43_"  style="overflow:visible;"/>
			</clipPath>
			<g class="st41">
				<path class="st15" d="M55.2,26l-3.9-2.2c0,0-0.1,0-0.1,0L55,26C55.1,26,55.1,26,55.2,26"/>
			</g>
		</g>
		<g>
			<polygon class="st23" points="54.9,26.3 51,24 49.8,27.4 53.7,29.6 			"/>
		</g>
		<g class="st5">
			<defs>
				<path id="SVGID_45_" class="st5" d="M55,26l-3.9-2.2c-0.1,0-0.1,0.1-0.2,0.2l3.9,2.2C54.9,26.2,55,26.1,55,26z"/>
			</defs>
			<clipPath id="SVGID_46_">
				<use xlink:href="#SVGID_45_"  style="overflow:visible;"/>
			</clipPath>
			<g class="st42">
				<path class="st15" d="M55,26l-3.9-2.2c0,0,0,0,0,0L55,26C55,26.1,55,26,55,26"/>
				<path class="st17" d="M55,26.1l-3.9-2.2c-0.1,0-0.1,0.1-0.2,0.2l3.9,2.2C54.9,26.2,54.9,26.1,55,26.1"/>
			</g>
		</g>
		<g>
			<polygon class="st25" points="53.5,29.9 49.7,27.6 47.1,29.6 51,31.8 			"/>
		</g>
		<g class="st5">
			<defs>
				<path id="SVGID_47_" class="st5" d="M51,31.8l-3.9-2.2C46.9,29.7,46.9,30,47,30l3.9,2.2C50.7,32.2,50.8,31.9,51,31.8z"/>
			</defs>
			<clipPath id="SVGID_48_">
				<use xlink:href="#SVGID_47_"  style="overflow:visible;"/>
			</clipPath>
			<g class="st43">
				<path class="st17" d="M51,31.8l-3.9-2.2c-0.1,0.1-0.2,0.2-0.2,0.3l3.9,2.2C50.8,32,50.8,31.9,51,31.8"/>
				<path class="st15" d="M50.8,32.1l-3.9-2.2c0,0.1,0,0.1,0.1,0.1l3.9,2.2C50.8,32.2,50.8,32.2,50.8,32.1"/>
			</g>
		</g>
		<g>
			<path class="st27" d="M55,26c-0.1,0-0.1,0.1-0.2,0.2l-1.2,3.4c0,0.1-0.1,0.2-0.2,0.2L51,31.8c-0.2,0.1-0.2,0.4-0.1,0.5l1.9,1
				c0,0,0.1,0.1,0.1,0.2l-0.4,3.2c0,0.2,0.1,0.2,0.2,0.2c0,0,0.1,0,0.1-0.1L55,34c0,0,0.1-0.1,0.1-0.1c0,0,0.1,0,0.1,0l2.3,0.1
				c0,0,0.1,0,0.1,0c0.1-0.1,0.2-0.3,0.2-0.4l-0.5-2.7c0-0.1,0-0.2,0.1-0.2l1.9-3.2c0.1-0.2,0.1-0.4-0.1-0.3l-2.6,1.1
				c-0.1,0-0.1,0-0.2,0l-1.2-2C55.2,26,55.1,26,55,26z"/>
		</g>
	</g>
	<g class="st5">
		<g class="st5">
			<defs>
				<path id="SVGID_49_" class="st5" d="M46.9,34.2L43,32c0,0-0.1,0-0.1,0l3.9,2.2C46.8,34.2,46.8,34.2,46.9,34.2z"/>
			</defs>
			<clipPath id="SVGID_50_">
				<use xlink:href="#SVGID_49_"  style="overflow:visible;"/>
			</clipPath>
			<g class="st44">
				<path class="st15" d="M46.9,34.2L43,32c0,0-0.1,0-0.1,0l3.9,2.2C46.8,34.2,46.8,34.2,46.9,34.2"/>
			</g>
		</g>
		<g class="st5">
			<defs>
				<path id="SVGID_51_" class="st5" d="M36.2,41.8L40,44c0,0-0.1-0.1-0.1-0.2l-3.9-2.2C36.1,41.7,36.1,41.7,36.2,41.8z"/>
			</defs>
			<clipPath id="SVGID_52_">
				<use xlink:href="#SVGID_51_"  style="overflow:visible;"/>
			</clipPath>
			<g class="st45">
				<path class="st17" d="M40,43.8l-3.9-2.2c0,0,0,0,0,0L40,43.8C40,43.9,40,43.8,40,43.8"/>
				<path class="st15" d="M40,43.9l-3.9-2.2c0,0.1,0,0.1,0.1,0.1L40,44C40,44,40,43.9,40,43.9"/>
			</g>
		</g>
		<g>
			<polygon class="st17" points="46.7,34.2 42.9,32 40.3,33.1 44.1,35.3 			"/>
		</g>
		<g class="st5">
			<defs>
				<path id="SVGID_53_" class="st5" d="M40.2,33.1l3.9,2.2c0,0,0.1,0,0.1,0l-3.9-2.2C40.3,33.1,40.2,33.1,40.2,33.1z"/>
			</defs>
			<clipPath id="SVGID_54_">
				<use xlink:href="#SVGID_53_"  style="overflow:visible;"/>
			</clipPath>
			<g class="st46">
				<path class="st15" d="M44.1,35.3l-3.9-2.2c0,0-0.1,0-0.1,0l3.9,2.2C44.1,35.3,44.1,35.3,44.1,35.3"/>
			</g>
		</g>
		<g>
			<polygon class="st19" points="40.4,40.6 36.5,38.4 36.1,41.6 40,43.8 			"/>
		</g>
		<g class="st5">
			<defs>
				<path id="SVGID_55_" class="st5" d="M40.3,40.4l-3.9-2.2c0,0,0.1,0.1,0.1,0.2l3.9,2.2C40.4,40.5,40.4,40.5,40.3,40.4z"/>
			</defs>
			<clipPath id="SVGID_56_">
				<use xlink:href="#SVGID_55_"  style="overflow:visible;"/>
			</clipPath>
			<g class="st47">
				<path class="st15" d="M40.3,40.4l-3.9-2.2c0,0,0.1,0.1,0.1,0.1l3.9,2.2C40.4,40.5,40.4,40.5,40.3,40.4"/>
				<path class="st17" d="M40.4,40.6l-3.9-2.2c0,0,0,0,0,0L40.4,40.6C40.4,40.6,40.4,40.6,40.4,40.6"/>
			</g>
		</g>
		<g class="st5">
			<defs>
				<path id="SVGID_57_" class="st5" d="M41.3,36.8l-3.9-2.2c0,0.1-0.1,0.2-0.2,0.2l3.9,2.2C41.2,37,41.3,36.9,41.3,36.8z"/>
			</defs>
			<clipPath id="SVGID_58_">
				<use xlink:href="#SVGID_57_"  style="overflow:visible;"/>
			</clipPath>
			<g class="st48">
				<path class="st17" d="M41.3,36.8l-3.9-2.2c0,0.1-0.1,0.2-0.2,0.2l3.9,2.2C41.2,37,41.3,36.9,41.3,36.8"/>
			</g>
		</g>
		<g class="st5">
			<defs>
				<path id="SVGID_59_" class="st5" d="M42.8,33.2l-3.9-2.2c0,0-0.1,0-0.1,0l3.9,2.2C42.7,33.2,42.7,33.2,42.8,33.2z"/>
			</defs>
			<clipPath id="SVGID_60_">
				<use xlink:href="#SVGID_59_"  style="overflow:visible;"/>
			</clipPath>
			<g class="st49">
				<path class="st15" d="M42.8,33.2l-3.9-2.2c0,0-0.1,0-0.1,0l3.9,2.2C42.7,33.2,42.7,33.2,42.8,33.2"/>
			</g>
		</g>
		<g>
			<polygon class="st23" points="42.5,33.4 38.6,31.2 37.5,34.6 41.3,36.8 			"/>
		</g>
		<g class="st5">
			<defs>
				<path id="SVGID_61_" class="st5" d="M42.6,33.2L38.8,31c-0.1,0-0.1,0.1-0.2,0.2l3.9,2.2C42.5,33.3,42.6,33.2,42.6,33.2z"/>
			</defs>
			<clipPath id="SVGID_62_">
				<use xlink:href="#SVGID_61_"  style="overflow:visible;"/>
			</clipPath>
			<g class="st50">
				<path class="st15" d="M42.6,33.2L38.8,31c0,0,0,0,0,0L42.6,33.2C42.6,33.2,42.6,33.2,42.6,33.2"/>
				<path class="st17" d="M42.6,33.2L38.8,31c-0.1,0-0.1,0.1-0.2,0.2l3.9,2.2C42.5,33.3,42.6,33.3,42.6,33.2"/>
			</g>
		</g>
		<g>
			<polygon class="st25" points="41.2,37 37.3,34.8 34.7,36.7 38.6,39 			"/>
		</g>
		<g class="st5">
			<defs>
				<path id="SVGID_63_" class="st5" d="M38.6,39l-3.9-2.2c-0.2,0.1-0.2,0.4-0.1,0.5l3.9,2.2C38.3,39.4,38.4,39.1,38.6,39z"/>
			</defs>
			<clipPath id="SVGID_64_">
				<use xlink:href="#SVGID_63_"  style="overflow:visible;"/>
			</clipPath>
			<g class="st51">
				<path class="st17" d="M38.6,39l-3.9-2.2c-0.1,0.1-0.2,0.2-0.2,0.3l3.9,2.2C38.4,39.2,38.5,39,38.6,39"/>
				<path class="st15" d="M38.4,39.3l-3.9-2.2c0,0.1,0,0.1,0.1,0.1l3.9,2.2C38.4,39.4,38.4,39.3,38.4,39.3"/>
			</g>
		</g>
		<g>
			<path class="st27" d="M42.6,33.2c-0.1,0-0.1,0.1-0.2,0.2l-1.2,3.4c0,0.1-0.1,0.2-0.2,0.2L38.6,39c-0.2,0.1-0.2,0.4-0.1,0.5l1.9,1
				c0,0,0.1,0.1,0.1,0.2L40,43.8c0,0.2,0.1,0.2,0.2,0.2c0,0,0.1,0,0.1-0.1l2.3-2.7c0,0,0.1-0.1,0.1-0.1c0,0,0.1,0,0.1,0l2.3,0.1
				c0,0,0.1,0,0.1,0c0.1-0.1,0.2-0.3,0.2-0.4L44.9,38c0-0.1,0-0.2,0.1-0.2l1.9-3.2c0.1-0.2,0.1-0.4-0.1-0.3l-2.6,1.1
				c-0.1,0-0.1,0-0.2,0l-1.2-2C42.8,33.2,42.7,33.2,42.6,33.2z"/>
		</g>
	</g>
	<g class="st5">
		<g class="st5">
			<defs>
				<path id="SVGID_65_" class="st5" d="M34.1,41.6l-3.9-2.2c0,0-0.1,0-0.1,0l3.9,2.2C34,41.6,34,41.6,34.1,41.6z"/>
			</defs>
			<clipPath id="SVGID_66_">
				<use xlink:href="#SVGID_65_"  style="overflow:visible;"/>
			</clipPath>
			<g class="st52">
				<path class="st15" d="M34.1,41.6l-3.9-2.2c0,0-0.1,0-0.1,0l3.9,2.2C34,41.6,34,41.6,34.1,41.6"/>
			</g>
		</g>
		<g class="st5">
			<defs>
				<path id="SVGID_67_" class="st5" d="M23.4,49.2l3.9,2.2c0,0-0.1-0.1-0.1-0.2L23.3,49C23.3,49.1,23.3,49.1,23.4,49.2z"/>
			</defs>
			<clipPath id="SVGID_68_">
				<use xlink:href="#SVGID_67_"  style="overflow:visible;"/>
			</clipPath>
			<g class="st53">
				<path class="st17" d="M27.2,51.2L23.3,49c0,0,0,0,0,0L27.2,51.2C27.2,51.3,27.2,51.2,27.2,51.2"/>
				<path class="st15" d="M27.2,51.3L23.3,49c0,0.1,0,0.1,0.1,0.1l3.9,2.2C27.2,51.4,27.2,51.3,27.2,51.3"/>
			</g>
		</g>
		<g>
			<polygon class="st17" points="33.9,41.6 30.1,39.4 27.5,40.4 31.4,42.7 			"/>
		</g>
		<g class="st5">
			<defs>
				<path id="SVGID_69_" class="st5" d="M27.4,40.4l3.9,2.2c0,0,0.1,0,0.1,0l-3.9-2.2C27.5,40.5,27.4,40.5,27.4,40.4z"/>
			</defs>
			<clipPath id="SVGID_70_">
				<use xlink:href="#SVGID_69_"  style="overflow:visible;"/>
			</clipPath>
			<g class="st54">
				<path class="st15" d="M31.4,42.7l-3.9-2.2c0,0-0.1,0-0.1,0l3.9,2.2C31.3,42.7,31.3,42.7,31.4,42.7"/>
			</g>
		</g>
		<g>
			<polygon class="st19" points="27.6,48 23.7,45.8 23.3,49 27.2,51.2 			"/>
		</g>
		<g class="st5">
			<defs>
				<path id="SVGID_71_" class="st5" d="M27.5,47.8l-3.9-2.2c0,0,0.1,0.1,0.1,0.2l3.9,2.2C27.6,47.9,27.6,47.9,27.5,47.8z"/>
			</defs>
			<clipPath id="SVGID_72_">
				<use xlink:href="#SVGID_71_"  style="overflow:visible;"/>
			</clipPath>
			<g class="st55">
				<path class="st15" d="M27.5,47.8l-3.9-2.2c0,0,0.1,0.1,0.1,0.1l3.9,2.2C27.6,47.9,27.6,47.8,27.5,47.8"/>
				<path class="st17" d="M27.6,47.9l-3.9-2.2c0,0,0,0,0,0L27.6,47.9C27.6,48,27.6,48,27.6,47.9"/>
			</g>
		</g>
		<g>
			<polygon class="st56" points="28.4,44.4 24.5,42.2 23.7,45.6 27.5,47.8 			"/>
		</g>
		<g class="st5">
			<defs>
				<path id="SVGID_73_" class="st5" d="M28.5,44.2L24.7,42c0,0.1-0.1,0.2-0.2,0.2l3.9,2.2C28.4,44.4,28.5,44.3,28.5,44.2z"/>
			</defs>
			<clipPath id="SVGID_74_">
				<use xlink:href="#SVGID_73_"  style="overflow:visible;"/>
			</clipPath>
			<g class="st57">
				<path class="st17" d="M28.5,44.2L24.7,42c0,0.1-0.1,0.2-0.2,0.2l3.9,2.2C28.4,44.4,28.5,44.3,28.5,44.2"/>
			</g>
		</g>
		<g class="st5">
			<defs>
				<path id="SVGID_75_" class="st5" d="M30,40.6l-3.9-2.2c0,0-0.1,0-0.1,0l3.9,2.2C29.9,40.6,30,40.5,30,40.6z"/>
			</defs>
			<clipPath id="SVGID_76_">
				<use xlink:href="#SVGID_75_"  style="overflow:visible;"/>
			</clipPath>
			<g class="st58">
				<path class="st15" d="M30,40.6l-3.9-2.2c0,0-0.1,0-0.1,0l3.9,2.2C29.9,40.6,30,40.5,30,40.6"/>
			</g>
		</g>
		<g>
			<polygon class="st23" points="29.7,40.8 25.8,38.6 24.7,42 28.5,44.2 			"/>
		</g>
		<g class="st5">
			<defs>
				<path id="SVGID_77_" class="st5" d="M29.9,40.6L26,38.3c-0.1,0-0.1,0.1-0.2,0.2l3.9,2.2C29.7,40.7,29.8,40.6,29.9,40.6z"/>
			</defs>
			<clipPath id="SVGID_78_">
				<use xlink:href="#SVGID_77_"  style="overflow:visible;"/>
			</clipPath>
			<g class="st59">
				<path class="st15" d="M29.9,40.6L26,38.3c0,0,0,0,0,0L29.9,40.6C29.8,40.6,29.8,40.6,29.9,40.6"/>
				<path class="st17" d="M29.8,40.6L26,38.4c-0.1,0-0.1,0.1-0.2,0.2l3.9,2.2C29.7,40.7,29.8,40.6,29.8,40.6"/>
			</g>
		</g>
		<g>
			<polygon class="st60" points="27.5,47.8 23.7,45.6 21.8,44.6 25.7,46.8 			"/>
		</g>
		<g class="st5">
			<defs>
				<path id="SVGID_79_" class="st5" d="M21.8,44.6l3.9,2.2c0,0-0.1-0.1-0.1-0.1c0-0.1,0.1-0.3,0.2-0.3l-3.9-2.2
					c-0.1,0.1-0.2,0.2-0.2,0.3C21.7,44.5,21.8,44.5,21.8,44.6z"/>
			</defs>
			<clipPath id="SVGID_80_">
				<use xlink:href="#SVGID_79_"  style="overflow:visible;"/>
			</clipPath>
			<g class="st61">
				<path class="st17" d="M25.8,46.3l-3.9-2.2c-0.1,0.1-0.2,0.2-0.2,0.3c0,0,0,0,0,0l3.9,2.2c0,0,0,0,0,0
					C25.6,46.6,25.7,46.4,25.8,46.3"/>
				<path class="st62" d="M25.6,46.7l-3.9-2.2c0,0.1,0,0.1,0.1,0.1l3.9,2.2C25.6,46.8,25.6,46.7,25.6,46.7"/>
			</g>
		</g>
		<g class="st5">
			<defs>
				<path id="SVGID_81_" class="st5" d="M21.8,44.6C21.8,44.6,21.8,44.6,21.8,44.6l3.8,2.2c0,0,0,0,0,0C24.5,46.1,23,45.2,21.8,44.6
					z"/>
			</defs>
			<clipPath id="SVGID_82_">
				<use xlink:href="#SVGID_81_"  style="overflow:visible;"/>
			</clipPath>
			<g class="st63">
				<polyline class="st15" points="25.7,46.8 21.8,44.6 21.8,44.6 25.7,46.8 25.7,46.8 				"/>
			</g>
		</g>
		<g>
			<path class="st27" d="M29.9,40.6c-0.1,0-0.1,0.1-0.2,0.2l-1.2,3.4c0,0.1-0.1,0.2-0.2,0.2l-0.8,3.4l-1.9-1c0,0-0.1-0.1-0.1-0.1
				c0,0.1,0,0.1,0.1,0.1l1.9,1c0,0,0.1,0.1,0.1,0.2l-0.4,3.2c0,0.2,0.1,0.2,0.2,0.2c0,0,0.1,0,0.1-0.1l2.3-2.7c0,0,0.1-0.1,0.1-0.1
				c0,0,0.1,0,0.1,0l2.3,0.1c0,0,0.1,0,0.1,0c0.1-0.1,0.2-0.3,0.2-0.4l-0.5-2.7c0-0.1,0-0.2,0.1-0.2l1.9-3.2
				c0.1-0.2,0.1-0.4-0.1-0.3l-2.6,1.1c-0.1,0-0.1,0-0.2,0l-1.2-2C30,40.5,29.9,40.5,29.9,40.6z"/>
		</g>
		<g class="st5">
			<defs>
				<path id="SVGID_83_" class="st5" d="M21.8,44.6l3.9,2.2c0,0-0.1-0.1-0.1-0.1l-3.9-2.2C21.7,44.5,21.8,44.5,21.8,44.6z"/>
			</defs>
			<clipPath id="SVGID_84_">
				<use xlink:href="#SVGID_83_"  style="overflow:visible;"/>
			</clipPath>
			<g class="st64">
				<polyline class="st17" points="25.6,46.7 21.7,44.4 21.7,44.4 25.6,46.7 25.6,46.7 				"/>
				<path class="st15" d="M25.6,46.7l-3.9-2.2c0,0.1,0,0.1,0.1,0.1l3.9,2.2C25.6,46.8,25.6,46.7,25.6,46.7"/>
			</g>
		</g>
		<g>
			<polygon class="st23" points="28.4,44.4 24.5,42.2 21.9,44.1 25.8,46.3 			"/>
		</g>
		<g>
			<path class="st27" d="M28.4,44.4l-2.6,1.9c-0.1,0.1-0.2,0.2-0.2,0.3c0,0.1,0,0.1,0.1,0.1l1.9,1L28.4,44.4z"/>
		</g>
	</g>
</g>
</svg>
