<?xml version="1.0" encoding="utf-8"?>
<!-- Generator: Adobe Illustrator 22.0.1, SVG Export Plug-In . SVG Version: 6.00 Build 0)  -->
<svg version="1.1" id="Layer_1" xmlns="http://www.w3.org/2000/svg" xmlns:xlink="http://www.w3.org/1999/xlink" x="0px" y="0px"
	 width="357.3px" height="118.8px" viewBox="0 0 357.3 118.8" style="enable-background:new 0 0 357.3 118.8;" xml:space="preserve"
	>
<style type="text/css">
	.st0{fill:#FFFFFF;}
</style>
<g>
	<g>
		<path class="st0" d="M156.4,49.7l4.8,4.9c-2.4,2.5-6.9,4.1-10.8,4.1c-7.9,0-14-5.8-14-13.9c0-8,5.9-13.8,13.6-13.8
			c8.3,0,13.1,6.3,13.1,16.3H144c0.9,2.9,3.2,4.8,6.3,4.8C152.4,52,154.9,51.1,156.4,49.7z M144.1,41.9h11.8
			c-0.7-2.6-2.7-4.3-5.7-4.3C147.4,37.6,145.1,39.2,144.1,41.9z"/>
		<path class="st0" d="M168.1,22.3h7.5V58h-7.5V22.3z"/>
		<path class="st0" d="M200.6,49.7l4.8,4.9c-2.4,2.5-6.9,4.1-10.8,4.1c-7.9,0-14-5.8-14-13.9c0-8,5.9-13.8,13.6-13.8
			c8.3,0,13.1,6.3,13.1,16.3h-19.1c0.9,2.9,3.2,4.8,6.3,4.8C196.6,52,199.2,51.1,200.6,49.7z M188.4,41.9h11.8
			c-0.7-2.6-2.7-4.3-5.7-4.3C191.7,37.6,189.3,39.2,188.4,41.9z M194,28.6h-5.1l5.9-8l6.7,1.2L194,28.6z"/>
		<path class="st0" d="M210.9,44.8c0-7.5,6.6-13.8,14.5-13.8c4.3,0,7.8,1.7,10.4,4.5l-5,4.2c-1.3-1.5-3.4-2.5-5.5-2.5
			c-3.9,0-7.2,3.4-7.2,7.5c0,4.1,3.3,7.6,7.2,7.6c2,0,4.2-1,5.6-2.6l5,4.2c-2.6,2.9-6.2,4.7-10.6,4.7
			C217.5,58.6,210.9,52.3,210.9,44.8z"/>
		<path class="st0" d="M256.1,56.3c-1.5,1.4-3.9,2.3-6.1,2.3c-4.7,0-7.9-3.3-7.9-8.1V37.6h-3.6v-6h3.6v-7.3h7.2v7.3h5.7v6h-5.7v11.8
			c0,1.7,1.1,3,2.5,3c1,0,2-0.4,2.6-0.9L256.1,56.3z"/>
		<path class="st0" d="M277.3,31v6.3c-5.5,0-9,3.2-9,8.1V58h-7.5V31.6h7.5v4.9C269.9,33.1,273.2,31,277.3,31z"/>
		<path class="st0" d="M281.2,23.9c0-2.1,1.8-4,4.1-4c2.2,0,4,1.9,4,4c0,2.2-1.8,4.1-4,4.1C283,28,281.2,26.1,281.2,23.9z
			 M281.5,31.6h7.5V58h-7.5V31.6z"/>
		<path class="st0" d="M294,44.8c0-7.5,6.6-13.8,14.5-13.8c4.3,0,7.8,1.7,10.4,4.5l-5,4.2c-1.3-1.5-3.4-2.5-5.5-2.5
			c-3.9,0-7.2,3.4-7.2,7.5c0,4.1,3.3,7.6,7.2,7.6c2,0,4.2-1,5.6-2.6l5,4.2c-2.6,2.9-6.2,4.7-10.6,4.7C300.6,58.6,294,52.3,294,44.8z
			"/>
		<path class="st0" d="M321.4,44.8c0-7.5,6.6-13.8,14.5-13.8c7.8,0,14.4,6.3,14.4,13.8s-6.5,13.9-14.4,13.9
			C328,58.6,321.4,52.3,321.4,44.8z M343.2,44.8c0-4.1-3.3-7.5-7.3-7.5c-4,0-7.3,3.4-7.3,7.5c0,4.1,3.3,7.6,7.3,7.6
			C339.8,52.3,343.2,48.9,343.2,44.8z"/>
	</g>
	<g>
		<path class="st0" d="M136.1,80.8c0-5.6,4.9-10.3,10.8-10.3c3.2,0,5.8,1.3,7.7,3.3l-3.7,3.2c-1-1.1-2.5-1.8-4.1-1.8
			c-2.9,0-5.3,2.5-5.3,5.5c0,3.1,2.4,5.7,5.4,5.7c1.5,0,3.1-0.8,4.1-1.9l3.7,3.1c-1.9,2.1-4.6,3.5-7.9,3.5
			C141,91.1,136.1,86.3,136.1,80.8z"/>
		<path class="st0" d="M156.5,80.8c0-5.6,4.9-10.3,10.8-10.3c5.8,0,10.7,4.7,10.7,10.3s-4.9,10.3-10.7,10.3
			C161.4,91.1,156.5,86.3,156.5,80.8z M172.6,80.8c0-3-2.5-5.6-5.4-5.6c-3,0-5.4,2.5-5.4,5.6c0,3,2.5,5.6,5.4,5.6
			C170.2,86.4,172.6,83.8,172.6,80.8z"/>
		<path class="st0" d="M212.3,78.1v12.5H207V79.1c0-2.3-1.4-3.9-3.5-3.9c-2.2,0-3.8,1.5-3.8,3.6v11.9h-5.3V79.1
			c0-2.3-1.4-3.9-3.5-3.9c-2.2,0-3.8,1.5-3.8,3.6v11.9h-5.5V71h5.5v2.6c0.9-1.9,2.9-3,5.3-3c2.7,0,5,1.4,6.2,3.6
			c1-2.2,3.5-3.6,6.4-3.6C209.2,70.5,212.3,73.7,212.3,78.1z"/>
		<path class="st0" d="M238.2,80.8c0,6-3.8,10.3-9,10.3c-2.7,0-5-1.2-6.6-3.2v9.3H217V71h5.5v2.7c1.6-2,3.8-3.2,6.6-3.2
			C234.4,70.5,238.2,74.8,238.2,80.8z M232.8,80.8c0-3.3-2.2-5.6-5.2-5.6c-2.7,0-4.7,2-5,4.8v1.5c0.3,2.9,2.3,4.9,5,4.9
			C230.6,86.4,232.8,84.1,232.8,80.8z"/>
		<path class="st0" d="M259.5,78.9v11.7h-5.4v-2c-1.4,1.6-3.6,2.4-5.8,2.4c-4.2,0-7.4-2.5-7.4-6.3c0-3.9,3.6-6.5,8.2-6.5
			c1.6,0,3.3,0.3,5,1v-0.4c0-2.1-1.3-3.9-4.5-3.9c-1.8,0-3.5,0.6-5.1,1.4l-1.9-3.7c2.8-1.4,5.5-2.2,8.2-2.2
			C256,70.5,259.5,73.7,259.5,78.9z M254.1,84.4v-1.8c-1.3-0.5-2.7-0.7-4.2-0.7c-2,0-3.6,1.2-3.6,2.8c0,1.6,1.4,2.6,3.3,2.6
			C251.7,87.2,253.7,86.2,254.1,84.4z"/>
		<path class="st0" d="M276.4,70.5v4.7c-4.1,0-6.7,2.4-6.7,6v9.4h-5.5V71h5.5v3.6C271,72.1,273.4,70.5,276.4,70.5z"/>
		<path class="st0" d="M291.3,89.3c-1.1,1-2.9,1.7-4.5,1.7c-3.5,0-5.9-2.5-5.9-6v-9.6h-2.7V71h2.7v-5.4h5.3V71h4.3v4.5h-4.3v8.7
			c0,1.3,0.8,2.2,1.9,2.2c0.8,0,1.5-0.3,1.9-0.6L291.3,89.3z"/>
		<path class="st0" d="M294.5,65.2c0-1.6,1.3-3,3-3c1.6,0,3,1.4,3,3c0,1.7-1.3,3-3,3C295.8,68.3,294.5,66.9,294.5,65.2z M294.7,71
			h5.5v19.6h-5.5V71z"/>
		<path class="st0" d="M325.3,64v26.6h-5.5v-2.8c-1.6,2.1-3.8,3.3-6.6,3.3c-5.2,0-9-4.3-9-10.3c0-6,3.8-10.3,9-10.3
			c2.8,0,5.1,1.2,6.6,3.3V64H325.3z M319.8,80.8c0-3.3-2.1-5.6-5-5.6c-3.1,0-5.2,2.3-5.2,5.6c0,3.3,2.2,5.6,5.2,5.6
			C317.7,86.4,319.8,84.1,319.8,80.8z"/>
		<path class="st0" d="M329.1,80.8c0-5.6,4.9-10.3,10.8-10.3c5.8,0,10.7,4.7,10.7,10.3s-4.9,10.3-10.7,10.3
			C334,91.1,329.1,86.3,329.1,80.8z M345.2,80.8c0-3-2.5-5.6-5.4-5.6c-3,0-5.4,2.5-5.4,5.6c0,3,2.5,5.6,5.4,5.6
			C342.8,86.4,345.2,83.8,345.2,80.8z"/>
	</g>
	<path class="st0" d="M70.9,10.1c-10.2,0-19.8,3-27.8,8.1c0,1.6,0,3.3,0.3,5.3C44.8,35,42.8,44,37.3,50.9c-2.4,3.1-5.5,5.9-8.2,8.2
		C29,60,29,60.9,29,61.8c0,24.8,20.2,44.9,44.9,44.9c14.5,0,28.4-7,36.8-18.5h-25c-4.4,2.5-9.5,3.9-14.9,3.9
		c-13,0-24.1-8.2-28.4-19.7h56.8h14.8h7.4c0.7-3.4,1.1-7,1.1-10.7C122.6,33.3,99.5,10.1,70.9,10.1z M42.5,51.1
		c4.3-11.5,15.4-19.7,28.4-19.7c13,0,24.1,8.2,28.4,19.7H42.5z"/>
	<path class="st0" d="M73.9,110.5c-26.9,0-48.7-21.8-48.7-48.7c0-1.5,0.1-3,0.2-4.5c2.9-2.3,6.3-5.3,8.9-8.6
		c5.7-7.2,6.4-16.1,5.3-24.6c-1.5-12.2,2.8-18.4,2.8-18.4S24,7.3,13.4,23.8c-10.6,16.5,2.5,37.6,2.5,37.6s1.9-23.7,11.1-33
		c-7.8,14.2-7.8,33.4-7.8,33.4s0,0,0.1-0.1l0,0.1c0,28.5,23.1,51.7,51.7,51.7c18.9,0,35.4-10.1,44.4-25.2
		C106.7,101.6,91.1,110.5,73.9,110.5z"/>
</g>
</svg>
