<?xml version="1.0" encoding="utf-8"?>
<!-- Generator: Adobe Illustrator 24.0.0, SVG Export Plug-In . SVG Version: 6.00 Build 0)  -->
<svg version="1.1" id="Layer_1" xmlns="http://www.w3.org/2000/svg" xmlns:xlink="http://www.w3.org/1999/xlink" x="0px" y="0px"
	 width="140px" height="140px" viewBox="0 0 140 140" style="enable-background:new 0 0 140 140;" xml:space="preserve">
<style type="text/css">
	.st0{opacity:0.3;fill:#404041;enable-background:new    ;}
	.st1{fill:#909EA4;}
	.st2{fill:#FFFFFF;}
	.st3{fill:#FDD258;}
	.st4{opacity:0.3;fill:#FFFFFF;}
</style>
<ellipse class="st0" cx="70" cy="123.4" rx="25.2" ry="8.6"/>
<ellipse class="st1" cx="69.7" cy="111.2" rx="12.8" ry="8.6"/>
<path class="st2" d="M51.6,86.6c0,5.4,8.1,9.8,18.2,9.8s18.2-4.4,18.2-9.8v19.6c0,5.4-8.1,9.8-18.2,9.8s-18.2-4.4-18.2-9.8V86.6z"/>
<path class="st3" d="M51.6,86.6c0,5.4,8.1,9.8,18.2,9.8s18.2-4.4,18.2-9.8s1.5-12.3,6.2-16.7S107,56.3,107,42.7S97.3,4.3,69.7,4.3
	S33,29.8,33,43.2s11.1,27,13.6,29C49.1,74.1,51.6,81.3,51.6,86.6z"/>
<ellipse class="st4" cx="69.7" cy="86.6" rx="18.2" ry="9.8"/>
<g>
	<g>
		<path class="st2" d="M75,83.9c-0.1,0-0.1,0-0.2,0c-0.6-0.1-1-0.7-0.9-1.3l7.5-45.1c0.1-0.6,0.7-1.1,1.3-0.9c0.6,0.1,1,0.7,0.9,1.3
			L76.2,83C76.1,83.6,75.6,83.9,75,83.9z"/>
	</g>
	<g>
		<path class="st2" d="M65.2,89.4c-0.5,0-1-0.3-1.1-0.9l-8.7-35.4c-0.1-0.6,0.2-1.2,0.8-1.4c0.6-0.1,1.2,0.2,1.4,0.8L66.3,88
			c0.1,0.6-0.2,1.2-0.8,1.4C65.4,89.4,65.3,89.4,65.2,89.4z"/>
	</g>
	<g>
		<path class="st2" d="M58.2,58.4c-0.1,0-0.1,0-0.2,0c-3.5-0.6-4.9-2.5-5.4-4c-1.2-3.9,1.4-9.2,4.7-12.5c1.6-1.6,3.1-2.2,4.4-2.3
			c1.6-2.9,4.1-5.6,7.4-7.1c2.3-1,4.3-1.1,5.8-0.1c0,0,0,0,0.1,0c0.8-1,1.8-2,2.8-3c2.2-2.1,4.3-2.9,6.1-2.2
			c1.9,0.7,3.2,2.9,3.5,6.1c0.4,3.4-1.5,6.9-3.3,8.8c-0.8,0.9-2.4,2.4-4.1,2.4c-0.6,0-1.1-0.5-1.1-1.1s0.5-1.1,1.1-1.1
			c0.5,0,1.4-0.5,2.4-1.6c1.5-1.7,3-4.6,2.7-7c-0.3-2.3-1-3.9-2-4.3c-0.9-0.3-2.2,0.3-3.7,1.7c-1,1-2,2-2.8,3
			c1.3,2.1,1.4,4.9,1.4,6.3c0,3.7-1.2,9.6-4.4,9.6c-1,0-1.9-0.4-2.6-1.1c-1-1.1-1.4-2.9-1.3-5.6c0.2-2.8,1.5-5.9,3.8-9.1
			c-0.9-0.5-2.1-0.4-3.6,0.3c-2.6,1.2-4.6,3.2-5.9,5.5c2.4,1,3.9,3.6,4.2,5.2c0.4,1.9,0,4.8-1.3,6.8c-0.7,1.1-1.7,1.8-2.8,2
			c-1.2,0.2-2.1,0-2.9-0.6c-1.4-1.1-1.7-3.2-1.8-6.2c0-1.4,0.3-3.1,0.9-4.9c-0.5,0.3-1,0.7-1.6,1.2c-3.2,3.2-5,7.6-4.2,10.2
			c0.4,1.4,1.6,2.2,3.5,2.5c0.6,0.1,1,0.7,0.9,1.3C59.3,58.1,58.8,58.4,58.2,58.4z M63.2,42.1c-0.9,1.9-1.3,3.8-1.2,5.1
			c0,1,0.1,3.8,0.9,4.5c0.1,0.1,0.3,0.3,1.1,0.1c0.5-0.1,1-0.4,1.3-1c1-1.4,1.2-3.7,1-5.1C66.1,44.5,64.8,42.7,63.2,42.1z
			 M75.2,36.2c-1.8,2.6-2.8,5.2-3,7.3c-0.2,2.6,0.3,3.5,0.7,3.9c0.1,0.2,0.4,0.4,0.9,0.4c0.7,0,2.1-3.3,2.1-7.3
			C75.9,39.1,75.7,37.5,75.2,36.2z"/>
	</g>
</g>
<path class="st1" d="M51.6,98.6c0,5.4,8.1,9.8,18.2,9.8s18.2-4.4,18.2-9.8v3.6c0,5.4-8.1,9.8-18.2,9.8s-18.2-4.4-18.2-9.8V98.6z"/>
<path class="st1" d="M51.6,91.3c0,5.4,8.1,9.8,18.2,9.8s18.2-4.4,18.2-9.8v3.6c0,5.4-8.1,9.8-18.2,9.8s-18.2-4.4-18.2-9.8V91.3z"/>
<ellipse transform="matrix(0.5 -0.866 0.866 0.5 -1.8509 56.6052)" class="st4" cx="48.1" cy="29.9" rx="12.8" ry="8.4"/>
<ellipse transform="matrix(0.9464 -0.323 0.323 0.9464 -1.3092 21.3686)" class="st4" cx="63.7" cy="14.6" rx="7.6" ry="4.9"/>
</svg>
