<?xml version="1.0" encoding="utf-8"?>
<!-- Generator: Adobe Illustrator 20.0.0, SVG Export Plug-In . SVG Version: 6.00 Build 0)  -->
<svg version="1.1" id="Layer_1" xmlns="http://www.w3.org/2000/svg" xmlns:xlink="http://www.w3.org/1999/xlink" x="0px" y="0px"
	 viewBox="0 0 100 100" style="enable-background:new 0 0 100 100;" xml:space="preserve">
<style type="text/css">
	.st0{enable-background:new    ;}
	.st1{fill:#58595B;}
	.st2{fill:none;stroke:#58595B;stroke-width:3.6299;stroke-miterlimit:10;}
	.st3{fill:none;stroke:#58595B;stroke-width:5.0819;stroke-linecap:round;stroke-miterlimit:10;}
</style>
<g>
	<g class="st0">
		<path class="st1" d="M32.1,77.9v3.4H18.7v-3.2l6.5-6.9c1.4-1.4,2-2.8,2-4c0-1.5-0.9-2.3-2.6-2.3c-0.8,0-1.7,0.2-2.5,0.5
			c-0.9,0.3-1.7,0.8-2.6,1.4l-1.4-3.1c0.8-0.7,1.8-1.2,3-1.6s2.5-0.6,3.7-0.6c2,0,3.6,0.5,4.8,1.5s1.8,2.3,1.8,3.9
			c0,1.1-0.2,2.2-0.7,3.1c-0.5,1-1.3,2-2.4,3.2L24,77.9H32.1z"/>
		<path class="st1" d="M36.3,79c-1.2-1.7-1.9-4.2-1.9-7.4c0-3.2,0.6-5.7,1.9-7.4c1.3-1.7,3-2.6,5.4-2.6c2.3,0,4.1,0.9,5.4,2.6
			c1.3,1.7,1.9,4.2,1.9,7.4c0,3.2-0.6,5.7-1.9,7.4c-1.2,1.7-3,2.6-5.4,2.6C39.4,81.6,37.6,80.7,36.3,79z M44.1,76.7
			c0.5-1.1,0.7-2.8,0.7-5.1c0-2.3-0.2-4-0.7-5c-0.5-1-1.3-1.6-2.3-1.6c-1.1,0-1.8,0.5-2.3,1.6c-0.5,1-0.7,2.7-0.7,5
			c0,2.3,0.2,4,0.7,5.1c0.5,1.1,1.3,1.6,2.3,1.6C42.8,78.3,43.6,77.7,44.1,76.7z"/>
		<path class="st1" d="M52.9,79c-1.2-1.7-1.9-4.2-1.9-7.4c0-3.2,0.6-5.7,1.9-7.4c1.2-1.7,3-2.6,5.4-2.6s4.1,0.9,5.4,2.6
			s1.9,4.2,1.9,7.4c0,3.2-0.6,5.7-1.9,7.4c-1.2,1.7-3,2.6-5.4,2.6S54.1,80.7,52.9,79z M60.6,76.7c0.5-1.1,0.7-2.8,0.7-5.1
			c0-2.3-0.2-4-0.7-5c-0.5-1-1.3-1.6-2.3-1.6s-1.8,0.5-2.3,1.6c-0.5,1-0.7,2.7-0.7,5c0,2.3,0.2,4,0.7,5.1s1.3,1.6,2.3,1.6
			S60.1,77.7,60.6,76.7z"/>
		<path class="st1" d="M81.8,77.9v3.4H68.4v-3.2l6.5-6.9c1.4-1.4,2-2.8,2-4c0-1.5-0.9-2.3-2.6-2.3c-0.8,0-1.7,0.2-2.5,0.5
			c-0.9,0.3-1.7,0.8-2.6,1.4l-1.4-3.1c0.8-0.7,1.8-1.2,3-1.6s2.5-0.6,3.7-0.6c2,0,3.6,0.5,4.8,1.5c1.2,1,1.8,2.3,1.8,3.9
			c0,1.1-0.2,2.2-0.7,3.1c-0.5,1-1.3,2-2.4,3.2l-4.3,4.6H81.8z"/>
	</g>
	<path class="st2" d="M80.3,94.4H19.7c-4.8,0-8.7-3.9-8.7-8.7V25.1c0-4.8,3.9-8.7,8.7-8.7h60.6c4.8,0,8.7,3.9,8.7,8.7v60.6
		C89,90.5,85.1,94.4,80.3,94.4z"/>
	<line class="st2" x1="11" y1="39.3" x2="89" y2="39.3"/>
	<line class="st3" x1="73" y1="7.9" x2="73" y2="24.9"/>
	<line class="st3" x1="27" y1="7.9" x2="27" y2="24.9"/>
</g>
</svg>
