<?xml version="1.0" encoding="utf-8"?>
<!-- Generator: Adobe Illustrator 24.0.0, SVG Export Plug-In . SVG Version: 6.00 Build 0)  -->
<svg version="1.1" id="Layer_1" xmlns="http://www.w3.org/2000/svg" xmlns:xlink="http://www.w3.org/1999/xlink" x="0px" y="0px"
	 width="140px" height="140px" viewBox="0 0 140 140" style="enable-background:new 0 0 140 140;" xml:space="preserve">
<style type="text/css">
	.st0{opacity:0.5;fill:#404041;enable-background:new    ;}
	.st1{fill:#231F20;}
	.st2{fill:#323031;}
	.st3{fill:#CCCCCC;}
	.st4{fill:#999999;}
	.st5{enable-background:new    ;}
	.st6{fill:#E6E6E6;}
	.st7{fill:#FFFFFF;}
	.st8{fill:#F5F5F5;}
	.st9{fill:#465E67;}
	.st10{fill:#C8D6DD;}
	.st11{fill:#809D99;}
	.st12{fill:#33484F;}
	.st13{fill:#BE1E2D;}
	.st14{fill:url(#SVGID_1_);}
	.st15{fill:#4BBFA7;}
	.st16{font-family:'TTCommons-Medium';}
	.st17{font-size:3.8902px;}
	.st18{clip-path:url(#SVGID_3_);}
	.st19{fill:#E6E7E8;}
	.st20{fill:#2D414D;}
	.st21{font-family:'TTCommons-Bold';}
	.st22{font-size:2.8292px;}
	.st23{font-family:'TTCommons-DemiBold';}
	.st24{font-size:3.7399px;}
	.st25{fill:none;}
	.st26{fill:none;stroke:#44C0A7;stroke-width:0.2671;stroke-miterlimit:10;}
	.st27{fill:none;stroke:#F1F3F5;stroke-width:0.3361;stroke-miterlimit:10;}
	.st28{font-size:1.3445px;}
	.st29{fill:#2D414D;stroke:#000000;stroke-width:0.6722;stroke-linejoin:round;}
	.st30{fill:none;stroke:#F1F3F5;stroke-width:0.2145;}
	.st31{fill:#BCBCBC;}
	.st32{font-family:'TTCommons-Light';}
	.st33{font-size:4.291px;}
	.st34{font-family:'TTCommons-Regular';}
	.st35{font-size:3.0037px;}
</style>
<g>
	<path class="st0" d="M6,98.4l92.3-52.8l37.2,21.2c2.8,1.7,2.8,5.8,0,7.4l-89.3,51.4c-2.3,1.3-5.2,1.3-7.5,0L5.9,106.7
		C2.7,104.8,2.7,100.2,6,98.4z"/>
	<path class="st1" d="M66.1,96.6c1.7-1,3.2-1,4.2-0.4l3.2,1.9l0,0c1.1,0.6,1.7,1.9,1.8,3.8c0,3.8-2.8,8.2-6,10.1
		c-1.9,1.1-3,1.1-4.1,0.6l-3.2-1.9c-1.1-0.6-1.7-1.9-1.7-3.8C60.2,103.1,62.8,98.5,66.1,96.6z"/>
	<g>
		<path class="st2" d="M62.8,108.9c0,0.7,0.2,1.3,0.4,1.8c0.8,1.8,2.6,2.5,4.8,2c0.6-0.1,1.2-0.4,1.8-0.7c0.8-0.4,1.6-1,2.3-1.7
			c2-1.8,3.4-4.4,3.8-6.8c0.1-0.5,0.1-1.1,0.1-1.6c0-0.6-0.2-1.1-0.3-1.5c-0.9-2.5-3.7-3.2-6.7-1.6c-3.3,1.7-5.9,5.6-6.2,9
			C62.8,108.2,62.8,108.5,62.8,108.9z M65.3,109.6c-0.3-0.4-0.4-1-0.5-1.6c0-0.4,0-0.9,0.1-1.4c0.4-2.3,2.2-4.7,4.3-5.8
			c2-1.1,3.8-0.7,4.6,0.7c0.2,0.4,0.4,0.9,0.4,1.5c0,0.5,0,1-0.1,1.6c-0.5,2.2-2.2,4.5-4.3,5.6C67.9,111.2,66.1,110.9,65.3,109.6z"
			/>
		<path class="st3" d="M64.8,108c0,0.6,0.2,1.2,0.5,1.6c0.8,1.4,2.6,1.7,4.6,0.6c2.1-1.1,3.8-3.4,4.3-5.6c0.1-0.5,0.2-1.1,0.1-1.6
			c0-0.6-0.2-1.1-0.4-1.5c-0.8-1.4-2.6-1.8-4.6-0.7c-2.2,1.1-3.9,3.5-4.3,5.8C64.9,107.1,64.8,107.5,64.8,108z M67.1,108.6
			c-0.7-0.3-1.1-0.9-1.2-1.8c0-0.2,0-0.5,0-0.8c0.2-1.6,1.4-3.3,2.9-4.1c1.4-0.7,2.6-0.4,3.2,0.6c0.1,0.3,0.2,0.6,0.2,0.9
			c0.1,0.8-0.2,1.8-0.7,2.6c-0.5,0.9-1.3,1.8-2.3,2.2C68.4,108.7,67.7,108.8,67.1,108.6z"/>
		<path class="st4" d="M65.9,106.8c0.1,0.9,0.5,1.5,1.2,1.8c0.6,0.2,1.4,0.2,2.2-0.3c0.9-0.5,1.7-1.3,2.3-2.2
			c0.5-0.8,0.8-1.8,0.7-2.6c0-0.4-0.1-0.6-0.2-0.9c-0.5-1-1.7-1.3-3.2-0.6c-1.5,0.8-2.7,2.5-2.9,4.1
			C65.9,106.3,65.9,106.5,65.9,106.8z M68.9,105c0.3-0.5,0.9-0.7,1.1-0.4c0.3,0.2,0.3,0.8-0.1,1.2c-0.3,0.5-0.9,0.7-1.1,0.4
			C68.5,106,68.6,105.5,68.9,105z"/>
		<path d="M70,105.8c-0.3,0.5-0.9,0.7-1.1,0.4c-0.3-0.2-0.3-0.8,0.1-1.2c0.3-0.5,0.9-0.7,1.1-0.4S70.3,105.3,70,105.8z"/>
	</g>
	<path class="st1" d="M111.1,70.5c1.7-1,3.2-1,4.2-0.4l3.2,1.9l0,0c1.1,0.6,1.7,1.9,1.8,3.8c0,3.8-2.8,8.2-6,10.1
		c-1.9,1.1-3,1.1-4.1,0.6l-3.2-1.9c-1.1-0.6-1.7-1.9-1.7-3.8C105.2,77.1,107.9,72.4,111.1,70.5z"/>
	<g class="st5">
		<path class="st6" d="M43,103.3c0.9-14.3,2.7-25.6,2.7-25.6l82.4-47.5l1.6,4.2l0.1,37.1l-8.1,4.7c0-0.2,0-0.4,0-0.5
			c0-0.6-0.2-1.2-0.4-1.7c-1-2.7-4-3.5-7.3-1.7c-3.6,1.9-6.4,6.1-6.7,9.8c0,0.4-0.1,0.8,0,1.2c0,0.4,0.1,0.8,0.2,1.2l-30.9,17.9
			c0-0.2,0-0.4,0-0.6c0-0.6-0.2-1.2-0.4-1.7c-1-2.7-4-3.5-7.3-1.7c-3.6,1.9-6.4,6.1-6.7,9.8c0,0.4-0.1,0.8,0,1.2
			c0,0.5,0.1,0.9,0.2,1.3L42.9,122C42.9,121.7,42.1,117.6,43,103.3z"/>
		<g>
			<path class="st7" d="M45.8,77.6L15.6,60.1c0,0-2.8,20.8-2.8,30.9s0,13.2,0,13.2s1.8,3.2,12.2,9.3c10.4,6.1,18,8.3,18,8.3
				s0-4.5,0-16C43,96.3,45.8,77.6,45.8,77.6z"/>
		</g>
		<g>
			<path class="st8" d="M128.1,30.1L97.8,12.6L15.6,60.1c0,0,2.5,3.4,12.6,9.1c10.4,5.9,17.6,8.5,17.6,8.5L128.1,30.1z"/>
		</g>
		<g>
			<path class="st6" d="M129.8,59.7v11.7l-8.1,4.7c0-0.2,0-0.4,0-0.5c0-0.6-0.2-1.2-0.4-1.7c-1-2.7-4-3.5-7.3-1.7
				c-3.6,1.9-6.4,6.1-6.7,9.8c0,0.4-0.1,0.8,0,1.2c0,0.4,0.1,0.8,0.2,1.2l-30.9,17.9c0-0.2,0-0.4,0-0.6c0-0.6-0.2-1.2-0.4-1.7
				c-1-2.7-4-3.5-7.3-1.7c-3.6,1.9-6.4,6.1-6.7,9.8c0,0.4-0.1,0.8,0,1.2c0,0.5,0.1,0.9,0.2,1.3l-19.5,11.3c0,0-0.6-2.7-0.3-11.5
				L129.8,59.7z"/>
			<path class="st6" d="M44.6,84.1c0.6-4.9,1.1-6.4,1.1-6.4l82.4-47.5l1.6,4.2v0.7L44.6,84.1z"/>
		</g>
	</g>
	<g>
		<path class="st2" d="M107.9,82.8c0,0.7,0.2,1.3,0.4,1.8c0.8,1.8,2.6,2.5,4.8,2c0.6-0.1,1.2-0.4,1.8-0.7c0.8-0.4,1.6-1,2.3-1.7
			c2-1.8,3.4-4.4,3.8-6.8c0.1-0.5,0.1-1.1,0.1-1.6c0-0.6-0.2-1.1-0.3-1.5c-0.9-2.5-3.7-3.2-6.7-1.6c-3.3,1.7-5.9,5.6-6.2,9
			C107.8,82.1,107.8,82.5,107.9,82.8z M110.3,83.5c-0.3-0.4-0.4-1-0.5-1.6c0-0.4,0-0.9,0.1-1.4c0.4-2.3,2.2-4.7,4.3-5.8
			c2-1.1,3.8-0.7,4.6,0.7c0.2,0.4,0.4,0.9,0.4,1.5c0,0.5,0,1-0.1,1.6c-0.5,2.2-2.2,4.5-4.3,5.6C112.9,85.2,111.1,84.9,110.3,83.5z"
			/>
		<path class="st3" d="M109.9,81.9c0,0.6,0.2,1.2,0.5,1.6c0.8,1.4,2.6,1.7,4.6,0.6c2.1-1.1,3.8-3.4,4.3-5.6c0.1-0.5,0.2-1.1,0.1-1.6
			c0-0.6-0.2-1.1-0.4-1.5c-0.8-1.4-2.6-1.8-4.6-0.7c-2.2,1.1-3.9,3.5-4.3,5.8C109.9,81,109.8,81.5,109.9,81.9z M112.1,82.5
			c-0.7-0.3-1.1-0.9-1.2-1.8c0-0.2,0-0.5,0-0.8c0.2-1.6,1.4-3.3,2.9-4.1c1.4-0.7,2.6-0.4,3.2,0.6c0.1,0.3,0.2,0.6,0.2,0.9
			c0.1,0.8-0.2,1.8-0.7,2.6c-0.5,0.9-1.3,1.8-2.3,2.2C113.5,82.7,112.7,82.7,112.1,82.5z"/>
		<path class="st4" d="M110.9,80.7c0.1,0.9,0.5,1.5,1.2,1.8c0.6,0.2,1.4,0.2,2.2-0.3c0.9-0.5,1.7-1.3,2.3-2.2
			c0.5-0.8,0.8-1.8,0.7-2.6c0-0.4-0.1-0.6-0.2-0.9c-0.5-1-1.7-1.3-3.2-0.6c-1.5,0.8-2.7,2.5-2.9,4.1
			C110.9,80.2,110.9,80.5,110.9,80.7z M113.9,78.9c0.3-0.5,0.9-0.7,1.1-0.4c0.3,0.2,0.3,0.8-0.1,1.2c-0.3,0.5-0.9,0.7-1.1,0.4
			C113.6,79.9,113.6,79.4,113.9,78.9z"/>
		<path d="M115,79.7c-0.3,0.5-0.9,0.7-1.1,0.4c-0.3-0.2-0.3-0.8,0.1-1.2c0.3-0.5,0.9-0.7,1.1-0.4C115.4,78.7,115.3,79.3,115,79.7z"
			/>
	</g>
	<g>
		<polygon class="st9" points="62.6,75.2 62.6,89.8 126.7,53 126.7,38.3 		"/>
	</g>
	<g>
		<path class="st9" d="M48.9,83.1c0,0-1.2,3.2-1.6,7.5c-0.4,4.4-0.2,8.2-0.2,8.2l13.5-8V76.4L48.9,83.1z"/>
	</g>
	<path class="st10" d="M39.3,116.5c0.9,0.5,1.7,0.1,1.8-0.8c0-0.4-0.1-0.8-0.3-1.2c-0.3-0.6-0.7-1.1-1.3-1.4c-0.5-0.3-1-0.3-1.3-0.1
		c-0.3,0.2-0.5,0.5-0.5,0.9C37.7,114.9,38.4,116,39.3,116.5z"/>
	<path class="st10" d="M36,114.7c0.5,0.3,0.9,0.1,1-0.4c0-0.2,0-0.4-0.1-0.6c-0.1-0.3-0.4-0.6-0.7-0.7s-0.5-0.1-0.7,0
		c-0.1,0.1-0.2,0.2-0.3,0.5C35.1,113.8,35.5,114.4,36,114.7z"/>
	<path class="st10" d="M15.6,104.2c0.9,0.5,1.7,0.1,1.8-0.8c0-0.4-0.1-0.8-0.3-1.2c-0.3-0.6-0.7-1.1-1.3-1.4c-0.5-0.3-1-0.3-1.3-0.1
		c-0.3,0.2-0.5,0.5-0.5,0.9C14,102.6,14.7,103.7,15.6,104.2z"/>
	<path class="st10" d="M19.1,106.2c0.5,0.3,0.9,0.1,1-0.4c0-0.2,0-0.4-0.1-0.6c-0.1-0.3-0.4-0.6-0.7-0.7c-0.3-0.1-0.5-0.1-0.7,0
		c-0.1,0.1-0.2,0.2-0.3,0.5S18.6,105.9,19.1,106.2z"/>
	<path class="st10" d="M42.7,110.7c0,0-8.1-0.3-17.6-5.2c-9.6-4.8-11.9-10.3-11.9-10.3s3.7,5.5,12.2,9.8
		C33.6,109.2,42.7,110.7,42.7,110.7z"/>
	<path class="st10" d="M23.5,108L23.5,108l4.2,2.4l0.3,0.2c0.1,0.1,0.2,0.2,0.2,0.3v1.6c0,0.2-0.3,0.4-0.5,0.3l-4.5-2.6
		c-0.1-0.1-0.2-0.2-0.2-0.3v-1.6C23.1,108,23.3,107.9,23.5,108z"/>
	<path class="st9" d="M16.2,61.9c0,0,2.3,3.2,12,8.7c10,5.7,16.9,8.1,16.9,8.1s-1.8,7.9-2.8,28.5c-10.8-2.3-21.3-6.3-28.7-15
		C13.6,77.8,16.2,61.9,16.2,61.9z"/>
	<path class="st11" d="M14.7,89.3l10.6-6.1V70.5l-4.4-3l-4.5,2.2c0,0-1.1,4.3-1.5,10.4C14.6,86.2,14.7,89.3,14.7,89.3z"/>
	<path class="st12" d="M42.3,104.4c0.7-14,1.7-22.2,2.3-25.9c0.3,0.1,0.5,0.2,0.5,0.2s-1.8,7.9-2.8,28.5c-10.8-2.3-21.3-6.3-28.7-15
		c0-0.9,0-1.8,0-2.7C21,98.1,31.5,102.1,42.3,104.4z"/>
	<polygon class="st13" points="129,62.3 129.8,62.3 129.8,68.6 129.8,68.6 129.4,68.6 128.6,68.1 128.6,67.9 128.6,63.1 	"/>
	<g>
		<polygon class="st12" points="77.5,66.7 77.5,81.3 78.6,80.6 78.6,66 		"/>
	</g>
	<g>
		<polygon class="st12" points="111.6,47 111.6,61.6 112.8,60.9 112.8,46.3 		"/>
	</g>
	<g>
		<polygon class="st12" points="94.1,57.1 94.1,71.7 95.2,71 95.2,56.4 		"/>
	</g>
	<g>
		<polygon class="st11" points="26.6,70.8 26.6,80.3 35.1,75.4 		"/>
	</g>
	<g>
		<path class="st12" d="M44.2,84.4c-0.6,4.5-1.4,11.8-1.9,22.8c-0.1,0-0.2,0-0.2-0.1C42.7,95.3,43.6,88.1,44.2,84.4z"/>
		<path class="st12" d="M27.9,73.1c-9.7-5.5-12-8.7-12-8.7S15.7,65,15.6,66c0.4-2.6,0.6-4.1,0.6-4.1s2.3,3.2,12,8.7
			c10,5.7,16.9,8.1,16.9,8.1s-0.2,0.8-0.5,2.5C43.8,80.9,37.2,78.4,27.9,73.1z"/>
	</g>
	<g>
		<path class="st10" d="M107.4,30.1l-0.4-0.4l-9.4-5.5l-12.4,7.1l-0.5,0.4c0,0,0.7,1,4.1,2.9s5.8,2.8,5.8,2.8L107.4,30.1z"/>
	</g>
	<g>
		<path class="st7" d="M106.7,29.8l-9.1-5.3l-12.2,7c0,0,0.8,1,3.9,2.8c3.2,1.8,5.2,2.5,5.2,2.5L106.7,29.8z"/>
	</g>
	<g>
		<path class="st10" d="M64.7,54.1l-0.4-0.4l-9.4-5.5l-12.4,7.1L42,55.7c0,0,0.7,1,4.1,2.9c3.4,1.9,5.8,2.8,5.8,2.8L64.7,54.1z"/>
	</g>
	<g>
		<path class="st7" d="M64,53.8l-9.1-5.3l-12.2,7c0,0,0.8,1,3.9,2.8c3.2,1.8,5.2,2.5,5.2,2.5L64,53.8z"/>
	</g>
</g>
<linearGradient id="SVGID_1_" gradientUnits="userSpaceOnUse" x1="75.7992" y1="467.2964" x2="102.1013" y2="496.1205" gradientTransform="matrix(1 0 0 1 0 -370)">
	<stop  offset="0" style="stop-color:#6D6E70;stop-opacity:0"/>
	<stop  offset="1" style="stop-color:#6D6E70;stop-opacity:0.7"/>
</linearGradient>
<path class="st14" d="M130.1,101l-30-17.7L42.7,117l32.4,18.8c0.8,0.5,1.8,0.5,2.6,0l52.3-30.3C131.8,104.5,131.8,102,130.1,101z"/>
<g id="Calificar_viaje_POP_2_">
	<g transform="matrix(1, 0, 0, 1, 0, 0)">
		<path id="Rectangle-2_4_" class="st7" d="M74.5,32.4l53.6-30.5c2-1.1,3.5-0.4,3.5,1.5v91.4c0,2-1.6,4.4-3.5,5.6l-53.6,30.5
			c-2,1.1-3.5,0.4-3.5-1.5V38C71,36,72.6,33.5,74.5,32.4z"/>
	</g>
	<g>
		<g>
			<g id="Group_13_4_" transform="translate(26.313 566.5)">
				<path id="Rectangle-5_2_" class="st15" d="M47.4-450l55.1-31.4c0.5-0.3,0.9-0.1,0.9,0.4v8.8c0,0.5-0.4,1.1-0.9,1.4l-55.1,31.4
					c-0.5,0.3-0.9,0.1-0.9-0.4v-8.8C46.5-449.1,46.9-449.8,47.4-450z"/>
				<text transform="matrix(1 -0.5702 0 1 68.209 -455.1291)" class="st7 st16 st17">Continuar</text>
			</g>
		</g>
	</g>
</g>
<g>
	<g>
		<defs>
			<path id="SVGID_2_" d="M73.9,43.7l52-30.2c1.7-1,3.8,0.2,3.8,2.2v13.9c0,0.9-0.5,1.7-1.2,2.2L76.6,61.8c-1.7,1-3.8-0.2-3.8-2.2
				V45.9C72.7,45,73.2,44.1,73.9,43.7z"/>
		</defs>
		<clipPath id="SVGID_3_">
			<use xlink:href="#SVGID_2_"  style="overflow:visible;"/>
		</clipPath>
		<g class="st18">
			<polygon class="st19" points="93.8,50.2 83.8,56 90.9,60.2 100.9,54.4 			"/>
			<polygon class="st19" points="102.2,45.4 95.4,49.4 110.2,58.1 113.5,52.1 			"/>
			<polygon class="st19" points="111.4,40.1 103.7,44.6 114.3,50.7 118,44 			"/>
			<polygon class="st19" points="85.3,45.1 75.2,50.9 82.3,55.2 92.4,49.3 			"/>
			<polygon class="st19" points="96.9,18.1 78.1,29.1 85.1,33.3 104,22.3 			"/>
			<polygon class="st19" points="102.3,34.9 90.2,42.2 97.2,46.3 109.5,39 			"/>
			<polygon class="st19" points="89.6,42.6 86.7,44.3 93.7,48.5 96.6,46.8 			"/>
			<polygon class="st19" points="68.3,64.9 58.1,70.7 65.2,74.9 75.3,69.1 			"/>
			<polygon class="st19" points="81.8,57 73.1,61.9 80.1,66 88.9,61.1 			"/>
			<polygon class="st19" points="72.5,62.3 69.6,64 76.7,68.2 79.6,66.5 			"/>
			<polygon class="st19" points="73.6,52 65.6,56.5 72.6,60.8 80.7,56.1 			"/>
			<polygon class="st19" points="64.8,46.9 56.8,51.5 63.9,55.6 71.9,51 			"/>
			<polygon class="st19" points="103.5,24.4 95.5,29 102.5,33.2 110.5,28.6 			"/>
			<polygon class="st19" points="76.3,40.2 66.3,46 73.3,50.1 83.3,44.3 			"/>
			<polygon class="st19" points="59.1,40.1 57.6,40.8 64.6,45.1 73.1,40.1 			"/>
			<polygon class="st19" points="67.6,35 61,38.9 74.1,38.8 			"/>
			<polygon class="st19" points="76.3,30.1 69,34.2 76.1,38.4 83.3,34.2 			"/>
			<polygon class="st19" points="79.4,40.2 85.1,43.4 90.8,40.2 			"/>
			<polygon class="st19" points="94,29.9 78.4,38.8 93,38.7 101,34.1 			"/>
			<polygon class="st19" points="84.9,65.7 78.3,69.4 85.4,73.6 92,69.8 			"/>
			<polygon class="st19" points="76.4,70.4 60.8,79.6 67.8,83.7 83.6,74.6 			"/>
			<polygon class="st19" points="88,65.6 93.6,68.9 99.4,65.6 			"/>
			<polygon class="st19" points="102.6,55.4 87,64.3 101.6,64.2 109.7,59.6 			"/>
			<polygon class="st19" points="133,27.6 122.9,33.4 130,37.6 140.1,31.8 			"/>
			<polygon class="st19" points="144.6,0.5 125.7,11.5 132.8,15.6 151.7,4.6 			"/>
			<polygon class="st19" points="146.6,19.6 137.8,24.5 144.9,28.7 153.7,23.8 			"/>
			<polygon class="st19" points="137.2,25 134.3,26.7 141.4,30.9 144.3,29.2 			"/>
			<polygon class="st19" points="121.3,34.4 113.2,39 120.3,43.1 128.3,38.5 			"/>
			<polygon class="st19" points="112.5,29.2 104.5,33.8 111.6,38 119.5,33.5 			"/>
			<polygon class="st19" points="151.1,6.9 143.1,11.4 150.2,15.6 158.2,11 			"/>
			<polygon class="st19" points="123.9,22.5 113.9,28.3 121,32.5 131,26.7 			"/>
			<polygon class="st19" points="106.8,22.5 105.2,23.3 112.3,27.4 120.7,22.5 			"/>
			<polygon class="st19" points="115.3,17.5 108.7,21.3 121.7,21.2 			"/>
			<polygon class="st19" points="123.9,12.4 116.6,16.6 123.7,20.8 131,16.6 			"/>
			<polygon class="st19" points="127.1,22.5 132.7,25.8 138.4,22.5 			"/>
			<polygon class="st19" points="141.6,12.3 126,21.2 140.7,21.1 148.8,16.4 			"/>
		</g>
	</g>
</g>
<g>
	<text transform="matrix(0.9967 -0.576 0 1 84.5375 33.6158)" class="st20 st21 st22">Cuautitlán</text>
</g>
<g>
	<text transform="matrix(0.9967 -0.576 0 1 104.6679 21.9771)" class="st20 st21 st22">Santa Fe</text>
</g>
<path id="Fill_1_Copy" class="st15" d="M102.7,22.3C102.7,22.3,102.7,22.3,102.7,22.3C102.7,22.3,102.7,22.3,102.7,22.3
	C102.7,22.3,102.7,22.3,102.7,22.3c0-0.1,0-0.1,0-0.1c0,0,0,0,0,0v0c0,0,0,0,0,0c0,0,0,0,0,0c0,0,0,0,0,0c0,0,0,0,0,0c0,0,0,0,0,0
	c0,0,0,0,0,0l-1-0.4c-0.1,0-0.2,0-0.3,0.2c0,0,0,0,0,0c-0.1,0.1-0.1,0.3,0,0.3c0,0,0,0,0,0l0.6,0.3l-2.4,1.4
	c-0.1,0.1-0.2,0.2-0.2,0.4s0.1,0.2,0.2,0.1l2.4-1.4l-0.6,1c-0.1,0.1-0.1,0.3,0,0.3s0.2,0,0.3-0.2l0,0L102.7,22.3L102.7,22.3z"/>
<g>
	<text transform="matrix(1 -0.5779 0 1 74.0314 95.1431)" class="st20 st23 st24">Selecciona un horario</text>
	<g>
		<text transform="matrix(1 -0.5779 0 1 74.0305 73.6094)" class="st20 st23 st24">Selecciona una fecha</text>
	</g>
	<path class="st25" d="M75.1,97.2l13.9-8c0.6-0.3,1.1-0.1,1.1,0.5v4.5c0,0.6-0.5,1.3-1.1,1.7l-13.9,8c-0.6,0.3-1.1,0.1-1.1-0.5v-4.5
		C74,98.3,74.5,97.5,75.1,97.2z"/>
	<path class="st26" d="M75.1,97.3l13.9-8c0.5-0.3,0.9-0.1,0.9,0.4v4.5c0,0.5-0.4,1.2-0.9,1.5l-13.9,8c-0.5,0.3-0.9,0.1-0.9-0.4v-4.5
		C74.2,98.3,74.6,97.6,75.1,97.3z"/>
	<text transform="matrix(1 -0.5779 0 1 75.911 101.0023)" class="st15 st23 st24">6:30 am</text>
	<path class="st25" d="M75.1,104.9l13.9-8c0.6-0.3,1.1-0.1,1.1,0.5v4.5c0,0.6-0.5,1.3-1.1,1.7l-13.9,8c-0.6,0.3-1.1,0.1-1.1-0.5
		v-4.5C74,106,74.5,105.3,75.1,104.9z"/>
	<path class="st26" d="M75.1,105.1l13.9-8c0.5-0.3,0.9-0.1,0.9,0.4v4.5c0,0.5-0.4,1.2-0.9,1.5l-13.9,8c-0.5,0.3-0.9,0.1-0.9-0.4
		v-4.5C74.2,106,74.6,105.4,75.1,105.1z"/>
	<text transform="matrix(1 -0.5779 0 1 75.6303 108.9125)" class="st15 st23 st24">11:30 am</text>
	<path id="Rectangle-4" class="st15" d="M92.3,87.2l13.9-8c0.6-0.3,1.1-0.1,1.1,0.5v4.5c0,0.6-0.5,1.3-1.1,1.7l-13.9,8
		c-0.6,0.3-1.1,0.1-1.1-0.5v-4.5C91.3,88.3,91.7,87.6,92.3,87.2z"/>
	<text transform="matrix(1 -0.5779 0 1 93.2547 90.9799)" class="st7 st23 st24">7:30 am</text>
	<path class="st25" d="M92.3,95l13.9-8c0.6-0.3,1.1-0.1,1.1,0.5V92c0,0.6-0.5,1.3-1.1,1.7l-13.9,8c-0.6,0.3-1.1,0.1-1.1-0.5v-4.5
		C91.3,96.1,91.7,95.3,92.3,95z"/>
	<path class="st26" d="M92.3,95.1l13.9-8c0.5-0.3,0.9-0.1,0.9,0.4V92c0,0.5-0.4,1.2-0.9,1.5l-13.9,8c-0.5,0.3-0.9,0.1-0.9-0.4v-4.5
		C91.4,96.1,91.8,95.4,92.3,95.1z"/>
	<text transform="matrix(1 -0.5779 0 1 92.4294 99.2048)" class="st15 st23 st24">12:30 pm</text>
	<path class="st25" d="M109.4,77.4l13.9-8c0.6-0.3,1.1-0.1,1.1,0.5v4.5c0,0.6-0.5,1.3-1.1,1.7l-13.9,8c-0.6,0.3-1.1,0.1-1.1-0.5V79
		C108.4,78.5,108.8,77.7,109.4,77.4z"/>
	<path class="st26" d="M109.4,77.5l13.9-8c0.5-0.3,0.9-0.1,0.9,0.4v4.5c0,0.5-0.4,1.2-0.9,1.5l-13.9,8c-0.5,0.3-0.9,0.1-0.9-0.4V79
		C108.5,78.5,108.9,77.8,109.4,77.5z"/>
	<text transform="matrix(1 -0.5779 0 1 110.2568 81.1549)" class="st15 st23 st24">8:30 am</text>
	<path class="st7" d="M100.7,44.4l6.4-3.7c0.4-0.2,0.7-0.1,0.7,0.3v6.4c0,0.4-0.3,0.8-0.7,1.1l-6.4,3.7c-0.4,0.2-0.7,0.1-0.7-0.3
		v-6.4C100,45.1,100.3,44.6,100.7,44.4z"/>
	<path class="st27" d="M100.7,44.6l6.4-3.7c0.3-0.2,0.5-0.1,0.5,0.2v6.4c0,0.3-0.2,0.6-0.5,0.8l-6.4,3.7c-0.3,0.2-0.5,0.1-0.5-0.2
		v-6.4C100.2,45.1,100.4,44.7,100.7,44.6z"/>
	<text transform="matrix(1 -0.5779 0 1 102.5176 52.5715)" class="st15 st23 st28">VAN</text>
	<path id="Path_1066" class="st15" d="M106.5,45.5c0-0.1-0.1-0.1-0.1-0.1c0-0.1,0-0.1-0.1-0.2c0,0-0.4,0-0.4,0s-0.7-0.2-0.8-0.3
		c-0.1,0-0.3,0-0.4,0.1c-0.2,0.1-1,0.5-1.3,0.7l-2,1.1c-0.1,0-0.1,0.2-0.2,0.3c0,0.4-0.1,0.8-0.1,1.2l0,0v0.3c0,0,0,0,0.2,0
		c0.1,0,0.3-0.2,0.5-0.3v-0.1c0-0.2,0.2-0.5,0.4-0.6l0,0l0.2-0.1c0.2-0.1,0.4,0,0.4,0.2l0,0V48l2.3-1.3v-0.1c0-0.2,0.2-0.5,0.4-0.6
		c0,0,0,0,0,0l0.2-0.1c0.2-0.1,0.4,0,0.4,0.2l0,0v0.1l0.2-0.1l0.2-0.1c0,0,0,0,0,0l0.1-0.1c0,0,0,0,0,0
		C106.6,45.7,106.5,45.6,106.5,45.5z M104.5,46.2c0,0,0,0.1-0.1,0.1c0,0,0,0,0,0l-2.5,1.5c-0.1,0.1-0.2,0-0.2,0l-0.1-0.3
		c0,0,0-0.1,0-0.1c0,0,0,0,0,0l2.8-1.6c0,0,0.1,0,0.1,0L104.5,46.2z M105.7,45.6l-0.6,0.3c-0.1,0.1-0.2,0-0.2-0.1l-0.1-0.3
		c0,0,0-0.1,0-0.1c0,0,0,0,0,0l0.3-0.1c0.1,0,0.1,0,0.2,0L105.7,45.6C105.7,45.6,105.7,45.6,105.7,45.6
		C105.7,45.6,105.7,45.6,105.7,45.6L105.7,45.6z"/>
	<path id="Path_1067" class="st15" d="M102.4,48c-0.2,0.1-0.3,0.3-0.3,0.5s0.1,0.2,0.3,0.1c0.2-0.1,0.3-0.3,0.3-0.5
		C102.7,48,102.6,47.9,102.4,48z M102.4,48.5c-0.1,0-0.1,0-0.1-0.1s0.1-0.2,0.1-0.2c0.1,0,0.1,0,0.1,0.1S102.5,48.4,102.4,48.5
		C102.4,48.5,102.4,48.5,102.4,48.5L102.4,48.5z"/>
	<path id="Path_1068" class="st15" d="M105.6,46.1c-0.2,0.1-0.3,0.3-0.3,0.5c0,0.2,0.1,0.2,0.3,0.1c0.2-0.1,0.3-0.3,0.3-0.5
		C105.9,46.1,105.8,46,105.6,46.1z M105.6,46.6c-0.1,0-0.1,0-0.1-0.1s0.1-0.2,0.1-0.2c0.1,0,0.1,0,0.1,0.1
		C105.8,46.4,105.7,46.5,105.6,46.6L105.6,46.6L105.6,46.6z"/>
	<g id="Group_675" transform="translate(4.84 10.455)">
		<path id="Path_986" class="st29" d="M107.1,89.4"/>
	</g>
	<path id="Rectangle_2" class="st15" d="M119.7,49.3l8.6-5c0.6-0.3,1.1-0.1,1.1,0.5v10.7c0,0.6-0.5,1.4-1.1,1.7l-8.6,5
		c-0.6,0.3-1.1,0.1-1.1-0.5V51C118.6,50.4,119.1,49.6,119.7,49.3z"/>
	<path class="st25" d="M77.8,73.5l8.6-5c0.6-0.3,1.1-0.1,1.1,0.5v10.7c0,0.6-0.5,1.4-1.1,1.7l-8.6,5c-0.6,0.3-1.1,0.1-1.1-0.5V75.2
		C76.7,74.6,77.2,73.8,77.8,73.5z"/>
	<path class="st30" d="M77.8,73.6l8.6-5c0.5-0.3,1-0.1,1,0.4v10.7c0,0.5-0.4,1.2-1,1.5l-8.6,5c-0.5,0.3-1,0.1-1-0.4V75.1
		C76.8,74.6,77.3,73.9,77.8,73.6z"/>
	<path class="st25" d="M91.8,65.4l8.6-5c0.6-0.3,1.1-0.1,1.1,0.5v10.7c0,0.6-0.5,1.4-1.1,1.7l-8.6,5c-0.6,0.3-1.1,0.1-1.1-0.5V67.1
		C90.7,66.5,91.2,65.8,91.8,65.4z"/>
	<path class="st30" d="M91.8,65.5l8.6-5c0.5-0.3,1-0.1,1,0.4v10.7c0,0.5-0.4,1.2-1,1.5l-8.6,5c-0.5,0.3-1,0.1-1-0.4V67.1
		C90.8,66.5,91.2,65.8,91.8,65.5z"/>
	<path class="st25" d="M105.7,57.4l8.6-5c0.6-0.3,1.1-0.1,1.1,0.5v10.7c0,0.6-0.5,1.4-1.1,1.7l-8.6,5c-0.6,0.3-1.1,0.1-1.1-0.5V59.1
		C104.6,58.5,105.1,57.7,105.7,57.4z"/>
	<path class="st30" d="M105.7,57.5l8.6-5c0.5-0.3,1-0.1,1,0.4v10.7c0,0.5-0.4,1.2-1,1.5l-8.6,5c-0.5,0.3-1,0.1-1-0.4V59
		C104.7,58.5,105.2,57.8,105.7,57.5z"/>
	<text transform="matrix(1 -0.5779 0 1 93.8728 72.1373)" class="st31 st32 st33">28</text>
	<text transform="matrix(1 -0.5779 0 1 93.2513 68.2074)" class="st31 st34 st35">MAR</text>
	<text transform="matrix(1 -0.5779 0 1 93.4094 75.8377)" class="st31 st34 st35">MAY</text>
	<text transform="matrix(1 -0.5779 0 1 80.0558 80.1217)" class="st31 st32 st33">27</text>
	<text transform="matrix(1 -0.5779 0 1 79.4555 76.1796)" class="st31 st34 st35">HOY</text>
	<text transform="matrix(1 -0.5779 0 1 79.4631 83.8969)" class="st31 st34 st35">MAY</text>
	<text transform="matrix(1 -0.5779 0 1 108.0119 63.9668)" class="st31 st32 st33">29</text>
	<text transform="matrix(1 -0.5779 0 1 107.8994 59.7427)" class="st31 st34 st35">MIE</text>
	<text transform="matrix(1 -0.5779 0 1 107.5688 67.6554)" class="st31 st34 st35">MAY</text>
	<text transform="matrix(1 -0.5779 0 1 121.5608 56.1373)" class="st7 st32 st33">30</text>
	<text transform="matrix(1 -0.5779 0 1 121.5405 51.86)" class="st7 st34 st35">JUE</text>
	<text transform="matrix(1 -0.5779 0 1 121.2995 59.7209)" class="st7 st34 st35">MAY</text>
</g>
</svg>
