<?xml version="1.0" encoding="utf-8"?>
<!-- Generator: Adobe Illustrator 24.0.0, SVG Export Plug-In . SVG Version: 6.00 Build 0)  -->
<svg version="1.1" id="Layer_1" xmlns="http://www.w3.org/2000/svg" xmlns:xlink="http://www.w3.org/1999/xlink" x="0px" y="0px"
	 width="140px" height="140px" viewBox="0 0 140 140" style="enable-background:new 0 0 140 140;" xml:space="preserve">
<style type="text/css">
	.st0{opacity:0.4;fill:#4D4D4F;enable-background:new    ;}
	.st1{fill:#603813;}
	.st2{fill:#0F2A4B;}
	.st3{fill:#C3996B;}
	.st4{fill:#F9C992;}
	.st5{fill:#FFFFFF;}
	.st6{fill:#E1AA73;}
	.st7{fill:#FAC882;}
	.st8{fill:#23323C;}
	.st9{fill:#F1F1F2;}
	.st10{fill:#4ABFA8;}
</style>
<ellipse class="st0" cx="37" cy="129" rx="17.8" ry="7.1"/>
<g>
	<g>
		<path class="st1" d="M36.8,122.4c0,0-0.7,1,0,1.6c0.7,0.6,11.4,4.7,13,3.2c1.6-1.5-7.4-7.3-8.9-7.1S36.8,122.4,36.8,122.4z"/>
		<path class="st1" d="M24.8,124.3c0,0-1.3,3.9-1.1,6.5c0.1,2.7,0.9,3.8,2.6,4s3.4-1.7,3.4-4.3c0-2.7-0.5-7.4-0.5-7.4L24.8,124.3z"
			/>
		<path class="st2" d="M42.2,67.8c0,0-9.7,2.4-22.4,1.3l3.9,55.1c0,0,5.7,2.3,6.6-0.4c0.4-3.3,2.3-37.7,2.1-39.5
			c2.2,2.9,3.7,33.3,3.9,38.7c0,0,5.1,0.9,6-2.5C43,117.1,43.7,80.8,42.2,67.8z"/>
		<path class="st1" d="M42.2,67.8l0.2,2.7c0,0-7.8,1.4-20.7,1.1c-0.8-2-0.8-2.6-0.8-2.6L42.2,67.8z"/>
		<rect x="39.3" y="68.1" class="st3" width="1.1" height="3.3"/>
		<rect x="24.3" y="68.9" class="st3" width="1.1" height="3.3"/>
		<rect x="31.1" y="68.7" class="st3" width="3.1" height="3.3"/>
		<path class="st4" d="M16.9,77.1c0,0,0.5,3.5,0.7,4.6c0.2,1,1.9,1.7,2.6,1.7c0.7,0,2-0.4,2.2-2.3s-0.4-5.3-0.4-5.3
			S18.9,74.8,16.9,77.1z"/>
		<path class="st4" d="M62.1,39.9c0,0,3.1-2.7,4.1-3.5c0.9-0.7,2.9-0.1,3.5,0.5c0.6,0.6,1.5,1.9,0.1,3.7c-1.3,1.8-4.4,4.4-4.4,4.4
			S62.1,43.4,62.1,39.9z"/>
		<g>
			<path class="st5" d="M28,26.8c0,0-9.4,1.6-11.3,5s-2.5,18.5-2.5,18.5l6.7,1.5l-1,17.3c0,0,4.4,0.4,11.8,0.1
				c7.9-0.3,10.6-1.4,10.6-1.4s1.2-16.6,0.1-22.6c2.8-1.1,4.7-2.5,4.7-2.5s-2-13.7-3-14.8C43,26.9,35.9,24.4,28,26.8z"/>
			<path class="st4" d="M28.2,24c0,0-0.3,3-0.2,4c0.1,1,1.7,3.4,5,2.8c3.3-0.6,2.5-0.8,2.4-2.2c-0.1-1.3-0.4-4-0.4-4L28.2,24z"/>
			<path class="st6" d="M34.7,25.4c0,0-6.1,0.1-6.6-0.7C28,26.4,28,26.4,28,26.4S32.5,27.5,34.7,25.4z"/>
			<path class="st5" d="M22.7,37.6c0,0-3.6-7.9-5.6-6.4s-2.4,3.2-2.4,3.2c-0.1,1.9-1,20.5-1.3,22.2c-0.3,1.7-0.3,2.3,0,3.8
				c0.3,1.4,2.2,13.2,2.8,17.3c2-1.9,5.7-2,5.7-2v-1.2l-1.7-11.3c-0.5-2.3-0.6-5.4-0.4-6.6c0.2-1.3,0.7-5.2,1.6-4.9L22.7,37.6z"/>
			<path class="st5" d="M42.4,45.3c0,0,10,9.6,10.8,9.9c0.8,0.3,1.7-0.5,2.5-1.1c0.8-0.7,10.2-8.2,10.2-8.2l-3.5-6.7l-8.5,6.1
				c0,0-8-16-9.7-17.2"/>
		</g>
		<g>
			<g>
				<path class="st4" d="M31.9,26L31.9,26c-3.9,0-7.1-3.1-7.2-7l-0.2-8.6h14.7v8.4C39.2,22.7,35.9,26,31.9,26z"/>
				<path class="st7" d="M26.4,19.5L26.4,19.5c-1.2,0-2.1-0.9-2.1-2.1l-0.1-2.6h4.4v2.5C28.6,18.6,27.6,19.5,26.4,19.5z"/>
			</g>
			<path class="st1" d="M23.1,8.3C24,7,27.8,3.9,30.3,4s5.6,0.7,6.8,2.3c0.3,0.4,0.9,0.8,1.6,1.1c1.8,0.8,2.3,3.1,1.1,4.6
				c-1.1,1.4-2.8,2.5-4.8,2.5c-4.2-0.1-6.6-2-6.6-2s-0.9,0.6-0.7,1.3c0.2,0.7-0.2,2.6-0.2,3.1c0,0.5-0.8,0-0.8,0s-1.2-1.9-2.3-0.7
				C22.8,15.9,21.4,10.8,23.1,8.3z"/>
		</g>
	</g>
</g>
<path class="st8" d="M26.4,27.1c-2.8,0.6-8.3,2.1-9.7,4.7c5.1,3.9,4.4,14.3,4.4,14.3l-0.8,17c0,0,0.7,4.1,0.8,6.1
	c1.8,0.1,5.5,0.2,10.7,0c7.9-0.3,10.6-1.4,10.6-1.4s1.2-16.6,0.1-22.6c2.3-9.9,2.8-16.2,1.7-17.3c-0.7-0.7-3.7-1.9-7.8-2.1
	c0,0-0.8,8.6-2.7,11.2C29.8,34.4,26.4,27.1,26.4,27.1z"/>
<g>
	<polygon class="st9" points="32.9,30.8 29.8,34.4 26.4,27.2 27.7,25.2 	"/>
	<polygon class="st9" points="32.9,30.8 35.7,33.5 36.2,26 34.9,24.7 	"/>
</g>
<g>
	<g>
		<path class="st10" d="M39.2,35L39.2,35l0.6-0.3c0,0,0,0,0,0l0.2-0.8c0,0,0,0,0,0L39.2,35z"/>
	</g>
	<g>
		<path class="st10" d="M40.8,34.8L40.8,34.8l-0.6-0.1c0,0,0,0,0,0L40,33.9c0,0,0,0,0,0L40.8,34.8z"/>
	</g>
	<g>
		<path class="st10" d="M36.4,36.9l0.2-0.2c0.1,0.1,0.2,0.1,0.2,0.1c0.1,0,0.2-0.1,0.2-0.2v-0.9l0.3,0v0.9c0,0.2,0,0.3-0.1,0.4
			C37.1,36.9,37,37,36.9,37C36.7,37,36.5,37,36.4,36.9z"/>
	</g>
	<g>
		<path class="st10" d="M37.8,35.5l1-0.1v0.3l-0.7,0.1V36l0.6-0.1v0.3l-0.6,0.1v0.3l0.7-0.1v0.3l-1,0.1V35.5z"/>
	</g>
	<g>
		<path class="st10" d="M41.5,35.8L41,35.1l0.3-0.1l0.3,0.5l0.3-0.6l0.3,0l-0.5,0.9v0.5l-0.3,0L41.5,35.8L41.5,35.8z"/>
	</g>
	<g>
		<polygon class="st10" points="39.9,36.6 39.9,35.2 39.2,35.3 39.2,35.6 39.6,35.5 39.6,36.6 		"/>
	</g>
	<g>
		<polygon class="st10" points="40.1,36.5 40.1,35.2 40.8,35.1 40.8,35.4 40.3,35.4 40.3,36.5 		"/>
	</g>
</g>
<g transform="matrix(1, 0, 0, 1, 0, 0)">
	<path id="Rectangle-2_5_" class="st5" d="M125.3,29.1l-40-22.8c-1.5-0.8-2.6-0.3-2.6,1.1v66.1c0,1.5,1.2,3.3,2.6,4.1l40,22.8
		c1.5,0.8,2.6,0.3,2.6-1.1V33.3C127.9,31.8,126.8,30,125.3,29.1z"/>
</g>
<polygon class="st8" points="125,42.2 85.5,19.3 85.5,16.4 125,39.3 "/>
<polygon class="st8" points="125,49.9 85.5,27 85.5,24.1 125,47.1 "/>
<polygon class="st8" points="125,57.7 85.5,34.7 85.5,31.8 125,54.8 "/>
<polygon class="st8" points="107.7,55.4 85.5,42.4 85.5,39.6 107.7,52.5 "/>
</svg>
