<?xml version="1.0" encoding="utf-8"?>
<!-- Generator: Adobe Illustrator 23.0.3, SVG Export Plug-In . SVG Version: 6.00 Build 0)  -->
<svg version="1.1" id="Layer_1" xmlns="http://www.w3.org/2000/svg" xmlns:xlink="http://www.w3.org/1999/xlink" x="0px" y="0px"
	 width="140px" height="140px" viewBox="0 0 140 140" style="enable-background:new 0 0 140 140;" xml:space="preserve">
<style type="text/css">
	.st0{fill:#E8E8E8;}
	.st1{fill:#4B6ABB;}
	.st2{fill:#B1C4EA;}
</style>
<g>
	<path class="st0" d="M97.4,51.3c-0.3,17.1-24.1,84.3-24.1,84.3l-14.4-8.8c-7.3-11.6-30.4-45-30.1-66.2
		c0.4-25.2,14.7-46.4,33.6-48.9c8.3-1.1,23.4,3.7,23.4,3.7S97.6,37.2,97.4,51.3z"/>
	<path class="st1" d="M108.9,55.6c-0.4,25.2-35.6,80.1-35.6,80.1S39.9,90,40.3,64.8c0.4-25.2,16.1-47.7,35-50.3
		S109.3,30.4,108.9,55.6z"/>
	<ellipse transform="matrix(0.1953 -0.9807 0.9807 0.1953 4.5054 121.7277)" class="st2" cx="76.4" cy="58.1" rx="21.6" ry="15.7"/>
</g>
</svg>
