<?xml version="1.0" encoding="utf-8"?>
<!-- Generator: Adobe Illustrator 24.0.0, SVG Export Plug-In . SVG Version: 6.00 Build 0)  -->
<svg version="1.1" id="Layer_1" xmlns="http://www.w3.org/2000/svg" xmlns:xlink="http://www.w3.org/1999/xlink" x="0px" y="0px"
	 width="140px" height="140px" viewBox="0 0 140 140" style="enable-background:new 0 0 140 140;" xml:space="preserve">
<style type="text/css">
	.st0{fill:#B2C4E5;}
	.st1{fill:#4F6BB3;}
	.st2{fill:#FFFFFF;}
	.st3{fill:#F5B47D;}
	.st4{fill:#E2DEDA;}
	.st5{opacity:0.4;fill:#4E4E50;enable-background:new    ;}
	.st6{fill:#141A19;}
	.st7{fill:#E9A776;}
	.st8{fill:#333434;}
	.st9{fill:#8393C9;}
	.st10{fill:#A67031;}
	.st11{fill:#E9AB7B;}
	.st12{fill:#DE9F77;}
	.st13{fill:#282560;}
	.st14{fill:#6B638D;}
	.st15{clip-path:url(#SVGID_2_);}
	.st16{fill:#E6E7E7;}
	.st17{fill:#4AC0B0;}
	.st18{fill:#F2F2F2;}
</style>
<g>
	<path class="st0" d="M73.2,17.3L96.5,3.9c1-0.6,2.1-0.5,3.1-0.1l0,0l0.2,0.1c0.1,0,0.1,0.1,0.2,0.1l1.9,1.1l-0.6,0.3
		c0.2,0.4,0.3,0.9,0.3,1.4v10.5c0,2.2-1.1,4.2-3.1,5.3L85.9,30c0,0-0.4,3.8-3.1,6.8l0.4,0.7l-1.9,3.3l-2.2-1.3
		c1.1-1.8,0.4-5.9,0.4-5.9l-4.3,2.5c-0.2,0.1-0.3,0.1-0.5,0.2l0,0.1l-0.5,1.1l-2.4-1.4c0,0-0.1,0-0.1-0.1l-0.1-0.1l0,0
		c-0.9-0.6-1.5-1.6-1.5-2.8V22.6C70.1,20.4,71.3,18.3,73.2,17.3z"/>
	<path class="st1" d="M72.3,23.9v10.5c0,2.6,2.9,4.3,5.1,3l4.3-2.5c0,0,0.7,4.1-0.4,5.9c6-2.7,6.7-9.6,6.7-9.6l12.7-7.3
		c1.9-1.1,3.1-3.1,3.1-5.3V8.2c0-2.6-2.9-4.3-5.1-3L75.4,18.6C73.5,19.7,72.3,21.7,72.3,23.9z"/>
	<g>
		<g>
			<path class="st2" d="M87.3,19.4v0.4l2.6-2.9c0.1-0.1,0.1-0.1,0.1-0.2l0.7-3.7c0-0.1-0.1-0.1-0.1,0L87.3,19.4z"/>
		</g>
		<g>
			<path class="st2" d="M94,15.6V16l-2.6,0.1c-0.1,0-0.1,0-0.1-0.1l-0.7-2.9c0-0.1,0.1-0.1,0.1-0.1L94,15.6z"/>
		</g>
		<g>
			<path class="st2" d="M75.2,32.7l0.8-1.4c0.3,0.2,0.7,0.2,1.1,0c0.5-0.3,0.8-0.7,0.8-1.4v-3.8l1.3-0.8v3.8c0,0.7-0.2,1.3-0.6,1.9
				c-0.4,0.6-0.9,1-1.5,1.4C76.2,33,75.6,32.9,75.2,32.7z"/>
		</g>
		<g>
			<path class="st2" d="M81.3,24.1l4.4-2.5v1.1l-3.1,1.8v1.2l2.8-1.6v1.1l-2.8,1.6v1.2l3.2-1.8v1.1L81.3,30V24.1z"/>
		</g>
		<g>
			<path class="st2" d="M97.4,18.5l-2.2-2.3l1.5-0.9l1.4,1.6l1.4-3.2l1.5-0.8l-2.2,4.8v2.3l-1.3,0.7V18.5z"/>
		</g>
		<g>
			<polygon class="st2" points="90.3,24.9 90.3,19 87.3,20.7 87.3,21.9 89.1,20.9 89.1,25.5 			"/>
		</g>
		<g>
			<polygon class="st2" points="91,24.4 91,18.6 94,16.9 94,18.1 92.2,19.1 92.2,23.8 			"/>
		</g>
	</g>
</g>
<g>
	<path class="st3" d="M76.5,51.5c0,0,1.5-1.7,1.9-2.3s0.1-1.6-0.3-1.9c-0.3-0.3-1-0.8-2-0.1c-1,0.7-2.5,2.4-2.5,2.4
		S74.5,51.5,76.5,51.5z"/>
	<path class="st4" d="M58.2,45.1c0.7-0.7,3.9,2.9,4.7,4s4.7,5.8,4.7,5.8c0.6-0.6,4.6-4.7,6.1-5.7c0.8-0.2,3.1,1.1,2.7,2.4
		c-0.9,1.8-7.3,9.2-8.2,9.8s-6.9-4.5-7.4-5.3C60.2,55.2,56.7,46.7,58.2,45.1z"/>
	<ellipse class="st5" cx="57.3" cy="131.7" rx="12.8" ry="5.1"/>
	<path class="st6" d="M61.3,131.1c0.6,0.2,2.2,0.7,2.3,1.6c0.1,0.9-1.1,1.6-2.1,1.5c-1-0.1-3-0.3-3.9-0.6s-3.2-2.8-3.6-3.4
		s-1-1.6-1.1-2.1c-0.1-0.5,0.9-2.7,1.4-2S61.3,131.1,61.3,131.1z"/>
	<path class="st7" d="M60.9,100.9c0.9-1-0.7,6-1.7,9.5c-1,3.5-1.7,13.1-1.4,14.3c0.3,1.3,1.4,3.7,2.2,4.7c0.8,1,2.1,1.7,1.3,2.1
		c-0.9,0.4-2.1,0.5-3.5-0.6c-1.3-1-3.3-2.6-3.8-4.4c-0.3-1,0.5-2,0.6-3c0.4-3.8-1.3-11.2-1.4-14.8c-0.2-3.6,1-5.9,1.6-6.3
		S60.1,101.8,60.9,100.9z"/>
	<path class="st6" d="M49.4,127.5c-0.4,0.3-1.3,2.3-0.8,3.6c0.4,1.3,4.6,5,6.1,5.4c2.4,0.6,4.1,0.3,4.6,0c0.5-0.3,0.6-1.9-0.2-2.6
		c-0.4-0.4-2.2-1.7-3.2-1.9C54.9,131.6,49.4,127.5,49.4,127.5z"/>
	<path class="st3" d="M47.9,102.2c-0.6,0.9-2,6.5-0.8,12.8c1.2,6.3,2.5,9.4,2.5,10.8c0,1.3-0.9,2.5-0.2,3.8c0.7,1.3,4,4.2,5.3,4.4
		s2.8,0.3,2.1-1c-0.8-1.3-4.2-5.4-4.4-6.4c-0.2-1-0.1-14.8,0.2-16.1c0.2-1.3,0.7-1.9,1-3.7s0.6-3.9,0.4-4.7
		C53.8,101.1,47.9,102.2,47.9,102.2z"/>
	<path class="st8" d="M61.3,71.9c0.3,2.7,0.9,16,0.5,19.1c-0.3,3.1-0.2,8.5-0.2,9.1c0.1,0.6-3.2,3.4-8.5,3.2
		c-5.4-0.2-6.6-1.8-6.6-1.8s0.2-10.7-0.4-14.2c-0.6-3.6-1.6-4-1.3-8c0.2-4,2-7.3,2-7.3L61.3,71.9z"/>
	<path class="st9" d="M59.3,47.4c1,3.1,2.4,6.3,2.4,8.1c0,1.8-1.3,4.1-1.8,4.4c-0.6,0.3,0.2,4.8,0.7,6.1c1.1,2.8,0.8,5.9,0.8,5.9
		s-5.4,0.9-8.4,0.8c-3-0.1-6.1-0.7-6.1-0.7s-0.7-16.8-1.1-19.6s-3-3.1-1.8-5C46.3,43.5,57.3,41.3,59.3,47.4z"/>
	<path class="st10" d="M59.8,38.5c0.3,1.5-0.4,10.9-0.5,12.7c-1.5-1-4.1-4.5-4.5-7.4C54.5,40.8,59.8,38.5,59.8,38.5z"/>
	<path class="st11" d="M55.1,42.9c-0.4,0.5-0.4,5.8-0.4,5.8s-3.8-1.1-4.2-2.5c-0.4-1.4-0.2-9.4-0.2-9.4L55.1,42.9z"/>
	<path class="st2" d="M51.5,47.4l3.2,1.3l0.2-5l1.6,4c0,0-0.1,4-0.4,4.7c-1.9-1.1-3.7-2-4-2.5C51.8,49.4,51.5,47.4,51.5,47.4z"/>
	<path class="st12" d="M55.1,42.9c0,0-2.8-4-3.2-4.6c-0.4-0.5-1.5,0.9-1.5,0.9s0.1,1.1,0.4,1.8C51,41.7,52.6,42.7,55.1,42.9z"/>
	<path class="st3" d="M56.7,43.5c2.2,0.1,3.2-2.7,3.4-6.7s-0.8-7.5-1.5-8.2c-0.7-0.7-7.8,2-8.5,3.9c-0.7,1.9-0.9,6.5,1.8,6.6
		C51.8,40.5,54.5,43.4,56.7,43.5z"/>
	<g>
		<path class="st8" d="M46.1,46.9c2.3-0.9,6.3,6.5,6.6,10.3c0.3,3.8,0,5.5,0,5.5h1.9c0,0-0.6-8.8-3.6-13.2c-3-4.4-4.1-3.8-5-3.8
			c-0.9,0-4.7,1.5-6.5,14.5c1,0.9,1.7,0.7,1.7,0.7S40.9,48.9,46.1,46.9z"/>
		<path class="st8" d="M54.5,62.2c0.9,0.7,1.3,5.2,1.1,7.6c-0.8,1.1-2.9,2.3-2.9,2.3S40.3,71,37.7,68.8c-0.7-3.4,1.9-9.4,2.3-10
			C40.4,58.2,50,58.5,54.5,62.2z"/>
	</g>
	<path class="st3" d="M49.7,56.8c0,0,1.6-2.6,2.2-3.3c0.6-0.7,2.1-0.5,2.6-0.1s1.3,1.1,0.6,2.6s-3,3.5-3,3.5S50.2,59.3,49.7,56.8z"
		/>
	<path class="st4" d="M46.8,46.8c-2.3-0.6-3.2,0.7-3.9,2.8c-0.7,2.1-2.7,13-2.7,15.3s2.8,3,4.2,2.4s6.5-4.7,8.8-9
		c-1.3-0.7-2.5-1.8-2.9-2.4c-2.4,2.1-3.7,3.3-3.7,3.3s1.9-7.2,2.1-8.4S49.6,47.5,46.8,46.8z"/>
	<path class="st10" d="M60,34.4c0.8-2.4,0.5-5.5-0.7-7.1s-3-2.8-6-2.6s-7,3.4-7.1,6.4c-0.1,3-0.5,14.8-0.1,15.8
		c0.5,1.1,1.2,5.7,7.8,6.1c-2-2-2.4-6.2-2.6-7.1s-0.1-6.9-0.1-6.9s-1.4-0.7-1.4-2.9s1.8-1.9,2.1-1.5c0.3,0.5,1,0.7,1.5,0.2
		c0.5-0.5,3.6-2.6,4.2-4.3c0.5-1.7,1.6-0.9,1.6-0.9S59.9,32,60,34.4z"/>
	<g>
		<path class="st13" d="M77,40.6l0,0.3l2.9,2.5C80,43.6,80,43.8,80,44l-2.5,6.8l0.2,0.2c0.1,0.1,0.4,0,0.5,0c0.1,0,0.2-0.1,0.3-0.3
			l2.1-6.9c0-0.1,0-0.3-0.1-0.4l-2.6-2.8c-0.1-0.1-0.3-0.2-0.4-0.1C77.2,40.5,77,40.5,77,40.6z"/>
		<path class="st13" d="M77.6,50.9l-3-3.1c-0.1-0.1-0.1-0.3-0.1-0.4c0,0,1.9-6.5,2-6.7c0.1-0.2,0.8-0.3,0.9-0.3l2.4,3
			C80,43.6,80,43.8,80,44l-2.1,6.9C77.9,51,77.7,51,77.6,50.9z"/>
		<g>
			<path class="st2" d="M79.6,43.8l-2.6-2.7c-0.1-0.1-0.2-0.1-0.3,0.1L75,47.4c0,0.1,0,0.1,0,0.2l2.6,2.7c0.1,0.1,0.2,0.1,0.3-0.1
				l1.9-6.2C79.7,43.9,79.7,43.9,79.6,43.8z"/>
		</g>
		<g>
			<path class="st14" d="M79.2,42.7l0.5,0.5c0.1,0.2,0.4,0.3,0.4,0.6c0,0.3-0.1,0.4-0.2,0.7l-0.2,0.6l0,0l0.2-0.6
				c0-0.2,0.2-0.4,0.1-0.6c0-0.2-0.2-0.4-0.3-0.5L79.2,42.7L79.2,42.7z"/>
		</g>
		<g>
			<defs>
				<path id="SVGID_1_" d="M79.6,43.8l-2.6-2.7c-0.1-0.1-0.2-0.1-0.3,0.1L75,47.4c0,0.1,0,0.1,0,0.2l2.6,2.7
					c0.1,0.1,0.2,0.1,0.3-0.1l1.9-6.2C79.7,43.9,79.7,43.9,79.6,43.8z"/>
			</defs>
			<clipPath id="SVGID_2_">
				<use xlink:href="#SVGID_1_"  style="overflow:visible;"/>
			</clipPath>
			<g class="st15">
				<polygon class="st16" points="76.9,44.4 77.7,45.2 76.9,45.4 76.1,44.6 				"/>
				<polygon class="st16" points="76.2,43.7 76.8,44.2 75,44.7 74.9,44 				"/>
				<polygon class="st16" points="75.5,42.9 76.1,43.5 74.9,43.8 74.7,43 				"/>
				<polygon class="st16" points="77.9,44.1 78.7,45 77.9,45.2 77,44.3 				"/>
				<polygon class="st16" points="77.5,41.1 79,42.8 78.2,43 76.7,41.3 				"/>
				<polygon class="st16" points="76.8,42.9 77.5,43.7 76.7,43.9 75.9,43.1 				"/>
				<polygon class="st16" points="77.5,43.7 77.8,44 76.9,44.2 76.7,43.9 				"/>
				<polygon class="st16" points="79,46.6 79.8,47.4 79,47.6 78.1,46.8 				"/>
				<polygon class="st16" points="77.9,45.4 78.6,46.1 77.8,46.3 77,45.6 				"/>
				<polygon class="st16" points="78.6,46.2 78.8,46.4 78,46.6 77.8,46.4 				"/>
				<polygon class="st16" points="78.8,45.1 79.5,45.8 78.6,46 78,45.3 				"/>
				<polygon class="st16" points="79.8,44.9 80.5,45.6 79.7,45.8 79,45.1 				"/>
				<polygon class="st16" points="76.7,41.6 77.3,42.2 76.5,42.4 75.9,41.8 				"/>
				<polygon class="st16" points="78.9,43.9 79.7,44.8 78.9,45 78.1,44.1 				"/>
				<polygon class="st16" points="80.6,44.4 80.7,44.5 79.9,44.7 79.2,44 				"/>
				<polygon class="st16" points="79.9,43.7 80.4,44.2 79.2,43.8 				"/>
				<polygon class="st16" points="79.2,42.9 79.8,43.5 79,43.7 78.4,43.1 				"/>
				<polygon class="st16" points="78.6,43.8 77.9,44 77.5,43.5 				"/>
				<polygon class="st16" points="77.5,42.4 78.7,43.7 77.3,43.3 76.6,42.6 				"/>
				<polygon class="st16" points="77.3,46.1 77.8,46.7 77,46.9 76.5,46.3 				"/>
				<polygon class="st16" points="78,46.9 79.3,48.2 78.4,48.4 77.2,47.1 				"/>
				<polygon class="st16" points="77,46 76.3,46.2 75.9,45.7 				"/>
				<polygon class="st16" points="75.9,44.6 77.1,46 75.7,45.5 75.1,44.8 				"/>
				<polygon class="st16" points="75.7,48.4 76.5,49.3 75.7,49.5 74.9,48.6 				"/>
				<polygon class="st16" points="75.3,45.4 76.9,47 76,47.2 74.5,45.6 				"/>
				<polygon class="st16" points="74.6,47.2 75.3,48 74.5,48.2 73.8,47.4 				"/>
				<polygon class="st16" points="75.3,48 75.6,48.3 74.7,48.5 74.5,48.2 				"/>
				<polygon class="st16" points="76.6,49.4 77.3,50.1 76.5,50.3 75.8,49.6 				"/>
				<polygon class="st16" points="77.6,49.2 78.3,49.9 77.5,50.1 76.8,49.4 				"/>
				<polygon class="st16" points="74.5,45.8 75.2,46.5 74.3,46.7 73.7,46 				"/>
				<polygon class="st16" points="76.7,48.2 77.5,49 76.7,49.2 75.9,48.4 				"/>
				<polygon class="st16" points="78.4,48.7 78.5,48.8 77.7,49 77,48.3 				"/>
				<polygon class="st16" points="77.7,47.9 78.2,48.5 77,48.1 				"/>
				<polygon class="st16" points="77,47.2 77.6,47.8 76.8,48 76.2,47.4 				"/>
				<polygon class="st16" points="76.4,48.1 75.8,48.2 75.3,47.7 				"/>
				<polygon class="st16" points="75.3,46.6 76.5,48 75.1,47.5 74.5,46.8 				"/>
				<path class="st17" d="M78.2,43.6c0,0.1,0.1,0.5,0.1,0.5s0.3-0.2,0.3-0.3s0-0.3-0.1-0.3S78.2,43.5,78.2,43.6z"/>
				<circle class="st18" cx="78.4" cy="43.6" r="0.1"/>
			</g>
		</g>
	</g>
</g>
</svg>
