<?xml version="1.0" encoding="utf-8"?>
<!-- Generator: Adobe Illustrator 24.0.0, SVG Export Plug-In . SVG Version: 6.00 Build 0)  -->
<svg version="1.1" id="Layer_1" xmlns="http://www.w3.org/2000/svg" xmlns:xlink="http://www.w3.org/1999/xlink" x="0px" y="0px"
	 width="140px" height="140px" viewBox="0 0 140 140" style="enable-background:new 0 0 140 140;" xml:space="preserve">
<style type="text/css">
	.st0{opacity:0.3;fill:#404041;enable-background:new    ;}
	.st1{fill:#231F20;}
	.st2{fill:#323031;}
	.st3{fill:#CCCCCC;}
	.st4{fill:#999999;}
	.st5{enable-background:new    ;}
	.st6{fill:#E6E6E6;}
	.st7{fill:#FFFFFF;}
	.st8{fill:#F5F5F5;}
	.st9{fill:#465E67;}
	.st10{fill:#C8D6DD;}
	.st11{fill:#809D99;}
	.st12{fill:#33484F;}
	.st13{fill:#BE1E2D;}
	.st14{fill:none;}
	.st15{fill:#BABCBE;}
	.st16{fill:#626566;}
	.st17{fill:#F2F2F2;}
	.st18{fill:#D47733;}
	.st19{fill:#4C4B4E;}
	.st20{fill:#727170;}
	.st21{fill:#4C6775;}
	.st22{fill:#7095A1;}
	.st23{fill:#49BEAF;}
	.st24{fill:#2C2D2D;}
	.st25{fill:#ECEAD3;}
</style>
<g>
	<path class="st0" d="M136.7,93.2L57.6,47.9L25.7,66.1c-2.4,1.4-2.4,5,0,6.4l76.5,44c2,1.2,4.5,1.1,6.4,0l28-16.2
		C139.5,98.7,139.5,94.8,136.7,93.2z"/>
	<path class="st1" d="M85.2,91.7c-1.4-0.8-2.7-0.9-3.6-0.3l-2.8,1.6l0,0c-0.9,0.5-1.5,1.7-1.5,3.3c0,3.2,2.4,7.1,5.2,8.7
		c1.6,0.9,2.6,0.9,3.5,0.5l2.8-1.6c0.9-0.5,1.5-1.7,1.5-3.3C90.2,97.2,88,93.3,85.2,91.7z"/>
	<g>
		<path class="st2" d="M88,101.3c-0.3-2.9-2.4-6.2-5.3-7.7c-2.6-1.4-5-0.8-5.8,1.3c-0.2,0.4-0.3,0.8-0.3,1.3c0,0.4,0,0.9,0.1,1.3
			c0.3,2.1,1.5,4.3,3.3,5.9c0.6,0.6,1.3,1.1,2,1.4c0.5,0.3,1,0.5,1.5,0.6c1.9,0.4,3.5-0.2,4.1-1.7c0.2-0.4,0.3-1,0.3-1.6
			C88,101.9,88,101.5,88,101.3z M81.9,103.3c-1.8-0.9-3.3-2.9-3.7-4.8c-0.1-0.4-0.2-0.9-0.1-1.3c0-0.5,0.2-0.9,0.3-1.3
			c0.7-1.2,2.2-1.5,4-0.6c1.9,1,3.4,3,3.7,5c0.1,0.4,0.1,0.8,0.1,1.2c0,0.5-0.2,1-0.4,1.3C85.2,104,83.7,104.2,81.9,103.3z"/>
		<path class="st3" d="M86.2,100.2c-0.3-1.9-1.9-4-3.7-5c-1.7-0.9-3.3-0.6-4,0.6c-0.2,0.3-0.3,0.8-0.3,1.3c0,0.4,0,0.9,0.1,1.3
			c0.4,1.9,1.9,3.9,3.7,4.8c1.7,0.9,3.2,0.6,4-0.6c0.3-0.3,0.3-0.8,0.4-1.3C86.3,101,86.3,100.6,86.2,100.2z M82.5,101.7
			c-0.8-0.4-1.4-1.1-1.9-1.9c-0.4-0.8-0.7-1.5-0.6-2.3c0-0.3,0.1-0.6,0.2-0.8c0.4-0.9,1.5-1.2,2.7-0.5c1.3,0.7,2.3,2.2,2.5,3.5
			c0,0.3,0.1,0.4,0,0.7c-0.1,0.8-0.4,1.3-1,1.5C83.8,102.1,83.2,102,82.5,101.7z"/>
		<path class="st4" d="M85.3,99.7c-0.2-1.3-1.2-2.9-2.5-3.5c-1.2-0.7-2.3-0.4-2.7,0.5C80,97,80,97.2,80,97.5
			c-0.1,0.8,0.2,1.5,0.6,2.3c0.4,0.8,1.2,1.5,1.9,1.9c0.8,0.3,1.3,0.4,1.9,0.3c0.6-0.3,0.9-0.8,1-1.5
			C85.3,100.2,85.3,99.9,85.3,99.7z M82.8,99.9c-0.3,0.2-0.7,0-1-0.3c-0.3-0.4-0.3-0.8-0.1-1s0.7,0,1,0.3
			C83.1,99.2,83.1,99.7,82.8,99.9z"/>
		<path d="M81.8,99.5c0.3,0.4,0.8,0.6,1,0.3c0.3-0.2,0.3-0.7-0.1-1c-0.3-0.4-0.8-0.6-1-0.3C81.6,98.7,81.6,99.2,81.8,99.5z"/>
	</g>
	<path class="st1" d="M46.5,69.3c-1.4-0.8-2.7-0.9-3.6-0.3l-2.8,1.6l0,0c-0.9,0.5-1.5,1.7-1.5,3.3c0,3.2,2.4,7.1,5.2,8.7
		c1.6,0.9,2.6,0.9,3.5,0.5l2.8-1.6c0.9-0.5,1.5-1.7,1.5-3.3C51.7,74.9,49.4,71,46.5,69.3z"/>
	<g class="st5">
		<path class="st6" d="M105,97.4c-0.8-12.3-2.4-22-2.4-22L32,34.7l-1.3,3.6l-0.1,31.8l7,4c0-0.2,0-0.3,0-0.5c0-0.5,0.2-1,0.3-1.4
			c0.8-2.3,3.4-3,6.3-1.5c3,1.6,5.5,5.2,5.7,8.4c0,0.3,0.1,0.7,0,1c0,0.3-0.1,0.7-0.2,1l26.4,15.3c0-0.2,0-0.3,0-0.6
			c0-0.5,0.2-1,0.3-1.4c0.8-2.3,3.4-3,6.3-1.5c3,1.6,5.5,5.2,5.7,8.4c0,0.3,0.1,0.7,0,1c0,0.4-0.1,0.8-0.2,1.1l16.7,9.7
			C105,113.1,105.8,109.7,105,97.4z"/>
		<g>
			<path class="st7" d="M102.5,75.4l25.9-15.1c0,0,2.4,17.8,2.4,26.4s0,11.3,0,11.3s-1.5,2.8-10.5,7.9c-8.9,5.2-15.4,7.2-15.4,7.2
				s0-3.9,0-13.7C105,91.4,102.5,75.4,102.5,75.4z"/>
		</g>
		<g>
			<path class="st8" d="M32.1,34.7L58,19.6l70.5,40.7c0,0-2.1,2.9-10.8,7.8c-8.9,5.1-15.1,7.2-15.1,7.2L32.1,34.7z"/>
		</g>
		<g>
			<path class="st6" d="M30.5,60v10l7,4c0-0.2,0-0.3,0-0.5c0-0.5,0.2-1,0.3-1.4c0.8-2.3,3.4-3,6.3-1.5c3,1.6,5.5,5.2,5.7,8.4
				c0,0.3,0.1,0.7,0,1c0,0.3-0.1,0.7-0.2,1l26.4,15.3c0-0.2,0-0.3,0-0.6c0-0.5,0.2-1,0.3-1.4c0.8-2.3,3.4-3,6.3-1.5
				c3,1.6,5.5,5.2,5.7,8.4c0,0.3,0.1,0.7,0,1c0,0.4-0.1,0.8-0.2,1.1l16.7,9.8c0,0,0.5-2.4,0.3-9.9L30.5,60z"/>
			<path class="st6" d="M103.6,80.9c-0.5-4.2-0.9-5.5-0.9-5.5L32,34.7l-1.3,3.6v0.6L103.6,80.9z"/>
		</g>
	</g>
	<g>
		<path class="st2" d="M49.3,78.9c-0.3-2.9-2.4-6.2-5.3-7.7c-2.6-1.4-5-0.8-5.8,1.3c-0.2,0.4-0.3,0.8-0.3,1.3c0,0.4,0,0.9,0.1,1.3
			c0.3,2.1,1.5,4.3,3.3,5.9c0.6,0.6,1.3,1.1,2,1.4c0.5,0.3,1,0.5,1.5,0.6c1.9,0.4,3.5-0.2,4.1-1.7c0.2-0.4,0.3-1,0.3-1.6
			C49.4,79.5,49.4,79.2,49.3,78.9z M43.3,81c-1.8-0.9-3.3-2.9-3.7-4.8c-0.1-0.4-0.2-0.9-0.1-1.3c0-0.5,0.2-0.9,0.3-1.3
			c0.7-1.2,2.2-1.5,4-0.6c1.9,1,3.4,3,3.7,5c0.1,0.4,0.1,0.8,0.1,1.2c0,0.5-0.2,1-0.4,1.3C46.5,81.6,45,81.9,43.3,81z"/>
		<path class="st3" d="M47.5,77.9c-0.3-1.9-1.9-4-3.7-5c-1.7-0.9-3.3-0.6-4,0.6c-0.2,0.3-0.3,0.8-0.3,1.3c0,0.4,0,0.9,0.1,1.3
			c0.4,1.9,1.9,3.9,3.7,4.8c1.7,0.9,3.2,0.6,4-0.6c0.3-0.3,0.3-0.8,0.4-1.3C47.7,78.7,47.6,78.3,47.5,77.9z M43.8,79.4
			c-0.8-0.4-1.4-1.1-1.9-1.9c-0.4-0.8-0.7-1.5-0.6-2.3c0-0.3,0.1-0.6,0.2-0.8c0.4-0.9,1.5-1.2,2.7-0.5c1.3,0.7,2.3,2.2,2.5,3.5
			c0,0.3,0.1,0.4,0,0.7c-0.1,0.8-0.4,1.3-1,1.5C45.2,79.8,44.6,79.7,43.8,79.4z"/>
		<path class="st4" d="M46.7,77.4c-0.2-1.3-1.2-2.9-2.5-3.5c-1.2-0.7-2.3-0.4-2.7,0.5c-0.1,0.3-0.2,0.5-0.2,0.8
			c-0.1,0.8,0.2,1.5,0.6,2.3c0.4,0.8,1.2,1.5,1.9,1.9c0.8,0.3,1.3,0.4,1.9,0.3c0.6-0.3,0.9-0.8,1-1.5C46.8,77.9,46.8,77.6,46.7,77.4
			z M44.3,77.5c-0.3,0.2-0.7,0-1-0.3c-0.3-0.4-0.3-0.8-0.1-1c0.3-0.2,0.7,0,1,0.3S44.5,77.4,44.3,77.5z"/>
		<path d="M43.2,77.2c0.3,0.4,0.8,0.6,1,0.3c0.3-0.2,0.3-0.7-0.1-1c-0.3-0.4-0.8-0.6-1-0.3C42.9,76.3,42.9,76.8,43.2,77.2z"/>
	</g>
	<g>
		<polygon class="st9" points="88.2,73.3 88.2,85.9 33.2,54.2 33.2,41.7 		"/>
	</g>
	<g>
		<polygon class="st9" points="99.9,80.1 99.9,109.2 89.9,103.5 89.9,74.3 		"/>
	</g>
	<path class="st10" d="M109.5,106.5c0-0.3-0.2-0.6-0.4-0.8c-0.3-0.2-0.7-0.2-1.1,0.1c-0.5,0.3-0.8,0.7-1.1,1.2
		c-0.2,0.3-0.3,0.7-0.3,1c0.1,0.8,0.8,1.1,1.5,0.7C108.9,108.3,109.5,107.3,109.5,106.5z"/>
	<path class="st10" d="M111.7,106c0-0.2-0.1-0.3-0.3-0.4c-0.2-0.1-0.3-0.1-0.6,0c-0.3,0.2-0.5,0.3-0.6,0.7c-0.1,0.2-0.2,0.3-0.1,0.5
		c0,0.4,0.4,0.6,0.8,0.3C111.4,106.9,111.7,106.4,111.7,106z"/>
	<path class="st10" d="M129.8,96c0-0.3-0.2-0.6-0.4-0.8s-0.7-0.2-1.1,0.1c-0.5,0.3-0.8,0.7-1.1,1.2c-0.2,0.3-0.3,0.7-0.3,1
		c0.1,0.8,0.8,1.1,1.5,0.7C129.2,97.7,129.8,96.8,129.8,96z"/>
	<path class="st10" d="M126.2,98.7c0-0.2-0.1-0.3-0.3-0.4c-0.2-0.1-0.3-0.1-0.6,0c-0.3,0.2-0.5,0.3-0.6,0.7
		c-0.1,0.2-0.2,0.3-0.1,0.5c0,0.4,0.4,0.6,0.8,0.3C125.8,99.7,126.2,99.2,126.2,98.7z"/>
	<path class="st10" d="M105.2,103.8c0,0,6.9-0.3,15.2-4.5c8.3-4.2,10.2-8.8,10.2-8.8s-3.1,4.7-10.4,8.4
		C113,102.5,105.2,103.8,105.2,103.8z"/>
	<path class="st7" d="M121.6,101.4L121.6,101.4l-3.6,2.1l-0.3,0.2c-0.1,0.1-0.2,0.2-0.2,0.3v1.3c0,0.2,0.3,0.3,0.4,0.3l3.9-2.2
		c0.1-0.1,0.2-0.2,0.2-0.3v-1.3C122,101.4,121.9,101.3,121.6,101.4z"/>
	<path class="st9" d="M127.9,61.9c0,0-2,2.8-10.4,7.5c-8.6,4.9-14.5,6.9-14.5,6.9s1.5,6.7,2.4,24.4c9.3-2,18.3-5.4,24.6-12.8
		C130.2,75.5,127.9,61.9,127.9,61.9z"/>
	<path class="st11" d="M129.3,85.4l-9.1-5.2V69.3l3.8-2.6l3.8,1.9c0,0,1,3.7,1.3,8.9C129.4,82.7,129.3,85.4,129.3,85.4z"/>
	<path class="st12" d="M105.6,98.4c-0.6-12-1.5-19-2-22.2c-0.3,0.1-0.4,0.2-0.4,0.2s1.5,6.7,2.4,24.4c9.3-2,18.3-5.4,24.6-12.8
		c0-0.8,0-1.5,0-2.3C123.8,92.9,114.8,96.4,105.6,98.4z"/>
	<polygon class="st13" points="31.2,62.3 30.5,62.3 30.5,67.7 30.5,67.7 31,67.7 31.6,67.3 31.6,67 31.6,63 	"/>
	<g>
		<polygon class="st12" points="95.3,77.4 95.3,106.5 94.3,105.9 94.3,76.9 		"/>
	</g>
	<g>
		<polygon class="st12" points="75.4,66 75.4,78.5 74.4,77.9 74.4,65.4 		"/>
	</g>
	<g>
		<polygon class="st12" points="46.1,49.1 46.1,61.6 45.2,61 45.2,48.6 		"/>
	</g>
	<g>
		<polygon class="st12" points="61.2,57.8 61.2,70.3 60.2,69.8 60.2,57.2 		"/>
	</g>
	<g>
		<polygon class="st11" points="119,69.5 119,77.7 111.8,73.5 		"/>
	</g>
	<g>
		<path class="st12" d="M103.9,81.1c0.5,3.9,1.2,10.2,1.6,19.5c0.1,0,0.2,0,0.2-0.1C105.2,90.6,104.5,84.3,103.9,81.1z"/>
		<path class="st12" d="M117.9,71.5c8.3-4.7,10.4-7.5,10.4-7.5s0.1,0.5,0.2,1.3c-0.3-2.2-0.5-3.5-0.5-3.5s-2,2.8-10.4,7.5
			c-8.6,4.9-14.5,6.9-14.5,6.9s0.2,0.7,0.4,2.2C104.3,78.2,109.9,76.1,117.9,71.5z"/>
	</g>
	<g>
		<path class="st10" d="M49.8,34.6l0.3-0.3l8.1-4.7l10.6,6.1l0.4,0.3c0,0-0.7,0.8-3.5,2.5c-2.9,1.7-5,2.4-5,2.4L49.8,34.6z"/>
	</g>
	<g>
		<path class="st7" d="M50.4,34.3l7.8-4.5l10.4,6c0,0-0.7,0.9-3.4,2.4c-2.8,1.6-4.5,2.1-4.5,2.1L50.4,34.3z"/>
	</g>
	<g>
		<path class="st10" d="M86.4,55.2l0.3-0.3l8.1-4.7l10.6,6.1l0.4,0.3c0,0-0.7,0.8-3.5,2.5c-2.9,1.7-5,2.4-5,2.4L86.4,55.2z"/>
	</g>
	<g>
		<path class="st7" d="M86.9,55l7.8-4.5l10.4,6c0,0-0.7,0.9-3.4,2.4c-2.8,1.6-4.5,2.1-4.5,2.1L86.9,55z"/>
	</g>
</g>
<g>
	<g>
		<path class="st7" d="M57.1,121.7c2,0.7,3.6,0.1,4.2-1.5l1.7,0.9c0,0,3,1.6,6.1,0.9c3.2-0.7,8.6-3.4,10.3-4.4c1.7-1,4.7-3.2,5.1-4
			c0.4-0.8,0.3-5.1-0.1-5.7c0,0-0.1-0.4-0.1-0.9c0,0,0-0.1,0-0.1s0-0.1,0-0.1c-0.1-0.1-0.1-0.2-0.1-0.3c-0.1-0.3-0.1-0.5-0.1-0.9
			c0-0.1,0-0.1,0-0.1c-0.1-0.1-0.1-0.2-0.1-0.3s0-0.1,0-0.2c-0.1-0.1-0.1-0.2-0.1-0.3c0-0.1,0-0.1,0-0.1c-0.1-0.1-0.1-0.2-0.1-0.3
			c0-0.1,0-0.1,0-0.1s0-0.1,0-0.2c0-0.1,0-0.1,0-0.1c-0.1-0.1-0.1-0.2-0.1-0.3c-0.1-0.9-5.6-9.7-5.6-9.7s-0.3-0.8-0.8-2
			c0.1,0,0.1,0.1,0.1,0.1l0,0c-0.1,0-0.1-0.1-0.2-0.1c-0.1-0.1-0.1-0.2-0.1-0.3l0.1-0.1h0.1c0.3-0.1,0.4-0.3,0.4-0.5v-4.2
			c0-0.3-0.3-0.6-0.6-0.5l-0.7,0.3c-0.3,0.1-0.4,0.3-0.4,0.5v1.6v0.1c-0.9-2-1.8-4.1-2.4-5.3c-1.6-2.9-3.2-5.1-4.6-6.8
			c-1.1-1.4-5.4-3.6-5.4-3.6L26.8,51.5L8.8,61.9l-1.8,4.6c-0.1,0.4-0.2,0.8-0.2,1.2v17.6v0.1v0.7v0.9c0,0,1.7,3.2,2.1,3.7l5.7,3.2
			c0.3,1.9,1.4,3.8,2.8,5.2c0,0,28.9,16.5,37.3,21.3c0.1,0.1,0.2,0.2,0.3,0.3c0.1,0.1,0.3,0.1,0.4,0.2c0.3,0.2,0.6,0.4,0.9,0.6
			c0.2,0.1,0.3,0.1,0.5,0.2c0.1,0.1,0.3,0.2,0.5,0.3c0.1,0,0.1,0,0.1,0.1C57.3,121.9,57.2,121.8,57.1,121.7z M20.6,100.8
			c1.7,0.4,3.1-0.2,3.7-1.5l27.3,15.5c0.3,2.1,1.6,4.4,3.4,5.8C46.6,115.7,32.2,107.4,20.6,100.8z"/>
		<path class="st7" d="M80.3,93.4c-0.3-0.2-1.3-0.7-2.8-1.7C79,92.7,80,93.2,80.3,93.4z"/>
		<path class="st7" d="M61.6,124.3L61.6,124.3L61.6,124.3z"/>
	</g>
	<g>
		<path class="st14" d="M8.9,61.9L8.9,61.9L8.9,61.9z"/>
		<path class="st15" d="M66.6,118.8c-0.1,0-0.1,0-0.1,0C66.5,118.8,66.6,118.8,66.6,118.8z"/>
		<path class="st15" d="M65.4,118.6L65.4,118.6L65.4,118.6z"/>
		<path class="st15" d="M64.4,118.4c-0.1,0-0.1,0-0.1-0.1C64.3,118.4,64.4,118.4,64.4,118.4z"/>
		<path class="st15" d="M64.8,118.5c-0.1,0-0.1,0-0.1-0.1C64.8,118.5,64.8,118.5,64.8,118.5z"/>
		<path class="st15" d="M66,118.8c-0.1,0-0.1,0-0.1,0S66,118.8,66,118.8z"/>
		<path class="st0" d="M51.6,114.7L24.3,99.2c-0.6,1.3-2,1.9-3.7,1.5c11.6,6.7,26.1,15,34.4,19.7C53.2,119.1,51.9,116.8,51.6,114.7z
			"/>
		<path class="st0" d="M89.1,107.3c-1.4-1.5-4.5-2.8-4.8-3.5s-0.6-4.4-0.9-5.9c-0.3-1.5-0.3-2.9-3-4.5c-0.3-0.2-1.4-0.8-2.9-1.7
			c0.5,1.2,0.8,2,0.8,2s5.4,8.8,5.6,9.7c0,0.1,0,0.1,0.1,0.3c0,0.1,0,0.1,0,0.1c0,0.1,0,0.1,0,0.2c0,0.1,0,0.1,0,0.1
			c0,0.1,0,0.2,0.1,0.3c0,0.1,0,0.1,0,0.1c0,0.1,0,0.3,0.1,0.3c0,0.1,0,0.1,0,0.2s0,0.2,0.1,0.3c0,0.1,0,0.1,0,0.1
			c0.1,0.3,0.1,0.6,0.1,0.9c0,0.1,0,0.1,0.1,0.3c0,0.1,0,0.1,0,0.1s0,0.1,0,0.1l0,0c0.1,0.5,0.1,0.9,0.1,0.9
			c0.3,0.6,0.5,4.9,0.1,5.7c-0.4,0.8-3.4,3-5.1,4s-7.1,3.7-10.3,4.4c-3.1,0.7-6.1-0.9-6.1-0.9l-1.7-0.9c-0.7,1.6-2.3,2.3-4.2,1.5
			c2.7,1.6,4.4,2.5,4.6,2.6c1.3,0.7,3.6,2.3,6,0.9s19.1-10.9,20.9-12.2C90.5,111.9,90.5,108.8,89.1,107.3z"/>
		<path class="st15" d="M84.2,108.8c0-0.1,0.1-0.3,0.1-0.4C84.2,108.5,84.2,108.6,84.2,108.8z"/>
		<path class="st15" d="M68.7,118.8c-0.3,0.1-0.5,0.1-0.8,0.1C68.1,118.8,68.4,118.8,68.7,118.8z"/>
		<path class="st15" d="M67.7,118.9c-0.1,0-0.3,0-0.5,0C67.3,118.9,67.5,118.9,67.7,118.9z"/>
		<path class="st0" d="M14.6,93.8l-5.7-3.2c-0.4-0.5-2.1-3.7-2.1-3.7v-0.9v-0.7l0,0c-2.5,1.5-4.2,2.6-4.6,2.8
			c-1.5,1.1-1.3,1.5,0,2.2C2.7,90.6,9,94.2,17.5,99C16,97.6,14.9,95.7,14.6,93.8z"/>
		<polygon class="st8" points="8.8,61.9 8.9,61.9 8.9,61.9 27.9,72.8 45.7,83.1 54.1,78.2 63.6,72.8 26.8,51.5 		"/>
		<polygon class="st6" points="6.9,67.7 6.9,67.7 6.9,77.3 6.9,77.3 		"/>
		<path class="st6" d="M39,96.3c-0.1,0-0.1,0.1-0.2,0.1l-9.3,2.8l0,0l9.3-2.8C38.9,96.3,39,96.3,39,96.3z"/>
		<path class="st6" d="M39.4,95.5c0,0.2,0,0.3-0.1,0.5C39.4,95.9,39.4,95.7,39.4,95.5z"/>
		<path class="st6" d="M10,88.6l-0.4-0.2C9.8,88.5,9.9,88.6,10,88.6z"/>
		<polygon class="st6" points="32.2,75.5 32.2,75.5 33.9,80.2 33.9,80.2 		"/>
		<path class="st6" d="M6.9,85.4v0.7V85.4z"/>
		<path class="st6" d="M27.9,72.8l-19-10.9l0,0L27.9,72.8C27.8,72.8,27.9,72.8,27.9,72.8z"/>
		<path class="st6" d="M45.7,83.1L27.9,72.8l0,0L45.7,83.1z"/>
		<path class="st16" d="M77.4,91.3c0.3-0.1,0.4-0.3,0.4-0.5v-4.2c0-0.3-0.3-0.6-0.6-0.5l-0.7,0.3c-0.3,0.1-0.4,0.3-0.4,0.5v1.6
			c0.5,1.1,0.9,2.1,1.2,2.9H77.4z"/>
		<path class="st9" d="M55.3,99.2l0.7,0.1l-2.3-6.2c-0.3-0.9-0.9-1.6-1.7-2.1l-4.6-2.9v8.3l7.2,4.2v-0.9
			C54.6,99.4,55,99.2,55.3,99.2z"/>
		<path class="st16" d="M57,101.4V100c0-0.3-0.2-0.5-0.4-0.5L56,99.4l0.9,2.6V101.4z"/>
		<path class="st16" d="M54.6,100.6v3.3c0,0.3,0.2,0.5,0.4,0.5l1.3,0.3c0.3,0.1,0.6-0.2,0.6-0.5v-1.8v-0.5L54.6,100.6z"/>
		<path class="st16" d="M56,99.4l-0.7-0.1c-0.3-0.1-0.6,0.2-0.6,0.5v0.9l2.3,1.3L56,99.4z"/>
		<polygon class="st16" points="57,102 57,102.4 57.6,102.7 57.6,103.3 58.2,103.5 58.2,102 57,101.4 		"/>
		<path class="st17" d="M77.4,91.8c-0.1-0.1-0.1-0.3-0.2-0.4l-0.3,0.1C77.1,91.6,77.3,91.7,77.4,91.8z"/>
		<path class="st17" d="M70.3,78.8c1.8,3,2.4,6.2,2.4,6.2c0.1-0.1,0.2-0.1,0.3-0.2c0.4-0.2,0.6-0.3,0.6-0.3l2.4,5.8v-1.9
			c-0.9-2-1.8-4.1-2.4-5.3c-1.6-2.9-3.2-5.1-4.6-6.8s-5.4-3.6-5.4-3.6S68.5,75.8,70.3,78.8z"/>
		<path class="st17" d="M76.7,91.6L76.7,91.6l0.9,2.4l0,0l0,0l0,0l0,0c0,0,0,0.1-0.1,0.1c0,0,0,0,0,0.1l-0.1,0.1l-0.1,0.1
			c0,0.1-0.1,0.1-0.1,0.1l-0.1,0.1c0,0.1-0.1,0.1-0.1,0.1l0,0c0,0,4.9,10.7,5.2,11.2c0.3,0.5,0.2,3.9,0.3,6.1
			c0.2-0.2,0.3-0.3,0.5-0.5c0.7-0.8,0.9-1.7,1-2.4c0-0.1,0.1-0.3,0.1-0.4c0.1-0.3,0.1-0.5,0.2-0.5c0,0-0.1-0.4-0.1-0.9
			c0,0.1-0.3,0.5-0.4,0.5c-0.1,0.1-0.9,0.9-1.1,0.7c-0.2-0.2-0.2-1.9-0.1-2.2c0.1-0.3,0.3-0.2,0.6-0.6s0.6-2,0.6-2
			c-0.1-0.9-5.6-9.7-5.6-9.7s-0.3-0.8-0.8-2c-0.1-0.1-0.3-0.2-0.5-0.3L76.7,91.6z"/>
		<path class="st17" d="M71.9,111.7c-0.3-0.5-10.1-8.4-10.1-8.4l0,0c-1,0.4-1.6,0.6-1.6,0.6l-3.8-9.7c0,0,0.9-0.5,2.3-1.3l0,0
			c-1-3.6-6.5-7.9-8.9-8.6c-2.4-0.7-4.2-1.1-4.2-1.1s7.7,5,9.7,10.8c2,5.8,3.9,10.3,3.9,10.3s4.6,4.2,5.6,5.4
			c0.1-0.1,0.1-0.1,0.1-0.1c0.3,0.1,0.9,0.7,1.3,1.1c0.3,0.3,1.3,1.4,1.5,1.5c0.1,0,2.9,0,3.1,0c0.3,0,0.7-0.1,0.8,0.1
			c0,0,1,1.5,1.1,1.6c0.1,0.1-0.1,0.3-0.3,0.4c-0.1,0.1-4.4,0.8-4.8,0.9c-0.2,0-0.4-0.1-0.6-0.1c0,1.7,0,4,0,4.2l0,0
			c0.1,0,0.3,0,0.5,0c0.1,0,0.1,0,0.3,0c0.3,0,0.5-0.1,0.8-0.1c1.3-0.2,4-1.3,6.4-2.3C74.7,115.8,72.2,112.1,71.9,111.7z M50.1,85.9
			L50.1,85.9L50.1,85.9z"/>
		<path class="st17" d="M84.2,106.6c0,0.1,0,0.1,0,0.1C84.3,106.8,84.3,106.7,84.2,106.6z"/>
		<path class="st17" d="M84.1,105.5c0.1,0.3,0.1,0.6,0.1,0.9C84.2,106.2,84.2,105.8,84.1,105.5z"/>
		<path class="st17" d="M83.8,103.8c0,0.1,0,0.1,0,0.2C83.9,103.9,83.9,103.9,83.8,103.8z"/>
		<path class="st17" d="M83.9,104.2c0,0.1,0,0.2,0.1,0.3C84,104.4,83.9,104.3,83.9,104.2z"/>
		<path class="st17" d="M84,104.6c0,0.1,0,0.3,0.1,0.3C84,104.9,84,104.7,84,104.6z"/>
		<path class="st17" d="M84,105.1c0,0.1,0,0.2,0.1,0.3C84.1,105.3,84,105.3,84,105.1z"/>
		<path class="st17" d="M83.8,103.5c0,0.1,0,0.1,0.1,0.3C83.8,103.6,83.8,103.5,83.8,103.5z"/>
		<path class="st17" d="M76.4,91.2c0.2,0.1,0.3,0.2,0.5,0.3l0.3-0.1c-0.3-0.9-0.8-1.9-1.2-2.9v1.9L76.4,91.2z"/>
		<path class="st17" d="M76.7,91.6l0.3-0.1c-0.1-0.1-0.3-0.2-0.5-0.3l0.1,0.4C76.6,91.6,76.6,91.6,76.7,91.6z"/>
		<path class="st7" d="M72.8,85.1c-0.3,0.1-0.5,0.3-0.8,0.4c-0.2,0.1-0.3,0.1-0.5,0.3c-0.5,0.3-0.9,0.5-1.4,0.8
			c-0.3,0.1-0.6,0.3-0.9,0.5c0.1,0,0.1,0.1,0.1,0.1c-0.6,0.3-1.1,0.6-1.7,0.9c-0.1,0-0.1,0.1-0.1,0.1s-0.1,0.1-0.1,0.1
			c-1.5,0.8-3,1.7-4.5,2.5c-1.5,0.9-2.8,1.6-4,2.3c-1-3.6-6.6-7.9-8.9-8.6c-2.2-0.7-4-1.1-4.1-1.1l8.4-4.8c0,0,0,0-0.1,0l9.5-5.6
			c0,0,4.8,3,6.6,6.1C72.1,82,72.8,85.1,72.8,85.1z"/>
		<path class="st7" d="M76.9,94.7c-0.1,0.1-0.1,0.1-0.1,0.1c-0.1,0.1-0.1,0.1-0.1,0.1l0,0l0,0l0,0c-0.1,0.1-0.1,0.1-0.1,0.1
			c-0.1,0.1-0.1,0.1-0.1,0.1c-0.1,0.1-0.1,0.1-0.2,0.2l-0.1,0.1l0,0c-0.1,0.1-0.1,0.1-0.3,0.2c-0.1,0.1-0.3,0.3-0.5,0.4
			c-0.3,0.3-0.7,0.6-1.2,0.9c-0.9,0.7-2.1,1.4-3.4,2.1c-3.6,2.1-6.9,3.4-8.7,4.1l0,0c0,0,9.7,7.9,10.1,8.4c0.3,0.4,2.8,4.1,3.2,4.8
			c1.4-0.6,2.7-1.3,3.5-1.7c1.9-1.1,2.9-1.9,4-2.9c-0.1-2.2,0.1-5.6-0.3-6.1c-0.3-0.5-5.2-11.2-5.2-11.2l0,0
			C77.1,94.6,77,94.7,76.9,94.7z M69.4,102.5l-3.3,1.9c-0.1,0.1-0.3,0.1-0.3-0.1l-0.6-0.6c-0.1-0.1-0.1-0.4,0.1-0.5l3.4-1.9
			c0.1-0.1,0.3-0.1,0.3,0.1l0.6,0.6C69.6,102.2,69.5,102.5,69.4,102.5z M81.1,107.5c0.3-0.3,0.9-0.8,0.9-0.5c0,0.1,0,0.4,0,0.7l0,0
			v0.7l0,0c0,0.8-0.1,1.7-0.1,1.9c-0.1,0.4-0.1,0.6-0.3,0.8c-0.3,0.2-1.9,1.5-2.4,1.9s-2.8,1.5-3.4,1.7c-0.7,0.2-1,0.2-1.1-0.1
			c-0.1-0.1-0.1-0.2-0.3-0.4c0,0,0,0-0.1,0l-0.2-0.5c-0.2-0.3-0.3-0.6-0.5-0.9l-0.1-0.2l0,0c-0.1-0.3-0.3-0.4-0.3-0.5
			c-0.2-0.4,0.1-0.7,0.5-0.7c0.4-0.1,3-1,4.3-1.7C79.3,109.1,80.8,107.8,81.1,107.5z M77.3,97.5l-2.2,1.6c-0.1,0.1-0.3,0.1-0.4-0.1
			l-0.5-0.5c-0.1-0.1-0.1-0.3,0.1-0.5l2.2-1.6c0.1-0.1,0.3-0.1,0.4,0.1l0.5,0.5C77.5,97.2,77.5,97.4,77.3,97.5z"/>
		<path class="st10" d="M84,105c0,0.1,0,0.1,0,0.2C84,105.1,84,105.1,84,105z"/>
		<path class="st10" d="M84,104.5c0,0.1,0,0.1,0,0.1C84,104.6,84,104.5,84,104.5z"/>
		<path class="st10" d="M84.3,106.9c0-0.1,0-0.1,0-0.1C84.3,106.8,84.3,106.9,84.3,106.9L84.3,106.9z"/>
		<path class="st10" d="M83.8,103.7c0,0.1,0,0.1,0,0.1C83.8,103.8,83.8,103.7,83.8,103.7z"/>
		<path class="st10" d="M83.9,104.1c0,0.1,0,0.1,0,0.1C83.9,104.1,83.9,104.1,83.9,104.1z"/>
		<path class="st10" d="M84.2,106.4c0,0.1,0,0.2,0.1,0.3C84.2,106.6,84.2,106.5,84.2,106.4z"/>
		<path class="st10" d="M84.1,105.4c0,0.1,0,0.1,0,0.1C84.1,105.5,84.1,105.4,84.1,105.4z"/>
		<path class="st10" d="M82.6,106c-0.1,0.3-0.1,2,0.1,2.2c0.3,0.2,1.1-0.7,1.1-0.7c0.1-0.1,0.5-0.5,0.4-0.5c0-0.1,0-0.1,0-0.1
			s0-0.1,0-0.1s0-0.1-0.1-0.3c-0.1-0.3-0.1-0.6-0.1-0.9c0-0.1,0-0.1,0-0.1c0-0.1,0-0.2-0.1-0.3c0-0.1,0-0.1,0-0.2
			c0-0.1-0.1-0.3-0.1-0.3s0-0.1,0-0.1c0-0.1,0-0.2-0.1-0.3c0-0.1,0-0.1,0-0.1s0-0.1,0-0.2s0-0.1,0-0.1s0-0.2-0.1-0.3
			c0,0-0.3,1.6-0.6,2S82.6,105.8,82.6,106z"/>
		<path class="st10" d="M64.7,111.5c0.1,0.6,1.9,2.6,2.1,2.8c0.1,0.1,0.3,0.3,0.4,0.3c0-0.5,0-1.1,0-1.4c0-0.1,0-0.3-0.1-0.4
			c0,0.5-0.1,0.9-0.2,0.9c-0.2-0.1-1.3-1.4-1.5-1.6c-0.1-0.1-0.4-0.7-0.4-0.8s0.1-0.9,0.1-1.1c0-0.1,0.1-0.1,0.3-0.1
			c-0.1-0.2-0.3-0.3-0.3-0.5c0-0.1-0.1-0.1-0.1-0.2C64.6,109.9,64.6,111,64.7,111.5z"/>
		<path class="st10" d="M65.4,110.3c0.3,0.1,0.7,0.5,0.9,0.7c0.2,0.2,0.7,0.8,0.9,1.1c0.1,0.1,0.1,0.5,0,0.9c0,0.1,0.1,0.3,0.1,0.4
			c0,0.3,0,0.8,0,1.4c0.2,0.1,0.4,0.2,0.6,0.1c0.4-0.1,4.6-0.7,4.8-0.9c0.1-0.1,0.4-0.3,0.3-0.4c-0.1-0.1-1.1-1.6-1.1-1.6
			c-0.1-0.1-0.6-0.1-0.8-0.1c-0.3,0-3,0-3.1,0s-1.3-1.2-1.5-1.5c-0.3-0.3-1-1-1.3-1.1c-0.1,0-0.1,0.1-0.1,0.1
			c0.1,0.1,0.1,0.1,0.1,0.2C65.1,109.9,65.2,110.1,65.4,110.3z"/>
		<path class="st18" d="M65,110.3c0,0.2-0.1,1-0.1,1.1s0.3,0.7,0.4,0.8c0.1,0.1,1.3,1.5,1.5,1.6c0.1,0.1,0.2-0.4,0.2-0.9
			c-0.2-1-1.1-1.9-1.8-2.6C65.2,110.2,65,110.2,65,110.3z"/>
		<path class="st18" d="M67.1,112.1c-0.1-0.3-0.6-0.9-0.9-1.1c-0.1-0.1-0.6-0.5-0.9-0.7c0.6,0.7,1.5,1.7,1.8,2.6
			C67.2,112.6,67.2,112.2,67.1,112.1z"/>
		<path class="st19" d="M77.9,112.3L77.9,112.3v-0.7c-1.4,0.7-3.8,1.5-4.1,1.6l-0.1-0.3c0.1,0.3,0.3,0.6,0.5,0.9v-0.1
			C74.1,113.8,76.3,113.1,77.9,112.3z"/>
		<path class="st19" d="M73.2,112.2c0.1,0.1,0.1,0.3,0.3,0.5c0.1-0.1,3.1-1,4.7-1.9c1.7-1,3.8-3,3.8-3c0-0.3,0-0.7,0-0.7
			c-0.1-0.3-0.7,0.1-0.9,0.5s-1.8,1.6-3,2.3c-1.3,0.7-3.9,1.6-4.3,1.7S73,111.8,73.2,112.2z"/>
		<path class="st19" d="M79.2,110.8C79.2,110.9,79.2,110.9,79.2,110.8v0.7c1.5-1,2.8-2.3,2.8-2.3v0.7c-0.3,0.3-2,1.9-3.3,2.6
			c-1.3,0.7-3.8,1.7-4.4,1.7c0.1,0.2,0.2,0.3,0.3,0.4c0.2,0.3,0.5,0.2,1.1,0.1c0.7-0.2,3-1.4,3.4-1.7c0.5-0.3,2.1-1.7,2.4-1.9
			c0.3-0.2,0.3-0.4,0.3-0.8c0-0.2,0.1-1.1,0.1-1.9C81.8,108.7,80.4,109.9,79.2,110.8z"/>
		<path class="st20" d="M82,108.4v-0.7l0,0C82,108,82,108.2,82,108.4L82,108.4z"/>
		<path class="st20" d="M73.4,112.7l0.1,0.2C73.6,112.9,73.5,112.8,73.4,112.7L73.4,112.7z"/>
		<path class="st20" d="M73.4,112.7c0.1,0.1,0.1,0.1,0.1,0.2l0.1,0.3c0.4-0.1,2.7-0.9,4.1-1.6v-0.1c0-0.1,0.1-0.1,0.1-0.2l0.9-0.6
			c0.1-0.1,0.3,0,0.3,0.1c1.2-0.9,2.6-2.1,2.8-2.4c0-0.3,0-0.5,0-0.7c-0.1,0.1-2.2,2.1-3.8,3C76.6,111.7,73.6,112.7,73.4,112.7z"/>
		<path class="st20" d="M74.3,114.3C74.3,114.3,74.4,114.3,74.3,114.3c-0.1-0.1-0.1-0.3-0.2-0.5L74.3,114.3z"/>
		<path class="st20" d="M82,109.9v-0.7c0,0-1.3,1.3-2.8,2.3v0.1c0,0.1-0.1,0.1-0.1,0.2l-0.9,0.6c-0.1,0.1-0.3,0-0.3-0.1
			c-1.7,0.8-3.8,1.5-3.8,1.5v0.1c0.1,0.1,0.2,0.3,0.3,0.4c0.5-0.1,3.1-1.1,4.4-1.7C79.9,111.8,81.7,110.1,82,109.9z"/>
		<path class="st9" d="M72.7,85.1c0.1-0.1,0.2-0.1,0.3-0.2C72.9,84.9,72.8,85,72.7,85.1L72.7,85.1L72.7,85.1z"/>
		<path class="st9" d="M60.3,103.9l-0.7-1.9c0,0,6.8-4.1,8.1-4.6c1.3-0.6,0.9-1.3,1-1.8s0.6-0.9,2.1-1.6c0.6-0.3,1.9-0.7,3-1.1
			c-2.4-1.7-5.6-4-6.3-4.7c-2.6,1.5-5.8,3.3-8.6,4.7c-1.4,0.8-2.3,1.3-2.3,1.3L60.3,103.9z"/>
		<path class="st9" d="M77.6,93.9L77.6,93.9L77.6,93.9z"/>
		<path class="st9" d="M70.1,86.5c0.5-0.3,0.9-0.5,1.4-0.8C71,86,70.5,86.3,70.1,86.5z"/>
		<path class="st9" d="M72.7,85.1L72.7,85.1c-0.2,0.1-0.5,0.3-0.8,0.4C72.2,85.3,72.5,85.2,72.7,85.1L72.7,85.1z"/>
		<path class="st9" d="M67.3,88.1c-3,1.7-6.3,3.6-8.5,4.8c2.8-1.4,6-3.2,8.6-4.7C67.3,88.2,67.3,88.1,67.3,88.1z"/>
		<path class="st9" d="M67.4,88c0.1,0,0.1-0.1,0.1-0.1C67.5,88,67.5,88,67.4,88z"/>
		<path class="st11" d="M73,84.9c0.4-0.2,0.6-0.3,0.6-0.3S73.4,84.7,73,84.9z"/>
		<path class="st11" d="M70.1,86.5c-0.3,0.1-0.5,0.3-0.9,0.5l0,0C69.5,86.9,69.8,86.7,70.1,86.5z"/>
		<path class="st11" d="M71.5,85.8c0.2-0.1,0.3-0.2,0.5-0.3C71.8,85.6,71.6,85.7,71.5,85.8z"/>
		<path class="st11" d="M67.3,88.1L67.3,88.1c0.1,0,0.1-0.1,0.1-0.1C67.4,88,67.3,88,67.3,88.1z"/>
		<path class="st11" d="M69.2,87L69.2,87c-0.5,0.3-1.1,0.6-1.7,0.9C68.1,87.6,68.7,87.3,69.2,87z"/>
		<path class="st11" d="M76.7,95L76.7,95L76.7,95z"/>
		<path class="st11" d="M69.3,87.1c2.1,1.2,4,2.3,5.6,3.2c-0.7-3-1.3-5.8-1.3-5.8s-0.2,0.1-0.6,0.3c-0.1,0.1-0.2,0.1-0.3,0.2
			C72.7,85.1,71.3,85.9,69.3,87.1z"/>
		<path class="st11" d="M73.8,92.9c0.6-0.2,1.1-0.3,1.7-0.5c-0.1-0.7-0.3-1.4-0.5-2.1c-1.6-0.9-3.5-2.1-5.6-3.2
			c-0.6,0.3-1.3,0.7-1.9,1.1C68.2,88.8,71.3,91.2,73.8,92.9z"/>
		<path class="st11" d="M69.3,87.1c2-1.2,3.4-2.1,3.4-2.1c-0.2,0.1-0.5,0.3-0.8,0.4c-0.1,0.1-0.3,0.2-0.5,0.3
			c-0.4,0.3-0.9,0.5-1.4,0.8c-0.3,0.1-0.5,0.3-0.9,0.5C69.3,87.1,69.3,87.1,69.3,87.1z"/>
		<path class="st11" d="M69.3,87.1c-0.1,0-0.1-0.1-0.1-0.1c-0.5,0.3-1.1,0.6-1.7,0.9c-0.1,0-0.1,0.1-0.1,0.1c-0.1,0-0.1,0.1-0.1,0.1
			c0,0,0.1,0.1,0.1,0.1C68.1,87.8,68.7,87.4,69.3,87.1z"/>
		<path class="st21" d="M77.3,94.3L77.3,94.3C77.2,94.4,77.3,94.4,77.3,94.3z"/>
		<path class="st21" d="M77.5,94.1C77.5,94.1,77.5,94.1,77.5,94.1C77.5,94.1,77.5,94.1,77.5,94.1z"/>
		<path class="st21" d="M77.5,93.9L77.5,93.9L77.5,93.9z"/>
		<path class="st21" d="M77.4,94.1C77.4,94.2,77.4,94.2,77.4,94.1C77.4,94.2,77.4,94.2,77.4,94.1z"/>
		<path class="st21" d="M76,95.6L76,95.6C76.1,95.5,76.1,95.5,76,95.6L76,95.6z"/>
		<path class="st21" d="M76.8,94.9c-0.1,0.1-0.1,0.1-0.1,0.1C76.7,94.9,76.8,94.9,76.8,94.9z"/>
		<path class="st21" d="M76.5,95.1c-0.1,0.1-0.1,0.1-0.1,0.1C76.4,95.3,76.5,95.2,76.5,95.1z"/>
		<path class="st21" d="M77.1,94.6c0,0.1-0.1,0.1-0.1,0.1C77,94.7,77.1,94.6,77.1,94.6z"/>
		<path class="st21" d="M77.6,93.9L77.6,93.9L77.6,93.9z"/>
		<path class="st21" d="M76,91v-0.7l-2.4-5.8c0,0,0.7,2.8,1.3,5.8C75.3,90.5,75.7,90.8,76,91z"/>
		<path class="st21" d="M76,91L76,91c-0.3-0.3-0.7-0.5-1.1-0.7c0.1,0.7,0.3,1.4,0.5,2.1c0.8-0.3,1.4-0.4,1.4-0.4l0.8,1.9l0,0l-1-2.4
			C76.3,91.6,76,91.4,76,91z"/>
		<path class="st21" d="M76.4,91.2L76,90.3V91C76.2,91,76.3,91.1,76.4,91.2z"/>
		<path class="st21" d="M76,91c0,0.3,0.3,0.5,0.5,0.5l-0.1-0.4C76.3,91.1,76.2,91,76,91C76,91,76,91,76,91z"/>
		<path class="st22" d="M77.5,93.9C77.6,93.9,77.6,93.9,77.5,93.9L77.5,93.9C77.6,93.9,77.6,93.9,77.5,93.9L77.5,93.9z"/>
		<path class="st22" d="M77.1,94.5L77.1,94.5L77.1,94.5L77.1,94.5z"/>
		<path class="st22" d="M77.1,94.5c0-0.1,0.1-0.1,0.1-0.1l0,0C77.1,94.5,77.1,94.5,77.1,94.5z"/>
		<path class="st22" d="M77.3,94.3L77.3,94.3c0.1-0.1,0.1-0.1,0.1-0.1l0,0C77.3,94.3,77.3,94.3,77.3,94.3z"/>
		<path class="st22" d="M77.4,94.1L77.4,94.1C77.4,94.1,77.5,94.1,77.4,94.1L77.4,94.1C77.5,94.1,77.5,94.1,77.4,94.1z"/>
		<path class="st22" d="M77.5,94.1L77.5,94.1C77.5,94,77.5,94,77.5,94.1C77.5,94,77.5,94,77.5,94.1C77.5,94,77.5,94,77.5,94.1z"/>
		<path class="st22" d="M75.8,95.8c0.1-0.1,0.1-0.1,0.3-0.2l0,0C76,95.7,75.9,95.7,75.8,95.8z"/>
		<path class="st22" d="M76.5,95.1L76.5,95.1c0.1-0.1,0.1-0.1,0.1-0.1l0,0C76.6,95.1,76.5,95.1,76.5,95.1z"/>
		<path class="st22" d="M76.2,95.5L76.2,95.5c0.1-0.1,0.1-0.1,0.2-0.2l0,0C76.3,95.4,76.2,95.5,76.2,95.5z"/>
		<path class="st22" d="M75.3,96.2c-0.3,0.3-0.7,0.6-1.2,0.9C74.6,96.8,75,96.4,75.3,96.2z"/>
		<path class="st22" d="M77.1,94.6L77.1,94.6C77.1,94.5,77.1,94.5,77.1,94.6L77.1,94.6C77.1,94.5,77.1,94.5,77.1,94.6z"/>
		<path class="st22" d="M76.7,95L76.7,95L76.7,95L76.7,95L76.7,95z"/>
		<path class="st22" d="M76.8,94.9L76.8,94.9c0.1-0.1,0.1-0.1,0.1-0.1l0,0C76.9,94.7,76.9,94.8,76.8,94.9z"/>
		<path class="st22" d="M75.8,94.4c-0.5-0.4-1.3-0.9-2.1-1.5c-1.2,0.3-2.4,0.8-3,1.1c-1.5,0.7-1.9,1.1-2.1,1.6
			c-0.1,0.5,0.3,1.2-1,1.8c-1.3,0.6-8.1,4.6-8.1,4.6l0.7,1.9c0,0,0.6-0.2,1.6-0.6l14-8.1C75.9,94.9,75.9,94.7,75.8,94.4z"/>
		<path class="st22" d="M77.5,94.1L77.5,94.1C77.5,94.1,77.5,94.1,77.5,94.1z"/>
		<path class="st22" d="M77.5,93.9C77.6,93.9,77.6,93.9,77.5,93.9L77.5,93.9C77.6,93.9,77.6,93.9,77.5,93.9z"/>
		<path class="st22" d="M77.3,94.2c0,0.1-0.1,0.1-0.1,0.1C77.3,94.3,77.3,94.3,77.3,94.2z"/>
		<path class="st22" d="M77.1,94.5L77.1,94.5L77.1,94.5L77.1,94.5c0.1-0.1,0.1-0.1,0.1-0.1C77.1,94.5,77.1,94.5,77.1,94.5z"/>
		<path class="st22" d="M77.5,94L77.5,94L77.5,94z"/>
		<path class="st22" d="M76.8,94.9c0.1-0.1,0.1-0.1,0.1-0.1S76.9,94.8,76.8,94.9z"/>
		<path class="st22" d="M76.3,95.3c-0.1,0.1-0.1,0.1-0.2,0.2C76.2,95.5,76.3,95.4,76.3,95.3z"/>
		<path class="st22" d="M76,95.2l-14,8.1c1.9-0.7,5.1-2.1,8.7-4.1c1.4-0.8,2.5-1.5,3.4-2.1c0.5-0.3,0.9-0.6,1.2-0.9
			c0.2-0.1,0.3-0.3,0.5-0.4c0.1-0.1,0.1-0.1,0.3-0.2C76,95.5,76,95.3,76,95.2z"/>
		<path class="st22" d="M76.5,95.1c0.1-0.1,0.1-0.1,0.1-0.1l0,0C76.6,95.1,76.5,95.1,76.5,95.1z"/>
		<path class="st22" d="M76.7,95L76.7,95L76.7,95L76.7,95z"/>
		<path class="st22" d="M77.1,94.5L77.1,94.5L77.1,94.5L77.1,94.5L77.1,94.5z"/>
		<path class="st22" d="M76.7,95L76.7,95L76.7,95z"/>
		<path class="st22" d="M75.8,94.4c-0.1-0.6-0.3-1.3-0.4-2c-0.5,0.1-1.1,0.3-1.7,0.5C74.6,93.5,75.3,94,75.8,94.4z"/>
		<path class="st22" d="M76.7,95L76.7,95L76.7,95z"/>
		<path class="st22" d="M77.5,94L77.5,94C77.5,93.9,77.5,93.9,77.5,94C77.5,93.9,77.5,93.9,77.5,94C77.5,93.9,77.5,94,77.5,94z"/>
		<path class="st22" d="M77.3,94.2L77.3,94.2L77.3,94.2L77.3,94.2C77.4,94.2,77.4,94.2,77.3,94.2z"/>
		<path class="st22" d="M77.2,94.5L77.2,94.5L77.2,94.5L77.2,94.5C77.3,94.4,77.2,94.4,77.2,94.5z"/>
		<path class="st22" d="M77.5,94.1L77.5,94.1L77.5,94.1C77.5,94.1,77.5,94.1,77.5,94.1L77.5,94.1z"/>
		<path class="st22" d="M76.7,95L76.7,95c0.1-0.1,0.1-0.1,0.1-0.1l0,0C76.8,94.9,76.7,94.9,76.7,95z"/>
		<path class="st22" d="M76,95.6L76,95.6L76,95.6L76,95.6C76.1,95.5,76.1,95.5,76,95.6z"/>
		<path class="st22" d="M76.9,94.7c0.1-0.1,0.1-0.1,0.1-0.1l0,0C77.1,94.6,77,94.7,76.9,94.7L76.9,94.7z"/>
		<path class="st22" d="M76.3,95.3L76.3,95.3c0.1-0.1,0.1-0.1,0.1-0.1l0,0C76.5,95.2,76.4,95.3,76.3,95.3z"/>
		<path class="st22" d="M77.1,94.5c0.1-0.1,0.1-0.1,0.1-0.1l0.1-0.1c0.1-0.1,0.1-0.1,0.1-0.1l0.1-0.1l0.1-0.1c0,0,0,0,0.1-0.1
			c0,0,0-0.1,0.1-0.1l0,0l0,0l0,0L77.1,94.5L77.1,94.5z"/>
		<path class="st22" d="M76.5,94.9c-0.1-0.1-0.4-0.3-0.7-0.5c0.1,0.3,0.1,0.6,0.2,0.9L76.5,94.9z"/>
		<path class="st22" d="M76,95.6L76,95.6c0.1-0.1,0.2-0.2,0.3-0.3c0.1-0.1,0.1-0.1,0.1-0.1c0.1-0.1,0.1-0.1,0.1-0.1
			s-0.1-0.1-0.1-0.1l-0.5,0.3C76,95.3,76,95.5,76,95.6z"/>
		<path class="st22" d="M76.7,95L76.7,95c0.1-0.1,0.1-0.1,0.1-0.1c0.1-0.1,0.1-0.1,0.1-0.1c0.1-0.1,0.1-0.1,0.1-0.1l0,0L77,94.7
			L76.7,95z"/>
		<path class="st22" d="M76.5,94.9l0.5-0.3l0.6-0.7L76.7,92c0,0-0.6,0.1-1.4,0.4c0.1,0.7,0.3,1.4,0.4,2
			C76.2,94.6,76.3,94.8,76.5,94.9z"/>
		<path class="st22" d="M76.7,95l0.3-0.4l-0.5,0.3C76.6,94.9,76.7,95,76.7,95L76.7,95z"/>
		<polygon class="st9" points="36,81.5 46.2,87.4 46.2,95.7 39.8,92 37.7,90.8 35.7,89.6 35.7,81.3 		"/>
		<path class="st9" d="M33.9,80.2l0.3,0.9L33.9,80.2z"/>
		<path class="st23" d="M8.9,61.9L8.9,61.9l-1.9,4.6c-0.1,0.4-0.2,0.7-0.2,1.1l0,0c0-0.4,0.1-0.8,0.2-1.2L8.9,61.9z"/>
		<polygon class="st9" points="23.8,74.3 33.9,80.2 34.3,81.1 34.9,83 34.9,89.2 29.8,86.3 28.8,85.7 24.9,83.4 24,82.9 23.7,82.7 
			23.7,74.3 23.7,74.2 23.7,74.2 		"/>
		<polygon class="st9" points="34.3,81.1 33.9,80.2 34.9,80.8 34.9,83 		"/>
		<path class="st9" d="M9.3,66.8l0.4-0.7l13.7,8l0,0l-0.5-0.3v0.7v1.8v1.6v4.3L9,74.2V68C9,67.6,9.1,67.1,9.3,66.8z"/>
		<polygon class="st23" points="34.9,89.2 35.7,89.7 35.7,89.6 34.9,89.2 		"/>
		<g>
			<path class="st6" d="M66.8,114.3c-0.2-0.2-2-2.3-2.1-2.8c-0.1-0.5,0-1.5,0.1-1.9c-1-1.3-5.6-5.4-5.6-5.4s-1.9-4.4-3.9-10.3
				c-2-5.8-9.7-10.8-9.7-10.8L27.8,72.8L8.9,62l-1.9,4.6c-0.1,0.4-0.2,0.8-0.2,1.2v9.7h1l0.6,1v6.4l-1,0.6H6.9v0.7
				c0,0,2.1,1.8,2.4,2.1c0.1,0.1,0.2,0.1,0.3,0.3l0.4,0.2c0.7,0.3,1.9,0.9,4.4,2.1c0.5-1.5,3-3.2,6.7-0.5c3.6,2.8,4.2,6.5,4.2,6.5
				l4.2,2.4l2.1,1.2l19.9,11.3c0.9-1.5,3.2-2.5,6.6-0.5c3.5,2.2,4.3,6.1,4.3,6.1s0.7,0.5,1.7,0.9c0.1,0.1,0.2,0.1,0.3,0.1
				c0.1,0,0.1,0,0.1,0.1c0.1,0.1,0.2,0.1,0.3,0.1c0.1,0,0.1,0,0.1,0.1c0.1,0.1,0.3,0.1,0.5,0.1h0.1c0.1,0.1,0.3,0.1,0.5,0.1
				c0.1,0,0.1,0,0.1,0c0.1,0,0.3,0.1,0.5,0.1c0.1,0,0.1,0,0.1,0c0.2,0,0.4,0,0.6,0.1v-4.2C67,114.6,66.8,114.4,66.8,114.3z M39.8,92
				l-2.1-1.2l-2-1.1l0,0l-0.8-0.5l0,0l-5.1-3l-1-0.6l-3.9-2.3L24,82.9l-0.3-0.1l-0.3-0.2L22.5,82L20,80.6l-3.4-2L9,74.2V68
				c0-0.4,0.1-0.8,0.3-1.2l0.4-0.7l13.7,8l0.2,0.1l0.1,0.1l0.2,0.1l0.6,0.3l9.3,5.4l2.1,1.3l10.1,6v8.3L39.8,92z M58.2,103.5
				l-0.6-0.2v-0.5l-0.6-0.3v1.8c0,0.3-0.3,0.6-0.7,0.5l-1.2-0.3c-0.3-0.1-0.4-0.3-0.4-0.5v-3.3l-7.2-4.2v-8.2l4.6,2.9
				c0.8,0.5,1.4,1.2,1.7,2.1l2.3,6.2l0.5,0.1c0.3,0.1,0.4,0.3,0.4,0.5v1.4l1.2,0.6C58.2,102.1,58.2,103.5,58.2,103.5z"/>
		</g>
		<g>
			<polygon class="st6" points="22.9,73.8 23.7,74.3 23.7,75.3 23.7,82.7 23.4,82.6 22.9,82.2 22.9,76.3 			"/>
		</g>
		<polygon class="st6" points="35.7,81.3 35.7,89.6 34.9,89.2 34.9,83 34.9,80.8 		"/>
		<path class="st23" d="M39.3,96c-0.1,0.1-0.2,0.2-0.3,0.3C39.2,96.2,39.2,96.1,39.3,96z"/>
		<path class="st13" d="M6.9,77.3L6.9,77.3v8.1l0,0l0,0V77.3z"/>
		<path class="st13" d="M6.9,85.3C6.9,85.3,6.9,85.4,6.9,85.3L6.9,85.3L6.9,85.3z"/>
		<polygon class="st13" points="6.9,85.3 6.9,77.3 6.9,77.3 		"/>
		<path class="st13" d="M6.9,85.3L6.9,85.3L6.9,85.3z"/>
		<path class="st13" d="M8.5,78.3l-0.6-1h-1v8c0.5-0.3,1.1-0.6,1.6-0.9V78.3z"/>
		<path class="st13" d="M7.5,85.4l1-0.6v-0.4c-0.5,0.3-1.1,0.7-1.6,0.9l0,0L7.5,85.4L7.5,85.4z"/>
		<path class="st24" d="M84.4,107.8c-0.1,0-0.2,0.2-0.2,0.5c0,0.1,0,0.3-0.1,0.4c-0.1,0.7-0.3,1.8-1.1,2.6c-0.2,0.2-0.3,0.4-0.5,0.5
			c-0.6,0.9-1.3,1.6-1.9,2.2l0,0c0.2-0.1,0.4,0,0.4,0.2v1.3c0,0.1-0.1,0.2-0.1,0.2l-3.6,2.1c-0.1,0.1-0.4,0-0.4-0.2v-1.3
			c0-0.1,0.1-0.2,0.1-0.2l0.3-0.1c-1.2,0.4-2.1,0.5-2.1,0.5c-2.4,1.1-5.2,2.1-6.5,2.3c-0.3,0.1-0.5,0.1-0.8,0.1c-0.1,0-0.1,0-0.3,0
			s-0.3,0-0.5,0l0,0c-0.2,0-0.4,0-0.5-0.1c-0.1,0-0.1,0-0.1,0c-0.1,0-0.3-0.1-0.5-0.1c-0.1,0-0.1,0-0.1,0c-0.1,0-0.3-0.1-0.5-0.1
			h-0.1c-0.1-0.1-0.3-0.1-0.5-0.1c-0.1,0-0.1,0-0.1,0c-0.1-0.1-0.2-0.1-0.3-0.1c-0.1,0-0.1,0-0.1-0.1c-0.1-0.1-0.3-0.1-0.3-0.1
			c-1-0.4-1.7-0.8-1.7-0.8s-0.8-4.1-4.3-6.3c-3.3-2.1-5.7-1.1-6.6,0.5l-19.9-11.3l-2.1-1.2l-4.2-2.4c0,0-0.5-3.7-4.2-6.5
			s-6.2-1.1-6.7,0.5c-2.3-1.1-3.6-1.7-4.3-2L10,88.6c-0.1-0.1-0.3-0.1-0.4-0.2l-0.2-0.1l-2.6-2.3v0.9c0,0,1.7,3.2,2.1,3.7l5.7,3.2
			c-0.1-0.4-0.1-0.9-0.1-1.3c0.1-0.5,0.1-0.8,0.3-1.2c0.7-1.9,2.8-2.4,5.2-1.2c2.5,1.3,4.4,4.2,4.7,6.9c0,0.3,0.1,0.6,0,0.9
			c-0.1,0.5-0.1,1-0.3,1.4l27.3,15.4c-0.1-0.3-0.1-0.7,0-1c0.2-2.8,2.6-3.8,5.4-2.4c2.8,1.5,4.9,4.9,4.7,7.7c0,0.5-0.1,0.9-0.3,1.3
			l1.7,0.9c0,0,3,1.6,6.1,0.9c3.1-0.7,8.6-3.5,10.3-4.5s4.7-3.2,5.1-4C84.9,112.7,84.8,108.4,84.4,107.8z M72.3,119.7
			c0,0.1,0,0.1-0.1,0.1l-0.8,0.4c-0.1,0.1-0.3,0-0.3-0.1v-0.9c0-0.1,0-0.1,0.1-0.1l0.8-0.4c0.1-0.1,0.3,0,0.3,0.1V119.7z
			 M83.9,113.1c0,0.1,0,0.1-0.1,0.1l-0.5,0.5c-0.1,0.1-0.3,0-0.3-0.1v-0.9c0-0.1,0-0.1,0.1-0.1l0.5-0.5c0.1-0.1,0.3,0,0.3,0.1V113.1
			z"/>
		<path class="st24" d="M65.3,118.6c-0.2-0.1-0.3-0.1-0.5-0.1C65,118.6,65.2,118.6,65.3,118.6z"/>
		<path class="st24" d="M66.6,118.8c0.2,0,0.4,0,0.6,0l0,0C67,118.9,66.8,118.8,66.6,118.8z"/>
		<path class="st24" d="M65.8,118.8c-0.1,0-0.3-0.1-0.5-0.1C65.5,118.7,65.7,118.7,65.8,118.8z"/>
		<path class="st24" d="M66.4,118.8c-0.1,0-0.3-0.1-0.5-0.1C66.2,118.8,66.3,118.8,66.4,118.8z"/>
		<path class="st24" d="M64.3,118.4c-0.1-0.1-0.3-0.1-0.3-0.1C64,118.2,64.2,118.3,64.3,118.4z"/>
		<path class="st24" d="M58,111.1c3.5,2.2,4.3,6.3,4.3,6.3s0.7,0.4,1.7,0.8c-1-0.4-1.7-0.9-1.7-0.9S61.5,113.3,58,111.1z"/>
		<path class="st24" d="M64.7,118.5c-0.1-0.1-0.2-0.1-0.3-0.1C64.5,118.4,64.6,118.4,64.7,118.5z"/>
		<path class="st24" d="M67.9,118.8c-0.1,0-0.2,0-0.3,0C67.7,118.8,67.8,118.9,67.9,118.8z"/>
		<path class="st24" d="M84.2,108.4c0.1-0.3,0.1-0.5,0.2-0.5C84.3,107.8,84.2,108.1,84.2,108.4z"/>
		<path class="st24" d="M83.1,111.4c0.7-0.8,0.9-1.9,1.1-2.6c-0.1,0.7-0.3,1.7-1,2.4c-0.2,0.2-0.3,0.4-0.5,0.5c0,0.1,0,0.1,0,0.1
			C82.8,111.7,82.9,111.5,83.1,111.4z"/>
		<path class="st24" d="M75.1,116.4c-2.4,1.1-5.2,2.1-6.4,2.3C69.9,118.6,72.7,117.6,75.1,116.4L75.1,116.4
			C75.2,116.5,75.2,116.5,75.1,116.4z"/>
		<path class="st24" d="M67.2,118.9L67.2,118.9L67.2,118.9L67.2,118.9z"/>
		<path class="st24" d="M78.9,114.8c-0.9,0.5-2.2,1.1-3.6,1.7c0,0,0.9-0.1,2.1-0.5l3.4-1.9c0.7-0.6,1.3-1.3,1.9-2.2l0,0
			C81.6,113,80.8,113.8,78.9,114.8z"/>
		<path class="st24" d="M75.1,116.4c0.1,0.1,0.1,0.1,0.1,0.1l0,0c1.5-0.6,2.8-1.3,3.6-1.7c1.9-1.1,2.7-1.9,3.8-2.9
			c0-0.1,0-0.1,0-0.1c-1.1,1.1-2.1,1.9-4,2.9C77.8,115.2,76.5,115.8,75.1,116.4z"/>
		<path class="st24" d="M9.6,88.4c-0.1-0.1-0.3-0.2-0.3-0.3c-0.4-0.3-2.4-2.1-2.4-2.1l2.5,2.3L9.6,88.4z"/>
		<path d="M56.3,121.4c0.3,0.1,0.6,0.3,0.9,0.4c-0.7-0.4-1.4-0.8-2.2-1.3C55.4,120.9,55.8,121.1,56.3,121.4z"/>
		<path d="M61.5,120.3l-1.5-0.9c-0.6,1.2-2,1.5-3.6,0.7c-1.7-0.9-3-2.8-3.3-4.5l-1.4-0.8c0.3,2.1,1.6,4.4,3.4,5.8
			c0.8,0.5,1.5,0.9,2.2,1.3C59.1,122.5,60.8,121.9,61.5,120.3z"/>
		<path d="M57,111.3c-2.8-1.5-5.2-0.4-5.4,2.4c0,0.3,0,0.7,0,1l1.4,0.8c-0.1-0.3-0.1-0.7-0.1-1c0.1-2,1.9-2.8,3.8-1.7
			c2,1.1,3.5,3.5,3.4,5.5c0,0.4-0.1,0.7-0.3,1.1l1.5,0.9c0.1-0.3,0.3-0.8,0.3-1.3C61.9,116.2,59.8,112.8,57,111.3z"/>
		<path class="st3" d="M56.8,118.6c-0.8-0.4-1.5-1.2-1.9-2l-1.9-1.1c0.3,1.8,1.7,3.6,3.3,4.5c1.6,0.9,3,0.5,3.6-0.7l-1.3-0.7
			C58.2,118.9,57.5,118.9,56.8,118.6z"/>
		<path class="st3" d="M56.8,112.8c-2-1.1-3.7-0.3-3.8,1.7c0,0.3,0,0.7,0.1,1l1.9,1.1c-0.3-0.6-0.5-1.2-0.4-1.7
			c0.1-1.3,1.3-1.9,2.6-1.1s2.4,2.4,2.3,3.7c-0.1,0.6-0.3,1.1-0.7,1.3l1.3,0.7c0.1-0.3,0.3-0.7,0.3-1.1
			C60.3,116.3,58.8,113.9,56.8,112.8z"/>
		<path class="st4" d="M56.8,118.6c0.7,0.4,1.4,0.4,1.9,0.1l-3.8-2.1C55.3,117.4,56,118.2,56.8,118.6z"/>
		<path class="st4" d="M59.4,117.4c0.1-1.3-0.9-3-2.3-3.7c-1.3-0.7-2.5-0.2-2.6,1.1c-0.1,0.5,0.1,1.1,0.4,1.7l3.8,2.1
			C59.1,118.4,59.3,118,59.4,117.4z M57.2,117c-0.2,0.2-0.6,0-0.9-0.3s-0.3-0.8-0.1-0.9c0.2-0.2,0.6,0,0.9,0.3
			C57.4,116.4,57.4,116.8,57.2,117z"/>
		<path d="M56.2,115.7c-0.2,0.2-0.2,0.6,0.1,0.9s0.7,0.5,0.9,0.3c0.2-0.2,0.2-0.6-0.1-0.9S56.4,115.6,56.2,115.7z"/>
		<path d="M19.2,100.3c0.5,0.3,0.9,0.4,1.4,0.5c-1.1-0.6-2.1-1.2-3.1-1.8C18,99.5,18.6,100,19.2,100.3z"/>
		<path d="M24.3,99.2l-1.5-0.9c-0.6,1.1-2,1.3-3.5,0.5c-1.6-0.9-2.9-2.6-3.2-4.3l-1.4-0.8c0.3,1.9,1.4,3.8,2.9,5.2
			c1,0.6,2.1,1.2,3.1,1.8C22.3,101.2,23.7,100.6,24.3,99.2z"/>
		<path d="M24.6,97L23,96.1c0.1,0.3,0.1,0.7,0.1,1.1c0,0.5-0.1,0.9-0.3,1.2l1.5,0.9c0.2-0.4,0.3-0.9,0.3-1.4
			C24.7,97.6,24.7,97.3,24.6,97z"/>
		<path d="M15.9,93.3c0-0.5,0.1-0.9,0.3-1.2l-1.5-0.9c-0.1,0.3-0.2,0.7-0.3,1.2c0,0.4,0,0.8,0.1,1.3l1.4,0.8
			C15.9,94.1,15.9,93.7,15.9,93.3z"/>
		<path d="M19.9,90.2c-2.4-1.3-4.4-0.7-5.2,1.2l1.5,0.9c0.6-1.1,2-1.3,3.5-0.5c1.7,0.9,3,2.7,3.3,4.4l1.6,0.9
			C24.4,94.4,22.4,91.5,19.9,90.2z"/>
		<path class="st3" d="M19.7,97.4c-0.7-0.4-1.3-1-1.7-1.7l-2-1.1c0.4,1.7,1.7,3.4,3.2,4.3c1.5,0.8,2.8,0.5,3.5-0.5l-1.3-0.7
			C21,97.8,20.4,97.8,19.7,97.4z"/>
		<path class="st3" d="M17.5,93.7c0-0.3,0.1-0.5,0.2-0.7l-1.4-0.8c-0.2,0.3-0.3,0.7-0.3,1.2c0,0.4,0,0.8,0.1,1.2l2,1.1
			C17.6,95.1,17.4,94.3,17.5,93.7z"/>
		<path class="st3" d="M23,96.1l-0.7-0.5c0,0.2,0.1,0.4,0,0.6c-0.1,0.7-0.4,1.2-0.9,1.4l1.3,0.7c0.2-0.3,0.3-0.7,0.3-1.2
			C23.1,96.8,23.1,96.4,23,96.1z"/>
		<path class="st3" d="M19.8,91.7c-1.5-0.8-2.9-0.5-3.5,0.5l1.4,0.8c0.4-0.8,1.3-1,2.4-0.5c1.1,0.6,2.1,1.9,2.3,3.1l0.7,0.5
			C22.7,94.4,21.4,92.5,19.8,91.7z"/>
		<path class="st4" d="M19.7,97.4c0.7,0.3,1.3,0.4,1.7,0.2L18,95.7C18.4,96.4,19,97,19.7,97.4z"/>
		<path class="st4" d="M17.5,93.7c-0.1,0.7,0.2,1.3,0.5,2l3.4,1.9c0.5-0.2,0.9-0.7,0.9-1.4c0-0.2,0-0.4,0-0.6L17.7,93
			C17.5,93.2,17.5,93.4,17.5,93.7z M20,94.9c0.3,0.3,0.3,0.8,0.1,0.9c-0.2,0.2-0.6,0-0.9-0.3s-0.3-0.8-0.1-0.9
			C19.4,94.4,19.7,94.5,20,94.9z"/>
		<path class="st4" d="M20,92.5C19,91.9,18,92.2,17.6,93l4.6,2.6C22.1,94.5,21.2,93.1,20,92.5z"/>
		<path d="M19.2,95.5c0.3,0.3,0.7,0.5,0.9,0.3c0.2-0.2,0.2-0.6-0.1-0.9s-0.7-0.5-0.9-0.3C18.9,94.7,18.9,95.1,19.2,95.5z"/>
		<path class="st7" d="M77,116.2c-0.1,0.1-0.1,0.1-0.1,0.2v1.3c0,0.2,0.2,0.3,0.4,0.2l3.7-2.1c0.1-0.1,0.1-0.1,0.1-0.2v-1.3
			c0-0.2-0.2-0.3-0.4-0.2h-0.1c-1.2,1-2.4,1.6-3.4,1.9L77,116.2z"/>
		<path class="st7" d="M80.7,114.1l-3.4,1.9C78.3,115.7,79.5,115.1,80.7,114.1z"/>
		<path class="st25" d="M83.6,112.1l-0.5,0.5c-0.1,0-0.1,0.1-0.1,0.1v0.9c0,0.1,0.1,0.2,0.3,0.1l0.5-0.5c0.1,0,0.1-0.1,0.1-0.1v-0.9
			C83.9,112.2,83.7,112.1,83.6,112.1z"/>
		<path class="st7" d="M77.9,112.3c0.2-0.1,0.4-0.2,0.6-0.3c0.3-0.1,0.5-0.3,0.7-0.5v-0.6c0,0,0,0,0-0.1c-0.3,0.2-0.6,0.4-0.8,0.5
			c-0.1,0.1-0.3,0.2-0.5,0.3V112.3L77.9,112.3z"/>
		<path class="st7" d="M79.2,110.8c0-0.1-0.2-0.2-0.3-0.1l-0.9,0.6c-0.1,0.1-0.1,0.1-0.1,0.2v0.1c0.2-0.1,0.4-0.2,0.5-0.3
			C78.7,111.2,78.9,111,79.2,110.8z"/>
		<path class="st7" d="M77.9,112.3c0,0.1,0.2,0.2,0.3,0.1l0.9-0.6c0.1-0.1,0.1-0.1,0.1-0.2v-0.1c-0.3,0.1-0.5,0.3-0.7,0.5
			C78.3,112.1,78.1,112.2,77.9,112.3z"/>
		<path class="st25" d="M72,118.7l-0.8,0.4c-0.1,0-0.1,0.1-0.1,0.1v0.9c0,0.1,0.1,0.2,0.3,0.1l0.8-0.4c0.1,0,0.1-0.1,0.1-0.1v-0.9
			C72.3,118.8,72.2,118.6,72,118.7z"/>
		<path class="st16" d="M68.9,101.5c-0.1-0.1-0.3-0.1-0.3-0.1l-3.4,1.9c-0.2,0.1-0.2,0.3-0.1,0.5l0.6,0.6c0.1,0.1,0.3,0.1,0.3,0.1
			l3.3-1.9c0.2-0.1,0.2-0.3,0.1-0.5L68.9,101.5z"/>
		<path class="st16" d="M76.9,96.5c-0.1-0.1-0.3-0.1-0.4-0.1L74.4,98c-0.1,0.1-0.2,0.3-0.1,0.5l0.5,0.5c0.1,0.1,0.3,0.1,0.4,0.1
			l2.2-1.6c0.1-0.1,0.2-0.3,0.1-0.5L76.9,96.5z"/>
	</g>
</g>
</svg>
