<?xml version="1.0" encoding="utf-8"?>
<!-- Generator: Adobe Illustrator 23.0.3, SVG Export Plug-In . SVG Version: 6.00 Build 0)  -->
<svg version="1.1" id="Layer_1" xmlns="http://www.w3.org/2000/svg" xmlns:xlink="http://www.w3.org/1999/xlink" x="0px" y="0px"
	 width="140px" height="140px" viewBox="0 0 140 140" style="enable-background:new 0 0 140 140;" xml:space="preserve">
<style type="text/css">
	.st0{fill:url(#SVGID_1_);}
	.st1{fill:#273842;}
	.st2{fill:#FFFFFF;}
	.st3{fill:#576771;}
	.st4{clip-path:url(#SVGID_3_);}
	.st5{fill:#E6E7E8;}
	.st6{opacity:0.2;fill:#2D414D;enable-background:new    ;}
	.st7{fill:none;stroke:#4BBFA7;stroke-width:1.8493;stroke-linecap:round;}
	.st8{enable-background:new    ;}
	.st9{clip-path:url(#SVGID_5_);}
	.st10{fill:#38508C;}
	.st11{fill:#6F88C8;}
	.st12{fill:#434F57;}
	.st13{fill:#26355E;}
	.st14{fill:#4B6ABB;}
</style>
<linearGradient id="SVGID_1_" gradientUnits="userSpaceOnUse" x1="38.3405" y1="103.917" x2="61.8159" y2="129.6433">
	<stop  offset="0" style="stop-color:#6D6E70;stop-opacity:0"/>
	<stop  offset="1" style="stop-color:#6D6E70;stop-opacity:0.7"/>
</linearGradient>
<path class="st0" d="M86.8,107.2L60,91.5l-51.2,30l28.9,16.8c0.7,0.4,1.6,0.4,2.3,0l46.7-27C88.3,110.4,88.3,108.1,86.8,107.2z"/>
<g>
	<path class="st1" d="M79.7,2.6c-1.4-0.3-2.9-0.2-4.2,0.6L32.2,28.1c-1.8,1-2.9,2.9-2.9,4.9v94.8c0,2,1,3.9,2.3,4.5
		c1.2,0.6,3.6,1.9,5.3,1.9c0.2,0,0.4,0,0.6-0.1c0,0,0,0,0,0l0,0c0.2,0,0.3-0.1,0.5-0.2l49.1-28.4c1.7-1,2.8-2.8,2.8-4.8
		c0,0,0-88.6,0-91.6C89.9,6.4,81.5,2.5,79.7,2.6z"/>
	<g>
		<path class="st2" d="M39.7,36.7l42.5-24.7c1.4-0.8,3.1,0.2,3.1,1.8l0,84.8c0,0.7-0.4,1.4-1,1.8l-42.4,24.6
			c-1.4,0.8-3.1-0.2-3.1-1.8V38.5C38.7,37.8,39.1,37.1,39.7,36.7z"/>
	</g>
	<path class="st3" d="M49.9,24.5c-2.5,1.6-5,3.2-7.5,4.7l-3.8,2.3c-1.2,0.7-2,1.8-2.5,3.1c-0.3,0.6-0.4,1.3-0.5,2c0,0.7,0,1.5,0,2.2
		c0,1.5,0,3-0.1,4.4c-0.1,3-0.1,5.9-0.3,8.9h-0.4c-0.2-3-0.2-5.9-0.3-8.9c0-1.5,0-3-0.1-4.4c0-0.8,0-1.4,0-2.2
		c0-0.8,0.2-1.6,0.5-2.3c0.6-1.5,1.7-2.8,3-3.6c1.3-0.8,2.6-1.5,3.9-2.2c2.6-1.4,5.2-2.8,7.8-4.2L49.9,24.5z"/>
	<g>
		<defs>
			<path id="SVGID_2_" d="M39.7,36.7l42.5-24.7c1.4-0.8,3.1,0.2,3.1,1.8l0,84.8c0,0.7-0.4,1.4-1,1.8l-42.4,24.6
				c-1.4,0.8-3.1-0.2-3.1-1.8V38.5C38.7,37.8,39.1,37.1,39.7,36.7z"/>
		</defs>
		<clipPath id="SVGID_3_">
			<use xlink:href="#SVGID_2_"  style="overflow:visible;"/>
		</clipPath>
		<g class="st4">
			<polygon class="st5" points="72.5,53.8 59,61.6 68.5,67.2 82,59.4 			"/>
			<polygon class="st5" points="83.8,47.4 74.6,52.7 94.6,64.4 99,56.4 			"/>
			<polygon class="st5" points="96.1,40.2 85.8,46.3 100,54.5 105,45.4 			"/>
			<polygon class="st5" points="61,47 47.5,54.8 57,60.5 70.6,52.6 			"/>
			<polygon class="st5" points="76.7,10.6 51.3,25.4 60.8,31 86.2,16.2 			"/>
			<polygon class="st5" points="79.3,36.4 67.6,43 77.1,48.6 88.9,42 			"/>
			<polygon class="st5" points="66.8,43.6 62.9,45.9 72.4,51.5 76.3,49.2 			"/>
			<polygon class="st5" points="38.1,73.6 24.5,81.4 34,87 47.6,79.2 			"/>
			<polygon class="st5" points="56.3,62.9 44.6,69.5 54.1,75.1 65.9,68.5 			"/>
			<polygon class="st5" points="43.8,70.1 39.9,72.4 49.4,78 53.3,75.7 			"/>
			<polygon class="st5" points="45.3,56.2 34.5,62.3 44,68 54.8,61.8 			"/>
			<polygon class="st5" points="33.5,49.3 22.7,55.5 32.2,61.1 43,54.9 			"/>
			<polygon class="st5" points="85.5,19.1 74.7,25.3 84.2,30.9 95,24.8 			"/>
			<polygon class="st5" points="48.9,40.3 35.4,48.1 44.9,53.7 58.4,45.9 			"/>
			<polygon class="st5" points="25.8,40.2 23.7,41.2 33.2,46.9 44.6,40.2 			"/>
			<polygon class="st5" points="37.2,33.4 28.4,38.6 45.9,38.5 			"/>
			<polygon class="st5" points="48.9,26.7 39.1,32.3 48.6,37.9 58.4,32.3 			"/>
			<polygon class="st5" points="53.1,40.3 60.7,44.7 68.4,40.3 			"/>
			<polygon class="st5" points="72.7,26.5 51.7,38.5 71.4,38.3 82.2,32.1 			"/>
			<polygon class="st5" points="60.5,74.6 51.6,79.7 61.1,85.3 70,80.2 			"/>
			<polygon class="st5" points="49.1,81 28,93.3 37.5,98.9 58.7,86.6 			"/>
			<polygon class="st5" points="64.7,74.5 72.2,79 80,74.5 			"/>
			<polygon class="st5" points="84.3,60.8 63.3,72.8 83,72.6 93.8,66.4 			"/>
			<polygon class="st5" points="72.5,109.1 58.9,116.9 68.5,122.5 82,114.7 			"/>
			<polygon class="st5" points="88.1,72.6 62.7,87.4 72.3,93 97.6,78.2 			"/>
			<polygon class="st5" points="90.8,98.4 79,105 88.5,110.6 100.3,104 			"/>
			<polygon class="st5" points="78.2,105.6 74.3,107.9 83.8,113.5 87.7,111.2 			"/>
			<polygon class="st5" points="56.7,118.2 45.9,124.4 55.4,130 66.2,123.8 			"/>
			<polygon class="st5" points="44.9,111.3 34.1,117.5 43.7,123.1 54.4,117 			"/>
			<polygon class="st5" points="96.9,81.2 86.1,87.3 95.7,92.9 106.4,86.8 			"/>
			<polygon class="st5" points="60.3,102.3 46.8,110.1 56.3,115.7 69.8,107.9 			"/>
			<polygon class="st5" points="37.2,102.2 35.1,103.3 44.7,108.9 56,102.2 			"/>
			<polygon class="st5" points="48.7,95.5 39.8,100.6 57.3,100.5 			"/>
			<polygon class="st5" points="60.3,88.7 50.5,94.3 60,99.9 69.8,94.3 			"/>
			<polygon class="st5" points="64.6,102.3 72.1,106.7 79.8,102.3 			"/>
			<polygon class="st5" points="84.1,88.5 63.1,100.5 82.9,100.3 93.7,94.1 			"/>
		</g>
	</g>
</g>
<g>
	<ellipse id="Ellipse_88_1_" class="st6" cx="62.5" cy="45.3" rx="3.8" ry="1.7"/>
	<g id="Group_759_1_" transform="translate(0 0)">
		<g id="Ellipse_9_1_">
			<circle class="st2" cx="62.5" cy="37.2" r="3.9"/>
			<circle class="st7" cx="62.5" cy="37.2" r="2.9"/>
		</g>
		<line id="Line_1_1_" class="st7" x1="62.5" y1="40.6" x2="62.5" y2="44.9"/>
	</g>
</g>
<path class="st6" d="M49.6,89.8c-0.4,0.1-0.5,0.4-0.2,0.5c0.1,0,0.1,0.1,0.2,0.1l8.8,1.5l2.5,5.1c0,0.1,0.1,0.1,0.1,0.1
	c0.3,0.2,0.7,0.1,0.9-0.1l6.8-11.1L49.6,89.8z"/>
<g>
	<g class="st8">
		<g>
			<defs>
				<path id="SVGID_4_" d="M50.1,87.6l0-0.7c0,0.1,0.1,0.2,0.2,0.2c0.1,0,0.1,0.1,0.2,0.1l0,0.7c-0.1,0-0.2,0-0.2-0.1
					C50.2,87.7,50.1,87.7,50.1,87.6z"/>
			</defs>
			<use xlink:href="#SVGID_4_"  style="overflow:visible;fill:#38508C;"/>
			<clipPath id="SVGID_5_">
				<use xlink:href="#SVGID_4_"  style="overflow:visible;"/>
			</clipPath>
			<g class="st9">
				<path class="st10" d="M50.5,87.2l0,0.7c0,0,0,0,0,0L50.5,87.2C50.5,87.2,50.5,87.2,50.5,87.2"/>
				<path class="st10" d="M50.5,87.2l0,0.7c0,0,0,0-0.1,0L50.5,87.2C50.4,87.2,50.5,87.2,50.5,87.2"/>
				<path class="st10" d="M50.4,87.2l0,0.7c0,0,0,0-0.1,0L50.4,87.2C50.4,87.2,50.4,87.2,50.4,87.2"/>
				<path class="st10" d="M50.4,87.2l0,0.7c0,0-0.1,0-0.1,0c-0.1-0.1-0.2-0.1-0.2-0.2l0-0.7C50.1,87,50.2,87.1,50.4,87.2
					C50.3,87.2,50.3,87.2,50.4,87.2"/>
			</g>
		</g>
		<g>
			<path class="st11" d="M69.7,82.6l-10.4,6l-8.8-1.5c-0.1,0-0.2,0-0.2-0.1c-0.3-0.1-0.2-0.4,0.2-0.5L69.7,82.6z"/>
		</g>
		<g>
			<polygon class="st12" points="69.7,82.6 69.7,83.3 59.3,89.3 59.3,88.7 			"/>
		</g>
		<g>
			<polygon class="st10" points="59.3,88.7 59.3,89.3 50.5,87.9 50.5,87.2 			"/>
		</g>
	</g>
	<g class="st8">
		<g>
			<polygon class="st13" points="61.8,93.8 61.8,94.4 59.3,89.3 59.3,88.7 			"/>
		</g>
		<g>
			<polygon class="st13" points="69.7,82.6 69.7,83.3 62.9,94.4 62.9,93.8 			"/>
		</g>
		<g>
			<path class="st14" d="M69.7,82.6l-6.8,11.1C62.7,94,62.2,94,62,93.9c-0.1,0-0.1-0.1-0.1-0.1l-2.5-5.1L69.7,82.6z"/>
		</g>
		<g class="st8">
			<defs>
				<path id="SVGID_6_" class="st8" d="M62.9,93.8l0,0.7c-0.1,0.2-0.6,0.3-0.9,0.1c-0.1,0-0.1-0.1-0.1-0.1l0-0.7
					c0,0.1,0.1,0.1,0.1,0.1C62.2,94,62.7,94,62.9,93.8z"/>
			</defs>
			<use xlink:href="#SVGID_6_"  style="overflow:visible;fill:#26355E;"/>
			<clipPath id="SVGID_7_">
				<use xlink:href="#SVGID_6_"  style="overflow:visible;"/>
			</clipPath>
		</g>
	</g>
</g>
</svg>
