<?xml version="1.0" encoding="utf-8"?>
<!-- Generator: Adobe Illustrator 24.0.0, SVG Export Plug-In . SVG Version: 6.00 Build 0)  -->
<svg version="1.1" id="Layer_1" xmlns="http://www.w3.org/2000/svg" xmlns:xlink="http://www.w3.org/1999/xlink" x="0px" y="0px"
	 width="140px" height="140px" viewBox="0 0 140 140" style="enable-background:new 0 0 140 140;" xml:space="preserve">
<style type="text/css">
	.st0{opacity:0.5;fill:url(#SVGID_1_);enable-background:new    ;}
	.st1{fill:#8CAFD1;}
	.st2{fill:#2962A5;}
	.st3{fill:#FFFFFF;}
	.st4{fill:#273842;}
	.st5{fill:#4BBEA8;}
	.st6{fill:#B7E5DC;}
</style>
<linearGradient id="SVGID_1_" gradientUnits="userSpaceOnUse" x1="-1279.8386" y1="51.9664" x2="-1251.6438" y2="21.0681" gradientTransform="matrix(-1 0 0 -1 -1191.2335 142)">
	<stop  offset="0" style="stop-color:#6D6E70;stop-opacity:0"/>
	<stop  offset="1" style="stop-color:#6D6E70;stop-opacity:0.7"/>
</linearGradient>
<path class="st0" d="M22.9,87.7L51.2,71l80.1,46.8l-30.6,17.8c-0.8,0.4-1.7,0.4-2.5,0L22.9,92C21.2,91,21.2,88.6,22.9,87.7z"/>
<g>
	<g>
		<polygon class="st1" points="22.5,3.9 19.6,5.6 19.8,86 104.2,134.7 106.8,133.1 106.8,52.6 		"/>
	</g>
	<g>
		<polygon class="st2" points="19.6,5.6 19.8,86 104.2,134.7 103.9,54.3 		"/>
	</g>
	<g>
		<polygon class="st3" points="26.2,18.6 26.4,81.2 97.4,122.1 97.2,59.4 		"/>
	</g>
	<g>
		<polygon class="st4" points="29,66.4 29,69.1 52.4,82.7 52.4,80 		"/>
	</g>
	<g>
		<polygon class="st4" points="29,72.7 29,75.4 41.4,82.6 41.3,79.9 		"/>
	</g>
	<g>
		<polygon class="st4" points="29,60 29,62.7 52.4,76.3 52.4,73.7 		"/>
	</g>
	<g>
		<polygon class="st4" points="72,58.3 72.1,60.9 94.2,73.8 94.1,71.2 		"/>
	</g>
	<g>
		<polygon class="st4" points="72,52.3 72.1,54.9 94.2,67.7 94.1,65.2 		"/>
	</g>
	<g>
		<polygon class="st4" points="72,70.6 72.1,73.1 94.2,86 94.1,83.5 		"/>
	</g>
	<g>
		<polygon class="st4" points="72,76.6 72.1,79.1 83.7,85.9 83.6,83.3 		"/>
	</g>
	<g>
		<polygon class="st4" points="72,64.6 72.1,67.1 94.2,80 94.1,77.5 		"/>
	</g>
	<g>
		<polygon class="st5" points="29.7,27.2 29.8,54.1 69,76.9 68.9,50 		"/>
	</g>
	<g>
		<polygon class="st6" points="34.2,48.5 34.3,56.8 37.8,58.8 37.7,50.5 		"/>
	</g>
	<g>
		<polygon class="st6" points="41.7,47.7 41.8,61 45.3,63.1 45.2,49.8 		"/>
	</g>
	<g>
		<polygon class="st6" points="49.4,55.2 49.5,65.5 53,67.5 52.9,57.2 		"/>
	</g>
	<g>
		<polygon class="st6" points="57,50.5 57.1,69.8 60.6,71.9 60.5,52.6 		"/>
	</g>
</g>
<path class="st4" d="M49.3,36.7C42.8,36.5,37,44.5,37,44.5s-1.2-3.7-3.5-5.8c0,0,2.7,1.2,3.9,3.5C38.8,40.1,44.5,35.5,49.3,36.7z"/>
</svg>
