<?xml version="1.0" encoding="utf-8"?>
<!-- Generator: Adobe Illustrator 23.0.3, SVG Export Plug-In . SVG Version: 6.00 Build 0)  -->
<svg version="1.1" id="Layer_1" xmlns="http://www.w3.org/2000/svg" xmlns:xlink="http://www.w3.org/1999/xlink" x="0px" y="0px"
	 width="191.22px" height="51.45px" viewBox="0 0 191.22 51.45" style="enable-background:new 0 0 191.22 51.45;"
	 xml:space="preserve">
<style type="text/css">
	.st0{enable-background:new    ;}
	.st1{fill:#FFFFFF;}
	.st2{opacity:0.7;enable-background:new    ;}
</style>
<g>
	<g class="st0">
		<path class="st1" d="M92.98,11.49h5.62c1.99,0,3.36,1.16,3.36,2.78c0,1.13-0.56,1.95-1.55,2.47c1.29,0.58,2.03,1.61,2.03,2.84
			c0,1.78-1.52,3-3.63,3h-5.83V11.49z M98,15.96c0.89,0,1.52-0.52,1.52-1.23c0-0.69-0.63-1.21-1.52-1.21h-2.65v2.44H98z
			 M98.38,20.55c0.95,0,1.63-0.57,1.63-1.36s-0.68-1.36-1.63-1.36h-3.02v2.71H98.38z"/>
		<path class="st1" d="M112,14.23v8.35h-2.36v-1.05c-0.5,0.76-1.44,1.24-2.52,1.24c-1.81,0-3.1-1.34-3.1-3.23v-5.31h2.28v4.81
			c0,1.03,0.65,1.74,1.58,1.74c0.98,0,1.74-0.71,1.74-1.61l0.02,0.05v-4.99H112z"/>
		<path class="st1" d="M119.89,19.95l1.5,1.53c-0.74,0.77-2.18,1.29-3.41,1.29c-2.49,0-4.42-1.82-4.42-4.39
			c0-2.52,1.86-4.34,4.29-4.34c2.62,0,4.15,1.99,4.15,5.13h-6.02c0.27,0.9,1,1.52,1.99,1.52C118.63,20.69,119.43,20.39,119.89,19.95
			z M116.01,17.48h3.73c-0.23-0.82-0.84-1.36-1.79-1.36C117.06,16.12,116.32,16.64,116.01,17.48z"/>
		<path class="st1" d="M131.53,17.27v5.31h-2.28v-4.81c0-1.03-0.65-1.74-1.58-1.74c-0.98,0-1.74,0.71-1.74,1.61l-0.02-0.05v4.99
			h-2.36v-8.35h2.36v1.05c0.5-0.76,1.44-1.24,2.52-1.24C130.24,14.04,131.53,15.38,131.53,17.27z"/>
		<path class="st1" d="M137.2,14.23h2.47l2.24,5.63l2.2-5.63h2.45L143,22.58h-2.18L137.2,14.23z"/>
		<path class="st1" d="M147.7,11.8c0-0.66,0.56-1.26,1.29-1.26c0.69,0,1.26,0.6,1.26,1.26c0,0.71-0.56,1.29-1.26,1.29
			C148.26,13.09,147.7,12.51,147.7,11.8z M147.79,14.23h2.36v8.35h-2.36V14.23z"/>
		<path class="st1" d="M159.6,17.59v4.99h-2.28v-0.84c-0.6,0.68-1.55,1.03-2.45,1.03c-1.78,0-3.15-1.07-3.15-2.66
			c0-1.65,1.53-2.78,3.47-2.78c0.68,0,1.42,0.15,2.13,0.42v-0.16c0-0.89-0.55-1.66-1.92-1.66c-0.78,0-1.5,0.26-2.16,0.6l-0.79-1.57
			c1.18-0.6,2.32-0.92,3.49-0.92C158.11,14.04,159.6,15.41,159.6,17.59z M157.32,19.95v-0.77c-0.53-0.19-1.15-0.31-1.79-0.31
			c-0.86,0-1.53,0.5-1.53,1.18c0,0.68,0.6,1.1,1.4,1.1C156.3,21.14,157.16,20.72,157.32,19.95z"/>
		<path class="st1" d="M159.67,25.12l0.24-1.74c0.23,0.08,0.58,0.15,0.87,0.15c0.47,0,0.79-0.39,0.79-0.94v-8.35h2.36v8.59
			c0,1.53-1.08,2.63-2.6,2.63C160.75,25.46,160.07,25.31,159.67,25.12z M161.47,11.8c0-0.66,0.57-1.26,1.29-1.26
			c0.69,0,1.26,0.6,1.26,1.26c0,0.71-0.57,1.29-1.26,1.29C162.04,13.09,161.47,12.51,161.47,11.8z"/>
		<path class="st1" d="M171.84,19.95l1.5,1.53c-0.74,0.77-2.18,1.29-3.41,1.29c-2.49,0-4.42-1.82-4.42-4.39
			c0-2.52,1.86-4.34,4.29-4.34c2.62,0,4.15,1.99,4.15,5.13h-6.02c0.27,0.9,1,1.52,1.99,1.52C170.58,20.69,171.39,20.39,171.84,19.95
			z M167.96,17.48h3.73c-0.23-0.82-0.84-1.36-1.79-1.36C169.01,16.12,168.27,16.64,167.96,17.48z"/>
		<path class="st1" d="M175.39,21.27c0-0.76,0.66-1.44,1.5-1.44c0.79,0,1.44,0.68,1.44,1.44c0,0.82-0.65,1.5-1.44,1.5
			C176.06,22.77,175.39,22.1,175.39,21.27z"/>
	</g>
	<g class="st2">
		<path class="st1" d="M92.16,38.12l1.37-1.63c1.05,0.9,2.24,1.45,3.65,1.45c1.2,0,1.81-0.55,1.81-1.24c0-0.79-0.65-1.03-2.34-1.42
			c-2.34-0.53-4-1.19-4-3.34c0-2.05,1.68-3.45,4.1-3.45c1.81,0,3.21,0.56,4.34,1.53l-1.24,1.71c-0.99-0.79-2.1-1.23-3.16-1.23
			c-1.02,0-1.63,0.53-1.63,1.19c0,0.81,0.66,1.07,2.37,1.45c2.39,0.53,3.97,1.24,3.97,3.29c0,2.11-1.6,3.52-4.31,3.52
			C95.16,39.96,93.45,39.32,92.16,38.12z"/>
		<path class="st1" d="M102.93,28.98c0-0.66,0.57-1.26,1.29-1.26c0.69,0,1.26,0.6,1.26,1.26c0,0.71-0.57,1.29-1.26,1.29
			C103.5,30.28,102.93,29.69,102.93,28.98z M103.03,31.42h2.36v8.35h-2.36V31.42z"/>
		<path class="st1" d="M113.3,37.14l1.5,1.53c-0.74,0.77-2.18,1.29-3.41,1.29c-2.49,0-4.42-1.82-4.42-4.39
			c0-2.52,1.86-4.34,4.29-4.34c2.62,0,4.15,1.99,4.15,5.13h-6.02c0.27,0.9,1,1.52,1.99,1.52C112.04,37.88,112.85,37.57,113.3,37.14z
			 M109.42,34.67h3.73c-0.23-0.82-0.84-1.36-1.79-1.36C110.47,33.31,109.73,33.83,109.42,34.67z"/>
		<path class="st1" d="M130.03,34.46v5.33h-2.26v-4.92c0-0.97-0.61-1.65-1.49-1.65c-0.94,0-1.61,0.63-1.61,1.52v5.05h-2.26v-4.92
			c0-0.97-0.61-1.65-1.47-1.65c-0.95,0-1.61,0.63-1.61,1.52v5.04h-2.36v-8.35h2.36v1.1c0.4-0.79,1.23-1.29,2.26-1.29
			c1.15,0,2.13,0.58,2.65,1.52c0.44-0.92,1.47-1.52,2.71-1.52C128.69,31.23,130.03,32.57,130.03,34.46z"/>
		<path class="st1" d="M141.01,35.59c0,2.57-1.61,4.38-3.84,4.38c-1.16,0-2.13-0.5-2.79-1.37v3.96h-2.36V31.42h2.36v1.16
			c0.66-0.86,1.63-1.36,2.79-1.36C139.39,31.23,141.01,33.04,141.01,35.59z M138.72,35.59c0-1.39-0.92-2.37-2.23-2.37
			c-1.15,0-1.99,0.84-2.12,2.05v0.65c0.13,1.23,0.97,2.07,2.12,2.07C137.8,37.98,138.72,36.99,138.72,35.59z"/>
		<path class="st1" d="M147.89,31.23v1.99c-1.74,0-2.86,1-2.86,2.57v3.99h-2.36v-8.35h2.36v1.55
			C145.58,31.89,146.61,31.23,147.89,31.23z"/>
		<path class="st1" d="M155.11,37.14l1.5,1.53c-0.74,0.77-2.18,1.29-3.41,1.29c-2.49,0-4.42-1.82-4.42-4.39
			c0-2.52,1.86-4.34,4.29-4.34c2.62,0,4.15,1.99,4.15,5.13h-6.02c0.27,0.9,1,1.52,1.99,1.52C153.85,37.88,154.66,37.57,155.11,37.14
			z M151.23,34.67h3.73c-0.23-0.82-0.84-1.36-1.79-1.36C152.28,33.31,151.54,33.83,151.23,34.67z"/>
		<path class="st1" d="M158.66,38.46c0-0.76,0.66-1.44,1.5-1.44c0.79,0,1.44,0.68,1.44,1.44c0,0.82-0.65,1.5-1.44,1.5
			C159.32,39.96,158.66,39.28,158.66,38.46z"/>
	</g>
	<g>
		<g>
			<path class="st1" d="M42.97,21.93v1.01l6.35-3.45c0.13-0.08,0.21-0.23,0.21-0.39l1.66-8.2c0.02-0.15-0.17-0.23-0.26-0.1
				L42.97,21.93z"/>
		</g>
		<g>
			<path class="st1" d="M59.54,21.93v1.01l-6.35-3.45c-0.13-0.08-0.21-0.23-0.21-0.39l-1.65-8.2c-0.02-0.15,0.17-0.23,0.26-0.1
				L59.54,21.93z"/>
		</g>
		<g>
			<path class="st1" d="M12.87,37.59l2.01-2.24c0.83,0.91,1.64,1.45,2.65,1.45c1.2,0,1.95-0.72,1.95-2.4v-9.34h3.27v9.48
				c0,1.72-0.5,3-1.37,3.87c-0.89,0.89-2.19,1.35-3.77,1.35C15.36,39.77,13.86,38.77,12.87,37.59z"/>
		</g>
		<g>
			<path class="st1" d="M28.07,25.07H39v2.84h-7.76v2.94h6.83v2.84h-6.83v3.04h7.87v2.84H28.07V25.07z"/>
		</g>
		<g>
			<path class="st1" d="M67.96,33.85l-5.57-8.78h3.73l3.46,5.82l3.52-5.82h3.62l-5.57,8.72v5.78h-3.19V33.85z"/>
		</g>
		<g>
			<polygon class="st1" points="50.32,39.56 50.32,25.07 42.97,25.07 42.97,28.01 47.38,28.01 47.38,39.56 			"/>
		</g>
		<g>
			<polygon class="st1" points="52.2,39.56 52.2,25.07 59.54,25.07 59.54,28.01 55.13,28.01 55.13,39.56 			"/>
		</g>
	</g>
</g>
</svg>
