<?xml version="1.0" encoding="utf-8"?>
<!-- Generator: Adobe Illustrator 22.0.1, SVG Export Plug-In . SVG Version: 6.00 Build 0)  -->
<svg version="1.1" id="Capa_1" xmlns="http://www.w3.org/2000/svg" xmlns:xlink="http://www.w3.org/1999/xlink" x="0px" y="0px"
	 width="78.9px" height="49.2px" viewBox="0 0 78.9 49.2" style="enable-background:new 0 0 78.9 49.2;" xml:space="preserve">
<g>
	<path d="M73.5,35h-67c-0.4,0-0.6-0.3-0.6-0.7c0-0.4,0.3-0.7,0.6-0.7h67c0.4,0,0.6,0.3,0.6,0.7C74.2,34.7,73.9,35,73.5,35"/>
	<path d="M12,12.1l0,15.1c0,0.1,0,0.8-0.4,1.3c-0.2,0.2-0.5,0.4-1.1,0.4c-0.6,0-0.9-0.2-1.1-0.4c-0.4-0.5-0.4-1.2-0.4-1.4V12.1
		c0-2.4-0.7-2.8-2-3.3C5.7,8.3,5.7,7.8,5.7,7.7V5.4c0-0.5,0.2-0.7,0.3-0.8c0.3-0.2,0.6-0.3,0.8-0.3c0,0,0,0,0,0l7.6,0
		c0.1,0,0.5,0,0.8,0.3c0.1,0.1,0.3,0.4,0.3,0.8v2.3c0,0,0,0,0,0c0,0.3-0.3,0.8-1.4,1.2C12.6,9.4,12,9.8,12,12.1 M14.4,9.7
		c1.8-0.7,2.1-1.6,2-2.1V5.4c0-0.8-0.3-1.3-0.6-1.5c-0.6-0.5-1.3-0.5-1.4-0.5l-7.5,0c-0.2,0-0.9,0-1.5,0.5C5.1,4.1,4.7,4.6,4.7,5.4
		v2.3c0,0.4,0.2,1.4,2,2.1c1.1,0.4,1.4,0.5,1.4,2.4l0,15.1c0,0.3,0,1.3,0.7,2c0.3,0.3,0.8,0.7,1.7,0.7c0.9,0,1.4-0.4,1.7-0.7
		c0.7-0.7,0.7-1.7,0.7-2V12.1C13,10.3,13.3,10.1,14.4,9.7"/>
	<path d="M38.6,21.1c-0.1,0-0.1,0-0.1,0c-0.3,0.1-0.8,0.6-0.8,2.1c0,2.3,1.3,2.4,1.7,2.4c0.7,0,1.4-0.7,1.4-0.7c0,0,0.6-0.5,1.2,0
		c0.4,0.4,0.4,1.1,0.3,1.4c-0.2,0.9-1.2,2.6-3.3,2.6C36.3,29,35,25.1,35,25c-0.1-0.2-1.5-4.4-0.1-9.2c1.3-4.3,3.4-4.5,3.8-4.5
		c0,0,0.1,0,0.1,0c1.4,0,2.5,1,3.2,3.1c0.6,1.7,0.6,3.4,0.6,3.5c0,0,0.2,1.7-0.6,2.5c-0.3,0.3-0.6,0.5-1.1,0.5
		C39.4,20.9,38.8,21,38.6,21.1C38.6,21,38.6,21.1,38.6,21.1 M32.6,28.6c-0.2,0.2-0.5,0.4-1.1,0.4c-0.6,0-0.9-0.2-1.1-0.4
		c-0.4-0.5-0.4-1.2-0.4-1.4v-7.9c0,0,0-0.1,0-0.1c0-1.8-0.2-2.9-0.7-3.4c-0.1-0.1-0.3-0.2-0.5-0.2c-0.2,0-0.4,0.1-0.6,0.3
		c-0.5,0.6-0.6,2.1-0.6,3.4c0,0,0,0,0,0.1v7.9c0,0,0,0,0,0s0,0,0,0c0,0.1,0,0.8-0.4,1.3c-0.2,0.3-0.6,0.4-1,0.4
		c-0.4,0-0.7-0.1-1-0.4C25,28.1,25,27.3,25,27.3c0,0,0,0,0,0c0,0,0,0,0,0l0-7.8c0,0,0-0.1,0-0.1c0-1.8-0.2-2.9-0.7-3.4
		c-0.1-0.1-0.3-0.2-0.5-0.2c-0.2,0-0.4,0.1-0.6,0.3c-0.5,0.6-0.6,2.1-0.6,3.4c0,0,0,0,0,0.1l0,7.9c0,0.1,0,0.8-0.4,1.3
		c-0.2,0.2-0.5,0.4-1.1,0.4c-0.6,0-0.9-0.2-1.1-0.4c-0.4-0.5-0.4-1.2-0.4-1.4l0-14c0-0.1,0-0.8,0.4-1.3c0.2-0.2,0.5-0.4,1.1-0.4
		c0.5,0,0.8,0.3,1.1,0.8c0,0,0,0,0,0.1c0,0,0,0.1,0.1,0.2c0,0,0,0.1,0.1,0.1c0,0,0,0,0,0c0.1,0.1,0.2,0.1,0.3,0.1
		c0.3,0,0.6-0.2,0.8-0.3c1-0.8,1.6-0.9,1.8-0.9c0,0,1.1-0.1,1.6,1.2c0.1,0.2,0.2,0.3,0.2,0.5c0.1,0.1,0.3,0.2,0.4,0.2
		c0.1,0,0.3-0.1,0.3-0.2c0.1-0.1,1.2-1.7,2.6-1.7c1.4,0,2.5,1.9,2.5,3.5c0,0,0,0,0,0c0,0.1,0,0.3,0,0.3l0,11.8
		C33,27.3,33,28.1,32.6,28.6 M38.9,22c0.1,0,0.7-0.1,2.1-0.1c0.7,0,1.3-0.3,1.8-0.8c1-1.1,0.8-3,0.8-3.2c0-0.3-0.4-7.4-4.7-7.5
		c-0.5,0-3.3,0.1-4.8,5.2c0,0.1-0.1,0.3-0.1,0.4v-0.6c0-0.1,0-0.2,0-0.4c0-2.1-1.5-4.4-3.4-4.4c-1.3,0-2.3,0.9-2.9,1.5
		c-0.7-1.3-1.8-1.5-2.4-1.4c-0.3,0-1.1,0.1-2.2,1c-0.6-1-1.4-1.1-1.8-1.1c-0.9,0-1.4,0.4-1.7,0.7c-0.7,0.7-0.7,1.7-0.7,2v13.9
		c0,0.3,0,1.3,0.7,2c0.3,0.3,0.8,0.7,1.7,0.7c0.9,0,1.4-0.4,1.7-0.7c0.7-0.7,0.7-1.7,0.7-2l0-7.8c0,0,0-0.1,0-0.1
		c0-1.2,0.1-2,0.2-2.4c0.1,0.4,0.2,1.3,0.2,2.4c0,0,0,0.1,0,0.1l0,7.8c0,0.3,0,1.3,0.6,2c0.3,0.3,0.8,0.7,1.7,0.7
		c0.9,0,1.4-0.4,1.7-0.7c0.6-0.7,0.6-1.7,0.6-2v-7.8c0,0,0-0.1,0-0.1c0-1.2,0.1-2,0.2-2.4c0.1,0.4,0.2,1.3,0.2,2.4c0,0,0,0.1,0,0.1
		l0,7.8c0,0.3,0,1.3,0.7,2c0.3,0.3,0.8,0.7,1.7,0.7c0.9,0,1.4-0.4,1.7-0.7c0.7-0.7,0.7-1.7,0.7-2v-2.6c0.1,0.4,0.2,0.7,0.2,0.7
		c0.1,0.2,1.5,4.6,4.7,4.6c2.6,0,3.9-2.1,4.2-3.3c0.2-0.5,0.3-1.6-0.5-2.4c-0.8-0.8-1.8-0.6-2.4-0.1c-0.2,0.2-0.6,0.5-0.8,0.5
		c-0.6,0-0.7-1-0.7-1.5C38.5,22.3,38.8,22,38.9,22C38.9,22,38.9,22,38.9,22"/>
	<path d="M17,28.6c-0.2,0.2-0.5,0.4-1.1,0.4c-0.6,0-0.9-0.2-1.1-0.4c-0.4-0.5-0.4-1.2-0.4-1.4l0-14c0-0.1,0-0.8,0.4-1.3
		c0.2-0.2,0.5-0.4,1.1-0.4c0.6,0,0.9,0.2,1.1,0.4c0.4,0.5,0.4,1.2,0.4,1.4v14C17.4,27.3,17.4,28.1,17,28.6 M18.3,13.3
		c0-0.3,0-1.3-0.7-2c-0.3-0.3-0.8-0.7-1.7-0.7c-0.9,0-1.4,0.4-1.7,0.7c-0.7,0.7-0.7,1.7-0.7,2l0,13.9c0,0.3,0,1.3,0.7,2
		c0.3,0.3,0.8,0.7,1.7,0.7c0.9,0,1.4-0.4,1.7-0.7c0.7-0.7,0.7-1.7,0.7-2L18.3,13.3z"/>
	<path d="M50.7,10.1c-0.1,0-0.1,0-0.1,0.1c-0.4,0.9-0.8,2.8-0.8,6.9c0,4.1,0.5,5.8,0.8,6.5c0,0.1,0.1,0.1,0.1,0.1l0,0
		c0.1,0,0.1,0,0.1-0.1c0.3-0.6,0.8-2.3,0.8-6.5c0-4.1-0.4-6-0.8-6.9C50.8,10.2,50.8,10.1,50.7,10.1 M50.7,24.7L50.7,24.7
		c-0.4,0-0.8-0.3-1-0.7c-0.6-1.2-0.9-3.6-0.9-6.9c0-4.3,0.5-6.3,0.9-7.3c0.2-0.4,0.6-0.7,1-0.7c0.5,0,0.9,0.3,1,0.7
		c0.4,0.9,0.9,3,0.9,7.3c0,3.2-0.3,5.6-0.9,6.9C51.5,24.4,51.1,24.6,50.7,24.7z"/>
	<path d="M38.7,17.1L38.7,17.1c-0.2,0-0.2-0.2-0.2-0.7c0-0.5,0.2-0.6,0.2-0.6h0c0,0,0.2,0,0.2,0.6C38.8,16.9,38.9,17.1,38.7,17.1
		 M38.7,14.8c0,0-1.1,0-1.1,1.7c0,1.6,1.1,1.5,1.1,1.5s1.1,0.1,1.1-1.5C39.8,14.8,38.7,14.8,38.7,14.8"/>
	<path d="M72.4,28.8c-0.4,0.2-0.8,0.2-1,0.2h-0.1c-2.9,0-3.3-3.5-3.4-4.5c0-0.2,0-0.3,0-0.4v-8.7c0-0.3-0.1-0.5-0.2-0.7
		c-0.1-0.1-0.1-0.1-0.2-0.2c-0.6-0.2-0.9-0.7-0.9-1.3c0-0.7,0.3-1.2,1-1.4c0.2-0.1,0.3-0.2,0.3-0.4c0,0,0-0.1,0-0.1l0-0.8
		c0,0,0-0.1,0-0.1V7.3c0-0.1,0-0.8,0.4-1.3c0.2-0.2,0.5-0.4,1.1-0.4c0.6,0,0.9,0.2,1.1,0.4c0.4,0.5,0.4,1.2,0.4,1.4v3.8
		c0,0.3,0.2,0.5,0.4,0.5c0.5,0,1.5,0.2,1.5,1.5c0,1-0.7,1.5-1.3,1.5c-0.1,0-0.2,0-0.2,0.1c-0.3,0.2-0.4,0.6-0.4,0.9v8
		c0,2.4,1.5,2.7,1.7,2.8c0.4,0,0.6,0.5,0.6,1.4C73.2,28.2,72.9,28.5,72.4,28.8 M65,28.6c-0.2,0.2-0.5,0.4-1.1,0.4
		c-0.7,0-1.2-0.4-1.4-1.1c0-0.2-0.2-0.3-0.3-0.3c0,0-0.1,0-0.1,0c-0.1,0-0.3,0.1-0.3,0.2l-0.1,0.1c-0.8,0.9-1.4,1.2-2.3,1.2
		c0,0,0,0,0,0c-0.4,0-0.8-0.2-1.1-0.5c-0.8-0.9-1-2.7-1-3.6V13.3c0-0.1,0-0.8,0.4-1.3c0.2-0.2,0.5-0.4,1.1-0.4
		c0.4,0,0.8,0.1,1.1,0.4c0.4,0.5,0.4,1.2,0.4,1.4v8c0,0.2,0,0.5,0,0.7c0,0.3,0,0.5,0,0.7v0.7c0,0.7,0.5,1.3,1.1,1.3
		c0.6,0,1.1-0.6,1.1-1.3v-0.5c0-0.1,0-0.3,0-0.4v0v-0.2c0,0,0,0,0,0c0,0,0,0,0-0.1v-8.9c0-0.1,0-0.8,0.4-1.3
		c0.2-0.2,0.5-0.4,1.1-0.4c0.6,0,0.9,0.2,1.1,0.4c0.4,0.5,0.4,1.2,0.4,1.4v14C65.4,27.3,65.4,28.1,65,28.6 M53,28c-1.1,1-2,1-2.2,1
		c0,0,0,0,0,0c-0.2,0-1.2,0-2.2-0.9c-1.9-1.8-2.9-5.5-2.9-11c0-5.7,1-9.4,2.9-11.2C49.4,5,50.2,5,50.6,5c0,0,0.1,0,0.1,0
		c0,0,0,0,0.1,0c0.2,0,1.1,0,2.2,0.9c1.9,1.8,2.9,5.5,2.9,11.1C55.9,22.5,54.9,26.3,53,28 M72.7,25.3c-0.1,0-0.9-0.2-0.9-1.9v-8
		c0,0,0,0,0,0c1-0.1,1.9-1,1.9-2.4c0-1.5-1-2.2-1.9-2.4V7.4c0-0.3,0-1.3-0.7-2c-0.3-0.3-0.8-0.7-1.7-0.7c-0.9,0-1.4,0.4-1.7,0.7
		C67,6.1,67,7.1,67,7.4v2.9c0,0.1,0,0.1,0,0.2l0,0.5c-0.4,0.2-0.8,0.5-1,0.9c-0.1-0.2-0.2-0.3-0.3-0.5c-0.3-0.3-0.8-0.7-1.7-0.7
		c-0.9,0-1.4,0.4-1.7,0.7c-0.7,0.7-0.7,1.7-0.7,2v8.8c0,0,0,0.1,0,0.2l0,0.2c0,0.1,0,0.1,0,0.2v0c0,0.2,0,0.3,0,0.4l0,0.1
		c0,0.3-0.1,0.6-0.2,0.6c-0.1,0-0.2-0.3-0.2-0.6l0-0.4c0,0,0,0,0,0v0c0-0.3,0-0.5,0-0.7c0-0.3,0-0.5,0-0.7v-7.9c0-0.2,0-1.3-0.7-2
		c-0.3-0.3-0.8-0.7-1.7-0.7c-0.9,0-1.4,0.4-1.7,0.7c-0.2,0.3-0.4,0.5-0.5,0.8c-0.5-3.3-1.4-5.6-2.9-6.9C52.3,4,51,4,50.7,4
		c-0.4,0-1.6,0-2.9,1.1c-2.2,1.9-3.3,5.9-3.3,11.9c0,5.8,1.1,9.8,3.2,11.7c1.2,1.1,2.3,1.2,2.8,1.2c0,0,0.1,0,0.1,0
		c0.4,0,1.6-0.1,2.9-1.2c1.3-1.2,2.2-3.1,2.7-5.8v1.9c0,0.5,0,3,1.2,4.3c0.5,0.5,1.1,0.7,1.7,0.8c1,0,1.7-0.2,2.6-1.1
		c0.4,0.7,1.1,1.1,2,1.1c0.9,0,1.4-0.4,1.7-0.7c0.7-0.7,0.7-1.7,0.7-2l0-12.5c0.2,0.2,0.4,0.3,0.7,0.5c0,0,0,0,0,0.1l0,8.7
		c0,0.1,0,0.3,0,0.5c0.4,5,3.4,5.4,4.3,5.4l0.1,0h0c0.2,0,0.8,0,1.3-0.3c0.8-0.4,1.3-1.1,1.3-2C74.1,25.7,73.1,25.4,72.7,25.3"/>
	<g>
		<path d="M27,38.6l1.3,5.1l1.3-5.1h1.8v7.1h-1.4v-1.9l0.1-3l-1.3,4.9h-0.9l-1.3-4.9l0.1,3v1.9h-1.4v-7.1H27z"/>
		<path d="M35.8,42.6h-2.1v1.9h2.5v1.2h-3.9v-7.1h3.8v1.2h-2.5v1.7h2.1V42.6z M34.6,36.7h1.5l-1.3,1.5h-1.1L34.6,36.7z"/>
		<path d="M39.1,41l0.9-2.4h1.6L40,42.1l1.6,3.6H40l-0.9-2.5l-0.9,2.5h-1.6l1.6-3.6l-1.6-3.5h1.6L39.1,41z"/>
		<path d="M43.7,45.7h-1.4v-7.1h1.4V45.7z"/>
		<path d="M49.4,43.3c0,0.8-0.2,1.4-0.6,1.8s-1,0.6-1.7,0.6c-0.8,0-1.3-0.3-1.7-0.8c-0.4-0.5-0.6-1.3-0.6-2.3v-1.2
			c0-1,0.2-1.7,0.6-2.3c0.4-0.5,1-0.8,1.7-0.8c0.7,0,1.3,0.2,1.7,0.6s0.6,1.1,0.6,1.9H48c0-0.5-0.1-0.8-0.2-1
			c-0.1-0.2-0.4-0.3-0.7-0.3c-0.4,0-0.6,0.1-0.8,0.4c-0.2,0.3-0.2,0.7-0.2,1.3v1.3c0,0.7,0.1,1.2,0.2,1.5s0.4,0.4,0.8,0.4
			c0.4,0,0.6-0.1,0.7-0.3c0.1-0.2,0.2-0.5,0.2-1H49.4z"/>
		<path d="M54.9,42.8c0,1-0.2,1.7-0.6,2.2s-1,0.8-1.8,0.8c-0.8,0-1.3-0.3-1.8-0.8c-0.4-0.5-0.6-1.3-0.7-2.2v-1.2
			c0-1,0.2-1.7,0.6-2.3c0.4-0.5,1-0.8,1.8-0.8c0.7,0,1.3,0.3,1.8,0.8c0.4,0.5,0.6,1.3,0.7,2.3V42.8z M53.6,41.6
			c0-0.6-0.1-1.1-0.3-1.4s-0.4-0.5-0.8-0.5c-0.4,0-0.6,0.2-0.8,0.5c-0.2,0.3-0.3,0.8-0.3,1.4v1.3c0,0.6,0.1,1.1,0.3,1.4
			c0.2,0.3,0.4,0.4,0.8,0.4c0.4,0,0.6-0.1,0.8-0.4c0.2-0.3,0.3-0.7,0.3-1.3V41.6z"/>
	</g>
</g>
</svg>
