<?xml version="1.0" encoding="utf-8"?>
<!-- Generator: Adobe Illustrator 22.0.1, SVG Export Plug-In . SVG Version: 6.00 Build 0)  -->
<svg version="1.1" id="Layer_1" xmlns="http://www.w3.org/2000/svg" xmlns:xlink="http://www.w3.org/1999/xlink" x="0px" y="0px"
	 width="225.5px" height="138px" viewBox="0 0 225.5 138" style="enable-background:new 0 0 225.5 138;" xml:space="preserve">
<style type="text/css">
	.st0{fill:#49BEA8;}
	.st1{opacity:0.7;}
</style>
<g>
	<g>
		<path class="st0" d="M4.3,117.6h7.6c2.7,0,4.5,1.6,4.5,3.8c0,1.5-0.8,2.6-2.1,3.3c1.7,0.8,2.8,2.2,2.8,3.8c0,2.4-2.1,4.1-4.9,4.1
			H4.3V117.6z M11.1,123.7c1.2,0,2.1-0.7,2.1-1.7c0-0.9-0.9-1.6-2.1-1.6H7.5v3.3H11.1z M11.6,129.9c1.3,0,2.2-0.8,2.2-1.8
			c0-1.1-0.9-1.8-2.2-1.8H7.5v3.7H11.6z"/>
		<path class="st0" d="M30,121.4v11.3h-3.2v-1.4c-0.7,1-1.9,1.7-3.4,1.7c-2.4,0-4.2-1.8-4.2-4.4v-7.2h3.1v6.5c0,1.4,0.9,2.4,2.1,2.4
			c1.3,0,2.4-1,2.4-2.2l0,0.1v-6.7H30z"/>
		<path class="st0" d="M40.7,129.1l2,2.1c-1,1-2.9,1.7-4.6,1.7c-3.4,0-6-2.5-6-5.9c0-3.4,2.5-5.9,5.8-5.9c3.5,0,5.6,2.7,5.6,6.9
			h-8.1c0.4,1.2,1.4,2.1,2.7,2.1C39,130.1,40.1,129.7,40.7,129.1z M35.4,125.7h5c-0.3-1.1-1.1-1.8-2.4-1.8
			C36.9,123.9,35.8,124.6,35.4,125.7z"/>
		<path class="st0" d="M56.4,125.5v7.2h-3.1v-6.5c0-1.4-0.9-2.4-2.1-2.4c-1.3,0-2.4,1-2.4,2.2l0-0.1v6.7h-3.2v-11.3h3.2v1.4
			c0.7-1,1.9-1.7,3.4-1.7C54.7,121.1,56.4,122.9,56.4,125.5z"/>
		<path class="st0" d="M64.1,121.4h3.3l3,7.6l3-7.6h3.3l-4.8,11.3H69L64.1,121.4z"/>
		<path class="st0" d="M78.3,118.1c0-0.9,0.8-1.7,1.7-1.7c0.9,0,1.7,0.8,1.7,1.7c0,1-0.8,1.7-1.7,1.7C79,119.8,78.3,119,78.3,118.1z
			 M78.4,121.4h3.2v11.3h-3.2V121.4z"/>
		<path class="st0" d="M94.4,125.9v6.7h-3.1v-1.1c-0.8,0.9-2.1,1.4-3.3,1.4c-2.4,0-4.3-1.4-4.3-3.6c0-2.2,2.1-3.8,4.7-3.8
			c0.9,0,1.9,0.2,2.9,0.6v-0.2c0-1.2-0.7-2.2-2.6-2.2c-1,0-2,0.3-2.9,0.8l-1.1-2.1c1.6-0.8,3.1-1.2,4.7-1.2
			C92.4,121.1,94.4,123,94.4,125.9z M91.3,129.1v-1c-0.7-0.3-1.6-0.4-2.4-0.4c-1.2,0-2.1,0.7-2.1,1.6c0,0.9,0.8,1.5,1.9,1.5
			C89.9,130.7,91.1,130.1,91.3,129.1z"/>
		<path class="st0" d="M94.5,136.1l0.3-2.4c0.3,0.1,0.8,0.2,1.2,0.2c0.6,0,1.1-0.5,1.1-1.3v-11.3h3.2V133c0,2.1-1.5,3.6-3.5,3.6
			C95.9,136.5,95,136.3,94.5,136.1z M96.9,118.1c0-0.9,0.8-1.7,1.7-1.7c0.9,0,1.7,0.8,1.7,1.7c0,1-0.8,1.7-1.7,1.7
			C97.7,119.8,96.9,119,96.9,118.1z"/>
		<path class="st0" d="M110.9,129.1l2,2.1c-1,1-2.9,1.7-4.6,1.7c-3.4,0-6-2.5-6-5.9c0-3.4,2.5-5.9,5.8-5.9c3.5,0,5.6,2.7,5.6,6.9
			h-8.1c0.4,1.2,1.4,2.1,2.7,2.1C109.2,130.1,110.3,129.7,110.9,129.1z M105.7,125.7h5c-0.3-1.1-1.1-1.8-2.4-1.8
			C107.1,123.9,106.1,124.6,105.7,125.7z"/>
		<path class="st0" d="M115.7,130.9c0-1,0.9-1.9,2-1.9c1.1,0,1.9,0.9,1.9,1.9c0,1.1-0.9,2-1.9,2C116.6,132.9,115.7,132,115.7,130.9z
			"/>
	</g>
	<g class="st1">
		<path class="st0" d="M128.2,130.4l1.9-2.2c1.4,1.2,3,2,4.9,2c1.6,0,2.4-0.7,2.4-1.7c0-1.1-0.9-1.4-3.2-1.9
			c-3.2-0.7-5.4-1.6-5.4-4.5c0-2.8,2.3-4.7,5.5-4.7c2.4,0,4.3,0.8,5.9,2.1l-1.7,2.3c-1.3-1.1-2.8-1.7-4.3-1.7
			c-1.4,0-2.2,0.7-2.2,1.6c0,1.1,0.9,1.4,3.2,2c3.2,0.7,5.4,1.7,5.4,4.5c0,2.9-2.2,4.8-5.8,4.8C132.2,132.9,129.9,132,128.2,130.4z"
			/>
		<path class="st0" d="M142.7,118.1c0-0.9,0.8-1.7,1.7-1.7c0.9,0,1.7,0.8,1.7,1.7c0,1-0.8,1.7-1.7,1.7
			C143.5,119.8,142.7,119,142.7,118.1z M142.9,121.4h3.2v11.3h-3.2V121.4z"/>
		<path class="st0" d="M156.7,129.1l2,2.1c-1,1-2.9,1.7-4.6,1.7c-3.4,0-6-2.5-6-5.9c0-3.4,2.5-5.9,5.8-5.9c3.5,0,5.6,2.7,5.6,6.9
			h-8.1c0.4,1.2,1.4,2.1,2.7,2.1C155,130.1,156.1,129.7,156.7,129.1z M151.5,125.7h5c-0.3-1.1-1.1-1.8-2.4-1.8
			C152.9,123.9,151.9,124.6,151.5,125.7z"/>
		<path class="st0" d="M179.4,125.5v7.2h-3.1V126c0-1.3-0.8-2.2-2-2.2c-1.3,0-2.2,0.9-2.2,2.1v6.8h-3.1V126c0-1.3-0.8-2.2-2-2.2
			c-1.3,0-2.2,0.9-2.2,2.1v6.8h-3.2v-11.3h3.2v1.5c0.5-1.1,1.7-1.7,3.1-1.7c1.5,0,2.9,0.8,3.6,2.1c0.6-1.2,2-2.1,3.7-2.1
			C177.6,121.1,179.4,122.9,179.4,125.5z"/>
		<path class="st0" d="M194.2,127c0,3.5-2.2,5.9-5.2,5.9c-1.6,0-2.9-0.7-3.8-1.9v5.3h-3.2v-15h3.2v1.6c0.9-1.2,2.2-1.8,3.8-1.8
			C192,121.1,194.2,123.5,194.2,127z M191.1,127c0-1.9-1.2-3.2-3-3.2c-1.6,0-2.7,1.1-2.9,2.8v0.9c0.2,1.7,1.3,2.8,2.9,2.8
			C189.9,130.2,191.1,128.9,191.1,127z"/>
		<path class="st0" d="M203.5,121.1v2.7c-2.4,0-3.9,1.4-3.9,3.5v5.4h-3.2v-11.3h3.2v2.1C200.4,122,201.8,121.1,203.5,121.1z"/>
		<path class="st0" d="M213.3,129.1l2,2.1c-1,1-2.9,1.7-4.6,1.7c-3.4,0-6-2.5-6-5.9c0-3.4,2.5-5.9,5.8-5.9c3.5,0,5.6,2.7,5.6,6.9
			H208c0.4,1.2,1.4,2.1,2.7,2.1C211.6,130.1,212.7,129.7,213.3,129.1z M208,125.7h5c-0.3-1.1-1.1-1.8-2.4-1.8
			C209.5,123.9,208.5,124.6,208,125.7z"/>
		<path class="st0" d="M218.1,130.9c0-1,0.9-1.9,2-1.9c1.1,0,1.9,0.9,1.9,1.9c0,1.1-0.9,2-1.9,2C219,132.9,218.1,132,218.1,130.9z"
			/>
	</g>
	<g>
		<g>
			<path class="st0" d="M106.7,42.8v3.5l21.9-11.9c0.5-0.3,0.7-0.8,0.7-1.3l5.7-28.3c0.1-0.5-0.6-0.8-0.9-0.4L106.7,42.8z"/>
		</g>
		<g>
			<path class="st0" d="M163.9,42.8v3.5L142,34.4c-0.5-0.3-0.7-0.8-0.7-1.3l-5.7-28.3c-0.1-0.5,0.6-0.8,0.9-0.4L163.9,42.8z"/>
		</g>
		<g>
			<path class="st0" d="M2.7,96.9l6.9-7.7c2.9,3.1,5.7,5,9.2,5c4.1,0,6.7-2.5,6.7-8.3V53.6h11.3v32.8c0,5.9-1.7,10.4-4.7,13.4
				c-3.1,3.1-7.6,4.6-13,4.6C11.3,104.4,6.1,101,2.7,96.9z"/>
		</g>
		<g>
			<path class="st0" d="M55.2,53.6h37.8v9.8H66.1v10.2h23.6v9.8H66.1v10.5h27.2v9.8H55.2V53.6z"/>
		</g>
		<g>
			<path class="st0" d="M193,84l-19.2-30.3h12.9l11.9,20.1l12.2-20.1h12.5L204,83.8v20h-11V84z"/>
		</g>
		<g>
			<polygon class="st0" points="132,103.7 132,53.6 106.7,53.6 106.7,63.8 121.9,63.8 121.9,103.7 			"/>
		</g>
		<g>
			<polygon class="st0" points="138.5,103.7 138.5,53.6 163.9,53.6 163.9,63.8 148.7,63.8 148.7,103.7 			"/>
		</g>
	</g>
</g>
</svg>
