<?xml version="1.0" encoding="utf-8"?>
<!-- Generator: Adobe Illustrator 21.0.2, SVG Export Plug-In . SVG Version: 6.00 Build 0)  -->
<svg version="1.1" id="Layer_1" xmlns="http://www.w3.org/2000/svg" xmlns:xlink="http://www.w3.org/1999/xlink" x="0px" y="0px"
	 width="141.7px" height="141.7px" viewBox="0 0 141.7 141.7" style="enable-background:new 0 0 141.7 141.7;" xml:space="preserve"
	>
<style type="text/css">
	.st0{fill:none;stroke:#3E3E42;stroke-width:3;stroke-linejoin:round;stroke-miterlimit:10;}
	.st1{fill:none;stroke:#3E3E42;stroke-width:2;stroke-linecap:round;stroke-linejoin:round;stroke-miterlimit:10;}
</style>
<g>
	<path class="st0" d="M83.9,34.7L83.9,34.7L83.9,34.7H58.3l0,0l0,0c-3.6,0-6.5,2.9-6.5,6.5v36.2c0,2,1.6,3.6,3.6,3.6h2.8v36.3
		c0,2.7,2,5.2,4.7,5.5c3.1,0.3,5.8-2.2,5.8-5.2V78.9c0-1.1,0.8-2.2,1.9-2.3c1.4-0.2,2.6,0.9,2.6,2.2v38.6c0,2.7,2,5.2,4.7,5.5
		c3.1,0.3,5.8-2.2,5.8-5.2V81h2.8c2,0,3.6-1.6,3.6-3.6V41.2C90.3,37.6,87.4,34.7,83.9,34.7z"/>
	<line class="st0" x1="83.9" y1="81.1" x2="83.9" y2="43.7"/>
	<line class="st0" x1="58.3" y1="43.7" x2="58.3" y2="81.1"/>
</g>
<circle class="st0" cx="70.2" cy="20" r="8"/>
<polyline class="st1" points="86.3,124.1 97.2,128.2 91,130.6 118.5,132.3 114.2,121.7 108,124.1 88.1,116.5 "/>
<polyline class="st1" points="54,104.6 50.1,103.1 53,101.3 33.3,100 36.7,108.3 41.6,106.4 53.5,110.9 "/>
<polyline class="st1" points="88.9,110.7 100.1,106.4 105,108.3 108.4,100 88.7,101.3 91.6,103.1 87.4,104.8 "/>
<polyline class="st1" points="52.9,116.8 33.7,124.1 27.5,121.7 23.2,132.3 50.7,130.6 44.5,128.2 56,123.8 "/>
</svg>
