<?xml version="1.0" encoding="utf-8"?>
<!-- Generator: Adobe Illustrator 22.0.1, SVG Export Plug-In . SVG Version: 6.00 Build 0)  -->
<svg version="1.1" id="Layer_1" xmlns="http://www.w3.org/2000/svg" xmlns:xlink="http://www.w3.org/1999/xlink" x="0px" y="0px"
	 width="42.5px" height="42.5px" viewBox="0 0 42.5 42.5" style="enable-background:new 0 0 42.5 42.5;" xml:space="preserve">
<style type="text/css">
	.st0{fill:none;stroke:#4BBFA7;stroke-width:2;stroke-linecap:round;stroke-linejoin:round;stroke-miterlimit:10;}
	.st1{fill:#4BBFA7;}
</style>
<g>
	<circle class="st0" cx="21.1" cy="21" r="17.6"/>
	<path class="st1" d="M21.8,21.5L21.8,21.5c-0.4,0.5-1,0.5-1.5,0.1l-9.1-7.6c-0.5-0.4-0.5-1-0.1-1.5l0,0c0.4-0.5,1-0.5,1.5-0.1
		l9.1,7.6C22.1,20.4,22.2,21,21.8,21.5z"/>
	<path class="st1" d="M20.4,21.5L20.4,21.5c-0.4-0.5-0.3-1.1,0.2-1.5l4.9-3.7c0.5-0.4,1.1-0.3,1.5,0.2l0,0c0.4,0.5,0.3,1.1-0.2,1.5
		l-4.9,3.7C21.5,22,20.8,21.9,20.4,21.5z"/>
	<line class="st0" x1="21.1" y1="6.6" x2="21.1" y2="9.8"/>
	<line class="st0" x1="6.9" y1="21" x2="10.1" y2="21"/>
	<line class="st0" x1="32.3" y1="21" x2="35.6" y2="21"/>
	<line class="st0" x1="21.1" y1="32.4" x2="21.1" y2="35.7"/>
</g>
</svg>
