<?xml version="1.0" encoding="utf-8"?>
<!-- Generator: Adobe Illustrator 23.0.3, SVG Export Plug-In . SVG Version: 6.00 Build 0)  -->
<svg version="1.1" id="Layer_1" xmlns="http://www.w3.org/2000/svg" xmlns:xlink="http://www.w3.org/1999/xlink" x="0px" y="0px"
	 width="90px" height="80px" viewBox="0 0 90 80" style="enable-background:new 0 0 90 80;" xml:space="preserve">
<style type="text/css">
	.st0{fill:url(#SVGID_1_);}
	.st1{fill:#FFFFFF;}
	.st2{fill:url(#SVGID_2_);}
</style>
<g>
	
		<image style="overflow:visible;opacity:0.2;enable-background:new    ;" width="96" height="93" xlink:href="5D2AF0B7FBF4B582.png"  transform="matrix(1 0 0 1 3 -1)">
	</image>
	<g>
		
			<linearGradient id="SVGID_1_" gradientUnits="userSpaceOnUse" x1="50.7" y1="72.5879" x2="50.7" y2="23.5627" gradientTransform="matrix(1 0 0 -1 0 82)">
			<stop  offset="0" style="stop-color:#FFCC6C"/>
			<stop  offset="1" style="stop-color:#FF9831"/>
		</linearGradient>
		<path class="st0" d="M69,68.1c-0.2,0-0.5-0.1-0.7-0.2l-17.6-9.2l-17.6,9.2c-0.2,0.1-0.5,0.2-0.7,0.2c-0.3,0-0.6-0.1-0.9-0.3
			c-0.5-0.3-0.7-0.9-0.6-1.5l3.4-19.6L20.1,32.9c-0.4-0.4-0.6-1-0.4-1.5s0.6-0.9,1.2-1l19.7-2.9l8.8-17.8c0.3-0.5,0.8-0.8,1.3-0.8
			s1.1,0.3,1.3,0.8l8.8,17.8l19.7,2.9c0.6,0.1,1,0.5,1.2,1s0,1.1-0.4,1.5L67.1,46.7l3.4,19.6c0.1,0.6-0.1,1.1-0.6,1.5
			C69.6,68,69.3,68.1,69,68.1z"/>
		<path class="st1" d="M50.7,10.3l9.1,18.5l20.4,3L65.5,46.2L69,66.6L50.7,57l-18.3,9.6l3.5-20.4L21.1,31.8l20.4-3L50.7,10.3
			 M50.7,7.3c-1.1,0-2.2,0.6-2.7,1.7l-8.4,17.1l-18.9,2.7c-1.1,0.2-2.1,1-2.4,2c-0.4,1.1-0.1,2.3,0.8,3.1l13.7,13.3L29.6,66
			c-0.2,1.1,0.3,2.3,1.2,2.9c0.5,0.4,1.1,0.6,1.8,0.6c0.5,0,1-0.1,1.4-0.3l16.9-8.9l16.9,8.9c0.4,0.2,0.9,0.3,1.4,0.3
			c0.6,0,1.2-0.2,1.8-0.6c0.9-0.7,1.4-1.8,1.2-2.9L69,47.2l13.7-13.3c0.8-0.8,1.1-2,0.8-3.1c-0.4-1.1-1.3-1.9-2.4-2l-18.9-2.7
			L53.4,9C52.9,7.9,51.8,7.3,50.7,7.3L50.7,7.3z"/>
	</g>
</g>
<g>
	
		<image style="overflow:visible;opacity:0.2;enable-background:new    ;" width="70" height="68" xlink:href="5D2AF0B7FBF4B585.png"  transform="matrix(1 0 0 1 -10 20)">
	</image>
	<g>
		
			<linearGradient id="SVGID_2_" gradientUnits="userSpaceOnUse" x1="25" y1="50.8961" x2="25" y2="22.0501" gradientTransform="matrix(1 0 0 -1 0 82)">
			<stop  offset="0" style="stop-color:#FFCC6C"/>
			<stop  offset="1" style="stop-color:#FF9831"/>
		</linearGradient>
		<path class="st2" d="M35.2,64.4c-0.2,0-0.5-0.1-0.7-0.2l-9.4-4.9l-9.4,4.9c-0.2,0.1-0.5,0.2-0.7,0.2c-0.3,0-0.6-0.1-0.9-0.3
			c-0.5-0.3-0.7-0.9-0.6-1.5l1.8-10.5l-7.6-7.4c-0.4-0.4-0.6-1-0.4-1.5c0.2-0.5,0.6-0.9,1.2-1L19,40.7l4.7-9.5
			c0.3-0.5,0.8-0.8,1.3-0.8s1.1,0.3,1.3,0.8l4.7,9.5l10.5,1.5c0.6,0.1,1,0.5,1.2,1s0,1.1-0.4,1.5l-7.6,7.4l1.8,10.5
			c0.1,0.6-0.1,1.1-0.6,1.5C35.8,64.3,35.5,64.4,35.2,64.4z"/>
		<path class="st1" d="M25.1,31.8l5,10.2l11.3,1.6l-8.2,8l1.9,11.2L25,57.5l-10,5.4l1.9-11.2l-8.2-8L20,42L25.1,31.8 M25.1,28.8
			c-1.1,0-2.2,0.6-2.7,1.7L18,39.3l-9.7,1.4c-1.1,0.2-2.1,1-2.4,2c-0.4,1.1-0.1,2.3,0.8,3.1l7,6.9L12,62.4c-0.2,1.1,0.3,2.3,1.2,2.9
			c0.5,0.4,1.1,0.6,1.8,0.6c0.5,0,1-0.1,1.4-0.3l8.7-4.6l8.7,4.6c0.4,0.2,0.9,0.3,1.4,0.3c0.6,0,1.2-0.2,1.8-0.6
			c0.9-0.7,1.4-1.8,1.2-2.9l-1.7-9.7l7-6.9c0.8-0.8,1.1-2,0.8-3.1c-0.4-1.1-1.3-1.9-2.4-2l-9.7-1.4l-4.4-8.8
			C27.2,29.4,26.2,28.8,25.1,28.8L25.1,28.8z"/>
	</g>
</g>
</svg>
