<?xml version="1.0" encoding="utf-8"?>
<!-- Generator: Adobe Illustrator 20.0.0, SVG Export Plug-In . SVG Version: 6.00 Build 0)  -->
<svg version="1.1" id="Layer_1" xmlns="http://www.w3.org/2000/svg" xmlns:xlink="http://www.w3.org/1999/xlink" x="0px" y="0px"
	 viewBox="0 0 85 85" style="enable-background:new 0 0 85 85;" xml:space="preserve">
<style type="text/css">
	.st0{fill:none;stroke:#3E3E42;stroke-width:2;stroke-linecap:round;stroke-linejoin:round;stroke-miterlimit:10;}
	.st1{fill:#3E3E42;}
</style>
<g>
	<path class="st0" d="M38.4,29.3c-1.2-1.7-2-3.9-2-6.2c0-5.8,4.7-10.6,10.6-10.6s10.6,4.7,10.6,10.6c0,2.7-1,5.1-2.6,7"/>
	<g>
		<path class="st1" d="M46.3,29.6v-1.4c-0.9,0-1.8-0.3-2.3-0.6l0.4-1.3c0.6,0.3,1.4,0.6,2.2,0.6c0.9,0,1.5-0.4,1.5-1.1
			c0-0.6-0.5-1.1-1.6-1.4C45,23.9,44,23.2,44,21.8c0-1.2,0.9-2.2,2.3-2.4V18h1.2v1.3c0.9,0,1.5,0.2,2,0.5L49.2,21
			c-0.3-0.2-1-0.5-1.9-0.5c-1,0-1.4,0.5-1.4,1c0,0.6,0.5,0.9,1.7,1.4c1.6,0.6,2.3,1.4,2.3,2.6s-0.8,2.3-2.4,2.5v1.5h-1.2V29.6z"/>
	</g>
	<path class="st0" d="M72.3,48.9c0,4.6-2.1,8.9-5.7,12.2L65,72.5h-5.8L56.4,67c-3.5,1.2-7.3,1.8-11.4,1.8c-3,0-6-0.4-8.7-1l-2.4,4.7
		h-5.8v-8c-2.4-1.4-4.5-3.1-6.2-5c-3.1-2.2-6.3-4.6-7.3-5.7c-1.6-1.7-2.4-5.9-1.5-9.8c3.2,0,5.1-0.7,5.9-1.2c1-2.2,2.5-4.3,4.4-6.1
		c-1.2-2-2.4-4-2.6-5.5c-0.1-1,0.7-1.7,1.6-1.7c3.2,0.2,5.5,1.5,7.1,3C33.9,30.3,39.2,29,45,29C60.1,28.9,72.3,37.8,72.3,48.9z"/>
	<path class="st0" d="M29.5,32.4c1.8,1.6,2.6,3.4,2.8,4.2"/>
	<path class="st0" d="M19.7,42.3c0,0-0.2,0.2-0.6,0.4"/>
	<circle class="st0" cx="29.2" cy="45.4" r="3.1"/>
	<path class="st0" d="M27.1,57.8c2.1,2.9,9.1,7.7,19.9,7.1"/>
</g>
</svg>
