<?xml version="1.0" encoding="utf-8"?>
<!-- Generator: Adobe Illustrator 22.0.1, SVG Export Plug-In . SVG Version: 6.00 Build 0)  -->
<svg version="1.1" id="Layer_1" xmlns="http://www.w3.org/2000/svg" xmlns:xlink="http://www.w3.org/1999/xlink" x="0px" y="0px"
	 width="113.4px" height="85px" viewBox="0 0 113.4 85" style="enable-background:new 0 0 113.4 85;" xml:space="preserve">
<style type="text/css">
	.st0{fill:#49BDA7;stroke:#404042;stroke-linecap:round;stroke-linejoin:round;stroke-miterlimit:10;}
	.st1{fill:none;stroke:#404042;stroke-linecap:round;stroke-linejoin:round;stroke-miterlimit:10;}
</style>
<g>
	<path class="st0" d="M59,24c0-0.3-0.1-0.7-0.4-0.8C58.3,23,58,23,57.8,22.7c-0.2-0.2-0.2-0.5-0.3-0.8c-0.1-1,0.1-2,0.5-2.9
		c0-0.1,0.1-0.2,0.1-0.2c0.1-0.1,0.4-0.1,0.5-0.1c0.7,0,1.3-0.3,1.6-0.9s0.2-1.4-0.3-1.8c-0.5-0.5-1.4-0.7-1.7-1.3
		c-0.1-0.3-0.1-0.7-0.2-1.1c-0.1-0.3-0.4-0.7-0.8-0.6l0.2-0.2c-0.1-0.1-0.1-0.2-0.1-0.3s0.1-0.2,0.2-0.3c0.1,0,0.2,0,0.2,0
		c0.5,0.2,0.7,0.8,1.2,0.8c0.2,0,0.4-0.1,0.6-0.1c0.2,0,0.5,0.1,0.5,0.3c0,0.1,0,0.1,0,0.2c0.1,0.1,0.3,0.2,0.4,0.1
		c0.1-0.1,0.2-0.3,0.2-0.4c0-0.2,0-0.4,0-0.5s0-0.2-0.1-0.2c-0.1-0.1-0.2-0.1-0.3-0.1s-0.2,0.1-0.3,0.1c-0.4,0.2-1,0.2-1.4,0
		s-0.8-0.6-0.9-1.1c0-0.1,0-0.1,0.1-0.1h-0.4c0.3,0,0.6-0.3,0.6-0.6s-0.1-0.6-0.3-0.9c0.8-0.2,1.4-1,1.3-1.7c0.4,0,0.8-0.1,1.1-0.4
		s0.4-0.8,0-1.1c0.2,0,0.5-0.1,0.7-0.3C60.8,6.1,61,6,61,5.8s-0.1-0.4-0.2-0.4c0.5,0,1.1-0.9,0.9-1.4c-0.7,0.3-1.4,0.6-2.1,0.9
		c-0.7,0.3-1.4,0.6-2,1.1s-0.9,1.3-0.8,2l-0.2,0.1c-0.1,0,0-0.2,0-0.2c0.1-0.2,0.1-0.5-0.1-0.7c-0.2-0.2-0.4-0.3-0.7-0.3
		s-0.6,0-0.8,0.2s-0.3,0.5-0.2,0.7s0.2,0.4,0.3,0.5c0,0.1,0.1,0.2,0.1,0.4s0,0.5-0.2,0.7s-0.6,0-0.8-0.1c-0.5-0.4-0.7-1-0.8-1.6
		c0-0.1-0.1-0.2,0-0.4c0.1-0.2,0.2-0.3,0.4-0.4s0.4-0.1,0.6-0.2c0.2-0.1,0.3-0.3,0.3-0.5c0,0,0-0.1-0.1-0.1c-0.1-0.1-0.2,0-0.3,0
		c-0.5,0.1-1.1,0.2-1.6,0.4c-0.1,0-0.2,0.1-0.3,0.2s0,0.3,0.2,0.4c0.1,0.1,0.3,0,0.4,0c-0.2,0.2-0.2,0.5-0.1,0.8
		c0.1,0.3,0.3,0.5,0.5,0.7s0.3,0.5,0.3,0.8l0,0c-2-2.5-4.5-4.7-7.4-6.2c-0.3,0.4-0.2,1.2,0.3,1.4c0.1,0.1,0.3,0.1,0.3,0.3
		c0,0.1-0.1,0.1-0.1,0.2c-0.3,0.4,0,1,0.4,1.3s0.9,0.3,1.4,0.4c-0.3,0.5,0,1.1,0.5,1.4s1,0.3,1.6,0.4c-0.4,0.2-0.4,0.9-0.1,1.2
		c0.3,0.4,0.8,0.5,1.3,0.4c0.1,0.2-0.1,0.4-0.1,0.7s0.2,0.6,0.5,0.6c0.3,0.1,0.6,0,0.9-0.1c-0.1,0.4,0.3,0.9,0.8,0.9
		s0.9-0.4,0.9-0.8l-0.2,0.7c0.2,0.7,0,1.6-0.5,2.2c-0.1,0.1-0.2,0.2-0.3,0.3s-0.1,0.3,0,0.4s0.2,0.1,0.3,0.1c0.3,0.1,0.2,0.5,0,0.7
		c-0.2,0.2-0.5,0.3-0.8,0.4s-0.5,0.3-0.7,0.5s-0.2,0.6-0.1,0.8c0.1,0.3,0.5,0.4,0.7,0.6c0.3,0.2,0.5,0.4,0.5,0.7
		c0,0.1-0.1,0.3-0.1,0.4c-0.1,0.4,0.4,0.6,0.8,0.7c0.1,0.3-0.2,0.6-0.1,0.9c0.1,0.1,0.2,0.1,0.3,0.2c0.3,0.2,0.4,0.6,0.3,0.9
		c-0.1,0.3-0.4,0.5-0.6,0.8s-0.5,0.4-0.6,0.7c-0.1,0.2-0.1,0.5-0.2,0.8"/>
	<path class="st1" d="M55.4,14.7c0.2-0.1,0.4,0,0.6,0.1c0.6,0.4,1.2,1,1.5,1.7c0.2,0.4,0.3,0.9,0.6,1.3c0.1,0.1,0.2,0.3,0.2,0.5"/>
	<path class="st1" d="M55.5,16.7c0.2,0,0.3,0.2,0.3,0.3c0.1,0.2,0.2,0.5,0.2,0.7c0,0.4-0.2,0.8-0.5,1.2s-0.6,0.6-0.8,1"/>
	<rect x="52.8" y="36.8" class="st1" width="7.9" height="25.4"/>
	<rect x="52.8" y="41.8" class="st1" width="7.9" height="2.3"/>
	<rect x="52.8" y="52.2" class="st1" width="7.9" height="2.3"/>
	<polygon class="st1" points="60.7,36.8 52.8,36.8 50.5,32.6 63,32.6 	"/>
	<rect x="50.5" y="28.5" class="st1" width="12.5" height="4.1"/>
	<rect x="53.4" y="24.2" class="st1" width="6.7" height="4.3"/>
	<polygon class="st1" points="62.5,64 51,64 53.2,62.2 60.2,62.2 	"/>
	<rect x="51" y="64" class="st1" width="11.5" height="4.9"/>
	<rect x="47.6" y="68.9" class="st1" width="18.2" height="2.6"/>
	<polygon class="st1" points="68.9,71.6 44.5,71.6 45.5,73.2 67.8,73.2 	"/>
	<rect x="45.7" y="73.2" class="st1" width="22.1" height="8.6"/>
</g>
</svg>
