<?xml version="1.0" encoding="utf-8"?>
<!-- Generator: Adobe Illustrator 23.0.3, SVG Export Plug-In . SVG Version: 6.00 Build 0)  -->
<svg version="1.1" id="Layer_1" xmlns="http://www.w3.org/2000/svg" xmlns:xlink="http://www.w3.org/1999/xlink" x="0px" y="0px"
	 width="18.7px" height="14.1px" viewBox="0 0 18.7 14.1" style="enable-background:new 0 0 18.7 14.1;" xml:space="preserve">
<style type="text/css">
	.st0{fill:#4BBFA7;}
</style>
<path id="Fill_1" class="st0" d="M18.2,7.7C18.2,7.7,18.2,7.6,18.2,7.7c0.1-0.1,0.1-0.2,0.1-0.2V7.4V7.3c0-0.1,0-0.1,0-0.2V7
	c0-0.1,0-0.1,0-0.2s0-0.1,0-0.1V6.6c0-0.1-0.1-0.1-0.1-0.2c0,0,0,0,0-0.1c-0.1,0-0.2-0.1-0.2-0.1l-5.4-5.4c-0.5-0.5-1.2-0.5-1.7,0
	l0,0c-0.5,0.5-0.5,1.2,0,1.7l0,0l3.4,3.4H1.5C0.9,5.8,0.3,6.4,0.3,7s0.5,1.2,1.2,1.2h12.7l-3.4,3.4c-0.5,0.4-0.5,1.2-0.1,1.7
	s1.2,0.5,1.7,0.1l0.1-0.1L18,7.9L18.2,7.7L18.2,7.7z"/>
</svg>
