<?xml version="1.0" encoding="utf-8"?>
<!-- Generator: Adobe Illustrator 20.0.0, SVG Export Plug-In . SVG Version: 6.00 Build 0)  -->
<svg version="1.1" id="Layer_1" xmlns="http://www.w3.org/2000/svg" xmlns:xlink="http://www.w3.org/1999/xlink" x="0px" y="0px"
	 viewBox="0 0 141.7 141.7" style="enable-background:new 0 0 141.7 141.7;" xml:space="preserve">
<style type="text/css">
	.st0{fill:none;stroke:#3E3E42;stroke-width:3;stroke-linejoin:round;stroke-miterlimit:10;}
	.st1{fill:none;stroke:#3E3E42;stroke-width:3;stroke-miterlimit:10;}
</style>
<g>
	<path class="st0" d="M37.3,25.9c-5,8.5-0.4,40.8,12.2,73.6c13,1.8,52.6,2.1,55.5,0.8c1.8-0.9,2.6-6.5,2.9-10.4
		c0.2-2.4-1.4-4.6-3.7-5.1c-6.9-1.6-20.1-4-44.2-0.8c-1.3-3.6-10.5-47.8-8.6-53.5C54,21.8,40.5,20.5,37.3,25.9z"/>
	<path class="st1" d="M51.3,110.6v7.4c0,0.7,0.6,1.3,1.3,1.3H103c0.7,0,1.3-0.6,1.3-1.3v-7.1c0-0.8-0.7-1.4-1.5-1.3
		c-3.2,0.4-11.5,1.5-27.1,1c-14-0.5-20.6-1-23-1.2C52,109.2,51.3,109.8,51.3,110.6z"/>
</g>
</svg>
