<?xml version="1.0" encoding="utf-8"?>
<!-- Generator: Adobe Illustrator 23.0.3, SVG Export Plug-In . SVG Version: 6.00 Build 0)  -->
<svg version="1.1" id="asiento" xmlns="http://www.w3.org/2000/svg" xmlns:xlink="http://www.w3.org/1999/xlink" x="0px" y="0px"
	 width="141px" height="141px" viewBox="0 0 141 141" style="enable-background:new 0 0 141 141;" xml:space="preserve">
<style type="text/css">
	.st0{fill:none;stroke:#2D414D;stroke-width:3;stroke-linejoin:round;stroke-miterlimit:10;}
	.st1{fill:none;stroke:#2D414D;stroke-width:3;stroke-miterlimit:10;}
</style>
<g>
	<path class="st0" d="M37.1,25.8c-5,8.5-0.4,40.6,12.1,73.2c12.9,1.8,52.3,2.1,55.2,0.8c1.8-0.9,2.6-6.5,2.9-10.3
		c0.2-2.4-1.4-4.6-3.7-5.1c-6.9-1.6-20-4-44-0.8C58.4,80,49.3,36,51.1,30.3C53.7,21.7,40.3,20.4,37.1,25.8z"/>
	<path class="st1" d="M51,110.1v7.4c0,0.7,0.6,1.3,1.3,1.3h50.2c0.7,0,1.3-0.6,1.3-1.3v-7.1c0-0.8-0.7-1.4-1.5-1.3
		c-3.2,0.4-11.4,1.5-27,1c-13.9-0.5-20.5-1-22.9-1.2C51.7,108.7,51,109.3,51,110.1z"/>
</g>
</svg>
