<?xml version="1.0" encoding="utf-8"?>
<!-- Generator: Adobe Illustrator 20.0.0, SVG Export Plug-In . SVG Version: 6.00 Build 0)  -->
<svg version="1.1" id="Layer_1" xmlns="http://www.w3.org/2000/svg" xmlns:xlink="http://www.w3.org/1999/xlink" x="0px" y="0px"
	 viewBox="0 0 56.7 56.7" style="enable-background:new 0 0 56.7 56.7;" xml:space="preserve">
<style type="text/css">
	.st0{fill:none;stroke:#919192;stroke-width:2;stroke-miterlimit:10;}
</style>
<g>
	<path class="st0" d="M16.6,14.8c-0.2,1-0.6,12,1.9,16.9c0.2,0.4,0.7,0.6,1.2,0.5c1.1-0.3,3.1-0.5,4.6-0.1c0.4,0.1,0.8,0,1.1-0.3
		c1-1.3,1.7-3.3,0.8-6.5c-1-3.7-5.4-9.7-8.3-11.1C16.9,13.7,16.7,13.9,16.6,14.8z"/>
	<path class="st0" d="M17.9,11c0,0.2,2.3,0.6,3.4,2.3c0.8,0.3,2.1-1,1.7-3.2s-0.9-3-2.7-2.6C18.7,7.9,18.1,10.1,17.9,11z"/>
	<path class="st0" d="M27.4,35.4c5.3,0,7.2-1.7,10.1-1.7s3.1,1.2,3.2,2c0.1,0.9,0,4.2-1.5,4.7c-1.5,0.4-9.4,0.4-11.7,0.4
		s-6.1,0.1-6.7-0.3s-2.2-4.6-0.1-5.6C22.2,34.2,22.2,35.4,27.4,35.4z"/>
	<path class="st0" d="M20.8,44.2v2.6c0,0.3,0.2,0.5,0.5,0.5h17.6c0.3,0,0.5-0.2,0.5-0.5V44c0-0.3-0.2-0.5-0.5-0.5
		c-1.1,0.1-4.2,0.4-9.6,0.4c-4.9,0-7-0.1-7.9-0.2C21,43.7,20.8,43.9,20.8,44.2z"/>
</g>
</svg>
