<?xml version="1.0" encoding="utf-8"?>
<!-- Generator: Adobe Illustrator 20.0.0, SVG Export Plug-In . SVG Version: 6.00 Build 0)  -->
<svg version="1.1" id="Layer_1" xmlns="http://www.w3.org/2000/svg" xmlns:xlink="http://www.w3.org/1999/xlink" x="0px" y="0px"
	 viewBox="0 0 141.7 141.7" style="enable-background:new 0 0 141.7 141.7;" xml:space="preserve">
<style type="text/css">
	.st0{opacity:0.5;}
	.st1{fill:#4BBFA9;}
	.st2{fill:none;stroke:#FFFFFF;stroke-width:0.9296;stroke-miterlimit:10;}
	.st3{fill:#FFFFFF;stroke:#FFFFFF;stroke-width:0.9296;stroke-miterlimit:10;}
	.st4{fill:none;stroke:#FFFFFF;stroke-width:0.9394;stroke-miterlimit:10;}
	.st5{fill:#FFFFFF;stroke:#FFFFFF;stroke-width:0.9394;stroke-miterlimit:10;}
	.st6{fill:none;stroke:#FFFFFF;stroke-miterlimit:10;}
	.st7{fill:#FFFFFF;stroke:#FFFFFF;stroke-miterlimit:10;}
	.st8{fill:#64A396;}
	.st9{fill:#FFFFFF;}
</style>
<g>
	<g class="st0">
		<g>
			<g>
				<path class="st1" d="M96.6,87.2c-0.4-2.6-3.5-4.8-5.3-5.3c-0.9-0.3-2.4-0.4-4.5-0.6c-1.1-0.1-2.4-0.2-2.9-0.3
					c-1-0.2-2.2-0.5-3.3-0.8c2.3-1.4,5-4.7,4.5-10.2c-0.3-3.2-3.3-22.4-5.4-25.6c-1.9-2.8-4.2-3.4-6.4-3.6c0-0.1,0.1-0.1,0.1-0.2
					c1.1-2.6,1.2-6.7-1.1-9.5c-3-3.7-6.1-4.4-10.3-4.4c-0.4,0-0.8,0-1.3,0.1c-0.5,0-1-0.1-1.5-0.1c-4.5,0-8.2,1.9-9.7,5.1
					c-1.5,3.1-1.3,7.9-0.4,9.2l0.1,0.2c0,0,0,0,0,0c-1.5,0.5-3.5,1.6-4,4.8c-0.6,3.1-0.8,23,1,28.7c1.2,4,3.4,6.4,5.6,7.7
					c-1.6,1.1-3.7,3.3-3.3,6.5c0.5,4.6,3.4,5.3,4.8,5.7c1,0.4,4.9,3.3,5.7,4.1c2.3,3.2,5.7,5,9.7,5c0.3,0,0.5,0,0.8,0
					c3.1-0.2,5.1-0.7,6.8-1.2c1.3-0.4,2.4-0.6,3.6-0.7c0.1,0,10.8-0.3,13.5-2.5C95.4,97.5,98.6,92.5,96.6,87.2z"/>
				<path class="st2" d="M55.2,43.4c-1.4,0.3-3.3,0.3-3.8,3c-0.5,2.8-0.8,22.1,0.9,27.4c1.6,5.3,4.9,6.9,6.9,6.9s17.9-1.8,19.4-2.4
					c1.5-0.6,4.4-3,3.9-8c-0.5-5-3.5-22.1-5-24.4c-1.5-2.3-3.4-2.4-5.6-2.5C69.5,43.3,57,43,55.2,43.4z"/>
				<path class="st3" d="M55.7,40.4c-1.2,0-1.2-0.3-1.7-1c-0.5-0.7-0.3-4.6,0.6-6.5c0.7-1.5,2.6-3.1,5.7-3.4l-1.1-0.1
					c-3.8,0-6.4,1.6-7.3,3.5s-1.1,5.8-0.6,6.5c0.5,0.7,0.5,1,1.7,1c0.8,0,7.7,0,11.7,0C60.9,40.5,56.4,40.4,55.7,40.4z"/>
				<path class="st2" d="M55.7,40.4c1.1,0,13.7,0.1,14.5,0c0.8-0.1,2.3-4.8,0-7.7C68,30,65.8,29.3,62,29.3s-6.4,1.6-7.3,3.5
					c-0.9,1.9-1.1,5.8-0.6,6.5C54.5,40.1,54.5,40.4,55.7,40.4z"/>
				<path class="st2" d="M53.6,84.2c0,0,5.9,3.2,8.2,5.9c2.3,2.7,4.6,4.5,7.4,4.5s6.7-1.5,8.4-1.5s10.6-1.6,12.2-1.5
					c1.5,0.1,4.2-2.6,4.2-3.8c0.1-1.2-2-2.9-3.4-3.3c-1.4-0.4-5.8-0.6-7.2-0.9c-1.4-0.3-5.5-1.2-5.9-1.4s-7.7,1-9.6,1
					S53.6,84.2,53.6,84.2z"/>
				<path class="st3" d="M94,87.8c-0.1,1.2-2.7,3.8-4.2,3.8c-1.5-0.1-10.5,1.5-12.2,1.5c-1.7,0-5.6,1.5-8.4,1.5s-5.1-1.8-7.4-4.5
					c-2.3-2.7-8.2-5.9-8.2-5.9s-2.9,1.4-2.5,4.2c0.3,2.8,1.5,3.1,2.9,3.4c1.3,0.3,6.6,4.3,7.2,5.1c0.5,0.8,3,4.2,8.2,3.9
					c5.2-0.3,7.2-1.8,10.5-1.8c3.4-0.1,10.5-0.8,11.9-1.9C93.1,95.9,95.8,91.9,94,87.8z"/>
				<path class="st3" d="M52.3,73.8c-1.6-5.3-1.4-24.6-0.9-27.4c0.5-2.8,2.4-2.7,3.8-3c0.6-0.1,2.1-0.2,4.1-0.2
					c-3.5,0-6.8,0-7.7,0.2c-1.4,0.3-3.3,0.3-3.8,3c-0.5,2.8-0.8,22.1,0.9,27.4c1.6,5.3,4.9,6.9,6.9,6.9l2.7,0l-2.3-1.2
					C54.5,78.4,53.2,76.6,52.3,73.8z"/>
			</g>
		</g>
		<g>
			<g>
				<path class="st1" d="M61.7,87.9c-0.4-2.7-3.5-4.8-5.4-5.3c-0.9-0.3-2.4-0.4-4.5-0.6c-1.1-0.1-2.4-0.2-2.9-0.3
					c-1-0.2-2.3-0.5-3.4-0.8c2.3-1.4,5.1-4.7,4.5-10.3c-0.3-3.3-3.3-22.6-5.5-25.9c-1.9-2.8-4.3-3.4-6.5-3.6c0-0.1,0.1-0.1,0.1-0.2
					c1.1-2.6,1.2-6.8-1.1-9.7c-3-3.7-6.2-4.4-10.4-4.4c-0.4,0-0.8,0-1.3,0.1c-0.5,0-1-0.1-1.5-0.1c-4.6,0-8.3,2-9.8,5.1
					c-1.5,3.1-1.3,7.9-0.4,9.3l0.1,0.2c0,0,0,0,0,0c-1.5,0.5-3.5,1.6-4.1,4.8c-0.6,3.2-0.8,23.2,1,29c1.3,4.1,3.4,6.5,5.6,7.8
					c-1.7,1.1-3.7,3.4-3.3,6.6c0.5,4.6,3.4,5.4,4.9,5.8c1.1,0.5,4.9,3.3,5.8,4.2c2.3,3.3,5.8,5,9.8,5c0.3,0,0.5,0,0.8,0
					c3.1-0.2,5.2-0.7,6.9-1.2c1.3-0.4,2.4-0.6,3.7-0.7c0.1,0,10.9-0.3,13.7-2.6C60.4,98.3,63.7,93.2,61.7,87.9z"/>
				<path class="st4" d="M19.8,43.6c-1.4,0.3-3.3,0.3-3.8,3S15.2,69,16.9,74.3s4.9,6.9,6.9,6.9s18.1-1.8,19.6-2.4s4.4-3,3.9-8.1
					c-0.5-5.1-3.5-22.4-5.1-24.6s-3.4-2.4-5.7-2.5S21.7,43.1,19.8,43.6z"/>
				<path class="st5" d="M20.4,40.6c-1.2,0-1.2-0.3-1.7-1c-0.5-0.7-0.3-4.7,0.6-6.6c0.7-1.5,2.6-3.1,5.8-3.5l-1.2-0.1
					c-3.9,0-6.5,1.6-7.4,3.6s-1.1,5.9-0.6,6.6c0.5,0.7,0.5,1,1.7,1c0.8,0,7.8,0,11.8,0C25.5,40.6,21,40.6,20.4,40.6z"/>
				<path class="st4" d="M20.4,40.6c1.1,0,13.8,0.1,14.6,0c0.8-0.1,2.3-4.9,0-7.8c-2.2-2.7-4.4-3.4-8.3-3.4S20.2,31,19.3,33
					s-1.1,5.9-0.6,6.6C19.1,40.3,19.1,40.6,20.4,40.6z"/>
				<path class="st4" d="M18.2,84.8c0,0,6,3.3,8.3,6c2.3,2.7,4.7,4.6,7.5,4.6s6.8-1.6,8.5-1.6s10.7-1.6,12.3-1.6
					c1.6,0.1,4.2-2.6,4.3-3.8s-2-3-3.4-3.3c-1.4-0.4-5.9-0.6-7.3-0.9s-5.5-1.2-6-1.4c-0.5-0.2-7.8,1-9.7,1S18.2,84.8,18.2,84.8z"/>
				<path class="st5" d="M59,88.5c-0.1,1.2-2.7,3.9-4.3,3.8c-1.6-0.1-10.6,1.6-12.3,1.6c-1.7,0-5.7,1.6-8.5,1.6s-5.1-1.9-7.5-4.6
					c-2.3-2.7-8.3-6-8.3-6s-2.9,1.5-2.6,4.3c0.3,2.8,1.6,3.1,2.9,3.4c1.3,0.3,6.7,4.4,7.2,5.1c0.5,0.8,3,4.3,8.3,4
					c5.3-0.3,7.2-1.8,10.7-1.9c3.4-0.1,10.6-0.8,12-1.9C58.1,96.7,60.8,92.6,59,88.5z"/>
				<path class="st5" d="M16.9,74.3C15.2,69,15.5,49.4,16,46.6c0.5-2.8,2.4-2.7,3.8-3c0.6-0.1,2.1-0.2,4.1-0.2c-3.5,0-6.9,0-7.8,0.2
					c-1.4,0.3-3.3,0.3-3.8,3c-0.5,2.8-0.8,22.4,0.9,27.7c1.6,5.3,4.9,6.9,6.9,6.9l2.7,0L20.6,80C19.2,79,17.8,77.2,16.9,74.3z"/>
			</g>
		</g>
		<g>
			<g>
				<path class="st1" d="M131.2,94.8c-0.4-2.8-3.7-5.1-5.7-5.7c-1-0.3-2.5-0.4-4.8-0.7c-1.2-0.1-2.6-0.3-3.1-0.4
					c-1-0.2-2.4-0.5-3.6-0.8c2.5-1.5,5.4-5,4.8-11c-0.3-3.5-3.5-24.1-5.9-27.6c-2-3-4.6-3.7-6.9-3.9c0-0.1,0.1-0.1,0.1-0.2
					c1.2-2.8,1.3-7.2-1.1-10.3c-3.2-3.9-6.6-4.7-11.1-4.7c-0.4,0-0.9,0-1.4,0.1c-0.5,0-1.1-0.1-1.6-0.1c-4.9,0-8.9,2.1-10.5,5.5
					C78.8,38.4,79,43.6,80,45l0.1,0.2c0,0,0,0,0,0c-1.6,0.5-3.7,1.7-4.4,5.1c-0.6,3.4-0.9,24.7,1,30.8c1.3,4.3,3.6,6.9,6,8.3
					c-1.8,1.2-3.9,3.6-3.6,7c0.6,4.9,3.6,5.8,5.2,6.1c1.1,0.5,5.3,3.5,6.2,4.4c2.5,3.5,6.2,5.4,10.5,5.4c0.3,0,0.6,0,0.9,0
					c3.3-0.2,5.5-0.8,7.3-1.3c1.4-0.4,2.6-0.7,3.9-0.7c0.1,0,11.6-0.3,14.5-2.7C129.8,105.9,133.3,100.5,131.2,94.8z"/>
				<path class="st6" d="M86.6,47.6c-1.5,0.3-3.5,0.3-4,3.2c-0.5,3-0.8,23.8,0.9,29.5c1.7,5.6,5.2,7.4,7.4,7.4
					c2.2,0,19.2-1.9,20.8-2.6c1.6-0.7,4.7-3.2,4.2-8.6c-0.5-5.4-3.8-23.8-5.4-26.2c-1.6-2.4-3.6-2.6-6.1-2.7S88.6,47.2,86.6,47.6z"
					/>
				<path class="st7" d="M87.2,44.5c-1.3,0-1.3-0.3-1.8-1.1c-0.5-0.7-0.3-5,0.7-7c0.8-1.6,2.8-3.3,6.1-3.7l-1.2-0.1
					c-4.1,0-6.9,1.7-7.9,3.8s-1.2,6.3-0.7,7c0.5,0.7,0.5,1.1,1.8,1.1c0.8,0,8.3,0,12.6,0C92.7,44.5,87.9,44.5,87.2,44.5z"/>
				<path class="st6" d="M87.2,44.5c1.2,0,14.7,0.1,15.6,0c0.8-0.1,2.5-5.2,0-8.3c-2.4-2.9-4.7-3.6-8.9-3.6c-4.1,0-6.9,1.7-7.9,3.8
					c-1,2.1-1.2,6.3-0.7,7C85.9,44.1,85.9,44.5,87.2,44.5z"/>
				<path class="st6" d="M84.9,91.6c0,0,6.4,3.5,8.9,6.4c2.5,2.9,5,4.9,7.9,4.9c3,0,7.2-1.7,9-1.7c1.8,0,11.4-1.7,13.1-1.7
					s4.5-2.8,4.6-4.1c0.1-1.2-2.2-3.1-3.6-3.6c-1.5-0.4-6.3-0.7-7.8-1c-1.5-0.3-5.9-1.3-6.4-1.5c-0.5-0.2-8.3,1.1-10.4,1.1
					S84.9,91.6,84.9,91.6z"/>
				<path class="st7" d="M128.3,95.5c-0.1,1.2-2.9,4.1-4.6,4.1s-11.3,1.7-13.1,1.7c-1.8,0-6,1.7-9,1.7s-5.5-2-7.9-4.9
					c-2.5-2.9-8.9-6.4-8.9-6.4s-3.1,1.6-2.7,4.5c0.3,3,1.7,3.3,3.1,3.7c1.4,0.3,7.1,4.6,7.7,5.5s3.2,4.6,8.9,4.2
					c5.6-0.3,7.7-1.9,11.3-2c3.6-0.1,11.3-0.8,12.8-2.1C127.3,104.2,130.2,99.9,128.3,95.5z"/>
				<path class="st7" d="M83.5,80.3c-1.7-5.6-1.5-26.5-0.9-29.5c0.5-3,2.6-2.9,4-3.2c0.6-0.1,2.3-0.2,4.4-0.2c-3.7,0-7.3,0-8.3,0.2
					c-1.5,0.3-3.5,0.3-4,3.2c-0.5,3-0.8,23.8,0.9,29.5c1.7,5.6,5.2,7.4,7.4,7.4l2.9,0l-2.5-1.3C85.9,85.3,84.4,83.4,83.5,80.3z"/>
			</g>
		</g>
	</g>
	<path class="st1" d="M94.9,97c-0.4-2.9-3.9-5.3-5.9-5.9c-1-0.3-2.6-0.5-5-0.7c-1.2-0.1-2.7-0.3-3.2-0.4c-1.1-0.2-2.5-0.6-3.7-0.8
		c2.5-1.6,5.6-5.2,5-11.4c-0.4-3.6-3.6-24.9-6-28.5c-2.1-3.1-4.7-3.8-7.1-4c0-0.1,0.1-0.1,0.1-0.2c1.2-2.9,1.4-7.5-1.2-10.6
		c-3.3-4.1-6.8-4.9-11.5-4.9c-0.4,0-0.9,0-1.4,0.1c-0.6,0-1.1-0.1-1.7-0.1c-5,0-9.2,2.2-10.8,5.6C40.8,38.7,41,44,42,45.5l0.1,0.2
		c0,0,0,0,0,0c-1.7,0.5-3.9,1.8-4.5,5.3c-0.6,3.5-0.9,25.5,1.1,31.9c1.4,4.5,3.8,7.1,6.2,8.5c-1.8,1.2-4.1,3.7-3.7,7.3
		c0.6,5.1,3.7,5.9,5.4,6.3c1.2,0.5,5.4,3.6,6.4,4.6c2.6,3.6,6.4,5.6,10.8,5.6c0.3,0,0.6,0,0.9,0c3.4-0.2,5.7-0.8,7.6-1.3
		c1.5-0.4,2.6-0.7,4-0.7c0.1,0,12-0.3,15-2.8C93.5,108.4,97.1,102.9,94.9,97z"/>
	<path class="st8" d="M44.7,48.3c-1.5,0.3-3.6,0.3-4.2,3.3c-0.6,3.1-0.8,24.6,1,30.4c1.8,5.8,5.4,7.6,7.6,7.6s19.9-1.9,21.5-2.6
		s4.9-3.3,4.3-8.9c-0.6-5.6-3.9-24.6-5.6-27.1s-3.8-2.6-6.3-2.8C60.7,48.1,46.8,47.8,44.7,48.3z"/>
	<path class="st9" d="M48.8,48.3c-1.5,0.3-3.6,0.3-4.2,3.3s-0.8,24.6,1,30.4c1.8,5.8,5.4,7.6,7.6,7.6c2.2,0,19.9-1.9,21.5-2.6
		s4.9-3.3,4.3-8.9c-0.6-5.6-3.9-24.6-5.6-27.1s-3.8-2.6-6.3-2.8S50.8,47.8,48.8,48.3z"/>
	<path class="st8" d="M46.3,45c1.2,0,15.2,0.1,16.1,0c0.9-0.1,2.8-5.9,0-8.6c-2.8-2.7-4.9-3.8-9.2-3.8s-7.1,1.8-8.1,3.9
		c-1,2.1-1.2,6.5-0.7,7.3S45,45,46.3,45z"/>
	<path class="st9" d="M49.4,45c1.2,0,15.2,0.1,16.1,0c0.9-0.1,2.6-5.4,0-8.6c-2.4-3-4.9-3.8-9.2-3.8s-7.1,1.8-8.1,3.9
		c-1,2.1-1.2,6.5-0.7,7.3S48,45,49.4,45z"/>
	<path class="st8" d="M47,93.7c0,0-3.2,1.6-2.8,4.7s1.7,3.4,3.2,3.8c1.5,0.3,7.4,4.8,8,5.6c0.6,0.9,3.3,4.7,9.2,4.4
		c5.8-0.3,8-2,11.7-2.1c3.8-0.1,11.6-0.9,13.2-2.1s4.5-5.7,2.6-10.3C85.7,95.3,47,93.7,47,93.7z"/>
	<path class="st9" d="M47,93.7c0,0,6.6,3.6,9.2,6.6c2.6,3,5.1,5,8.2,5c3.1,0,7.4-1.7,9.3-1.7s11.8-1.8,13.5-1.7
		c1.7,0.1,4.6-2.9,4.7-4.2s-2.2-3.3-3.8-3.7c-1.5-0.4-6.5-0.7-8-1c-1.5-0.3-6.1-1.4-6.6-1.5c-0.5-0.2-8.6,1.1-10.7,1.1
		C60.7,92.6,47,93.7,47,93.7z"/>
	<g>
		<path class="st6" d="M49.2,89.7c0.4,0,1.4-0.1,2.7-0.2c0.5,0.1,0.9,0.2,1.3,0.2c2.2,0,19.9-1.9,21.5-2.6s4.9-3.3,4.3-8.9
			S75.2,53.5,73.5,51c-1.7-2.5-3.8-2.6-6.3-2.8c-1.7-0.1-9-0.3-14-0.2c-3.9,0-7.6,0-8.5,0.2c-1.5,0.3-3.6,0.3-4.2,3.3
			c-0.6,3.1-0.8,24.6,1,30.4C43.3,87.9,47,89.7,49.2,89.7z"/>
		<path class="st6" d="M46.3,45c0.9,0,8.6,0,13,0c3.1,0,5.8,0,6.1,0c0.9-0.1,2.6-5.4,0-8.6c-2.4-3-4.9-3.8-9.2-3.8
			c-0.5,0-0.9,0-1.4,0.1c-0.5,0-1.1-0.1-1.7-0.1c-4.3,0-7.1,1.8-8.1,3.9c-1,2.1-1.2,6.5-0.7,7.3C45,44.6,45,45,46.3,45z"/>
		<path class="st6" d="M91.9,97.7c0.1-1.3-2.2-3.3-3.8-3.7c-1.5-0.4-6.5-0.7-8-1c-1.5-0.3-6.1-1.4-6.6-1.5
			c-0.5-0.2-8.6,1.1-10.7,1.1c-2.1,0-15.8,1.1-15.8,1.1s-3.2,1.6-2.8,4.7s1.7,3.4,3.2,3.8c1.5,0.3,7.4,4.8,8,5.6
			c0.6,0.9,3.3,4.7,9.2,4.4c5.8-0.3,8-2,11.7-2.1c3.8-0.1,11.6-0.9,13.2-2.1C90.9,106.7,93.9,102.2,91.9,97.7z"/>
	</g>
</g>
</svg>
