<?xml version="1.0" encoding="utf-8"?>
<!-- Generator: Adobe Illustrator 23.0.3, SVG Export Plug-In . SVG Version: 6.00 Build 0)  -->
<svg version="1.1" id="Layer_1" xmlns="http://www.w3.org/2000/svg" xmlns:xlink="http://www.w3.org/1999/xlink" x="0px" y="0px"
	 width="141.7px" height="141.7px" viewBox="0 0 141.7 141.7" style="enable-background:new 0 0 141.7 141.7;" xml:space="preserve"
	>
<style type="text/css">
	.st0{fill:none;stroke:#2D414D;stroke-width:3;stroke-linejoin:round;stroke-miterlimit:10;}
	.st1{fill:none;stroke:#2D414D;stroke-width:3;stroke-miterlimit:10;}
</style>
<g>
	<g>
		<rect x="11.3" y="42.5" class="st0" width="119.7" height="57.1"/>
		<circle class="st0" cx="71.2" cy="71" r="15.1"/>
		<g>
			<circle class="st0" cx="97.5" cy="71" r="3"/>
			<circle class="st0" cx="44.8" cy="71" r="3"/>
		</g>
		<path class="st0" d="M131,57.6c-8.3,0-15.1-6.8-15.1-15.1"/>
		<path class="st0" d="M26.4,42.5c0,8.3-6.8,15.1-15.1,15.1"/>
		<path class="st0" d="M11.3,84.4c8.3,0,15.1,6.8,15.1,15.1"/>
		<path class="st0" d="M115.9,99.5c0-8.3,6.8-15.1,15.1-15.1"/>
	</g>
	<g>
		<path class="st1" d="M72.9,71h-3.5c-1.3,0-2.3-1-2.3-2.3v-0.1c0-1.3,1-2.3,2.3-2.3h3.5c1.3,0,2.3,1,2.3,2.3"/>
		<path class="st1" d="M72.9,71c1.3,0,2.3,1,2.3,2.3v0.1c0,1.3-1,2.3-2.3,2.3h-3.5c-1.3,0-2.3-1-2.3-2.3"/>
		<line class="st1" x1="71.2" y1="62.8" x2="71.2" y2="66.2"/>
		<line class="st1" x1="71.2" y1="75.8" x2="71.2" y2="79.2"/>
	</g>
</g>
</svg>
