<?xml version="1.0" encoding="utf-8"?>
<!-- Generator: Adobe Illustrator 20.0.0, SVG Export Plug-In . SVG Version: 6.00 Build 0)  -->
<svg version="1.1" id="Layer_1" xmlns="http://www.w3.org/2000/svg" xmlns:xlink="http://www.w3.org/1999/xlink" x="0px" y="0px"
	 viewBox="0 0 141.7 141.7" style="enable-background:new 0 0 141.7 141.7;" xml:space="preserve">
<style type="text/css">
	.st0{opacity:0.3;fill:#FFFFFF;}
	.st1{fill:#64A396;stroke:#FFFFFF;stroke-width:1.3919;stroke-linecap:round;stroke-linejoin:round;stroke-miterlimit:10;}
	.st2{fill:#FFFFFF;}
	.st3{fill:none;stroke:#FFFFFF;stroke-width:2.7838;stroke-linejoin:round;stroke-miterlimit:10;}
	.st4{fill:none;stroke:#FFFFFF;stroke-width:1.3919;stroke-miterlimit:10;}
</style>
<g>
	<path class="st0" d="M115.1,96.3v16.4c0,3.3-2.7,6-6,6H24.3c-3.3,0-6-2.7-6-6V52.3c0-3.3,2.7-6,6-6h84.8c3.3,0,6,2.7,6,6v16.4"/>
	<path class="st1" d="M120.7,96.3H89.1c-1.5,0-2.7-1.2-2.7-2.7V71.3c0-1.5,1.2-2.7,2.7-2.7h31.6c1.5,0,2.7,1.2,2.7,2.7v22.3
		C123.4,95.1,122.2,96.3,120.7,96.3z"/>
	<circle class="st2" cx="99.3" cy="82.5" r="3.9"/>
	<polyline class="st3" points="58.8,42.4 78.1,23.1 96.1,41.1 	"/>
	<polyline class="st3" points="41.8,42.4 61.1,23.1 66.1,28 	"/>
	<path class="st4" d="M115.1,96.3v16.4c0,3.3-2.7,6-6,6H24.3c-3.3,0-6-2.7-6-6V52.3c0-3.3,2.7-6,6-6h84.8c3.3,0,6,2.7,6,6v16.4"/>
</g>
</svg>
