<?xml version="1.0" encoding="utf-8"?>
<!-- Generator: Adobe Illustrator 20.0.0, SVG Export Plug-In . SVG Version: 6.00 Build 0)  -->
<svg version="1.1" id="Layer_1" xmlns="http://www.w3.org/2000/svg" xmlns:xlink="http://www.w3.org/1999/xlink" x="0px" y="0px"
	 viewBox="0 0 141.7 141.7" style="enable-background:new 0 0 141.7 141.7;" xml:space="preserve">
<style type="text/css">
	.st0{fill:#64A396;stroke:#FFFFFF;stroke-width:1.3553;stroke-linecap:round;stroke-linejoin:round;stroke-miterlimit:10;}
	.st1{fill:#FFFFFF;}
</style>
<g>
	<polygon class="st0" points="78.9,45 73.9,55.3 72.6,49.7 73.9,47.7 70.9,45.5 67.8,47.7 69.1,49.7 67.9,55.3 62.9,45 52.2,49.6 
		52.2,86.2 57.6,89 60.2,126 67.7,126 70.9,120.7 74,126 81.5,126 84.1,89 89.6,86.2 89.6,49.6 	"/>
	<path class="st1" d="M81.6,31.1c0-1.8-0.8-1.4-0.8-1.4s0-0.4,0-3.6c-1.1,1.6-5.1,3.1-9.9,3.1c-4.8,0-8.8-1.5-9.9-3.1
		c0,3.2,0,3.6,0,3.6s-0.8-0.4-0.8,1.4s-0.2,2.6,1.2,3.6c0.2,2.6,2.5,8.8,9.5,8.8c7,0,9.2-6.2,9.5-8.8C81.7,33.7,81.6,32.9,81.6,31.1
		z"/>
	<path class="st0" d="M83.2,17.3c0,0-5.7-1.5-12.3-1.5c-6.6,0-12.3,1.5-12.3,1.5l2.6,3.3c0,0-0.2,1.5,0,2.8c1.3,0.9,6.2,1.7,9.7,1.7
		c3.5,0,8.4-0.8,9.7-1.7c0.2-1.2,0-2.8,0-2.8L83.2,17.3z"/>
</g>
</svg>
