<?xml version="1.0" encoding="utf-8"?>
<!-- Generator: Adobe Illustrator 21.0.2, SVG Export Plug-In . SVG Version: 6.00 Build 0)  -->
<svg version="1.1" id="Layer_1" xmlns="http://www.w3.org/2000/svg" xmlns:xlink="http://www.w3.org/1999/xlink" x="0px" y="0px"
	 width="141.7px" height="141.7px" viewBox="0 0 141.7 141.7" style="enable-background:new 0 0 141.7 141.7;" xml:space="preserve"
	>
<style type="text/css">
	.st0{fill:none;stroke:#3E3E42;stroke-width:3;stroke-linejoin:round;stroke-miterlimit:10;}
</style>
<g>
	<path class="st0" d="M48.5,124.1c0-6,14.2-9.3,14.2-9.3L63,83.5L30.7,49.8H104L71.7,83.5l0.2,31.2c0,0,14.2,3.3,14.2,9.3
		C80.3,124.1,54.3,124.1,48.5,124.1z"/>
	<line class="st0" x1="66.1" y1="64" x2="83.7" y2="64"/>
	<polyline class="st0" points="62.7,73.2 30.7,23 11.9,23 	"/>
	<path class="st0" d="M88.8,65.6c3.5,2.6,7.8,4.1,12.5,4.1c11.7,0,21.2-9.5,21.2-21.2s-9.5-21.2-21.2-21.2
		c-11.7,0-21.2,9.5-21.2,21.2c0,0.4,0,0.9,0.1,1.3"/>
</g>
</svg>
