<?xml version="1.0" encoding="utf-8"?>
<!-- Generator: Adobe Illustrator 20.0.0, SVG Export Plug-In . SVG Version: 6.00 Build 0)  -->
<svg version="1.1" id="Layer_1" xmlns="http://www.w3.org/2000/svg" xmlns:xlink="http://www.w3.org/1999/xlink" x="0px" y="0px"
	 viewBox="0 0 85 85" style="enable-background:new 0 0 85 85;" xml:space="preserve">
<style type="text/css">
	.st0{fill:none;stroke:#3E3E42;stroke-width:2;stroke-miterlimit:10;}
</style>
<g>
	<circle class="st0" cx="42.5" cy="42.5" r="10.5"/>
	<path class="st0" d="M71.6,47.9V37.2L64,36.6c-0.5-1.8-1.2-3.5-2.1-5.1l5-5.8l-7.6-7.6l-5.8,5c-1.6-0.9-3.3-1.6-5.1-2.1l-0.6-7.7
		H37.2L36.6,21c-1.8,0.5-3.5,1.2-5.1,2.1l-5.8-5l-7.6,7.6l5,5.8c-0.9,1.6-1.6,3.3-2.1,5.1l-7.7,0.6v10.7l7.7,0.6
		c0.5,1.8,1.2,3.5,2.1,5.1l-5,5.8l7.6,7.6l5.8-5c1.6,0.9,3.3,1.6,5.1,2.1l0.6,7.7h10.7l0.6-7.7c1.8-0.5,3.5-1.2,5.1-2.1l5.8,5
		l7.6-7.6l-5-5.8c0.9-1.6,1.6-3.3,2.1-5.1L71.6,47.9z"/>
</g>
</svg>
