<?xml version="1.0" encoding="utf-8"?>
<!-- Generator: Adobe Illustrator 24.0.0, SVG Export Plug-In . SVG Version: 6.00 Build 0)  -->
<svg version="1.1" id="Layer_1" xmlns="http://www.w3.org/2000/svg" xmlns:xlink="http://www.w3.org/1999/xlink" x="0px" y="0px"
	 width="608.2px" height="371.4px" viewBox="0 0 608.2 371.4" style="enable-background:new 0 0 608.2 371.4;" xml:space="preserve"
	>
<style type="text/css">
	.st0{opacity:0.2;fill:#2D414D;}
	.st1{fill:#FBB757;}
	.st2{fill:#F1F1F2;}
	.st3{fill:#192852;}
	.st4{fill:#8AA1B9;}
	.st5{fill:#2D3D62;}
	.st6{fill:#E2E3F1;}
	.st7{fill:#FCFDFF;}
	.st8{fill:#FFFFFF;}
	.st9{fill:#F38F57;}
	.st10{fill:#4ABEA6;}
	.st11{opacity:0.1;}
	.st12{fill:#231F20;}
	.st13{fill:#0D3944;}
	.st14{fill:#F9AF87;}
	.st15{fill:#154353;}
	.st16{fill:#CFD8DC;}
	.st17{fill:#B58073;}
	.st18{fill:#6196B0;}
	.st19{fill:#215260;}
	.st20{fill:#8A5D3B;}
	.st21{fill:#C3996B;}
	.st22{fill:#CD374C;}
	.st23{fill:#EE4253;}
	.st24{fill:#A02F45;}
	.st25{fill:#A87C4F;}
	.st26{fill:#0A476B;}
	.st27{fill:#FAB678;}
	.st28{fill:#3B2314;}
	.st29{fill:#0B5E98;}
	.st30{fill:#245866;}
	.st31{fill:#404041;}
	.st32{fill:#ACBDC3;}
	.st33{fill:#FABA97;}
	.st34{fill:#3F6575;}
	.st35{fill:#17629D;}
	.st36{fill:#1B75BB;}
	.st37{fill:#8ABCDA;}
	.st38{fill:#1A4850;}
	.st39{fill:#F3F4F5;}
	.st40{fill:#D2D5D3;}
</style>
<g>
	<ellipse class="st0" cx="194" cy="340.7" rx="177.8" ry="8.2"/>
	<g>
		<circle class="st1" cx="382.6" cy="285.7" r="7.8"/>
		<path class="st2" d="M382.6,298.5c-1.7,6.1-3.9,10.9-6.6,13.2c-5.1,4.4-75.9,6.7-152.1,6.6c-27.8,0-56.4-0.3-82.6-1
			c-56.2-1.4-102.1-4.3-108.9-8.7c-1.6-1-2.8-4.6-3.7-10.1c-1.6-9.2-2.3-24.5-2.4-41.9c-0.1-9.2,0-18.9,0.2-28.7
			c0.6-27.7,2.3-59.9,4.4-77.9c0.4-3.6,0.8-6.6,1.3-9c0.5-2.5,1-4.2,1.5-4.9c2.8-3.8,51.9-3.3,107.6-3.7c27.5-0.2,56.7,0,82.6,0.6
			c42.4,0.9,76.3,2.8,80.4,5.6c1,0.6,1.9,1.5,2.9,2.4c2.3,2.2,4.6,5.3,7,9c14.8,22.9,29.9,68,29.9,68s9.3,4.4,19.2,10
			c9.5,5.4,19.6,11.8,21.9,16.2c1.2,2.2,1.8,6.7,2,12.5C387.7,268.7,386.1,286.2,382.6,298.5z"/>
		<path class="st3" d="M382.6,298.5c-1.7,6.1-3.9,10.9-6.6,13.2c-10.9,9.4-325,9.2-343.6-3.1c-1.6-1-2.8-4.6-3.7-10.1H382.6z"/>
		<path class="st3" d="M133,310.6c-9-0.2-18-0.4-27-0.6c-11.2-0.3-22.5-0.6-33.7-1.7c-3.3-0.3-6.6-0.8-9.9-1.3
			c3.7-15.9,17.9-27.8,34.9-27.8C115.7,279.2,130.8,292.9,133,310.6z"/>
		<path class="st3" d="M353.7,308.3c-23.5,2.1-47.2,2.7-70.9,3c1.9-18,17.1-32,35.6-32C336,279.2,350.5,291.7,353.7,308.3z"/>
		<path class="st4" d="M329.9,217.5h-44.7c-2.8,0-4.4,0-4.4,0l-2.5-15.8l-2.6-16.6l-4.3-27.9l24.6,0.2l11.2,0.1c0,0,0.2,0.3,0.5,0.9
			c1.1,1.9,3.8,6.8,7.2,14.2c0.4,1,0.9,2,1.3,3c0.8,1.9,1.6,3.9,2.5,6c0.8,2.1,1.7,4.3,2.5,6.6C324.2,196.6,327.3,206.4,329.9,217.5
			z"/>
		<path class="st4" d="M270.5,217.5c0,0-15.9,0-27.2,0h-17.9l-0.2-15.4l-0.2-14.8l-0.3-30h36.5c0.4,0,0.6,0,0.6,0l1.7,11.6l1.2,8.3
			L270.5,217.5z"/>
		<g>
			
				<ellipse transform="matrix(0.7071 -0.7071 0.7071 0.7071 -194.2549 161.1488)" class="st5" cx="97.4" cy="315.1" rx="28.5" ry="28.5"/>
			<circle class="st6" cx="97.4" cy="315.1" r="20.1"/>
			<circle class="st3" cx="97.4" cy="315.1" r="9.7"/>
			<path class="st7" d="M102.6,315.1c0-2.9-2.3-5.2-5.2-5.2c-2.9,0-5.2,2.3-5.2,5.2s2.3,5.2,5.2,5.2
				C100.3,320.2,102.6,317.9,102.6,315.1z"/>
		</g>
		<g>
			
				<ellipse transform="matrix(0.9732 -0.2298 0.2298 0.9732 -63.8662 81.6011)" class="st5" cx="318.5" cy="315.1" rx="28.5" ry="28.5"/>
			<circle class="st6" cx="318.5" cy="315.1" r="20.1"/>
			<circle class="st3" cx="318.5" cy="315.1" r="9.7"/>
			<path class="st7" d="M323.7,315.1c0-2.9-2.3-5.2-5.2-5.2s-5.2,2.3-5.2,5.2s2.3,5.2,5.2,5.2S323.7,317.9,323.7,315.1z"/>
		</g>
		<path class="st8" d="M314.2,149.9H30.9c0.4-3.6,0.8-6.6,1.3-9h275C309.5,143.2,311.9,146.3,314.2,149.9z"/>
		<g>
			<path class="st8" d="M223.9,256.6h163.3c-0.2-5.8-0.9-10.3-2-12.5c-2.3-4.4-12.4-10.9-21.9-16.2H223.9V256.6z"/>
			<path class="st8" d="M26.3,256.6h115v-28.7H26.5C26.3,237.7,26.2,247.4,26.3,256.6z"/>
			<rect x="144.6" y="227.9" class="st8" width="75.9" height="28.7"/>
		</g>
		<path class="st3" d="M215.1,237.8h-10.5c-0.9,0-1.6-0.7-1.6-1.6v-0.4c0-0.9,0.7-1.6,1.6-1.6h10.5c0.9,0,1.6,0.7,1.6,1.6v0.4
			C216.6,237.1,215.9,237.8,215.1,237.8z"/>
		<path class="st3" d="M295.6,237.8H285c-0.9,0-1.6-0.7-1.6-1.6v-0.4c0-0.9,0.7-1.6,1.6-1.6h10.5c0.9,0,1.6,0.7,1.6,1.6v0.4
			C297.1,237.1,296.4,237.8,295.6,237.8z"/>
		<circle class="st9" cx="36.6" cy="289.7" r="4"/>
		<path class="st8" d="M323,205.4v16.4c0,0,8.3,0.1,10.4-1.6c3.3-2.7,4.8-7.3,1.3-11C332.2,206.5,323,205.4,323,205.4z"/>
		<polygon class="st7" points="261.4,157.2 225.3,202.1 225.2,187.3 253.9,157.2 		"/>
		<polygon class="st7" points="264.8,177.1 232.1,217.5 226.6,217.5 263.6,168.8 		"/>
		<path class="st4" d="M222,217.5c0,0-15.9,0-27.2,0h-49.9l-0.2-15.4l-0.2-14.8l-0.3-30h76.6c0.4,0,0.6,0,0.6,0l0.1,11.6l-0.4,8.3
			L222,217.5z"/>
		<path class="st4" d="M141.8,217.5c0,0-15.9,0-27.2,0H39l-0.2-15.4l-0.2-14.8l-0.3-30h102.3c0.4,0,0.6,0,0.6,0l0.1,11.6l-0.4,8.3
			L141.8,217.5z"/>
		<path class="st7" d="M307.7,158.4l-29.4,43.3l-2.6-16.6l20.2-27.7l11.2,0.1C307.2,157.5,307.4,157.8,307.7,158.4z"/>
		<path class="st7" d="M221.4,158.4l-42.6,58.9l-13.2,0.3l44.2-60.3h11.6C221.3,157.2,221.3,157.7,221.4,158.4z"/>
		<polygon class="st7" points="202.8,157.2 159.1,217.3 151.6,217.5 195.9,157.2 201.2,157.3 		"/>
		<path class="st7" d="M118.1,157.3l-43.5,59.9l-13.2,0.3l44.2-60.3h11.6C117.2,157.2,117.7,157.1,118.1,157.3z"/>
		<polygon class="st7" points="135.8,157.2 92,217.3 84.6,217.5 128.8,157.2 134.1,157.3 		"/>
		<path class="st7" d="M316.2,175.7l-27.6,41.8h-3.4l29.7-44.8C315.3,173.6,315.7,174.7,316.2,175.7z"/>
		<path class="st7" d="M321.2,188.3l-20.1,29.3h-6.1l23.7-35.8C319.5,183.8,320.3,186,321.2,188.3z"/>
	</g>
	<g>
		<g>
			<path class="st10" d="M249,240.8v0.7l4.4-2.4c0.1-0.1,0.1-0.2,0.1-0.3l1.1-5.6c0-0.1-0.1-0.2-0.2-0.1L249,240.8z"/>
		</g>
		<g>
			<path class="st10" d="M260.4,240.8v0.7l-4.4-2.4c-0.1-0.1-0.1-0.2-0.1-0.3l-1.1-5.6c0-0.1,0.1-0.2,0.2-0.1L260.4,240.8z"/>
		</g>
		<g>
			<path class="st10" d="M228.3,251.6l1.4-1.5c0.6,0.6,1.1,1,1.8,1c0.8,0,1.3-0.5,1.3-1.7V243h2.3v6.5c0,1.2-0.3,2.1-0.9,2.7
				c-0.6,0.6-1.5,0.9-2.6,0.9C230,253.1,229,252.4,228.3,251.6z"/>
		</g>
		<g>
			<path class="st10" d="M238.8,243h7.5v2h-5.3v2h4.7v2h-4.7v2.1h5.4v2h-7.6V243z"/>
		</g>
		<g>
			<path class="st10" d="M266.2,249l-3.8-6h2.6l2.4,4l2.4-4h2.5l-3.8,6v4h-2.2V249z"/>
		</g>
		<g>
			<polygon class="st10" points="254.1,252.9 254.1,243 249,243 249,245 252.1,245 252.1,252.9 			"/>
		</g>
		<g>
			<polygon class="st10" points="255.4,252.9 255.4,243 260.4,243 260.4,245 257.4,245 257.4,252.9 			"/>
		</g>
	</g>
</g>
<g>
	<g class="st11">
		<path class="st12" d="M337,351.6h-37c-0.7,0-1.2-0.5-1.2-1.2v-0.6c0-0.7,0.5-1.2,1.2-1.2h37c0.7,0,1.2,0.5,1.2,1.2v0.6
			C338.2,351.1,337.7,351.6,337,351.6z"/>
		<path class="st12" d="M571.6,351.6h-10.1c-0.7,0-1.2-0.5-1.2-1.2v-0.6c0-0.7,0.5-1.2,1.2-1.2h10.1c0.7,0,1.2,0.5,1.2,1.2v0.6
			C572.8,351.1,572.2,351.6,571.6,351.6z"/>
		<path class="st12" d="M406.7,351.6h-37c-0.7,0-1.2-0.5-1.2-1.2v-0.6c0-0.7,0.5-1.2,1.2-1.2h37c0.7,0,1.2,0.5,1.2,1.2v0.6
			C407.9,351.1,407.3,351.6,406.7,351.6z"/>
		<path class="st12" d="M461,351.6h-37c-0.7,0-1.2-0.5-1.2-1.2v-0.6c0-0.7,0.5-1.2,1.2-1.2h37c0.7,0,1.2,0.5,1.2,1.2v0.6
			C462.2,351.1,461.7,351.6,461,351.6z"/>
		<path class="st12" d="M527.6,351.6h-50.5c-0.7,0-1.2-0.5-1.2-1.2v-0.6c0-0.7,0.5-1.2,1.2-1.2h50.5c0.7,0,1.2,0.5,1.2,1.2v0.6
			C528.8,351.1,528.3,351.6,527.6,351.6z"/>
	</g>
	<g>
		<path class="st13" d="M349.4,183.5c0,0-3.9-2.7-9.6-0.6c-5.7,2-7,9.7-5.6,16c1.4,6.2-6.5,27.6-6.5,27.6s4.1,5.8,18.4,3.6
			c0,0,10.7-19.4,9.9-33.3C355.2,182.8,349.4,183.5,349.4,183.5z"/>
		<path class="st14" d="M354,207.5c5.4-1.7,8.7,2.8,11.7,11.1c3.1,8.3,4.1,9.2,4.1,9.2l11.9,7.6l-1,4.5c0,0-11.3-4.4-14-7.2
			c-2.7-2.8-10.6-17.1-10.6-17.1L354,207.5z"/>
		<path class="st14" d="M327.8,261.3c0,0-2.3,11.8-1.9,29.6c0,0-9.2,13.5-1.6,52.2h4c0,0,3.2-32.9,5.7-41.8
			c2.5-8.9,11.7-11.6,12.2-38.7L327.8,261.3z"/>
		<path class="st14" d="M309.6,296.1c-2.3-7.6-8.3-20.4-23.5-37.7c0,0-0.9-0.5-2.1,0.3c-1.3,0.8-1.3,1.7-1.3,1.7s7.6,16.7,12.5,28.9
			c1.6,4.1,5.6,6.8,10,6.8H309.6z"/>
		<path class="st15" d="M337.3,310.8c0,0,0.1,5.7-3.7,5.8c-5.3,0.1-5.5-5.6-11.4-5.4c-6,0.2-18.3,1.7-22.2-7.6
			c-2-4.8,0.7-11-5.8-15.7c-6.5-4.7-3.4-9.9,0-12.7c3.4-2.8-1.4-5.8,2.1-7.3c0.8-0.3,1.7-0.3,2.4,0c0.4,0.2,0.9,0.4,1.3,0.6
			c1.8,1.2,3.1,3.4,3.1,3.4c9.9-27.1,27.5-30.6,27.5-30.6l17.4,6C348.4,289.3,337.3,310.8,337.3,310.8z"/>
		<path class="st16" d="M354,207.5c0,0-4.1,1.4-9.8,0.5c-5.8-0.9-7.7-4.5-11.7-2.2c-6.1,3.5-3.2,15.6-1.7,21.8
			c0.6,2.3,1.3,8.5-0.1,13.5c0,0,8.1,6.3,17.4,6l5.1-11C353.1,236.2,364.1,223,354,207.5z"/>
		<path class="st14" d="M343.6,197.4c0,0,0.7,5.7-1.4,10.9c0,0,3,4.4,5.9,1.5c0,0,0.3-5.2,3.5-11.1
			C353.8,194.7,343.6,197.4,343.6,197.4z"/>
		<path class="st17" d="M343.6,197.4c0,0,0.5,4.1-0.6,8.5c-0.2,0.8,5.1,3.2,5.3,2c0.4-2,1.2-5.5,3.3-9.2
			C353.8,194.7,343.6,197.4,343.6,197.4z"/>
		<g>
			<path class="st14" d="M339,197.6c0,0-2.5-1.6-2.3,0.9c0.3,2.9,3.1,3.4,3.4,2.4C340.5,199.9,339,197.6,339,197.6z"/>
			<path class="st14" d="M353.6,194.5c0,0,1.6-2.5,2.4-0.2c0.9,2.7-1.4,4.4-2.1,3.7C353.3,197.2,353.6,194.5,353.6,194.5z"/>
			<path class="st14" d="M348.4,206.2c-4.6,1-7.9-1.4-9.9-10.4c-1-4.7,0.7-8,5.8-9.2c5.2-1.2,8,1.2,9,5.9
				C355.5,202.1,353.1,205.1,348.4,206.2z"/>
			<path class="st13" d="M339.4,199.2c0,0-1.4-5.2-0.6-8.9c0,0,4-5.6,11.7-2.8c0,0,2.3,3.7,3.4,8.9c0,0,0.3-1.9-0.5-6
				c-0.8-4.1-4.4-6.7-9.5-5.9C339,185.3,333.6,190.3,339.4,199.2z"/>
		</g>
		<path class="st13" d="M347.5,186.3c0,0,0.3,1.4-1,4.9c0,0-1-1-2.1,0c-1.1,1-3.4,0.7-4.2,1.2c-0.8,0.5-0.8,1.8-0.8,1.8
			s-0.7-1.5,0-3.4c0,0-1.5,1.9-1.3,4.3c0,0-2-0.3-2-3.7c0.1-3.4,4.9-8.8,10.3-8.5c5.4,0.4,6.7,8.9,6.7,8.9s-0.5-0.4-1.3-0.2
			c0,0-0.1-1.8-1.3-4.1c0,0,0.6,1.6,0,3.4c0,0-1.5-0.8-2.7-0.5C347.9,190.4,348.6,188.9,347.5,186.3z"/>
		<path class="st14" d="M331,206.9c2.6-2.1,4.7,0.6,5.2,4.2c0.5,3.6-4.2,25.1-7.9,24.3c-1.4-0.3-2-5.9-2-5.9s1.4-6,2.4-15.1
			C329.1,210.2,329.7,208,331,206.9z"/>
		<path class="st14" d="M323.4,232.4c-3.5-3.4-9.9-14.5-11.5-20.2l2.7-1.1c0,0,8.1,11.5,11.7,14.4c3.7,2.9,5,6.1,3.3,8.9
			C328.1,237.2,324.2,233.1,323.4,232.4z"/>
		<g>
			<path class="st14" d="M313.1,204.7c-0.2,3.6,2.8,4.5,1.5,7.3c-0.3,0.6-0.7,0.9-1.1,1c-0.8,0.3-1.7,0-2.3-0.6
				c-1.4-1.4-3.6-2.9-4.8-3.6c-1.3-0.8-0.6-1-0.6-1c-0.1-0.1-0.3-0.1-0.4-0.2c-0.9-0.4-1.7-0.5-1-1c0.8-0.5,3.5,0.5,3.5,0.5
				c-3.6-2.4-4.5-1.8-3.9-2.3c0.9-0.7,4.3,0.9,4.4,0.9c-1.9-1.8-3.2-2.2-2.5-2.4c0.8-0.3,4.5,2.4,5.8,3.4c0.3,0.2,0.5,0.4,0.5,0.4
				C312.1,204.3,313.1,204.7,313.1,204.7z"/>
			<path class="st14" d="M311.7,206.9c0.3,0.2,0.5,0.4,0.5,0.4s-0.6,1.1,0.2,2.5C312.4,209.8,310.8,208.8,311.7,206.9z"/>
			<path class="st14" d="M308.6,209c-0.3-0.2-2.1-1.2-2.8-1.1c-0.1-0.1-0.3-0.1-0.4-0.2C305.8,207.1,308.2,208.8,308.6,209z"/>
		</g>
		<g>
			<path class="st18" d="M322.6,263.2c0,0.4-0.3,0.7-0.7,0.7c-0.4,0-0.7-0.3-0.7-0.7s0.3-0.7,0.7-0.7
				C322.3,262.4,322.6,262.8,322.6,263.2z"/>
			<path class="st18" d="M335.4,268.1c0,0.4-0.3,0.7-0.7,0.7c-0.4,0-0.7-0.3-0.7-0.7c0-0.4,0.3-0.7,0.7-0.7
				C335.1,267.4,335.4,267.7,335.4,268.1z"/>
			<path class="st18" d="M346.3,270.7c0,0.4-0.3,0.7-0.7,0.7c-0.4,0-0.7-0.3-0.7-0.7c0-0.4,0.3-0.7,0.7-0.7
				C346,270,346.3,270.4,346.3,270.7z"/>
			<path class="st18" d="M329.6,253.8c0,0.4-0.3,0.7-0.7,0.7s-0.7-0.3-0.7-0.7s0.3-0.7,0.7-0.7S329.6,253.4,329.6,253.8z"/>
			<circle class="st18" cx="331.3" cy="260.6" r="0.7"/>
			<path class="st18" d="M343.3,264.5c0,0.4-0.3,0.7-0.7,0.7c-0.4,0-0.7-0.3-0.7-0.7c0-0.4,0.3-0.7,0.7-0.7
				C343,263.8,343.3,264.1,343.3,264.5z"/>
			<path class="st18" d="M344.9,252.7c0,0.4-0.3,0.7-0.7,0.7c-0.4,0-0.7-0.3-0.7-0.7c0-0.4,0.3-0.7,0.7-0.7
				C344.6,252,344.9,252.4,344.9,252.7z"/>
			<circle class="st18" cx="336.8" cy="250.3" r="0.7"/>
			<path class="st18" d="M316.3,277.2c0,0.4-0.3,0.7-0.7,0.7s-0.7-0.3-0.7-0.7c0-0.4,0.3-0.7,0.7-0.7S316.3,276.8,316.3,277.2z"/>
			<circle class="st18" cx="305.4" cy="274.1" r="0.7"/>
			<path class="st18" d="M300,268.5c-0.1,0.2-0.4,0.3-0.6,0.3c-0.4,0-0.7-0.3-0.7-0.7c0-0.1,0-0.2,0.1-0.2
				C299.2,268,299.6,268.2,300,268.5z"/>
			<circle class="st18" cx="319.2" cy="286.5" r="0.7"/>
			<path class="st18" d="M301.6,296.7c0,0.4-0.3,0.7-0.7,0.7s-0.7-0.3-0.7-0.7c0-0.4,0.3-0.7,0.7-0.7S301.6,296.3,301.6,296.7z"/>
			<circle class="st18" cx="308.4" cy="290.5" r="0.7"/>
			<circle class="st18" cx="297.2" cy="285.1" r="0.7"/>
			<path class="st18" d="M307,306.5c0,0.4-0.3,0.7-0.7,0.7c-0.4,0-0.7-0.3-0.7-0.7c0-0.4,0.3-0.7,0.7-0.7
				C306.6,305.8,307,306.1,307,306.5z"/>
			<path class="st18" d="M313.8,268.8c0,0.4-0.3,0.7-0.7,0.7c-0.4,0-0.7-0.3-0.7-0.7s0.3-0.7,0.7-0.7
				C313.5,268.1,313.8,268.4,313.8,268.8z"/>
			<circle class="st18" cx="320" cy="256.7" r="0.7"/>
			<path class="st18" d="M328.5,246.7c0,0.4-0.3,0.7-0.7,0.7c-0.4,0-0.7-0.3-0.7-0.7c0-0.4,0.3-0.7,0.7-0.7
				C328.2,246,328.5,246.3,328.5,246.7z"/>
			<path class="st18" d="M312.7,261.3c0,0.4-0.3,0.7-0.7,0.7s-0.7-0.3-0.7-0.7s0.3-0.7,0.7-0.7S312.7,260.9,312.7,261.3z"/>
			<path class="st18" d="M321.4,249.6c0,0.4-0.3,0.7-0.7,0.7s-0.7-0.3-0.7-0.7c0-0.4,0.3-0.7,0.7-0.7S321.4,249.2,321.4,249.6z"/>
			<path class="st18" d="M307.7,281.9c0,0.4-0.3,0.7-0.7,0.7c-0.4,0-0.7-0.3-0.7-0.7c0-0.4,0.3-0.7,0.7-0.7
				C307.4,281.2,307.7,281.5,307.7,281.9z"/>
			<path class="st18" d="M298.7,275.5c0,0.4-0.3,0.7-0.7,0.7s-0.7-0.3-0.7-0.7c0-0.4,0.3-0.7,0.7-0.7S298.7,275.1,298.7,275.5z"/>
			<circle class="st18" cx="324.1" cy="273.4" r="0.7"/>
			<circle class="st18" cx="338.9" cy="277.2" r="0.7"/>
			<path class="st18" d="M338.9,256.7c0,0.4-0.3,0.7-0.7,0.7s-0.7-0.3-0.7-0.7c0-0.4,0.3-0.7,0.7-0.7S338.9,256.3,338.9,256.7z"/>
			<path class="st18" d="M347.5,258.2c0,0.4-0.3,0.7-0.7,0.7c-0.4,0-0.7-0.3-0.7-0.7s0.3-0.7,0.7-0.7
				C347.2,257.5,347.5,257.9,347.5,258.2z"/>
			<path class="st18" d="M330.3,282.6c0,0.4-0.3,0.7-0.7,0.7s-0.7-0.3-0.7-0.7c0-0.4,0.3-0.7,0.7-0.7S330.3,282.2,330.3,282.6z"/>
			<path class="st18" d="M324.1,295.3c0,0.4-0.3,0.7-0.7,0.7s-0.7-0.3-0.7-0.7c0-0.4,0.3-0.7,0.7-0.7S324.1,294.9,324.1,295.3z"/>
			<circle class="st18" cx="312.4" cy="297.4" r="0.7"/>
			<path class="st18" d="M343.3,286.5c0,0.4-0.3,0.7-0.7,0.7c-0.4,0-0.7-0.3-0.7-0.7c0-0.4,0.3-0.7,0.7-0.7
				C343,285.8,343.3,286.1,343.3,286.5z"/>
			<path class="st18" d="M333.4,291.9c0,0.4-0.3,0.7-0.7,0.7c-0.4,0-0.7-0.3-0.7-0.7c0-0.4,0.3-0.7,0.7-0.7
				C333.1,291.2,333.4,291.5,333.4,291.9z"/>
			<path class="st18" d="M318.5,307.9c0,0.4-0.3,0.7-0.7,0.7s-0.7-0.3-0.7-0.7c0-0.4,0.3-0.7,0.7-0.7S318.5,307.6,318.5,307.9z"/>
			<circle class="st18" cx="328.9" cy="304.2" r="0.7"/>
			<path class="st18" d="M340.2,300c0,0.4-0.3,0.7-0.7,0.7c-0.4,0-0.7-0.3-0.7-0.7c0-0.4,0.3-0.7,0.7-0.7
				C339.9,299.3,340.2,299.6,340.2,300z"/>
			<path class="st18" d="M335.4,312.3c0,0.4-0.3,0.7-0.7,0.7c-0.4,0-0.7-0.3-0.7-0.7s0.3-0.7,0.7-0.7
				C335.1,311.6,335.4,311.9,335.4,312.3z"/>
		</g>
		<g>
			<path class="st15" d="M334.7,350.1h-11.8c-0.8-2.2,0.6-4.4,0.4-6.3c-0.4-3.3,1.5-1.5,1.5-1.5c0.3-3.5,5.3-4.2,5.2-2.6
				c-0.1,2.3,0.4,3.7,1,4.7c1.3,1.9,3.5,1.9,3.9,3.3c0,0.1,0.1,0.3,0.1,0.4C335.4,349.7,334.7,350.1,334.7,350.1z"/>
			<path class="st19" d="M335,348c-2.4,0.6-8.1-0.2-8.3-1.6c-0.2-1.4,2.8-2,4.3-2.1c1.3,1.9,3.5,1.9,3.9,3.3
				C334.9,347.8,335,347.9,335,348z"/>
		</g>
		<g>
			<path class="st15" d="M286.2,258.9c-1.3-1.1-3.3,0.7-3.3,0.7s1.1,1.6,0.4,2.3c-0.7,0.7-1.5-0.8-2.9-0.2c-0.1,0.1-0.2,0.1-0.3,0.2
				c-1.1,0.6-2.2,2-3.1,3.1c-0.2,0.2-0.4,0.4-0.5,0.6c-1.1,1.1-3.8,1.8-4.3-1.2c-0.5-3,2.8-6.5,6.5-9.7c3.7-3.2,6.1-1.3,6.1-1.3
				s0.8,1.3,0.8,2.2c0,0.8,0.7,1.3,1.2,2.1C287.1,258.3,286.2,258.9,286.2,258.9z"/>
			<path class="st19" d="M280.1,261.9c-1.1,0.6-2.2,2-3.1,3.1c-1.4,0.3-2.6,0.2-2.8-1.1c-0.5-3.1,5.8-7.1,5.3-4.9
				C279.1,260.1,279.6,261.1,280.1,261.9z"/>
		</g>
	</g>
	<g>
		<path class="st20" d="M498.1,345c-0.6-0.3-1.1-1-1.6-1.8c0,0-0.4-2.5,0-5.1c0.4-2.6-0.7-4.8-4.5-5.6c-3.6-0.8-5.8,1-4.9,8.2
			c0,0,0,0,0,0c-0.6,3-0.7,6.5,0.6,9.4h11.2C498.9,350.1,500.7,346.3,498.1,345z"/>
		<path class="st14" d="M507.9,305.7c0,0,0,7.3-4.1,14.7c-4.2,7.6-9.3,18-9.3,18s-3.4,3.4-5.6-2.2c0,0,1.5-19.4,5.1-26.4
			C497.5,302.7,507.9,305.7,507.9,305.7z"/>
		<path class="st14" d="M561.4,282c0,0,6.6,28,10.9,35.3c0,0-1,3.1-5.6,4c0,0-14.5-21.3-15.4-30.2C550.4,282.2,561.4,282,561.4,282z
			"/>
		<g>
			<path class="st21" d="M564.7,288.6c-1.8,4.3-15.4,4.5-15.4,4.5l-1-1.5l-0.3-0.4l-2.1-3.1c0,0-22.6-22.2-27-20.3h0
				c-0.1,0.1-0.3,0.1-0.4,0.2c-3,2.2-3.3,14-6.9,33.9c-0.3,1.9-1.1,4.1-1.7,5.6c-0.1,0.2-0.1,0.3-0.2,0.5c-0.3,0.8-0.6,1.4-0.6,1.4
				c-13.8,5.6-18.4-5.5-18.4-5.5s0.2-0.3,0.4-0.8c0.1-0.1,0.1-0.2,0.2-0.4c0.7-1.6,1.9-4.4,1.9-5.8c0-1.6,0-3.1,0-4.6
				c0-0.1,0-0.3,0-0.4c0-4.8,0-8.9,0-12.5v-0.4c0-1.6,0-3,0.1-4.4V274c0.1-6.3,0.3-10.5,0.5-13.3c0-0.1,0-0.3,0-0.4
				c0.4-4.7,0.8-5.2,0.8-5.2l-2.8-19.2h30.2c0,0,4.5,4.5,10.4,10.5c0.1,0.1,0.2,0.2,0.4,0.4c2.1,2.2,4.4,4.5,6.7,6.9
				c0.1,0.1,0.2,0.2,0.3,0.3c0.9,0.9,1.8,1.9,2.7,2.8c0.1,0.1,0.2,0.2,0.3,0.3c3,3.1,6,6.2,8.5,8.9c0.1,0.1,0.2,0.2,0.3,0.3
				c3.4,3.7,6.1,6.7,7,8.1c2.4,3.7,4.3,8.4,5.3,11.4c0,0,0,0,0,0c0.1,0.1,0.1,0.3,0.1,0.4C564.4,287.7,564.7,288.6,564.7,288.6z"/>
			<g>
				<path class="st20" d="M499,258.1c-1.2,1.5-3,2.3-5.3,2.7c0-0.1,0-0.3,0-0.4c2.2-0.3,3.9-1.2,5-2.5c2.1-2.4,1.7-5.8,1.7-5.8
					l0.4,0C500.9,252.1,501.2,255.5,499,258.1z"/>
				<path class="st20" d="M532.7,246.8c-0.1,0-0.2,0-0.4,0c-3.4,0-6.9-3.7-7-3.9l0.3-0.3c0,0.1,3.5,3.7,6.8,3.7
					C532.5,246.6,532.6,246.7,532.7,246.8z"/>
				<path class="st20" d="M509.8,307.4c-0.1,0.2-0.1,0.3-0.2,0.5c-2.2,0.8-4.3,1.2-6.2,1.2c-6,0-10.1-3.5-12.4-6.1
					c0.1-0.1,0.1-0.2,0.2-0.4C494.2,306,500.4,311,509.8,307.4z"/>
				<path class="st20" d="M517.9,260.7c0.5,2.1,0.8,4.5,0.8,6.9c-0.1,0.1-0.3,0.1-0.4,0.2c0-11.3-6.5-20-6.6-20.1l0.3-0.2
					c0.1,0.1,3.9,5.3,5.8,12.8c0.8-0.5,1.3-1.2,1.5-2.1c0.9-4-3.3-10.4-3.4-10.5l0.3-0.2c0.2,0.3,4.4,6.7,3.4,10.8
					C519.4,259.4,518.8,260.2,517.9,260.7z"/>
				<path class="st20" d="M551.5,266.4c-1.1,1.2-2.2,2.2-2.3,2.3l-0.2,0.2l-0.1-0.3c-1.5-3.8-10.9-12.1-11-12.2l-0.1-0.1l1.6-2.6
					c0.1,0.1,0.2,0.2,0.3,0.3l-1.3,2.2c1.8,0.6,3.1,0.7,4,0.6c0.1,0.1,0.2,0.2,0.3,0.3c-0.3,0.1-0.6,0.1-1,0.1
					c-0.8,0-1.8-0.2-2.9-0.5c2.1,1.9,8.8,8.1,10.3,11.5c0.6-0.6,1.3-1.3,2.1-2.1C551.4,266.2,551.4,266.3,551.5,266.4z"/>
				<path class="st20" d="M500,292.1l-0.1,0c-0.1,0-1.8,0.4-3.8,0.4c-1,0-2-0.1-2.9-0.4c0-0.1,0-0.3,0-0.4c2.5,0.7,5.8,0.2,6.5,0
					l-0.6-15.5c-0.4,0.9-1,2-2.3,2.7c-0.6,0.3-1.3,0.5-2.1,0.5c-0.5,0-0.9-0.1-1.4-0.2v-0.4c1.3,0.3,2.4,0.2,3.3-0.3
					c1.6-0.8,2.2-2.5,2.4-3.1c-1.2,0.2-3.8-0.4-5.7-1V274c2.1,0.6,4.9,1.3,5.9,1l0.2-0.1L500,292.1z"/>
				<path class="st20" d="M563.9,286.3c-2.2,2.1-6.6,5.4-13.5,5.4c-0.7,0-1.5,0-2.3-0.1l-0.3-0.4c8.3,1,13.5-2.9,15.8-5.3
					C563.8,286,563.9,286.1,563.9,286.3z"/>
			</g>
		</g>
		<path class="st22" d="M527.5,154.2c0,0-0.8-1.9-4.3-1.9c-2.7,0-3.7,1.5-3.7,1.5c-1.6,4.7-3.4,22.8-4,23.5
			c-0.3,0.3-20.4,13.8-20.4,13.8c10.9,0.2,17.7,13.6,17.7,13.6c0.4-4.4,12.6-21.9,12.8-23.4C525.8,178.3,531,165.2,527.5,154.2z"/>
		<path class="st22" d="M492.7,248.7c0,0-0.1,3.8,1.1,4c1.2,0.2,11.2,3.2,22.6-2c11.4-5.2,13.4-9.1,10.1-11.9
			C523.2,236,492.7,248.7,492.7,248.7z"/>
		<path class="st23" d="M488.1,193.6c0,0-10.4-1.2-16.4,1.3c0,0-1.7,7.4,6.5,23.9c8.2,16.5,6.3,26.9,15.5,30.8
			c8.2,3.5,32.4-6.9,33.1-10.3c1.9-8.6-12.9-23.8-13.8-32.5S503.7,184.9,488.1,193.6z"/>
		<path class="st22" d="M471.8,195c-7.3,2.6-15.5,10.7-15.5,14.7c0,3.9,6.8,5.5,6.8,5.5l11.2-5.5c0,0,3.2-2.2,1.2-8.8
			S471.8,195,471.8,195z"/>
		<g>
			<path class="st16" d="M501.7,202.3c-2.2,0-4.9-0.8-6.5-2c-0.9-0.7-1.5-1.4-1.6-2.1c-0.4-2.6,2.1-3.9,2.2-4l0.3,0.7
				c-0.1,0-2.1,1.1-1.8,3.2c0.1,0.5,0.5,1.1,1.3,1.7c1.9,1.3,5.1,2.1,7.2,1.7c1-0.2,1.6-0.5,1.8-1c0.3-0.6,0-1.3,0-1.3l0.7-0.3
				c0,0,0.4,1-0.1,2c-0.4,0.7-1.2,1.2-2.4,1.4C502.5,202.2,502.1,202.3,501.7,202.3z"/>
		</g>
		<g>
			<path class="st16" d="M492.4,210.1c-1.6,0-4.3-0.7-4.7-3.3c-0.2-1.3-0.1-2.5,0-3.5c0.2-1.5,0.3-2.6-0.6-4
				c-1.4-2.3-3.3-2.4-3.4-2.4l0-0.7c0.1,0,2.4,0.2,4,2.8c1,1.6,0.8,3,0.7,4.5c-0.1,1-0.2,2,0,3.3c0.4,2.8,4,2.7,4.2,2.7l0,0.7
				C492.7,210.1,492.5,210.1,492.4,210.1z"/>
		</g>
		<path class="st22" d="M494.7,196.7c0,0,5.5-3.7,4.2-7.8c-1.3-4.1-19-3.8-23.6,1.1c-4.6,4.8,9.9,8.1,9.9,8.1
			C486.3,195.8,493.5,195.6,494.7,196.7z"/>
		<path class="st24" d="M484.8,196.1c-2.6-0.9-4.2-2.8-3.6-4.9c0.6-2.2,11.8-2.2,13.9-0.5C497.2,192.4,494.2,199.3,484.8,196.1z"/>
		<path class="st14" d="M483.6,190c0,0,2.3,3.9,1.2,6.1c0,0,7.9,2.7,7.9-1.7c0,0-1.5-3.3-0.9-5.5L483.6,190z"/>
		<path class="st17" d="M483.6,190c0,0,1,1.8,1.4,3.6c0.2,0.9,7.2-0.4,6.9-1.9c-0.2-0.9-0.3-2-0.1-2.8L483.6,190z"/>
		<g>
			<path class="st13" d="M480.9,186.5c0,0-3.9-6.2-3.5-12.2c0.2-3,1.7-4.1,1.7-4.1s-1.2-1.7,0.1-4.3c0,0,1.8,2.1,8.3,1.5
				c6.2-0.6,6.8,3.8,6.8,3.8c4.4,0.7,1.4,14.1-1.7,15.4H480.9z"/>
			<path class="st14" d="M479.3,180.8c0,0-2.2-2.2-2.5,0.4c-0.3,3,2.4,4.2,3,3.3C480.3,183.5,479.3,180.8,479.3,180.8z"/>
			<path class="st14" d="M494.9,181c0,0,2.2-2.2,2.5,0.4c0.3,3-2.4,4.2-3,3.3C493.9,183.6,494.9,181,494.9,181z"/>
			<path class="st14" d="M486.9,191.7c-5,0-7.8-3.2-7.8-13c0-5,2.6-8.1,8.1-8.1c5.6,0,7.9,3.1,7.9,8.1
				C495.1,189.2,492,191.7,486.9,191.7z"/>
			<path class="st13" d="M480.6,171.8c0,0,5.3,1.9,12.9,1.4c0,0,1.6,2,1.4,9.1c0,0,4.4-12.8-8.5-12.8c-13,0-7.1,12.5-7.1,12.5
				S478.2,174.2,480.6,171.8z"/>
		</g>
		<path class="st16" d="M504.8,198.2c0.9-0.2,0.8,2.3,0,1.6C503.9,199.1,503.8,198.4,504.8,198.2z"/>
		<path class="st16" d="M493.5,210c-0.1,0.9-2.4,0-1.5-0.5C493,209,493.7,209.1,493.5,210z"/>
		<path class="st14" d="M483.5,215.1c0,0-1.5,3.8-1.4,5.9c0.1,2.1,0.8,1.9,0.8,1.9s-1.1,0.4-1.3,1.7c-0.2,1.2,2.9,2.1,3.1,2.1
			c0.2,0,2.4-0.8,2.4-0.8l0.5-7l-1.9-1.2L483.5,215.1z"/>
		<path class="st14" d="M484.7,214.6c0,0,2.7,1.7,3.7,2.7c1,1,0.4,8.9,0,9.3c-0.4,0.4-3.9,1.1-4.5,0.7c-0.7-0.4,0.3-2.8,0.3-2.8
			s1.7-0.4,1.5,0.3c-0.2,0.7,0,1.2,0,1.2l0.7-0.3c0,0-0.3-1.8,0-3.1c0.3-1.3-2.4-2.7-2.8-5.1C483.2,215.3,484.7,214.6,484.7,214.6z"
			/>
		<path class="st22" d="M456.8,210.8c-0.9-3.7,2.8-5,8-4.4c6,0.7,18.2,2.3,20.9,8.8c0,0,0.9,2.5-1.4,3.8
			C477.9,222.3,458.4,217.8,456.8,210.8z"/>
		<path class="st24" d="M475.4,208.3c0,0-7.1-3-10.7-3.3C461.2,204.7,469.7,207.8,475.4,208.3z"/>
		<g>
			<path class="st14" d="M528.7,144.3c-0.5,0.6-1.4,3-1.4,3c-0.4,2-0.6,3.1-1.3,4c-0.7,0.9-0.3,2.5-0.3,2.5s-2.7,1.4-5-0.3
				c0,0,0.2-1.6,0-2.1c-0.5-0.9-2-1.4-2.5-3.2c-0.5-1.8-2.1-3.9-2.1-3.9s0.4-1,1.2-0.4c0.8,0.6,1.3,2.1,1.8,2.2
				c0.1,0,0.2,0.1,0.3,0.1c0,0,0,0,0,0c0.3,0,0.7,0,0.9-0.2c0,0,0,0,0.1,0c0.7-0.9,0.9-3.4,0.9-4.5c0-1.6,0-3.7,1-3.4
				c1,0.4,0.1,1.2,0.8,4.7l0.4,0c0.1,0.2,0.7-2.1,0.9-4.3c0.1-1.5,1.1-1,1.3-0.5c0.2,0.5-0.1,2-0.2,3.1c-0.1,0.7-0.1,1.5-0.1,1.9
				l0.4,0.2c1.5-2.6,1-3.7,1.9-3.8c0.9-0.1,0.6,2.2,0.1,3c-0.2,0.4-0.4,1.1-0.6,1.9c1.5-1.8,1.4-2.7,2.1-2.6
				C529.9,141.9,529.3,143.7,528.7,144.3z"/>
			<path class="st14" d="M522.1,148.4c-0.5-1.4-2.4-2.1-2.6-2.2c0.3,0,0.7,0,0.9-0.2C522.2,146.8,522.1,148.4,522.1,148.4z"/>
		</g>
		<g>
			<path class="st25" d="M489.7,339.1c0,0-1-2.1-0.1-3c0.9-0.9,2,0.8,3.6,0.4c1.6-0.4,1.9-1.5,2.3,0
				C495.9,338.1,495.4,342.9,489.7,339.1z"/>
			<path class="st25" d="M495.6,339c0,0-4.2,1.5-6.4,0l0.6,1.8c0,0,4.6,0.5,5.2-0.7L495.6,339z"/>
			<path class="st25" d="M495.5,341.3c0,0-3.9-0.5-5.7,0.4v0.9c0,0,5-1.2,6.7,0L495.5,341.3z"/>
			<path class="st25" d="M489.6,344.5c0,0,0.7-1.8,3.1-2c2.4-0.1,3.9,1.2,3.9,1.2S492.9,342.2,489.6,344.5z"/>
		</g>
		<g>
			<path class="st20" d="M589.1,319.2c-7.4,9.9-17.5,11.8-17.5,11.8c-2.9-2.3-3-5.1-3-5.1s-2.8-2.5-3.2-3.7
				c-0.4-1.2,2.4-4.8,4.1-4.5c1.2,0.3,1.8,1.2,2.1,1.7c-1.4-3.1-0.3-4.2,1.7-3.9c2.1,0.3,0.1,0.8,1.6,2.4c0.1,0.1,0.2,0.2,0.4,0.3
				c0.3,0.2,0.6,0.3,1,0.4c0.3,0.1,0.7,0.1,1.1,0.1c0.2,0,0.4,0,0.6-0.1c0.4-0.1,0.8-0.2,1.2-0.3c0.6-0.2,1.3-0.5,1.9-0.8
				c2.6-1.4,3.6-1.9,5.6-1.4c1.9,0.5,1.9,2,1.9,2L589.1,319.2z"/>
			<g>
				<path class="st25" d="M575.2,318.1c0.3,0.2,0.6,0.3,1,0.4c-2,0.4-2.1,2.1-2.1,2.1l-0.8-0.3C573.4,318.3,575.1,318.1,575.2,318.1
					z"/>
				<path class="st25" d="M576.5,320.9l-0.9,0c-0.3-1.2,0.1-2,0.5-2.4c0.3,0.1,0.7,0.1,1.1,0.1C576.2,319.6,576.5,320.9,576.5,320.9
					z"/>
				<path class="st25" d="M578.7,320.4l-0.9,0.1c-0.3-0.9-0.2-1.5,0-2c0.4-0.1,0.8-0.2,1.2-0.3C578.3,319.3,578.7,320.4,578.7,320.4
					z"/>
			</g>
			<path class="st25" d="M589.1,319.2c-7.4,9.9-17.5,11.8-17.5,11.8c5.2-2.2,9.9-5.1,13.1-8.7C587.9,318.7,589.1,319.2,589.1,319.2z
				"/>
		</g>
		<path class="st22" d="M495.7,228.4c0,0,1.9,10.3-2,14.5c-3.9,4.1-1.3,0.7-0.2-4.6C494.7,233,493.8,227.4,495.7,228.4z"/>
		<path class="st22" d="M513.5,223.8c0,0,6.1,2,9.3,7.6C522.8,231.5,518.6,222.3,513.5,223.8z"/>
	</g>
	<g>
		<g>
			<path class="st14" d="M355,147c0.8,0,3.2,1,3.2,1c1.7,1.1,2.7,1.6,3.8,1.7c1.1,0.1,1.6,2.1,1.6,2.1s4.5,1,4.8-1.9
				c0,0-2.5-3.6-2.7-4.1c-0.4-1,0.3-2.4-0.7-4c-1-1.6-1.5-4.1-1.5-4.1s-1-0.3-1.1,0.7c-0.1,1,0.6,2.4,0.4,2.8c0,0.1-0.1,0.2-0.1,0.2
				c0,0,0,0,0,0c-0.2,0.3-0.5,0.5-0.8,0.5c0,0,0,0-0.1,0c-1.1,0-3.1-1.6-3.9-2.4c-1.1-1.1-2.8-2.5-3.1-1.5c-0.4,1,0.9,0.9,2.9,3.8
				l-0.2,0.3c0.1,0.2-2-0.9-3.8-2.2c-1.2-0.9-1.4,0.2-1.2,0.7c0.2,0.5,1.5,1.2,2.4,1.9c0.6,0.4,1.2,0.9,1.5,1.2l-0.1,0.5
				c-3-0.6-3.4-1.8-4-1.1c-0.6,0.6,1.2,1.9,2.2,2.1c0.4,0.1,1.1,0.5,1.8,0.8c-2.4-0.1-2.9-0.8-3.3-0.2
				C352.4,146.3,354.1,147,355,147z"/>
			<path class="st14" d="M362.5,144.8c-0.7-1.4,0-3.2,0.1-3.4c-0.2,0.3-0.5,0.5-0.8,0.5C361.2,143.8,362.5,144.8,362.5,144.8z"/>
		</g>
		<g>
			<path class="st14" d="M487.9,147c-0.8,0-3.2,1-3.2,1c-1.7,1.1-2.7,1.6-3.8,1.7c-1.1,0.1-1.6,2.1-1.6,2.1s-4.5,1-4.8-1.9
				c0,0,2.5-3.6,2.7-4.1c0.4-1-0.3-2.4,0.7-4c1-1.6,1.5-4.1,1.5-4.1s1-0.3,1.1,0.7c0.1,1-0.6,2.4-0.4,2.8c0,0.1,0.1,0.2,0.1,0.2
				c0,0,0,0,0,0c0.2,0.3,0.5,0.5,0.8,0.5c0,0,0,0,0.1,0c1.1,0,3.1-1.6,3.9-2.4c1.1-1.1,2.8-2.5,3.1-1.5c0.4,1-0.9,0.9-2.9,3.8
				l0.2,0.3c-0.1,0.2,2-0.9,3.8-2.2c1.2-0.9,1.4,0.2,1.2,0.7c-0.2,0.5-1.5,1.2-2.4,1.9c-0.6,0.4-1.2,0.9-1.5,1.2l0.1,0.5
				c3-0.6,3.4-1.8,4-1.1c0.6,0.6-1.2,1.9-2.2,2.1c-0.4,0.1-1.1,0.5-1.8,0.8c2.4-0.1,2.9-0.8,3.3-0.2
				C490.4,146.3,488.7,147,487.9,147z"/>
			<path class="st14" d="M480.3,144.8c0.7-1.4,0-3.2-0.1-3.4c0.2,0.3,0.5,0.5,0.8,0.5C481.6,143.8,480.3,144.8,480.3,144.8z"/>
		</g>
		<path class="st13" d="M448.2,284l-8.7-53.7l-17.4,1.9l-17.4-1.9l-8.7,53.7l-4.2,52.1c0,0,1.3,4.3,10,1.3c0,0,6.4-48.3,7.4-49.4
			c1-1.1,11.2-32.6,11.2-32.6h3.2c0,0,10.2,31.6,11.2,32.6c1,1.1,7.4,49.4,7.4,49.4c8.7,3,10-1.3,10-1.3L448.2,284z"/>
		<path class="st26" d="M416.6,178.2c1.1,1.1,6.5,3,9.3,0l1.9,1.9c0,0-2.2,5.2-6.1,5.4c-3.9,0.2-6.7-4.6-6.7-4.6L416.6,178.2z"/>
		<path class="st26" d="M431.9,177.6c6.5-2.8,27.3-10.2,27.3-10.2s14-17.6,16.9-20.2c0,0,3.1,0.6,4,4.4c0,0-9,19.4-14,24.9
			c-4.9,5.5-29.8,17.5-29.8,17.5L431.9,177.6z"/>
		<path class="st27" d="M409.3,177.2c1.9-1.2,11.6,5.2,11.6,5.2s12.6-6.7,15.5-5.4c0,0,2.7,3.6,3.7,12.7c1.1,9.1,1.1,46.7,1.1,46.7
			s-8.4,3-19.9,3c-13,0-20-3.7-20-3.7S399.1,183.7,409.3,177.2z"/>
		<path class="st14" d="M417.2,176.2c0,0,1.4,4.4,0,6.1c0,0,1.4,3,4,3.2c3,0.2,4-3.2,4-3.2s-1.6-4.2,0-5.7L417.2,176.2z"/>
		<path class="st17" d="M417.2,176.2c0,0,0.6,1.9,0.6,3.7c0,0.9,7,1.1,6.8-0.3c-0.1-1.1-0.1-2.3,0.7-3L417.2,176.2z"/>
		<g>
			<path class="st28" d="M413.7,171.9c0,0-2.9-5.6-2.3-11.6c0.6-6,9.6-7.4,15.8-4.4c0,0-1.8-1.8-1.1-2.3c0.7-0.5,1.9,2.7,1.9,2.7
				s1.9-0.6,2.2,0c0.3,0.6-2,0.9-2,0.9s3.9,2.2,0.3,13.8L413.7,171.9z"/>
			<path class="st14" d="M413.2,168.4c0,0-2.2-2.2-2.4,0.4c-0.3,2.9,2.4,4.1,2.9,3.2C414.2,171,413.2,168.4,413.2,168.4z"/>
			<path class="st14" d="M428.5,168.5c0,0,2.2-2.2,2.4,0.4c0.3,2.9-2.4,4.1-2.9,3.2C427.6,171.1,428.5,168.5,428.5,168.5z"/>
			<path class="st14" d="M420.7,179c-4.8,0-7.6-3.2-7.6-12.6c0-4.9,2.5-7.9,7.9-7.9c5.4,0,7.7,3,7.7,7.9
				C428.7,176.6,425.7,179,420.7,179z"/>
			<path class="st28" d="M428.2,169.6c0,0-0.2-5.3-2.2-9.3c0,0-3.6,1.7-4.4,1.3c-0.8-0.4,0.8-1.3,0.8-1.3s-6,2-6.3,1.6
				c-0.4-0.4,2-1.6,2-1.6l-3.7,1.3c0,0-1.1,4.7-0.7,8c0,0-1.6-2.8-1.8-4.7c-0.2-1.9,0.6-7.3,6.2-7.7c5.6-0.4,8.7,0.9,10.1,3.4
				C429.6,163.2,429.4,166.4,428.2,169.6z"/>
		</g>
		<path class="st29" d="M426.9,179.6c0,0,8.8,27.2,9.6,49.3c0,0,3.2,0.9,6.7-4c3.6-4.8,1.4-43.2-5.4-49.6
			C437.8,175.3,434.7,174.6,426.9,179.6z"/>
		<path class="st26" d="M428.3,184.3c0,0,1.6-3.6,0.9-6.1c-0.7-2.5-3.2,0-3.2,0S427,182.3,428.3,184.3z"/>
		<path class="st26" d="M410.7,177.6c-6.5-2.8-27.3-10.2-27.3-10.2s-14.1-18.1-16.9-20.7c0,0-3.5,2-3.8,6.2c0,0,8.8,18.1,13.8,23.7
			c4.9,5.5,29.8,17.5,29.8,17.5L410.7,177.6z"/>
		<path class="st29" d="M415.8,179.6c0,0-8.8,27.2-9.6,49.3c0,0-3.2,0.9-6.7-4c-3.6-4.8-1.4-43.2,5.4-49.6
			C404.8,175.3,407.9,174.6,415.8,179.6z"/>
		<path class="st26" d="M414.4,184.3c0,0-1.6-3.6-0.9-6.1c0.7-2.5,3.2,0,3.2,0S415.6,182.3,414.4,184.3z"/>
		<g>
			<path class="st20" d="M460.1,350.1h-17.4c-1.2-6.9,0.7-13.8,0.7-13.8l8-1.4c0.7,4.4,1.6,6.1,2.8,7c0,0,0,0,0,0
				c0.9,0.6,1.9,0.9,3.2,1.3c1.5,0.5,2.3,1.5,2.7,2.5C460.9,347.7,460.1,350.1,460.1,350.1z"/>
			<path class="st25" d="M460.1,345.7c-4.3,0.5-13.7,1.5-13.1-1c0.5-2.1,4.5-2.6,7.2-2.8c0,0,0,0,0,0c0.9,0.6,1.9,0.9,3.2,1.3
				C458.9,343.7,459.7,344.6,460.1,345.7z"/>
		</g>
		<g>
			<path class="st20" d="M401.8,350.1h-17.4c0,0-0.6-1.6-0.3-3.3c0.2-1.4,1-2.9,3-3.6c1.5-0.5,2.7-0.7,3.6-1.6c1-1,1.8-2.8,2.4-6.7
				l8,1.4C401.1,336.2,403,343.2,401.8,350.1z"/>
			<path class="st25" d="M384.1,346.7c0.2-1.4,1-2.9,3-3.6c1.5-0.5,2.7-0.7,3.6-1.6c2.2,0.7,5.3,1.9,6.2,3.8
				C398.3,348,388.1,347.6,384.1,346.7z"/>
		</g>
	</g>
	<g>
		<g>
			<path class="st15" d="M527.6,348.3c0,0.7-0.1,1.2-0.1,1.2h-21.1c0-0.4,0-0.8,0-1.2c0.2-5.5,2-10.3,2-10.3l5.3-2.3
				c0.5,2.7,1.6,4.5,3.1,5.6c0.4,0.3,0.8,0.6,1.2,0.8c0.2,0.1,0.4,0.2,0.6,0.3c0.4,0.2,0.9,0.4,1.3,0.5c1.9,0.6,3.8,0.7,5.1,0.9
				C527.2,344.1,527.6,346.7,527.6,348.3z"/>
			<path class="st30" d="M527.6,348.3c0,0.7-0.1,1.2-0.1,1.2h-21.1c0-0.4,0-0.8,0-1.2H527.6z"/>
			<path class="st30" d="M518,342L515,343l-0.6-1.1l2.3-0.6C517.1,341.6,517.5,341.8,518,342z"/>
			<path class="st30" d="M519.9,342.8l-2,1.3l-1.2-0.5l1.8-1.3C519,342.5,519.4,342.7,519.9,342.8z"/>
		</g>
		<g>
			<path class="st15" d="M446.8,348.3c-0.1,0.7-0.2,1.2-0.2,1.2h-14.1c-0.2-0.4-0.3-0.8-0.4-1.2c-1.4-6.7,8-15,8-15l3,4
				c0,0-0.3,6.3,2.2,7.7C446.7,345.7,446.9,347.2,446.8,348.3z"/>
			<path class="st30" d="M432.1,348.3h14.7c-0.1,0.7-0.2,1.2-0.2,1.2h-14.1C432.3,349.1,432.2,348.7,432.1,348.3z"/>
			<path class="st30" d="M444.6,344.4c0,0-5.9-1.4-8.6,0.4v-1C436,343.8,440.9,341.4,444.6,344.4z"/>
			<path class="st30" d="M443.4,342.9c0,0-3.8-1.7-7.5,0l0.4-1C436.4,341.9,440.8,340.2,443.4,342.9z"/>
		</g>
		<path class="st31" d="M521.2,288.4c0,5.7-5,51.8-5,51.8c-5,0.5-9.1-0.5-9.1-0.5c-1.4-23.4-1.5-43.5-1.5-43.5l-24.1-18.1l-0.1,0
			c0,0-0.1,0.4-0.3,1.1c-1.2,5.3-6.2,27.5-8.3,32.6c-2.4,5.8-28.6,30.1-28.6,30.1c-4.9-0.7-9-4.2-9-4.2
			c9.4-15.6,22.2-31.2,22.2-31.2c1-5.6,1.7-18.1,2.1-27.4c0-0.1,0-0.3,0-0.4c0.3-6.3,0.4-11.1,0.4-11.1l-4.4-9.1l28-10.3l6.3,8
			c0,0,1.4,1.3,3.7,3.5c0.1,0.1,0.2,0.2,0.3,0.3C502.4,267.9,521.2,285.8,521.2,288.4z"/>
		<g>
			<path class="st12" d="M459.6,279c0-0.1,0-0.3,0-0.4c5.9-3.2,4.9-8.3,4.9-8.4l0.4-0.1C464.9,270.2,466,275.7,459.6,279z"/>
			<path class="st12" d="M481.1,274.5c0.2,1.1,0.4,2.3,0.4,3.6l-0.1,0c0,0-0.1,0.4-0.3,1.1c-0.3-8.8-3.9-14-3.9-14l0.3-0.2
				c0,0,2.3,3.3,3.4,9.1c4.3-3.8,0.1-11.6,0-11.6l0.3-0.2C481.4,262.4,485.8,270.6,481.1,274.5z"/>
			<path class="st12" d="M494,260C494,260,494,260,494,260c-0.2,0.1-0.4,0.1-0.6,0.1c-2.1,0-5.5-2.9-5.7-3l0.2-0.3
				c1.1,1,4.3,3.2,5.8,2.9C493.8,259.8,493.9,259.9,494,260z"/>
		</g>
		<path class="st32" d="M457.6,210.2c0,0,8.5-1.4,12.8,1.4c4.3,2.7,9.9,9.8,9.9,9.8s-6.7,0.9-7.4,5.4
			C472.9,226.8,468.1,215.2,457.6,210.2z"/>
		<path class="st16" d="M444.8,214.6c-3.6,2-9.6,9.3-9.9,13.8c-0.3,4.4,3,8.4,5.2,11.9c6.8,10.7,14.1,20.2,17.1,32.8
			c0,0.1,15.7,6.3,34-15.8c0,0-10.4-14-14-25.8c-1.5-4.8-2.9-10-5.7-14.2c-3.1-4.7-8.4-7.5-13.9-7
			C453,210.6,448.4,212.7,444.8,214.6z"/>
		<path class="st14" d="M443.3,210.1c0,0,2.3,3.9,1.2,6.1c0,0,7.9,2.7,7.9-1.7c0,0-1.5-3.3-0.9-5.5L443.3,210.1z"/>
		<path class="st17" d="M443.3,210.1c0,0,0.8,1.4,1.2,2.9c0.3,1.1,7.7,0.9,7.4,0c-0.4-1.2-0.7-2.8-0.4-4L443.3,210.1z"/>
		<path class="st33" d="M460.9,237.1c0,0-4.4,1.3-5.5,2.8c-1.1,1.6-2.1,5.1-2.1,5.1h7.6l1.4-2.6l1.7-3.5L460.9,237.1z"/>
		<g>
			<path class="st15" d="M453.6,205.7c0,0,3.1-1.3,1.1-10.6c-1.3-6.2-3.2-7.1-4.5-7.1c0,0-1.5-2.3-6.7-1.2c-3.6,0.7-6.4,2.9-7.7,7
				c-1.3,4.2,1.3,13.2,4.8,14.1L453.6,205.7z"/>
			<path class="st14" d="M454.3,199.4c0,0,1.9-2.7,2.7,0c0.9,3.1-1.8,4.8-2.5,3.9C453.8,202.4,454.3,199.4,454.3,199.4z"/>
			<path class="st14" d="M438,202.3c0,0-2.7-1.9-2.6,0.8c0.2,3.2,3.3,4,3.7,2.9C439.5,204.9,438,202.3,438,202.3z"/>
			<path class="st14" d="M448.3,212.2c5.2-0.9,7.5-4.7,5.9-14.9c-0.9-5.2-4.1-8-9.9-7c-5.8,1-7.7,4.6-6.8,9.8
				C439.3,211,442.9,213.1,448.3,212.2z"/>
			<path class="st13" d="M451.2,192.6c0,0-5.8,4.2-13.2,4.6l0.2,6.5c0,0-6.8-12.6,6.7-14.8c13.5-2.2,9.6,11.8,9.6,11.8
				S454.1,194.6,451.2,192.6z"/>
			<path class="st22" d="M454.4,192.6c-9.8-4.3-19.1,4.6-19.1,4.6s-1.1-7.2,0.8-8.8c0.5-0.4,1-0.8,1.6-1.2
				c4.3-2.7,10.1-2.7,12.8-1.7c0.5,0.2,1,0.4,1.2,0.7C453.2,187.7,454.4,192.6,454.4,192.6z"/>
			<path class="st16" d="M453.2,191c0,0-8.3-1.6-16,3.5c0,0-0.5-4.6,0.4-7.3c4.3-2.7,10.1-2.7,12.8-1.7
				C452,187.2,453.2,191,453.2,191z"/>
			<path class="st24" d="M436.1,196.4c0,0,1.3-5.6,3.1-7.1c2.9-2.6,11.2-3.5,15.5-1.9c4.3,1.6,0,6.3,0,6.3S447.8,188.7,436.1,196.4z
				"/>
		</g>
		<path class="st14" d="M448.9,233.3c0,0,3.4,5.2,9.1,8.3c0,0,7.2-6.2,16.5-5.7c0,0-7.7,13.9-14.4,15.5c-3.5,0.8-16.1-7.5-16.1-7.5
			S446.6,235,448.9,233.3z"/>
		<path class="st32" d="M436.4,223.8c3.1-5,10.2,2.4,12.6,7.7c2.4,5.3,4.2,6.4,4.2,6.4s-7.1,3-7.1,8.3
			C446.2,246.3,429.7,234.8,436.4,223.8z"/>
		<path class="st33" d="M458,239.3c0,0,4.3-4.3,18.6-9.8l-1.8-5.8c1.6-2.2,4.6-2.2,4.6-2.2s7.3,10.3,6,13.4
			C484.6,236.9,469.4,238.9,458,239.3z"/>
		<path class="st14" d="M473.6,230.9c0,0,0.1-0.6,0.6-1.4c0.5-0.7,0.4-2.1,0.6-2.5c0.2-0.4,1.3-2.1,2.1-2.5c0.7-0.3,1.7-0.9,1.9,0.1
			s-1.3,0.7-2,2c0,0,1.5-0.5,2.7-0.2c1.2,0.3,1.5,1.4,0.1,1.3c-1.2,0-2.7,0.8-2.7,0.8s1.5,0.2,1.3,0.9
			C477.8,230.5,475.9,229.9,473.6,230.9z"/>
	</g>
	<g>
		<path class="st34" d="M367.3,250.9c1.3,3.3,6.5,8.9,6.5,8.9s12.8-7.6,18.6-4.4c5.9,3.2,10.6,5.2,14.4,3.8
			c3.8-1.4-12.5-31.2-12.5-31.2l-21.2-8.1c0,0-0.5,5.4-2.9,6.3c-2.4,1-5,9.8-4.8,11.5C365.5,239.3,367.3,250.9,367.3,250.9z"/>
		<path class="st14" d="M391.2,259.9c0,0-5.5,10.7-16.8,24.5c0,0-1.2,16.3-31,42l-3.1-2.5c0,0,17.8-27.9,21.3-36.4
			c3.6-8.5-2-16.4,14.4-38L391.2,259.9z"/>
		<path class="st35" d="M373.7,241c-4.7,9-6.3,20.6-6.3,20.6l-2.1,5.4c0,0,7.6,4.1,16.4,5.6l3.5-9.3L373.7,241z"/>
		<path class="st14" d="M398.3,259.1c0,0,2.3,11.8,1.9,29.6c0,0,9.2,13.5,1.6,52.2h-4c0,0-3.2-32.9-5.7-41.8
			c-2.5-8.9-11.7-11.6-12.2-38.7L398.3,259.1z"/>
		<g>
			<path class="st36" d="M400.6,271.8c0,0-7.5,1.3-20.7,0.7l-0.2-1.5l-0.1-0.4l-1.4-9.6c0,0-1.3-1.6-2.6-4.1
				c-0.2-0.3-0.3-0.6-0.5-0.9c-1.8-3.8-3.3-9.3-1.6-15l2.8,0.1l0.4,0l9.3,0.4l0.4,0l3.1,0.1l0.5,0l2,0.1c0,0,10.1,9.1,8.3,25.9
				l0.1,2.3l0,0.4L400.6,271.8z"/>
			<g>
				<path class="st35" d="M376.9,241.1c-0.3,0.8-2,6.5-1.1,15.8c-0.2-0.3-0.3-0.6-0.5-0.9c-0.7-8.5,0.9-13.8,1.2-14.9
					c0-0.1,0.1-0.2,0.1-0.2L376.9,241.1C376.9,241,376.9,241.1,376.9,241.1z"/>
				<path class="st35" d="M400.6,270.4c-2.6,0.7-7.1,0.9-11.4,0.9c-3.8,0-7.5-0.2-9.4-0.2l-0.1-0.4c3.3,0.2,12.2,0.5,17.8-0.1
					l-0.4-6c0.1-7-2-13-4.1-17.1c-5.2-0.9-6.6-4.8-6.9-5.9c0-0.2-0.1-0.3-0.1-0.3l0.4-0.1c0,0,0,0.1,0.1,0.4
					c0.3,1.1,1.7,4.5,6.3,5.4c-1.4-2.7-2.7-4.5-3.2-5.3c-0.2-0.2-0.3-0.4-0.3-0.4l0.3-0.2c0,0,0.2,0.2,0.5,0.6
					c1.7,2.3,7.6,11.2,7.4,22.8l0.4,6c1-0.1,1.9-0.3,2.6-0.5L400.6,270.4z"/>
			</g>
		</g>
		<path class="st37" d="M381.5,200.5c-3-1.6-24.4,6.8-24.4,6.8s-3.2,5.6-1.2,7.9c2,2.2,9,1.2,11.1,0s7.8-2.2,7.8-2.2L381.5,200.5z"
			/>
		<path class="st28" d="M400.4,182.7c0,0,4.4,1.7,6,6.8c1.6,5.1-3.2,18-1.5,23.9c1.7,5.9,1.4,17.1-3.8,19.5
			c-5.2,2.4-15.9-1.9-18.2-8.3c-2.3-6.5-1.3-31,3.1-39.3C390.4,176.9,399.4,181.1,400.4,182.7z"/>
		<path class="st37" d="M395.3,204.7c1.2,1.3,4.2-1,4.2-1s-0.1,11.1-3.3,12c-3.2,0.9-11.5-8.8-11.1-11.4
			C385.4,201.7,392.8,201.9,395.3,204.7z"/>
		<path class="st8" d="M382.9,201.9c0,0,3.3,2.8,9,4.1c5.7,1.3,8.8-1.4,11.7,2.3c4.4,5.5-2.7,15.7-6.5,20.9c-1.4,2-4.3,7.4-4.9,12.6
			c0,0-9.9,2.9-18.4-0.9l-0.6-12.1C373.1,228.9,367.7,212.5,382.9,201.9z"/>
		<path class="st37" d="M393.1,213.7c0,0,4.5-10.7,5.8-11.4c1.3-0.7,4.6,1,5.3,2.4c0.7,1.5,0,4.7,0,4.7S400.6,205.3,393.1,213.7z"/>
		<path class="st18" d="M414.7,259.1c-2.1,4.2-7.1,5.4-7.1,5.4s-0.4-0.6-1-1.6c-0.1-0.1-0.1-0.2-0.2-0.3c-4-6.4-16.1-27-15.8-37.7
			c0.3-12.8,8.6-19.8,8.6-19.8c4.2,1,5.6,2.2,5.6,2.2s1.4,7.3,0.1,16c-1.3,8.7-3.7,11-2.5,11.7c1.2,0.6,0,2,0,2s7,9.8,8.3,12.8
			c0.9,2,2.3,5.4,3.2,7.5c0.1,0.1,0.1,0.3,0.2,0.4C414.5,258.5,414.7,259.1,414.7,259.1z"/>
		<path class="st14" d="M402.5,207.3c0,0-5,3.7-2.1,9.4l13.9,14.4c-7.6,8.1-8.4,11.5-13.9,15.2l2.1,3.2c0,0,19.4-14.9,19.4-18.5
			C421.9,229.5,410.1,210.8,402.5,207.3z"/>
		<path class="st14" d="M400.1,246.3c0,0-2.7,0.3-4.3,0.7c-1.7,0.4-3.9,0.8-4,1.2c-0.1,0.3,3.7,0,3.7,0s-3.1,1.3-3.1,1.7
			c-0.1,0.5,3.9-0.4,3.9-0.4s-2.5,1.5-2.4,2c0.1,0.4,3.2-0.6,3.2-0.6s-0.6,1.5-1.2,2.2c0,0,0.6,0.3,1.8-1c1.2-1.3,3.2-0.9,4.7-2.1
			C404,248.8,401.5,246.2,400.1,246.3z"/>
		<path class="st18" d="M385.9,203.7c0,0-3.8,2.5-6.2,8.4c-2.4,6-10,17.2-11.8,20.1c-1.8,2.9-0.5,18.7-0.5,18.7s-2.2-9.6-3.2-13.3
			c-1-3.7,3.2-12.9,3.8-13.4c0.6-0.5,3.9,0.4,3.2-3.3c-0.6-3.7,8-19.9,10.4-20.3C381.5,200.5,385.2,201.2,385.9,203.7z"/>
		<path class="st18" d="M374.1,204.5c-0.1,0.1-0.1,0.3-0.2,0.4c-0.9,1.2-2.5,2.2-2.5,2.2s-2.9,4.1-2.9,4.6c0,0.4-5.1,4.1-7.3,4h0
			c-0.3,0-0.6-0.1-0.7-0.3c-1.3-1.3,4.5-11.8,5.8-14c0.1-0.1,0.1-0.3,0.2-0.3c0-0.1,0.1-0.1,0.1-0.1s-1-3.8,3.3-3.1
			c3.6,0.6,4.3,3.4,4.7,5.3C374.4,203.6,374.3,204,374.1,204.5z"/>
		<path class="st14" d="M359.1,208.5c3-3.9,13.3-11.4,18.8-13.6l1.4,2.5c0,0-10.6,9.3-13.1,13.3c-2.5,4-5.6,5.6-8.5,4.3
			C354.7,213.6,358.4,209.3,359.1,208.5z"/>
		<path class="st37" d="M373,203.7l-0.6,0.6l-0.3,0.3l-0.9,1.1c0,0-2.3,2.8-2.2,4c0.1,0.8-4.4,4.5-7.9,6c-1.4,0.6-2.7,0.9-3.4,0.5
			c-2.5-1.5-2-5.9-0.5-8.8c1.3-2.6,6.8-5.9,8.2-6.8c0.2-0.1,0.3-0.2,0.3-0.2c0,0,0,0,0,0l0.5-2.1c0,0,1.9-1.2,3.5-0.4
			c0,0-3.4,0.1-2.8,1.4C367.4,200.5,372.1,203.6,373,203.7z"/>
		<g>
			<path class="st14" d="M385.2,192.9c-3.4,1.4-2.9,4.4-6,4.4c-1.9,0-2.2-2.2-2.2-2.2c0.9-1.9,1.4-5.1,1.5-6.6
				c0.1-1.5,0.6-0.9,0.6-0.9c0-0.1,0-0.3,0-0.4c0-1-0.2-1.8,0.4-1.3c0.8,0.5,1,3.4,1,3.4c0.6-4.2-0.3-4.8,0.4-4.5c1,0.5,1,4.2,1,4.3
				c0.8-2.5,0.6-3.9,1.1-3.3c0.6,0.6-0.3,5.1-0.6,6.7c-0.1,0.4-0.1,0.6-0.1,0.6C385.2,191.9,385.2,192.9,385.2,192.9z"/>
			<path class="st14" d="M382.6,192.6c-0.1,0.4-0.1,0.6-0.1,0.6s-1.2-0.1-2.1,1.2C380.4,194.4,380.6,192.6,382.6,192.6z"/>
			<path class="st14" d="M379.4,190.7c0-0.4,0.2-2.4-0.2-3c0-0.1,0-0.3,0-0.4C380,187.4,379.5,190.2,379.4,190.7z"/>
		</g>
		<path class="st37" d="M381.5,208.5c0,0,2.3-6.2,3-7.6c0.7-1.4,4.5-1.1,7.4-0.6c2.9,0.5,3.4,4.4,3.4,4.4S386.6,200.5,381.5,208.5z"
			/>
		<path class="st14" d="M396.2,196.3c0,0-2.7,5.1-2.7,10.7c0,0-4.4,3-6-0.8c0,0,1.7-5,0.9-11.6C387.8,190.1,396.2,196.3,396.2,196.3
			z"/>
		<path class="st17" d="M396.2,196.3c0,0-1.8,3.3-2.4,7.5c-0.2,1-6,1.6-5.7,0.3c0.4-2.1,0.8-5.5,0.3-9.5
			C387.8,190.1,396.2,196.3,396.2,196.3z"/>
		<g>
			<path class="st14" d="M387.5,189.3c0,0-0.8-2.9-2.3-0.9c-1.7,2.4,0,4.6,0.9,4.1C387,192,387.5,189.3,387.5,189.3z"/>
			<path class="st14" d="M400.4,196.7c0,0,2.9-0.8,1.9,1.5c-1.1,2.7-4,2.4-4,1.3C398.3,198.5,400.4,196.7,400.4,196.7z"/>
			<path class="st14" d="M388.7,201.9c-4.1-2.3-4.9-6.3-0.4-14.4c2.3-4.2,5.9-5.5,10.5-2.9c4.6,2.6,5.1,6.2,2.8,10.4
				C396.7,203.7,392.9,204.3,388.7,201.9z"/>
			<g>
				<path class="st38" d="M393.5,187.9c0,0-0.1,0-0.1,0c0,0-1-0.6-1.9-0.3c-0.1,0-0.3,0-0.3-0.2c0-0.1,0-0.3,0.2-0.3
					c1.1-0.3,2.2,0.3,2.3,0.4c0.1,0.1,0.1,0.2,0.1,0.3C393.7,187.8,393.6,187.9,393.5,187.9z"/>
			</g>
			<path class="st28" d="M399.9,186.3c0,0-1.5-2-3.5-0.4c-2,1.6-6.6,4.2-8.9,3.4c-2.3-0.9,4.9-10.5,11.2-7.7
				c6.3,2.8,5.7,12,3.1,14.9c-2.6,2.9-1.4,0.2-1.4,0.2s0.2-4.1,1-6.9C402.3,187.1,399.9,186.3,399.9,186.3z"/>
		</g>
		<g>
			<path class="st37" d="M423.1,230.5c-0.2,3.6-9.2,15.4-10.7,15.8c-0.4,0.1-0.8,0.3-1.2,0.6c-0.2,0.1-0.3,0.2-0.5,0.4
				c-0.9,0.7-1.5,1.5-1.5,1.5c-2.6-0.2-9.9-3.6-7.6-4.3c0.1,0,0.3-0.1,0.5-0.2c0.1-0.1,0.2-0.1,0.3-0.2c2.8-2.3,8.2-11.8,8.2-12.5
				c0-0.8,1-0.9,1-0.9s-5.1-7.5-8-8.4c-3-0.9-4.4-4.5-4.4-4.5c-2.9-12.3,5.6-10.4,5.6-10.4C411,211,423.3,226.9,423.1,230.5z"/>
			<g>
				<path class="st34" d="M411.3,246.9c-0.2,0.1-0.3,0.2-0.5,0.4c-4-0.3-7.4-2.2-8.6-3.1c0.1-0.1,0.2-0.1,0.3-0.2
					C403.8,244.8,407.2,246.8,411.3,246.9z"/>
			</g>
		</g>
		<g>
			<path class="st34" d="M374.1,204.5c-0.1,0.1-0.1,0.3-0.2,0.4c-0.6,0-1.1-0.1-1.6-0.2c-2.6-0.5-4.7-2-6-3.3
				c-0.3-0.3-0.6-0.6-0.8-0.8c0.2-0.1,0.3-0.2,0.3-0.2c0.2,0.2,0.4,0.5,0.7,0.7c1.3,1.3,3.4,2.8,6.1,3.3
				C373,204.4,373.5,204.5,374.1,204.5z"/>
		</g>
		<g>
			<path class="st34" d="M414.1,257.6c-1.2,2.1-3.5,4.6-7.5,5.2c-0.1-0.1-0.1-0.2-0.2-0.3c4.1-0.6,6.3-3.3,7.5-5.3
				C414,257.3,414,257.5,414.1,257.6z"/>
		</g>
		<g>
			<path class="st16" d="M346.2,325.5c0,0-0.9,0.9-1.9,2.6c-1,1.7,0.1,3.2-4.6,7.1c0,0-9.5-5.5-13.7-12.7c0,0,0.1-2,2.1-2.5
				c1.1-0.3,4.2,1.2,7.1,1.7c0.4,0.1,0.8,0.1,1.2,0.2c0.5,0,1,0.1,1.5,0c0.4,0,0.9-0.1,1.3-0.3h0c1-0.4,1.8-1.2,2.2-2.6
				c0,0,2.5,1.4,0.8,3.9C342.3,322.9,345.3,321.6,346.2,325.5z"/>
			<path class="st32" d="M339.7,335.2c0,0-9.5-5.5-13.7-12.7c0,0,1.6-0.3,2.9,2C330.2,327,340.5,332.3,339.7,335.2z"/>
			<path class="st32" d="M339.7,324c-0.8,1.2-0.8-1-1.8-2.1c0.4,0,0.9-0.1,1.3-0.3h0C339.7,322.1,340.3,323.1,339.7,324z"/>
			<path class="st32" d="M336.8,324.1c-0.8,0.8-1.1-1.2-1.6-2.3c0.4,0.1,0.8,0.1,1.2,0.2C336.9,322.6,337.4,323.5,336.8,324.1z"/>
		</g>
		<g>
			<path class="st16" d="M404.4,350.1H391c0,0-0.6-1.9,0-3.9c0.2-0.9,1.6-1.7,2.9-2.9c0.4-0.3,0.7-0.7,1-1c0.3-0.3,0.5-0.6,0.7-1
				c0.2-0.4,0.4-0.9,0.6-1.4c0.2-1,0.1-2.2-0.4-3.6c0,0,4.6-1,6.2,1.5c0,0,0.2-1.1,1.6-0.4c0,0-0.2,2.3,0.1,4.2
				C403.9,343.6,405.7,344.1,404.4,350.1z"/>
			<path class="st32" d="M400.9,342c-0.1,0.1-0.3,0.2-0.4,0.2c-0.1,0-0.3,0-0.4-0.1c-0.7-0.6-2.2-1.4-4.4-0.8
				c0.2-0.4,0.4-0.9,0.6-1.4c0.9-0.3,2.6-0.5,4.7,1.3C401.1,341.4,401.2,341.8,400.9,342z"/>
			<path class="st32" d="M399.8,344.2l-0.1,0.1c-0.2,0.3-0.5,0.4-0.8,0.2c-0.9-0.5-3-1.6-5-1.3c0.4-0.3,0.7-0.7,1-1
				c1-0.2,2.9-0.4,4.7,1.2C399.9,343.6,400,344,399.8,344.2z"/>
		</g>
	</g>
</g>
<g>
	<path class="st39" d="M509.8,110.1c18.1-0.5,41.9-0.5,41.4-12.4c-0.5-11.9-10.5-19.5-22.8-19.5c9.5-9.5,1-26.7-11.9-23.8
		c-5.2-18.1-43.8-12.9-43.3,6.7c-18.6,0-28.1,20-18.1,27.1c-12.4,6.2-14.3,21.4,2.4,20.9S492.6,110.6,509.8,110.1z"/>
	<path class="st39" d="M200.2,76.6c18.1-0.5,41.9-0.5,41.4-12.4c-0.5-11.9-10.5-19.5-22.8-19.5c9.5-9.5,1-26.7-11.9-23.8
		c-5.2-18.1-43.8-12.9-43.3,6.7c-18.6,0-28.1,20-18.1,27.1c-12.4,6.2-14.3,21.4,2.4,20.9S183.1,77.1,200.2,76.6z"/>
	<path class="st40" d="M537.7,69.8c10.7-0.3,24.7-0.3,24.4-7.3c-0.3-7-6.2-11.5-13.5-11.5c5.6-5.6,0.6-15.7-7-14
		c-3.1-10.7-25.8-7.6-25.5,3.9c-10.9,0-16.5,11.8-10.7,16c-7.3,3.6-8.4,12.6,1.4,12.3C516.7,69,527.6,70.1,537.7,69.8z"/>
</g>
</svg>
