<?xml version="1.0" encoding="utf-8"?>
<!-- Generator: Adobe Illustrator 20.0.0, SVG Export Plug-In . SVG Version: 6.00 Build 0)  -->
<svg version="1.1" id="Layer_1" xmlns="http://www.w3.org/2000/svg" xmlns:xlink="http://www.w3.org/1999/xlink" x="0px" y="0px"
	 viewBox="0 0 85 85" style="enable-background:new 0 0 85 85;" xml:space="preserve">
<style type="text/css">
	.st0{fill:none;stroke:#4BBFA7;stroke-width:1.5131;stroke-linecap:round;stroke-miterlimit:10;}
	.st1{fill:none;stroke:#4BBFA7;stroke-width:1.5655;stroke-linecap:round;stroke-miterlimit:10;}
</style>
<g>
	<g>
		<path class="st0" d="M64.1,40.9l-3.3-4.8c-0.7-1.1-2.2-1.3-3.3-0.6l-1.3,0.9c-1.1,0.7-1.3,2.2-0.6,3.3l-1.8-2.6
			c-0.7-1.1-2.2-1.3-3.3-0.6l-1.3,0.9c-1.1,0.7-1.3,2.2-0.6,3.3L46,36.9c-0.7-1.1-2.2-1.3-3.3-0.6l-1.3,0.9
			c-1.1,0.7-1.3,2.2-0.6,3.3l-6.2-9c-0.7-1.1-2.2-1.3-3.3-0.6L30,31.8c-1.1,0.7-1.3,2.2-0.6,3.3l13.5,19.5l1.1,1.5
			c0.6,0.8,1.3,1.8,1.6,2.3c0.7,1,0.7,2.3-0.9,1.7l0,0l-6.4-2.2c-1.2-0.4-2.6,0.2-3,1.4l-0.5,1.5c-0.4,1.2,0.2,2.6,1.4,3l5.7,2l0,0
			l13.9,5.7l16.2-11.2c0,0-1.7-8.1-3.3-12.1S64.1,40.9,64.1,40.9z"/>
		<line class="st0" x1="40.8" y1="40.5" x2="47.1" y2="49.6"/>
		<line class="st0" x1="48.7" y1="40.8" x2="52.3" y2="46"/>
		<line class="st0" x1="55.6" y1="39.8" x2="58.6" y2="44"/>
	</g>
	<path class="st0" d="M40.2,35.2c0.5-1.2,0.8-2.5,0.8-3.9c0-5.5-4.5-10-10-10s-10,4.5-10,10s4.5,10,10,10"/>
	<g>
		<path class="st1" d="M46.1,33.8c0.1-0.8,0.2-1.7,0.2-2.5c0-3.2-1-6.1-2.6-8.6"/>
		<path class="st1" d="M22.2,43.9c2.5,1.7,5.5,2.7,8.7,2.7c0.9,0,1.8-0.1,2.7-0.2"/>
		<path class="st1" d="M15.7,29.3c-0.1,0.6-0.1,1.3-0.1,2c0,3.7,1.3,7,3.4,9.7"/>
		<path class="st1" d="M24.9,17.1c-3.8,1.6-6.8,4.6-8.3,8.4"/>
		<path class="st1" d="M41,19.6c-2.7-2.3-6.2-3.7-10-3.7c-0.7,0-1.4,0-2,0.1"/>
	</g>
</g>
</svg>
