<?xml version="1.0" encoding="utf-8"?>
<!-- Generator: Adobe Illustrator 23.0.3, SVG Export Plug-In . SVG Version: 6.00 Build 0)  -->
<svg version="1.1" id="Layer_1" xmlns="http://www.w3.org/2000/svg" xmlns:xlink="http://www.w3.org/1999/xlink" x="0px" y="0px"
	 width="140px" height="140px" viewBox="0 0 140 140" style="enable-background:new 0 0 140 140;" xml:space="preserve">
<style type="text/css">
	.st0{fill:#323232;}
	.st1{fill:#020202;}
	.st2{fill:#73D7E3;}
	.st3{fill:#E19501;}
	.st4{fill:#FFC207;}
	.st5{fill:#DBDBDB;}
	.st6{fill:#F4F4F4;}
	.st7{fill:#DCDCDC;}
	.st8{fill:#FFB200;}
	.st9{fill:#B3B3B3;}
	.st10{fill:#F5F5F5;}
	.st11{fill:#FFFFFF;}
	.st12{fill:#F9F9F9;}
	.st13{fill:#343434;}
</style>
<g>
	<g>
		<path class="st0" d="M83.1,65.9l-72.6,42.9c-0.8,0.4-2.5-0.6-2.5-1.4V49.5c0-1.5,0.8-2.9,2.1-3.6L83.5,3.4c0.8-0.4,1.7,0.1,1.7,1
			v57.9C85.2,63.8,84.4,65.1,83.1,65.9z"/>
		<path class="st1" d="M84.3,66.3l-73.4,42.4c-0.8,0.4-1.7-0.1-1.7-1V49.8c0-1.5,0.8-2.9,2.1-3.6L84.7,3.8c0.8-0.4,1.7,0.1,1.7,1
			v57.9C86.4,64.1,85.6,65.5,84.3,66.3z"/>
		<polygon class="st2" points="82.5,60.6 13.1,100.8 13.1,49.7 82.5,9.6 		"/>
	</g>
	<g>
		<g>
			<polygon class="st3" points="47.5,8.3 23,38.7 23,72.2 24.2,73 73.2,44.8 73.2,11.2 72,10.4 			"/>
			<polygon class="st4" points="73.2,11.2 48.7,9.2 24.2,39.5 45.4,43.1 52.7,39.4 73.2,13 			"/>
		</g>
		<g>
			<polygon class="st5" points="27.7,29.3 27.7,56.7 29.1,57.2 67.8,33.6 69.2,6.6 67.8,6.1 			"/>
			<polygon class="st6" points="29.1,29.7 29.1,57.2 69.2,34.1 69.2,6.6 			"/>
			<polygon class="st7" points="31.2,50.6 31.2,52.1 67.2,31.3 67.2,29.8 			"/>
			<polygon class="st7" points="31.2,45.9 31.2,47.4 67.2,26.7 67.2,25.1 			"/>
			<polygon class="st7" points="31.2,41.3 31.2,42.8 67.2,22 67.2,20.5 			"/>
			<polygon class="st7" points="31.2,36.6 31.2,38.1 67.2,17.3 67.2,15.8 			"/>
		</g>
		<polygon class="st8" points="24.2,39.5 24.2,73 73.2,44.8 73.2,11.2 52.7,39.4 45.4,43.1 		"/>
		<polygon class="st4" points="24.2,73 73.2,44.8 48.7,38.4 		"/>
	</g>
	<g>
		<path class="st9" d="M58.5,136.7l75.1-43.5c0.6-0.4,0.5-2.7,0.5-2.7L86.4,64.2c-0.8-0.5-1.7-0.4-2.5,0l-73.6,43.7
			c0,0-0.2,2.2,0.5,2.6L56,136.7C56.8,137.2,57.7,137.2,58.5,136.7z"/>
		<path class="st10" d="M58.5,135l75.1-43.5c0.6-0.4,0.6-1.3,0-1.7L87.5,63.1c-0.8-0.4-1.7-0.4-2.4,0l-74.3,44
			c-0.6,0.4-0.6,1.3,0,1.6L56,135C56.8,135.5,57.7,135.5,58.5,135z"/>
		<path class="st11" d="M84,118.2l20.8-12c0.4-0.3,0.4-0.9,0-1.1l-12.4-7.2c-0.3-0.2-0.8-0.2-1.1,0l-21.1,12.5
			c-0.2,0.1-0.2,0.4,0,0.5l12.8,7.4C83.2,118.4,83.7,118.4,84,118.2z"/>
		<g>
			<path class="st12" d="M114.6,83.1l-72.4,41.8c-0.3,0.2-0.8,0.2-1.1,0l-27.5-15.8c-0.8-0.4-0.8-1.5,0-2L86,65.4
				c0.3-0.2,0.8-0.2,1.1,0l27.5,15.8C115.4,81.6,115.4,82.7,114.6,83.1z"/>
			<path class="st13" d="M90.1,95.3l-27.2,15.7c-0.1,0.1-0.2,0.1-0.3,0l-3.5-2c-0.2-0.1-0.2-0.4,0-0.5l27.2-15.7
				c0.1-0.1,0.2-0.1,0.3,0l3.5,2C90.3,94.9,90.3,95.2,90.1,95.3z"/>
			<path class="st13" d="M45.8,114.6l-9.5,5.5c-0.1,0.1-0.2,0.1-0.3,0l-3.5-2c-0.2-0.1-0.2-0.4,0-0.5l9.5-5.5c0.1-0.1,0.2-0.1,0.3,0
				l3.5,2C46,114.2,46,114.5,45.8,114.6z"/>
			<path class="st13" d="M38.6,113l-7.2,4.2c-0.1,0.1-0.2,0.1-0.3,0l-3.5-2c-0.2-0.1-0.2-0.4,0-0.5l7.2-4.2c0.1-0.1,0.2-0.1,0.3,0
				l3.5,2C38.8,112.6,38.8,112.8,38.6,113z"/>
			<path class="st13" d="M107.8,78.8l-9.6,5.6c-0.1,0.1-0.2,0.1-0.3,0l-3.5-2c-0.2-0.1-0.2-0.4,0-0.5l9.6-5.6c0.1-0.1,0.2-0.1,0.3,0
				l3.5,2C108,78.4,108,78.7,107.8,78.8z"/>
			<path class="st13" d="M109.3,84.1l-2.7,1.6c0,0-0.1,0-0.1,0l-1.3-0.7c-0.1,0-0.1-0.1,0-0.2l2.7-1.6c0,0,0.1,0,0.1,0l1.3,0.7
				C109.4,83.9,109.4,84,109.3,84.1z"/>
			<path class="st13" d="M107,82.8l-2.7,1.6c0,0-0.1,0-0.1,0l-1.3-0.7c-0.1,0-0.1-0.1,0-0.2l2.7-1.6c0,0,0.1,0,0.1,0l1.3,0.7
				C107.1,82.7,107.1,82.8,107,82.8z"/>
			<path class="st13" d="M113.3,81.7l-2.7,1.6c0,0-0.1,0-0.1,0l-1.3-0.7c-0.1,0-0.1-0.1,0-0.2l2.7-1.6c0,0,0.1,0,0.1,0l1.3,0.7
				C113.4,81.6,113.4,81.7,113.3,81.7z"/>
			<path class="st13" d="M105.6,86.1l-2.7,1.6c0,0-0.1,0-0.1,0l-1.3-0.7c-0.1,0-0.1-0.1,0-0.2l2.7-1.6c0,0,0.1,0,0.1,0l1.3,0.7
				C105.7,86,105.7,86.1,105.6,86.1z"/>
			<path class="st13" d="M45.3,121.2l-3.7,2.1c-0.1,0.1-0.2,0.1-0.3,0l-3.5-2c-0.2-0.1-0.2-0.4,0-0.5l3.7-2.1c0.1-0.1,0.2-0.1,0.3,0
				l3.5,2C45.5,120.8,45.5,121,45.3,121.2z"/>
			<path class="st13" d="M50.1,118.4l-3.7,2.1c-0.1,0.1-0.2,0.1-0.3,0l-3.5-2c-0.2-0.1-0.2-0.4,0-0.5l3.7-2.1c0.1-0.1,0.2-0.1,0.3,0
				l3.5,2C50.3,118,50.3,118.3,50.1,118.4z"/>
			<path class="st13" d="M55.2,115.5l-3.7,2.1c-0.1,0.1-0.2,0.1-0.3,0l-3.5-2c-0.2-0.1-0.2-0.4,0-0.5l3.7-2.1c0.1-0.1,0.2-0.1,0.3,0
				l3.5,2C55.4,115.1,55.4,115.4,55.2,115.5z"/>
			<path class="st13" d="M51.3,111.6l-3.7,2.1c-0.1,0.1-0.2,0.1-0.3,0l-3.5-2c-0.2-0.1-0.2-0.4,0-0.5l3.7-2.1c0.1-0.1,0.2-0.1,0.3,0
				l3.5,2C51.5,111.2,51.5,111.5,51.3,111.6z"/>
			<path class="st13" d="M56.3,108.6l-3.7,2.1c-0.1,0.1-0.2,0.1-0.3,0l-3.5-2c-0.2-0.1-0.2-0.4,0-0.5l3.7-2.1c0.1-0.1,0.2-0.1,0.3,0
				l3.5,2C56.5,108.2,56.5,108.5,56.3,108.6z"/>
			<path class="st13" d="M61.4,105.7l-3.7,2.1c-0.1,0.1-0.2,0.1-0.3,0l-3.5-2c-0.2-0.1-0.2-0.4,0-0.5l3.7-2.1c0.1-0.1,0.2-0.1,0.3,0
				l3.5,2C61.6,105.3,61.6,105.6,61.4,105.7z"/>
			<path class="st13" d="M66.3,102.7l-3.7,2.1c-0.1,0.1-0.2,0.1-0.3,0l-3.5-2c-0.2-0.1-0.2-0.4,0-0.5l3.7-2.1c0.1-0.1,0.2-0.1,0.3,0
				l3.5,2C66.5,102.3,66.5,102.6,66.3,102.7z"/>
			<path class="st13" d="M71.5,100l-3.7,2.1c-0.1,0.1-0.2,0.1-0.3,0l-3.5-2c-0.2-0.1-0.2-0.4,0-0.5l3.7-2.1c0.1-0.1,0.2-0.1,0.3,0
				l3.5,2C71.7,99.6,71.7,99.8,71.5,100z"/>
			<path class="st13" d="M76.4,96.9l-3.7,2.1c-0.1,0.1-0.2,0.1-0.3,0l-3.5-2c-0.2-0.1-0.2-0.4,0-0.5l3.7-2.1c0.1-0.1,0.2-0.1,0.3,0
				l3.5,2C76.6,96.5,76.6,96.8,76.4,96.9z"/>
			<path class="st13" d="M81.4,94.2l-3.7,2.1c-0.1,0.1-0.2,0.1-0.3,0l-3.5-2c-0.2-0.1-0.2-0.4,0-0.5l3.7-2.1c0.1-0.1,0.2-0.1,0.3,0
				l3.5,2C81.6,93.8,81.6,94,81.4,94.2z"/>
			<path class="st13" d="M86.4,91.2l-3.7,2.1c-0.1,0.1-0.2,0.1-0.3,0l-3.5-2c-0.2-0.1-0.2-0.4,0-0.5l3.7-2.1c0.1-0.1,0.2-0.1,0.3,0
				l3.5,2C86.6,90.8,86.6,91.1,86.4,91.2z"/>
			<path class="st13" d="M91.6,88.4l-3.7,2.1c-0.1,0.1-0.2,0.1-0.3,0l-3.5-2c-0.2-0.1-0.2-0.4,0-0.5l3.7-2.1c0.1-0.1,0.2-0.1,0.3,0
				l3.5,2C91.8,88,91.8,88.3,91.6,88.4z"/>
			<path class="st13" d="M96.5,85.4l-3.7,2.1c-0.1,0.1-0.2,0.1-0.3,0l-3.5-2c-0.2-0.1-0.2-0.4,0-0.5l3.7-2.1c0.1-0.1,0.2-0.1,0.3,0
				l3.5,2C96.7,85,96.7,85.3,96.5,85.4z"/>
			<path class="st13" d="M43.5,110.3l-3.7,2.1c-0.1,0.1-0.2,0.1-0.3,0l-3.5-2c-0.2-0.1-0.2-0.4,0-0.5l3.7-2.1c0.1-0.1,0.2-0.1,0.3,0
				l3.5,2C43.7,109.9,43.7,110.1,43.5,110.3z"/>
			<path class="st13" d="M48.5,107.2l-3.7,2.1c-0.1,0.1-0.2,0.1-0.3,0l-3.5-2c-0.2-0.1-0.2-0.4,0-0.5l3.7-2.1c0.1-0.1,0.2-0.1,0.3,0
				l3.5,2C48.7,106.8,48.7,107.1,48.5,107.2z"/>
			<path class="st13" d="M53.6,104.4l-3.7,2.1c-0.1,0.1-0.2,0.1-0.3,0l-3.5-2c-0.2-0.1-0.2-0.4,0-0.5l3.7-2.1c0.1-0.1,0.2-0.1,0.3,0
				l3.5,2C53.8,104,53.8,104.3,53.6,104.4z"/>
			<path class="st13" d="M58.5,101.4l-3.7,2.1c-0.1,0.1-0.2,0.1-0.3,0l-3.5-2c-0.2-0.1-0.2-0.4,0-0.5l3.7-2.1c0.1-0.1,0.2-0.1,0.3,0
				l3.5,2C58.7,101,58.7,101.3,58.5,101.4z"/>
			<path class="st13" d="M63.7,98.6l-3.7,2.1c-0.1,0.1-0.2,0.1-0.3,0l-3.5-2c-0.2-0.1-0.2-0.4,0-0.5l3.7-2.1c0.1-0.1,0.2-0.1,0.3,0
				l3.5,2C63.9,98.2,63.9,98.5,63.7,98.6z"/>
			<path class="st13" d="M68.6,95.6L65,97.7c-0.1,0.1-0.2,0.1-0.3,0l-3.5-2c-0.2-0.1-0.2-0.4,0-0.5l3.7-2.1c0.1-0.1,0.2-0.1,0.3,0
				l3.5,2C68.8,95.2,68.8,95.5,68.6,95.6z"/>
			<path class="st13" d="M73.6,92.8L70,94.9c-0.1,0.1-0.2,0.1-0.3,0l-3.5-2c-0.2-0.1-0.2-0.4,0-0.5l3.7-2.1c0.1-0.1,0.2-0.1,0.3,0
				l3.5,2C73.8,92.4,73.8,92.7,73.6,92.8z"/>
			<path class="st13" d="M78.6,89.8L74.9,92c-0.1,0.1-0.2,0.1-0.3,0l-3.5-2c-0.2-0.1-0.2-0.4,0-0.5l3.7-2.1c0.1-0.1,0.2-0.1,0.3,0
				l3.5,2C78.8,89.4,78.8,89.7,78.6,89.8z"/>
			<path class="st13" d="M83.8,87l-3.7,2.1c-0.1,0.1-0.2,0.1-0.3,0l-3.5-2c-0.2-0.1-0.2-0.4,0-0.5l3.7-2.1c0.1-0.1,0.2-0.1,0.3,0
				l3.5,2C84,86.6,84,86.9,83.8,87z"/>
			<path class="st13" d="M88.7,84L85,86.1c-0.1,0.1-0.2,0.1-0.3,0l-3.5-2c-0.2-0.1-0.2-0.4,0-0.5l3.7-2.1c0.1-0.1,0.2-0.1,0.3,0
				l3.5,2C88.9,83.6,88.9,83.9,88.7,84z"/>
			<path class="st13" d="M93.7,81.2l-3.7,2.1c-0.1,0.1-0.2,0.1-0.3,0l-3.5-2c-0.2-0.1-0.2-0.4,0-0.5l3.7-2.1c0.1-0.1,0.2-0.1,0.3,0
				l3.5,2C93.9,80.8,93.9,81.1,93.7,81.2z"/>
			<path class="st13" d="M32.3,110.8l-6,3.4c-0.1,0.1-0.2,0.1-0.3,0l-3.5-2c-0.2-0.1-0.2-0.4,0-0.5l6-3.4c0.1-0.1,0.2-0.1,0.3,0
				l3.5,2C32.5,110.4,32.5,110.7,32.3,110.8z"/>
			<path class="st13" d="M37.1,108.1l-3.7,2.1c-0.1,0.1-0.2,0.1-0.3,0l-3.5-2c-0.2-0.1-0.2-0.4,0-0.5l3.7-2.1c0.1-0.1,0.2-0.1,0.3,0
				l3.5,2C37.3,107.7,37.3,108,37.1,108.1z"/>
			<path class="st13" d="M42.1,105.1l-3.7,2.1c-0.1,0.1-0.2,0.1-0.3,0l-3.5-2c-0.2-0.1-0.2-0.4,0-0.5l3.7-2.1c0.1-0.1,0.2-0.1,0.3,0
				l3.5,2C42.3,104.7,42.3,104.9,42.1,105.1z"/>
			<path class="st13" d="M47.2,102.2l-3.7,2.1c-0.1,0.1-0.2,0.1-0.3,0l-3.5-2c-0.2-0.1-0.2-0.4,0-0.5l3.7-2.1c0.1-0.1,0.2-0.1,0.3,0
				l3.5,2C47.4,101.8,47.4,102.1,47.2,102.2z"/>
			<path class="st13" d="M52.2,99.2l-3.7,2.1c-0.1,0.1-0.2,0.1-0.3,0l-3.5-2c-0.2-0.1-0.2-0.4,0-0.5l3.7-2.1c0.1-0.1,0.2-0.1,0.3,0
				l3.5,2C52.4,98.8,52.4,99.1,52.2,99.2z"/>
			<path class="st13" d="M57.3,96.4l-3.7,2.1c-0.1,0.1-0.2,0.1-0.3,0l-3.5-2c-0.2-0.1-0.2-0.4,0-0.5l3.7-2.1c0.1-0.1,0.2-0.1,0.3,0
				l3.5,2C57.5,96,57.5,96.3,57.3,96.4z"/>
			<path class="st13" d="M62.3,93.4l-3.7,2.1c-0.1,0.1-0.2,0.1-0.3,0l-3.5-2c-0.2-0.1-0.2-0.4,0-0.5l3.7-2.1c0.1-0.1,0.2-0.1,0.3,0
				l3.5,2C62.5,93,62.5,93.3,62.3,93.4z"/>
			<path class="st13" d="M67.3,90.6l-3.7,2.1c-0.1,0.1-0.2,0.1-0.3,0l-3.5-2c-0.2-0.1-0.2-0.4,0-0.5l3.7-2.1c0.1-0.1,0.2-0.1,0.3,0
				l3.5,2C67.5,90.2,67.5,90.5,67.3,90.6z"/>
			<path class="st13" d="M72.2,87.6l-3.7,2.1c-0.1,0.1-0.2,0.1-0.3,0l-3.5-2c-0.2-0.1-0.2-0.4,0-0.5l3.7-2.1c0.1-0.1,0.2-0.1,0.3,0
				l3.5,2C72.4,87.3,72.4,87.5,72.2,87.6z"/>
			<path class="st13" d="M77.4,84.9L73.7,87c-0.1,0.1-0.2,0.1-0.3,0l-3.5-2c-0.2-0.1-0.2-0.4,0-0.5l3.7-2.1c0.1-0.1,0.2-0.1,0.3,0
				l3.5,2C77.6,84.5,77.6,84.8,77.4,84.9z"/>
			<path class="st13" d="M82.4,81.8L78.7,84c-0.1,0.1-0.2,0.1-0.3,0l-3.5-2c-0.2-0.1-0.2-0.4,0-0.5l3.7-2.1c0.1-0.1,0.2-0.1,0.3,0
				l3.5,2C82.5,81.4,82.5,81.7,82.4,81.8z"/>
			<path class="st13" d="M87.4,79l-3.7,2.1c-0.1,0.1-0.2,0.1-0.3,0l-3.5-2c-0.2-0.1-0.2-0.4,0-0.5l3.7-2.1c0.1-0.1,0.2-0.1,0.3,0
				l3.5,2C87.6,78.6,87.6,78.9,87.4,79z"/>
			<path class="st13" d="M92.8,76l-3.7,2.1c-0.1,0.1-0.2,0.1-0.3,0l-3.5-2c-0.2-0.1-0.2-0.4,0-0.5l3.7-2.1c0.1-0.1,0.2-0.1,0.3,0
				l3.5,2C93,75.6,93,75.8,92.8,76z"/>
			<path class="st13" d="M97.8,73.1l-3.7,2.1c-0.1,0.1-0.2,0.1-0.3,0l-3.5-2c-0.2-0.1-0.2-0.4,0-0.5l3.7-2.1c0.1-0.1,0.2-0.1,0.3,0
				l3.5,2C98,72.7,98,73,97.8,73.1z"/>
			<path class="st13" d="M24.9,109.3l-3.7,2.1c-0.1,0.1-0.2,0.1-0.3,0l-3.5-2c-0.2-0.1-0.2-0.4,0-0.5l3.7-2.1c0.1-0.1,0.2-0.1,0.3,0
				l3.5,2C25.1,108.9,25.1,109.1,24.9,109.3z"/>
			<path class="st13" d="M29.9,106.2l-3.7,2.1c-0.1,0.1-0.2,0.1-0.3,0l-3.5-2c-0.2-0.1-0.2-0.4,0-0.5l3.7-2.1c0.1-0.1,0.2-0.1,0.3,0
				l3.5,2C30.1,105.8,30.1,106.1,29.9,106.2z"/>
			<path class="st13" d="M34.9,103.4l-3.7,2.1c-0.1,0.1-0.2,0.1-0.3,0l-3.5-2c-0.2-0.1-0.2-0.4,0-0.5l3.7-2.1c0.1-0.1,0.2-0.1,0.3,0
				l3.5,2C35.1,103,35.1,103.3,34.9,103.4z"/>
			<path class="st13" d="M39.9,100.4l-3.7,2.1c-0.1,0.1-0.2,0.1-0.3,0l-3.5-2c-0.2-0.1-0.2-0.4,0-0.5l3.7-2.1c0.1-0.1,0.2-0.1,0.3,0
				l3.5,2C40.1,100,40.1,100.3,39.9,100.4z"/>
			<path class="st13" d="M45.1,97.6l-3.7,2.1c-0.1,0.1-0.2,0.1-0.3,0l-3.5-2c-0.2-0.1-0.2-0.4,0-0.5l3.7-2.1c0.1-0.1,0.2-0.1,0.3,0
				l3.5,2C45.3,97.2,45.3,97.5,45.1,97.6z"/>
			<path class="st13" d="M50,94.6l-3.7,2.1c-0.1,0.1-0.2,0.1-0.3,0l-3.5-2c-0.2-0.1-0.2-0.4,0-0.5l3.7-2.1c0.1-0.1,0.2-0.1,0.3,0
				l3.5,2C50.2,94.2,50.2,94.5,50,94.6z"/>
			<path class="st13" d="M55,91.8l-3.7,2.1c-0.1,0.1-0.2,0.1-0.3,0l-3.5-2c-0.2-0.1-0.2-0.4,0-0.5l3.7-2.1c0.1-0.1,0.2-0.1,0.3,0
				l3.5,2C55.2,91.4,55.2,91.7,55,91.8z"/>
			<path class="st13" d="M60,88.8L56.3,91C56.2,91,56.1,91,56,91l-3.5-2c-0.2-0.1-0.2-0.4,0-0.5l3.7-2.1c0.1-0.1,0.2-0.1,0.3,0
				l3.5,2C60.2,88.4,60.2,88.7,60,88.8z"/>
			<path class="st13" d="M65.1,86.1l-3.7,2.1c-0.1,0.1-0.2,0.1-0.3,0l-3.5-2c-0.2-0.1-0.2-0.4,0-0.5l3.7-2.1c0.1-0.1,0.2-0.1,0.3,0
				l3.5,2C65.3,85.7,65.3,85.9,65.1,86.1z"/>
			<path class="st13" d="M70.1,83l-3.7,2.1c-0.1,0.1-0.2,0.1-0.3,0l-3.5-2c-0.2-0.1-0.2-0.4,0-0.5l3.7-2.1c0.1-0.1,0.2-0.1,0.3,0
				l3.5,2C70.3,82.6,70.3,82.9,70.1,83z"/>
			<path class="st13" d="M75.1,80.2l-3.7,2.1c-0.1,0.1-0.2,0.1-0.3,0l-3.5-2c-0.2-0.1-0.2-0.4,0-0.5l3.7-2.1c0.1-0.1,0.2-0.1,0.3,0
				l3.5,2C75.3,79.8,75.3,80.1,75.1,80.2z"/>
			<path class="st13" d="M80.5,77.1l-3.7,2.1c-0.1,0.1-0.2,0.1-0.3,0l-3.5-2c-0.2-0.1-0.2-0.4,0-0.5l3.7-2.1c0.1-0.1,0.2-0.1,0.3,0
				l3.5,2C80.7,76.7,80.7,77,80.5,77.1z"/>
			<path class="st13" d="M85.5,74.3l-3.7,2.1c-0.1,0.1-0.2,0.1-0.3,0l-3.5-2c-0.2-0.1-0.2-0.4,0-0.5l3.7-2.1c0.1-0.1,0.2-0.1,0.3,0
				l3.5,2C85.7,73.9,85.7,74.2,85.5,74.3z"/>
			<path class="st13" d="M92.3,70.2l-5.7,3.2c-0.1,0.1-0.2,0.1-0.3,0l-3.5-2c-0.2-0.1-0.2-0.4,0-0.5l5.7-3.2c0.1-0.1,0.2-0.1,0.3,0
				l3.5,2C92.5,69.8,92.5,70.1,92.3,70.2z"/>
			<path class="st13" d="M102.7,76l-7.2,4.2c-0.1,0.1-0.2,0.1-0.3,0l-3.5-2c-0.2-0.1-0.2-0.4,0-0.5l7.2-4.2c0.1-0.1,0.2-0.1,0.3,0
				l3.5,2C102.9,75.6,102.9,75.9,102.7,76z"/>
			<path class="st13" d="M101.4,88.8l-3.7,2.1c-0.1,0.1-0.2,0.1-0.3,0l-3.5-2c-0.2-0.1-0.2-0.4,0-0.5l3.7-2.1c0.1-0.1,0.2-0.1,0.3,0
				l3.5,2C101.6,88.4,101.6,88.7,101.4,88.8z"/>
			<path class="st13" d="M61.2,112l-4.6,2.7c-0.1,0.1-0.2,0.1-0.3,0l-3.5-2c-0.2-0.1-0.2-0.4,0-0.5l4.6-2.7c0.1-0.1,0.2-0.1,0.3,0
				l3.5,2C61.4,111.6,61.4,111.9,61.2,112z"/>
			<path class="st13" d="M96.3,91.8l-4.6,2.7c-0.1,0.1-0.2,0.1-0.3,0l-3.5-2c-0.2-0.1-0.2-0.4,0-0.5l4.6-2.7c0.1-0.1,0.2-0.1,0.3,0
				l3.5,2C96.5,91.4,96.5,91.7,96.3,91.8z"/>
		</g>
	</g>
</g>
</svg>
