<?xml version="1.0" encoding="utf-8"?>
<!-- Generator: Adobe Illustrator 24.0.0, SVG Export Plug-In . SVG Version: 6.00 Build 0)  -->
<svg version="1.1" id="Layer_1" xmlns="http://www.w3.org/2000/svg" xmlns:xlink="http://www.w3.org/1999/xlink" x="0px" y="0px"
	 width="140px" height="140px" viewBox="0 0 140 140" style="enable-background:new 0 0 140 140;" xml:space="preserve">
<style type="text/css">
	.st0{opacity:0.5;fill:url(#SVGID_1_);}
	.st1{fill:#8CAFD1;}
	.st2{fill:#2962A5;}
	.st3{fill:#FFFFFF;}
	.st4{fill:#828E96;}
	.st5{fill:#273842;}
	.st6{fill:#4BBEA8;}
	.st7{fill:#B7E5DC;}
</style>
<linearGradient id="SVGID_1_" gradientUnits="userSpaceOnUse" x1="-407.2736" y1="98.1617" x2="-382.3694" y2="125.4539" gradientTransform="matrix(-1 0 0 1 -309.2335 0)">
	<stop  offset="0" style="stop-color:#6D6E70;stop-opacity:0"/>
	<stop  offset="1" style="stop-color:#6D6E70;stop-opacity:0.7"/>
</linearGradient>
<path class="st0" d="M46.7,101.7L75,85l54.3,31.8l-30.6,17.8c-0.8,0.4-1.7,0.4-2.5,0L46.7,106C45,105,45,102.6,46.7,101.7z"/>
<g>
	<g>
		<polygon class="st1" points="46.2,6.9 44,8.2 44.2,99.6 102.8,133.7 104.8,132.5 104.8,41 		"/>
	</g>
	<g>
		<polygon class="st2" points="44,8.2 44.2,99.6 102.8,133.7 102.6,42.3 		"/>
	</g>
	<g>
		<polygon class="st3" points="49,18 49.2,96 97.7,124.2 97.5,46.1 		"/>
	</g>
	<path class="st4" d="M84.6,33.1c0-1-0.4-2.2-1.1-3.3c-0.7-1.1-1.6-2.1-2.7-2.7l-6.1-3.5c0-1.8-1.5-4.2-3.3-5.2
		c-1.8-1.1-3.3-0.4-3.3,1.4L62,16.2c-2.1-1.2-3.8-0.5-3.8,1.6v7.1l26.4,15.3V33.1z"/>
	<g>
		<polygon class="st5" points="53.7,73.3 53.8,77.8 93,100.6 92.9,96.1 		"/>
	</g>
	<g>
		<polygon class="st5" points="53.7,83.9 53.8,88.4 74.5,100.4 74.3,95.9 		"/>
	</g>
	<g>
		<polygon class="st5" points="53.7,62.7 53.8,67.2 93,89.9 92.9,85.5 		"/>
	</g>
	<g>
		<polygon class="st6" points="53.7,27.7 53.8,54.6 93,77.4 92.9,50.5 		"/>
	</g>
	<g>
		<polygon class="st7" points="58.2,49 58.3,57.3 61.8,59.3 61.7,51 		"/>
	</g>
	<g>
		<polygon class="st7" points="65.7,48.2 65.8,61.5 69.3,63.6 69.2,50.3 		"/>
	</g>
	<g>
		<polygon class="st7" points="73.4,55.7 73.5,66 77,68 76.9,57.7 		"/>
	</g>
	<g>
		<polygon class="st7" points="81,51 81.1,70.3 84.6,72.4 84.5,53.1 		"/>
	</g>
</g>
<path class="st5" d="M74.9,37.7c-6.5-0.2-12.3,7.8-12.3,7.8s-1.2-3.7-3.5-5.8c0,0,2.7,1.2,3.9,3.5C64.4,41.1,70.1,36.5,74.9,37.7z"
	/>
</svg>
