<?xml version="1.0" encoding="utf-8"?>
<!-- Generator: Adobe Illustrator 23.0.3, SVG Export Plug-In . SVG Version: 6.00 Build 0)  -->
<svg version="1.1" id="Layer_1" xmlns="http://www.w3.org/2000/svg" xmlns:xlink="http://www.w3.org/1999/xlink" x="0px" y="0px"
	 width="140px" height="140px" viewBox="0 0 140 140" style="enable-background:new 0 0 140 140;" xml:space="preserve">
<style type="text/css">
	.st0{opacity:0.3;fill:#4D4D4F;enable-background:new    ;}
	.st1{fill:#FF8875;}
	.st2{fill:#FA9C93;}
	.st3{fill:none;stroke:#4BBEA8;stroke-width:0.1865;stroke-miterlimit:10;}
	.st4{fill:#DF643C;}
	.st5{fill:#231F20;}
	.st6{fill:#FFFFFF;}
	.st7{fill:#FEA9A7;}
	.st8{enable-background:new    ;}
	.st9{clip-path:url(#SVGID_2_);enable-background:new    ;}
	.st10{fill:#3C9886;}
	.st11{fill:#3B9483;}
	.st12{fill:#399080;}
	.st13{fill:#388D7C;}
	.st14{fill:#368979;}
	.st15{fill:#358576;}
	.st16{fill:#338172;}
	.st17{fill:#327D6F;}
	.st18{fill:#307A6C;}
	.st19{fill:#2F7668;}
	.st20{fill:#2D7265;}
	.st21{fill:#2C6E61;}
	.st22{fill:#2A6A5E;}
	.st23{fill:#29675B;}
	.st24{fill:#276357;}
	.st25{fill:#1765A1;}
	.st26{fill:#0E3F64;}
	.st27{clip-path:url(#SVGID_4_);enable-background:new    ;}
	.st28{fill:#165E96;}
	.st29{fill:#155B92;}
	.st30{fill:#15598E;}
	.st31{fill:#14578A;}
	.st32{fill:#135487;}
	.st33{fill:#135283;}
	.st34{fill:#12507F;}
	.st35{fill:#124D7B;}
	.st36{fill:#114B78;}
	.st37{fill:#114974;}
	.st38{fill:#104670;}
	.st39{fill:#10446C;}
	.st40{fill:#0F4269;}
	.st41{fill:#0F3F65;}
	.st42{fill:#0E3D61;}
	.st43{clip-path:url(#SVGID_6_);enable-background:new    ;}
	.st44{clip-path:url(#SVGID_8_);enable-background:new    ;}
	.st45{clip-path:url(#SVGID_10_);enable-background:new    ;}
	.st46{clip-path:url(#SVGID_12_);enable-background:new    ;}
	.st47{clip-path:url(#SVGID_14_);enable-background:new    ;}
	.st48{fill:#10466F;}
	.st49{clip-path:url(#SVGID_16_);enable-background:new    ;}
	.st50{clip-path:url(#SVGID_18_);enable-background:new    ;}
	.st51{clip-path:url(#SVGID_20_);enable-background:new    ;}
	.st52{clip-path:url(#SVGID_22_);enable-background:new    ;}
	.st53{clip-path:url(#SVGID_24_);enable-background:new    ;}
	.st54{fill:#F6921E;}
	.st55{fill:#FFBA00;}
	.st56{clip-path:url(#SVGID_26_);enable-background:new    ;}
	.st57{clip-path:url(#SVGID_30_);enable-background:new    ;}
	.st58{clip-path:url(#SVGID_32_);enable-background:new    ;}
</style>
<ellipse transform="matrix(1.607326e-02 -0.9999 0.9999 1.607326e-02 -52.1095 178.8493)" class="st0" cx="64.8" cy="115.9" rx="17.8" ry="46.3"/>
<g>
	<path class="st1" d="M115.5,44.3c2.2,0.4,6.9,2.1,6.5,4s-3.3,1.5-3.3,1.5L115.5,44.3z"/>
	<path class="st1" d="M63.1,129.9c0,2.1,4.2,3.8,9.3,3.8s9.3-1.7,9.3-3.8l1.7-11.6l-22.2,0.3L63.1,129.9z"/>
	<path class="st1" d="M94.8,115.3c0,2.1,2.9,3.8,6.5,3.8s6.5-1.7,6.5-3.8l1.2-11.6L93.5,104L94.8,115.3z"/>
	<path class="st1" d="M42.6,117.9c0,2.1,2.9,3.8,6.5,3.8s6.5-1.7,6.5-3.8l1.2-11.6l-15.4,0.3L42.6,117.9z"/>
	
		<ellipse transform="matrix(0.8646 -0.5025 0.5025 0.8646 -27.1236 47.5801)" class="st2" cx="74.7" cy="74.1" rx="51.2" ry="45.4"/>
	<path class="st1" d="M51.8,110.9c1.6-5.8-3.2-16-10.7-21.7c-4.4-3.3-8.7-4.7-11.8-4.1l-6.8,3.7l21.7,26.7L51.8,110.9z"/>
	<path class="st3" d="M40.2,106.5c-1.3,0-2.6-1.8-2.8-4.1c-0.1-1.1,0-2,0.3-2.8l0,0c1.3,0,2.6,1.8,2.8,4.1
		C40.6,104.8,40.5,105.7,40.2,106.5z"/>
	<path class="st3" d="M30.4,101.2c-1.3,0-2.6-1.8-2.8-4.1c-0.1-1.1,0-2,0.3-2.8l0,0c1.3,0,2.6,1.8,2.8,4.1
		C30.9,99.5,30.7,100.5,30.4,101.2z"/>
	<path class="st4" d="M65.9,46.2c1.5-1,6.6-5.9,11.7-8.4c5-2.5,9.2-3.8,10.3-4.3c1.1-0.4,0.6-2.1-2.7-1.9c-3.3,0.3-9.3,2.7-13.4,5.1
		s-8.4,6.2-9.3,6.9c-1,0.7-1.3,2.5-0.1,2.9S65,46.8,65.9,46.2z"/>
	<circle class="st5" cx="53.3" cy="83.3" r="4.1"/>
	<circle class="st6" cx="52.3" cy="81.3" r="1.2"/>
	<ellipse transform="matrix(0.325 -0.9457 0.9457 0.325 -45.5953 76.8837)" class="st5" cx="31.1" cy="70.4" rx="4.2" ry="2.3"/>
	<ellipse transform="matrix(0.325 -0.9457 0.9457 0.325 -44.1941 76.8889)" class="st6" cx="31.8" cy="69.4" rx="1.2" ry="0.7"/>
	<path class="st1" d="M84.1,84.9c0,0,1.2-11.8-4.7-21.9c-6-10.1-10.7-8.9-13.9-2.5C77,72,84.1,84.9,84.1,84.9z"/>
	<path class="st4" d="M67.7,62.7c5,5.1,11.2,13.8,14,18.1c0,0,0-9.2-3.7-16.6C74.2,56.8,71.7,56.8,67.7,62.7z"/>
	<path class="st7" d="M84.1,84.9c0,0,1.2-11.8-4.7-21.9c-3.9-6.6-7.3-8.4-10-7c0,0,9.5-7,16.3,3.3S89.5,81.4,84.1,84.9z"/>
	<path class="st1" d="M45.8,49.5c0,0-13.3-20.9-19.5-19.1c-5.1,1.5,5.5,24.5,5.5,24.5S34.7,47.4,45.8,49.5z"/>
	<path class="st4" d="M33,53c1.5-1.8,4.5-4.1,10.1-3.8c0,0-10.3-16.8-14.1-15.8C25.2,34.3,33,53,33,53z"/>
	<path class="st7" d="M45.8,49.5c0,0-13.3-20.9-19.5-19.1c0,0,4.7-8.3,22.2,7.5C49.7,42.8,50,44.6,45.8,49.5z"/>
	<g>
		<g class="st8">
			<g class="st8">
				<g>
					<defs>
						<path id="SVGID_1_" d="M74.3,34.7c4.1-2.4,7.5-8.2,7.4-12.9c0.7,0.4,1.3,0.8,2,1.2c0,4.7-3.3,10.5-7.4,12.9
							C75.7,35.6,74.9,35.1,74.3,34.7z"/>
					</defs>
					<clipPath id="SVGID_2_">
						<use xlink:href="#SVGID_1_"  style="overflow:visible;"/>
					</clipPath>
					<g class="st9">
						<path class="st10" d="M76.4,35.9l-2-1.2c0.9-0.5,1.7-1.2,2.5-1.9l2,1.2C78.1,34.7,77.2,35.4,76.4,35.9"/>
						<path class="st11" d="M78.9,34l-2-1.2c0.3-0.3,0.6-0.6,0.8-0.9l2,1.2C79.4,33.4,79.1,33.7,78.9,34"/>
						<path class="st12" d="M79.7,33.1l-2-1.2c0.2-0.2,0.4-0.5,0.6-0.7l2,1.2C80.1,32.6,79.9,32.9,79.7,33.1"/>
						<path class="st13" d="M80.3,32.4l-2-1.2c0.2-0.2,0.3-0.4,0.5-0.7l2,1.2C80.6,31.9,80.4,32.1,80.3,32.4"/>
						<path class="st14" d="M80.8,31.7l-2-1.2c0.1-0.2,0.3-0.4,0.4-0.6l2,1.2C81.1,31.3,80.9,31.5,80.8,31.7"/>
						<path class="st15" d="M81.2,31l-2-1.2c0.1-0.2,0.3-0.4,0.4-0.6l2,1.2C81.5,30.6,81.3,30.8,81.2,31"/>
						<path class="st16" d="M81.6,30.4l-2-1.2c0.1-0.2,0.2-0.4,0.4-0.6l2,1.2C81.8,30,81.7,30.2,81.6,30.4"/>
						<path class="st17" d="M81.9,29.8l-2-1.2c0.1-0.2,0.2-0.4,0.3-0.6l2,1.2C82.2,29.4,82.1,29.6,81.9,29.8"/>
						<path class="st18" d="M82.3,29.2l-2-1.2c0.1-0.2,0.2-0.4,0.3-0.6l2,1.2C82.5,28.7,82.4,28.9,82.3,29.2"/>
						<path class="st19" d="M82.6,28.5l-2-1.2c0.1-0.2,0.2-0.4,0.3-0.7l2,1.2C82.7,28.1,82.7,28.3,82.6,28.5"/>
						<path class="st20" d="M82.8,27.8l-2-1.2c0.1-0.2,0.2-0.5,0.3-0.7l2,1.2C83,27.4,82.9,27.6,82.8,27.8"/>
						<path class="st21" d="M83.1,27.1l-2-1.2c0.1-0.3,0.2-0.5,0.2-0.8l2,1.2C83.2,26.6,83.2,26.9,83.1,27.1"/>
						<path class="st22" d="M83.3,26.4l-2-1.2c0.1-0.3,0.1-0.6,0.2-0.9l2,1.2C83.5,25.8,83.4,26.1,83.3,26.4"/>
						<path class="st23" d="M83.5,25.5l-2-1.2c0.1-0.3,0.1-0.7,0.2-1l2,1.2C83.7,24.8,83.6,25.2,83.5,25.5"/>
						<path class="st24" d="M83.7,24.5l-2-1.2c0.1-0.5,0.1-1,0.1-1.5c0-2.4-0.8-4-2.2-4.8l2,1.2c1.3,0.8,2.2,2.4,2.2,4.8
							C83.8,23.5,83.8,24,83.7,24.5"/>
					</g>
				</g>
			</g>
			<g>
				<polygon class="st25" points="75.6,34.9 73.6,33.7 75,32.9 77,34.1 				"/>
			</g>
			<g>
				<polygon class="st26" points="77,34.1 75,32.9 75,31.2 77,32.4 				"/>
			</g>
			<g>
				<polygon points="75.6,34.9 73.6,33.7 73.6,32.1 75.6,33.3 				"/>
			</g>
			<g class="st8">
				<g>
					<defs>
						<path id="SVGID_3_" d="M77.6,26.6c0-0.8-0.2-1.3-0.7-1.6l2,1.2c0.5,0.3,0.7,0.8,0.7,1.6c0,1.5-0.9,3.3-2.6,4.6l-2-1.2
							C76.7,29.9,77.6,28.1,77.6,26.6z"/>
					</defs>
					<clipPath id="SVGID_4_">
						<use xlink:href="#SVGID_3_"  style="overflow:visible;"/>
					</clipPath>
					<g class="st27">
						<path class="st28" d="M77,32.4l-2-1.2c0.2-0.2,0.5-0.4,0.7-0.6l2,1.2C77.5,32,77.3,32.2,77,32.4"/>
						<path class="st29" d="M77.7,31.8l-2-1.2c0.1-0.1,0.3-0.3,0.4-0.4l2,1.2C78,31.5,77.9,31.6,77.7,31.8"/>
						<path class="st30" d="M78.1,31.4l-2-1.2c0.1-0.1,0.2-0.2,0.3-0.3l2,1.2C78.3,31.2,78.2,31.3,78.1,31.4"/>
						<path class="st31" d="M78.4,31.1l-2-1.2c0.1-0.1,0.1-0.2,0.2-0.3l2,1.2C78.5,30.9,78.4,31,78.4,31.1"/>
						<path class="st32" d="M78.6,30.8l-2-1.2c0.1-0.1,0.1-0.2,0.2-0.2l2,1.2C78.7,30.6,78.6,30.7,78.6,30.8"/>
						<path class="st33" d="M78.7,30.5l-2-1.2c0-0.1,0.1-0.2,0.1-0.2l2,1.2C78.8,30.4,78.8,30.5,78.7,30.5"/>
						<path class="st34" d="M78.9,30.3l-2-1.2c0-0.1,0.1-0.1,0.1-0.2l2,1.2C79,30.2,78.9,30.2,78.9,30.3"/>
						<path class="st35" d="M79,30.1l-2-1.2c0-0.1,0.1-0.1,0.1-0.2l2,1.2C79.1,29.9,79,30,79,30.1"/>
						<path class="st36" d="M79.1,29.9l-2-1.2c0-0.1,0.1-0.1,0.1-0.2l2,1.2C79.2,29.7,79.1,29.8,79.1,29.9"/>
						<path class="st37" d="M79.2,29.7l-2-1.2c0-0.1,0.1-0.1,0.1-0.2l2,1.2C79.3,29.5,79.2,29.6,79.2,29.7"/>
						<path class="st38" d="M79.3,29.4l-2-1.2c0-0.1,0.1-0.2,0.1-0.2l2,1.2C79.3,29.3,79.3,29.4,79.3,29.4"/>
						<path class="st39" d="M79.4,29.2l-2-1.2c0-0.1,0.1-0.2,0.1-0.3l2,1.2C79.4,29,79.4,29.1,79.4,29.2"/>
						<path class="st40" d="M79.5,29l-2-1.2c0-0.1,0.1-0.2,0.1-0.3l2,1.2C79.5,28.8,79.5,28.9,79.5,29"/>
						<path class="st41" d="M79.5,28.7l-2-1.2c0-0.1,0-0.2,0.1-0.4l2,1.2C79.6,28.4,79.5,28.5,79.5,28.7"/>
						<path class="st42" d="M79.6,28.3l-2-1.2c0-0.2,0-0.3,0-0.5c0-0.8-0.2-1.3-0.7-1.6l2,1.2c0.5,0.3,0.7,0.8,0.7,1.6
							C79.6,28,79.6,28.1,79.6,28.3"/>
					</g>
				</g>
			</g>
			<g class="st8">
				<g>
					<defs>
						<path id="SVGID_5_" d="M73.1,34l-2-1.2c0.6,0,1.5-0.2,2.5-0.7l2,1.2C74.6,33.8,73.7,34.1,73.1,34z"/>
					</defs>
					<clipPath id="SVGID_6_">
						<use xlink:href="#SVGID_5_"  style="overflow:visible;"/>
					</clipPath>
					<g class="st43">
						<path class="st33" d="M73.1,34l-2-1.2l0,0L73.1,34C73.2,34,73.1,34,73.1,34"/>
						<path class="st32" d="M73.2,34l-2-1.2c0.1,0,0.1,0,0.2,0l2,1.2C73.3,34,73.2,34,73.2,34"/>
						<path class="st31" d="M73.4,34l-2-1.2c0.1,0,0.2,0,0.3,0l2,1.2C73.6,34,73.5,34,73.4,34"/>
						<path class="st30" d="M73.7,34l-2-1.2c0.2,0,0.3-0.1,0.5-0.1l2,1.2C74,33.9,73.8,34,73.7,34"/>
						<path class="st29" d="M74.2,33.9l-2-1.2c0.2-0.1,0.5-0.2,0.8-0.3l2,1.2C74.7,33.7,74.4,33.8,74.2,33.9"/>
						<path class="st28" d="M75,33.6l-2-1.2c0.2-0.1,0.4-0.2,0.7-0.3l2,1.2C75.4,33.4,75.2,33.5,75,33.6"/>
					</g>
				</g>
			</g>
			<g class="st8">
				<g>
					<defs>
						<path id="SVGID_7_" d="M75.1,27.6l2,1.2c0.2,0.1,0.3,0.3,0.3,0.5c0,0.7-0.6,1.4-1.4,1.8c-0.9,0.5-1.8,0.7-2.4,0.7l-2-1.2
							c0.6,0,1.5-0.1,2.4-0.7c0.8-0.5,1.4-1.2,1.4-1.8C75.4,27.9,75.3,27.7,75.1,27.6z"/>
					</defs>
					<clipPath id="SVGID_8_">
						<use xlink:href="#SVGID_7_"  style="overflow:visible;"/>
					</clipPath>
					<g class="st44">
						<path d="M73.6,31.8l-2-1.2c0.1,0,0.2,0,0.3,0l2,1.2C73.8,31.8,73.7,31.8,73.6,31.8"/>
						<path d="M73.9,31.8l-2-1.2c0.1,0,0.3,0,0.4,0l2,1.2C74.1,31.8,74,31.8,73.9,31.8"/>
						<path d="M74.3,31.8l-2-1.2c0.2,0,0.3-0.1,0.5-0.1l2,1.2C74.6,31.7,74.4,31.8,74.3,31.8"/>
						<path d="M74.8,31.7l-2-1.2c0.2-0.1,0.4-0.1,0.6-0.2l2,1.2C75.1,31.6,74.9,31.6,74.8,31.7"/>
						<path d="M75.3,31.5l-2-1.2c0.2-0.1,0.4-0.2,0.6-0.3c0.3-0.2,0.5-0.4,0.8-0.6l2,1.2c-0.2,0.2-0.5,0.4-0.8,0.6
							C75.8,31.3,75.5,31.4,75.3,31.5"/>
						<path d="M76.7,30.6l-2-1.2c0.1-0.1,0.1-0.1,0.1-0.2l2,1.2C76.8,30.5,76.8,30.5,76.7,30.6"/>
						<path d="M76.9,30.4l-2-1.2l0.1-0.1l2,1.2C77,30.4,76.9,30.4,76.9,30.4"/>
						<path d="M77,30.3l-2-1.2c0,0,0-0.1,0.1-0.1L77,30.3L77,30.3"/>
						<path d="M77.1,30.2l-2-1.2c0,0,0-0.1,0.1-0.1L77.1,30.2L77.1,30.2"/>
						<path d="M77.1,30.1l-2-1.2c0,0,0,0,0-0.1L77.1,30.1L77.1,30.1"/>
						<path d="M77.2,30.1l-2-1.2c0,0,0,0,0-0.1L77.2,30.1C77.2,30,77.2,30.1,77.2,30.1"/>
						<path d="M77.2,30l-2-1.2c0,0,0,0,0-0.1L77.2,30L77.2,30"/>
						<path d="M77.2,29.9l-2-1.2c0,0,0,0,0-0.1L77.2,29.9L77.2,29.9"/>
						<path d="M77.3,29.9l-2-1.2c0,0,0,0,0-0.1L77.3,29.9C77.3,29.8,77.3,29.9,77.3,29.9"/>
						<path d="M77.3,29.8l-2-1.2c0,0,0,0,0-0.1L77.3,29.8L77.3,29.8"/>
						<path d="M77.3,29.7l-2-1.2c0,0,0,0,0-0.1L77.3,29.7L77.3,29.7"/>
						<path d="M77.3,29.7l-2-1.2v-0.1L77.3,29.7C77.3,29.6,77.3,29.6,77.3,29.7"/>
						<path d="M77.4,29.6l-2-1.2v-0.1l2,1.2C77.4,29.5,77.4,29.5,77.4,29.6"/>
						<path d="M77.4,29.5l-2-1.2c0-0.1,0-0.1,0-0.2c0-0.3-0.1-0.4-0.3-0.5l2,1.2c0.2,0.1,0.3,0.3,0.3,0.5
							C77.4,29.4,77.4,29.4,77.4,29.5"/>
					</g>
				</g>
			</g>
			<g class="st8">
				<g>
					<defs>
						<path id="SVGID_9_" d="M73.8,27.6c0.6-0.1,1-0.1,1.3,0l2,1.2c-0.2-0.1-0.7-0.1-1.3,0C75.2,28.4,74.5,28,73.8,27.6z"/>
					</defs>
					<clipPath id="SVGID_10_">
						<use xlink:href="#SVGID_9_"  style="overflow:visible;"/>
					</clipPath>
					<g class="st45">
						<path class="st30" d="M75.6,28.8l-2-1.2c0.1,0,0.2,0,0.3,0c0.1,0,0.2,0,0.3,0l2,1.2c-0.1,0-0.2,0-0.3,0
							C75.7,28.8,75.6,28.8,75.6,28.8"/>
						<path class="st31" d="M76.1,28.7l-2-1.2c0.2,0,0.3,0,0.4,0l2,1.2C76.4,28.7,76.2,28.7,76.1,28.7"/>
						<path class="st32" d="M76.5,28.7l-2-1.2c0.1,0,0.2,0,0.2,0l2,1.2C76.7,28.7,76.6,28.7,76.5,28.7"/>
						<path class="st33" d="M76.7,28.7l-2-1.2c0.1,0,0.1,0,0.1,0L76.7,28.7C76.8,28.7,76.8,28.7,76.7,28.7"/>
						<path class="st34" d="M76.9,28.7l-2-1.2H75L76.9,28.7C76.9,28.7,76.9,28.7,76.9,28.7"/>
						<path class="st35" d="M77,28.7l-2-1.2h0.1L77,28.7L77,28.7"/>
						<path class="st36" d="M77,28.7l-2-1.2c0,0,0,0,0.1,0L77,28.7C77.1,28.8,77.1,28.7,77,28.7"/>
						<polyline class="st37" points="77.1,28.8 75.1,27.6 75.1,27.6 77.1,28.8 77.1,28.8 						"/>
					</g>
				</g>
			</g>
			<g class="st8">
				<g>
					<defs>
						<path id="SVGID_11_" d="M69,35.3c1.4,0.8,3.2,0.7,5.3-0.5l2,1.2c-2.1,1.2-4,1.3-5.3,0.5C70.4,36.1,69.6,35.6,69,35.3z"/>
					</defs>
					<clipPath id="SVGID_12_">
						<use xlink:href="#SVGID_11_"  style="overflow:visible;"/>
					</clipPath>
					<g class="st46">
						<path class="st19" d="M71,36.4l-2-1.2l0,0L71,36.4C71.1,36.4,71.1,36.4,71,36.4"/>
						<path class="st18" d="M71.1,36.5l-2-1.2c0.1,0.1,0.2,0.1,0.4,0.2l2,1.2C71.3,36.6,71.2,36.5,71.1,36.5"/>
						<path class="st17" d="M71.5,36.6l-2-1.2c0.1,0.1,0.3,0.1,0.4,0.1l2,1.2C71.7,36.7,71.6,36.7,71.5,36.6"/>
						<path class="st16" d="M71.8,36.8l-2-1.2c0.1,0,0.3,0.1,0.4,0.1l2,1.2C72.1,36.8,72,36.8,71.8,36.8"/>
						<path class="st15" d="M72.3,36.9l-2-1.2c0.1,0,0.3,0,0.5,0.1l2,1.2C72.6,36.9,72.4,36.9,72.3,36.9"/>
						<path class="st14" d="M72.7,36.9l-2-1.2c0.2,0,0.3,0,0.5,0l2,1.2C73,36.9,72.9,36.9,72.7,36.9"/>
						<path class="st13" d="M73.2,36.9l-2-1.2c0.2,0,0.4,0,0.6-0.1l2,1.2C73.6,36.9,73.4,36.9,73.2,36.9"/>
						<path class="st12" d="M73.8,36.9l-2-1.2c0.2,0,0.4-0.1,0.7-0.1l2,1.2C74.2,36.8,74,36.8,73.8,36.9"/>
						<path class="st11" d="M74.4,36.7l-2-1.2c0.3-0.1,0.6-0.2,0.9-0.3l2,1.2C75,36.6,74.7,36.7,74.4,36.7"/>
						<path class="st10" d="M75.3,36.4l-2-1.2c0.3-0.1,0.7-0.3,1-0.5l2,1.2C76,36.1,75.7,36.3,75.3,36.4"/>
					</g>
				</g>
			</g>
			<g class="st8">
				<g>
					<defs>
						<path id="SVGID_13_" d="M81.8,21.8c0-2.4-0.8-4-2.2-4.8l2,1.2c1.3,0.8,2.2,2.4,2.2,4.8C83.1,22.6,82.5,22.2,81.8,21.8z"/>
					</defs>
					<clipPath id="SVGID_14_">
						<use xlink:href="#SVGID_13_"  style="overflow:visible;"/>
					</clipPath>
					<g class="st47">
						<path class="st24" d="M83.7,24.5l-2-1.2c0.1-0.5,0.1-1,0.1-1.5c0-2.4-0.8-4-2.2-4.8l2,1.2c1.3,0.8,2.2,2.4,2.2,4.8
							C83.8,23.5,83.8,24,83.7,24.5"/>
					</g>
				</g>
			</g>
			<g>
				<polygon points="73.1,34 71.1,32.9 71.5,30.6 73.6,31.8 				"/>
			</g>
			<g>
				<polygon class="st48" points="78.8,23.3 76.8,22.2 77.2,20 79.2,21.2 				"/>
			</g>
			<g class="st8">
				<g>
					<defs>
						<path id="SVGID_15_" d="M75.6,26.1l-2-1.2c0.3,0.1,0.7,0.1,1.5,0s1.4-0.1,1.8,0.1l2,1.2c-0.4-0.2-1-0.3-1.8-0.1
							C76.4,26.2,75.9,26.2,75.6,26.1z"/>
					</defs>
					<clipPath id="SVGID_16_">
						<use xlink:href="#SVGID_15_"  style="overflow:visible;"/>
					</clipPath>
					<g class="st49">
						<polyline points="75.6,26.1 73.6,24.9 73.6,24.9 75.6,26.1 75.6,26.1 						"/>
						<path d="M75.6,26.1l-2-1.2c0,0,0,0,0.1,0L75.6,26.1C75.7,26.1,75.7,26.1,75.6,26.1"/>
						<path d="M75.7,26.1l-2-1.2c0,0,0,0,0.1,0L75.7,26.1C75.8,26.1,75.7,26.1,75.7,26.1"/>
						<path d="M75.8,26.1l-2-1.2h0.1L75.8,26.1L75.8,26.1"/>
						<path d="M75.9,26.1l-2-1.2c0.1,0,0.1,0,0.2,0l2,1.2C76,26.2,75.9,26.1,75.9,26.1"/>
						<path d="M76.1,26.2L74,25c0.1,0,0.2,0,0.3,0l2,1.2C76.2,26.2,76.1,26.2,76.1,26.2"/>
						<path d="M76.4,26.2l-2-1.2c0.2,0,0.5,0,0.8-0.1c0.2,0,0.5-0.1,0.7-0.1l2,1.2c-0.2,0-0.4,0-0.7,0.1
							C76.9,26.1,76.6,26.1,76.4,26.2"/>
						<path d="M77.8,26l-2-1.2c0.1,0,0.2,0,0.4,0l2,1.2C78.1,26,78,26,77.8,26"/>
						<path d="M78.2,26l-2-1.2c0.1,0,0.2,0,0.3,0l2,1.2C78.4,26,78.3,26,78.2,26"/>
						<path d="M78.5,26l-2-1.2c0.1,0,0.1,0,0.2,0l2,1.2C78.6,26.1,78.5,26,78.5,26"/>
						<path d="M78.6,26.1l-2-1.2c0.1,0,0.1,0,0.2,0.1l2,1.2C78.8,26.1,78.7,26.1,78.6,26.1"/>
						<path d="M78.8,26.1l-2-1.2c0,0,0.1,0,0.1,0.1l2,1.2C78.9,26.2,78.9,26.1,78.8,26.1"/>
						<path d="M78.9,26.2l-2-1.2l0,0L78.9,26.2C79,26.2,78.9,26.2,78.9,26.2"/>
					</g>
				</g>
			</g>
			<g class="st8">
				<g>
					<defs>
						<path id="SVGID_17_" d="M71.8,27.5c0.5,0.3,1.2,0.3,2,0.1c0.7,0.4,1.3,0.8,2,1.2c-0.8,0.2-1.5,0.2-2-0.1
							C73.2,28.3,72.4,27.8,71.8,27.5z"/>
					</defs>
					<clipPath id="SVGID_18_">
						<use xlink:href="#SVGID_17_"  style="overflow:visible;"/>
					</clipPath>
					<g class="st50">
						<path class="st37" d="M73.9,28.7l-2-1.2l0,0L73.9,28.7L73.9,28.7"/>
						<path class="st36" d="M73.9,28.7l-2-1.2c0,0,0.1,0,0.1,0.1l2,1.2C74,28.7,73.9,28.7,73.9,28.7"/>
						<path class="st35" d="M74,28.7l-2-1.2c0.1,0,0.1,0,0.2,0.1l2,1.2C74.1,28.8,74.1,28.8,74,28.7"/>
						<path class="st34" d="M74.2,28.8l-2-1.2c0.1,0,0.1,0,0.2,0l2,1.2C74.3,28.8,74.2,28.8,74.2,28.8"/>
						<path class="st33" d="M74.4,28.8l-2-1.2c0.1,0,0.2,0,0.3,0l2,1.2C74.5,28.9,74.5,28.8,74.4,28.8"/>
						<path class="st32" d="M74.6,28.9l-2-1.2c0.1,0,0.2,0,0.4,0l2,1.2C74.9,28.9,74.7,28.9,74.6,28.9"/>
						<path class="st31" d="M75,28.9l-2-1.2c0.2,0,0.4,0,0.6-0.1l2,1.2C75.4,28.8,75.2,28.9,75,28.9"/>
						<path class="st30" d="M75.6,28.8l-2-1.2c0.1,0,0.2,0,0.3,0c0.1,0,0.2,0,0.3,0l2,1.2c-0.1,0-0.2,0-0.3,0
							C75.7,28.8,75.6,28.8,75.6,28.8"/>
					</g>
				</g>
			</g>
			<g class="st8">
				<g>
					<defs>
						<path id="SVGID_19_" d="M76.8,22.2c0,0,0.1,0,0.1,0.1c0.2,0.1,0.4,0.2,0.6,0.4c0.1,0,0.2,0.1,0.3,0.2c0.3,0.2,0.7,0.4,1,0.6
							c-0.4,0-1,0-2.1,0.6c-0.7-0.4-1.3-0.8-2-1.2c0.7,0.4,1.3,0.8,2,1.2c-0.9,0.5-1.2,1.2-1.2,1.7l0,0l0,0l0,0l0,0l0,0l-0.1-0.1
							c-0.2-0.1-0.3-0.2-0.5-0.3c-0.5-0.3-0.9-0.5-1.4-0.8c0.7,0.4,1.3,0.8,2,1.2c0,0.2,0.1,0.3,0.2,0.4l-2-1.2
							c-0.1-0.1-0.2-0.2-0.2-0.4c0-0.5,0.3-1.1,1.2-1.7C75.7,22.2,76.4,22.2,76.8,22.2z"/>
					</defs>
					<clipPath id="SVGID_20_">
						<use xlink:href="#SVGID_19_"  style="overflow:visible;"/>
					</clipPath>
					<g class="st51">
						<path class="st42" d="M75.6,26.1l-2-1.2c-0.1-0.1-0.2-0.2-0.2-0.4v-0.1l2,1.2c0,0.1,0,0.1,0,0.1C75.4,25.8,75.5,26,75.6,26.1"
							/>
						<path class="st41" d="M75.4,25.5l-2-1.2v-0.1L75.4,25.5C75.5,25.4,75.4,25.5,75.4,25.5"/>
						<path class="st40" d="M75.5,25.4l-2-1.2v-0.1L75.5,25.4C75.5,25.3,75.5,25.4,75.5,25.4"/>
						<path class="st39" d="M75.5,25.3l-2-1.2c0,0,0,0,0-0.1L75.5,25.3L75.5,25.3"/>
						<path class="st38" d="M75.5,25.2l-2-1.2c0,0,0,0,0-0.1L75.5,25.2L75.5,25.2"/>
						<path class="st37" d="M75.5,25.2l-2-1.2c0,0,0,0,0-0.1L75.5,25.2C75.5,25.1,75.5,25.2,75.5,25.2"/>
						<path class="st36" d="M75.5,25.1l-2-1.2c0,0,0,0,0-0.1L75.5,25.1C75.6,25.1,75.6,25.1,75.5,25.1"/>
						<path class="st35" d="M75.6,25.1l-2-1.2c0,0,0,0,0-0.1L75.6,25.1C75.6,25,75.6,25,75.6,25.1"/>
						<path class="st34" d="M75.6,25l-2-1.2c0,0,0,0,0-0.1L75.6,25L75.6,25"/>
						<path class="st33" d="M75.6,24.9l-2-1.2c0,0,0,0,0-0.1L75.6,24.9C75.7,24.9,75.6,24.9,75.6,24.9"/>
						<path class="st32" d="M75.7,24.9l-2-1.2c0,0,0,0,0-0.1L75.7,24.9C75.7,24.8,75.7,24.9,75.7,24.9"/>
						<path class="st31" d="M75.7,24.8l-2-1.2c0,0,0-0.1,0.1-0.1L75.7,24.8C75.8,24.8,75.7,24.8,75.7,24.8"/>
						<path class="st30" d="M75.8,24.7l-2-1.2l0.1-0.1L75.8,24.7L75.8,24.7"/>
						<path class="st29" d="M75.9,24.6l-2-1.2l0.1-0.1l2,1.2C75.9,24.5,75.9,24.6,75.9,24.6"/>
						<path class="st28" d="M76,24.5l-2-1.2c0.2-0.2,0.4-0.3,0.7-0.5c0.2-0.1,0.5-0.2,0.7-0.3l2,1.2c-0.2,0.1-0.4,0.2-0.7,0.3
							C76.4,24.1,76.2,24.3,76,24.5"/>
						<path class="st29" d="M77.3,23.7l-2-1.2c0.2-0.1,0.4-0.1,0.5-0.2l2,1.2C77.7,23.5,77.5,23.6,77.3,23.7"/>
						<path class="st30" d="M77.8,23.5l-2-1.2c0.1,0,0.3-0.1,0.4-0.1l2,1.2C78.1,23.4,78,23.4,77.8,23.5"/>
						<path class="st31" d="M78.2,23.4l-2-1.2c0.2,0,0.4,0,0.5-0.1l2,1.2C78.6,23.4,78.5,23.4,78.2,23.4"/>
					</g>
				</g>
			</g>
			<g class="st8">
				<g>
					<defs>
						<path id="SVGID_21_" d="M77.1,21.9l-2-1.2c1-0.5,1.6-0.7,2.1-0.7l2,1.2C78.7,21.2,78.1,21.4,77.1,21.9z"/>
					</defs>
					<clipPath id="SVGID_22_">
						<use xlink:href="#SVGID_21_"  style="overflow:visible;"/>
					</clipPath>
					<g class="st52">
						<path d="M77.1,21.9l-2-1.2c0.2-0.1,0.5-0.2,0.7-0.3l2,1.2C77.6,21.6,77.3,21.7,77.1,21.9"/>
						<path d="M77.8,21.6l-2-1.2c0.2-0.1,0.5-0.2,0.6-0.2l2,1.2C78.2,21.4,78,21.5,77.8,21.6"/>
						<path d="M78.4,21.3l-2-1.2c0.1,0,0.3-0.1,0.4-0.1l2,1.2C78.7,21.3,78.6,21.3,78.4,21.3"/>
						<path d="M78.8,21.2l-2-1.2c0.1,0,0.2,0,0.3,0l2,1.2C79,21.2,78.9,21.2,78.8,21.2"/>
						<path d="M79.1,21.2l-2-1.2c0,0,0,0,0.1,0L79.1,21.2C79.2,21.2,79.1,21.2,79.1,21.2"/>
					</g>
				</g>
			</g>
			<g>
				<polygon class="st26" points="77.1,21.9 75.1,20.7 75.1,19.2 77.1,20.4 				"/>
			</g>
			<g class="st8">
				<g>
					<defs>
						<path id="SVGID_23_" d="M73.9,28.7l-2-1.2c-0.4-0.2-0.6-0.7-0.6-1.5c0-1.5,0.9-3.1,2.4-4.4l2,1.2c-1.6,1.2-2.5,2.9-2.4,4.4
							C73.2,28,73.4,28.4,73.9,28.7z"/>
					</defs>
					<clipPath id="SVGID_24_">
						<use xlink:href="#SVGID_23_"  style="overflow:visible;"/>
					</clipPath>
					<g class="st53">
						<path d="M73.9,28.7l-2-1.2c-0.4-0.2-0.6-0.7-0.6-1.5c0-0.2,0-0.3,0-0.5l2,1.2c0,0.2,0,0.3,0,0.5C73.2,28,73.4,28.4,73.9,28.7"
							/>
						<path d="M73.2,26.7l-2-1.2c0-0.1,0-0.2,0.1-0.3l2,1.2C73.3,26.5,73.3,26.6,73.2,26.7"/>
						<path d="M73.3,26.4l-2-1.2c0-0.1,0-0.2,0.1-0.3l2,1.2C73.3,26.2,73.3,26.3,73.3,26.4"/>
						<path d="M73.4,26.1l-2-1.2c0-0.1,0-0.2,0.1-0.2l2,1.2C73.4,25.9,73.4,26,73.4,26.1"/>
						<path d="M73.4,25.9l-2-1.2c0-0.1,0.1-0.1,0.1-0.2l2,1.2C73.5,25.7,73.5,25.8,73.4,25.9"/>
						<path d="M73.5,25.6l-2-1.2c0-0.1,0.1-0.1,0.1-0.2l2,1.2C73.6,25.5,73.5,25.6,73.5,25.6"/>
						<path d="M73.6,25.4l-2-1.2c0-0.1,0.1-0.1,0.1-0.2l2,1.2C73.7,25.3,73.6,25.4,73.6,25.4"/>
						<path d="M73.7,25.2l-2-1.2c0-0.1,0.1-0.1,0.1-0.2l2,1.2C73.8,25.1,73.7,25.1,73.7,25.2"/>
						<path d="M73.8,25l-2-1.2c0-0.1,0.1-0.1,0.1-0.2l2,1.2C73.9,24.9,73.8,24.9,73.8,25"/>
						<path d="M73.9,24.8l-2-1.2c0-0.1,0.1-0.1,0.1-0.2l2,1.2C74,24.7,74,24.7,73.9,24.8"/>
						<path d="M74.1,24.6l-2-1.2c0.1-0.1,0.1-0.2,0.2-0.2l2,1.2C74.2,24.4,74.1,24.5,74.1,24.6"/>
						<path d="M74.2,24.3l-2-1.2c0.1-0.1,0.1-0.2,0.2-0.3l2,1.2C74.3,24.2,74.3,24.3,74.2,24.3"/>
						<path d="M74.4,24.1l-2-1.2c0.1-0.1,0.2-0.2,0.3-0.3l2,1.2C74.6,23.9,74.5,24,74.4,24.1"/>
						<path d="M74.7,23.8l-2-1.2c0.1-0.1,0.3-0.3,0.4-0.4l2,1.2C74.9,23.5,74.8,23.6,74.7,23.8"/>
						<path d="M75.1,23.4l-2-1.2c0.2-0.2,0.4-0.4,0.6-0.5l2,1.2C75.4,23,75.2,23.2,75.1,23.4"/>
					</g>
				</g>
			</g>
			<g>
				<polygon points="75.7,21.2 73.6,20.1 75.1,19.2 77.1,20.4 				"/>
			</g>
			<g>
				<polygon points="75.7,22.8 73.6,21.6 73.6,20.1 75.7,21.2 				"/>
			</g>
			<g>
				<path class="st54" d="M76.3,18.7c4.1-2.4,7.5-0.5,7.5,4.3c0,4.7-3.3,10.5-7.4,12.9s-7.5,0.5-7.5-4.3
					C68.8,26.9,72.2,21.1,76.3,18.7z M77,32.4c1.7-1.3,2.6-3.1,2.6-4.6s-0.7-2-2.4-1.7c-1.2,0.2-1.7,0.1-1.8-0.4
					c0-0.5,0.3-1.1,1.2-1.7c1.1-0.6,1.7-0.6,2.1-0.6l0.4-2.1c-0.5,0-1.1,0.2-2.1,0.7v-1.5l-1.4,0.8v1.6c-1.6,1.2-2.5,2.9-2.4,4.4
					c0,1.6,1.1,1.8,2.6,1.6c1.1-0.2,1.5-0.1,1.5,0.6s-0.6,1.4-1.4,1.8C75,31.8,74.1,32,73.5,32l-0.4,2c0.6,0,1.5-0.2,2.5-0.7v1.6
					l1.4-0.8V32.4"/>
			</g>
			<g>
				<path class="st55" d="M77.1,20.4v1.5c1-0.5,1.6-0.7,2.1-0.7l-0.4,2.1c-0.4,0-1,0-2.1,0.6c-0.9,0.5-1.2,1.2-1.2,1.7
					s0.5,0.6,1.8,0.4c1.7-0.3,2.4,0.2,2.4,1.7s-0.9,3.3-2.6,4.6V34l-1.4,0.8v-1.6c-1,0.5-1.9,0.8-2.5,0.7l0.4-2.2
					c0.6,0,1.5-0.1,2.4-0.7c0.8-0.5,1.4-1.2,1.4-1.8c0-0.6-0.5-0.8-1.5-0.6c-1.6,0.3-2.6,0.1-2.6-1.6c0-1.5,0.9-3.1,2.4-4.4V21
					L77.1,20.4z"/>
			</g>
			<g class="st8">
				<g>
					<defs>
						<path id="SVGID_25_" d="M79.6,17l2,1.2c-1.4-0.8-3.2-0.7-5.3,0.5l-2-1.2C76.4,16.4,78.2,16.3,79.6,17z"/>
					</defs>
					<clipPath id="SVGID_26_">
						<use xlink:href="#SVGID_25_"  style="overflow:visible;"/>
					</clipPath>
					<g class="st56">
						<path class="st28" d="M76.3,18.7l-2-1.2c0.4-0.2,0.7-0.4,1-0.5l2,1.2C77,18.4,76.7,18.5,76.3,18.7"/>
						<path class="st29" d="M77.4,18.2l-2-1.2c0.3-0.1,0.6-0.2,0.9-0.3l2,1.2C77.9,18,77.6,18.1,77.4,18.2"/>
						<path class="st30" d="M78.2,17.9l-2-1.2c0.2-0.1,0.4-0.1,0.7-0.1l2,1.2C78.7,17.8,78.5,17.8,78.2,17.9"/>
						<path class="st31" d="M78.9,17.8l-2-1.2c0.2,0,0.4,0,0.6-0.1l2,1.2C79.3,17.7,79.1,17.7,78.9,17.8"/>
						<path class="st32" d="M79.4,17.7l-2-1.2c0.2,0,0.3,0,0.5,0l2,1.2C79.8,17.7,79.6,17.7,79.4,17.7"/>
						<path class="st33" d="M79.9,17.7l-2-1.2c0.2,0,0.3,0,0.5,0.1l2,1.2C80.2,17.7,80.1,17.7,79.9,17.7"/>
						<path class="st34" d="M80.4,17.8l-2-1.2c0.1,0,0.3,0.1,0.4,0.1l2,1.2C80.7,17.8,80.5,17.8,80.4,17.8"/>
						<path class="st35" d="M80.8,17.9l-2-1.2c0.1,0,0.3,0.1,0.4,0.1l2,1.2C81.1,18,80.9,17.9,80.8,17.9"/>
						<path class="st36" d="M81.2,18l-2-1.2c0.1,0.1,0.3,0.1,0.4,0.2l2,1.2C81.5,18.1,81.3,18.1,81.2,18"/>
						<path class="st37" d="M81.6,18.2l-2-1.2l0,0L81.6,18.2L81.6,18.2"/>
					</g>
				</g>
			</g>
			<g>
				<g>
					<path id="SVGID_27_" class="st54" d="M80.5,15.4l2,1.2c-1.6-0.9-3.8-0.8-6.3,0.6l-2-1.2C76.7,14.6,78.9,14.5,80.5,15.4z"/>
				</g>
				<g>
					<defs>
						<path id="SVGID_28_" d="M80.5,15.4l2,1.2c-1.6-0.9-3.8-0.8-6.3,0.6l-2-1.2C76.7,14.6,78.9,14.5,80.5,15.4z"/>
					</defs>
					<clipPath id="SVGID_30_">
						<use xlink:href="#SVGID_28_"  style="overflow:visible;"/>
					</clipPath>
					<g class="st57">
						<path class="st54" d="M76.3,17.2l-2-1.2c0.4-0.2,0.8-0.4,1.2-0.6l2,1.2C77.1,16.8,76.7,17,76.3,17.2"/>
						<path class="st54" d="M77.5,16.6l-2-1.2c0.4-0.1,0.7-0.3,1-0.4l2,1.2C78.2,16.3,77.9,16.5,77.5,16.6"/>
						<path class="st54" d="M78.6,16.3l-2-1.2c0.3-0.1,0.5-0.1,0.8-0.2l2,1.2C79.1,16.1,78.8,16.2,78.6,16.3"/>
						<path class="st54" d="M79.3,16.1l-2-1.2c0.2,0,0.4-0.1,0.7-0.1l2,1.2C79.8,16,79.6,16.1,79.3,16.1"/>
						<path class="st54" d="M80,16l-2-1.2c0.2,0,0.4,0,0.6,0l2,1.2C80.4,16,80.2,16,80,16"/>
						<path class="st54" d="M80.6,16l-2-1.2c0.2,0,0.4,0,0.5,0.1l2,1.2C80.9,16.1,80.8,16,80.6,16"/>
						<path class="st54" d="M81.1,16.1l-2-1.2c0.2,0,0.3,0.1,0.5,0.1l2,1.2C81.4,16.2,81.3,16.1,81.1,16.1"/>
						<path class="st54" d="M81.6,16.2l-2-1.2c0.2,0,0.3,0.1,0.5,0.2l2,1.2C81.9,16.3,81.8,16.2,81.6,16.2"/>
						<path class="st54" d="M82.1,16.4l-2-1.2c0.2,0.1,0.3,0.1,0.4,0.2l2,1.2C82.4,16.5,82.2,16.4,82.1,16.4"/>
						<path class="st54" d="M82.5,16.6l-2-1.2l0,0L82.5,16.6L82.5,16.6"/>
					</g>
				</g>
			</g>
			<g>
				<g>
					<path id="SVGID_29_" class="st54" d="M70.1,38l-2-1.2c-1.6-0.9-2.6-2.9-2.6-5.6c0-5.6,3.9-12.4,8.8-15.2l2,1.2
						c-4.9,2.8-8.8,9.6-8.8,15.2C67.6,35.2,68.5,37.1,70.1,38z"/>
				</g>
				<g>
					<defs>
						<path id="SVGID_31_" d="M70.1,38l-2-1.2c-1.6-0.9-2.6-2.9-2.6-5.6c0-5.6,3.9-12.4,8.8-15.2l2,1.2c-4.9,2.8-8.8,9.6-8.8,15.2
							C67.6,35.2,68.5,37.1,70.1,38z"/>
					</defs>
					<clipPath id="SVGID_32_">
						<use xlink:href="#SVGID_31_"  style="overflow:visible;"/>
					</clipPath>
					<g class="st58">
						<path class="st54" d="M70.1,38l-2-1.2c-1.6-0.9-2.6-2.9-2.6-5.6c0-0.6,0-1.1,0.1-1.7l2,1.2c-0.1,0.6-0.1,1.2-0.1,1.7
							C67.6,35.2,68.5,37.1,70.1,38"/>
						<path class="st54" d="M67.7,30.7l-2-1.2c0.1-0.4,0.1-0.8,0.2-1.2l2,1.2C67.8,29.9,67.7,30.3,67.7,30.7"/>
						<path class="st54" d="M67.9,29.5l-2-1.2c0.1-0.3,0.2-0.7,0.2-1l2,1.2C68,28.8,67.9,29.1,67.9,29.5"/>
						<path class="st54" d="M68.1,28.4l-2-1.2c0.1-0.3,0.2-0.6,0.3-0.9l2,1.2C68.3,27.8,68.2,28.1,68.1,28.4"/>
						<path class="st54" d="M68.4,27.5l-2-1.2c0.1-0.3,0.2-0.6,0.3-0.8l2,1.2C68.6,27,68.5,27.3,68.4,27.5"/>
						<path class="st54" d="M68.7,26.7l-2-1.2c0.1-0.3,0.2-0.5,0.3-0.8l2,1.2C68.9,26.2,68.8,26.5,68.7,26.7"/>
						<path class="st54" d="M69,25.9l-2-1.2c0.1-0.3,0.2-0.5,0.3-0.8l2,1.2C69.2,25.4,69.1,25.7,69,25.9"/>
						<path class="st54" d="M69.4,25.2l-2-1.2c0.1-0.3,0.2-0.5,0.4-0.7l2,1.2C69.6,24.7,69.5,24.9,69.4,25.2"/>
						<path class="st54" d="M69.7,24.4l-2-1.2c0.1-0.2,0.3-0.5,0.4-0.7l2,1.2C70,23.9,69.9,24.2,69.7,24.4"/>
						<path class="st54" d="M70.1,23.7l-2-1.2c0.1-0.3,0.3-0.5,0.5-0.7l2,1.2C70.4,23.2,70.3,23.4,70.1,23.7"/>
						<path class="st54" d="M70.6,22.9l-2-1.2c0.2-0.3,0.3-0.5,0.5-0.8l2,1.2C70.9,22.4,70.8,22.7,70.6,22.9"/>
						<path class="st54" d="M71.1,22.2l-2-1.2c0.2-0.3,0.4-0.5,0.6-0.8l2,1.2C71.5,21.6,71.3,21.9,71.1,22.2"/>
						<path class="st54" d="M71.7,21.4l-2-1.2c0.2-0.3,0.5-0.6,0.7-0.9l2,1.2C72.2,20.8,71.9,21.1,71.7,21.4"/>
						<path class="st54" d="M72.4,20.5l-2-1.2c0.3-0.4,0.6-0.7,1-1l2,1.2C73,19.8,72.7,20.2,72.4,20.5"/>
						<path class="st54" d="M73.4,19.5l-2-1.2c0.9-0.9,1.9-1.7,2.9-2.3l2,1.2C75.3,17.8,74.3,18.6,73.4,19.5"/>
					</g>
				</g>
			</g>
			<g>
				<path class="st55" d="M76.3,17.2c4.9-2.8,8.8-0.6,8.8,5s-3.9,12.4-8.8,15.2c-4.9,2.8-8.8,0.6-8.8-5S71.4,20,76.3,17.2z
					 M76.4,35.9c4.1-2.4,7.5-8.2,7.4-12.9c0-4.7-3.4-6.7-7.5-4.3s-7.5,8.2-7.4,12.9C68.9,36.4,72.2,38.3,76.4,35.9"/>
			</g>
		</g>
	</g>
	
		<ellipse transform="matrix(0.7456 -0.6664 0.6664 0.7456 -59.5531 48.1476)" class="st7" cx="33.3" cy="102.1" rx="9.4" ry="17.2"/>
	<ellipse transform="matrix(0.9879 -0.1552 0.1552 0.9879 -15.6334 7.1697)" class="st1" cx="38.1" cy="103.7" rx="2.4" ry="4.1"/>
	<path class="st4" d="M40.2,106.5c-1.3,0-2.6-1.8-2.8-4.1c-0.1-1.1,0-2,0.3-2.8l0,0c1.3,0,2.6,1.8,2.8,4.1
		C40.6,104.8,40.5,105.7,40.2,106.5z"/>
	<ellipse transform="matrix(0.9879 -0.1552 0.1552 0.9879 -14.9266 5.5996)" class="st1" cx="28.4" cy="98.4" rx="2.4" ry="4.1"/>
	<path class="st4" d="M30.4,101.2c-1.3,0-2.6-1.8-2.8-4.1c-0.1-1.1,0-2,0.3-2.8l0,0c1.3,0,2.6,1.8,2.8,4.1
		C30.9,99.5,30.7,100.5,30.4,101.2z"/>
</g>
</svg>
