<?xml version="1.0" encoding="utf-8"?>
<!-- Generator: Adobe Illustrator 20.0.0, SVG Export Plug-In . SVG Version: 6.00 Build 0)  -->
<svg version="1.1" id="Layer_1" xmlns="http://www.w3.org/2000/svg" xmlns:xlink="http://www.w3.org/1999/xlink" x="0px" y="0px"
	 viewBox="0 0 100 100" style="enable-background:new 0 0 100 100;" xml:space="preserve">
<style type="text/css">
	.st0{fill:#FFFFFF;stroke:#58595B;stroke-width:2.7214;stroke-miterlimit:10;}
</style>
<g>
	<path class="st0" d="M93.9,66.9l1.9-2.3v-4l-1,0.1c0,0,0-4.9,0-6s-0.5-2.9-2-3.4c-1.5-0.5-6.9-1.9-6.9-1.9L73,33.4
		c-0.4-0.5-1.1-0.8-1.7-0.8h-5.2H9.4c-1.2,0-2.2,1-2.2,2.2v25.7L5,60.6v6.3H93.9z"/>
	<path class="st0" d="M80.5,50.4H66.4c-0.5,0-0.8-0.4-0.8-0.8v-8.5c0-0.5,0.4-0.8,0.8-0.8h7.1c0.2,0,0.5,0.1,0.6,0.3l7,8.5
		C81.6,49.6,81.2,50.4,80.5,50.4z"/>
	<circle class="st0" cx="80.8" cy="66.5" r="7.8"/>
	<circle class="st0" cx="22.7" cy="66.5" r="7.8"/>
	<path class="st0" d="M48.3,50.4h10.9c0.5,0,0.8-0.4,0.8-0.8v-8.5c0-0.5-0.4-0.8-0.8-0.8H48.3c-0.5,0-0.8,0.4-0.8,0.8v8.5
		C47.5,50.1,47.9,50.4,48.3,50.4z"/>
	<path class="st0" d="M32.4,50.4h10.9c0.5,0,0.8-0.4,0.8-0.8v-8.5c0-0.5-0.4-0.8-0.8-0.8H32.4c-0.5,0-0.8,0.4-0.8,0.8v8.5
		C31.6,50.1,31.9,50.4,32.4,50.4z"/>
	<path class="st0" d="M12.3,50.4h15.1c0.5,0,0.8-0.4,0.8-0.8v-8.5c0-0.5-0.4-0.8-0.8-0.8H12.3c-0.5,0-0.8,0.4-0.8,0.8v8.5
		C11.5,50.1,11.9,50.4,12.3,50.4z"/>
</g>
</svg>
