<?xml version="1.0" encoding="utf-8"?>
<!-- Generator: Adobe Illustrator 24.0.0, SVG Export Plug-In . SVG Version: 6.00 Build 0)  -->
<svg version="1.1" id="Layer_1" xmlns="http://www.w3.org/2000/svg" xmlns:xlink="http://www.w3.org/1999/xlink" x="0px" y="0px"
	 width="140px" height="140px" viewBox="0 0 140 140" style="enable-background:new 0 0 140 140;" xml:space="preserve">
<style type="text/css">
	.st0{opacity:0.5;fill:#404041;enable-background:new    ;}
	.st1{fill:#231F20;}
	.st2{fill:#323031;}
	.st3{fill:#CCCCCC;}
	.st4{fill:#999999;}
	.st5{enable-background:new    ;}
	.st6{fill:#E6E6E6;}
	.st7{fill:#58217D;}
	.st8{fill:#5D2684;}
	.st9{fill:#4B166C;}
	.st10{fill:#465E67;}
	.st11{fill:#C8D6DD;}
	.st12{fill:#3E075B;}
	.st13{fill:#FFFFFF;}
	.st14{fill:#809D99;}
	.st15{fill:#33484F;}
	.st16{fill:#BE1E2D;}
	.st17{fill:#6C3493;}
	.st18{fill:url(#SVGID_1_);}
	.st19{fill:#FFAD51;}
	.st20{fill:#BCBCBC;}
	.st21{fill:none;stroke:#BCBCBC;stroke-width:0.1768;}
	.st22{font-family:'TTCommons-Bold';}
	.st23{font-size:2.4756px;}
	.st24{fill:#2D414D;}
	.st25{font-size:2.8292px;}
	.st26{fill:#E6E7E8;}
	.st27{fill:#4BBFA7;}
	.st28{font-family:'TTCommons-Medium';}
	.st29{font-size:3.8902px;}
</style>
<g>
	<path class="st0" d="M6,98.4l92.3-52.8l37.2,21.2c2.8,1.7,2.8,5.8,0,7.4l-89.3,51.4c-2.3,1.3-5.2,1.3-7.5,0L5.9,106.7
		C2.7,104.8,2.7,100.2,6,98.4z"/>
	<path class="st1" d="M66.1,96.6c1.7-1,3.2-1,4.2-0.4l3.2,1.9l0,0c1.1,0.6,1.7,1.9,1.8,3.8c0,3.8-2.8,8.2-6,10.1
		c-1.9,1.1-3,1.1-4.1,0.6l-3.2-1.9c-1.1-0.6-1.7-1.9-1.7-3.8C60.2,103.1,62.8,98.5,66.1,96.6z"/>
	<g>
		<path class="st2" d="M62.8,108.9c0,0.7,0.2,1.3,0.4,1.8c0.8,1.8,2.6,2.5,4.8,2c0.6-0.1,1.2-0.4,1.8-0.7c0.8-0.4,1.6-1,2.3-1.7
			c2-1.8,3.4-4.4,3.8-6.8c0.1-0.5,0.1-1.1,0.1-1.6c0-0.6-0.2-1.1-0.3-1.5c-0.9-2.5-3.7-3.2-6.7-1.6c-3.3,1.7-5.9,5.6-6.2,9
			C62.8,108.2,62.8,108.5,62.8,108.9z M65.3,109.6c-0.3-0.4-0.4-1-0.5-1.6c0-0.4,0-0.9,0.1-1.4c0.4-2.3,2.2-4.7,4.3-5.8
			c2-1.1,3.8-0.7,4.6,0.7c0.2,0.4,0.4,0.9,0.4,1.5c0,0.5,0,1-0.1,1.6c-0.5,2.2-2.2,4.5-4.3,5.6C67.9,111.2,66.1,110.9,65.3,109.6z"
			/>
		<path class="st3" d="M64.8,108c0,0.6,0.2,1.2,0.5,1.6c0.8,1.4,2.6,1.7,4.6,0.6c2.1-1.1,3.8-3.4,4.3-5.6c0.1-0.5,0.2-1.1,0.1-1.6
			c0-0.6-0.2-1.1-0.4-1.5c-0.8-1.4-2.6-1.8-4.6-0.7c-2.2,1.1-3.9,3.5-4.3,5.8C64.9,107.1,64.8,107.5,64.8,108z M67.1,108.6
			c-0.7-0.3-1.1-0.9-1.2-1.8c0-0.2,0-0.5,0-0.8c0.2-1.6,1.4-3.3,2.9-4.1c1.4-0.7,2.6-0.4,3.2,0.6c0.1,0.3,0.2,0.6,0.2,0.9
			c0.1,0.8-0.2,1.8-0.7,2.6c-0.5,0.9-1.3,1.8-2.3,2.2C68.4,108.7,67.7,108.8,67.1,108.6z"/>
		<path class="st4" d="M65.9,106.8c0.1,0.9,0.5,1.5,1.2,1.8c0.6,0.2,1.4,0.2,2.2-0.3c0.9-0.5,1.7-1.3,2.3-2.2
			c0.5-0.8,0.8-1.8,0.7-2.6c0-0.4-0.1-0.6-0.2-0.9c-0.5-1-1.7-1.3-3.2-0.6c-1.5,0.8-2.7,2.5-2.9,4.1
			C65.9,106.3,65.9,106.5,65.9,106.8z M68.9,105c0.3-0.5,0.9-0.7,1.1-0.4c0.3,0.2,0.3,0.8-0.1,1.2c-0.3,0.5-0.9,0.7-1.1,0.4
			C68.5,106,68.6,105.5,68.9,105z"/>
		<path d="M70,105.8c-0.3,0.5-0.9,0.7-1.1,0.4c-0.3-0.2-0.3-0.8,0.1-1.2c0.3-0.5,0.9-0.7,1.1-0.4S70.3,105.3,70,105.8z"/>
	</g>
	<path class="st1" d="M111.1,70.5c1.7-1,3.2-1,4.2-0.4l3.2,1.9l0,0c1.1,0.6,1.7,1.9,1.8,3.8c0,3.8-2.8,8.2-6,10.1
		c-1.9,1.1-3,1.1-4.1,0.6l-3.2-1.9c-1.1-0.6-1.7-1.9-1.7-3.8C105.2,77.1,107.9,72.4,111.1,70.5z"/>
	<g class="st5">
		<path class="st6" d="M43,103.3c0.9-14.3,2.7-25.6,2.7-25.6l82.4-47.5l1.6,4.2l0.1,37.1l-8.1,4.7c0-0.2,0-0.4,0-0.5
			c0-0.6-0.2-1.2-0.4-1.7c-1-2.7-4-3.5-7.3-1.7c-3.6,1.9-6.4,6.1-6.7,9.8c0,0.4-0.1,0.8,0,1.2c0,0.4,0.1,0.8,0.2,1.2l-30.9,17.9
			c0-0.2,0-0.4,0-0.6c0-0.6-0.2-1.2-0.4-1.7c-1-2.7-4-3.5-7.3-1.7c-3.6,1.9-6.4,6.1-6.7,9.8c0,0.4-0.1,0.8,0,1.2
			c0,0.5,0.1,0.9,0.2,1.3L42.9,122C42.9,121.7,42.1,117.6,43,103.3z"/>
		<g>
			<path class="st7" d="M45.8,77.6L15.6,60.1c0,0-2.8,20.8-2.8,30.9s0,13.2,0,13.2s1.8,3.2,12.2,9.3c10.4,6.1,18,8.3,18,8.3
				s0-4.5,0-16C43,96.3,45.8,77.6,45.8,77.6z"/>
		</g>
		<g>
			<path class="st8" d="M128.1,30.1L97.8,12.6L15.6,60.1c0,0,2.5,3.4,12.6,9.1c10.4,5.9,17.6,8.5,17.6,8.5L128.1,30.1z"/>
		</g>
		<g>
			<path class="st9" d="M129.8,59.7v11.7l-8.1,4.7c0-0.2,0-0.4,0-0.5c0-0.6-0.2-1.2-0.4-1.7c-1-2.7-4-3.5-7.3-1.7
				c-3.6,1.9-6.4,6.1-6.7,9.8c0,0.4-0.1,0.8,0,1.2c0,0.4,0.1,0.8,0.2,1.2l-30.9,17.9c0-0.2,0-0.4,0-0.6c0-0.6-0.2-1.2-0.4-1.7
				c-1-2.7-4-3.5-7.3-1.7c-3.6,1.9-6.4,6.1-6.7,9.8c0,0.4-0.1,0.8,0,1.2c0,0.5,0.1,0.9,0.2,1.3l-19.5,11.3c0,0-0.6-2.7-0.3-11.5
				L129.8,59.7z"/>
			<path class="st9" d="M44.6,84.1c0.6-4.9,1.1-6.4,1.1-6.4l82.4-47.5l1.6,4.2v0.7L44.6,84.1z"/>
		</g>
	</g>
	<g>
		<path class="st2" d="M107.9,82.8c0,0.7,0.2,1.3,0.4,1.8c0.8,1.8,2.6,2.5,4.8,2c0.6-0.1,1.2-0.4,1.8-0.7c0.8-0.4,1.6-1,2.3-1.7
			c2-1.8,3.4-4.4,3.8-6.8c0.1-0.5,0.1-1.1,0.1-1.6c0-0.6-0.2-1.1-0.3-1.5c-0.9-2.5-3.7-3.2-6.7-1.6c-3.3,1.7-5.9,5.6-6.2,9
			C107.8,82.1,107.8,82.5,107.9,82.8z M110.3,83.5c-0.3-0.4-0.4-1-0.5-1.6c0-0.4,0-0.9,0.1-1.4c0.4-2.3,2.2-4.7,4.3-5.8
			c2-1.1,3.8-0.7,4.6,0.7c0.2,0.4,0.4,0.9,0.4,1.5c0,0.5,0,1-0.1,1.6c-0.5,2.2-2.2,4.5-4.3,5.6C112.9,85.2,111.1,84.9,110.3,83.5z"
			/>
		<path class="st3" d="M109.9,81.9c0,0.6,0.2,1.2,0.5,1.6c0.8,1.4,2.6,1.7,4.6,0.6c2.1-1.1,3.8-3.4,4.3-5.6c0.1-0.5,0.2-1.1,0.1-1.6
			c0-0.6-0.2-1.1-0.4-1.5c-0.8-1.4-2.6-1.8-4.6-0.7c-2.2,1.1-3.9,3.5-4.3,5.8C109.9,81,109.8,81.5,109.9,81.9z M112.1,82.5
			c-0.7-0.3-1.1-0.9-1.2-1.8c0-0.2,0-0.5,0-0.8c0.2-1.6,1.4-3.3,2.9-4.1c1.4-0.7,2.6-0.4,3.2,0.6c0.1,0.3,0.2,0.6,0.2,0.9
			c0.1,0.8-0.2,1.8-0.7,2.6c-0.5,0.9-1.3,1.8-2.3,2.2C113.5,82.7,112.7,82.7,112.1,82.5z"/>
		<path class="st4" d="M110.9,80.7c0.1,0.9,0.5,1.5,1.2,1.8c0.6,0.2,1.4,0.2,2.2-0.3c0.9-0.5,1.7-1.3,2.3-2.2
			c0.5-0.8,0.8-1.8,0.7-2.6c0-0.4-0.1-0.6-0.2-0.9c-0.5-1-1.7-1.3-3.2-0.6c-1.5,0.8-2.7,2.5-2.9,4.1
			C110.9,80.2,110.9,80.5,110.9,80.7z M113.9,78.9c0.3-0.5,0.9-0.7,1.1-0.4c0.3,0.2,0.3,0.8-0.1,1.2c-0.3,0.5-0.9,0.7-1.1,0.4
			C113.6,79.9,113.6,79.4,113.9,78.9z"/>
		<path d="M115,79.7c-0.3,0.5-0.9,0.7-1.1,0.4c-0.3-0.2-0.3-0.8,0.1-1.2c0.3-0.5,0.9-0.7,1.1-0.4C115.4,78.7,115.3,79.3,115,79.7z"
			/>
	</g>
	<g>
		<polygon class="st10" points="62.6,75.2 62.6,89.8 126.7,53 126.7,38.3 		"/>
	</g>
	<g>
		<path class="st10" d="M48.9,83.1c0,0-1.2,3.2-1.6,7.5c-0.4,4.4-0.2,8.2-0.2,8.2l13.5-8V76.4L48.9,83.1z"/>
	</g>
	<path class="st11" d="M39.3,116.5c0.9,0.5,1.7,0.1,1.8-0.8c0-0.4-0.1-0.8-0.3-1.2c-0.3-0.6-0.7-1.1-1.3-1.4c-0.5-0.3-1-0.3-1.3-0.1
		c-0.3,0.2-0.5,0.5-0.5,0.9C37.7,114.9,38.4,116,39.3,116.5z"/>
	<path class="st11" d="M36,114.7c0.5,0.3,0.9,0.1,1-0.4c0-0.2,0-0.4-0.1-0.6c-0.1-0.3-0.4-0.6-0.7-0.7s-0.5-0.1-0.7,0
		c-0.1,0.1-0.2,0.2-0.3,0.5C35.1,113.8,35.5,114.4,36,114.7z"/>
	<path class="st11" d="M15.6,104.2c0.9,0.5,1.7,0.1,1.8-0.8c0-0.4-0.1-0.8-0.3-1.2c-0.3-0.6-0.7-1.1-1.3-1.4c-0.5-0.3-1-0.3-1.3-0.1
		c-0.3,0.2-0.5,0.5-0.5,0.9C14,102.6,14.7,103.7,15.6,104.2z"/>
	<path class="st11" d="M19.1,106.2c0.5,0.3,0.9,0.1,1-0.4c0-0.2,0-0.4-0.1-0.6c-0.1-0.3-0.4-0.6-0.7-0.7c-0.3-0.1-0.5-0.1-0.7,0
		c-0.1,0.1-0.2,0.2-0.3,0.5S18.6,105.9,19.1,106.2z"/>
	<path class="st12" d="M42.7,110.7c0,0-8.1-0.3-17.6-5.2c-9.6-4.8-11.9-10.3-11.9-10.3s3.7,5.5,12.2,9.8
		C33.6,109.2,42.7,110.7,42.7,110.7z"/>
	<path class="st13" d="M23.5,108L23.5,108l4.2,2.4l0.3,0.2c0.1,0.1,0.2,0.2,0.2,0.3v1.6c0,0.2-0.3,0.4-0.5,0.3l-4.5-2.6
		c-0.1-0.1-0.2-0.2-0.2-0.3v-1.6C23.1,108,23.3,107.9,23.5,108z"/>
	<path class="st10" d="M16.2,61.9c0,0,2.3,3.2,12,8.7c10,5.7,16.9,8.1,16.9,8.1s-1.8,7.9-2.8,28.5c-10.8-2.3-21.3-6.3-28.7-15
		C13.6,77.8,16.2,61.9,16.2,61.9z"/>
	<path class="st14" d="M14.7,89.3l10.6-6.1V70.5l-4.4-3l-4.5,2.2c0,0-1.1,4.3-1.5,10.4C14.6,86.2,14.7,89.3,14.7,89.3z"/>
	<path class="st15" d="M42.3,104.4c0.7-14,1.7-22.2,2.3-25.9c0.3,0.1,0.5,0.2,0.5,0.2s-1.8,7.9-2.8,28.5c-10.8-2.3-21.3-6.3-28.7-15
		c0-0.9,0-1.8,0-2.7C21,98.1,31.5,102.1,42.3,104.4z"/>
	<polygon class="st16" points="129,62.3 129.8,62.3 129.8,68.6 129.8,68.6 129.4,68.6 128.6,68.1 128.6,67.9 128.6,63.1 	"/>
	<g>
		<polygon class="st15" points="77.5,66.7 77.5,81.3 78.6,80.6 78.6,66 		"/>
	</g>
	<g>
		<polygon class="st15" points="111.6,47 111.6,61.6 112.8,60.9 112.8,46.3 		"/>
	</g>
	<g>
		<polygon class="st15" points="94.1,57.1 94.1,71.7 95.2,71 95.2,56.4 		"/>
	</g>
	<g>
		<polygon class="st14" points="26.6,70.8 26.6,80.3 35.1,75.4 		"/>
	</g>
	<g>
		<path class="st15" d="M44.2,84.4c-0.6,4.5-1.4,11.8-1.9,22.8c-0.1,0-0.2,0-0.2-0.1C42.7,95.3,43.6,88.1,44.2,84.4z"/>
		<path class="st15" d="M27.9,73.1c-9.7-5.5-12-8.7-12-8.7S15.7,65,15.6,66c0.4-2.6,0.6-4.1,0.6-4.1s2.3,3.2,12,8.7
			c10,5.7,16.9,8.1,16.9,8.1s-0.2,0.8-0.5,2.5C43.8,80.9,37.2,78.4,27.9,73.1z"/>
	</g>
	<g>
		<path class="st9" d="M107.4,30.1l-0.4-0.4l-9.4-5.5l-12.4,7.1l-0.5,0.4c0,0,0.7,1,4.1,2.9s5.8,2.8,5.8,2.8L107.4,30.1z"/>
	</g>
	<g>
		<path class="st17" d="M106.7,29.8l-9.1-5.3l-12.2,7c0,0,0.8,1,3.9,2.8c3.2,1.8,5.2,2.5,5.2,2.5L106.7,29.8z"/>
	</g>
	<g>
		<path class="st9" d="M64.7,54.1l-0.4-0.4l-9.4-5.5l-12.4,7.1L42,55.7c0,0,0.7,1,4.1,2.9c3.4,1.9,5.8,2.8,5.8,2.8L64.7,54.1z"/>
	</g>
	<g>
		<path class="st17" d="M64,53.8l-9.1-5.3l-12.2,7c0,0,0.8,1,3.9,2.8c3.2,1.8,5.2,2.5,5.2,2.5L64,53.8z"/>
	</g>
</g>
<linearGradient id="SVGID_1_" gradientUnits="userSpaceOnUse" x1="75.7992" y1="44.7036" x2="102.1013" y2="15.8795" gradientTransform="matrix(1 0 0 -1 0 142)">
	<stop  offset="0" style="stop-color:#6D6E70;stop-opacity:0"/>
	<stop  offset="1" style="stop-color:#6D6E70;stop-opacity:0.7"/>
</linearGradient>
<path class="st18" d="M130.1,101l-30-17.7L42.7,117l32.4,18.8c0.8,0.5,1.8,0.5,2.6,0l52.3-30.3C131.8,104.5,131.8,102,130.1,101z"/>
<g id="Calificar_viaje_POP_2_">
	<g transform="matrix(1, 0, 0, 1, 0, 0)">
		<path id="Rectangle-2_4_" class="st13" d="M74.5,35.4l53.6-30.5c2-1.1,3.5-0.4,3.5,1.5v88.4c0,2-1.6,4.4-3.5,5.6l-53.6,30.5
			c-2,1.1-3.5,0.4-3.5-1.5V41C71,39,72.6,36.5,74.5,35.4z"/>
	</g>
	<g id="Group_752_2_" transform="translate(12.5 -15)">
		<g id="Path_756_2_" transform="translate(76.025 445.013)">
			<path class="st19" d="M-0.9-362.7l-1.1,0.1l0,0l0,0c-0.1,0-0.1,0-0.2,0.1c-0.1,0-0.1,0.1-0.2,0.1l0,0l0,0l-1.1,1.2l0.2-1.3
				c0-0.2,0-0.3-0.1-0.3l-0.9-0.3l1.2-0.9l0,0l0,0c0.2-0.1,0.3-0.3,0.3-0.4l0.6-1.4l0.6,0.8c0.1,0.1,0.2,0.1,0.3,0.1l0,0l0,0
				l1.2-0.5l-0.9,1.3l0,0l0,0c-0.1,0.2-0.2,0.4-0.1,0.5L-0.9-362.7z"/>
			<path class="st19" d="M-2.2-365.3l-0.3,0.8c-0.1,0.3-0.3,0.5-0.5,0.7l0,0l0,0l-0.7,0.5l0.5,0.2c0.2,0.1,0.3,0.3,0.2,0.5l-0.1,0.7
				l0.6-0.7l0,0l0,0c0.1-0.1,0.2-0.2,0.3-0.2c0.1-0.1,0.2-0.1,0.3-0.1l0,0l0,0h0.6l-0.1-0.6c0-0.2,0-0.5,0.2-0.8l0,0l0,0l0.5-0.7
				l-0.7,0.3l0,0l0,0c-0.2,0.1-0.4,0-0.5-0.1L-2.2-365.3 M-2.2-366.2c0.1,0,0.1,0,0.2,0l0.6,0.9h0.1l1.4-0.6
				c0.2-0.1,0.2,0.1,0.1,0.3l-1,1.5c0,0.1-0.1,0.2-0.1,0.2l0.2,1.2c0,0.1-0.1,0.3-0.2,0.3H-1l-1.2,0.1h-0.1c0,0-0.1,0-0.1,0.1
				l-1.2,1.3l-0.1,0.1c-0.1,0.1-0.2,0-0.2-0.1l0.2-1.5c0-0.1,0-0.1-0.1-0.1l-1-0.4c-0.1,0-0.1-0.3,0.1-0.4l1.4-1
				c0.1,0,0.1-0.1,0.1-0.2l0.6-1.6C-2.4-366.1-2.3-366.2-2.2-366.2z"/>
		</g>
		<g id="Path_758_2_" transform="translate(118.257 445.013)">
			<path class="st19" d="M-35.7-366.9l-1.1,0.1l0,0l0,0c-0.1,0-0.1,0-0.2,0.1c-0.1,0-0.1,0.1-0.2,0.1l0,0l0,0l-1.1,1.2l0.2-1.3
				c0-0.2,0-0.3-0.1-0.3l-0.9-0.3l1.2-0.9l0,0l0,0c0.2-0.1,0.3-0.3,0.3-0.4l0.6-1.4l0.6,0.8c0.1,0.1,0.2,0.1,0.3,0.1l0,0l0,0
				l1.2-0.5l-0.9,1.3l0,0l0,0c-0.1,0.2-0.2,0.4-0.1,0.5L-35.7-366.9z"/>
			<path class="st19" d="M-37-369.5l-0.3,0.8c-0.1,0.3-0.3,0.5-0.5,0.7l0,0l0,0l-0.7,0.5l0.5,0.2c0.2,0.1,0.3,0.3,0.2,0.5l-0.1,0.7
				l0.6-0.7l0,0l0,0c0.1-0.1,0.2-0.2,0.3-0.2c0.1-0.1,0.2-0.1,0.3-0.1l0,0l0,0h0.6l-0.1-0.6c0-0.2,0-0.5,0.2-0.8l0,0l0,0l0.5-0.7
				l-0.7,0.3l0,0l0,0c-0.2,0.1-0.4,0-0.5-0.1L-37-369.5 M-37-370.5c0.1,0,0.1,0,0.2,0l0.6,0.9h0.1l1.4-0.6c0.2-0.1,0.2,0.1,0.1,0.3
				l-1,1.5c0,0.1-0.1,0.2-0.1,0.2l0.2,1.2c0,0.1-0.1,0.3-0.2,0.3h-0.1l-1.2,0.1h-0.1c0,0-0.1,0-0.1,0.1l-1.2,1.3l-0.1,0.1
				c-0.1,0.1-0.2,0-0.2-0.1l0.2-1.5c0-0.1,0-0.1-0.1-0.1l-1-0.4c-0.1,0-0.1-0.3,0.1-0.4l1.4-1c0.1,0,0.1-0.1,0.1-0.2l0.6-1.6
				C-37.1-370.4-37.1-370.4-37-370.5z"/>
		</g>
		<g id="Path_759_2_" transform="translate(160.489 445.013)">
			<path class="st19" d="M-70.4-371.2l-1.1,0.1l0,0l0,0c-0.1,0-0.1,0-0.2,0.1s-0.1,0.1-0.2,0.1l0,0l0,0l-1.1,1.2l0.2-1.3
				c0-0.2,0-0.3-0.1-0.3l-0.9-0.3l1.2-0.9l0,0l0,0c0.2-0.1,0.3-0.3,0.3-0.4l0.6-1.4l0.6,0.8c0.1,0.1,0.2,0.1,0.3,0.1l0,0l0,0
				l1.2-0.5l-0.9,1.3l0,0l0,0c-0.1,0.2-0.2,0.4-0.1,0.5L-70.4-371.2z"/>
			<path class="st19" d="M-71.8-373.8l-0.3,0.8c-0.1,0.3-0.3,0.5-0.5,0.7l0,0l0,0l-0.7,0.5l0.5,0.2c0.2,0.1,0.3,0.3,0.2,0.5
				l-0.1,0.7l0.6-0.7l0,0l0,0c0.1-0.1,0.2-0.2,0.3-0.2c0.1-0.1,0.2-0.1,0.3-0.1l0,0l0,0h0.6L-71-372c0-0.2,0-0.5,0.2-0.8l0,0l0,0
				l0.5-0.7l-0.7,0.3l0,0l0,0c-0.2,0.1-0.4,0-0.5-0.1L-71.8-373.8 M-71.8-374.7c0.1,0,0.1,0,0.2,0l0.6,0.9h0.1l1.4-0.6
				c0.2-0.1,0.2,0.1,0.1,0.3l-1,1.5c0,0.1-0.1,0.2-0.1,0.2l0.2,1.2c0,0.1-0.1,0.3-0.2,0.3h-0.1l-1.2,0.1h-0.1c0,0-0.1,0-0.1,0.1
				l-1.2,1.3l-0.1,0.1c-0.1,0.1-0.2,0-0.2-0.1l0.2-1.5c0-0.1,0-0.1-0.1-0.1l-1-0.4c-0.1,0-0.1-0.3,0.1-0.4l1.4-1
				c0.1,0,0.1-0.1,0.1-0.2l0.6-1.6C-71.9-374.6-71.8-374.7-71.8-374.7z"/>
		</g>
		<g id="Path_760_2_" transform="translate(202.72 445.013)">
			<path class="st19" d="M-105.2-375.4l-1.1,0.1l0,0l0,0c-0.1,0-0.1,0-0.2,0.1c-0.1,0-0.1,0.1-0.2,0.1l0,0l0,0l-1.1,1.2l0.2-1.3
				c0-0.2,0-0.3-0.1-0.3l-0.9-0.3l1.2-0.9l0,0l0,0c0.2-0.1,0.3-0.3,0.3-0.4l0.6-1.4l0.6,0.8c0.1,0.1,0.2,0.1,0.3,0.1l0,0l0,0
				l1.2-0.5l-0.9,1.3l0,0l0,0c-0.1,0.2-0.2,0.4-0.1,0.5L-105.2-375.4z"/>
			<path class="st19" d="M-106.5-378.1l-0.3,0.8c-0.1,0.3-0.3,0.5-0.5,0.7l0,0l0,0l-0.7,0.5l0.5,0.2c0.2,0.1,0.3,0.3,0.2,0.5
				l-0.1,0.7l0.6-0.7l0,0l0,0c0.1-0.1,0.2-0.2,0.3-0.2c0.1-0.1,0.2-0.1,0.3-0.1l0,0l0,0h0.6l-0.1-0.6c0-0.2,0-0.5,0.2-0.8l0,0l0,0
				l0.5-0.7l-0.7,0.3l0,0l0,0c-0.2,0.1-0.4,0-0.5-0.1L-106.5-378.1 M-106.5-379c0.1,0,0.1,0,0.2,0l0.6,0.9h0.1l1.4-0.6
				c0.2-0.1,0.2,0.1,0.1,0.3l-1,1.5c0,0.1-0.1,0.2-0.1,0.2l0.2,1.2c0,0.1-0.1,0.3-0.2,0.3h-0.1l-1.2,0.1h-0.1c0,0-0.1,0-0.1,0.1
				l-1.2,1.3l-0.1,0.1c-0.1,0.1-0.2,0-0.2-0.1l0.2-1.5c0-0.1,0-0.1-0.1-0.1l-1-0.4c-0.1,0-0.1-0.3,0.1-0.4l1.4-1
				c0.1,0,0.1-0.1,0.1-0.2l0.6-1.6C-106.7-378.9-106.6-378.9-106.5-379z"/>
		</g>
		<g id="Path_757_2_" transform="translate(243.452 443.513)">
			<path class="st20" d="M-139.8-380.8l-0.3,0.8c-0.1,0.3-0.3,0.5-0.5,0.7l0,0l-0.7,0.5l0.5,0.2c0.2,0.1,0.3,0.3,0.2,0.5l-0.1,0.7
				l0.7-0.7l0,0c0.1-0.1,0.2-0.2,0.3-0.2c0.1-0.1,0.2-0.1,0.3-0.1l0,0h0.6l-0.1-0.6c0-0.2,0-0.5,0.2-0.8l0,0l0.5-0.7l-0.7,0.3l0,0
				c-0.2,0.1-0.4,0-0.5-0.1L-139.8-380.8 M-139.8-381.7c0.1,0,0.1,0,0.2,0l0.6,0.9h0.1l1.4-0.6c0.2-0.1,0.2,0.1,0.1,0.3l-1,1.5
				c0,0.1-0.1,0.2-0.1,0.2l0.2,1.2c0,0.1-0.1,0.3-0.2,0.3h-0.1l-1.2,0.1h-0.1c0,0-0.1,0-0.1,0.1l-1.2,1.3l-0.1,0.1
				c-0.1,0.1-0.2,0-0.2-0.1l0.2-1.5c0-0.1,0-0.1-0.1-0.1l-1-0.4c-0.1,0-0.1-0.3,0.1-0.4l1.4-1c0.1,0,0.1-0.1,0.1-0.2l0.6-1.6
				C-139.9-381.6-139.9-381.7-139.8-381.7z"/>
		</g>
	</g>
	<g id="Rectangle_36_2_" transform="translate(142.5 342.5)">
		<path class="st13" d="M-48.3-301.2l14.1-8.1c0.5-0.3,0.9-0.1,0.9,0.4v3.5c0,0.5-0.4,1.1-0.9,1.4l-14.1,8.1
			c-0.5,0.3-0.9,0.1-0.9-0.4v-3.5C-49.2-300.3-48.8-300.9-48.3-301.2z"/>
		<path class="st21" d="M-48.3-301.1l14.1-8.1c0.4-0.3,0.8-0.1,0.8,0.3v3.5c0,0.4-0.4,1-0.8,1.2l-14.1,8.1c-0.4,0.3-0.8,0.1-0.8-0.3
			v-3.5C-49.1-300.3-48.7-300.8-48.3-301.1z"/>
	</g>
	<g id="Rectangle_37_2_" transform="translate(42.5 342.5)">
		<path class="st13" d="M34-291.1l14.1-8.1c0.5-0.3,0.9-0.1,0.9,0.4v3.5c0,0.5-0.4,1.1-0.9,1.4L34-285.8c-0.5,0.3-0.9,0.1-0.9-0.4
			v-3.5C33.2-290.2,33.6-290.8,34-291.1z"/>
		<path class="st21" d="M34-291l14.1-8.1c0.4-0.3,0.8-0.1,0.8,0.3v3.5c0,0.4-0.4,1-0.8,1.2L34-285.9c-0.4,0.3-0.8,0.1-0.8-0.3v-3.5
			C33.2-290.2,33.6-290.7,34-291z"/>
	</g>
	<g id="Rectangle_38_2_" transform="translate(242.5 342.5)">
		<path class="st13" d="M-130.6-311.2l14.1-8.1c0.5-0.3,0.9-0.1,0.9,0.4v3.5c0,0.5-0.4,1.1-0.9,1.4l-14.1,8.1
			c-0.5,0.3-0.9,0.1-0.9-0.4v-3.5C-131.5-310.3-131.1-311-130.6-311.2z"/>
		<path class="st21" d="M-130.6-311.2l14.1-8.1c0.4-0.3,0.8-0.1,0.8,0.3v3.5c0,0.4-0.4,1-0.8,1.2l-14.1,8.1
			c-0.4,0.3-0.8,0.1-0.8-0.3v-3.5C-131.4-310.3-131-310.9-130.6-311.2z"/>
	</g>
	<text transform="matrix(1 -0.5702 0 1 96.1348 43.592)" class="st20 st22 st23">Aceptable</text>
	<text transform="matrix(1 -0.5702 0 1 78.4095 53.6989)" class="st20 st22 st23">Deficiente</text>
	<text transform="matrix(1 -0.5702 0 1 113.9356 33.442)" class="st20 st22 st23">Excelente</text>
	<text transform="matrix(1 -0.5702 0 1 85.6713 43.5729)" class="st24 st22 st25">¿Cómo calificarias tu viaje?</text>
	<text transform="matrix(1 -0.5702 0 1 82.5376 63.2006)" class="st24 st22 st25">¿Cómo calificarias al conductor?</text>
	<path id="Rectangle_Copy_2_" class="st26" d="M74.5,79.3l53.8-30.6c0.8-0.4,1.4-0.2,1.4,0.6v29.5c0,0.8-0.6,1.8-1.4,2.2l-53.8,30.6
		c-0.8,0.4-1.4,0.2-1.4-0.6V81.6C73.1,80.8,73.7,79.8,74.5,79.3z"/>
	<g>
		<g>
			<g id="Group_13_4_" transform="translate(26.313 566.5)">
				<path id="Rectangle-5_2_" class="st27" d="M47.4-450l55.1-31.4c0.5-0.3,0.9-0.1,0.9,0.4v8.8c0,0.5-0.4,1.1-0.9,1.4l-55.1,31.4
					c-0.5,0.3-0.9,0.1-0.9-0.4v-8.8C46.5-449.1,46.9-449.8,47.4-450z"/>
				<text transform="matrix(1 -0.5702 0 1 68.2083 -455.1286)" class="st13 st28 st29">Calificar</text>
			</g>
		</g>
	</g>
</g>
</svg>
