<?xml version="1.0" encoding="utf-8"?>
<!-- Generator: Adobe Illustrator 22.0.1, SVG Export Plug-In . SVG Version: 6.00 Build 0)  -->
<svg version="1.1" id="Layer_1" xmlns="http://www.w3.org/2000/svg" xmlns:xlink="http://www.w3.org/1999/xlink" x="0px" y="0px"
	 width="112px" height="39px" viewBox="0 0 112 39" style="enable-background:new 0 0 112 39;" xml:space="preserve">
<style type="text/css">
	.st0{fill:#FFFFFF;}
	.st1{fill:none;stroke:#4FBEA6;stroke-linecap:round;stroke-linejoin:round;stroke-miterlimit:10;}
	.st2{fill:none;stroke:#FFFFFF;stroke-width:2.0277;stroke-linecap:round;stroke-linejoin:round;stroke-miterlimit:10;}
	.st3{fill:#4FBEA6;}
</style>
<path id="Path_863_3_" class="st0" d="M76.3,4.5c-0.7-0.8-1.5-1.3-2.4-1.6c-1.2-0.1-2.3-0.2-3.5-0.2c-0.3,0-0.6,0.3-0.7,0.6
	c-0.1,0.4-0.3,0.8-0.3,1.2H76.3z"/>
<g id="Group_500_3_" transform="translate(13.916 17.575)">
	<path id="Path_864_3_" class="st0" d="M13.4,11.1c0,0,0,1.6,0.1,2.5c0,0.6,0.5,1.2,1.1,1.4c3.3,1,11.7,0.8,11.7,0.8v-0.9
		c0.2-3.3,2.5-6,6.4-6c3.3,0,5.8,2.7,5.6,6v0.9H79c0-0.3,0-0.6,0-0.8c0.2-3.4,2.5-6.2,6.7-6c3.1,0.2,5.5,2.9,5.3,6v0.4
		c1.2-0.2,2.4-0.4,3.5-0.8c0.4-0.2,0.8-0.6,1-0.9v-3.3c0-0.1-0.6-0.8-0.6-1c0-0.1,0.1-3.3,0-3.6c0-0.3-0.2-0.6-0.5-0.8
		c-1.3-1-2-1.4-4.3-2.6s-3.8-1.5-4.5-1.8c0,0-3.3-3.8-5.6-6.1c-1.9-2.1-4.1-4-6.4-5.7C71.7-12.4,70.5-13,69-13c-1.5-0.1-7-0.2-7-0.2
		c-2.7,0-37.2-0.2-38.9-0.2c-1.5-0.1-3,0-4.5,0.2c-0.8,0.1-1.2,0.2-1.5,0.7c-0.6,1.2-1.1,2.4-1.4,3.7C14.8-5.2,14.1-2,13.7,2
		C13.7,5.8,13.4,11.1,13.4,11.1z"/>
</g>
<path id="Path_865_3_" class="st1" d="M105.7,23.7"/>
<path class="st0" d="M99,27.9c-2.5,0-4.5,2-4.5,4.5s2,4.5,4.5,4.5s4.5-2,4.5-4.5S101.5,27.9,99,27.9z M99,34.8
	c-1.3,0-2.4-1.1-2.4-2.4S97.7,30,99,30s2.4,1.1,2.4,2.4C101.4,33.7,100.3,34.8,99,34.8z"/>
<path class="st0" d="M46.3,27.9c-2.5,0-4.5,2-4.5,4.5s2,4.5,4.5,4.5s4.5-2,4.5-4.5S48.8,27.9,46.3,27.9z M46.3,34.7
	c-1.3,0-2.4-1.1-2.4-2.4S45,30,46.3,30s2.4,1.1,2.4,2.4C48.7,33.7,47.6,34.7,46.3,34.7z"/>
<line id="Line_44_3_" class="st2" x1="23.3" y1="27.9" x2="15.3" y2="27.9"/>
<g id="Group_503_3_" transform="translate(2.222 10.204)">
	<line id="Line_46_3_" class="st2" x1="20.2" y1="7.9" x2="5.5" y2="7.9"/>
</g>
<line id="Line_54_3_" class="st2" x1="2.3" y1="7.1" x2="22.8" y2="7.1"/>
<g>
	<path class="st3" d="M39.3,15.5l2.5,5.6H39l-1.5-3.4l-2.7,3.4h-3l4.7-5.8L34,9.7h2.8l1.5,3.4L41,9.7h3L39.3,15.5z"/>
	<path class="st3" d="M45,9.7h4.5c1.9,0,3.2,1.3,3.2,3.3c0,2.6-2,4.5-4.4,4.5h-2.2l-0.6,3.6H43L45,9.7z M48.4,15
		c0.9,0,1.8-0.9,1.8-1.8c0-0.5-0.4-0.9-1.2-0.9h-2L46.5,15H48.4z"/>
	<path class="st3" d="M59.5,17.2l2,3.9h-2.7l-1.9-3.6h-1.3L55,21.1h-2.5l2.1-11.4h4.5c1.9,0,3.2,1.3,3.2,3.3
		C62.2,15,61.1,16.6,59.5,17.2z M56.1,15H58c0.9,0,1.8-0.9,1.8-1.8c0-0.5-0.4-0.9-1.2-0.9h-2L56.1,15z"/>
	<path class="st3" d="M66.7,12.3L66.4,14h4.8l-0.5,2.5h-4.8l-0.3,2h5.3L70.4,21h-7.8l2.1-11.4h7.8L72,12.3H66.7z"/>
	<path class="st3" d="M71.6,19.3l1.6-1.8c0.8,0.9,1.9,1.4,2.8,1.4c1.2,0,1.9-0.7,1.9-1.4c0-0.4-0.3-0.6-1.6-0.9
		c-1.9-0.5-3.2-1.1-3.2-3c0-2.3,1.8-4.1,4.4-4.1c1.4,0,2.8,0.6,3.7,1.6L79.7,13c-0.8-0.8-1.8-1.1-2.5-1.1c-1.1,0-1.7,0.7-1.7,1.4
		c0,0.5,0.4,0.6,1.6,1c2.2,0.6,3.2,1.3,3.2,3c0,2.5-2,4.1-4.6,4.1C74.1,21.3,72.5,20.5,71.6,19.3z"/>
	<path class="st3" d="M80.7,19.3l1.6-1.8c0.8,0.9,1.9,1.4,2.8,1.4c1.2,0,1.9-0.7,1.9-1.4c0-0.4-0.3-0.6-1.6-0.9
		c-1.9-0.5-3.2-1.1-3.2-3c0-2.3,1.8-4.1,4.4-4.1c1.4,0,2.8,0.6,3.7,1.6L88.9,13c-0.8-0.8-1.8-1.1-2.5-1.1c-1.1,0-1.7,0.7-1.7,1.4
		c0,0.5,0.4,0.6,1.6,1c2.2,0.6,3.2,1.3,3.2,3c0,2.5-2,4.1-4.6,4.1C83.3,21.3,81.7,20.5,80.7,19.3z"/>
</g>
</svg>
