<?xml version="1.0" encoding="utf-8"?>
<!-- Generator: Adobe Illustrator 23.0.3, SVG Export Plug-In . SVG Version: 6.00 Build 0)  -->
<svg version="1.1" id="Layer_1" xmlns="http://www.w3.org/2000/svg" xmlns:xlink="http://www.w3.org/1999/xlink" x="0px" y="0px"
	 width="114.8px" height="110.6px" viewBox="0 0 114.8 110.6" style="enable-background:new 0 0 114.8 110.6;" xml:space="preserve"
	>
<style type="text/css">
	
		.st0{opacity:0.7;fill:none;stroke:#2D414D;stroke-width:3.528;stroke-linecap:round;stroke-linejoin:round;stroke-miterlimit:10;enable-background:new    ;}
	.st1{fill:none;stroke:#2D414D;stroke-width:3.528;stroke-linecap:round;stroke-linejoin:round;stroke-miterlimit:10;}
	.st2{fill:#2D414D;}
</style>
<g id="icon-support" transform="translate(-13.436 -26.836)">
	<path id="Subtraction_1" class="st0" d="M107.8,113L107.8,113L90.9,98.6H62c-1.5,0-2.9-0.6-4-1.7c-1.1-1.1-1.7-2.6-1.6-4.2V80.9
		h23.4c3.1-0.1,5.7-2.7,5.6-5.8V46h35.5c3.1,0.1,5.7,2.7,5.6,5.8v41c0.1,3.1-2.5,5.7-5.6,5.8h-13.1V113z"/>
	<g id="Group_9">
		<path id="Path_5" class="st1" d="M79.8,80.9h-29L33.9,95.3V80.9H20.8c-3.1-0.1-5.7-2.7-5.6-5.8c0,0,0,0,0,0V34.2
			c-0.1-3.1,2.5-5.7,5.6-5.8c0,0,0,0,0,0h59c3.1,0.1,5.7,2.7,5.6,5.8c0,0,0,0,0,0v40.9C85.5,78.2,82.9,80.8,79.8,80.9
			C79.8,80.9,79.8,80.9,79.8,80.9z"/>
	</g>
	<ellipse id="Ellipse_2" class="st2" cx="30.8" cy="54.8" rx="4.9" ry="5.1"/>
	<ellipse id="Ellipse_3" class="st2" cx="50.3" cy="54.8" rx="4.9" ry="5.1"/>
	<ellipse id="Ellipse_4" class="st2" cx="69.8" cy="54.8" rx="4.9" ry="5.1"/>
</g>
</svg>
