<?xml version="1.0" encoding="utf-8"?>
<!-- Generator: Adobe Illustrator 24.0.0, SVG Export Plug-In . SVG Version: 6.00 Build 0)  -->
<svg version="1.1" id="Layer_1" xmlns="http://www.w3.org/2000/svg" xmlns:xlink="http://www.w3.org/1999/xlink" x="0px" y="0px"
	 width="140px" height="140px" viewBox="0 0 140 140" style="enable-background:new 0 0 140 140;" xml:space="preserve">
<style type="text/css">
	.st0{opacity:0.3;fill:#404041;enable-background:new    ;}
	.st1{fill:#231F20;}
	.st2{fill:#323031;}
	.st3{fill:#CCCCCC;}
	.st4{fill:#999999;}
	.st5{enable-background:new    ;}
	.st6{fill:#E6E6E6;}
	.st7{fill:#FFFFFF;}
	.st8{fill:#F5F5F5;}
	.st9{fill:#465E67;}
	.st10{fill:#C8D6DD;}
	.st11{fill:#809D99;}
	.st12{fill:#33484F;}
	.st13{fill:#BE1E2D;}
</style>
<g>
	<path class="st0" d="M136.6,102.4l-94-53.8L4.8,70.2c-2.9,1.7-2.9,5.9,0,7.6l90.9,52.3c2.4,1.4,5.3,1.3,7.6,0l33.3-19.2
		C139.9,109,139.9,104.3,136.6,102.4z"/>
	<path class="st1" d="M75.4,100.6c-1.7-1-3.2-1.1-4.3-0.4l-3.3,1.9c0,0,0,0,0,0c-1.1,0.6-1.8,2-1.8,3.9c0,3.8,2.8,8.4,6.2,10.3
		c1.9,1.1,3.1,1.1,4.2,0.6l3.3-1.9c1.1-0.6,1.8-2,1.8-3.9C81.4,107.2,78.7,102.5,75.4,100.6z"/>
	<g>
		<path class="st2" d="M78.7,112c-0.3-3.5-2.9-7.4-6.3-9.2c-3.1-1.7-5.9-0.9-6.9,1.6c-0.2,0.5-0.3,1-0.3,1.6c0,0.5,0,1.1,0.1,1.6
			c0.4,2.5,1.8,5.1,3.9,7c0.7,0.7,1.5,1.3,2.4,1.7c0.6,0.3,1.2,0.6,1.8,0.7c2.2,0.5,4.1-0.2,4.9-2c0.2-0.5,0.4-1.2,0.4-1.9
			C78.7,112.7,78.7,112.3,78.7,112z M71.5,114.4c-2.1-1.1-3.9-3.5-4.4-5.7c-0.1-0.5-0.2-1.1-0.1-1.6c0-0.6,0.2-1.1,0.4-1.6
			c0.8-1.4,2.6-1.8,4.7-0.7c2.2,1.2,4,3.6,4.4,5.9c0.1,0.5,0.1,1,0.1,1.4c0,0.6-0.2,1.2-0.5,1.6C75.4,115.2,73.6,115.5,71.5,114.4z"
			/>
		<path class="st3" d="M76.6,110.7c-0.4-2.3-2.2-4.8-4.4-5.9c-2-1.1-3.9-0.7-4.7,0.7c-0.2,0.4-0.4,0.9-0.4,1.6c0,0.5,0,1.1,0.1,1.6
			c0.5,2.3,2.2,4.6,4.4,5.7c2,1.1,3.8,0.7,4.7-0.7c0.3-0.4,0.4-1,0.5-1.6C76.7,111.7,76.7,111.2,76.6,110.7z M72.2,112.5
			c-0.9-0.5-1.7-1.3-2.3-2.3c-0.5-0.9-0.8-1.8-0.7-2.7c0-0.4,0.1-0.7,0.2-0.9c0.5-1.1,1.8-1.4,3.2-0.6c1.5,0.8,2.7,2.6,3,4.2
			c0,0.3,0.1,0.5,0,0.8c-0.1,0.9-0.5,1.6-1.2,1.8C73.8,113,73,112.9,72.2,112.5z"/>
		<path class="st4" d="M75.6,110.2c-0.2-1.6-1.4-3.4-3-4.2c-1.4-0.8-2.7-0.5-3.2,0.6c-0.1,0.3-0.2,0.6-0.2,0.9
			c-0.1,0.9,0.2,1.8,0.7,2.7c0.5,0.9,1.4,1.8,2.3,2.3c0.9,0.4,1.6,0.5,2.3,0.3c0.7-0.3,1.1-0.9,1.2-1.8
			C75.6,110.7,75.6,110.4,75.6,110.2z M72.6,110.4c-0.3,0.2-0.8,0-1.2-0.4c-0.3-0.5-0.4-1-0.1-1.2c0.3-0.2,0.8,0,1.2,0.4
			S72.9,110.2,72.6,110.4z"/>
		<path d="M71.4,109.9c0.3,0.5,0.9,0.7,1.2,0.4c0.3-0.2,0.3-0.8-0.1-1.2c-0.3-0.5-0.9-0.7-1.2-0.4C71.1,108.9,71.1,109.5,71.4,109.9
			z"/>
	</g>
	<path class="st1" d="M29.5,74c-1.7-1-3.2-1.1-4.3-0.4l-3.3,1.9c0,0,0,0,0,0c-1.1,0.6-1.8,2-1.8,3.9c0,3.8,2.8,8.4,6.2,10.3
		c1.9,1.1,3.1,1.1,4.2,0.6l3.3-1.9c1.1-0.6,1.8-2,1.8-3.9C35.6,80.7,32.9,76,29.5,74z"/>
	<g class="st5">
		<path class="st6" d="M98.9,107.4c-0.9-14.6-2.8-26.1-2.8-26.1L12.2,32.9l-1.6,4.3l-0.1,37.8l8.3,4.8c0-0.2,0-0.4,0-0.6
			c0-0.6,0.2-1.2,0.4-1.7c1-2.7,4-3.6,7.5-1.8c3.6,1.9,6.5,6.2,6.8,10c0,0.4,0.1,0.8,0,1.2c0,0.4-0.1,0.8-0.2,1.2l31.4,18.2
			c0-0.2,0-0.4,0-0.7c0-0.6,0.2-1.2,0.4-1.7c1-2.7,4-3.6,7.5-1.8c3.6,1.9,6.5,6.2,6.8,10c0,0.4,0.1,0.8,0,1.2c0,0.5-0.1,0.9-0.2,1.3
			L99,126.1C99,126.1,99.9,122,98.9,107.4z"/>
		<g>
			<path class="st7" d="M96,81.3l30.8-17.9c0,0,2.8,21.2,2.8,31.4s0,13.4,0,13.4s-1.8,3.3-12.5,9.4c-10.6,6.2-18.3,8.5-18.3,8.5
				s0-4.6,0-16.3C98.9,100.3,96,81.3,96,81.3z"/>
		</g>
		<g>
			<path class="st8" d="M12.3,32.9L43.1,15l83.8,48.4c0,0-2.5,3.4-12.8,9.3c-10.6,6-17.9,8.6-17.9,8.6L12.3,32.9z"/>
		</g>
		<g>
			<path class="st6" d="M10.5,63l0,11.9l8.3,4.8c0-0.2,0-0.4,0-0.6c0-0.6,0.2-1.2,0.4-1.7c1-2.7,4-3.6,7.5-1.8
				c3.6,1.9,6.5,6.2,6.8,10c0,0.4,0.1,0.8,0,1.2c0,0.4-0.1,0.8-0.2,1.2l31.4,18.2c0-0.2,0-0.4,0-0.7c0-0.6,0.2-1.2,0.4-1.7
				c1-2.7,4-3.6,7.5-1.8c3.6,1.9,6.5,6.2,6.8,10c0,0.4,0.1,0.8,0,1.2c0,0.5-0.1,0.9-0.2,1.3L99,126.1c0,0,0.6-2.8,0.3-11.8L10.5,63z
				"/>
			<path class="st6" d="M97.3,87.8c-0.6-5-1.1-6.5-1.1-6.5L12.2,32.9l-1.6,4.3l0,0.7L97.3,87.8z"/>
		</g>
	</g>
	<g>
		<path class="st2" d="M32.8,85.4c-0.3-3.5-2.9-7.4-6.3-9.2c-3.1-1.7-5.9-0.9-6.9,1.6c-0.2,0.5-0.3,1-0.3,1.6c0,0.5,0,1.1,0.1,1.6
			c0.4,2.5,1.8,5.1,3.9,7c0.7,0.7,1.5,1.3,2.4,1.7c0.6,0.3,1.2,0.6,1.8,0.7c2.2,0.5,4.1-0.2,4.9-2c0.2-0.5,0.4-1.2,0.4-1.9
			C32.9,86.2,32.9,85.8,32.8,85.4z M25.7,87.9c-2.1-1.1-3.9-3.5-4.4-5.7c-0.1-0.5-0.2-1.1-0.1-1.6c0-0.6,0.2-1.1,0.4-1.6
			c0.8-1.4,2.6-1.8,4.7-0.7c2.2,1.2,4,3.6,4.4,5.9c0.1,0.5,0.1,1,0.1,1.4c0,0.6-0.2,1.2-0.5,1.6C29.5,88.6,27.7,89,25.7,87.9z"/>
		<path class="st3" d="M30.7,84.2c-0.4-2.3-2.2-4.8-4.4-5.9c-2-1.1-3.9-0.7-4.7,0.7c-0.2,0.4-0.4,0.9-0.4,1.6c0,0.5,0,1.1,0.1,1.6
			c0.5,2.3,2.2,4.6,4.4,5.7c2,1.1,3.8,0.7,4.7-0.7c0.3-0.4,0.4-1,0.5-1.6C30.9,85.2,30.8,84.7,30.7,84.2z M26.3,86
			c-0.9-0.5-1.7-1.3-2.3-2.3c-0.5-0.9-0.8-1.8-0.7-2.7c0-0.4,0.1-0.7,0.2-0.9c0.5-1.1,1.8-1.4,3.2-0.6c1.5,0.8,2.7,2.6,3,4.2
			c0,0.3,0.1,0.5,0,0.8c-0.1,0.9-0.5,1.6-1.2,1.8C27.9,86.5,27.2,86.4,26.3,86z"/>
		<path class="st4" d="M29.7,83.6c-0.2-1.6-1.4-3.4-3-4.2c-1.4-0.8-2.7-0.5-3.2,0.6c-0.1,0.3-0.2,0.6-0.2,0.9
			c-0.1,0.9,0.2,1.8,0.7,2.7c0.5,0.9,1.4,1.8,2.3,2.3c0.9,0.4,1.6,0.5,2.3,0.3c0.7-0.3,1.1-0.9,1.2-1.8
			C29.8,84.2,29.8,83.9,29.7,83.6z M26.8,83.8c-0.3,0.2-0.8,0-1.2-0.4c-0.3-0.5-0.4-1-0.1-1.2c0.3-0.2,0.8,0,1.2,0.4
			S27.1,83.6,26.8,83.8z"/>
		<path d="M25.6,83.4c0.3,0.5,0.9,0.7,1.2,0.4c0.3-0.2,0.3-0.8-0.1-1.2c-0.3-0.5-0.9-0.7-1.2-0.4C25.2,82.4,25.2,82.9,25.6,83.4z"/>
	</g>
	<g>
		<polygon class="st9" points="79,78.8 79,93.7 13.7,56.1 13.7,41.2 		"/>
	</g>
	<g>
		<polygon class="st9" points="92.9,86.9 92.9,121.4 81,114.6 81,80 		"/>
	</g>
	<path class="st10" d="M104.3,118.2c0-0.4-0.2-0.7-0.5-0.9c-0.3-0.2-0.8-0.2-1.3,0.1c-0.6,0.3-1,0.8-1.3,1.4
		c-0.2,0.4-0.3,0.8-0.3,1.2c0.1,0.9,0.9,1.3,1.8,0.8C103.6,120.3,104.3,119.2,104.3,118.2z"/>
	<path class="st10" d="M106.9,117.6c0-0.2-0.1-0.4-0.3-0.5c-0.2-0.1-0.4-0.1-0.7,0c-0.3,0.2-0.6,0.4-0.7,0.8
		c-0.1,0.2-0.2,0.4-0.1,0.6c0,0.5,0.5,0.7,1,0.4C106.5,118.7,106.9,118.1,106.9,117.6z"/>
	<path class="st10" d="M128.4,105.7c0-0.4-0.2-0.7-0.5-0.9c-0.3-0.2-0.8-0.2-1.3,0.1c-0.6,0.3-1,0.8-1.3,1.4
		c-0.2,0.4-0.3,0.8-0.3,1.2c0.1,0.9,0.9,1.3,1.8,0.8C127.7,107.8,128.4,106.7,128.4,105.7z"/>
	<path class="st10" d="M124.1,109c0-0.2-0.1-0.4-0.3-0.5c-0.2-0.1-0.4-0.1-0.7,0c-0.3,0.2-0.6,0.4-0.7,0.8c-0.1,0.2-0.2,0.4-0.1,0.6
		c0,0.5,0.5,0.7,1,0.4C123.7,110.1,124.1,109.5,124.1,109z"/>
	<path class="st10" d="M99.2,115c0,0,8.2-0.3,18-5.3s12.1-10.5,12.1-10.5s-3.7,5.6-12.4,10C108.5,113.5,99.2,115,99.2,115z"/>
	<path class="st7" d="M118.7,112.2L118.7,112.2l-4.3,2.5l-0.3,0.2c-0.1,0.1-0.2,0.2-0.2,0.3v1.6c0,0.2,0.3,0.4,0.5,0.3l4.6-2.6
		c0.1-0.1,0.2-0.2,0.2-0.3v-1.6C119.2,112.2,119,112.1,118.7,112.2z"/>
	<path class="st9" d="M126.2,65.2c0,0-2.4,3.3-12.3,8.9c-10.2,5.8-17.2,8.2-17.2,8.2s1.8,8,2.9,29c11-2.4,21.7-6.4,29.2-15.2
		C128.9,81.4,126.2,65.2,126.2,65.2z"/>
	<path class="st11" d="M127.8,93.1L117,86.9V74l4.5-3.1l4.5,2.3c0,0,1.2,4.4,1.5,10.6C127.9,90,127.8,93.1,127.8,93.1z"/>
	<path class="st12" d="M99.7,108.6c-0.7-14.3-1.8-22.6-2.4-26.4c-0.3,0.1-0.5,0.2-0.5,0.2s1.8,8,2.9,29c11-2.4,21.7-6.4,29.2-15.2
		c0-0.9,0-1.8,0-2.7C121.3,102.1,110.6,106.2,99.7,108.6z"/>
	<polygon class="st13" points="11.3,65.7 10.5,65.7 10.5,72.1 10.5,72.1 11,72.1 11.8,71.6 11.8,71.3 11.8,66.5 	"/>
	<g>
		<polygon class="st12" points="87.4,83.7 87.4,118.2 86.2,117.5 86.2,83 		"/>
	</g>
	<g>
		<polygon class="st12" points="63.8,70.1 63.8,85 62.6,84.3 62.6,69.4 		"/>
	</g>
	<g>
		<polygon class="st12" points="29,50 29,64.9 27.9,64.2 27.9,49.4 		"/>
	</g>
	<g>
		<polygon class="st12" points="46.9,60.4 46.9,75.2 45.7,74.6 45.7,59.7 		"/>
	</g>
	<g>
		<polygon class="st11" points="115.6,74.3 115.6,84 107,79 		"/>
	</g>
	<g>
		<path class="st12" d="M97.7,88.1c0.6,4.6,1.4,12.1,1.9,23.2c0.1,0,0.2,0,0.2-0.1C99.2,99.3,98.3,91.9,97.7,88.1z"/>
		<path class="st12" d="M114.3,76.7c9.9-5.6,12.3-8.9,12.3-8.9s0.1,0.6,0.2,1.6c-0.4-2.6-0.6-4.2-0.6-4.2s-2.4,3.3-12.3,8.9
			c-10.2,5.8-17.2,8.2-17.2,8.2s0.2,0.8,0.5,2.6C98.1,84.6,104.8,82.1,114.3,76.7z"/>
	</g>
	<g>
		<path class="st10" d="M33.4,32.8l0.4-0.4l9.6-5.6L56,34.1l0.5,0.4c0,0-0.8,1-4.2,3c-3.5,2-5.9,2.8-5.9,2.8L33.4,32.8z"/>
	</g>
	<g>
		<path class="st7" d="M34.1,32.5l9.3-5.4l12.4,7.1c0,0-0.8,1.1-4,2.9c-3.3,1.9-5.3,2.5-5.3,2.5L34.1,32.5z"/>
	</g>
	<g>
		<path class="st10" d="M76.8,57.3l0.4-0.4l9.6-5.6l12.6,7.2l0.5,0.4c0,0-0.8,1-4.2,3c-3.5,2-5.9,2.8-5.9,2.8L76.8,57.3z"/>
	</g>
	<g>
		<path class="st7" d="M77.5,57l9.3-5.4l12.4,7.1c0,0-0.8,1.1-4,2.9c-3.3,1.9-5.3,2.5-5.3,2.5L77.5,57z"/>
	</g>
</g>
</svg>
