<?xml version="1.0" encoding="utf-8"?>
<!-- Generator: Adobe Illustrator 20.0.0, SVG Export Plug-In . SVG Version: 6.00 Build 0)  -->
<svg version="1.1" id="Layer_1" xmlns="http://www.w3.org/2000/svg" xmlns:xlink="http://www.w3.org/1999/xlink" x="0px" y="0px"
	 viewBox="0 0 50 50" style="enable-background:new 0 0 50 50;" xml:space="preserve">
<style type="text/css">
	.st0{fill:none;stroke:#231F20;stroke-width:2.6996;stroke-linecap:round;stroke-linejoin:round;stroke-miterlimit:10;}
	.st1{enable-background:new    ;}
	.st2{fill:#231F20;}
</style>
<g>
	<circle class="st0" cx="24.4" cy="25.5" r="21.9"/>
	<g class="st1">
		<path class="st2" d="M30,24.8c0.6,0.8,0.9,1.8,0.9,3c0,1.7-0.6,3-1.8,3.9c-1.2,1-2.9,1.4-5,1.4c-1.3,0-2.5-0.2-3.7-0.6
			c-1.2-0.4-2.2-0.9-2.9-1.6l1.2-2.5c1.7,1.3,3.4,2,5.3,2c1.2,0,2.1-0.2,2.7-0.7c0.6-0.5,0.9-1.2,0.9-2.2c0-1-0.3-1.7-0.9-2.1
			c-0.6-0.5-1.5-0.7-2.8-0.7h-2.5v-2.8h2.1c2.5,0,3.7-0.9,3.7-2.8c0-0.9-0.3-1.5-0.8-2c-0.5-0.5-1.3-0.7-2.3-0.7
			c-0.8,0-1.7,0.2-2.6,0.5c-0.9,0.3-1.7,0.8-2.6,1.5l-1.2-2.5c0.8-0.7,1.7-1.2,2.9-1.6c1.2-0.4,2.4-0.6,3.6-0.6
			c1.9,0,3.4,0.5,4.5,1.4c1.1,0.9,1.7,2.1,1.7,3.7c0,1.1-0.3,2-0.8,2.8c-0.5,0.8-1.3,1.3-2.2,1.7C28.5,23.4,29.4,24,30,24.8z"/>
	</g>
</g>
</svg>
