<?xml version="1.0" encoding="utf-8"?>
<!-- Generator: Adobe Illustrator 23.0.3, SVG Export Plug-In . SVG Version: 6.00 Build 0)  -->
<svg version="1.1" id="Layer_1" xmlns="http://www.w3.org/2000/svg" xmlns:xlink="http://www.w3.org/1999/xlink" x="0px" y="0px"
	 width="140px" height="140px" viewBox="0 0 140 140" style="enable-background:new 0 0 140 140;" xml:space="preserve">
<style type="text/css">
	.st0{fill:#F1F1F2;}
	.st1{fill:#4B6ABB;}
	.st2{fill:#E8E8E8;}
	.st3{fill:#BBBDBF;}
	.st4{fill:#93A6D6;}
	.st5{fill:#6F88C8;}
	.st6{fill:#CFCFCF;}
	.st7{enable-background:new    ;}
	.st8{fill:#2D2A2B;}
	.st9{fill:#231F20;}
</style>
<g>
	<g>
		<polygon class="st0" points="60.8,27 44.7,17.8 84.2,9.9 100.2,19.1 		"/>
	</g>
	<g>
		<path class="st1" d="M100.2,19.1c0.3,3.4,4.8,67.5-39.1,109.9c0,0,0,0,0,0c-44,8.4-39.9-60.7-39.7-64.4L60.8,27L100.2,19.1z"/>
	</g>
	<g>
		<polygon class="st2" points="21.5,64.6 5.3,55.3 44.7,17.8 60.8,27 		"/>
	</g>
	<g>
		<path class="st3" d="M40.7,126.3l-16-9.3C2.4,104,5.1,58.3,5.3,55.3l16,9.3C21.3,67.6,18.6,113.3,40.7,126.3"/>
	</g>
	<g>
		<path class="st4" d="M60.9,50.7L82,46.5c0.1,1.8,2.5,36.1-21,58.8c-23.5,4.5-21.2-32.5-21.2-34.5L60.9,50.7z"/>
	</g>
	<g>
		<path class="st5" d="M90.6,33.6c0.2,2.5,3.5,51-29.5,82.9C27.9,122.8,31,70.7,31.2,67.9l29.7-28.4L90.6,33.6z M61,105.3
			c23.5-22.6,21.1-56.9,21-58.8l-21.1,4.2L39.8,70.8C39.7,72.8,37.5,109.8,61,105.3"/>
	</g>
</g>
<g>
	<polygon class="st6" points="119.4,64.7 134,73.6 134,57.3 119.4,48.4 	"/>
	<polygon class="st3" points="135.5,72.8 134,73.6 134,57.3 135.5,56.4 	"/>
	<polygon class="st2" points="120.9,47.6 135.5,56.4 134,57.3 119.4,48.4 	"/>
	<polygon class="st3" points="132.1,63.9 103.3,77.5 103.3,79.8 132.1,66.6 	"/>
	<polygon class="st2" points="132.1,63.9 103.3,77.5 98.4,74.4 120.9,57.3 	"/>
	<path class="st6" d="M91.9,81.7c0,0,1.6,2.3,5.5,2.3s5.9-2.3,5.9-2.3V66.5l-10.9,1.2L91.9,81.7z"/>
	<g>
		<g class="st7">
			<g>
				<polygon class="st6" points="85.2,67.4 85.2,80.5 83.4,81.6 71.4,74.6 70.2,72.1 70.3,58.9 71.9,57.7 83.5,64.4 				"/>
			</g>
			<g>
				<polygon class="st3" points="85.2,67.5 115.1,50.1 115,63.1 85.2,80.5 				"/>
			</g>
			<g>
				<polygon class="st2" points="71.9,57.7 101.8,40.4 113.3,47 83.5,64.4 				"/>
			</g>
			<polygon class="st0" points="83.5,64.4 85.2,67.5 115.1,50.1 113.3,47 			"/>
		</g>
	</g>
	<g>
		<path class="st8" d="M83.4,67.3v9.9c0,1-1.1,1.6-1.9,1.1l-8.6-5C72.3,73,72,72.4,72,71.7v-9.9c0-1,1.1-1.6,1.9-1.1l8.6,5
			C83.1,66.1,83.4,66.7,83.4,67.3z"/>
	</g>
	<ellipse transform="matrix(0.9367 -0.3502 0.3502 0.9367 -19.4502 31.6211)" class="st9" cx="77.7" cy="69.6" rx="3.4" ry="5.8"/>
	<ellipse transform="matrix(0.9367 -0.3502 0.3502 0.9367 -19.4502 31.6211)" class="st8" cx="77.7" cy="69.6" rx="2.6" ry="4.4"/>
	<ellipse transform="matrix(0.9367 -0.3502 0.3502 0.9367 -19.4502 31.6211)" class="st9" cx="77.7" cy="69.6" rx="1.8" ry="3.2"/>
	<ellipse transform="matrix(0.9367 -0.3502 0.3502 0.9367 -19.4502 31.6211)" class="st3" cx="77.7" cy="69.6" rx="0.6" ry="1"/>
</g>
</svg>
