<?xml version="1.0" encoding="utf-8"?>
<!-- Generator: Adobe Illustrator 23.0.3, SVG Export Plug-In . SVG Version: 6.00 Build 0)  -->
<svg version="1.1" id="Layer_1" xmlns="http://www.w3.org/2000/svg" xmlns:xlink="http://www.w3.org/1999/xlink" x="0px" y="0px"
	 width="140px" height="140px" viewBox="0 0 140 140" style="enable-background:new 0 0 140 140;" xml:space="preserve">
<style type="text/css">
	.st0{enable-background:new    ;}
	.st1{clip-path:url(#SVGID_2_);enable-background:new    ;}
	.st2{fill:#3C9886;}
	.st3{fill:#3B9483;}
	.st4{fill:#399080;}
	.st5{fill:#388D7C;}
	.st6{fill:#368979;}
	.st7{fill:#358576;}
	.st8{fill:#338172;}
	.st9{fill:#327D6F;}
	.st10{fill:#307A6C;}
	.st11{fill:#2F7668;}
	.st12{fill:#2D7265;}
	.st13{fill:#2C6E61;}
	.st14{fill:#2A6A5E;}
	.st15{fill:#29675B;}
	.st16{fill:#276357;}
	.st17{clip-path:url(#SVGID_4_);enable-background:new    ;}
	.st18{clip-path:url(#SVGID_6_);enable-background:new    ;}
	.st19{fill:#F1F1F2;}
	.st20{clip-path:url(#SVGID_8_);enable-background:new    ;}
	.st21{fill:#165E96;}
	.st22{fill:#155B92;}
	.st23{fill:#15598E;}
	.st24{fill:#14578A;}
	.st25{fill:#135487;}
	.st26{fill:#135283;}
	.st27{fill:#12507F;}
	.st28{fill:#124D7B;}
	.st29{fill:#114B78;}
	.st30{fill:#114974;}
	.st31{clip-path:url(#SVGID_10_);enable-background:new    ;}
	.st32{fill:#B33029;}
	.st33{clip-path:url(#SVGID_12_);enable-background:new    ;}
	.st34{fill:#EE4036;}
	.st35{fill:#404041;}
</style>
<g>
	<g class="st0">
		<g class="st0">
			<defs>
				<path id="SVGID_1_" class="st0" d="M61.6,109.7C81,98.5,96.7,71.3,96.7,48.9c3.2,1.8,6.3,3.7,9.5,5.5
					c0.1,22.3-15.6,49.6-35.1,60.8C68.2,113.6,64.4,111.4,61.6,109.7z"/>
			</defs>
			<clipPath id="SVGID_2_">
				<use xlink:href="#SVGID_1_"  style="overflow:visible;"/>
			</clipPath>
			<g class="st1">
				<path class="st2" d="M71.1,115.3l-9.5-5.5c4.1-2.4,8.1-5.5,11.8-9.1l9.5,5.5C79.2,109.8,75.2,112.9,71.1,115.3"/>
				<path class="st3" d="M82.9,106.1l-9.5-5.5c1.3-1.3,2.6-2.7,3.8-4.1l9.5,5.5C85.5,103.5,84.2,104.8,82.9,106.1"/>
				<path class="st4" d="M86.7,102l-9.5-5.5c1-1.1,1.9-2.3,2.9-3.5l9.5,5.5C88.6,99.8,87.7,100.9,86.7,102"/>
				<path class="st5" d="M89.6,98.6L80,93c0.8-1,1.6-2.1,2.3-3.2l9.5,5.5C91.1,96.5,90.4,97.5,89.6,98.6"/>
				<path class="st6" d="M91.9,95.4l-9.5-5.5c0.7-1,1.4-2,2-3l9.5,5.5C93.3,93.4,92.6,94.4,91.9,95.4"/>
				<path class="st7" d="M93.9,92.3l-9.5-5.5c0.6-1,1.2-2,1.8-3l9.5,5.5C95.2,90.4,94.6,91.4,93.9,92.3"/>
				<path class="st8" d="M95.8,89.4l-9.5-5.5c0.6-1,1.1-2,1.7-3l9.5,5.5C96.9,87.4,96.3,88.4,95.8,89.4"/>
				<path class="st9" d="M97.4,86.4l-9.5-5.5c0.5-1,1-2,1.5-3l9.5,5.5C98.4,84.4,97.9,85.4,97.4,86.4"/>
				<path class="st10" d="M98.9,83.4l-9.5-5.5c0.5-1,1-2,1.4-3.1l9.5,5.5C99.9,81.4,99.4,82.4,98.9,83.4"/>
				<path class="st11" d="M100.3,80.4l-9.5-5.5c0.5-1,0.9-2.1,1.3-3.2l9.5,5.5C101.2,78.3,100.8,79.3,100.3,80.4"/>
				<path class="st12" d="M101.6,77.2l-9.5-5.5c0.4-1.1,0.8-2.2,1.2-3.3l9.5,5.5C102.4,75,102,76.1,101.6,77.2"/>
				<path class="st13" d="M102.8,73.9l-9.5-5.5c0.4-1.2,0.8-2.4,1.1-3.6l9.5,5.5C103.6,71.5,103.2,72.7,102.8,73.9"/>
				<path class="st14" d="M103.9,70.3l-9.5-5.5c0.4-1.3,0.7-2.7,1-4l9.5,5.5C104.6,67.6,104.3,68.9,103.9,70.3"/>
				<path class="st15" d="M104.9,66.2l-9.5-5.5c0.3-1.6,0.6-3.3,0.8-4.9l9.5,5.5C105.5,63,105.2,64.6,104.9,66.2"/>
				<path class="st16" d="M105.7,61.4l-9.5-5.5c0.3-2.3,0.5-4.6,0.5-6.9c0-11.1-4-18.9-10.3-22.6l9.5,5.5
					c6.3,3.7,10.2,11.5,10.3,22.6C106.2,56.7,106,59,105.7,61.4"/>
			</g>
		</g>
		<g class="st0">
			<defs>
				<path id="SVGID_3_" class="st0" d="M36.5,112.2c6.4,3.7,15.3,3.2,25.1-2.5l9.5,5.5c-9.8,5.6-18.6,6.2-25.1,2.5
					C43.2,116,39.4,113.8,36.5,112.2z"/>
			</defs>
			<clipPath id="SVGID_4_">
				<use xlink:href="#SVGID_3_"  style="overflow:visible;"/>
			</clipPath>
			<g class="st17">
				<path class="st11" d="M46,117.7l-9.5-5.5c0.1,0,0.1,0.1,0.2,0.1l9.5,5.5C46.2,117.8,46.1,117.7,46,117.7"/>
				<path class="st10" d="M46.2,117.8l-9.5-5.5c0.6,0.3,1.2,0.6,1.8,0.9l9.5,5.5C47.4,118.4,46.8,118.1,46.2,117.8"/>
				<path class="st9" d="M48,118.7l-9.5-5.5c0.6,0.3,1.2,0.5,1.9,0.7l9.5,5.5C49.2,119.2,48.6,118.9,48,118.7"/>
				<path class="st8" d="M49.9,119.3l-9.5-5.5c0.6,0.2,1.3,0.3,2,0.5l9.5,5.5C51.2,119.7,50.5,119.5,49.9,119.3"/>
				<path class="st7" d="M51.8,119.8l-9.5-5.5c0.7,0.1,1.4,0.2,2.1,0.2L54,120C53.2,120,52.5,119.9,51.8,119.8"/>
				<path class="st6" d="M54,120l-9.5-5.5c0.8,0,1.5,0.1,2.3,0l9.5,5.5C55.5,120.1,54.7,120.1,54,120"/>
				<path class="st5" d="M56.3,120.1l-9.5-5.5c0.9,0,1.7-0.1,2.6-0.3l9.5,5.5C58,119.9,57.2,120,56.3,120.1"/>
				<path class="st4" d="M58.9,119.8l-9.5-5.5c1-0.2,2-0.4,3.1-0.7l9.5,5.5C61,119.4,59.9,119.6,58.9,119.8"/>
				<path class="st3" d="M62,119.1l-9.5-5.5c1.4-0.4,2.7-0.8,4.1-1.4l9.5,5.5C64.8,118.3,63.4,118.8,62,119.1"/>
				<path class="st2" d="M66.2,117.7l-9.5-5.5c1.6-0.7,3.3-1.5,4.9-2.5l9.5,5.5C69.4,116.2,67.8,117,66.2,117.7"/>
			</g>
		</g>
		<g class="st0">
			<defs>
				<path id="SVGID_5_" class="st0" d="M96.7,48.9c0-11.1-4-18.9-10.3-22.6l9.5,5.5c6.3,3.7,10.2,11.5,10.3,22.6
					C103,52.6,99.8,50.8,96.7,48.9z"/>
			</defs>
			<clipPath id="SVGID_6_">
				<use xlink:href="#SVGID_5_"  style="overflow:visible;"/>
			</clipPath>
			<g class="st18">
				<path class="st16" d="M105.7,61.4l-9.5-5.5c0.3-2.3,0.5-4.6,0.5-6.9c0-11.1-4-18.9-10.3-22.6l9.5,5.5
					c6.3,3.7,10.2,11.5,10.3,22.6C106.2,56.7,106,59,105.7,61.4"/>
			</g>
		</g>
		<g>
			<path class="st19" d="M70.9,34.3c19.4-11.2,35.3-2.2,35.3,20.2c0.1,22.3-15.6,49.6-35.1,60.8s-35.3,2.2-35.3-20.1
				C35.7,72.8,51.4,45.5,70.9,34.3z"/>
		</g>
		<g class="st0">
			<defs>
				<path id="SVGID_7_" class="st0" d="M86.4,26.3l9.5,5.5c-6.4-3.7-15.3-3.2-25,2.4l-9.5-5.5C71.1,23.1,80,22.6,86.4,26.3z"/>
			</defs>
			<clipPath id="SVGID_8_">
				<use xlink:href="#SVGID_7_"  style="overflow:visible;"/>
			</clipPath>
			<g class="st20">
				<path class="st21" d="M70.9,34.3l-9.5-5.5c1.7-1,3.3-1.8,4.9-2.4l9.5,5.5C74.2,32.5,72.5,33.4,70.9,34.3"/>
				<path class="st22" d="M75.8,31.9l-9.5-5.5c1.4-0.6,2.8-1.1,4.1-1.4l9.5,5.5C78.6,30.8,77.2,31.3,75.8,31.9"/>
				<path class="st23" d="M79.9,30.4l-9.5-5.5c1.1-0.3,2.1-0.5,3.1-0.7l9.5,5.5C82,29.9,81,30.2,79.9,30.4"/>
				<path class="st24" d="M83,29.8l-9.5-5.5c0.9-0.1,1.8-0.2,2.6-0.3l9.5,5.5C84.8,29.6,83.9,29.6,83,29.8"/>
				<path class="st25" d="M85.6,29.5L76.1,24c0.8,0,1.6,0,2.3,0l9.5,5.5C87.2,29.5,86.4,29.5,85.6,29.5"/>
				<path class="st26" d="M88,29.5L78.5,24c0.7,0,1.4,0.1,2.1,0.2l9.5,5.5C89.4,29.7,88.7,29.6,88,29.5"/>
				<path class="st27" d="M90.1,29.8l-9.5-5.5c0.7,0.1,1.3,0.3,2,0.5l9.5,5.5C91.4,30.1,90.8,29.9,90.1,29.8"/>
				<path class="st28" d="M92.1,30.2l-9.5-5.5c0.6,0.2,1.3,0.4,1.9,0.7l9.5,5.5C93.3,30.6,92.7,30.4,92.1,30.2"/>
				<path class="st29" d="M93.9,30.9l-9.5-5.5c0.6,0.3,1.2,0.5,1.8,0.9l9.5,5.5C95.1,31.4,94.5,31.2,93.9,30.9"/>
				<path class="st30" d="M95.7,31.8l-9.5-5.5c0.1,0,0.1,0.1,0.2,0.1l9.5,5.5C95.8,31.8,95.8,31.8,95.7,31.8"/>
			</g>
		</g>
		<g>
			<defs>
				<path id="SVGID_9_" d="M90.8,18.8l9.5,5.5c-7.5-4.4-18-3.8-29.5,2.9l-9.5-5.5C72.8,15,83.3,14.4,90.8,18.8z"/>
			</defs>
			<use xlink:href="#SVGID_9_"  style="overflow:visible;fill:#B33029;"/>
			<clipPath id="SVGID_10_">
				<use xlink:href="#SVGID_9_"  style="overflow:visible;"/>
			</clipPath>
			<g class="st31">
				<path class="st32" d="M70.8,27.2l-9.5-5.5c2-1.1,3.9-2.1,5.8-2.9l9.5,5.5C74.7,25.1,72.8,26.1,70.8,27.2"/>
				<path class="st32" d="M76.6,24.3l-9.5-5.5c1.7-0.7,3.3-1.2,4.9-1.7l9.5,5.5C79.9,23.1,78.3,23.6,76.6,24.3"/>
				<path class="st32" d="M81.5,22.6L72,17.1c1.2-0.3,2.5-0.6,3.6-0.8l9.5,5.5C84,22,82.8,22.3,81.5,22.6"/>
				<path class="st32" d="M85.2,21.9l-9.5-5.5c1.1-0.2,2.1-0.3,3.1-0.3l9.5,5.5C87.2,21.6,86.2,21.7,85.2,21.9"/>
				<path class="st32" d="M88.3,21.5L78.7,16c0.9,0,1.8,0,2.7,0l9.5,5.5C90.1,21.5,89.2,21.5,88.3,21.5"/>
				<path class="st32" d="M91,21.6L81.5,16c0.9,0.1,1.7,0.2,2.5,0.3l9.5,5.5C92.7,21.7,91.8,21.6,91,21.6"/>
				<path class="st32" d="M93.5,21.9L84,16.3c0.8,0.1,1.6,0.3,2.3,0.5l9.5,5.5C95.1,22.2,94.3,22,93.5,21.9"/>
				<path class="st32" d="M95.8,22.4l-9.5-5.5c0.7,0.2,1.5,0.5,2.2,0.8l9.5,5.5C97.3,22.9,96.6,22.6,95.8,22.4"/>
				<path class="st32" d="M98,23.2l-9.5-5.5c0.7,0.3,1.4,0.6,2.1,1l9.5,5.5C99.4,23.8,98.7,23.5,98,23.2"/>
				<path class="st32" d="M100.1,24.2l-9.5-5.5c0.1,0,0.2,0.1,0.2,0.1l9.5,5.5C100.2,24.3,100.2,24.2,100.1,24.2"/>
			</g>
		</g>
		<g>
			<defs>
				<path id="SVGID_11_" d="M41.7,125.3l-9.5-5.5c-7.4-4.3-12-13.5-12.1-26.6C20,66.9,38.5,34.9,61.3,21.7l9.5,5.5
					C48,40.4,29.5,72.4,29.6,98.7C29.6,111.8,34.2,120.9,41.7,125.3z"/>
			</defs>
			<use xlink:href="#SVGID_11_"  style="overflow:visible;fill:#B33029;"/>
			<clipPath id="SVGID_12_">
				<use xlink:href="#SVGID_11_"  style="overflow:visible;"/>
			</clipPath>
			<g class="st33">
				<path class="st32" d="M41.7,125.3l-9.5-5.5c-7.4-4.3-12-13.5-12.1-26.6c0-2.7,0.2-5.4,0.5-8.1l9.5,5.5c-0.4,2.7-0.5,5.5-0.5,8.1
					C29.6,111.8,34.2,120.9,41.7,125.3"/>
				<path class="st32" d="M30.1,90.6l-9.5-5.5c0.2-1.9,0.6-3.8,1-5.7l9.5,5.5C30.7,86.8,30.4,88.7,30.1,90.6"/>
				<path class="st32" d="M31.1,84.8l-9.5-5.5c0.3-1.6,0.7-3.2,1.2-4.8l9.5,5.5C31.8,81.7,31.4,83.3,31.1,84.8"/>
				<path class="st32" d="M32.3,80.1l-9.5-5.5c0.4-1.4,0.8-2.8,1.3-4.2l9.5,5.5C33.1,77.3,32.7,78.7,32.3,80.1"/>
				<path class="st32" d="M33.6,75.9L24,70.3c0.4-1.3,0.9-2.6,1.4-3.9l9.5,5.5C34.5,73.2,34,74.6,33.6,75.9"/>
				<path class="st32" d="M35,71.9l-9.5-5.5c0.5-1.2,1-2.5,1.5-3.7l9.5,5.5C35.9,69.5,35.4,70.7,35,71.9"/>
				<path class="st32" d="M36.5,68.2L27,62.7c0.5-1.2,1.1-2.4,1.6-3.6l9.5,5.5C37.5,65.8,37,67,36.5,68.2"/>
				<path class="st32" d="M38.1,64.6l-9.5-5.5c0.6-1.2,1.2-2.4,1.8-3.5l9.5,5.5C39.3,62.3,38.7,63.5,38.1,64.6"/>
				<path class="st32" d="M39.9,61.1l-9.5-5.5c0.6-1.2,1.3-2.3,1.9-3.5l9.5,5.5C41.2,58.8,40.5,59.9,39.9,61.1"/>
				<path class="st32" d="M41.8,57.6l-9.5-5.5c0.7-1.2,1.4-2.3,2.1-3.5l9.5,5.5C43.2,55.3,42.5,56.5,41.8,57.6"/>
				<path class="st32" d="M44,54.1l-9.5-5.5c0.8-1.2,1.6-2.4,2.4-3.6l9.5,5.5C45.6,51.7,44.8,52.9,44,54.1"/>
				<path class="st32" d="M46.4,50.6L36.9,45c0.9-1.3,1.8-2.5,2.8-3.7l9.5,5.5C48.2,48,47.3,49.3,46.4,50.6"/>
				<path class="st32" d="M49.1,46.8l-9.5-5.5c1.1-1.4,2.2-2.8,3.4-4.1l9.5,5.5C51.3,44.1,50.2,45.4,49.1,46.8"/>
				<path class="st32" d="M52.5,42.7L43,37.2c1.5-1.7,3-3.3,4.5-4.8l9.5,5.5C55.5,39.4,54,41.1,52.5,42.7"/>
				<path class="st32" d="M57,37.9l-9.5-5.5c4.3-4.3,9-7.9,13.8-10.7l9.5,5.5C66,30,61.3,33.7,57,37.9"/>
			</g>
		</g>
		<g>
			<path class="st34" d="M70.8,27.2c22.9-13.2,41.5-2.6,41.6,23.7c0.1,26.3-18.4,58.3-41.3,71.5c-22.9,13.2-41.5,2.6-41.5-23.7
				C29.5,72.4,48,40.4,70.8,27.2z M71.1,115.3c19.4-11.2,35.2-38.4,35.1-60.8c-0.1-22.3-15.9-31.4-35.3-20.2S35.7,72.8,35.8,95.1
				C35.8,117.5,51.6,126.5,71.1,115.3"/>
		</g>
	</g>
</g>
<g>
	<path class="st35" d="M71,37.6c1.2-0.7,2.1-0.1,2.1,1.2c0,1.4-0.9,3-2.1,3.7s-2.1,0.1-2.1-1.2C68.8,40,69.8,38.3,71,37.6z"/>
</g>
<g>
	<path class="st35" d="M102.4,55.4c1.2-0.7,2.1-0.1,2.1,1.2c0,1.4-0.9,3-2.1,3.7s-2.1,0.1-2.1-1.2C100.3,57.7,101.3,56.1,102.4,55.4
		z"/>
</g>
<g>
	<path class="st35" d="M40.4,94.6c1.2-0.7,2.1-0.1,2.1,1.2s-0.9,3-2.1,3.7c-1.2,0.7-2.1,0.1-2.1-1.2C38.3,96.9,39.2,95.3,40.4,94.6z
		"/>
</g>
<g>
	<path class="st35" d="M71,108.6c1.2-0.7,2.1-0.1,2.1,1.2c0,1.4-0.9,3-2.1,3.7c-1.2,0.7-2.1,0.1-2.1-1.2
		C68.8,110.9,69.8,109.3,71,108.6z"/>
</g>
<path class="st35" d="M97.7,62.5L71,77c-1.2,0.7-2.2,0.2-2.2-1v0c0-1.2,1-2.7,2.2-3.4l26.7-14.6c1.2-0.7,2.2-0.2,2.2,1v0
	C99.9,60.3,98.9,61.8,97.7,62.5z"/>
<g>
	<path class="st34" d="M71,70.7c2-1.1,3.6-0.2,3.6,2c0,2.3-1.6,5-3.6,6.2s-3.6,0.2-3.6-2C67.4,74.6,69,71.8,71,70.7z"/>
</g>
<path class="st34" d="M71,75.7L71,75.7c-1.2,0.6-2.1,0.1-2.1-1V52.1c0-1.2,1-2.6,2.1-3.2v0c1.2-0.6,2.1-0.1,2.1,1v22.6
	C73.1,73.6,72.2,75.1,71,75.7z"/>
</svg>
