<?xml version="1.0" encoding="utf-8"?>
<!-- Generator: Adobe Illustrator 22.0.1, SVG Export Plug-In . SVG Version: 6.00 Build 0)  -->
<svg version="1.1" id="Layer_1" xmlns="http://www.w3.org/2000/svg" xmlns:xlink="http://www.w3.org/1999/xlink" x="0px" y="0px"
	 width="141.7px" height="141.7px" viewBox="0 0 141.7 141.7" style="enable-background:new 0 0 141.7 141.7;" xml:space="preserve"
	>
<style type="text/css">
	.st0{fill:#FFFFFF;stroke:#4BBFA9;stroke-width:5.454;stroke-linecap:round;stroke-linejoin:round;stroke-miterlimit:10;}
	.st1{fill:#4BBFA9;}
	.st2{fill:none;stroke:#A7A9AC;stroke-width:3.8372;stroke-linejoin:round;stroke-miterlimit:10;}
	.st3{clip-path:url(#SVGID_2_);}
	.st4{fill:none;stroke:#325C7D;stroke-width:2.727;stroke-linecap:round;stroke-linejoin:round;stroke-miterlimit:10;}
	.st5{fill:none;stroke:#325C7D;stroke-width:2.727;stroke-linejoin:round;stroke-miterlimit:10;}
</style>
<g>
	<circle class="st0" cx="70.9" cy="70.9" r="65.4"/>
	<g>
		<polygon class="st1" points="76.9,54.4 74.8,55.6 75.2,53.2 73.5,51.5 75.8,51.1 76.9,49 78,51.1 80.4,51.5 78.7,53.2 79.1,55.6 
					"/>
	</g>
	<g>
		<polygon class="st1" points="86.4,54.4 84.3,55.6 84.7,53.2 82.9,51.5 85.3,51.1 86.4,49 87.5,51.1 89.9,51.5 88.1,53.2 
			88.5,55.6 		"/>
	</g>
	<g>
		<polygon class="st1" points="95.9,54.4 93.7,55.6 94.1,53.2 92.4,51.5 94.8,51.1 95.9,49 96.9,51.1 99.3,51.5 97.6,53.2 98,55.6 
					"/>
	</g>
	<g>
		<polygon class="st1" points="105.4,54.4 103.2,55.6 103.6,53.2 101.9,51.5 104.3,51.1 105.4,49 106.4,51.1 108.8,51.5 107.1,53.2 
			107.5,55.6 		"/>
	</g>
	<g>
		<polygon class="st1" points="114.8,54.4 112.7,55.6 113.1,53.2 111.4,51.5 113.8,51.1 114.8,49 115.9,51.1 118.3,51.5 116.6,53.2 
			117,55.6 		"/>
	</g>
	<line class="st2" x1="73.5" y1="62.2" x2="119.3" y2="62.2"/>
	<line class="st2" x1="73.5" y1="72.7" x2="119.3" y2="72.7"/>
	<line class="st2" x1="73.5" y1="83.2" x2="102.8" y2="83.2"/>
	<g>
		<defs>
			<rect id="SVGID_1_" x="22.7" y="44.9" width="47.4" height="47.4"/>
		</defs>
		<clipPath id="SVGID_2_">
			<use xlink:href="#SVGID_1_"  style="overflow:visible;"/>
		</clipPath>
		<g class="st3">
			<path class="st4" d="M56,48.9c0,0-4.7-1.3-10.1-1.3s-10.1,1.3-10.1,1.3l2.1,2.7c0,0-0.1,1.3,0,2.3c1.1,0.7,5.1,1.4,8,1.4
				c2.9,0,6.9-0.7,8-1.4c0.1-1,0-2.3,0-2.3L56,48.9z"/>
			<path class="st4" d="M59.3,72.9L59.3,72.9L59.3,72.9H34l0,0h0c-3.5,0-6.4,2.9-6.4,6.4v35.9c0,2,1.6,3.6,3.6,3.6H34l0,36
				c0,2.7,2,5.2,4.7,5.4c3.1,0.3,5.7-2.1,5.7-5.2v-38.3c0-1.1,0.8-2.1,1.9-2.3c1.4-0.2,2.6,0.8,2.6,2.2l0,38.2c0,2.7,2,5.2,4.7,5.4
				c3.1,0.3,5.7-2.1,5.7-5.2v-36.2h2.8c2,0,3.6-1.6,3.6-3.6V79.3C65.7,75.7,62.8,72.9,59.3,72.9z"/>
			<line class="st4" x1="59.3" y1="118.8" x2="59.3" y2="81.8"/>
			<line class="st4" x1="34" y1="81.8" x2="34" y2="118.8"/>
			<path class="st5" d="M38.1,56.4c-0.2,0.6-0.3,1.3-0.3,2c0,4.4,3.6,8,8,8s8-3.6,8-8c0-0.7-0.1-1.3-0.3-1.9"/>
		</g>
	</g>
</g>
</svg>
