<?xml version="1.0" encoding="utf-8"?>
<!-- Generator: Adobe Illustrator 24.0.0, SVG Export Plug-In . SVG Version: 6.00 Build 0)  -->
<svg version="1.1" id="Layer_1" xmlns="http://www.w3.org/2000/svg" xmlns:xlink="http://www.w3.org/1999/xlink" x="0px" y="0px"
	 width="140px" height="140px" viewBox="0 0 140 140" style="enable-background:new 0 0 140 140;" xml:space="preserve">
<style type="text/css">
	.st0{fill:#50B4B6;}
	.st1{opacity:0.3;fill:#4D4D4F;enable-background:new    ;}
	.st2{fill:#542D1A;}
	.st3{fill:#073143;}
	.st4{fill:#0C1517;}
	.st5{fill:#1F596D;}
	.st6{fill:#0F2226;}
	.st7{fill:#E6E7E8;}
	.st8{fill:#FFFFFF;}
	.st9{fill:#EFC7AF;}
	.st10{fill:#CDA18B;}
	.st11{fill:#C45D28;}
	.st12{fill:#262261;}
	.st13{fill:#6A628C;}
	.st14{fill:#49BEAF;}
	.st15{fill:#F1F1F2;}
	.st16{fill:#A87C4F;}
	.st17{fill:#15556D;}
	.st18{fill:#DD6A26;}
	.st19{fill:#271810;}
	.st20{fill:#603813;}
	.st21{fill:#C3996B;}
	.st22{fill:#EE7928;}
</style>
<path class="st0" d="M39.1,33.4c2.9-0.2,5.7,2.3,6.5,5.5c0.7,3.1,1,12.5,1.4,14.9c0.8,2,3,8.7,3.4,10c0.4,1.3,1.5,5.2,1.6,5.8
	c0.1,0.6-3.8,2.6-3.9,2c-0.2-0.6-3.6-6.6-4.4-8.2c-0.8-1.7-3.1-19.8-3.3-23.4C40.2,36.3,39.1,33.4,39.1,33.4z"/>
<g>
	<ellipse class="st1" cx="33.6" cy="122.7" rx="16.5" ry="6.6"/>
	<g>
		<path class="st2" d="M36.1,10.3c2.8-0.3,7.9,2.9,8.8,8.5C45.7,24.4,45,32,46,35.6S49.2,52,49.2,52s-1.8,1.3-2.6-0.6
			c-0.9-1.9-6.1-16.4-9.9-16.3C32.9,35.2,26.4,40,26.4,40s-0.4-3.3-0.2-6.9c0.3-3.6,0.9-7.9,0.9-10.2S27.7,11.2,36.1,10.3z"/>
		<path class="st3" d="M45.5,71.8c0,0,3.5,16.1,4.2,19c0.6,2.8-0.2,6.3-3.5,9.4s-15.3,14.7-15.3,14.7s-5.5-2.2-5.1-3.5
			c0.5-1.4,14-17.2,15.5-18c1.5-0.8,0.7-3.3-0.2-4.5s-6.9-12.3-7.6-14S43.4,70,45.5,71.8z"/>
		<path class="st4" d="M26.3,110.8c-0.7,0.5-2.7,2.7-2.9,3.4c-0.2,0.8-2.1,3.7-2.1,3.7l1.1,0.8L25,115c0,0,0.4,1.9,0.2,3.5
			c-0.2,1.6,3.3,5,6,5.7c0.7-0.7,0.7-2,0.6-2.4c-0.2-0.4-1.6-7.4-1.6-7.4L26.3,110.8z"/>
		<path class="st5" d="M25.9,73.6c0,1.6,2.7,23.3,3.3,27.3c0.6,4,1.5,16.1,2.2,17c0.6,0.9,4.9,1.5,5.5,0.8c0.4-10.6,1-42,0.6-44.7
			S25.9,73.6,25.9,73.6z"/>
		<path class="st6" d="M31.2,117.3c-0.3,0.8-0.8,3.7-0.5,4.5c0.2,0.8,0.3,4.2,0.3,4.2h1.3l0.1-4.5c0,0,1.4,1.4,2.1,2.8
			c0.7,1.5,5.5,2.4,8.1,1.5c0.2-1-0.5-2.1-0.8-2.3c-0.4-0.3-5.4-5.3-5.4-5.3L31.2,117.3z"/>
		<path class="st7" d="M39.1,33.4c2.9-0.2,5.7,2.3,6.5,5.5c0.7,3.1,1,12.5,1.4,14.9c0.8,2,3,8.7,3.4,10c0.4,1.3,1.5,5.2,1.6,5.8
			c0.1,0.6-3.8,2.6-3.9,2c-0.2-0.6-3.6-6.6-4.4-8.2c-0.8-1.7-3.1-19.8-3.3-23.4C40.2,36.3,39.1,33.4,39.1,33.4z"/>
		<path class="st8" d="M43.6,61.7c-0.5-2.4-1.3-7-1-8s2.9-3,2.6-6.1c-0.3-3.1-2.1-6.6-2-7.9c0.1-1.3-1.4-5.6-3-6
			c-1.7-0.4-9.4,1.5-14.6,6.2c-1.7,1.5-4.2,10-5,13.1c-0.8,3-1.3,7.7-0.6,10c0.6,2.3,5.3,11,6.5,12c0.9-1,2.6-1.9,3.1-1.8
			c1,0.5,2.1,2.4,2.1,2.4s11,0.2,14.3-4C45,68.8,44.1,64.1,43.6,61.7z M28.8,57.4c-0.1,1.7-2.2,7.1-2.2,7.1s-0.6-4.6-0.9-5.3
			c-0.3-0.6-0.8-1.5-0.5-2.2s2.2-4.4,2.5-5.8C27.8,50.6,28.9,55.7,28.8,57.4z"/>
		<path class="st9" d="M38.3,31.3v2c0,0,3,0.1,2.9,1.3s-1.8,2.8-4.3,3.6s-10.1,2.1-11.3,1.6c0.9-1.9,4.1-4.3,4.1-4.3l1.8-4.6
			L38.3,31.3z"/>
		<path class="st10" d="M38.3,31.7c0,0-6.2,0.1-6.8-0.7c-0.1,1.8-0.1,1.8-0.1,1.8S36.1,33.9,38.3,31.7z"/>
		<path class="st9" d="M35.4,32.3L35.4,32.3c-4,0-7.3-3.2-7.4-7.2l-0.2-8.8L39.7,16c0,0,2.9,0.3,3.1,3.5s0.1,5.5,0.1,5.5
			C42.9,28.9,39.5,32.3,35.4,32.3z"/>
		<path class="st2" d="M41.1,15.2c0.2,1.5-0.7,2.5-2.5,3.5s-4.8,3.7-5.2,7.5s0,15.3,0.9,18.3s1,11.2,1.4,11.9
			c-1.6-0.3-3.7-4.7-5.5-11.8S27,30.2,26.7,26.1s-0.8-9.5,0.5-11.5s4.6-4.2,8.2-4.2C39,10.4,40.9,13.6,41.1,15.2z"/>
		<path class="st9" d="M26.5,74.8c0,0,1.7,2.4,2.1,3c0.5,0.6,1.8,0.5,2.2,0.3s1.4-1.1,0.8-2.4c-0.9-1.9-2.2-2.6-2.2-2.6
			S28.2,73,26.5,74.8z"/>
		<path class="st9" d="M48.6,71.7c0,0,1.4,2.5,1.8,3.1c0.4,0.7,1.7,0.7,2.2,0.5s1.3-0.8,0.9-2.2c-0.4-1.4-1.7-3.6-1.7-3.6
			S49.4,69.6,48.6,71.7z"/>
	</g>
</g>
<g>
	<ellipse class="st1" cx="95" cy="122.8" rx="18.3" ry="7.3"/>
	<g>
		<path class="st9" d="M115.3,42.2c0,0,2.8-2.4,3.7-3.1c0.8-0.7,2.6-0.1,3.1,0.4s1.3,1.7,0.1,3.3c-1.2,1.6-4,3.9-4,3.9
			S115.3,45.3,115.3,42.2z"/>
		<path class="st11" d="M97.7,47c0,0,9,8.5,9.7,8.8s1.5-0.4,2.2-1s9.1-7.3,9.1-7.3l-3.2-6l-7.6,5.5c0,0-6.8-13.5-7.7-14.4
			c-0.9-0.9-4.1-2.5-5.2,0.4C94,35.7,92.6,42,97.7,47z"/>
		<path class="st12" d="M120.2,33.1v0.3l3,2.7c0.1,0.1,0.2,0.3,0.1,0.5l-2.6,7.1l0.2,0.2c0.1,0.1,0.4,0,0.5,0s0.2-0.1,0.3-0.3
			l2.2-7.2c0-0.2,0-0.3-0.1-0.4l-2.7-2.9c-0.1-0.1-0.3-0.2-0.4-0.1S120.3,33,120.2,33.1z"/>
		<path class="st12" d="M120.9,43.8l-3.1-3.3c-0.1-0.1-0.1-0.3-0.1-0.4c0,0,2-6.7,2.1-7s0.9-0.3,0.9-0.3l2.5,3.1
			c0.1,0.1,0.2,0.4,0.1,0.5l-2.2,7.2C121.2,43.9,121,43.9,120.9,43.8z"/>
		<g>
			<path class="st8" d="M123,36.4l-2.7-2.8c-0.1-0.1-0.2-0.1-0.3,0.1l-1.9,6.4c0,0.1,0,0.1,0,0.2l2.7,2.8c0.1,0.1,0.2,0.1,0.3-0.1
				l1.9-6.4C123.1,36.5,123,36.5,123,36.4z"/>
		</g>
		<g>
			<path class="st13" d="M122.5,35.2l0.5,0.5c0.1,0.2,0.4,0.3,0.4,0.6s-0.1,0.5-0.2,0.7l-0.2,0.7l0,0l0.2-0.7c0-0.2,0.2-0.5,0.1-0.7
				c0-0.2-0.2-0.4-0.4-0.6L122.5,35.2L122.5,35.2z"/>
		</g>
		<g>
			<polygon class="st7" points="120.1,38.1 121,37.9 120.1,37 119.3,37.2 			"/>
			<polygon class="st7" points="121.9,36.4 120.7,36 121.2,36.6 			"/>
			<polygon class="st7" points="119.4,36.2 119.3,36.3 119,37.1 120,36.8 			"/>
			<polygon class="st7" points="120.2,36.8 121,36.6 120.8,36.3 119.9,36.5 			"/>
			<polygon class="st7" points="122.8,37.5 122.9,37.2 122.2,36.5 121.4,36.7 122.2,37.6 			"/>
			<polygon class="st7" points="121.2,36.7 120.3,36.9 121.2,37.8 122,37.6 			"/>
			<polygon class="st7" points="121.9,38.8 121.1,38 120.3,38.2 121,39 			"/>
			<polygon class="st7" points="119.6,40.8 118.5,40.5 119,41 			"/>
			<polygon class="st7" points="119.9,35.1 120.6,35.8 122.1,36.3 120.7,34.9 			"/>
			<path class="st7" d="M119.8,40.7l-1.3-1.4h-0.1l-0.2,0.7l0,0l0.1,0.1L119.8,40.7z"/>
			<path class="st7" d="M123,36.6L123,36.6c0-0.1,0-0.1,0-0.2l-0.1-0.1l-0.4,0.1L123,36.6z"/>
			<polygon class="st7" points="121,40.7 120.2,40.9 121.5,41.3 			"/>
			<polygon class="st7" points="120.6,38.8 119.7,39 120.3,39.6 121.1,39.4 			"/>
			<polygon class="st7" points="120.8,41.8 119.9,40.9 119.1,41.1 119.9,42.1 			"/>
			<polygon class="st7" points="119.4,40.1 120,40.8 120.9,40.6 120.3,39.9 			"/>
			<polygon class="st7" points="121.3,42.4 120.9,42 120.1,42.2 120.7,42.9 121.2,42.8 			"/>
			<polygon class="st7" points="120,33.8 120,33.9 121.5,35.5 122,35.4 120.4,33.7 			"/>
			<polygon class="st7" points="119.8,35 120.6,34.8 119.9,34.1 119.7,34.9 			"/>
			<polygon class="st7" points="121.7,35.7 122.3,36.3 122.8,36.2 122.2,35.5 			"/>
			<polygon class="st7" points="119.2,40 120.1,39.8 118.7,38.2 118.4,39.1 			"/>
			<polygon class="st7" points="122.6,36.6 122.9,37 123,36.7 			"/>
			<polygon class="st7" points="121.3,39.6 120.4,39.8 121.7,41.1 121.9,40.3 			"/>
			<polygon class="st7" points="120.3,41 121,41.8 121.5,41.7 121.6,41.4 			"/>
			<polygon class="st7" points="120.4,38.6 119.1,37.2 119,37.3 118.8,38 118.9,38.2 			"/>
			<polygon class="st7" points="120.2,38.7 119.1,38.4 119.6,38.9 			"/>
			<polygon class="st7" points="122.2,39.1 121.9,38.9 121.1,39.1 121.3,39.3 			"/>
			<polygon class="st7" points="119.4,35.9 119.9,36.5 120.7,36.3 120,35.5 119.5,35.6 			"/>
			<polygon class="st7" points="122.1,37.8 121.3,38 122,38.7 122.4,38.6 122.6,38.2 			"/>
			<polygon class="st7" points="122.2,39.3 121.4,39.5 122,40.1 			"/>
			<polygon class="st7" points="122.3,37.7 122.6,38 122.7,37.6 			"/>
		</g>
		<path class="st14" d="M121.5,36.2c0,0.1,0.1,0.5,0.1,0.5s0.3-0.2,0.3-0.4c0-0.1,0-0.3-0.1-0.3C121.7,36,121.5,36,121.5,36.2z"/>
		<circle class="st15" cx="121.7" cy="36.2" r="0.1"/>
	</g>
	<path class="st16" d="M81.3,124.9c-0.2-1.1,0.3-2.2,0.3-2.6s6.4-1.7,7.2-1.6c0.7,0.2,6.2,3.4,6.5,4.3s-3.8,4.3-5.7,3.9
		C87.6,128.5,81.3,124.9,81.3,124.9z"/>
	<path class="st8" d="M81.2,124.5l0.1,1.5c0,0,5,2.8,7.6,3.6s6.5-0.2,7-1.2s0.5-2.7-0.2-3.3c-0.6-0.6-1.9-0.9-3.1-0.5
		c-1.5,0.6-3.1,3.7-3.1,3.7s-2.3-0.8-4.4-1.7C83,125.7,81.2,124.5,81.2,124.5z"/>
	<path class="st16" d="M94.3,118.7c-0.3-1.1,0.2-2.2,0.2-2.6s6.3-2,7.1-1.9c0.7,0.1,6.5,3,6.8,4c0.4,0.9-3.7,4.5-5.7,4.2
		S94.3,118.7,94.3,118.7z"/>
	<path class="st8" d="M94.2,118.3l0.2,1.5c0,0,5.2,2.6,7.8,3.3c2.6,0.7,6.5-0.5,6.9-1.5s0.3-2.7-0.3-3.3s-1.9-0.6-3-0.1
		c-1.5,0.8-3.1,3.6-3.1,3.6s-2.4-0.7-4.5-1.5C96,119.5,94.2,118.3,94.2,118.3z"/>
	<path class="st17" d="M82,69.3c0,0-0.3,22.6-0.2,29s-1.4,23.6-0.7,24.3s2,1.4,3.5,0.6s4.4-2.2,4.8-2.1s-0.3-1.8-0.4-2.2
		c-0.1-0.4,0.1-10.3,1-14.5s3.2-26.6,3.3-25.4c0.1,3.4,1.2,25,1.1,26.9s0,9.3,0.1,10s4.7,1.5,7.6-1.1c0.6-5.8,0.9-35.8,0.8-40.2
		s-0.1-6.5-0.1-6.5L82,69.3z"/>
	<path class="st18" d="M102.8,68.9c0,0-9.1,4.7-20.8,0.7c-1-9.4-1.7-29.3-1.7-30.7s5.9-5.3,7.6-5.6s7.8-2.7,10.1-2.1
		c2.6,0.8,5.2,8.9,4.6,13.2C102,48.4,102.8,68.9,102.8,68.9z"/>
	<path class="st9" d="M88.1,29.5c0,0-0.3,2.9-0.2,3.9s1.6,3.3,4.8,2.8c3.2-0.6,2.4-0.8,2.3-2.1s-0.4-3.9-0.4-3.9L88.1,29.5z"/>
	<path class="st10" d="M94.5,30.8c0,0-5.9-1.2-6.4-1.9c-0.1,1.7-0.1,3-0.1,3S92.4,32.9,94.5,30.8z"/>
	<g>
		<path class="st9" d="M92.6,31.4h-1.2c-3.8,0-6.6-5.9-6.7-9.7l-0.2-5.9h14.3v8.6C98.8,28.2,96.5,31.4,92.6,31.4z"/>
		<path class="st9" d="M86.4,25.1L86.4,25.1c-1.1,0-2.1-0.9-2.1-2.1l-0.1-2.5h4.3V23C88.5,24.2,87.6,25.1,86.4,25.1z"/>
	</g>
	<path class="st19" d="M98.8,18.7c0.4-0.8,0.9-2,0.8-3.1s-0.5-2.3-1.6-2.8s-1.9-1.2-2.8-1.8s-1.8,0.1-2.1-0.3c-0.3-0.4-0.8-1-0.8-1
		s-0.1,1.3-0.8,1.2s-0.9-0.8-1.6-1s0.3,0.9-0.6,1.1c-0.9,0.2-1.9,0.8-3.2,1.4c-1.3,0.6-3,2.8-3.1,5s0,3.6,0.3,4.7
		c0.3,1.1,3.9,6.3,4.2,5.8c0.2-0.9,0-1.7,0-1.7s-2.1-1.9-1.9-3.3s1.8-1.5,2.2-0.6c0.4,0.9,0.6,2.1,0.6,2.1h1.1c0,0,0-3.4,0.4-4.3
		s1.7-1.6,1.9-1.6c0.2,0,0.5,0.5,0.4,1c0.6,0.2,0.9-0.6,0.9-1.1c-0.1-0.5,0.1-1.1,0.5-1.1s0.7,0.7,0.6,1.1c0.6,0.1,0.8-0.9,0.7-1.4
		c0-0.5,1-1.1,2.1-1.1s1.7,0.4,1.6,1C98.5,17.5,98.8,18.7,98.8,18.7z"/>
	<g>
		<path class="st20" d="M102.8,67.2c0,0-9.1,4.7-20.8,0.7v2.9c0,0,5.6,1.9,11.6,1.3c5.7-0.6,9.3-2,9.3-2L102.8,67.2z"/>
		<g>
			<polygon class="st21" points="100.7,70.9 101.6,70.7 101.6,67.7 100.7,68 			"/>
			<polygon class="st21" points="86.9,72 87.9,72.2 87.9,69.3 86.9,69 			"/>
			<polygon class="st21" points="93.3,72.2 96.1,71.9 96.1,69 93.3,69.3 			"/>
		</g>
	</g>
	<path class="st22" d="M69.5,35.1c1.5-0.3,2.8-2.5,2.8-4.4s-1.4-7.1-1.6-8.7c-0.2-1.6-1.5-2.7-2.9-2.4c-1.3,0.3-1.7,0.5-2.1,1.8
		s0.7,9.3,1,11C67.1,34,68.1,35.4,69.5,35.1z"/>
	<path class="st22" d="M85.6,44.5c-1.4,2.7-5.1,1.5-6.3,0.3c-1.2-1.2-8.9-7.7-10.1-8.9s-2.7-3-1.1-5.2c1.3-1.8,4.1,0.3,5.5,1.1
		s9.3,5.7,11.2,7.4S86.5,42.7,85.6,44.5z"/>
	<path class="st9" d="M65.8,20.7c0,0-1.1-3.7-1.3-4.7s1.3-2.3,2-2.5s2.1-0.3,2.9,1.6s0.9,5.6,0.9,5.6S68.5,22.2,65.8,20.7z"/>
</g>
<path class="st9" d="M48.6,71.7c0,0,1.4,2.5,1.8,3.1c0.4,0.7,1.7,0.7,2.2,0.5s1.3-0.8,0.9-2.2c-0.4-1.4-1.7-3.6-1.7-3.6
	S49.4,69.6,48.6,71.7z"/>
</svg>
