<?xml version="1.0" encoding="utf-8"?>
<!-- Generator: Adobe Illustrator 22.0.1, SVG Export Plug-In . SVG Version: 6.00 Build 0)  -->
<svg version="1.1" id="Layer_1" xmlns="http://www.w3.org/2000/svg" xmlns:xlink="http://www.w3.org/1999/xlink" x="0px" y="0px"
	 width="141.7px" height="141.7px" viewBox="0 0 141.7 141.7" style="enable-background:new 0 0 141.7 141.7;" xml:space="preserve"
	>
<style type="text/css">
	.st0{fill:none;stroke:#4BBFA9;stroke-width:3.5283;stroke-linecap:round;stroke-linejoin:round;stroke-miterlimit:10;}
	.st1{fill:none;stroke:#A7A9AC;stroke-width:2.3522;stroke-linecap:round;stroke-linejoin:round;stroke-miterlimit:10;}
	.st2{fill:#A7A9AC;}
</style>
<g>
	<g>
		<path class="st0" d="M96.2,123.6H45.5c-2.6,0-4.8-2.1-4.8-4.8V22.9c0-2.6,2.1-4.8,4.8-4.8h50.7c2.6,0,4.8,2.1,4.8,4.8v95.8
			C101,121.4,98.8,123.6,96.2,123.6z"/>
		<rect x="49.4" y="27.3" class="st0" width="43" height="73.8"/>
		<ellipse class="st0" cx="70.9" cy="112.9" rx="4.4" ry="4.6"/>
	</g>
	<g>
		<path class="st1" d="M56.3,65.5c8.1-8.4,21.2-8.4,29.2,0"/>
		<path class="st1" d="M60.7,70c5.6-5.8,14.8-5.8,20.4,0"/>
		<path class="st1" d="M65.3,74.8c3.1-3.2,8.1-3.2,11.1,0"/>
		<ellipse class="st2" cx="70.9" cy="79.3" rx="1.2" ry="1.3"/>
	</g>
</g>
</svg>
