<?xml version="1.0" encoding="utf-8"?>
<!-- Generator: Adobe Illustrator 23.0.3, SVG Export Plug-In . SVG Version: 6.00 Build 0)  -->
<svg version="1.1" id="Layer_1" xmlns="http://www.w3.org/2000/svg" xmlns:xlink="http://www.w3.org/1999/xlink" x="0px" y="0px"
	 width="140px" height="140px" viewBox="0 0 140 140" style="enable-background:new 0 0 140 140;" xml:space="preserve">
<style type="text/css">
	.st0{opacity:0.4;fill:#4D4D4F;enable-background:new    ;}
	.st1{fill:#4B6ABB;}
	.st2{fill:#38508C;}
	.st3{fill:#B7C3E3;}
	.st4{fill:#3F7AB2;}
	.st5{fill:#2962A5;}
	.st6{fill:#F1F1F2;}
</style>
<g>
	
		<ellipse transform="matrix(1.607371e-02 -0.9999 0.9999 1.607371e-02 7.1427 221.0223)" class="st0" cx="115.9" cy="106.9" rx="5.2" ry="13.4"/>
	<path class="st1" d="M130.2,51.6c-0.1,8.9-12.6,46.7-12.6,46.7l-7.5-4.6c-3.8-6.1-15.8-26.2-15.6-37.3c0.2-13.1,7.6-24.2,17.5-25.5
		c4.3-0.6,12.2,1.9,12.2,1.9S130.3,44.2,130.2,51.6z"/>
	<path class="st2" d="M136.2,53.8c-0.2,13.1-18.5,44.5-18.5,44.5s-17.4-26.6-17.2-39.7s8.4-24.8,18.2-26.2
		C128.6,31.1,136.4,40.7,136.2,53.8z"/>
	
		<ellipse transform="matrix(0.1953 -0.9807 0.9807 0.1953 41.9215 161.3364)" class="st3" cx="119.3" cy="55.1" rx="11.2" ry="8.2"/>
</g>
<g>
	
		<ellipse transform="matrix(1.607371e-02 -0.9999 0.9999 1.607371e-02 -85.9587 147.1638)" class="st0" cx="31.8" cy="117.3" rx="6.7" ry="17.3"/>
	<path class="st4" d="M50.3,45.8c-0.2,11.5-16.2,60.4-16.2,60.4l-9.7-6C19.5,92.4,3.9,66.3,4.2,52C4.4,35,14,20.8,26.8,19.1
		c5.6-0.8,15.7,2.5,15.7,2.5S50.5,36.2,50.3,45.8z"/>
	<path class="st5" d="M58,48.6c-0.3,17-24,57.6-24,57.6S11.6,71.8,11.9,54.8S22.7,22.7,35.4,21S58.3,31.7,58,48.6z"/>
	
		<ellipse transform="matrix(0.1953 -0.9807 0.9807 0.1953 -20.2515 76.0129)" class="st6" cx="36.2" cy="50.3" rx="14.5" ry="10.6"/>
</g>
</svg>
