<?xml version="1.0" encoding="utf-8"?>
<!-- Generator: Adobe Illustrator 22.0.1, SVG Export Plug-In . SVG Version: 6.00 Build 0)  -->
<svg version="1.1" id="Layer_1" xmlns="http://www.w3.org/2000/svg" xmlns:xlink="http://www.w3.org/1999/xlink" x="0px" y="0px"
	 width="141.7px" height="141.7px" viewBox="0 0 141.7 141.7" style="enable-background:new 0 0 141.7 141.7;" xml:space="preserve"
	>
<style type="text/css">
	.st0{fill:none;stroke:#4BBFA9;stroke-width:3.5283;stroke-linecap:round;stroke-linejoin:round;stroke-miterlimit:10;}
	.st1{fill:#FFFFFF;stroke:#4BBFA9;stroke-width:3.5283;stroke-linecap:round;stroke-linejoin:round;stroke-miterlimit:10;}
	.st2{fill:#A7A9AC;}
</style>
<g>
	<g>
		<path class="st0" d="M62,98.8h28.9l16.9,14.4V98.8h13.1c3.1,0,5.6-2.6,5.6-5.8V52c0-3.2-2.5-5.8-5.6-5.8H62
			c-3.1,0-5.6,2.6-5.6,5.8v40.9C56.3,96.2,58.9,98.8,62,98.8z"/>
	</g>
	<g>
		<path class="st1" d="M79.8,81.1H50.8L33.9,95.5V81.1H20.8c-3.1,0-5.6-2.6-5.6-5.8V34.4c0-3.2,2.5-5.8,5.6-5.8h59
			c3.1,0,5.6,2.6,5.6,5.8v40.9C85.4,78.5,82.9,81.1,79.8,81.1z"/>
	</g>
	<ellipse class="st2" cx="30.8" cy="55" rx="4.9" ry="5.1"/>
	<ellipse class="st2" cx="50.3" cy="55" rx="4.9" ry="5.1"/>
	<ellipse class="st2" cx="69.8" cy="55" rx="4.9" ry="5.1"/>
</g>
</svg>
