<?xml version="1.0" encoding="utf-8"?>
<!-- Generator: Adobe Illustrator 23.0.3, SVG Export Plug-In . SVG Version: 6.00 Build 0)  -->
<svg version="1.1" id="Layer_1" xmlns="http://www.w3.org/2000/svg" xmlns:xlink="http://www.w3.org/1999/xlink" x="0px" y="0px"
	 width="140px" height="140px" viewBox="0 0 140 140" style="enable-background:new 0 0 140 140;" xml:space="preserve">
<style type="text/css">
	.st0{fill:#F9C992;}
	.st1{fill:#F1F1F2;}
	.st2{opacity:0.4;fill:#4D4D4F;enable-background:new    ;}
	.st3{fill:#505050;}
	.st4{fill:#141414;}
	.st5{fill:#646464;}
	.st6{fill:#E1AA73;}
	.st7{fill:#FAC882;}
	.st8{fill:#23323C;}
	.st9{fill:#FFFFFF;}
	.st10{fill:#4ABFA8;}
	.st11{fill:#603813;}
	.st12{fill:#0F2A4B;}
	.st13{fill:#C3996B;}
</style>
<g>
	<path class="st0" d="M105.9,71c0,0,0.8,3.5,1,4.4c0.3,1,2,1.6,2.7,1.4c0.7-0.1,2-0.5,1.9-2.4c0-1.9-0.9-5.2-0.9-5.2
		S107.8,68.6,105.9,71z"/>
	<path class="st1" d="M106.8,33.4c-0.1-1.4-0.6-3.8-1.4-4.9c-1.6-2-4.1-3.6-5.2-2.4c-1.7,1.8-1.9,3.6-1.9,3.6
		c0.2,1.8,2.4,20.1,2.4,21.8c-0.1,1.7,0.1,2.1,0.5,3.4c0.4,1.4,3.2,12.8,4.1,16.8c1.9-2,5.4-2.4,5.4-2.4l-0.1-1.2L107.9,57
		c-0.6-2.3-1.1-5.4-1.1-6.7S106.8,33.4,106.8,33.4z"/>
	<ellipse class="st2" cx="96.3" cy="126.1" rx="17.6" ry="7"/>
	<g>
		<g>
			<path class="st3" d="M96,119.6c0,0-0.7,1,0,1.6s11.3,4.6,12.8,3.2c1.6-1.5-7.3-7.2-8.8-7C98.6,117.6,96,119.6,96,119.6z"/>
			<path class="st3" d="M84.3,121.4c0,0-1.3,3.8-1.1,6.4c0.1,2.7,0.9,3.8,2.6,3.9c1.7,0.2,3.4-1.7,3.4-4.2c0-2.7-0.5-7.3-0.5-7.3
				L84.3,121.4z"/>
			<path class="st4" d="M101.5,65.8c0,0-9.6,2.4-22.1,1.3l3.8,54.4c0,0,5.6,2.3,6.5-0.4c0.4-3.3,2.3-37.2,2.1-39
				c2.2,2.9,3.7,32.9,3.8,38.2c0,0,5,0.9,5.9-2.5C102.3,114.3,103,78.6,101.5,65.8z"/>
			<path class="st3" d="M101.5,65.8l0.2,2.7c0,0-7.7,1.4-20.4,1.1c-0.8-2-0.8-2.6-0.8-2.6L101.5,65.8z"/>
			<rect x="98.6" y="66.1" class="st4" width="1.1" height="3.3"/>
			<rect x="83.7" y="66.9" class="st4" width="1.1" height="3.3"/>
			<rect x="90.4" y="66.6" class="st5" width="3.1" height="3.3"/>
			<path class="st0" d="M74.6,74.9c0,0,0.3,3.5,0.4,4.5s1.8,1.8,2.5,1.9c0.7,0,2-0.3,2.4-2.1c0.2-1.9,0-5.2,0-5.2
				S76.6,72.8,74.6,74.9z"/>
			<g>
				<path class="st1" d="M87.4,25.3c0,0-9.3,1.6-11.2,4.9s-2.5,18.3-2.5,18.3l6.6,1.5l-1,17.1c0,0,4.3,0.4,11.6,0.1
					c7.8-0.3,10.5-1.4,10.5-1.4s1.2-16.4,0.1-22.3c2.8-1.1,4.6-2.5,4.6-2.5s-2-13.5-3-14.6C102.2,25.4,95.2,22.9,87.4,25.3z"/>
				<path class="st0" d="M87.6,22.4c0,0-0.3,3-0.2,3.9c0.1,1,1.7,3.4,4.9,2.8s2.5-0.8,2.4-2.2c-0.1-1.3-0.4-3.9-0.4-3.9L87.6,22.4z"
					/>
				<path class="st6" d="M94.1,23.8c0,0-6,0.1-6.5-0.7c-0.2,1.8-0.2,1.8-0.2,1.8S91.9,26,94.1,23.8z"/>
				<path class="st1" d="M82.1,35.9c0,0-3.6-7.8-5.5-6.3c-2,1.5-2.4,3.2-2.4,3.2c-0.1,1.9-0.6,18-1,19.6c-0.4,1.7-0.5,2.3-0.3,3.8
					c0.2,1.4,1.2,15.2,1.5,19.3c2.1-1.8,5.7-1.6,5.7-1.6l0.1-1.2l-0.9-11.3c-0.3-2.3-0.1-7.4,0.1-8.6c0.3-1.3,0.4-3.3,1.3-3
					L82.1,35.9z"/>
			</g>
			<g>
				<g>
					<path class="st0" d="M91.2,24.4L91.2,24.4c-3.8,0-7-3.1-7.1-6.9L83.9,9h14.5v8.3C98.4,21.3,95.2,24.4,91.2,24.4z"/>
					<path class="st7" d="M85.8,18.1L85.8,18.1c-1.2,0-2.1-0.9-2.1-2.1l-0.1-2.6h4.3v2.5C87.9,17.1,87,18.1,85.8,18.1z"/>
				</g>
				<path class="st4" d="M82.5,7c1-1.4,4.6-4.3,7.1-4.2c2.5,0.1,5.5,0.7,6.7,2.3c0.3,0.4,0.9,0.8,1.6,1.1c1.8,0.8,2.3,3.1,1.1,4.5
					c-1.1,1.4-4.7-0.5-6.7-0.5c-4.1-0.1-4.5,1-4.5,1s-0.9,0.6-0.7,1.3c0.2,0.7-0.2,2.6-0.2,3.1s-0.8,0-0.8,0s-1.2-1.9-2.3-0.7
					C82.2,14.4,80.8,9.4,82.5,7z"/>
			</g>
		</g>
	</g>
	<path class="st8" d="M85.8,25.6c-2.8,0.6-8.2,2.1-9.6,4.6c5,3.8,4.3,14.1,4.3,14.1l-0.8,16.8c0,0-0.1,1.1-0.2,2.3
		c0.1,0.8,0.3,2.6,0.3,3.7c2.1,0.1,6.6,0.3,11.4,0.1c7.8-0.3,10.4-1.6,10.4-1.6s1.2-16.4,0.1-22.3c2.3-9.8,2.8-16,1.7-17.1
		c-0.7-0.7-3.7-1.9-7.7-2.1c0,0-0.8,8.5-2.7,11.1C89.2,32.7,85.8,25.6,85.8,25.6z"/>
	<g>
		<polygon class="st9" points="92.3,29.3 89.2,32.7 85.8,25.6 87.1,23.7 		"/>
		<polygon class="st9" points="92.3,29.3 95,31.8 95.5,24.4 94.6,23.6 93.9,23.9 		"/>
	</g>
	<g>
		<g>
			<path class="st10" d="M98.5,33.4L98.5,33.4l0.6-0.3l0,0l0.2-0.8l0,0L98.5,33.4z"/>
		</g>
		<g>
			<path class="st10" d="M100,33.1L100,33.1L99.4,33l0,0l-0.2-0.7l0,0L100,33.1z"/>
		</g>
		<g>
			<path class="st10" d="M95.7,35.2l0.2-0.2c0.1,0.1,0.2,0.1,0.2,0.1c0.1,0,0.2-0.1,0.2-0.2V34h0.3v0.8c0,0.2,0,0.3-0.1,0.4
				c-0.1,0.1-0.2,0.2-0.4,0.2C95.9,35.4,95.8,35.3,95.7,35.2z"/>
		</g>
		<g>
			<path class="st10" d="M97.1,33.9l1-0.1v0.3l-0.7,0.1v0.3l0.6-0.1v0.3l-0.6,0.1v0.3l0.7-0.1v0.3l-1,0.1V33.9z"/>
		</g>
		<g>
			<path class="st10" d="M100.8,34.1l-0.5-0.7l0.3-0.1l0.3,0.5l0.3-0.6h0.3l-0.5,0.9v0.5h-0.3L100.8,34.1L100.8,34.1z"/>
		</g>
		<g>
			<polygon class="st10" points="99.1,34.9 99.1,33.6 98.5,33.6 98.5,33.9 98.9,33.9 98.9,34.9 			"/>
		</g>
		<g>
			<polygon class="st10" points="99.3,34.9 99.3,33.5 100,33.4 100,33.7 99.6,33.8 99.6,34.8 			"/>
		</g>
	</g>
</g>
<g>
	<path class="st0" d="M44.9,72.9c0,0,0.3,3.6,0.3,4.6c0.2,1.1,1.7,1.9,2.4,1.8c0.7,0,2-0.2,2.3-2.1c0.3-1.9,0-5.4,0-5.4
		S47,70.8,44.9,72.9z"/>
	<path class="st9" d="M49.9,35c0-1.4-0.3-3.9-1-5.1c-1.5-2.1-3.9-3.9-5.1-2.8c-1.8,1.7-2.1,3.5-2.1,3.5c0.1,1.8,1,20.5,0.8,22.2
		c-0.2,1.7,0,1.8,0.2,3.2c0.2,1.5,1.3,13.4,1.5,17.5c2.2-1.7,5.8-1.6,5.8-1.6l0.1-1.2l-0.9-11.4c-0.3-2.3-0.4-5.9-0.3-7.2
		C48.9,50.7,49.9,35,49.9,35z"/>
	<ellipse class="st2" cx="39.5" cy="128.5" rx="17.8" ry="7.1"/>
	<g>
		<g>
			<path class="st11" d="M39.2,121.9c0,0-0.7,1,0,1.6s11.4,4.7,13,3.2s-7.4-7.3-8.9-7.1C41.8,119.9,39.2,121.9,39.2,121.9z"/>
			<path class="st11" d="M27.3,123.8c0,0-1.3,3.9-1.1,6.5c0.1,2.7,0.9,3.8,2.6,4c1.7,0.2,3.4-1.7,3.4-4.3c0-2.7-0.5-7.4-0.5-7.4
				L27.3,123.8z"/>
			<path class="st12" d="M44.7,67.4c0,0-9.7,2.4-22.4,1.3l3.9,55.1c0,0,5.7,2.3,6.6-0.4c0.4-3.3,2.3-37.7,2.1-39.5
				c2.2,2.9,3.7,33.3,3.9,38.7c0,0,5.1,0.9,6-2.5C45.5,116.6,46.2,80.4,44.7,67.4z"/>
			<path class="st11" d="M44.7,67.4l0.2,2.7c0,0-7.8,1.4-20.7,1.1c-0.8-2-0.8-2.6-0.8-2.6L44.7,67.4z"/>
			<rect x="41.8" y="67.7" class="st12" width="1.1" height="3.3"/>
			<rect x="26.7" y="68.5" class="st12" width="1.1" height="3.3"/>
			<rect x="33.5" y="68.2" class="st13" width="3.1" height="3.3"/>
			<path class="st0" d="M19.4,76.6c0,0,0.5,3.5,0.7,4.6c0.2,1,1.9,1.7,2.6,1.7c0.7,0,2-0.4,2.2-2.3c0.1-1.9-0.4-5.3-0.4-5.3
				S21.3,74.4,19.4,76.6z"/>
			<g>
				<path class="st9" d="M30.4,26.4c0,0-9.4,1.6-11.3,5s-2.5,18.5-2.5,18.5l6.7,1.5l-1,17.3c0,0,4.4,0.4,11.8,0.1
					c7.9-0.3,10.6-1.4,10.6-1.4s1.2-16.6,0.1-22.6c2.8-1.1,4.7-2.5,4.7-2.5s-2-13.7-3-14.8C45.4,26.5,38.3,24,30.4,26.4z"/>
				<path class="st0" d="M30.6,23.5c0,0-0.3,3-0.2,4s1.7,3.4,5,2.8s2.5-0.8,2.4-2.2c-0.1-1.3-0.4-4-0.4-4L30.6,23.5z"/>
				<path class="st6" d="M37.2,24.9c0,0-6.1,0.1-6.6-0.7C30.4,26,30.4,26,30.4,26S35,27.1,37.2,24.9z"/>
				<path class="st9" d="M25.1,37.1c0,0-3.6-7.9-5.6-6.4c-2,1.5-2.4,3.2-2.4,3.2c-0.1,1.9-1,20.5-1.3,22.2c-0.3,1.7-0.3,2.3,0,3.8
					c0.3,1.4,2.2,13.2,2.8,17.3c2-1.9,5.7-2,5.7-2V74l-1.7-11.3c-0.5-2.3-0.6-5.4-0.4-6.6c0.2-1.3,0.7-5.2,1.6-4.9L25.1,37.1z"/>
			</g>
			<g>
				<g>
					<path class="st0" d="M34.3,25.5L34.3,25.5c-3.9,0-7.1-3.1-7.2-7l-0.2-8.6h14.7v8.4C41.6,22.3,38.3,25.5,34.3,25.5z"/>
					<path class="st7" d="M28.8,19.1L28.8,19.1c-1.2,0-2.1-0.9-2.1-2.1l-0.1-2.6H31v2.5C31,18.1,30,19.1,28.8,19.1z"/>
				</g>
				<path class="st11" d="M25.5,7.9c1-1.4,4.7-4.4,7.2-4.3s5.6,0.7,6.8,2.3c0.3,0.4,0.9,0.8,1.6,1.1c1.8,0.8,2.3,3.1,1.1,4.6
					c-1.1,1.4-2.8,2.5-4.8,2.5c-4.2-0.1-6.6-2-6.6-2s-0.9,0.6-0.7,1.3s-0.2,2.6-0.2,3.1s-0.8,0-0.8,0s-1.2-1.9-2.3-0.7
					C25.2,15.4,23.8,10.3,25.5,7.9z"/>
			</g>
		</g>
	</g>
	<path class="st8" d="M28.8,26.7c-2.8,0.6-8.3,2.1-9.7,4.7c5.1,3.9,4.4,14.3,4.4,14.3l-0.8,17c0,0,0.7,4.1,0.8,6.1
		c1.8,0.1,5.5,0.2,10.7,0c7.9-0.3,10.6-1.4,10.6-1.4s1.2-16.6,0.1-22.6c2.3-9.9,2.8-16.2,1.7-17.3c-0.7-0.7-3.7-1.9-7.8-2.1
		c0,0-0.8,8.6-2.7,11.2C32.3,33.9,28.8,26.7,28.8,26.7z"/>
	<g>
		<polygon class="st1" points="35.4,30.4 32.3,33.9 28.8,26.7 30.1,24.8 		"/>
		<polygon class="st1" points="35.4,30.4 38.1,33 38.7,25.5 37.8,24.6 37.1,25 		"/>
	</g>
	<g>
		<g>
			<path class="st10" d="M41.7,34.6L41.7,34.6l0.6-0.3l0,0l0.2-0.8l0,0L41.7,34.6z"/>
		</g>
		<g>
			<path class="st10" d="M43.2,34.3L43.2,34.3l-0.6-0.1l0,0l-0.2-0.7l0,0L43.2,34.3z"/>
		</g>
		<g>
			<path class="st10" d="M38.9,36.4l0.2-0.2c0.1,0.1,0.2,0.1,0.2,0.1c0.1,0,0.2-0.1,0.2-0.2v-0.9h0.3V36c0,0.2,0,0.3-0.1,0.4
				c-0.1,0.1-0.2,0.2-0.4,0.2C39.1,36.6,39,36.5,38.9,36.4z"/>
		</g>
		<g>
			<path class="st10" d="M40.3,35.1l1-0.1v0.3l-0.7,0.1v0.3l0.6-0.1v0.3L40.6,36v0.3l0.7-0.1v0.3l-1,0.1V35.1z"/>
		</g>
		<g>
			<path class="st10" d="M44,35.3l-0.5-0.7l0.3-0.1l0.3,0.5l0.3-0.6h0.3l-0.5,0.9v0.5h-0.3L44,35.3L44,35.3z"/>
		</g>
		<g>
			<polygon class="st10" points="42.3,36.1 42.3,34.8 41.7,34.8 41.7,35.1 42.1,35.1 42.1,36.1 			"/>
		</g>
		<g>
			<polygon class="st10" points="42.5,36.1 42.5,34.7 43.2,34.6 43.2,34.9 42.8,35 42.8,36 			"/>
		</g>
	</g>
</g>
</svg>
