<?xml version="1.0" encoding="utf-8"?>
<!-- Generator: Adobe Illustrator 24.0.0, SVG Export Plug-In . SVG Version: 6.00 Build 0)  -->
<svg version="1.1" id="Layer_1" xmlns="http://www.w3.org/2000/svg" xmlns:xlink="http://www.w3.org/1999/xlink" x="0px" y="0px"
	 width="140px" height="140px" viewBox="0 0 140 140" style="enable-background:new 0 0 140 140;" xml:space="preserve">
<style type="text/css">
	.st0{opacity:0.3;fill:#4D4D4F;enable-background:new    ;}
	.st1{fill:#323232;}
	.st2{fill:#020202;}
	.st3{fill:#73D7E3;}
	.st4{fill:#B3B3B3;}
	.st5{fill:#F5F5F5;}
	.st6{fill:#FFFFFF;}
	.st7{fill:#F9F9F9;}
	.st8{fill:#343434;}
	.st9{enable-background:new    ;}
	.st10{fill:#202021;}
	.st11{fill:#2E2E2F;}
	.st12{fill:#222222;}
	.st13{fill:#373738;}
	.st14{clip-path:url(#SVGID_2_);enable-background:new    ;}
	.st15{fill:#333334;}
	.st16{fill:#323233;}
	.st17{fill:#313131;}
	.st18{fill:#2F2F30;}
	.st19{fill:#2D2D2D;}
	.st20{fill:#2C2C2C;}
	.st21{fill:#2A2A2B;}
	.st22{fill:#29292A;}
	.st23{fill:#282828;}
	.st24{fill:#262627;}
	.st25{fill:#252526;}
	.st26{fill:#242424;}
	.st27{fill:#232323;}
	.st28{fill:#212122;}
	.st29{fill:#343435;}
	.st30{clip-path:url(#SVGID_4_);enable-background:new    ;}
	.st31{clip-path:url(#SVGID_6_);enable-background:new    ;}
	.st32{clip-path:url(#SVGID_8_);enable-background:new    ;}
	.st33{clip-path:url(#SVGID_12_);enable-background:new    ;}
	.st34{fill:#2C2C2D;}
	.st35{clip-path:url(#SVGID_14_);enable-background:new    ;}
	.st36{clip-path:url(#SVGID_16_);enable-background:new    ;}
	.st37{clip-path:url(#SVGID_18_);enable-background:new    ;}
	.st38{clip-path:url(#SVGID_20_);enable-background:new    ;}
	.st39{fill:#222223;}
	.st40{fill:#232324;}
	.st41{clip-path:url(#SVGID_22_);enable-background:new    ;}
	.st42{clip-path:url(#SVGID_24_);enable-background:new    ;}
	.st43{clip-path:url(#SVGID_26_);enable-background:new    ;}
	.st44{fill:#313132;}
	.st45{fill:#2B2B2B;}
	.st46{fill:#303031;}
	.st47{clip-path:url(#SVGID_28_);enable-background:new    ;}
	.st48{clip-path:url(#SVGID_30_);enable-background:new    ;}
	.st49{clip-path:url(#SVGID_32_);enable-background:new    ;}
	.st50{clip-path:url(#SVGID_34_);enable-background:new    ;}
	.st51{clip-path:url(#SVGID_36_);enable-background:new    ;}
	.st52{fill:#3C9886;}
	.st53{fill:#3B9483;}
	.st54{fill:#399080;}
	.st55{fill:#388D7C;}
	.st56{fill:#368979;}
	.st57{fill:#358576;}
	.st58{fill:#338172;}
	.st59{fill:#327D6F;}
	.st60{fill:#307A6C;}
	.st61{fill:#2F7668;}
	.st62{fill:#2D7265;}
	.st63{fill:#2C6E61;}
	.st64{fill:#2A6A5E;}
	.st65{fill:#29675B;}
	.st66{fill:#276357;}
	.st67{clip-path:url(#SVGID_38_);enable-background:new    ;}
	.st68{clip-path:url(#SVGID_40_);enable-background:new    ;}
	.st69{fill:#F1F1F2;}
	.st70{clip-path:url(#SVGID_42_);enable-background:new    ;}
	.st71{fill:#165E96;}
	.st72{fill:#155B92;}
	.st73{fill:#15598E;}
	.st74{fill:#14578A;}
	.st75{fill:#135487;}
	.st76{fill:#135283;}
	.st77{fill:#12507F;}
	.st78{fill:#124D7B;}
	.st79{fill:#114B78;}
	.st80{fill:#114974;}
	.st81{fill:#2962A5;}
	.st82{clip-path:url(#SVGID_44_);enable-background:new    ;}
	.st83{clip-path:url(#SVGID_46_);enable-background:new    ;}
	.st84{fill:#3F7AB2;}
	.st85{fill:#404041;}
</style>
<path class="st0" d="M58.9,136.7L130,95.6c0.7-0.4,0.7-1.2,0-1.6L86.4,68.7c-0.8-0.5-1.7-0.5-2.4,0l-70.4,41.7
	c-0.6,0.4-0.6,1.2,0,1.6l42.8,24.8C57.3,137.2,58.1,137.2,58.9,136.7z"/>
<g>
	<g>
		<path class="st1" d="M82.8,63.9l-70.3,41.5c-0.7,0.4-2.4-0.5-2.4-1.4V48c0-1.4,0.8-2.8,2-3.5l71-41.1c0.7-0.4,1.6,0.1,1.6,0.9v56
			C84.8,61.8,84,63.1,82.8,63.9z"/>
		<path class="st2" d="M83.9,64.2l-71,41.1c-0.7,0.4-1.6-0.1-1.6-0.9v-56c0-1.4,0.8-2.8,2-3.5l71-41.1c0.7-0.4,1.6,0.1,1.6,0.9v56
			C85.9,62.2,85.1,63.5,83.9,64.2z"/>
		<polygon class="st3" points="82.1,58.8 15,97.6 15,48.2 82.1,9.4 		"/>
	</g>
	<g>
		<path class="st4" d="M58.9,132.4l72.7-42.1c0.6-0.4,0.5-2.6,0.5-2.6L85.9,62.2c-0.8-0.4-1.7-0.4-2.4,0l-71.2,42.3
			c0,0-0.1,2.1,0.5,2.5l43.8,25.4C57.2,132.8,58.2,132.8,58.9,132.4z"/>
		<path class="st5" d="M58.9,130.8l72.7-42.1c0.6-0.4,0.6-1.2,0-1.6L87,61.2c-0.7-0.4-1.6-0.4-2.4,0l-71.9,42.6
			c-0.6,0.4-0.6,1.2,0,1.6l43.8,25.4C57.2,131.2,58.2,131.2,58.9,130.8z"/>
		<path class="st6" d="M83.6,114.5l20.1-11.6c0.4-0.2,0.4-0.9,0-1.1l-12-7c-0.3-0.2-0.7-0.2-1.1,0l-20.4,12.1
			c-0.2,0.1-0.2,0.4,0,0.5l12.4,7.2C82.9,114.7,83.3,114.7,83.6,114.5z"/>
		<g>
			<path class="st7" d="M113.2,80.5l-70,40.5c-0.3,0.2-0.8,0.2-1.1,0l-26.6-15.3c-0.7-0.4-0.7-1.5,0-1.9l70.1-40.5
				c0.3-0.2,0.8-0.2,1.1,0l26.6,15.3C114,79.1,114,80.1,113.2,80.5z"/>
			<path class="st8" d="M89.5,92.4l-26.4,15.2c-0.1,0.1-0.2,0.1-0.3,0l-3.4-2c-0.2-0.1-0.2-0.4,0-0.5l26.4-15.2
				c0.1-0.1,0.2-0.1,0.3,0l3.4,2C89.7,92,89.7,92.3,89.5,92.4z"/>
			<path class="st8" d="M46.6,111l-9.2,5.4c-0.1,0.1-0.2,0.1-0.3,0l-3.4-2c-0.2-0.1-0.2-0.4,0-0.5l9.2-5.4c0.1-0.1,0.2-0.1,0.3,0
				l3.4,2C46.8,110.7,46.8,110.9,46.6,111z"/>
			<path class="st8" d="M39.7,109.4l-7,4c-0.1,0.1-0.2,0.1-0.3,0l-3.4-2c-0.2-0.1-0.2-0.4,0-0.5l7-4c0.1-0.1,0.2-0.1,0.3,0l3.4,2
				C39.9,109,39.9,109.3,39.7,109.4z"/>
			<path class="st8" d="M106.6,76.4l-9.3,5.4c-0.1,0.1-0.2,0.1-0.3,0l-3.4-2c-0.2-0.1-0.2-0.4,0-0.5l9.3-5.4c0.1-0.1,0.2-0.1,0.3,0
				l3.4,2C106.8,76,106.8,76.3,106.6,76.4z"/>
			<path class="st8" d="M108.1,81.5l-2.6,1.6h-0.1l-1.2-0.7c-0.1,0-0.1-0.1,0-0.2l2.6-1.6h0.1l1.2,0.7
				C108.2,81.3,108.2,81.4,108.1,81.5z"/>
			<path class="st8" d="M105.9,80.2l-2.6,1.6h-0.1l-1.2-0.7c-0.1,0-0.1-0.1,0-0.2l2.6-1.6h0.1l1.2,0.7
				C105.9,80.1,105.9,80.2,105.9,80.2z"/>
			<path class="st8" d="M111.9,79.2l-2.6,1.6h-0.1L108,80c-0.1,0-0.1-0.1,0-0.2l2.6-1.6h0.1l1.2,0.7C112,79,112,79.1,111.9,79.2z"/>
			<path class="st8" d="M104.5,83.5l-2.6,1.6h-0.1l-1.2-0.7c-0.1,0-0.1-0.1,0-0.2l2.6-1.6h0.1l1.2,0.7
				C104.6,83.3,104.6,83.4,104.5,83.5z"/>
			<path class="st8" d="M46.1,117.3l-3.6,2.1c-0.1,0.1-0.2,0.1-0.3,0l-3.4-2c-0.2-0.1-0.2-0.4,0-0.5l3.6-2.1c0.1-0.1,0.2-0.1,0.3,0
				l3.4,2C46.3,117,46.3,117.2,46.1,117.3z"/>
			<path class="st8" d="M50.8,114.7l-3.6,2.1c-0.1,0.1-0.2,0.1-0.3,0l-3.4-2c-0.2-0.1-0.2-0.4,0-0.5l3.6-2.1c0.1-0.1,0.2-0.1,0.3,0
				l3.4,2C51,114.3,51,114.6,50.8,114.7z"/>
			<path class="st8" d="M55.7,111.9l-3.6,2.1c-0.1,0.1-0.2,0.1-0.3,0l-3.4-2c-0.2-0.1-0.2-0.4,0-0.5l3.6-2.1c0.1-0.1,0.2-0.1,0.3,0
				l3.4,2C55.9,111.5,55.9,111.8,55.7,111.9z"/>
			<path class="st8" d="M52,108.1l-3.6,2.1c-0.1,0.1-0.2,0.1-0.3,0l-3.4-2c-0.2-0.1-0.2-0.4,0-0.5l3.6-2.1c0.1-0.1,0.2-0.1,0.3,0
				l3.4,2C52.2,107.7,52.2,108,52,108.1z"/>
			<path class="st8" d="M56.8,105.2l-3.6,2.1c-0.1,0.1-0.2,0.1-0.3,0l-3.4-2c-0.2-0.1-0.2-0.4,0-0.5l3.6-2.1c0.1-0.1,0.2-0.1,0.3,0
				l3.4,2C57,104.8,57,105.1,56.8,105.2z"/>
			<path class="st8" d="M61.7,102.4l-3.6,2.1c-0.1,0.1-0.2,0.1-0.3,0l-3.4-2c-0.2-0.1-0.2-0.4,0-0.5l3.6-2.1c0.1-0.1,0.2-0.1,0.3,0
				l3.4,2C61.9,102,61.9,102.3,61.7,102.4z"/>
			<path class="st8" d="M66.5,99.5l-3.6,2.1c-0.1,0.1-0.2,0.1-0.3,0l-3.4-2c-0.2-0.1-0.2-0.4,0-0.5l3.6-2.1c0.1-0.1,0.2-0.1,0.3,0
				l3.4,2C66.7,99.1,66.7,99.4,66.5,99.5z"/>
			<path class="st8" d="M71.5,96.8l-3.6,2.1c-0.1,0.1-0.2,0.1-0.3,0l-3.4-2c-0.2-0.1-0.2-0.4,0-0.5l3.6-2.1c0.1-0.1,0.2-0.1,0.3,0
				l3.4,2C71.7,96.4,71.7,96.7,71.5,96.8z"/>
			<path class="st8" d="M76.3,93.9L72.7,96c-0.1,0.1-0.2,0.1-0.3,0L69,94c-0.2-0.1-0.2-0.4,0-0.5l3.6-2.1c0.1-0.1,0.2-0.1,0.3,0
				l3.4,2C76.5,93.5,76.5,93.8,76.3,93.9z"/>
			<path class="st8" d="M81.1,91.2l-3.6,2.1c-0.1,0.1-0.2,0.1-0.3,0l-3.4-2c-0.2-0.1-0.2-0.4,0-0.5l3.6-2.1c0.1-0.1,0.2-0.1,0.3,0
				l3.4,2C81.3,90.8,81.3,91.1,81.1,91.2z"/>
			<path class="st8" d="M85.9,88.3l-3.6,2.1c-0.1,0.1-0.2,0.1-0.3,0l-3.4-2c-0.2-0.1-0.2-0.4,0-0.5l3.6-2.1c0.1-0.1,0.2-0.1,0.3,0
				l3.4,2C86.1,87.9,86.1,88.2,85.9,88.3z"/>
			<path class="st8" d="M90.9,85.6l-3.6,2.1c-0.1,0.1-0.2,0.1-0.3,0l-3.4-2c-0.2-0.1-0.2-0.4,0-0.5l3.6-2.1c0.1-0.1,0.2-0.1,0.3,0
				l3.4,2C91.1,85.3,91.1,85.5,90.9,85.6z"/>
			<path class="st8" d="M95.7,82.7l-3.6,2.1c-0.1,0.1-0.2,0.1-0.3,0l-3.4-2c-0.2-0.1-0.2-0.4,0-0.5l3.6-2.1c0.1-0.1,0.2-0.1,0.3,0
				l3.4,2C95.9,82.3,95.9,82.6,95.7,82.7z"/>
			<path class="st8" d="M44.4,106.8l-3.6,2.1c-0.1,0.1-0.2,0.1-0.3,0l-3.4-2c-0.2-0.1-0.2-0.4,0-0.5l3.6-2.1c0.1-0.1,0.2-0.1,0.3,0
				l3.4,2C44.6,106.4,44.6,106.7,44.4,106.8z"/>
			<path class="st8" d="M49.3,103.9l-3.6,2.1c-0.1,0.1-0.2,0.1-0.3,0l-3.4-2c-0.2-0.1-0.2-0.4,0-0.5l3.6-2.1c0.1-0.1,0.2-0.1,0.3,0
				l3.4,2C49.4,103.5,49.4,103.8,49.3,103.9z"/>
			<path class="st8" d="M54.1,101.1l-3.6,2.1c-0.1,0.1-0.2,0.1-0.3,0l-3.4-2c-0.2-0.1-0.2-0.4,0-0.5l3.6-2.1c0.1-0.1,0.2-0.1,0.3,0
				l3.4,2C54.3,100.7,54.3,101,54.1,101.1z"/>
			<path class="st8" d="M59,98.2l-3.6,2.1c-0.1,0.1-0.2,0.1-0.3,0l-3.4-2c-0.2-0.1-0.2-0.4,0-0.5l3.6-2.1c0.1-0.1,0.2-0.1,0.3,0
				l3.4,2C59.2,97.8,59.2,98.1,59,98.2z"/>
			<path class="st8" d="M63.9,95.5l-3.6,2.1c-0.1,0.1-0.2,0.1-0.3,0l-3.4-2c-0.2-0.1-0.2-0.4,0-0.5l3.6-2.1c0.1-0.1,0.2-0.1,0.3,0
				l3.4,2C64.1,95.1,64.1,95.4,63.9,95.5z"/>
			<path class="st8" d="M68.7,92.6l-3.6,2.1c-0.1,0.1-0.2,0.1-0.3,0l-3.4-2c-0.2-0.1-0.2-0.4,0-0.5l3.6-2.1c0.1-0.1,0.2-0.1,0.3,0
				l3.4,2C68.9,92.2,68.9,92.5,68.7,92.6z"/>
			<path class="st8" d="M73.6,89.9L70,92c-0.1,0.1-0.2,0.1-0.3,0l-3.4-2c-0.2-0.1-0.2-0.4,0-0.5l3.6-2.1c0.1-0.1,0.2-0.1,0.3,0
				l3.4,2C73.8,89.5,73.8,89.8,73.6,89.9z"/>
			<path class="st8" d="M78.4,87l-3.6,2.1c-0.1,0.1-0.2,0.1-0.3,0l-3.4-2c-0.2-0.1-0.2-0.4,0-0.5l3.6-2.1c0.1-0.1,0.2-0.1,0.3,0
				l3.4,2C78.6,86.6,78.6,86.9,78.4,87z"/>
			<path class="st8" d="M83.4,84.3l-3.6,2.1c-0.1,0.1-0.2,0.1-0.3,0l-3.4-2c-0.2-0.1-0.2-0.4,0-0.5l3.6-2.1c0.1-0.1,0.2-0.1,0.3,0
				l3.4,2C83.6,84,83.6,84.2,83.4,84.3z"/>
			<path class="st8" d="M88.2,81.4l-3.6,2.1c-0.1,0.1-0.2,0.1-0.3,0l-3.4-2c-0.2-0.1-0.2-0.4,0-0.5l3.6-2.1c0.1-0.1,0.2-0.1,0.3,0
				l3.4,2C88.4,81,88.4,81.3,88.2,81.4z"/>
			<path class="st8" d="M93,78.7l-3.6,2.1c-0.1,0.1-0.2,0.1-0.3,0l-3.4-2c-0.2-0.1-0.2-0.4,0-0.5l3.6-2.1c0.1-0.1,0.2-0.1,0.3,0
				l3.4,2C93.2,78.3,93.2,78.5,93,78.7z"/>
			<path class="st8" d="M33.5,107.3l-5.8,3.3c-0.1,0.1-0.2,0.1-0.3,0l-3.4-2c-0.2-0.1-0.2-0.4,0-0.5l5.8-3.3c0.1-0.1,0.2-0.1,0.3,0
				l3.4,2C33.7,106.9,33.7,107.2,33.5,107.3z"/>
			<path class="st8" d="M38.3,104.7l-3.6,2.1c-0.1,0.1-0.2,0.1-0.3,0l-3.4-2c-0.2-0.1-0.2-0.4,0-0.5l3.6-2.1c0.1-0.1,0.2-0.1,0.3,0
				l3.4,2C38.4,104.3,38.4,104.6,38.3,104.7z"/>
			<path class="st8" d="M43.1,101.8l-3.6,2.1c-0.1,0.1-0.2,0.1-0.3,0l-3.4-2c-0.2-0.1-0.2-0.4,0-0.5l3.6-2.1c0.1-0.1,0.2-0.1,0.3,0
				l3.4,2C43.3,101.4,43.3,101.7,43.1,101.8z"/>
			<path class="st8" d="M48,99l-3.6,2.1c-0.1,0.1-0.2,0.1-0.3,0l-3.4-2c-0.2-0.1-0.2-0.4,0-0.5l3.6-2.1c0.1-0.1,0.2-0.1,0.3,0l3.4,2
				C48.2,98.6,48.2,98.9,48,99z"/>
			<path class="st8" d="M52.8,96.1l-3.6,2.1c-0.1,0.1-0.2,0.1-0.3,0l-3.4-2c-0.2-0.1-0.2-0.4,0-0.5l3.6-2.1c0.1-0.1,0.2-0.1,0.3,0
				l3.4,2C53,95.7,53,96,52.8,96.1z"/>
			<path class="st8" d="M57.8,93.4l-3.6,2.1c-0.1,0.1-0.2,0.1-0.3,0l-3.4-2c-0.2-0.1-0.2-0.4,0-0.5l3.6-2.1c0.1-0.1,0.2-0.1,0.3,0
				l3.4,2C58,93,58,93.3,57.8,93.4z"/>
			<path class="st8" d="M62.6,90.5l-3.6,2c-0.1,0.1-0.2,0.1-0.3,0l-3.4-2c-0.2-0.1-0.2-0.4,0-0.5l3.6-2.1c0.1-0.1,0.2-0.1,0.3,0
				l3.4,2C62.8,90.1,62.8,90.4,62.6,90.5z"/>
			<path class="st8" d="M67.4,87.8l-3.6,2.1c-0.1,0.1-0.2,0.1-0.3,0l-3.4-2c-0.2-0.1-0.2-0.4,0-0.5l3.6-2.1c0.1-0.1,0.2-0.1,0.3,0
				l3.4,2C67.6,87.4,67.6,87.7,67.4,87.8z"/>
			<path class="st8" d="M72.2,84.9L68.7,87c-0.1,0.1-0.2,0.1-0.3,0L65,85c-0.2-0.1-0.2-0.4,0-0.5l3.6-2.1c0.1-0.1,0.2-0.1,0.3,0
				l3.4,2C72.4,84.5,72.4,84.8,72.2,84.9z"/>
			<path class="st8" d="M77.2,82.2l-3.6,2.1c-0.1,0.1-0.2,0.1-0.3,0l-3.4-2c-0.2-0.1-0.2-0.4,0-0.5l3.6-2.1c0.1-0.1,0.2-0.1,0.3,0
				l3.4,2C77.4,81.8,77.4,82.1,77.2,82.2z"/>
			<path class="st8" d="M82,79.3l-3.6,2.1c-0.1,0.1-0.2,0.1-0.3,0l-3.4-2c-0.2-0.1-0.2-0.4,0-0.5l3.6-2.1c0.1-0.1,0.2-0.1,0.3,0
				l3.4,2C82.2,78.9,82.2,79.2,82,79.3z"/>
			<path class="st8" d="M86.9,76.5l-3.6,2.1c-0.1,0.1-0.2,0.1-0.3,0l-3.4-2c-0.2-0.1-0.2-0.4,0-0.5l3.6-2.1c0.1-0.1,0.2-0.1,0.3,0
				l3.4,2C87.1,76.2,87.1,76.4,86.9,76.5z"/>
			<path class="st8" d="M92.1,73.6l-3.6,2.1c-0.1,0.1-0.2,0.1-0.3,0l-3.4-2c-0.2-0.1-0.2-0.4,0-0.5l3.6-2.1c0.1-0.1,0.2-0.1,0.3,0
				l3.4,2C92.3,73.2,92.3,73.5,92.1,73.6z"/>
			<path class="st8" d="M96.9,70.8l-3.6,2.1c-0.1,0.1-0.2,0.1-0.3,0l-3.4-2c-0.2-0.1-0.2-0.4,0-0.5l3.6-2.1c0.1-0.1,0.2-0.1,0.3,0
				l3.4,2C97.1,70.5,97.1,70.7,96.9,70.8z"/>
			<path class="st8" d="M26.4,105.8l-3.6,2.1c-0.1,0.1-0.2,0.1-0.3,0l-3.4-2c-0.2-0.1-0.2-0.4,0-0.5l3.6-2.1c0.1-0.1,0.2-0.1,0.3,0
				l3.4,2C26.6,105.4,26.6,105.7,26.4,105.8z"/>
			<path class="st8" d="M31.2,102.9l-3.6,2.1c-0.1,0.1-0.2,0.1-0.3,0l-3.4-2c-0.2-0.1-0.2-0.4,0-0.5l3.6-2.1c0.1-0.1,0.2-0.1,0.3,0
				l3.4,2C31.4,102.5,31.4,102.8,31.2,102.9z"/>
			<path class="st8" d="M36.1,100.1l-3.6,2.1c-0.1,0.1-0.2,0.1-0.3,0l-3.4-2c-0.2-0.1-0.2-0.4,0-0.5l3.6-2.1c0.1-0.1,0.2-0.1,0.3,0
				l3.4,2C36.3,99.8,36.3,100,36.1,100.1z"/>
			<path class="st8" d="M40.9,97.3l-3.6,2.1c-0.1,0.1-0.2,0.1-0.3,0l-3.4-2c-0.2-0.1-0.2-0.4,0-0.5l3.6-2.1c0.1-0.1,0.2-0.1,0.3,0
				l3.4,2C41.1,96.9,41.1,97.1,40.9,97.3z"/>
			<path class="st8" d="M45.9,94.6l-3.6,2.1c-0.1,0.1-0.2,0.1-0.3,0l-3.4-2c-0.2-0.1-0.2-0.4,0-0.5l3.6-2.1c0.1-0.1,0.2-0.1,0.3,0
				l3.4,2C46.1,94.2,46.1,94.5,45.9,94.6z"/>
			<path class="st8" d="M50.7,91.6l-3.6,2.1c-0.1,0.1-0.2,0.1-0.3,0l-3.4-2c-0.2-0.1-0.2-0.4,0-0.5l3.6-2.1c0.1-0.1,0.2-0.1,0.3,0
				l3.4,2C50.9,91.3,50.9,91.5,50.7,91.6z"/>
			<path class="st8" d="M55.6,89L52,91c-0.1,0.1-0.2,0.1-0.3,0l-3.4-2c-0.2-0.1-0.2-0.4,0-0.5l3.6-2.1c0.1-0.1,0.2-0.1,0.3,0l3.4,2
				C55.7,88.6,55.7,88.8,55.6,89z"/>
			<path class="st8" d="M60.4,86.1l-3.6,2.1c-0.1,0.1-0.2,0.1-0.3,0l-3.4-2c-0.2-0.1-0.2-0.4,0-0.5l3.6-2.1c0.1-0.1,0.2-0.1,0.3,0
				l3.4,2C60.6,85.7,60.6,86,60.4,86.1z"/>
			<path class="st8" d="M65.4,83.4l-3.6,2.1c-0.1,0.1-0.2,0.1-0.3,0l-3.4-2c-0.2-0.1-0.2-0.4,0-0.5l3.6-2.1c0.1-0.1,0.2-0.1,0.3,0
				l3.4,2C65.5,83,65.5,83.3,65.4,83.4z"/>
			<path class="st8" d="M70.2,80.5l-3.6,2.1c-0.1,0.1-0.2,0.1-0.3,0l-3.4-2c-0.2-0.1-0.2-0.4,0-0.5l3.6-2.1c0.1-0.1,0.2-0.1,0.3,0
				l3.4,2C70.3,80.1,70.3,80.3,70.2,80.5z"/>
			<path class="st8" d="M75,77.7l-3.6,2.1c-0.1,0.1-0.2,0.1-0.3,0l-3.4-2c-0.2-0.1-0.2-0.4,0-0.5l3.6-2.1c0.1-0.1,0.2-0.1,0.3,0
				l3.4,2C75.2,77.3,75.2,77.6,75,77.7z"/>
			<path class="st8" d="M80.2,74.8l-3.6,2.1c-0.1,0.1-0.2,0.1-0.3,0l-3.4-2c-0.2-0.1-0.2-0.4,0-0.5l3.6-2.1c0.1-0.1,0.2-0.1,0.3,0
				l3.4,2C80.4,74.4,80.4,74.6,80.2,74.8z"/>
			<path class="st8" d="M85.1,72l-3.6,2.1c-0.1,0.1-0.2,0.1-0.3,0l-3.4-2c-0.2-0.1-0.2-0.4,0-0.5l3.6-2.1c0.1-0.1,0.2-0.1,0.3,0
				l3.4,2C85.3,71.6,85.3,71.9,85.1,72z"/>
			<path class="st8" d="M91.6,68l-5.5,3.1c-0.1,0.1-0.2,0.1-0.3,0l-3.4-2c-0.2-0.1-0.2-0.4,0-0.5l5.5-3.1c0.1-0.1,0.2-0.1,0.3,0
				l3.4,2C91.8,67.7,91.8,67.9,91.6,68z"/>
			<path class="st8" d="M101.7,73.7l-7,4c-0.1,0.1-0.2,0.1-0.3,0l-3.4-2c-0.2-0.1-0.2-0.4,0-0.5l7-4c0.1-0.1,0.2-0.1,0.3,0l3.4,2
				C101.9,73.3,101.9,73.5,101.7,73.7z"/>
			<path class="st8" d="M100.4,86l-3.6,2.1c-0.1,0.1-0.2,0.1-0.3,0l-3.4-2c-0.2-0.1-0.2-0.4,0-0.5l3.6-2.1c0.1-0.1,0.2-0.1,0.3,0
				l3.4,2C100.6,85.7,100.6,85.9,100.4,86z"/>
			<path class="st8" d="M61.6,108.5l-4.4,2.6c-0.1,0.1-0.2,0.1-0.3,0l-3.4-2c-0.2-0.1-0.2-0.4,0-0.5l4.4-2.6c0.1-0.1,0.2-0.1,0.3,0
				l3.4,2C61.8,108.1,61.8,108.4,61.6,108.5z"/>
			<path class="st8" d="M95.5,89l-4.4,2.6c-0.1,0.1-0.2,0.1-0.3,0l-3.4-2c-0.2-0.1-0.2-0.4,0-0.5l4.4-2.6c0.1-0.1,0.2-0.1,0.3,0
				l3.4,2C95.7,88.6,95.7,88.9,95.5,89z"/>
		</g>
	</g>
</g>
<g>
	<g class="st9">
		<g>
			<polygon class="st10" points="65.1,61.7 63.9,61 61.9,58.7 63.2,59.4 			"/>
		</g>
		<g>
			<polygon class="st11" points="69.6,48.1 68.4,47.4 71.4,47.8 72.6,48.5 			"/>
		</g>
		<g>
			<polygon class="st12" points="57.3,67.8 56,67.1 55.8,63.2 57.1,63.9 			"/>
		</g>
		<g>
			<polygon class="st13" points="70.3,40.9 69.1,40.2 72.6,38.4 73.9,39.1 			"/>
		</g>
		<g class="st9">
			<defs>
				<path id="SVGID_1_" class="st9" d="M58.6,56.6l-1.2-0.7c3.4-2,6.1-6.7,6.1-10.6c0-1.2-0.3-2.2-0.7-2.9l1.2,0.7
					c0.5,0.7,0.7,1.7,0.7,2.9C64.8,49.9,62,54.6,58.6,56.6z"/>
			</defs>
			<clipPath id="SVGID_2_">
				<use xlink:href="#SVGID_1_"  style="overflow:visible;"/>
			</clipPath>
			<g class="st14">
				<path class="st15" d="M58.6,56.6l-1.2-0.7c0.7-0.4,1.4-1,2.1-1.6l1.2,0.7C60.1,55.6,59.4,56.1,58.6,56.6"/>
				<path class="st16" d="M60.7,55l-1.2-0.7c0.2-0.2,0.5-0.5,0.7-0.7l1.2,0.7C61.1,54.5,60.9,54.7,60.7,55"/>
				<path class="st17" d="M61.4,54.3l-1.2-0.7c0.2-0.2,0.3-0.4,0.5-0.6l1.2,0.7C61.7,53.9,61.5,54.1,61.4,54.3"/>
				<path class="st18" d="M61.9,53.6l-1.2-0.7c0.1-0.2,0.3-0.4,0.4-0.6l1.2,0.7C62.1,53.3,62,53.5,61.9,53.6"/>
				<path class="st11" d="M62.3,53.1L61,52.4c0.1-0.2,0.2-0.3,0.4-0.5l1.2,0.7C62.5,52.7,62.4,52.9,62.3,53.1"/>
				<path class="st19" d="M62.6,52.6l-1.2-0.7c0.1-0.2,0.2-0.3,0.3-0.5l1.2,0.7C62.8,52.2,62.7,52.4,62.6,52.6"/>
				<path class="st20" d="M62.9,52.1l-1.2-0.7c0.1-0.2,0.2-0.3,0.3-0.5l1.2,0.7C63.1,51.7,63,51.9,62.9,52.1"/>
				<path class="st21" d="M63.2,51.5L62,50.8c0.1-0.2,0.2-0.3,0.3-0.5l1.2,0.7C63.4,51.2,63.3,51.4,63.2,51.5"/>
				<path class="st22" d="M63.5,51l-1.2-0.7c0.1-0.2,0.2-0.4,0.2-0.5l1.2,0.7C63.7,50.7,63.6,50.8,63.5,51"/>
				<path class="st23" d="M63.7,50.5l-1.2-0.7c0.1-0.2,0.2-0.4,0.2-0.5l1.2,0.7C63.9,50.1,63.8,50.3,63.7,50.5"/>
				<path class="st24" d="M64,49.9l-1.2-0.7c0.1-0.2,0.1-0.4,0.2-0.6l1.2,0.7C64.1,49.6,64,49.7,64,49.9"/>
				<path class="st25" d="M64.2,49.4l-1.2-0.7c0.1-0.2,0.1-0.4,0.2-0.6l1.2,0.7C64.3,48.9,64.2,49.2,64.2,49.4"/>
				<path class="st26" d="M64.4,48.7L63.1,48c0.1-0.2,0.1-0.5,0.2-0.7l1.2,0.7C64.5,48.3,64.4,48.5,64.4,48.7"/>
				<path class="st27" d="M64.5,48l-1.2-0.7c0.1-0.3,0.1-0.6,0.1-0.9l1.2,0.7C64.6,47.5,64.6,47.7,64.5,48"/>
				<path class="st28" d="M64.7,47.2l-1.2-0.7c0.1-0.4,0.1-0.8,0.1-1.2c0-1.2-0.3-2.2-0.7-2.9l1.2,0.7c0.5,0.7,0.7,1.7,0.7,2.9
					C64.8,46.4,64.7,46.8,64.7,47.2"/>
			</g>
		</g>
		<g>
			<polygon class="st10" points="64,43.1 62.8,42.3 62.7,42.3 64,43 			"/>
		</g>
		<g>
			<polygon class="st29" points="68.1,35.9 66.8,35.2 70,31.6 71.2,32.3 			"/>
		</g>
		<g>
			<polygon class="st21" points="49.8,69 48.5,68.2 50.1,63.7 51.4,64.4 			"/>
		</g>
		<g class="st9">
			<defs>
				<path id="SVGID_3_" class="st9" d="M54.3,57L53,56.3c1.1,0.6,2.7,0.6,4.4-0.4l1.2,0.7C56.9,57.5,55.4,57.6,54.3,57z"/>
			</defs>
			<clipPath id="SVGID_4_">
				<use xlink:href="#SVGID_3_"  style="overflow:visible;"/>
			</clipPath>
			<g class="st30">
				<path class="st23" d="M54.3,57L53,56.3c0,0,0,0,0,0L54.3,57C54.3,57,54.3,57,54.3,57"/>
				<path class="st22" d="M54.3,57l-1.2-0.7c0.1,0.1,0.2,0.1,0.3,0.2l1.2,0.7C54.5,57.1,54.4,57.1,54.3,57"/>
				<path class="st21" d="M54.6,57.2l-1.2-0.7c0.1,0,0.2,0.1,0.3,0.1l1.2,0.7C54.8,57.2,54.7,57.2,54.6,57.2"/>
				<path class="st20" d="M54.9,57.3l-1.2-0.7c0.1,0,0.2,0.1,0.3,0.1l1.2,0.7C55.2,57.3,55.1,57.3,54.9,57.3"/>
				<path class="st19" d="M55.3,57.3L54,56.6c0.1,0,0.2,0,0.4,0l1.2,0.7C55.5,57.4,55.4,57.4,55.3,57.3"/>
				<path class="st11" d="M55.7,57.4l-1.2-0.7c0.1,0,0.3,0,0.4,0l1.2,0.7C55.9,57.4,55.8,57.4,55.7,57.4"/>
				<path class="st18" d="M56.1,57.4l-1.2-0.7c0.1,0,0.3,0,0.5,0l1.2,0.7C56.4,57.4,56.2,57.4,56.1,57.4"/>
				<path class="st17" d="M56.5,57.3l-1.2-0.7c0.2,0,0.4-0.1,0.5-0.1l1.2,0.7C56.9,57.3,56.7,57.3,56.5,57.3"/>
				<path class="st16" d="M57.1,57.2l-1.2-0.7c0.2-0.1,0.5-0.1,0.7-0.2l1.2,0.7C57.5,57.1,57.3,57.2,57.1,57.2"/>
				<path class="st15" d="M57.8,57l-1.2-0.7c0.3-0.1,0.6-0.3,0.9-0.4l1.2,0.7C58.3,56.7,58.1,56.9,57.8,57"/>
			</g>
		</g>
		<g class="st9">
			<defs>
				<path id="SVGID_5_" class="st9" d="M61.7,41.3L63,42c0.4,0.2,0.7,0.6,1,1l-1.2-0.7C62.5,41.9,62.1,41.6,61.7,41.3z"/>
			</defs>
			<clipPath id="SVGID_6_">
				<use xlink:href="#SVGID_5_"  style="overflow:visible;"/>
			</clipPath>
			<g class="st31">
				<path class="st28" d="M64,43l-1.2-0.7c-0.3-0.4-0.6-0.7-1-1L63,42C63.4,42.3,63.7,42.6,64,43"/>
			</g>
		</g>
		<g class="st9">
			<defs>
				<path id="SVGID_7_" class="st9" d="M65.7,34.4l1.2,0.7c-0.4-0.2-0.7-0.4-1.1-0.5l-1.2-0.7C65,34,65.4,34.2,65.7,34.4z"/>
			</defs>
			<clipPath id="SVGID_8_">
				<use xlink:href="#SVGID_7_"  style="overflow:visible;"/>
			</clipPath>
			<g class="st32">
				<path class="st21" d="M65.9,34.6l-1.2-0.7c0.2,0.1,0.3,0.1,0.5,0.2l1.2,0.7C66.2,34.7,66,34.7,65.9,34.6"/>
				<path class="st22" d="M66.3,34.8l-1.2-0.7c0.2,0.1,0.4,0.2,0.6,0.3l1.2,0.7C66.7,35,66.5,34.9,66.3,34.8"/>
				<path class="st23" d="M66.9,35.1l-1.2-0.7c0,0,0,0,0.1,0L66.9,35.1C67,35.1,67,35.1,66.9,35.1"/>
			</g>
		</g>
		<g class="st9">
			<defs>
				<path id="SVGID_10_" class="st9" d="M50.2,63.9L49,63.2c-0.4-0.2-0.7-0.5-1.1-0.8l1.2,0.7C49.5,63.4,49.9,63.7,50.2,63.9z"/>
			</defs>
			<clipPath id="SVGID_12_">
				<use xlink:href="#SVGID_10_"  style="overflow:visible;"/>
			</clipPath>
			<g class="st33">
				<path class="st28" d="M50.2,63.9L49,63.2c-0.4-0.2-0.7-0.5-1.1-0.8l1.2,0.7C49.5,63.4,49.9,63.7,50.2,63.9"/>
			</g>
		</g>
		<g>
			<polygon class="st34" points="63.1,34.4 61.9,33.6 63.8,29.1 65.1,29.9 			"/>
		</g>
		<g>
			<polygon class="st18" points="65.1,29.9 63.8,29.1 66.2,29.4 67.5,30.1 			"/>
		</g>
		<g>
			<polygon class="st15" points="44.6,64.7 43.4,64 46.4,60.1 47.6,60.8 			"/>
		</g>
		<g>
			<polygon class="st10" points="46,66.7 44.8,66 43.4,64 44.6,64.7 			"/>
		</g>
		<g class="st9">
			<defs>
				<path id="SVGID_13_" class="st9" d="M47.6,60.8l-1.2-0.7c-0.3-0.8-0.6-1.7-0.7-2.7l1.2,0.7C47.1,59.1,47.3,60,47.6,60.8z"/>
			</defs>
			<clipPath id="SVGID_14_">
				<use xlink:href="#SVGID_13_"  style="overflow:visible;"/>
			</clipPath>
			<g class="st35">
				<path class="st28" d="M47.6,60.8l-1.2-0.7c-0.3-0.8-0.6-1.7-0.7-2.7l1.2,0.7C47.1,59.1,47.3,60,47.6,60.8"/>
			</g>
		</g>
		<g class="st9">
			<defs>
				<path id="SVGID_15_" class="st9" d="M60.2,35.2l-1.2-0.7c1-0.4,2-0.7,2.9-0.8l1.2,0.7C62.2,34.5,61.2,34.7,60.2,35.2z"/>
			</defs>
			<clipPath id="SVGID_16_">
				<use xlink:href="#SVGID_15_"  style="overflow:visible;"/>
			</clipPath>
			<g class="st36">
				<path class="st15" d="M60.2,35.2l-1.2-0.7c0,0,0.1,0,0.1-0.1l1.2,0.7C60.3,35.1,60.2,35.1,60.2,35.2"/>
				<path class="st16" d="M60.3,35.1l-1.2-0.7c0.5-0.2,0.9-0.3,1.3-0.5l1.2,0.7C61.2,34.8,60.8,34.9,60.3,35.1"/>
				<path class="st17" d="M61.7,34.6l-1.2-0.7c0.3-0.1,0.7-0.2,1-0.2l1.2,0.7C62.3,34.5,62,34.5,61.7,34.6"/>
				<path class="st18" d="M62.7,34.4l-1.2-0.7c0.2,0,0.3,0,0.5-0.1l1.2,0.7C63,34.4,62.8,34.4,62.7,34.4"/>
			</g>
		</g>
		<g>
			<polygon class="st12" points="33.6,79.7 32.4,79 32.2,75.8 33.5,76.5 			"/>
		</g>
		<g>
			<polygon class="st13" points="42.3,61.3 41,60.6 43.9,59 45.1,59.8 			"/>
		</g>
		<g class="st9">
			<defs>
				<path id="SVGID_17_" class="st9" d="M46.9,54.5l-1.2-0.7c0.1-1.2,0.4-2.3,0.7-3.5l1.2,0.7C47.3,52.1,47,53.3,46.9,54.5z"/>
			</defs>
			<clipPath id="SVGID_18_">
				<use xlink:href="#SVGID_17_"  style="overflow:visible;"/>
			</clipPath>
			<g class="st37">
				<path class="st28" d="M46.9,54.5l-1.2-0.7c0-0.1,0-0.3,0-0.4L47,54C46.9,54.2,46.9,54.3,46.9,54.5"/>
				<path class="st27" d="M47,54l-1.2-0.7c0.1-0.5,0.2-1.1,0.3-1.6l1.2,0.7C47.1,52.9,47,53.5,47,54"/>
				<path class="st26" d="M47.2,52.4L46,51.7c0.1-0.4,0.2-0.9,0.3-1.3l1.2,0.7C47.4,51.5,47.3,52,47.2,52.4"/>
				<path class="st25" d="M47.6,51.1l-1.2-0.7c0,0,0-0.1,0-0.1l1.2,0.7C47.6,51,47.6,51,47.6,51.1"/>
			</g>
		</g>
		<g class="st9">
			<defs>
				<path id="SVGID_19_" class="st9" d="M54.1,39.6l-1.2-0.7c0.9-1,1.9-1.9,2.9-2.6L57,37C56,37.7,55,38.6,54.1,39.6z"/>
			</defs>
			<clipPath id="SVGID_20_">
				<use xlink:href="#SVGID_19_"  style="overflow:visible;"/>
			</clipPath>
			<g class="st38">
				<path class="st16" d="M54.1,39.6l-1.2-0.7c0.2-0.2,0.4-0.4,0.6-0.6l1.2,0.7C54.4,39.2,54.2,39.4,54.1,39.6"/>
				<path class="st15" d="M54.6,39l-1.2-0.7c0.8-0.7,1.5-1.4,2.4-2L57,37C56.2,37.6,55.4,38.3,54.6,39"/>
			</g>
		</g>
		<g>
			<polygon class="st13" points="43.4,56.7 42.1,56 45.7,53.7 46.9,54.5 			"/>
		</g>
		<g>
			<polygon class="st39" points="43.4,59.9 42.1,59.2 42.1,56 43.4,56.7 			"/>
		</g>
		<g>
			<polygon class="st13" points="57.2,32.8 55.9,32.1 58.7,30.5 60,31.2 			"/>
		</g>
		<g>
			<polygon class="st40" points="57,37 55.7,36.3 55.9,32.1 57.2,32.8 			"/>
		</g>
		<g class="st9">
			<defs>
				<path id="SVGID_21_" class="st9" d="M49.1,46.9l-1.2-0.7c0.6-1.3,1.4-2.6,2.2-3.8l1.2,0.7C50.5,44.2,49.8,45.5,49.1,46.9z"/>
			</defs>
			<clipPath id="SVGID_22_">
				<use xlink:href="#SVGID_21_"  style="overflow:visible;"/>
			</clipPath>
			<g class="st41">
				<path class="st22" d="M49.1,46.9l-1.2-0.7c0-0.1,0.1-0.2,0.1-0.2l1.2,0.7C49.2,46.7,49.2,46.8,49.1,46.9"/>
				<path class="st21" d="M49.2,46.6L48,45.9c0.2-0.3,0.3-0.7,0.5-1l1.2,0.7C49.6,46,49.4,46.3,49.2,46.6"/>
				<path class="st20" d="M49.7,45.6l-1.2-0.7c0.2-0.3,0.4-0.7,0.6-1l1.2,0.7C50.1,45,49.9,45.3,49.7,45.6"/>
				<path class="st19" d="M50.3,44.6l-1.2-0.7c0.2-0.3,0.4-0.7,0.6-1l1.2,0.7C50.7,44,50.5,44.3,50.3,44.6"/>
				<path class="st11" d="M50.9,43.6l-1.2-0.7c0.1-0.2,0.3-0.4,0.4-0.6l1.2,0.7C51.2,43.2,51,43.4,50.9,43.6"/>
			</g>
		</g>
		<g class="st9">
			<defs>
				<path id="SVGID_23_" class="st9" d="M32.5,72l-1.2-0.7c0.7,0.4,1.6,0.3,2.7-0.3l1.2,0.7C34.2,72.3,33.2,72.4,32.5,72z"/>
			</defs>
			<clipPath id="SVGID_24_">
				<use xlink:href="#SVGID_23_"  style="overflow:visible;"/>
			</clipPath>
			<g class="st42">
				<path class="st23" d="M32.5,72l-1.2-0.7c0,0,0,0,0,0L32.5,72C32.6,72,32.6,72,32.5,72"/>
				<path class="st22" d="M32.6,72l-1.2-0.7c0.1,0,0.1,0.1,0.2,0.1l1.2,0.7C32.7,72,32.6,72,32.6,72"/>
				<path class="st21" d="M32.8,72.1l-1.2-0.7c0.1,0,0.1,0.1,0.2,0.1l1.2,0.7C32.9,72.1,32.8,72.1,32.8,72.1"/>
				<path class="st20" d="M33,72.1l-1.2-0.7c0.1,0,0.1,0,0.2,0l1.2,0.7C33.1,72.2,33,72.2,33,72.1"/>
				<path class="st19" d="M33.2,72.2l-1.2-0.7c0.1,0,0.2,0,0.2,0l1.2,0.7C33.3,72.2,33.2,72.2,33.2,72.2"/>
				<path class="st11" d="M33.4,72.2l-1.2-0.7c0.1,0,0.2,0,0.2,0l1.2,0.7C33.6,72.2,33.5,72.2,33.4,72.2"/>
				<path class="st18" d="M33.6,72.2l-1.2-0.7c0.1,0,0.2,0,0.3,0l1.2,0.7C33.8,72.2,33.7,72.2,33.6,72.2"/>
				<path class="st17" d="M33.9,72.2l-1.2-0.7c0.1,0,0.2,0,0.3-0.1l1.2,0.7C34.2,72.2,34,72.2,33.9,72.2"/>
				<path class="st16" d="M34.3,72.1L33,71.4c0.1,0,0.3-0.1,0.4-0.2l1.2,0.7C34.6,72,34.4,72.1,34.3,72.1"/>
				<path class="st15" d="M34.7,72l-1.2-0.7c0.2-0.1,0.3-0.2,0.5-0.3l1.2,0.7C35.1,71.8,34.9,71.9,34.7,72"/>
			</g>
		</g>
		<g class="st9">
			<defs>
				<path id="SVGID_25_" class="st9" d="M35.2,71.7L34,71c2.1-1.2,3.8-4.1,3.8-6.5c0-1.2-0.4-2-1.1-2.4l1.2,0.7
					c0.7,0.4,1.1,1.2,1.1,2.4C39,67.6,37.3,70.5,35.2,71.7z"/>
			</defs>
			<clipPath id="SVGID_26_">
				<use xlink:href="#SVGID_25_"  style="overflow:visible;"/>
			</clipPath>
			<g class="st43">
				<path class="st15" d="M35.2,71.7L34,71c0.4-0.3,0.9-0.6,1.3-1l1.2,0.7C36.1,71.1,35.7,71.5,35.2,71.7"/>
				<path class="st16" d="M36.5,70.7L35.2,70c0.1-0.1,0.3-0.3,0.4-0.4l1.2,0.7C36.8,70.4,36.6,70.6,36.5,70.7"/>
				<path class="st17" d="M36.9,70.3l-1.2-0.7c0.1-0.1,0.2-0.2,0.3-0.4l1.2,0.7C37.1,70,37,70.2,36.9,70.3"/>
				<path class="st18" d="M37.2,69.9L36,69.2c0.1-0.1,0.2-0.2,0.3-0.3l1.2,0.7C37.4,69.7,37.3,69.8,37.2,69.9"/>
				<path class="st11" d="M37.5,69.6l-1.2-0.7c0.1-0.1,0.1-0.2,0.2-0.3l1.2,0.7C37.6,69.4,37.5,69.5,37.5,69.6"/>
				<path class="st19" d="M37.7,69.3l-1.2-0.7c0.1-0.1,0.1-0.2,0.2-0.3l1.2,0.7C37.8,69,37.7,69.2,37.7,69.3"/>
				<path class="st20" d="M37.9,68.9l-1.2-0.7c0.1-0.1,0.1-0.2,0.2-0.3l1.2,0.7C38,68.7,37.9,68.8,37.9,68.9"/>
				<path class="st21" d="M38.1,68.6l-1.2-0.7c0.1-0.1,0.1-0.2,0.2-0.3l1.2,0.7C38.2,68.4,38.1,68.5,38.1,68.6"/>
				<path class="st22" d="M38.2,68.3L37,67.6c0.1-0.1,0.1-0.2,0.1-0.3l1.2,0.7C38.3,68.1,38.3,68.2,38.2,68.3"/>
				<path class="st23" d="M38.4,68l-1.2-0.7c0-0.1,0.1-0.2,0.1-0.3l1.2,0.7C38.5,67.7,38.4,67.9,38.4,68"/>
				<path class="st24" d="M38.5,67.6l-1.2-0.7c0-0.1,0.1-0.2,0.1-0.4l1.2,0.7C38.6,67.4,38.5,67.5,38.5,67.6"/>
				<path class="st25" d="M38.6,67.3l-1.2-0.7c0-0.1,0.1-0.3,0.1-0.4l1.2,0.7C38.7,67,38.7,67.1,38.6,67.3"/>
				<path class="st26" d="M38.7,66.9l-1.2-0.7c0-0.1,0.1-0.3,0.1-0.4l1.2,0.7C38.8,66.6,38.8,66.7,38.7,66.9"/>
				<path class="st27" d="M38.9,66.5l-1.2-0.7c0-0.2,0.1-0.4,0.1-0.5l1.2,0.7C38.9,66.1,38.9,66.3,38.9,66.5"/>
				<path class="st28" d="M38.9,65.9l-1.2-0.7c0-0.2,0-0.5,0-0.7c0-1.2-0.4-2-1.1-2.4l1.2,0.7c0.7,0.4,1.1,1.2,1.1,2.4
					C39,65.4,39,65.7,38.9,65.9"/>
			</g>
		</g>
		<g>
			<polygon class="st44" points="46,46.9 44.7,46.2 47.9,46.1 49.1,46.9 			"/>
		</g>
		<g>
			<polygon class="st45" points="44.6,50.5 43.4,49.8 44.7,46.2 46,46.9 			"/>
		</g>
		<g>
			<path class="st44" d="M73.9,42.3l-3.5,2.3c-0.1,1.2-0.4,2.3-0.7,3.5l3,0.4l-1.3,3.6l-3.2,0.1c-0.6,1.3-1.4,2.6-2.2,3.8l1.6,2.7
				l-2.4,3l-2-2.3c-0.9,1-1.9,1.9-2.9,2.6l-0.2,4.2l-2.8,1.6l-0.2-4c-1,0.4-2,0.7-2.9,0.8l-1.9,4.5L49.8,69l1.6-4.5
				c-0.8-0.3-1.6-0.7-2.2-1.3L46,66.7l-1.4-2l3-3.9c-0.3-0.8-0.6-1.7-0.7-2.7l-3.5,1.8l0-3.2l3.5-2.3c0.1-1.2,0.4-2.3,0.7-3.5
				l-3-0.4l1.3-3.6l3.2-0.1c0.6-1.3,1.4-2.6,2.2-3.8l-1.6-2.7l2.4-3l2,2.3c0.9-1,1.9-1.9,2.9-2.6l0.2-4.2l2.8-1.6l0.2,4
				c1-0.4,2-0.7,2.9-0.8l1.9-4.5l2.4,0.2l-1.6,4.5c0.8,0.3,1.6,0.7,2.2,1.3l3.2-3.6l1.4,2l-3,3.9c0.3,0.8,0.6,1.7,0.7,2.7l3.5-1.8
				L73.9,42.3z M58.6,56.6c3.4-2,6.1-6.7,6.1-10.6c0-1.2-0.3-2.2-0.7-2.9l0,0c-0.5-0.8-1.3-1.3-2.2-1.4c-1-0.1-2,0.1-3.2,0.8
				c-1.1,0.7-2.2,1.6-3.1,2.7l-0.1,0.1c-0.9,1.1-1.6,2.5-2.1,3.8l-0.1,0.2c-0.5,1.2-0.7,2.5-0.7,3.7c0,1.2,0.3,2.2,0.7,2.9l0,0.1
				C54.3,57.6,56.3,57.9,58.6,56.6"/>
		</g>
		<g>
			<polygon class="st10" points="51.3,43 50.1,42.3 48.5,39.6 49.7,40.3 			"/>
		</g>
		<g>
			<polygon class="st15" points="49.7,40.3 48.5,39.6 50.9,36.6 52.1,37.3 			"/>
		</g>
		<g>
			<polygon class="st23" points="41,54.6 39.8,53.9 42.1,55.2 43.4,55.9 			"/>
		</g>
		<g>
			<polygon class="st18" points="27.1,78.8 25.8,78.1 27.8,74.5 29,75.3 			"/>
		</g>
		<g>
			<polygon class="st46" points="38.9,58 37.7,57.3 39.8,53.9 41,54.6 			"/>
		</g>
		<g class="st9">
			<defs>
				<path id="SVGID_27_" class="st9" d="M29,75.3l-1.2-0.7c-0.4-0.5-0.6-1.1-0.8-1.8l1.2,0.7C28.4,74.2,28.6,74.8,29,75.3z"/>
			</defs>
			<clipPath id="SVGID_28_">
				<use xlink:href="#SVGID_27_"  style="overflow:visible;"/>
			</clipPath>
			<g class="st47">
				<path class="st28" d="M29,75.3l-1.2-0.7c-0.4-0.5-0.6-1.1-0.8-1.8l1.2,0.7C28.4,74.2,28.6,74.8,29,75.3"/>
			</g>
		</g>
		<g class="st9">
			<defs>
				<path id="SVGID_29_" class="st9" d="M37,58.2l-1.2-0.7c0.7-0.2,1.4-0.3,2-0.2l1.2,0.7C38.3,58,37.7,58,37,58.2z"/>
			</defs>
			<clipPath id="SVGID_30_">
				<use xlink:href="#SVGID_29_"  style="overflow:visible;"/>
			</clipPath>
			<g class="st48">
				<path class="st16" d="M37,58.2l-1.2-0.7c0.1,0,0.1,0,0.1,0l1.2,0.7C37.1,58.2,37,58.2,37,58.2"/>
				<path class="st17" d="M37.1,58.2l-1.2-0.7c0.2-0.1,0.4-0.1,0.6-0.1l1.2,0.7C37.5,58.1,37.3,58.2,37.1,58.2"/>
				<path class="st18" d="M37.7,58.1l-1.2-0.7c0.2,0,0.4,0,0.5-0.1l1.2,0.7C38.1,58,37.9,58,37.7,58.1"/>
				<path class="st11" d="M38.3,58L37,57.3c0.2,0,0.3,0,0.5,0l1.2,0.7C38.6,58,38.4,58,38.3,58"/>
				<path class="st19" d="M38.8,58l-1.2-0.7c0.1,0,0.1,0,0.2,0l1.2,0.7C38.9,58,38.8,58,38.8,58"/>
			</g>
		</g>
		<g class="st9">
			<defs>
				<path id="SVGID_31_" class="st9" d="M28.2,69.4l-1.2-0.7c0.2-0.9,0.4-1.8,0.8-2.8l1.2,0.7C28.6,67.6,28.3,68.5,28.2,69.4z"/>
			</defs>
			<clipPath id="SVGID_32_">
				<use xlink:href="#SVGID_31_"  style="overflow:visible;"/>
			</clipPath>
			<g class="st49">
				<path class="st27" d="M28.2,69.4l-1.2-0.7c0-0.1,0-0.2,0.1-0.3l1.2,0.7C28.2,69.2,28.2,69.3,28.2,69.4"/>
				<path class="st26" d="M28.2,69.1L27,68.4c0.1-0.3,0.1-0.6,0.2-0.9l1.2,0.7C28.3,68.6,28.3,68.9,28.2,69.1"/>
				<path class="st25" d="M28.4,68.3l-1.2-0.7c0.1-0.2,0.1-0.5,0.2-0.7l1.2,0.7C28.6,67.8,28.5,68,28.4,68.3"/>
				<path class="st24" d="M28.7,67.6l-1.2-0.7c0.1-0.2,0.2-0.4,0.2-0.7l1.2,0.7C28.8,67.1,28.7,67.3,28.7,67.6"/>
				<path class="st23" d="M28.9,66.9l-1.2-0.7c0-0.1,0.1-0.1,0.1-0.2l1.2,0.7C28.9,66.7,28.9,66.8,28.9,66.9"/>
			</g>
		</g>
		<g class="st9">
			<defs>
				<path id="SVGID_33_" class="st9" d="M31.5,62.4l-1.2-0.7c0.6-0.8,1.3-1.5,2-2.1l1.2,0.7C32.7,60.9,32.1,61.6,31.5,62.4z"/>
			</defs>
			<clipPath id="SVGID_34_">
				<use xlink:href="#SVGID_33_"  style="overflow:visible;"/>
			</clipPath>
			<g class="st50">
				<path class="st17" d="M31.5,62.4l-1.2-0.7c0.2-0.2,0.3-0.4,0.5-0.6l1.2,0.7C31.8,62,31.6,62.2,31.5,62.4"/>
				<path class="st16" d="M32,61.8L30.7,61c0.3-0.3,0.5-0.6,0.8-0.8l1.2,0.7C32.5,61.2,32.2,61.5,32,61.8"/>
				<path class="st15" d="M32.7,60.9l-1.2-0.7c0.2-0.2,0.5-0.4,0.7-0.6l1.2,0.7C33.2,60.5,33,60.7,32.7,60.9"/>
			</g>
		</g>
		<g>
			<polygon class="st39" points="25.3,75 24.1,74.3 24.1,70.5 25.3,71.2 			"/>
		</g>
		<g>
			<polygon class="st13" points="25.3,71.2 24.1,70.5 26.9,68.7 28.2,69.4 			"/>
		</g>
		<g>
			<polygon class="st13" points="33.5,56.9 32.3,56.2 35.6,54.3 36.8,55 			"/>
		</g>
		<g>
			<polygon class="st27" points="33.4,60.3 32.2,59.6 32.3,56.2 33.5,56.9 			"/>
		</g>
		<g>
			<polygon class="st10" points="29,66.7 27.7,65.9 25.8,64.6 27,65.4 			"/>
		</g>
		<g>
			<polygon class="st18" points="27,65.4 25.8,64.6 28.1,60.6 29.3,61.4 			"/>
		</g>
		<g>
			<path class="st44" d="M45.1,63.5l-2.9,1.8c-0.2,0.9-0.4,1.8-0.8,2.7l1.9,1.3l-2.3,4l-2.1-1c-0.6,0.8-1.3,1.5-2,2.1l-0.1,3.4
				l-3.3,1.9l-0.1-3.2c-0.7,0.2-1.4,0.3-2,0.2l-2.1,3.5l-2.3-1.3l1.9-3.5c-0.4-0.5-0.6-1.1-0.8-1.8L25.3,75l0-3.8l2.9-1.8
				c0.2-0.9,0.4-1.8,0.8-2.8l-2-1.3l2.3-4l2.1,1c0.6-0.8,1.3-1.5,2-2.1l0.1-3.4l3.3-1.9l0.1,3.2c0.7-0.2,1.4-0.3,2-0.2l2.1-3.4
				l2.3,1.3l-1.9,3.5c0.4,0.5,0.6,1.1,0.8,1.8l2.9-1.5L45.1,63.5z M35.2,71.7c2.1-1.2,3.8-4.1,3.8-6.5c0-1.2-0.4-2-1.1-2.4
				c-0.7-0.4-1.6-0.3-2.7,0.3l0,0c-1,0.6-2,1.6-2.6,2.8c-0.7,1.2-1.1,2.5-1.1,3.7C31.5,71.9,33.2,72.9,35.2,71.7"/>
		</g>
		<g>
			<polygon class="st22" points="29.3,61.4 28.1,60.6 30.2,61.6 31.5,62.4 			"/>
		</g>
	</g>
</g>
<g>
	<g>
		<g class="st9">
			<g class="st9">
				<g>
					<g>
						<defs>
							<path id="SVGID_35_" d="M80.1,42.4c8.4-4.9,15.3-16.7,15.3-26.4c1.4,0.8,2.7,1.6,4.1,2.4c0,9.7-6.8,21.6-15.3,26.4
								C82.9,44.1,81.3,43.1,80.1,42.4z"/>
						</defs>
						<clipPath id="SVGID_36_">
							<use xlink:href="#SVGID_35_"  style="overflow:visible;"/>
						</clipPath>
						<g class="st51">
							<path class="st52" d="M84.2,44.8l-4.1-2.4c1.8-1,3.5-2.4,5.1-4l4.1,2.4C87.7,42.4,86,43.8,84.2,44.8"/>
							<path class="st53" d="M89.3,40.8l-4.1-2.4c0.6-0.6,1.1-1.2,1.7-1.8L91,39C90.4,39.7,89.9,40.3,89.3,40.8"/>
							<path class="st54" d="M91,39l-4.1-2.4c0.4-0.5,0.8-1,1.3-1.5l4.1,2.4C91.8,38.1,91.4,38.6,91,39"/>
							<path class="st55" d="M92.2,37.6l-4.2-2.4c0.3-0.4,0.7-0.9,1-1.4l4.1,2.4C92.9,36.7,92.6,37.1,92.2,37.6"/>
							<path class="st56" d="M93.2,36.2l-4.1-2.4c0.3-0.4,0.6-0.9,0.9-1.3l4.1,2.4C93.8,35.3,93.5,35.7,93.2,36.2"/>
							<path class="st57" d="M94.1,34.8L90,32.4c0.3-0.4,0.5-0.9,0.8-1.3l4.1,2.4C94.7,34,94.4,34.4,94.1,34.8"/>
							<path class="st58" d="M94.9,33.6l-4.1-2.4c0.3-0.4,0.5-0.9,0.7-1.3l4.1,2.4C95.4,32.7,95.1,33.1,94.9,33.6"/>
							<path class="st59" d="M95.6,32.3l-4.1-2.4c0.2-0.4,0.4-0.9,0.7-1.3l4.1,2.4C96.1,31.4,95.8,31.8,95.6,32.3"/>
							<path class="st60" d="M96.3,31l-4.1-2.4c0.2-0.4,0.4-0.9,0.6-1.3l4.1,2.4C96.7,30.1,96.5,30.5,96.3,31"/>
							<path class="st61" d="M96.9,29.7l-4.1-2.4c0.2-0.4,0.4-0.9,0.6-1.4l4.1,2.4C97.3,28.7,97.1,29.2,96.9,29.7"/>
							<path class="st62" d="M97.4,28.3l-4.1-2.4c0.2-0.5,0.3-1,0.5-1.4l4.1,2.4C97.8,27.3,97.6,27.8,97.4,28.3"/>
							<path class="st63" d="M98,26.8l-4.1-2.4c0.2-0.5,0.3-1,0.5-1.6l4.1,2.4C98.3,25.8,98.1,26.3,98,26.8"/>
							<path class="st64" d="M98.4,25.3l-4.1-2.4c0.2-0.6,0.3-1.2,0.4-1.7l4.1,2.4C98.8,24.1,98.6,24.7,98.4,25.3"/>
							<path class="st65" d="M98.9,23.5l-4.1-2.4c0.1-0.7,0.3-1.4,0.3-2.1l4.1,2.4C99.1,22.1,99,22.8,98.9,23.5"/>
							<path class="st66" d="M99.2,21.4L95.1,19c0.1-1,0.2-2,0.2-3c0-4.8-1.7-8.2-4.5-9.8L95,8.6c2.7,1.6,4.4,5,4.5,9.8
								C99.4,19.4,99.4,20.4,99.2,21.4"/>
						</g>
					</g>
				</g>
			</g>
			<g class="st9">
				<g>
					<g>
						<defs>
							<path id="SVGID_37_" d="M69.2,43.5c2.8,1.6,6.7,1.4,10.9-1.1l4.1,2.4c-4.3,2.4-8.1,2.7-10.9,1.1
								C72.1,45.1,70.4,44.2,69.2,43.5z"/>
						</defs>
						<clipPath id="SVGID_38_">
							<use xlink:href="#SVGID_37_"  style="overflow:visible;"/>
						</clipPath>
						<g class="st67">
							<path class="st61" d="M73.3,45.9l-4.1-2.4c0,0,0,0,0.1,0L73.3,45.9C73.4,45.9,73.3,45.9,73.3,45.9"/>
							<path class="st60" d="M73.4,45.9l-4.1-2.4c0.3,0.1,0.5,0.3,0.8,0.4l4.1,2.4C73.9,46.2,73.6,46,73.4,45.9"/>
							<path class="st59" d="M74.1,46.3L70,43.9c0.3,0.1,0.5,0.2,0.8,0.3l4.1,2.4C74.7,46.5,74.4,46.4,74.1,46.3"/>
							<path class="st58" d="M75,46.6l-4.1-2.4c0.3,0.1,0.6,0.1,0.9,0.2l4.1,2.4C75.5,46.7,75.2,46.7,75,46.6"/>
							<path class="st57" d="M75.8,46.8l-4.1-2.4c0.3,0,0.6,0.1,0.9,0.1l4.2,2.4C76.4,46.9,76.1,46.8,75.8,46.8"/>
							<path class="st56" d="M76.8,46.9l-4.1-2.4c0.3,0,0.7,0,1,0l4.1,2.4C77.4,46.9,77.1,46.9,76.8,46.9"/>
							<path class="st55" d="M77.8,46.9l-4.1-2.4c0.4,0,0.7,0,1.1-0.1l4.1,2.4C78.5,46.8,78.1,46.9,77.8,46.9"/>
							<path class="st54" d="M78.9,46.8l-4.1-2.4c0.4-0.1,0.9-0.2,1.3-0.3l4.1,2.4C79.8,46.6,79.3,46.7,78.9,46.8"/>
							<path class="st53" d="M80.2,46.5l-4.1-2.4c0.6-0.2,1.2-0.3,1.8-0.6l4.1,2.4C81.5,46.1,80.8,46.4,80.2,46.5"/>
							<path class="st52" d="M82.1,45.9l-4.1-2.4c0.7-0.3,1.4-0.7,2.1-1.1l4.1,2.4C83.5,45.2,82.8,45.6,82.1,45.9"/>
						</g>
					</g>
				</g>
			</g>
			<g class="st9">
				<g>
					<g>
						<defs>
							<path id="SVGID_39_" d="M95.3,16c0-4.8-1.7-8.2-4.5-9.8L95,8.5c2.7,1.6,4.4,5,4.5,9.8C98.1,17.6,96.7,16.8,95.3,16z"/>
						</defs>
						<clipPath id="SVGID_40_">
							<use xlink:href="#SVGID_39_"  style="overflow:visible;"/>
						</clipPath>
						<g class="st68">
							<path class="st66" d="M99.2,21.4L95.1,19c0.1-1,0.2-2,0.2-3c0-4.8-1.7-8.2-4.5-9.8L95,8.6c2.7,1.6,4.4,5,4.5,9.8
								C99.4,19.4,99.4,20.4,99.2,21.4"/>
						</g>
					</g>
				</g>
			</g>
			<g>
				<path class="st69" d="M84.1,9.6c8.4-4.9,15.3-1,15.3,8.8c0,9.7-6.8,21.6-15.3,26.4s-15.3,1-15.3-8.7
					C68.8,26.4,75.6,14.5,84.1,9.6z"/>
			</g>
			<g class="st9">
				<g>
					<g>
						<defs>
							<path id="SVGID_41_" d="M90.8,6.1L95,8.5c-2.8-1.6-6.7-1.4-10.9,1L80,7.2C84.2,4.8,88.1,4.5,90.8,6.1z"/>
						</defs>
						<clipPath id="SVGID_42_">
							<use xlink:href="#SVGID_41_"  style="overflow:visible;"/>
						</clipPath>
						<g class="st70">
							<path class="st71" d="M84.1,9.6L80,7.2c0.7-0.4,1.4-0.8,2.1-1l4.1,2.4C85.5,8.8,84.8,9.2,84.1,9.6"/>
							<path class="st72" d="M86.2,8.6l-4.1-2.4c0.6-0.3,1.2-0.5,1.8-0.6L88,8C87.4,8.1,86.8,8.3,86.2,8.6"/>
							<path class="st73" d="M88,7.9l-4.1-2.4c0.5-0.1,0.9-0.2,1.3-0.3l4.1,2.4C88.9,7.7,88.5,7.8,88,7.9"/>
							<path class="st74" d="M89.4,7.7l-4.1-2.4c0.4,0,0.8-0.1,1.1-0.1l4.1,2.4C90.1,7.6,89.8,7.6,89.4,7.7"/>
							<path class="st75" d="M90.5,7.5l-4.1-2.4c0.3,0,0.7,0,1,0l4.1,2.4C91.2,7.5,90.8,7.5,90.5,7.5"/>
							<path class="st76" d="M91.5,7.5l-4.1-2.4c0.3,0,0.6,0,0.9,0.1l4.1,2.4C92.1,7.6,91.8,7.6,91.5,7.5"/>
							<path class="st77" d="M92.4,7.7l-4.1-2.4c0.3,0,0.6,0.1,0.9,0.2l4.1,2.4C93,7.8,92.8,7.7,92.4,7.7"/>
							<path class="st78" d="M93.3,7.8l-4.1-2.4c0.3,0.1,0.6,0.2,0.8,0.3l4.1,2.4C93.8,8,93.6,7.9,93.3,7.8"/>
							<path class="st79" d="M94.1,8.1L90,5.8c0.3,0.1,0.5,0.2,0.8,0.4l4.1,2.4C94.6,8.4,94.4,8.3,94.1,8.1"/>
							<path class="st80" d="M94.9,8.5l-4.1-2.4c0,0,0,0,0.1,0L94.9,8.5C94.9,8.5,94.9,8.5,94.9,8.5"/>
						</g>
					</g>
				</g>
			</g>
			<g>
				<g>
					<path id="SVGID_9_" class="st81" d="M92.8,2.9l4.1,2.4c-3.3-1.9-7.8-1.7-12.8,1.3l-4.1-2.4C84.9,1.2,89.5,1,92.8,2.9z"/>
				</g>
				<g>
					<g>
						<defs>
							<path id="SVGID_43_" d="M92.8,2.9l4.1,2.4c-3.3-1.9-7.8-1.7-12.8,1.3l-4.1-2.4C84.9,1.2,89.5,1,92.8,2.9z"/>
						</defs>
						<clipPath id="SVGID_44_">
							<use xlink:href="#SVGID_43_"  style="overflow:visible;"/>
						</clipPath>
						<g class="st82">
							<path class="st81" d="M84.1,6.5l-4.1-2.4c0.9-0.5,1.7-0.9,2.5-1.3l4.1,2.4C85.8,5.6,84.9,6.1,84.1,6.5"/>
							<path class="st81" d="M86.6,5.3l-4.1-2.4c0.7-0.3,1.4-0.5,2.1-0.7l4.1,2.4C88,4.8,87.3,5,86.6,5.3"/>
							<path class="st81" d="M88.7,4.5l-4.1-2.4c0.5-0.1,1.1-0.3,1.6-0.3l4.1,2.4C89.8,4.3,89.3,4.4,88.7,4.5"/>
							<path class="st81" d="M90.3,4.2l-4.1-2.4c0.5-0.1,0.9-0.1,1.3-0.1l4.1,2.4C91.2,4.1,90.8,4.1,90.3,4.2"/>
							<path class="st81" d="M91.7,4.1l-4.2-2.4c0.4,0,0.8,0,1.2,0l4.1,2.4C92.4,4.1,92.1,4.1,91.7,4.1"/>
							<path class="st81" d="M92.8,4.1l-4.1-2.4c0.4,0,0.7,0.1,1.1,0.1l4.1,2.4C93.6,4.1,93.2,4.1,92.8,4.1"/>
							<path class="st81" d="M93.9,4.2l-4.1-2.4c0.3,0,0.7,0.1,1,0.2l4.1,2.4C94.6,4.4,94.3,4.3,93.9,4.2"/>
							<path class="st81" d="M94.9,4.4l-4.1-2.4c0.3,0.1,0.7,0.2,1,0.3l4.1,2.4C95.6,4.7,95.3,4.5,94.9,4.4"/>
							<path class="st81" d="M95.9,4.8l-4.1-2.4c0.3,0.1,0.6,0.3,0.9,0.4l4.1,2.4C96.5,5.1,96.2,4.9,95.9,4.8"/>
							<path class="st81" d="M96.8,5.2l-4.1-2.4c0,0,0.1,0,0.1,0L96.8,5.2C96.8,5.3,96.8,5.2,96.8,5.2"/>
						</g>
					</g>
				</g>
			</g>
			<g>
				<g>
					<path id="SVGID_11_" class="st81" d="M71.4,49.2l-4.1-2.4c-3.2-1.9-5.2-5.9-5.3-11.6c0-11.4,8-25.3,17.9-31.1l4.1,2.4
						c-9.9,5.7-18,19.6-17.9,31.1C66.2,43.3,68.2,47.3,71.4,49.2z"/>
				</g>
				<g>
					<g>
						<defs>
							<path id="SVGID_45_" d="M71.4,49.2l-4.1-2.4c-3.2-1.9-5.2-5.9-5.3-11.6c0-11.4,8-25.3,17.9-31.1l4.1,2.4
								c-9.9,5.7-18,19.6-17.9,31.1C66.2,43.3,68.2,47.3,71.4,49.2z"/>
						</defs>
						<clipPath id="SVGID_46_">
							<use xlink:href="#SVGID_45_"  style="overflow:visible;"/>
						</clipPath>
						<g class="st83">
							<path class="st81" d="M71.4,49.2l-4.1-2.4c-3.2-1.9-5.2-5.9-5.3-11.6c0-1.2,0.1-2.3,0.2-3.5l4.1,2.4
								c-0.2,1.2-0.2,2.4-0.2,3.5C66.2,43.3,68.2,47.3,71.4,49.2"/>
							<path class="st81" d="M66.4,34.1l-4.1-2.4c0.1-0.8,0.3-1.7,0.4-2.5l4.1,2.4C66.6,32.4,66.5,33.3,66.4,34.1"/>
							<path class="st81" d="M66.8,31.6l-4.1-2.4c0.1-0.7,0.3-1.4,0.5-2.1l4.1,2.4C67.1,30.2,66.9,30.9,66.8,31.6"/>
							<path class="st81" d="M67.3,29.5l-4.1-2.4c0.2-0.6,0.3-1.2,0.6-1.8l4.1,2.4C67.7,28.3,67.5,28.9,67.3,29.5"/>
							<path class="st81" d="M67.9,27.7l-4.2-2.4c0.2-0.6,0.4-1.1,0.6-1.7l4.1,2.4C68.3,26.5,68.1,27.1,67.9,27.7"/>
							<path class="st81" d="M68.5,26l-4.1-2.4c0.2-0.5,0.4-1.1,0.7-1.6l4.1,2.4C68.9,24.9,68.7,25.4,68.5,26"/>
							<path class="st81" d="M69.2,24.4L65,22c0.2-0.5,0.5-1,0.7-1.6l4.1,2.4C69.6,23.3,69.4,23.8,69.2,24.4"/>
							<path class="st81" d="M69.8,22.8l-4.1-2.4c0.3-0.5,0.5-1,0.8-1.5l4.1,2.4C70.4,21.8,70.1,22.3,69.8,22.8"/>
							<path class="st81" d="M70.6,21.3l-4.1-2.4c0.3-0.5,0.6-1,0.8-1.5l4.1,2.4C71.2,20.3,70.9,20.7,70.6,21.3"/>
							<path class="st81" d="M71.5,19.7l-4.1-2.4c0.3-0.5,0.6-1,0.9-1.5l4.1,2.4C72.1,18.7,71.8,19.3,71.5,19.7"/>
							<path class="st81" d="M72.4,18.2l-4.1-2.4c0.3-0.5,0.7-1,1-1.6l4.1,2.4C73.1,17.2,72.8,17.7,72.4,18.2"/>
							<path class="st81" d="M73.5,16.7l-4.1-2.4c0.4-0.6,0.8-1.1,1.2-1.6l4.1,2.4C74.2,15.6,73.8,16.1,73.5,16.7"/>
							<path class="st81" d="M74.6,15.1l-4.1-2.4c0.5-0.6,1-1.2,1.5-1.8l4.1,2.4C75.6,13.9,75.1,14.4,74.6,15.1"/>
							<path class="st81" d="M76.1,13.3L72,10.9c0.7-0.7,1.3-1.4,2-2.1l4.1,2.4C77.4,11.8,76.8,12.6,76.1,13.3"/>
							<path class="st81" d="M78.1,11.2l-4.1-2.4c1.9-1.9,3.9-3.4,6-4.7l4.1,2.4C82,7.8,79.9,9.4,78.1,11.2"/>
						</g>
					</g>
				</g>
			</g>
			<g>
				<path class="st84" d="M84.1,6.5c10-5.7,18-1.1,18.1,10.3s-8,25.3-18,31.1s-18,1.1-18-10.3C66.1,26.2,74.1,12.3,84.1,6.5z
					 M84.2,44.8c8.4-4.9,15.3-16.7,15.3-26.4c0-9.7-6.9-13.6-15.3-8.8S68.8,26.4,68.8,36C68.8,45.8,75.7,49.7,84.2,44.8"/>
			</g>
		</g>
	</g>
	<g>
		<path class="st85" d="M84.1,11.1c0.5-0.3,0.9,0,0.9,0.5c0,0.6-0.4,1.3-0.9,1.6c-0.5,0.3-0.9,0-0.9-0.5
			C83.2,12.1,83.6,11.4,84.1,11.1z"/>
	</g>
	<g>
		<path class="st85" d="M97.8,18.8c0.5-0.3,0.9,0,0.9,0.5c0,0.6-0.4,1.3-0.9,1.6c-0.5,0.3-0.9,0-0.9-0.5
			C96.9,19.8,97.3,19.1,97.8,18.8z"/>
	</g>
	<g>
		<path class="st85" d="M70.8,35.8c0.5-0.3,0.9,0,0.9,0.5c0,0.6-0.4,1.3-0.9,1.6c-0.5,0.3-0.9,0-0.9-0.5
			C69.9,36.8,70.3,36.1,70.8,35.8z"/>
	</g>
	<g>
		<path class="st85" d="M84.1,41.9c0.5-0.3,0.9,0,0.9,0.5c0,0.6-0.4,1.3-0.9,1.6c-0.5,0.3-0.9,0-0.9-0.5
			C83.2,42.9,83.6,42.2,84.1,41.9z"/>
	</g>
	<path class="st85" d="M95.8,21.9l-11.6,6.3c-0.5,0.3-1,0.1-1-0.4l0,0c0-0.5,0.4-1.2,1-1.5l11.6-6.3c0.5-0.3,1-0.1,1,0.4l0,0
		C96.7,20.9,96.3,21.6,95.8,21.9z"/>
	<g>
		<path class="st84" d="M84.1,25.4c0.9-0.5,1.6-0.1,1.6,0.9c0,1-0.7,2.2-1.6,2.7c-0.9,0.5-1.6,0.1-1.6-0.9
			C82.6,27.1,83.3,25.9,84.1,25.4z"/>
	</g>
	<path class="st84" d="M84.1,27.6L84.1,27.6c-0.5,0.3-0.9,0-0.9-0.4v-9.8c0-0.5,0.4-1.1,0.9-1.4l0,0c0.5-0.3,0.9,0,0.9,0.4v9.8
		C85.1,26.7,84.7,27.4,84.1,27.6z"/>
</g>
</svg>
