<?xml version="1.0" encoding="utf-8"?>
<!-- Generator: Adobe Illustrator 24.0.0, SVG Export Plug-In . SVG Version: 6.00 Build 0)  -->
<svg version="1.1" id="Layer_1" xmlns="http://www.w3.org/2000/svg" xmlns:xlink="http://www.w3.org/1999/xlink" x="0px" y="0px"
	 width="140px" height="140px" viewBox="0 0 140 140" style="enable-background:new 0 0 140 140;" xml:space="preserve">
<style type="text/css">
	.st0{fill:url(#SVGID_1_);}
	.st1{fill:#273842;}
	.st2{fill:#556166;}
	.st3{fill:#576771;}
	.st4{opacity:0.2;}
	.st5{fill:#FFFFFF;}
	.st6{fill:none;stroke:#707070;stroke-width:0.1208;}
	.st7{fill:none;stroke:#4BBFA7;stroke-width:0.7248;stroke-linecap:round;stroke-miterlimit:10;}
	.st8{enable-background:new    ;}
	.st9{fill:#4BBFA7;}
	.st10{fill:#2D414D;}
	.st11{fill:#BCBCBC;}
	.st12{fill:none;stroke:#BCBCBC;stroke-width:0.2416;stroke-miterlimit:10;}
	.st13{clip-path:url(#SVGID_3_);}
</style>
<linearGradient id="SVGID_1_" gradientUnits="userSpaceOnUse" x1="38.3427" y1="103.915" x2="61.8181" y2="129.6413">
	<stop  offset="0" style="stop-color:#6D6E70;stop-opacity:0"/>
	<stop  offset="1" style="stop-color:#6D6E70;stop-opacity:0.7"/>
</linearGradient>
<path class="st0" d="M86.8,107.2L60,91.5l-51.2,30l28.9,16.8c0.7,0.4,1.6,0.4,2.3,0l46.7-27C88.3,110.4,88.3,108.1,86.8,107.2z"/>
<g>
	<path class="st1" d="M79.7,2.6c-1.4-0.3-2.9-0.2-4.2,0.6L32.2,28.1c-1.8,1-2.9,2.9-2.9,4.9v94.8c0,2,1,3.9,2.3,4.5
		c1.2,0.6,3.6,1.9,5.3,1.9c0.2,0,0.4,0,0.6-0.1l0,0l0,0c0.2,0,0.3-0.1,0.5-0.2l49.1-28.4c1.7-1,2.8-2.8,2.8-4.8c0,0,0-88.6,0-91.6
		C89.9,6.4,81.5,2.5,79.7,2.6z"/>
	<g>
		<path class="st2" d="M39.7,36.7L82.2,12c1.4-0.8,3.1,0.2,3.1,1.8v84.8c0,0.7-0.4,1.4-1,1.8L41.9,125c-1.4,0.8-3.1-0.2-3.1-1.8
			V38.5C38.7,37.8,39.1,37.1,39.7,36.7z"/>
	</g>
	<path class="st3" d="M49.9,24.5c-2.5,1.6-5,3.2-7.5,4.7l-3.8,2.3c-1.2,0.7-2,1.8-2.5,3.1c-0.3,0.6-0.4,1.3-0.5,2c0,0.7,0,1.5,0,2.2
		c0,1.5,0,3-0.1,4.4c-0.1,3-0.1,5.9-0.3,8.9h-0.4c-0.2-3-0.2-5.9-0.3-8.9c0-1.5,0-3-0.1-4.4c0-0.8,0-1.4,0-2.2s0.2-1.6,0.5-2.3
		c0.6-1.5,1.7-2.8,3-3.6c1.3-0.8,2.6-1.5,3.9-2.2c2.6-1.4,5.2-2.8,7.8-4.2L49.9,24.5z"/>
</g>
<g>
	<g>
		<g id="QR_POP_2">
			<g id="Rectangle_47" transform="translate(46.5 80.5)" class="st4">
				<path class="st5" d="M1.4-35.2l28.3-16c0.9-0.5,1.7-0.1,1.7,1v32.8c0,1.1-0.8,2.4-1.7,2.9L1.4,1.5c-1,0.5-1.7,0.1-1.7-1v-32.8
					C-0.3-33.3,0.4-34.6,1.4-35.2z"/>
				<path class="st6" d="M1.4-35.1l28.3-16c0.9-0.5,1.6-0.1,1.6,1v32.8c0,1-0.7,2.3-1.6,2.8L1.4,1.4c-0.9,0.5-1.6,0.1-1.6-1v-32.8
					C-0.3-33.3,0.5-34.6,1.4-35.1z"/>
			</g>
			<g id="Group_806" transform="translate(-296.766 -69.54)">
				<path id="Path_1059" class="st7" d="M374.6,104.2v-3.9c0-1.4-1-1.9-2.1-1.3l-3.4,1.9"/>
				<path id="Path_1060" class="st7" d="M348.4,112.7l-3.4,1.9c-1.2,0.7-2.1,2.3-2.1,3.7l0,0v3.9"/>
				<path id="Path_1061" class="st7" d="M342.9,146.1v3.9c0,1.4,1,1.9,2.1,1.3l0,0l3.4-1.9"/>
				<path id="Path_1062" class="st7" d="M369.1,137.6l3.4-1.9c1.2-0.7,2.1-2.3,2.1-3.7v-3.9"/>
			</g>
			<g id="Rectangle_46" transform="translate(69.5 103.5)">
				<polygon class="st5" points="-20.7,-55.7 5.5,-70.6 5.5,-40.2 -20.7,-25.3 				"/>
				<polygon class="st6" points="-20.7,-55.7 5.5,-70.5 5.5,-40.2 -20.7,-25.4 				"/>
			</g>
			<g id="Group_2_Copy" transform="translate(100.988 125.048)">
				<g id="Group_38">
					<path id="Fill_1" d="M-38.5-82.2l1.8-1v1.1l-0.9,0.5v1.1l-1.8,1v3.2l-1.8,1v-1.1l0.9-0.5v-3.2l1.8-1V-82.2z"/>
					<path id="Fill_2" d="M-42.2-72.6l-6.5,3.7v-7.5l6.5-3.7V-72.6L-42.2-72.6z M-47.8-75.9v5.4l4.6-2.6v-5.4L-47.8-75.9z"/>
					<path id="Fill_3" d="M-29.4-79.9l-6.5,3.7v-7.5l6.5-3.7L-29.4-79.9L-29.4-79.9z M-34.9-83.2v5.4l4.6-2.6v-5.4L-34.9-83.2z"/>
					<path id="Fill_4" d="M-46.9-75.4l2.8-1.6v3.2l-2.8,1.6V-75.4z"/>
					<path id="Fill_5" d="M-33.9-82.7l2.8-1.6v3.2l-2.8,1.6V-82.7z"/>
					<path id="Fill_6" d="M-38.5-79l0.9-0.5v1l-0.9,0.5V-79z"/>
					<path id="Fill_7" d="M-37.7-78.3l0.9-0.5v4.3l-0.9,0.5v-2.2l-0.9,0.5v1.1l-0.9,0.5v-2.2l1.8-1C-37.7-77.3-37.7-78.3-37.7-78.3z
						"/>
					<path id="Fill_8" d="M-41.4-74.3l0.9-0.5v1.1l0.9-0.5v1.1l-0.9,0.5v2.2l0.9-0.5V-72l0.9-0.5v-1.1l0.9-0.5v3.3l-1.9,1.1v1.1
						l-0.9,0.5v-1.1l-0.9,0.5V-71l-1.9,1.1V-71l1.9-1.1L-41.4-74.3L-41.4-74.3z"/>
					<path id="Fill_9" d="M-46.9-68.8l1.9-1.1v1l-1.9,1.1V-68.8z"/>
					<path id="Fill_10" d="M-36.7-74.7l1.9-1.1v1.1l-1,0.5v1.1l-1,0.5L-36.7-74.7L-36.7-74.7z"/>
					<path id="Fill_11" d="M-33.9-76.2l0.9-0.5v1l-0.9,0.5V-76.2z"/>
					<path id="Fill_12" d="M-48.7-66.8l1.8-1v1.1l0.9-0.5v1.1l-0.9,0.5v1.1l-0.9,0.5v-2.1l-0.9,0.5C-48.7-65.6-48.7-66.8-48.7-66.8z
						"/>
					<path id="Fill_13" d="M-45-68.9l1.9-1.1v1.1l-1,0.5v1.1l1-0.5v1.1l-1.9,1.1V-68.9z"/>
					<path id="Fill_14" d="M-33.1-75.6l0.9-0.5v1.1l0.9-0.5v3.2l-0.9,0.5v-1.1l-1.9,1.1v1.1l-0.9,0.5v-2.2l1.9-1.1V-75.6z"/>
					<path id="Fill_15" d="M-43.1-69l0.9-0.5v1l-0.9,0.5V-69z"/>
					<path id="Fill_16" d="M-30.2-76.3l0.9-0.5v1l-0.9,0.5V-76.3z"/>
					<path id="Fill_17" d="M-42.3-68.3l1-0.5v2.2l-1.9,1.1v-1.1l1-0.5L-42.3-68.3L-42.3-68.3z"/>
					<path id="Fill_18" d="M-37.6-70.8l0.9-0.5v1l-0.9,0.5V-70.8z"/>
					<path id="Fill_19" d="M-48.7-63.6l0.9-0.5v1l-0.9,0.5V-63.6z"/>
					<path id="Fill_20" d="M-46.8-64.6l0.9-0.5v1l-0.9,0.5V-64.6z"/>
					<path id="Fill_21" d="M-39.5-68.8l1.9-1.1v1.1l-0.9,0.5v2.1l-0.9,0.5v2.1l-0.9,0.5v-2.1l-0.9,0.5v-2.1l0.9-0.5v1.1l0.9-0.5
						L-39.5-68.8z"/>
					<path id="Fill_22" d="M-36.7-70.4l0.9-0.5v1l-0.9,0.5V-70.4z"/>
					<path id="Fill_23" d="M-30.2-74.1l0.9-0.5v1l-0.9,0.5V-74.1z"/>
					<path id="Fill_24" d="M-37.6-68.7l0.9-0.5v2.2l-0.9,0.5V-68.7z"/>
					<path id="Fill_25" d="M-33-71.4l0.9-0.5v2.2l-0.9,0.5V-71.4z"/>
					<path id="Fill_26" d="M-31.2-72.4l0.9-0.5v1l-0.9,0.5V-72.4z"/>
					<path id="Fill_27" d="M-34.8-69.3l0.9-0.5v1.1l0.9-0.5v2.2l2.8-1.6v1.1l-3.7,2.1v2.2l-0.9,0.5V-65l-0.9,0.5v1.1l-0.9,0.5v1.1
						l0.9-0.5v1.1l-4.6,2.6v-1.1l2.8-1.6v-2.2l0.9-0.5v-3.2l1.9-1.1v-1H-34.8z"/>
					<path id="Fill_28" d="M-42.2-57.6l-6.5,3.7v-7.5l6.5-3.7V-57.6L-42.2-57.6z M-47.8-60.9v5.4l4.6-2.6v-5.4L-47.8-60.9z"/>
					<path id="Fill_29" d="M-38.5-66l0.9-0.5v1l-0.9,0.5V-66z"/>
					<path id="Fill_30" d="M-32.1-69.6l1.9-1.1v1l-1.9,1.1V-69.6z"/>
					<path id="Fill_31" d="M-46.9-60.3l2.8-1.6v3.2l-2.8,1.6V-60.3z"/>
					<path id="Fill_32" d="M-30.2-69.7l0.9-0.5v1l-0.9,0.5V-69.7z"/>
					<path id="Fill_33" d="M-41.4-62.4l1-0.5v1.1l1-0.5v1.1l-1.9,1.1L-41.4-62.4L-41.4-62.4z"/>
					<path id="Fill_34" d="M-39.5-63.3l1.9-1.1v1l-1.9,1.1V-63.3z"/>
					<path id="Fill_35" d="M-32.1-65.4l0.9-0.5v1l-0.9,0.5V-65.4z"/>
					<path id="Fill_36" d="M-30.2-66.5l0.9-0.5v1l-0.9,0.5V-66.5z"/>
					<path id="Fill_37" d="M-33.9-63.3l0.9-0.5v1l-0.9,0.5V-63.3z"/>
				</g>
			</g>
			<g class="st8">
				<path class="st5" d="M54,36.1l1-0.6v0.4l-0.7,0.4v0.3l0.6-0.4v0.4L54.3,37v0.3l0.7-0.4v0.4l-1,0.6V36.1z"/>
				<path class="st5" d="M55.5,36.5C55.5,36.5,55.5,36.6,55.5,36.5C55.6,36.6,55.6,36.6,55.5,36.5c0.1,0.1,0.2,0.1,0.2,0v-0.1l0,0
					L55.5,36.5L55.5,36.5L55.5,36.5c-0.1-0.1-0.2-0.1-0.2-0.2c0,0,0-0.1,0-0.2c0,0,0-0.1,0-0.2c0-0.1,0-0.1,0.1-0.2
					c0-0.1,0.1-0.1,0.1-0.1s0.1-0.1,0.2-0.1c0.1-0.1,0.2-0.1,0.3-0.1s0.1,0.1,0.1,0.2l-0.3,0.2l0,0c0,0,0,0-0.1,0c0,0-0.1,0-0.1,0.1
					V36l0,0h0.1h0.1h0.1c0,0,0.1,0,0.1,0.1c0,0,0,0.1,0,0.2c0,0,0,0.1,0,0.2c0,0.1,0,0.1-0.1,0.2c0,0.1-0.1,0.1-0.1,0.2
					C55.7,37,55.7,37,55.6,37c-0.1,0.1-0.2,0.1-0.3,0.1s-0.1-0.1-0.1-0.2L55.5,36.5z"/>
				<path class="st5" d="M56.8,35C56.9,35,56.9,35,56.8,35l0.2-0.1h0.1c0,0,0,0,0.1,0c0,0,0.1,0.1,0.1,0.2L57,35.4c0,0,0,0,0-0.1
					c0,0,0,0-0.1,0s-0.1,0-0.1,0c-0.1,0-0.1,0.1-0.2,0.2c0,0.1-0.1,0.2-0.1,0.3s0,0.2,0.1,0.2c0,0,0.1,0,0.2,0c0,0,0.1,0,0.1-0.1
					c0,0,0-0.1,0.1-0.1v-0.1l0.3-0.1c0,0.1-0.1,0.2-0.1,0.3c0,0,0,0.1-0.1,0.1L57,36.1l-0.1,0.1l-0.1,0.1c-0.1,0-0.1,0.1-0.2,0.1
					c-0.1,0-0.1,0-0.2,0l-0.1-0.1c0-0.1,0-0.1,0-0.2c0-0.1,0-0.2,0-0.3s0.1-0.2,0.1-0.3s0.1-0.2,0.2-0.2C56.6,35.1,56.7,35,56.8,35z
					"/>
				<path class="st5" d="M57.9,34.3c0.1,0,0.1-0.1,0.2-0.1s0.1,0,0.1,0l0.1,0.1c0,0,0,0.1,0,0.2v0.7l-0.2,0.1v-0.1L58,35.3l-0.1,0.1
					l-0.1,0.1c-0.1,0.1-0.2,0.1-0.3,0.1s-0.1-0.1-0.1-0.2c0-0.1,0-0.1,0-0.2c0-0.1,0.1-0.1,0.1-0.2c0-0.1,0.1-0.1,0.2-0.2
					c0.1-0.1,0.2-0.1,0.3-0.2c0-0.1,0-0.1,0-0.1h-0.1c0,0-0.1,0-0.1,0.1c0,0,0,0,0,0.1c0,0,0,0,0,0.1L57.4,35c0-0.1,0-0.1,0-0.2
					c0-0.1,0.1-0.1,0.1-0.2c0-0.1,0.1-0.1,0.1-0.2C57.7,34.4,57.8,34.4,57.9,34.3z M57.8,35.3C57.9,35.3,57.9,35.2,57.8,35.3
					c0.1-0.2,0.2-0.2,0.2-0.3l0,0c-0.1,0-0.1,0.1-0.2,0.1l-0.1,0.1v0.1c0,0,0,0,0,0.1C57.7,35.3,57.7,35.4,57.8,35.3
					C57.7,35.4,57.8,35.4,57.8,35.3z"/>
				<path class="st5" d="M59.1,33.7c0.1,0,0.1-0.1,0.2-0.1c0.1,0,0.1,0,0.1,0l0.1,0.1c0,0.1,0,0.1,0,0.2v0.7l-0.3,0.2v-0.6
					c0-0.1,0-0.1-0.1-0.2H59c-0.1,0-0.1,0.1-0.1,0.1c0,0.1-0.1,0.1-0.1,0.2V35l-0.3,0.2V34l0.2-0.1V34l0.1-0.1l0.1-0.1
					C59,33.7,59,33.7,59.1,33.7z"/>
				<path class="st5" d="M60.7,33.6c0,0.1,0,0.1-0.1,0.2c0,0.1-0.1,0.1-0.1,0.2c0,0.1-0.1,0.1-0.1,0.2c-0.1,0.1-0.1,0.1-0.2,0.1
					c-0.1,0-0.1,0.1-0.2,0.1c-0.1,0-0.1,0-0.2,0l-0.1-0.1c0-0.1,0-0.1,0-0.2s0-0.2,0-0.3s0.1-0.2,0.1-0.3s0.1-0.2,0.2-0.2
					c0.1-0.1,0.1-0.1,0.2-0.2c0.1,0,0.1-0.1,0.2-0.1c0.1,0,0.1,0,0.2,0l0.1,0.1c0,0.1,0,0.1,0,0.2l0,0l0,0l0,0L60,33.9
					c0,0,0,0.1,0.1,0.1h0.1c0,0,0.1,0,0.1-0.1c0,0,0,0,0-0.1c0,0,0,0,0-0.1L60.7,33.6z M60.2,33.3C60.1,33.3,60.1,33.4,60.2,33.3
					c-0.1,0.2-0.2,0.2-0.2,0.3l0.4-0.2c0,0,0-0.1-0.1-0.1S60.3,33.3,60.2,33.3z"/>
				<path class="st5" d="M61.3,32.4c0.1,0,0.1-0.1,0.2-0.1c0.1,0,0.1,0,0.1,0l0.1,0.1c0,0,0,0.1,0,0.2v0.7l-0.2,0.1v-0.1l-0.1,0.1
					l-0.1,0.1l-0.1,0.1c-0.1,0.1-0.2,0.1-0.3,0.1s-0.1-0.1-0.1-0.2c0-0.1,0-0.1,0-0.2c0-0.1,0.1-0.1,0.1-0.2c0-0.1,0.1-0.1,0.2-0.2
					s0.2-0.1,0.3-0.2c0-0.1,0-0.1,0-0.1h-0.1c0,0-0.1,0-0.1,0.1c0,0,0,0,0,0.1c0,0,0,0,0,0.1L60.9,33c0-0.1,0-0.1,0-0.2
					c0-0.1,0.1-0.1,0.1-0.2c0-0.1,0.1-0.1,0.1-0.2C61.2,32.5,61.3,32.4,61.3,32.4z M61.3,33.4C61.4,33.4,61.4,33.3,61.3,33.4
					c0.1-0.2,0.2-0.2,0.2-0.3V33c-0.1,0-0.1,0.1-0.2,0.1l-0.1,0.1v0.1c0,0,0,0,0,0.1C61.1,33.4,61.1,33.4,61.3,33.4
					C61.2,33.4,61.2,33.4,61.3,33.4z"/>
				<path class="st5" d="M62.5,31.7L62.5,31.7L62.5,31.7C62.5,31.7,62.6,31.7,62.5,31.7l0.1,0.3l0,0l0,0l0,0c-0.1,0-0.1,0.1-0.1,0.1
					c0,0.1-0.1,0.1-0.1,0.2v0.6L62,33.2V32l0.2-0.1V32c0,0,0-0.1,0.1-0.1c0,0,0-0.1,0.1-0.1C62.4,31.8,62.4,31.8,62.5,31.7z"/>
				<path class="st5" d="M63.9,31.8c0.1-0.1,0.2-0.1,0.2-0.2c0.1-0.1,0.1-0.2,0.1-0.2l0.3-0.2c0,0.1,0,0.2-0.1,0.3
					c0,0.1-0.1,0.2-0.1,0.3c-0.1,0.1-0.1,0.2-0.2,0.2c-0.1,0.1-0.2,0.1-0.2,0.2c-0.1,0.1-0.2,0.1-0.3,0.1s-0.2,0-0.2-0.1
					c-0.1,0-0.1-0.1-0.1-0.2c0-0.1-0.1-0.2-0.1-0.3c0-0.1,0-0.2,0.1-0.4c0-0.1,0.1-0.2,0.1-0.3c0.1-0.1,0.1-0.2,0.2-0.3
					s0.2-0.2,0.3-0.2c0.1,0,0.2-0.1,0.2-0.1c0.1,0,0.1,0,0.2,0s0.1,0.1,0.1,0.1s0.1,0.1,0.1,0.2l-0.3,0.2v-0.1c0,0,0,0-0.1,0H64
					h-0.1c-0.1,0-0.1,0.1-0.1,0.1s-0.1,0.1-0.1,0.2s-0.1,0.1-0.1,0.2s0,0.1,0,0.2s0,0.1,0,0.2c0,0,0,0.1,0.1,0.1L63.9,31.8
					C63.8,31.8,63.8,31.8,63.9,31.8z"/>
				<path class="st5" d="M64.6,31.1c0-0.1,0-0.2,0-0.3c0-0.1,0.1-0.2,0.1-0.3c0-0.1,0.1-0.2,0.2-0.2c0.1-0.1,0.1-0.1,0.2-0.2
					c0.1,0,0.1-0.1,0.2-0.1s0.1,0,0.2,0l0.1,0.1c0,0.1,0,0.1,0,0.2s0,0.2,0,0.3c0,0.1-0.1,0.2-0.1,0.3c0,0.1-0.1,0.2-0.2,0.2
					c-0.1,0.1-0.1,0.1-0.2,0.2c-0.1,0-0.1,0.1-0.2,0.1s-0.1,0-0.2,0l-0.1-0.1C64.6,31.3,64.6,31.2,64.6,31.1z M65.4,30.7
					c0-0.1,0-0.2-0.1-0.2c0,0-0.1,0-0.2,0s-0.1,0.1-0.2,0.2s-0.1,0.2-0.1,0.3s0,0.2,0.1,0.2s0.1,0,0.2,0s0.1-0.1,0.2-0.2
					S65.4,30.8,65.4,30.7z M65.2,29.7l0.3-0.2L65.3,30L65,30.1L65.2,29.7z"/>
				<path class="st5" d="M66.3,30.8c-0.1,0-0.1,0.1-0.2,0.1s-0.1,0-0.2,0l-0.1-0.1c0-0.1,0-0.1,0-0.2s0-0.2,0-0.3
					c0-0.1,0.1-0.2,0.1-0.3c0-0.1,0.1-0.2,0.2-0.2c0.1-0.1,0.1-0.1,0.2-0.1h0.1h0.1c0,0,0,0,0.1,0V29l0.3-0.2v1.6l-0.2,0.1v-0.1
					l-0.1,0.1l-0.1,0.1C66.4,30.7,66.3,30.8,66.3,30.8z M66.1,30.3c0,0.1,0,0.1,0.1,0.2c0,0,0.1,0,0.2,0s0.1-0.1,0.2-0.2
					c0-0.1,0.1-0.2,0.1-0.2c0-0.1,0-0.1-0.1-0.2c0,0-0.1,0-0.2,0s-0.1,0.1-0.2,0.2C66.1,30.1,66.1,30.2,66.1,30.3z"/>
				<path class="st5" d="M67.1,28.8c0-0.1,0-0.1,0-0.2s0.1-0.1,0.1-0.1h0.1l0.1,0.1c0,0.1,0,0.1-0.1,0.2c0,0.1-0.1,0.1-0.1,0.1h-0.1
					C67.1,28.9,67.1,28.9,67.1,28.8z M67.4,30.1l-0.3,0.2v-1.2l0.3-0.2V30.1z"/>
				<path class="st5" d="M68.1,28.6L68.1,28.6h0.2h0.1v-0.1l0.2-0.1v1.1c0,0.1,0,0.2,0,0.2c0,0.1-0.1,0.2-0.1,0.2
					c0,0.1-0.1,0.1-0.2,0.2s-0.1,0.1-0.2,0.2s-0.2,0.1-0.2,0.1c-0.1,0-0.1,0-0.1-0.1l-0.1-0.1L68,30l0,0c0,0,0,0,0.1,0h0.1
					c0.1,0,0.1-0.1,0.2-0.2c0-0.1,0.1-0.1,0.1-0.2v-0.1c0,0,0,0.1-0.1,0.1c0,0,0,0.1-0.1,0.1l-0.1,0.1c-0.1,0-0.1,0.1-0.2,0.1
					s-0.1,0-0.2,0l-0.1-0.1c0-0.1,0-0.1,0-0.2s0-0.2,0-0.2c0-0.1,0.1-0.2,0.1-0.2c0-0.1,0.1-0.1,0.2-0.2C68,28.6,68,28.6,68.1,28.6z
					 M67.9,29.2c0,0.1,0,0.1,0.1,0.1c0,0,0.1,0,0.2,0s0.1-0.1,0.2-0.2c0-0.1,0.1-0.1,0.1-0.2s0-0.1-0.1-0.1c0,0-0.1,0-0.2,0
					S68.1,28.9,68,29S67.9,29.2,67.9,29.2z"/>
				<path class="st5" d="M68.8,28.7c0-0.1,0-0.2,0-0.3c0-0.1,0.1-0.2,0.1-0.3c0-0.1,0.1-0.2,0.2-0.2c0.1-0.1,0.1-0.1,0.2-0.2
					c0.1,0,0.1-0.1,0.2-0.1s0.1,0,0.2,0l0.1,0.1c0,0.1,0,0.1,0,0.2s0,0.2,0,0.3c0,0.1-0.1,0.2-0.1,0.3c0,0.1-0.1,0.2-0.2,0.2
					c-0.1,0.1-0.1,0.1-0.2,0.2c-0.1,0-0.1,0.1-0.2,0.1s-0.1,0-0.2,0l-0.1-0.1C68.8,28.9,68.8,28.8,68.8,28.7z M69.6,28.3
					c0-0.1,0-0.2-0.1-0.2c0,0-0.1,0-0.2,0s-0.1,0.1-0.2,0.2c0,0.1-0.1,0.2-0.1,0.3s0,0.2,0.1,0.2c0,0,0.1,0,0.2,0s0.1-0.1,0.2-0.2
					C69.5,28.5,69.6,28.4,69.6,28.3z"/>
			</g>
			<g class="st8">
				<path class="st9" d="M49.8,86.8L49.5,87v-1.5l0.3-0.2V86.8z"/>
				<path class="st9" d="M50.5,85.3c0.1,0,0.1,0,0.2-0.1h0.1l0.1,0.1c0,0,0,0.1,0,0.2v0.6l-0.3,0.2v-0.6c0-0.1,0-0.1,0-0.1h-0.1
					c-0.1,0-0.1,0.1-0.1,0.1c0,0.1,0,0.1,0,0.2v0.6L50,86.7v-1.1l0.2-0.1v0.1c0,0,0-0.1,0.1-0.1l0.1-0.1
					C50.5,85.3,50.5,85.3,50.5,85.3z"/>
				<path class="st9" d="M51.5,84.8L51.5,84.8h0.2c0,0,0,0,0.1,0v-0.1l0.2-0.1v1c0,0.1,0,0.1,0,0.2s-0.1,0.1-0.1,0.2
					s-0.1,0.1-0.1,0.2c-0.1,0.1-0.1,0.1-0.2,0.1c-0.1,0-0.2,0.1-0.2,0.1c-0.1,0-0.1,0-0.1,0l-0.1-0.1l0.3-0.2l0,0l0,0c0,0,0,0,0.1,0
					s0.1-0.1,0.1-0.1c0-0.1,0.1-0.1,0.1-0.2v-0.1c0,0,0,0.1-0.1,0.1c0,0,0,0-0.1,0.1L51.5,86c-0.1,0-0.1,0.1-0.2,0.1
					c-0.1,0-0.1,0-0.1,0L51.1,86c0,0,0-0.1,0-0.2s0-0.1,0-0.2s0.1-0.1,0.1-0.2s0.1-0.1,0.1-0.2C51.4,84.8,51.4,84.8,51.5,84.8z
					 M51.3,85.4C51.3,85.5,51.3,85.5,51.3,85.4l0.2,0.1c0.1,0,0.1-0.1,0.1-0.1c0-0.1,0.1-0.1,0.1-0.2s0-0.1-0.1-0.1h-0.1
					c-0.1,0-0.1,0.1-0.1,0.1C51.4,85.2,51.3,85.3,51.3,85.4z"/>
				<path class="st9" d="M52.7,84.1L52.7,84.1L52.7,84.1L52.7,84.1l0.1,0.3l0,0l0,0l0,0c-0.1,0-0.1,0.1-0.1,0.1c0,0.1,0,0.1,0,0.2
					v0.6l-0.3,0.2v-1.1l0.2-0.1v0.1c0,0,0-0.1,0.1-0.1C52.5,84.2,52.5,84.2,52.7,84.1C52.6,84.1,52.6,84.1,52.7,84.1z"/>
				<path class="st9" d="M53.7,84.3c0,0.1,0,0.1-0.1,0.2c0,0.1-0.1,0.1-0.1,0.2s-0.1,0.1-0.1,0.1s-0.1,0.1-0.2,0.1
					c-0.1,0-0.1,0.1-0.2,0.1c-0.1,0-0.1,0-0.1,0l-0.1-0.1c0-0.1,0-0.1,0-0.2s0-0.2,0-0.2c0-0.1,0.1-0.2,0.1-0.2
					c0-0.1,0.1-0.1,0.2-0.2c0.1-0.1,0.1-0.1,0.2-0.1c0.1,0,0.1-0.1,0.2-0.1c0.1,0,0.1,0,0.1,0l0.1,0.1
					C53.7,84.1,53.7,84.1,53.7,84.3L53.7,84.3L53.7,84.3L53.7,84.3l-0.6,0.3c0,0,0,0.1,0.1,0.1h0.1c0,0,0,0,0.1,0c0,0,0,0,0-0.1
					c0,0,0,0,0-0.1L53.7,84.3z M53.3,84C53.2,84,53.2,84.1,53.3,84c-0.1,0.2-0.2,0.2-0.2,0.3l0.4-0.2c0,0,0-0.1-0.1-0.1
					C53.4,84,53.4,84,53.3,84z"/>
				<path class="st9" d="M54.1,84C54.1,84,54.2,84,54.1,84C54.2,84.1,54.2,84.1,54.1,84c0.1,0,0.2,0,0.2-0.1v-0.1l0,0h-0.1
					C54.2,83.9,54.2,83.9,54.1,84C54.1,83.9,54,83.9,54.1,84c-0.1-0.1-0.2-0.1-0.2-0.2v-0.1v-0.1c0,0,0-0.1,0.1-0.1l0.1-0.1l0.1-0.1
					c0.1-0.1,0.2-0.1,0.3-0.1s0.1,0.1,0.1,0.2l-0.3,0.2l0,0c0,0,0,0-0.1,0c0,0-0.1,0-0.1,0.1c0,0,0,0,0,0.1l0,0h0.1h0.1h0.1
					c0,0,0.1,0,0.1,0.1V84v0.1c0,0,0,0.1-0.1,0.1c0,0.1-0.1,0.1-0.1,0.1s-0.1,0.1-0.2,0.1c-0.1,0.1-0.2,0.1-0.3,0.1
					s-0.1-0.1-0.1-0.2L54.1,84z"/>
				<path class="st9" d="M55.2,82.6c0.1,0,0.1,0,0.2-0.1h0.1l0.1,0.1c0,0,0,0.1,0,0.2v0.7l-0.2,0.1v-0.1c0,0,0,0.1-0.1,0.1l-0.1,0.1
					l-0.1,0.1c-0.1,0.1-0.2,0.1-0.2,0c-0.1,0-0.1-0.1-0.1-0.2s0-0.1,0-0.2s0-0.1,0.1-0.2c0-0.1,0.1-0.1,0.2-0.2
					c0.1-0.1,0.2-0.1,0.3-0.2c0-0.1,0-0.1,0-0.1h-0.1c0,0,0,0-0.1,0.1c0,0,0,0,0,0.1c0,0,0,0,0,0.1l-0.3,0.1c0-0.1,0-0.1,0-0.2
					s0-0.1,0.1-0.2C55,82.6,55.1,82.6,55.2,82.6C55.1,82.7,55.2,82.7,55.2,82.6z M55.2,83.5C55.3,83.5,55.3,83.4,55.2,83.5
					c0.1-0.2,0.1-0.2,0.1-0.3l0,0c-0.1,0-0.1,0.1-0.1,0.1V83.5C55.1,83.4,55.1,83.4,55.2,83.5C55.1,83.5,55.1,83.5,55.2,83.5
					C55.1,83.5,55.1,83.5,55.2,83.5C55.1,83.6,55.1,83.6,55.2,83.5z"/>
				<path class="st9" d="M56.3,82L56.3,82L56.3,82L56.3,82l0.1,0.3l0,0l0,0l0,0c-0.1,0-0.1,0.1-0.1,0.1c0,0.1,0,0.1,0,0.2v0.5
					L56,83.3v-1.1L56.3,82l-0.1,0.2C56.2,82.2,56.2,82.1,56.3,82C56.1,82.2,56.1,82.1,56.3,82C56.2,82.1,56.2,82.1,56.3,82z"/>
				<path class="st9" d="M57.4,81.4C57.4,81.4,57.5,81.4,57.4,81.4l0.2-0.1h0.1c0,0,0,0,0.1,0c0,0,0.1,0.1,0.1,0.2l-0.3,0.2
					c0,0,0,0,0-0.1c0,0,0,0-0.1,0s0,0-0.1,0s-0.1,0.1-0.1,0.2s-0.1,0.1-0.1,0.2s0,0.1,0.1,0.2h0.1c0,0,0.1,0,0.1-0.1
					c0,0,0-0.1,0.1-0.1v-0.1l0.3-0.1c0,0.1,0,0.2-0.1,0.3c0,0,0,0.1-0.1,0.1c0,0,0,0.1-0.1,0.1l-0.1,0.1l-0.1,0.1
					c-0.1,0-0.1,0.1-0.2,0.1c-0.1,0-0.1,0-0.1,0L57,82.5c0-0.1,0-0.1,0-0.2s0-0.2,0-0.2c0-0.1,0.1-0.2,0.1-0.2
					c0-0.1,0.1-0.1,0.1-0.2C57.3,81.5,57.3,81.4,57.4,81.4z"/>
				<path class="st9" d="M57.9,81.6c0-0.1,0-0.2,0-0.2c0-0.1,0.1-0.2,0.1-0.2c0-0.1,0.1-0.1,0.2-0.2c0.1-0.1,0.1-0.1,0.2-0.1
					c0.1,0,0.1-0.1,0.2-0.1c0.1,0,0.1,0,0.1,0l0.1,0.1c0,0.1,0,0.1,0,0.2s0,0.2,0,0.2c0,0.1-0.1,0.2-0.1,0.2c0,0.1-0.1,0.1-0.1,0.2
					c-0.1,0.1-0.1,0.1-0.2,0.1c-0.1,0-0.1,0.1-0.2,0.1c-0.1,0-0.1,0-0.2,0l-0.1-0.1C58,81.8,57.9,81.7,57.9,81.6z M58.6,81.3
					c0-0.1,0-0.1-0.1-0.2h-0.1c-0.1,0-0.1,0.1-0.1,0.2s-0.1,0.1-0.1,0.2s0,0.1,0.1,0.2h0.1c0.1,0,0.1-0.1,0.1-0.2
					C58.6,81.4,58.6,81.3,58.6,81.3z M58.5,80.4l0.3-0.2l-0.2,0.4l-0.2,0.1L58.5,80.4z"/>
				<path class="st9" d="M59.5,81.3c-0.1,0-0.1,0.1-0.2,0.1c-0.1,0-0.1,0-0.1,0l-0.1-0.1c0-0.1,0-0.1,0-0.2s0-0.2,0-0.2
					c0-0.1,0.1-0.2,0.1-0.2c0-0.1,0.1-0.1,0.1-0.2c0.1-0.1,0.1-0.1,0.2-0.1h0.1h0.1c0,0,0,0,0.1,0v-0.5l0.3-0.2V81l-0.2,0.1V81
					c0,0,0,0.1-0.1,0.1l-0.1,0.1C59.5,81.3,59.5,81.3,59.5,81.3z M59.3,80.9c0,0.1,0,0.1,0.1,0.2h0.1c0.1,0,0.1-0.1,0.1-0.2
					s0.1-0.1,0.1-0.2s0-0.1-0.1-0.2h-0.1c-0.1,0-0.1,0.1-0.1,0.2C59.3,80.7,59.3,80.8,59.3,80.9z"/>
				<path class="st9" d="M60.2,79.6L60.2,79.6c0-0.2,0.1-0.2,0.1-0.2h0.1c0,0,0,0,0,0.1s0,0.1,0,0.1C60.4,79.7,60.3,79.7,60.2,79.6
					C60.3,79.7,60.2,79.7,60.2,79.6L60.2,79.6z M60.4,80.8L60.1,81v-1.1l0.3-0.2V80.8z"/>
				<path class="st9" d="M61.1,79.3L61.1,79.3h0.2c0,0,0,0,0.1,0v-0.1l0.2-0.1v1c0,0.1,0,0.1,0,0.2s-0.1,0.1-0.1,0.2
					s-0.1,0.1-0.1,0.2c-0.1,0.1-0.1,0.1-0.2,0.1c-0.1,0-0.2,0.1-0.2,0.1c-0.1,0-0.1,0-0.1,0l-0.1-0.1l0.3-0.2l0,0l0,0c0,0,0,0,0.1,0
					s0.1-0.1,0.1-0.1c0-0.1,0.1-0.1,0.1-0.2v-0.1c0,0,0,0.1-0.1,0.1c0,0,0,0-0.1,0.1c0,0-0.1,0-0.1,0.1c-0.1,0-0.1,0.1-0.2,0.1
					c-0.1,0-0.1,0-0.1,0l-0.1-0.1c0,0,0-0.1,0-0.2s0-0.1,0-0.2s0.1-0.1,0.1-0.2s0.1-0.1,0.1-0.2C60.9,79.4,61,79.4,61.1,79.3z
					 M60.9,79.9C60.9,80,60.9,80,60.9,79.9l0.2,0.1c0.1,0,0.1-0.1,0.1-0.1c0-0.1,0.1-0.1,0.1-0.2s0-0.1-0.1-0.1h-0.1
					c-0.1,0-0.1,0.1-0.1,0.1C60.9,79.8,60.9,79.9,60.9,79.9z"/>
				<path class="st9" d="M61.7,79.5c0-0.1,0-0.2,0-0.2c0-0.1,0.1-0.2,0.1-0.2c0-0.1,0.1-0.1,0.1-0.2c0.1-0.1,0.1-0.1,0.2-0.1
					c0.1,0,0.1-0.1,0.2-0.1c0.1,0,0.1,0,0.2,0l0.1,0.1c0,0.1,0,0.1,0,0.2s0,0.2,0,0.2c0,0.1-0.1,0.2-0.1,0.2c0,0.1-0.1,0.1-0.2,0.2
					c-0.1,0.1-0.1,0.1-0.2,0.1c-0.1,0-0.1,0.1-0.2,0.1c-0.1,0-0.1,0-0.1,0l-0.1-0.1C61.7,79.6,61.7,79.6,61.7,79.5z M62.4,79.1
					c0-0.1,0-0.1-0.1-0.2h-0.1c-0.1,0-0.1,0.1-0.1,0.2S62,79.2,62,79.3s0,0.1,0.1,0.2h0.1c0.1,0,0.1-0.1,0.1-0.2
					C62.4,79.3,62.4,79.2,62.4,79.1z"/>
				<path class="st9" d="M63.8,77.8L63.8,77.8H64c0,0,0,0,0.1,0c0,0,0-0.1,0.1-0.1l0.1-0.1l0.1-0.1c0.1-0.1,0.2-0.1,0.2,0
					c0.1,0,0.1,0.1,0.1,0.3v0.6l-0.3,0.2V78c0-0.1,0-0.1,0-0.1h-0.1L64.2,78c0,0,0,0.1,0,0.2v0.6L63.9,79v-0.6c0-0.1,0-0.1,0-0.1
					h-0.1l-0.1,0.1c0,0,0,0.1,0,0.2V79l-0.3,0.2v-1.1l0.2-0.1v0.1c0,0,0-0.1,0.1-0.1C63.6,77.9,63.6,77.9,63.8,77.8
					C63.7,77.8,63.7,77.8,63.8,77.8z"/>
				<path class="st9" d="M65.2,76.9c0.1,0,0.1,0,0.2-0.1h0.1l0.1,0.1c0,0,0,0.1,0,0.2v0.7l-0.2,0.1v-0.1c0,0,0,0.1-0.1,0.1L65.2,78
					l-0.1,0.1c-0.1,0.1-0.2,0.1-0.2,0c-0.1,0-0.1-0.1-0.1-0.2s0-0.1,0-0.2s0-0.1,0.1-0.2c0-0.1,0.1-0.1,0.2-0.2s0.2-0.1,0.3-0.2
					c0-0.1,0-0.1,0-0.1h-0.1c0,0,0,0-0.1,0.1c0,0,0,0,0,0.1c0,0,0,0,0,0.1l-0.3,0.1c0-0.1,0-0.1,0-0.2s0-0.1,0.1-0.2
					C65,76.9,65.1,76.9,65.2,76.9C65.1,77,65.2,77,65.2,76.9z M65.2,77.9C65.3,77.9,65.3,77.8,65.2,77.9c0.1-0.2,0.1-0.2,0.1-0.3
					l0,0c-0.1,0-0.1,0.1-0.1,0.1V77.9C65.1,77.8,65.1,77.8,65.2,77.9C65.1,77.9,65.1,77.9,65.2,77.9C65.1,77.8,65.1,77.9,65.2,77.9
					C65.1,77.9,65.1,77.9,65.2,77.9z"/>
				<path class="st9" d="M66.3,76.3c0.1,0,0.1,0,0.2-0.1h0.1l0.1,0.1c0,0,0,0.1,0,0.2v0.6l-0.3,0.2v-0.6c0-0.1,0-0.1,0-0.1h-0.1
					c-0.1,0-0.1,0.1-0.1,0.1c0,0.1,0,0.1,0,0.2v0.6l-0.3,0.2v-1.1l0.2-0.1v0.1c0,0,0-0.1,0.1-0.1L66.3,76.3
					C66.2,76.4,66.3,76.4,66.3,76.3z"/>
				<path class="st9" d="M67.3,76.9c-0.1,0-0.1,0.1-0.2,0.1H67l-0.1-0.1c0,0,0-0.1,0-0.2V76l0.3-0.2v0.6c0,0.1,0,0.1,0,0.1h0.1
					c0.1,0,0.1-0.1,0.1-0.1c0-0.1,0-0.1,0-0.2v-0.6l0.3-0.2v1.1l-0.2,0.1v-0.1c0,0,0,0.1-0.1,0.1l-0.1,0.1
					C67.3,76.9,67.3,76.9,67.3,76.9z"/>
				<path class="st9" d="M68.4,75.2c0.1,0,0.1,0,0.2-0.1h0.1l0.1,0.1c0,0,0,0.1,0,0.2V76l-0.2,0.1V76c0,0,0,0.1-0.1,0.1l-0.1,0.1
					l-0.1,0.1c-0.1,0.1-0.2,0.1-0.2,0c-0.1,0-0.1-0.1-0.1-0.2s0-0.1,0-0.2s0-0.1,0.1-0.2c0-0.1,0.1-0.1,0.2-0.2s0.2-0.1,0.3-0.2
					c0-0.1,0-0.1,0-0.1h-0.1c0,0,0,0-0.1,0.1c0,0,0,0,0,0.1c0,0,0,0,0,0.1L68,75.8c0-0.1,0-0.1,0-0.2s0-0.1,0.1-0.2
					c0-0.1,0.1-0.1,0.1-0.1C68.3,75.2,68.3,75.2,68.4,75.2z M68.3,76.1C68.4,76.1,68.4,76,68.3,76.1c0.1-0.2,0.1-0.2,0.1-0.3l0,0
					c-0.1,0-0.1,0.1-0.1,0.1V76.1C68.2,76,68.2,76,68.3,76.1C68.2,76.1,68.2,76.1,68.3,76.1C68.2,76.1,68.2,76.1,68.3,76.1
					L68.3,76.1z"/>
				<path class="st9" d="M69.2,75.8L69,75.9v-1.5l0.3-0.2v1.6H69.2z"/>
				<path class="st9" d="M69.9,74.3L69.9,74.3h0.2c0,0,0,0,0.1,0c0,0,0-0.1,0.1-0.1l0.1-0.1l0.1-0.1c0.1-0.1,0.2-0.1,0.2,0
					c0.1,0,0.1,0.1,0.1,0.3v0.6l-0.3,0.2v-0.6c0-0.1,0-0.1,0-0.1h-0.1l-0.1,0.1c0,0,0,0.1,0,0.2v0.6L70,75.4v-0.6c0-0.1,0-0.1,0-0.1
					h-0.1l-0.1,0.1c0,0,0,0.1,0,0.2v0.6l-0.3,0.2v-1.1l0.2-0.1v0.1c0,0,0-0.1,0.1-0.1C69.8,74.4,69.8,74.4,69.9,74.3
					C69.8,74.4,69.9,74.3,69.9,74.3z"/>
				<path class="st9" d="M71.8,74c0,0.1,0,0.1-0.1,0.2c0,0.1-0.1,0.1-0.1,0.2s-0.1,0.1-0.1,0.1s-0.1,0.1-0.2,0.1s-0.1,0.1-0.2,0.1
					s-0.1,0-0.1,0l-0.1-0.1c0-0.1,0-0.1,0-0.2s0-0.2,0-0.2c0-0.1,0.1-0.2,0.1-0.2c0-0.1,0.1-0.1,0.2-0.2s0.1-0.1,0.2-0.1
					s0.1-0.1,0.2-0.1s0.1,0,0.1,0l0.1,0.1C71.8,73.8,71.8,73.8,71.8,74L71.8,74L71.8,74L71.8,74l-0.6,0.3c0,0,0,0.1,0.1,0.1h0.1
					c0,0,0,0,0.1,0l0,0c0,0,0,0,0-0.1L71.8,74z M71.4,73.7C71.3,73.7,71.3,73.8,71.4,73.7c-0.1,0.2-0.2,0.2-0.2,0.3l0.4-0.2
					c0,0,0-0.1-0.1-0.1C71.5,73.7,71.4,73.7,71.4,73.7z"/>
				<path class="st9" d="M72.5,72.8c0.1,0,0.1-0.1,0.2-0.1h0.1l0.1,0.1c0,0,0,0.1,0,0.2v0.6l-0.3,0.2v-0.6c0-0.1,0-0.1,0-0.1h-0.1
					c-0.1,0-0.1,0.1-0.1,0.1c0,0.1,0,0.1,0,0.2V74L72,74.2v-1.1l0.2-0.1v0.1c0,0,0-0.1,0.1-0.1l0.1-0.1
					C72.4,72.9,72.5,72.8,72.5,72.8z"/>
				<path class="st9" d="M73.2,72.8H73v-0.3h0.1c0.1,0,0.1-0.1,0.1-0.2v-0.2l0.2-0.1v0.3l0.2-0.1v0.3l-0.2,0.1V73v0.1h0.1l0,0l0,0
					l0,0v0.3l0,0c0,0-0.1,0-0.1,0.1c-0.1,0.1-0.2,0.1-0.2,0c-0.1,0-0.1-0.1-0.1-0.2L73.2,72.8L73.2,72.8z"/>
				<path class="st9" d="M74.7,72.4c0,0,0,0.1-0.1,0.2c0,0.1-0.1,0.1-0.1,0.2s-0.1,0.1-0.1,0.1S74.3,73,74.2,73c0,0-0.1,0-0.2,0
					s-0.1,0-0.1,0l-0.1-0.1c0-0.1,0-0.1,0-0.2s0-0.2,0-0.2c0-0.1,0.1-0.2,0.1-0.2c0-0.1,0.1-0.1,0.2-0.2s0.1-0.1,0.2-0.1
					s0.1-0.1,0.2-0.1s0.1,0,0.1,0l0.1,0.1c0,0.1,0,0.1,0,0.2l0,0l0,0l0,0L74,72.6c0,0,0,0.1,0.1,0.1h0.1c0,0,0,0,0.1,0l0,0
					c0,0,0,0,0-0.1L74.7,72.4z M74.2,72.1C74.1,72.1,74.1,72.2,74.2,72.1c-0.1,0.2-0.2,0.2-0.2,0.3l0.4-0.2c0,0,0-0.1-0.1-0.1
					C74.3,72.1,74.3,72.1,74.2,72.1z"/>
			</g>
			<g transform="matrix(1, 0, 0, 1, 0, 0)">
				<polygon id="Rectangle-2" class="st5" points="42,95.7 82.2,72.9 82.2,100.8 42,123.6 				"/>
			</g>
			<g class="st8">
				<path class="st10" d="M45.2,97.5v1.1L45,98.8l-0.4-0.4V99l-0.2,0.1V98l0.2-0.1l0.4,0.4v-0.7L45.2,97.5z"/>
				<path class="st10" d="M45.7,98.4L45.7,98.4h-0.2c0,0,0,0-0.1-0.1v-0.1v-0.5l0.2-0.1V98c0,0.1,0,0.1,0,0.1h0.1l0.1-0.1v-0.1v-0.4
					l0.2-0.1v0.8l-0.2,0.1v-0.1C45.8,98.2,45.8,98.3,45.7,98.4C45.8,98.3,45.8,98.3,45.7,98.4L45.7,98.4z M45.7,97.2l0.2-0.1
					l-0.1,0.3l-0.2,0.1L45.7,97.2z"/>
				<path class="st10" d="M46.6,97C46.6,97,46.7,97,46.6,97c0.1,0,0.1,0,0.2,0l0,0c0,0,0-0.1,0.1-0.1c0,0,0,0,0.1-0.1
					c0,0,0.1,0,0.1-0.1c0.1,0,0.1-0.1,0.2,0c0,0,0.1,0.1,0.1,0.2v0.5L47,97.6v-0.5V97c0,0,0,0-0.1,0c0,0-0.1,0-0.1,0.1v0.1v0.5
					l-0.2,0.1v-0.5v-0.1c0,0,0,0-0.1,0c0,0-0.1,0-0.1,0.1v0.1v0.5L46.2,98v-0.8l0.2-0.1v0.1c0,0,0,0,0-0.1
					C46.5,97.1,46.5,97.1,46.6,97C46.5,97,46.6,97,46.6,97z"/>
				<path class="st10" d="M48.1,96.8L48.1,96.8c0,0.1,0,0.2-0.1,0.2l-0.1,0.1l-0.1,0.1h-0.1h-0.1l-0.1-0.1c0,0,0-0.1,0-0.2
					s0-0.1,0-0.2s0-0.1,0.1-0.2c0-0.1,0.1-0.1,0.1-0.2l0.1-0.1h0.1H48l0.1,0.1c0,0,0,0.1,0,0.2l0,0l0,0l0,0l-0.5,0.3
					c0,0,0,0,0.1,0.1h0.1c0,0,0,0,0.1,0l0,0l0,0L48.1,96.8z M47.7,96.6L47.7,96.6c-0.1,0.1-0.1,0.2-0.1,0.2l0.3-0.2
					C47.9,96.6,47.9,96.6,47.7,96.6C47.8,96.5,47.8,96.5,47.7,96.6z"/>
				<path class="st10" d="M48.6,95.9L48.6,95.9L48.6,95.9L48.6,95.9l0.1,0.2l0,0l0,0l0,0l-0.1,0.1v0.1v0.4l-0.2,0.1V96L48.6,95.9
					L48.6,95.9C48.6,96,48.6,96,48.6,95.9C48.5,96,48.5,96,48.6,95.9C48.5,95.9,48.6,95.9,48.6,95.9z"/>
				<path class="st10" d="M48.7,96.2c0-0.1,0-0.1,0-0.2s0-0.1,0.1-0.2c0-0.1,0.1-0.1,0.1-0.2l0.1-0.1c0.1,0,0.1,0,0.1,0h0.1l0.1,0.1
					c0,0,0,0.1,0,0.2s0,0.1,0,0.2s0,0.1-0.1,0.2c0,0.1-0.1,0.1-0.1,0.2L49,96.5c-0.1,0-0.1,0-0.1,0h-0.1l-0.1-0.1
					C48.7,96.3,48.7,96.3,48.7,96.2z M49.2,95.9C49.2,95.8,49.2,95.8,49.2,95.9L49.2,95.9H49c0,0.1,0,0.1,0,0.2s0,0.1,0,0.1h0.1
					l0.1-0.1C49.2,96.1,49.2,96,49.2,95.9z"/>
				<path class="st10" d="M50.2,95.8L50.2,95.8H50l-0.1-0.1c0,0,0-0.1,0-0.2s0-0.1,0-0.2s0-0.1,0.1-0.2c0-0.1,0.1-0.1,0.1-0.1
					l0.1-0.1h0.1c0,0,0,0,0.1,0l0,0v-0.4l0.2-0.1v1.1l-0.2,0.1v-0.1c0,0,0,0.1-0.1,0.1C50.4,95.7,50.4,95.7,50.2,95.8
					C50.3,95.8,50.3,95.8,50.2,95.8z M50.1,95.4C50.1,95.5,50.1,95.5,50.1,95.4L50.1,95.4h0.2c0-0.1,0-0.1,0-0.2s0-0.1,0-0.1h-0.1
					l-0.1,0.1C50.1,95.3,50.1,95.4,50.1,95.4z"/>
				<path class="st10" d="M51.5,94.8L51.5,94.8c0,0.1,0,0.2-0.1,0.2l-0.1,0.1l-0.1,0.1h-0.1H51l-0.1-0.1c0,0,0-0.1,0-0.2
					s0-0.1,0-0.2s0-0.1,0.1-0.2c0-0.1,0.1-0.1,0.1-0.2l0.1-0.1h0.1h0.1l0.1,0.1c0,0,0,0.1,0,0.2l0,0l0,0l0,0L51,95c0,0,0,0,0.1,0.1
					h0.1c0,0,0,0,0.1,0l0,0l0,0L51.5,94.8z M51.1,94.6C51.1,94.7,51.1,94.7,51.1,94.6C51,94.8,51,94.8,51,94.9l0.3-0.2
					C51.3,94.7,51.3,94.6,51.1,94.6C51.2,94.6,51.2,94.6,51.1,94.6z"/>
				<path class="st10" d="M52.4,93.7L52.4,93.7h0.2l0.1,0.1c0,0,0,0.1,0,0.2s0,0.1,0,0.2s0,0.1-0.1,0.2c0,0.1-0.1,0.1-0.1,0.2
					l-0.1,0.1h-0.1c0,0,0,0-0.1,0l0,0V95L52,95.1V94l0.2-0.1V94c0,0,0-0.1,0.1-0.1C52.2,93.8,52.2,93.8,52.4,93.7
					C52.3,93.8,52.3,93.8,52.4,93.7z M52.5,94.1C52.5,94,52.5,94,52.5,94.1L52.5,94.1h-0.2c0,0.1,0,0.1,0,0.2s0,0.1,0,0.1h0.1
					l0.1-0.1C52.5,94.2,52.5,94.1,52.5,94.1z"/>
				<path class="st10" d="M53.1,93.3L53.1,93.3h0.2c0,0,0,0,0.1,0.1v0.1V94l-0.2,0.1V94c0,0,0,0.1-0.1,0.1c0,0,0,0-0.1,0.1
					c0,0-0.1,0-0.1,0.1c-0.1,0-0.1,0.1-0.2,0l-0.1-0.1v-0.1c0,0,0-0.1,0.1-0.1l0.1-0.1c0.1,0,0.1-0.1,0.2-0.1v-0.1c0,0,0,0-0.1,0
					l0,0l0,0l0,0l-0.2,0.1v-0.1c0,0,0-0.1,0.1-0.1l0.1-0.1C53,93.3,53.1,93.3,53.1,93.3z M53.1,94C53.1,94,53.2,93.9,53.1,94
					c0.1-0.1,0.1-0.2,0.1-0.2l0,0C53.2,93.8,53.1,93.8,53.1,94C53.1,93.9,53,93.9,53.1,94C53,94.1,53,93.9,53.1,94
					C53,93.9,53,93.9,53.1,94C53,94,53,94,53.1,94C53,94,53.1,94,53.1,94z"/>
				<path class="st10" d="M53.8,93.5C53.8,93.5,53.8,93.6,53.8,93.5C53.8,93.6,53.8,93.6,53.8,93.5c0.1,0,0.1,0,0.2,0c0,0,0,0,0-0.1
					l0,0C53.9,93.4,53.9,93.4,53.8,93.5C53.8,93.4,53.8,93.4,53.8,93.5C53.7,93.4,53.7,93.4,53.8,93.5c-0.1-0.1-0.1-0.1-0.2-0.1
					v-0.1v-0.1c0,0,0-0.1,0.1-0.1l0.1-0.1l0.1-0.1c0.1-0.1,0.2-0.1,0.2,0l0.1,0.1L54,93.1l0,0c0,0,0,0-0.1,0c0,0,0,0-0.1,0
					c0,0,0,0,0,0.1l0,0c0,0,0,0,0.1,0H54h0.1c0,0,0,0,0.1,0v0.1v0.1c0,0,0,0.1-0.1,0.1L54,93.6l-0.1,0.1c-0.1,0.1-0.2,0.1-0.2,0.1
					l-0.1-0.1L53.8,93.5z"/>
				<path class="st10" d="M55,92.9L55,92.9c0,0.1,0,0.2-0.1,0.2l-0.1,0.1l-0.1,0.1h-0.1h-0.1l-0.1-0.1c0,0,0-0.1,0-0.2s0-0.1,0-0.2
					s0-0.1,0.1-0.2c0-0.1,0.1-0.1,0.1-0.2l0.1-0.1h0.1h0.1l0.1,0.1c0,0,0,0.1,0,0.2l0,0l0,0C55,92.7,55,92.8,55,92.9L54.5,93
					c0,0,0,0,0.1,0.1h0.1c0,0,0,0,0.1,0l0,0l0,0L55,92.9z M54.6,92.7C54.6,92.7,54.5,92.7,54.6,92.7c-0.1,0.1-0.1,0.2-0.1,0.2
					l0.3-0.2C54.8,92.7,54.7,92.7,54.6,92.7C54.7,92.6,54.7,92.6,54.6,92.7z"/>
				<path class="st10" d="M55.3,92.7L55.3,92.7L55.3,92.7c0.1,0,0.1,0,0.2,0c0,0,0,0,0-0.1l0,0C55.4,92.6,55.4,92.6,55.3,92.7
					C55.3,92.6,55.3,92.6,55.3,92.7C55.2,92.6,55.2,92.6,55.3,92.7c-0.1-0.1-0.1-0.1-0.2-0.1v-0.1v-0.1c0,0,0-0.1,0.1-0.1l0.1-0.1
					l0.1-0.1c0.1-0.1,0.2-0.1,0.2,0l0.1,0.1l-0.2,0.1l0,0c0,0,0,0-0.1,0c0,0,0,0-0.1,0c0,0,0,0,0,0.1l0,0c0,0,0,0,0.1,0h0.1h0.1
					c0,0,0,0,0.1,0v0.1v0.1c0,0,0,0.1-0.1,0.1l-0.1,0.1l-0.1,0.1C55.3,93,55.2,93,55.2,93c-0.1,0-0.1-0.1-0.1-0.1L55.3,92.7z"/>
			</g>
			<path id="Rectangle-3" class="st10" d="M47.1,103.1l1.1-0.6c0.1-0.1,0.2,0,0.2,0.1s-0.1,0.2-0.2,0.3l-1.1,0.6
				c-0.1,0.1-0.2,0-0.2-0.1C47,103.3,47,103.2,47.1,103.1z"/>
			<g id="Rectangle_Copy_6" transform="translate(88.5 492)">
				<path class="st5" d="M-30.9-390.9l-6.6,3.8v-7.7l6.6-3.8V-390.9z"/>
				<path class="st11" d="M-37.4-394.8v7.4l6.4-3.6v-7.4L-37.4-394.8 M-37.6-394.9l6.8-3.9v7.9l-6.8,3.9V-394.9z"/>
			</g>
			<g class="st8">
				<path class="st10" d="M55,99.4v0.4l-1.2,0.7v-0.3l0.6-1.1l0.1-0.1c0,0,0-0.1,0.1-0.1v-0.1c0-0.1,0-0.1,0-0.1h-0.1
					c-0.1,0-0.1,0.1-0.2,0.2c0,0.1-0.1,0.1-0.1,0.2l-0.4,0.2c0-0.1,0-0.2,0-0.3c0-0.1,0.1-0.2,0.1-0.3c0.1-0.1,0.1-0.2,0.2-0.2
					c0.1-0.1,0.2-0.1,0.2-0.2c0.1-0.1,0.2-0.1,0.3-0.1s0.1,0,0.2,0c0.1,0,0.1,0.1,0.1,0.1c0,0.1,0,0.1,0,0.2s0,0.2,0,0.2
					c0,0.1-0.1,0.2-0.1,0.2c0,0.1-0.1,0.2-0.1,0.2l-0.3,0.6L55,99.4z"/>
			</g>
			<g class="st8">
				<path class="st10" d="M67.3,92.2c-0.1,0.1-0.3,0-0.3,0c-0.1-0.1-0.1-0.2-0.1-0.3l0.4-0.2c0,0.2,0.1,0.2,0.2,0.1
					c0.1,0,0.1-0.1,0.2-0.2c0-0.1,0.1-0.1,0.1-0.2s0-0.1-0.1-0.1c0,0-0.1,0-0.2,0s-0.1,0-0.2,0s-0.1,0-0.2,0s-0.1,0-0.2-0.1
					c0-0.1-0.1-0.1-0.1-0.2s0-0.1,0-0.2s0.1-0.1,0.1-0.2s0.1-0.1,0.1-0.2c0.1-0.1,0.1-0.1,0.2-0.2V90l0.4-0.2v0.3c0.1,0,0.1,0,0.2,0
					s0.1,0,0.1,0.1l0.1,0.1c0,0.1,0,0.1,0,0.2l-0.4,0.2c0-0.1,0-0.1-0.1-0.2c0,0-0.1,0-0.2,0s-0.1,0.1-0.1,0.1
					c0,0.1-0.1,0.1-0.1,0.2c0,0,0,0.1,0.1,0.1c0,0,0.1,0,0.2,0s0.1,0,0.2,0s0.1,0,0.2,0s0.1,0,0.2,0.1c0,0.1,0.1,0.1,0.1,0.3
					c0,0.1,0,0.1,0,0.2S68,91.6,68,91.7s-0.1,0.1-0.1,0.2c-0.1,0.1-0.1,0.1-0.2,0.2v0.3l-0.4,0.2C67.3,92.6,67.3,92.2,67.3,92.2z"/>
				<path class="st10" d="M68.9,89.3v2l-0.4,0.2v-1.4l-0.2,0.2l-0.2-0.2l0.4-0.6L68.9,89.3z"/>
				<path class="st10" d="M69.8,88.8v2L69.4,91v-1.4l-0.2,0.2L69,89.6l0.4-0.6L69.8,88.8z"/>
				<path class="st10" d="M70.8,88.8c0.1,0,0.1-0.1,0.2-0.1h0.1c0,0,0.1,0,0.1,0.1c0-0.1,0.1-0.1,0.1-0.2l0.1-0.1l0.1-0.1
					c0.1-0.1,0.2-0.1,0.3,0c0.1,0.1,0.1,0.2,0.1,0.4v0.9l-0.4,0.2V89c0-0.1,0-0.1-0.1-0.2h-0.1l-0.1,0.1c0,0.1-0.1,0.1-0.1,0.2V90
					l-0.4,0.2v-0.8c0-0.1,0-0.1-0.1-0.2h-0.1l-0.1,0.1c0,0.1-0.1,0.1-0.1,0.2v0.8l-0.4,0.2v-1.4l0.3-0.2l0.1,0.1l0.1-0.1l0.1-0.1
					C70.7,88.9,70.7,88.8,70.8,88.8z"/>
				<path class="st10" d="M73.3,87.4l-0.4,0.9l0.4,0.5L72.9,89l-0.2-0.3l-0.2,0.6L72,89.5l0.4-1L72,88l0.4-0.2l0.2,0.3l0.2-0.5
					L73.3,87.4z"/>
				<path class="st10" d="M74.1,86.9c0.1,0,0.1-0.1,0.2-0.1s0.1,0,0.2,0l0.1,0.1c0,0.1,0,0.1,0,0.2v0.8l-0.4,0.2v-0.8
					c0-0.1,0-0.2-0.1-0.2c0,0-0.1,0-0.2,0s-0.1,0.1-0.2,0.2c0,0.1-0.1,0.2-0.1,0.3v0.8l-0.4,0.2v-1.4l0.3-0.2l0.1,0.1l0.1-0.1
					l0.1-0.1C74,87,74,86.9,74.1,86.9z"/>
			</g>
			<g id="Group" transform="translate(147.5 492)">
				<g id="Rectangle_Copy_3">
					<polygon class="st5" points="-90,-398.7 -83.1,-402.5 -83.1,-394.6 -90,-390.7 					"/>
					<polygon class="st12" points="-89.9,-398.6 -83.2,-402.3 -83.2,-394.7 -89.9,-390.9 					"/>
				</g>
				<g id="Group_2" transform="translate(24 23)">
					<path id="Rectangle_Copy_4" class="st9" d="M-111.1-419.5l1.1-0.6c0.1-0.1,0.2,0,0.2,0.1l0,0c0,0.1-0.1,0.2-0.2,0.3l-1.1,0.6
						c-0.1,0.1-0.2,0-0.2-0.1l0,0C-111.3-419.3-111.2-419.5-111.1-419.5z"/>
					<path id="Rectangle_Copy_5" class="st9" d="M-110.4-420.4v1.3c0,0.1-0.1,0.2-0.2,0.3l0,0c-0.1,0.1-0.2,0-0.2-0.1v-1.3
						c0-0.1,0.1-0.2,0.2-0.3l0,0C-110.5-420.6-110.4-420.5-110.4-420.4z"/>
				</g>
			</g>
			<g id="Group-2" transform="translate(29.5 492)">
				<g id="Rectangle_Copy_3-2">
					<polygon class="st5" points="14.8,-391.1 21.6,-395 21.6,-387.1 14.8,-383.2 					"/>
					<polygon class="st12" points="14.9,-391.1 21.5,-394.8 21.5,-387.2 14.9,-383.4 					"/>
				</g>
				<g id="Group_2-2" transform="translate(24 23)">
					<path id="Rectangle_Copy_4-2" class="st9" d="M-6.4-412l1.1-0.6c0.1-0.1,0.2,0,0.2,0.1l0,0c0,0.1-0.1,0.2-0.2,0.3l-1.1,0.6
						c-0.1,0.1-0.2,0-0.2-0.1l0,0C-6.5-411.8-6.5-411.9-6.4-412z"/>
				</g>
			</g>
			<path id="Fill_1-2" class="st5" d="M43.6,41.5l0.2-0.4l-0.6-0.4l0.6-1.1l-0.2-0.1L42.8,41L43.6,41.5z"/>
			<g class="st8">
				<path class="st10" d="M59.2,70.5L59.2,70.5L59,70.3l-0.6,0.3L58.2,71l-0.1,0.1l0.5-1.8h0.1L59.2,70.5z M58.6,69.5l-0.3,0.9
					l0.5-0.3L58.6,69.5z"/>
				<path class="st10" d="M59.7,70.2c-0.1,0-0.1,0.1-0.2,0.1h-0.1c0,0-0.1,0-0.1-0.1v-0.1c0-0.1,0-0.1,0-0.2s0.1-0.1,0.1-0.2
					s0.1-0.1,0.1-0.1h-0.1c0,0,0,0-0.1-0.1v-0.1c0-0.1,0-0.1,0-0.2s0-0.1,0.1-0.2c0-0.1,0.1-0.1,0.1-0.1l0.1-0.1c0.1,0,0.1,0,0.1,0
					h0.1c0,0,0.1,0,0.1,0.1V69c0,0.1,0,0.1,0,0.2s0,0.1-0.1,0.1l-0.1,0.1h0.1c0,0,0.1,0,0.1,0.1c0,0,0,0.1,0,0.2s0,0.1,0,0.2
					S59.9,70,59.7,70.2C59.8,70.2,59.7,70.2,59.7,70.2C59.8,70.2,59.7,70.2,59.7,70.2z M59.4,70L59.4,70c0,0.1,0,0.2,0.1,0.2h0.1
					h0.1l0.1-0.1l0.1-0.1c0,0,0-0.1,0.1-0.1v-0.1v-0.1c0,0,0-0.1-0.1-0.1h-0.1h-0.1l-0.1,0.1l-0.1,0.1C59.5,69.8,59.5,69.9,59.4,70
					C59.4,69.9,59.4,69.9,59.4,70z M59.4,69.3L59.4,69.3C59.4,69.4,59.4,69.4,59.4,69.3c0.1,0.1,0.1,0.1,0.2,0.1h0.1
					c0,0,0.1,0,0.1-0.1s0.1-0.1,0.1-0.1s0-0.1,0.1-0.1V69v-0.1c0,0,0,0-0.1-0.1c0,0,0,0-0.1,0h-0.1c0,0-0.1,0-0.1,0.1L59.5,69
					c0,0,0,0.1-0.1,0.1C59.4,69.2,59.4,69.2,59.4,69.3z"/>
				<path class="st10" d="M61.2,69.3L61.2,69.3L61,69.1l-0.6,0.3l-0.1,0.5L60.2,70l0.5-1.8h0.1L61.2,69.3z M60.7,68.4l-0.3,0.9
					l0.5-0.3L60.7,68.4z"/>
				<path class="st10" d="M62.3,68c0,0.1,0,0.2,0,0.3c0,0.1-0.1,0.2-0.1,0.3c-0.1,0.1-0.1,0.2-0.2,0.3c-0.1,0.1-0.2,0.1-0.2,0.2
					l-0.3,0.2v-1.5l0.3-0.2c0.1,0,0.2-0.1,0.2-0.1c0.1,0,0.1,0,0.2,0c0.1,0,0.1,0.1,0.1,0.2S62.3,67.9,62.3,68z M61.7,69
					c0.1,0,0.1-0.1,0.2-0.2c0.1-0.1,0.1-0.1,0.2-0.2c0-0.1,0.1-0.2,0.1-0.3c0-0.1,0-0.2,0-0.3c0-0.1,0-0.2,0-0.2
					c0-0.1-0.1-0.1-0.1-0.1s-0.1,0-0.2,0c-0.1,0-0.1,0-0.2,0.1l-0.2,0.1v1.3L61.7,69z"/>
				<path class="st10" d="M62.9,68.4c-0.1,0-0.1,0.1-0.2,0.1h-0.1l-0.1-0.1c0,0,0-0.1,0-0.2c0,0,0-0.1,0-0.2s0-0.1,0-0.1
					c0-0.1,0-0.1,0.1-0.1L63,67l0.1-0.1l-0.3,0.7l0,0l0,0c0,0,0,0,0.1,0s0.1-0.1,0.2-0.1c0.1,0,0.1,0,0.1,0l0.1,0.1c0,0,0,0.1,0,0.2
					s0,0.1,0,0.2s-0.1,0.1-0.1,0.2s-0.1,0.1-0.1,0.2C63,68.3,63,68.4,62.9,68.4z M62.9,68.3L62.9,68.3l0.2-0.2c0,0,0.1-0.1,0.1-0.2
					s0-0.1,0-0.2s0-0.1,0-0.1s0-0.1-0.1-0.1H63h-0.1l-0.1,0.1l-0.1,0.1c0,0.1-0.1,0.1-0.1,0.2s0,0.1,0,0.2s0,0.1,0,0.1
					s0,0.1,0.1,0.1H62.9C62.8,68.3,62.9,68.3,62.9,68.3z"/>
				<path class="st10" d="M64,67.7L64,67.7l-0.6-1.1l0.1-0.1L64,67.7l0.3-1.7l0.1-0.1L64,67.7z"/>
				<path class="st10" d="M65,67.2c-0.1,0-0.1,0.1-0.2,0.1h-0.1c0,0-0.1,0-0.1-0.1v-0.1c0-0.1,0-0.1,0-0.2s0.1-0.1,0.1-0.2
					s0.1-0.1,0.1-0.1h-0.1c0,0,0,0-0.1-0.1v-0.1c0-0.1,0-0.1,0-0.2s0-0.1,0.1-0.2c0-0.1,0.1-0.1,0.1-0.1l0.1-0.1c0.1,0,0.1,0,0.1,0
					h0.1c0,0,0.1,0,0.1,0.1V66c0,0.1,0,0.1,0,0.2s0,0.1-0.1,0.1L65,66.4h0.1c0,0,0.1,0,0.1,0.1c0,0,0,0.1,0,0.2s0,0.1,0,0.2
					S65.2,67,65,67.2C65.1,67.2,65,67.2,65,67.2C65.1,67.1,65.1,67.2,65,67.2z M64.7,66.9L64.7,66.9c0,0.1,0,0.2,0.1,0.2h0.1H65
					l0.1-0.1l0.1-0.1c0,0,0-0.1,0.1-0.1v-0.1v-0.1c0,0,0-0.1-0.1-0.1h-0.1H65l-0.1,0.1l-0.1,0.1C64.8,66.7,64.8,66.8,64.7,66.9
					C64.7,66.9,64.7,66.9,64.7,66.9z M64.8,66.2C64.8,66.2,64.8,66.3,64.8,66.2C64.8,66.3,64.8,66.3,64.8,66.2
					c0.1,0.1,0.1,0.1,0.2,0.1h0.1c0,0,0.1,0,0.1-0.1l0.1-0.1c0,0,0-0.1,0.1-0.1v-0.1v-0.1c0,0,0,0-0.1-0.1c0,0,0,0-0.1,0h-0.1
					c0,0-0.1,0-0.1,0.1l-0.1,0.1c0,0,0,0.1-0.1,0.1C64.8,66.1,64.8,66.2,64.8,66.2z"/>
			</g>
			<g>
				<g>
					<defs>
						<polygon id="SVGID_2_" points="73.8,683.8 109.2,663.7 109.2,671.5 73.8,691.6 						"/>
					</defs>
					<clipPath id="SVGID_3_">
						<use xlink:href="#SVGID_2_"  style="overflow:visible;"/>
					</clipPath>
					<g id="Group_13" transform="translate(29.5 572.5)" class="st13">
						<path id="Rectangle-4" class="st9" d="M15.3-461.5L49.7-481c0.3-0.2,0.6,0,0.6,0.3v6.5c0,0.4-0.3,0.8-0.6,1l-34.4,19.5
							c-0.3,0.2-0.6,0-0.6-0.3v-6.5C14.8-460.9,15-461.3,15.3-461.5z"/>
						<g class="st8">
							<path class="st5" d="M24.7-462.8c0.1-0.1,0.2-0.1,0.2-0.2c0.1-0.1,0.1-0.2,0.1-0.3l0.4-0.2c0,0.1,0,0.2-0.1,0.3
								c0,0.1-0.1,0.2-0.2,0.3c-0.1,0.1-0.1,0.2-0.2,0.3c-0.1,0.1-0.2,0.1-0.3,0.2c-0.1,0.1-0.2,0.1-0.3,0.1c-0.1,0-0.2,0-0.2-0.1
								c-0.1,0-0.1-0.1-0.2-0.2c0-0.1-0.1-0.2-0.1-0.3c0-0.1,0-0.3,0.1-0.4c0-0.1,0.1-0.3,0.2-0.4s0.2-0.2,0.2-0.3
								c0.1-0.1,0.2-0.2,0.3-0.2c0.1-0.1,0.2-0.1,0.3-0.1c0.1,0,0.1,0,0.2,0s0.1,0.1,0.2,0.1c0,0.1,0.1,0.1,0.1,0.2l-0.4,0.2v-0.1
								c0,0,0,0-0.1,0h-0.1h-0.1c-0.1,0-0.1,0.1-0.2,0.1c0,0.1-0.1,0.1-0.1,0.2s-0.1,0.1-0.1,0.2s0,0.1,0,0.2s0,0.1,0,0.2
								s0.1,0.1,0.1,0.1h0.1C24.5-462.7,24.6-462.7,24.7-462.8z"/>
							<path class="st5" d="M25.5-463.5c0-0.1,0-0.2,0-0.3c0-0.1,0.1-0.2,0.1-0.3c0.1-0.1,0.1-0.2,0.2-0.2c0.1-0.1,0.1-0.1,0.2-0.2
								c0.1,0,0.2-0.1,0.2-0.1c0.1,0,0.1,0,0.2,0s0.1,0.1,0.1,0.1c0,0.1,0,0.1,0,0.2s0,0.2,0,0.3c0,0.1-0.1,0.2-0.1,0.3
								c-0.1,0.1-0.1,0.2-0.2,0.2c-0.1,0.1-0.1,0.1-0.2,0.2c-0.1,0-0.2,0.1-0.2,0.1c-0.1,0-0.1,0-0.2,0s-0.1-0.1-0.1-0.1
								S25.5-463.4,25.5-463.5z M26.3-464c0-0.1,0-0.2-0.1-0.2c0,0-0.1,0-0.2,0s-0.1,0.1-0.2,0.2c0,0.1-0.1,0.2-0.1,0.3
								c0,0.1,0,0.2,0.1,0.2c0,0,0.1,0,0.2,0s0.1-0.1,0.2-0.2C26.3-463.8,26.3-463.9,26.3-464z"/>
							<path class="st5" d="M27.4-465.3c0.1,0,0.1-0.1,0.1-0.1h0.1h0.1l0.1-0.1l0.1-0.1l0.1-0.1c0.1-0.1,0.2-0.1,0.3,0
								c0.1,0.1,0.1,0.2,0.1,0.3v0.8l-0.3,0.2v-0.7c0-0.1,0-0.1,0-0.1H28l-0.1,0.1c0,0.1,0,0.1,0,0.2v0.7l-0.3,0.2v-0.7
								c0-0.1,0-0.1,0-0.1h-0.1l-0.1,0.1c0,0.1,0,0.1,0,0.2v0.7l-0.3,0.2v-1.3l0.2-0.1l0.1,0.1c0,0,0-0.1,0.1-0.1l0.1-0.1
								C27.3-465.2,27.4-465.2,27.4-465.3z"/>
							<path class="st5" d="M29.3-466.3c0.1,0,0.1-0.1,0.2-0.1s0.1,0,0.2,0l0.1,0.1c0,0.1,0,0.1,0,0.2s0,0.2,0,0.3
								c0,0.1-0.1,0.2-0.1,0.3c0,0.1-0.1,0.2-0.2,0.2c-0.1,0.1-0.1,0.1-0.2,0.2c0,0-0.1,0-0.1,0.1h-0.1H29v0.6l-0.3,0.2v-1.8
								l0.2-0.1L29-466l0.1-0.1L29.3-466.3C29.2-466.3,29.3-466.3,29.3-466.3z M29.5-465.8c0-0.1,0-0.2-0.1-0.2c0,0-0.1,0-0.2,0
								s-0.1,0.1-0.2,0.2c0,0.1-0.1,0.2-0.1,0.3c0,0.1,0,0.2,0.1,0.2c0,0,0.1,0,0.2,0s0.1-0.1,0.2-0.2S29.5-465.7,29.5-465.8z"/>
							<path class="st5" d="M30.6-467.1L30.6-467.1C30.7-467.1,30.7-467.1,30.6-467.1C30.7-467.1,30.7-467.1,30.6-467.1l0.1,0.4l0,0
								l0,0l0,0c-0.1,0-0.1,0.1-0.2,0.2c0,0.1-0.1,0.1-0.1,0.2v0.7l-0.3,0.2v-1.3l0.2-0.1l0.1,0.1c0,0,0-0.1,0.1-0.1l0.1-0.1
								C30.5-467,30.6-467.1,30.6-467.1z"/>
							<path class="st5" d="M31.4-467.5c0.1,0,0.1-0.1,0.2-0.1s0.1,0,0.1,0l0.1,0.1c0,0.1,0,0.1,0,0.2v0.8l-0.2,0.1v-0.1l-0.1,0.1
								l-0.1,0.1l-0.1,0.1c-0.1,0.1-0.2,0.1-0.3,0.1c-0.1,0-0.1-0.1-0.1-0.2s0-0.1,0-0.2s0.1-0.1,0.1-0.2c0.1-0.1,0.1-0.1,0.2-0.2
								s0.2-0.1,0.3-0.2c0-0.1,0-0.1,0-0.1h-0.1c0,0-0.1,0-0.1,0.1c0,0,0,0,0,0.1v0.1l-0.3,0.2c0-0.1,0-0.1,0.1-0.2s0.1-0.1,0.1-0.2
								s0.1-0.1,0.1-0.2C31.2-467.4,31.3-467.5,31.4-467.5z M31.3-466.4c0.1,0,0.1-0.1,0.2-0.2c0-0.1,0.1-0.1,0.1-0.2v-0.1
								c-0.1,0-0.1,0.1-0.2,0.1l-0.1,0.1c0,0,0,0.1-0.1,0.1v0.1v0.1C31.2-466.4,31.3-466.4,31.3-466.4z"/>
							<path class="st5" d="M32.6-468.2C32.7-468.2,32.7-468.2,32.6-468.2C32.7-468.3,32.7-468.3,32.6-468.2
								C32.7-468.3,32.7-468.3,32.6-468.2l0.1,0.4l0,0l0,0l0,0c-0.1,0-0.1,0.1-0.2,0.2c0,0.1-0.1,0.1-0.1,0.2v0.7l-0.3,0.2v-1.3
								l0.2-0.1v0.1c0,0,0-0.1,0.1-0.1l0.1-0.1C32.6-468.2,32.6-468.2,32.6-468.2z"/>
							<path class="st5" d="M33.9-467.6c-0.1,0.1-0.2,0-0.3,0c-0.1-0.1-0.1-0.2-0.1-0.3l0.3-0.2c0,0.2,0.1,0.2,0.2,0.1
								c0.1,0,0.1-0.1,0.2-0.1c0-0.1,0.1-0.1,0.1-0.2c0,0,0-0.1-0.1-0.1h-0.1c-0.1,0-0.1,0-0.2,0c-0.1,0-0.1,0-0.2,0
								c-0.1,0-0.1,0-0.1-0.1c0,0-0.1-0.1-0.1-0.2s0-0.1,0-0.2s0-0.1,0.1-0.2c0-0.1,0.1-0.1,0.1-0.2s0.1-0.1,0.2-0.2v-0.2l0.3-0.2
								v0.3c0.1,0,0.1,0,0.2,0c0,0,0.1,0,0.1,0.1l0.1,0.1c0,0,0,0.1,0,0.2l-0.3,0.2c0-0.1,0-0.1-0.1-0.1s-0.1,0-0.1,0
								c-0.1,0-0.1,0.1-0.1,0.1c0,0.1-0.1,0.1-0.1,0.1s0,0.1,0.1,0.1h0.1c0.1,0,0.1,0,0.2,0c0.1,0,0.1,0,0.2,0c0.1,0,0.1,0,0.1,0.1
								c0,0,0.1,0.1,0.1,0.2s0,0.1,0,0.2s0,0.1-0.1,0.2c0,0.1-0.1,0.1-0.1,0.2c-0.1,0.1-0.1,0.1-0.2,0.2v0.2l-0.3,0.2v-0.3H33.9z"/>
							<path class="st5" d="M35.8-469.1v0.4l-1.1,0.6v-0.3l0.6-1c0,0,0-0.1,0.1-0.1v-0.1v-0.1c0-0.1,0-0.1,0-0.1h-0.1
								c-0.1,0-0.1,0.1-0.1,0.1c0,0.1-0.1,0.1-0.1,0.2l-0.3,0.2c0-0.1,0-0.2,0-0.2c0-0.1,0.1-0.2,0.1-0.2c0-0.1,0.1-0.1,0.2-0.2
								c0.1-0.1,0.1-0.1,0.2-0.2c0.1,0,0.2-0.1,0.2-0.1c0.1,0,0.1,0,0.2,0l0.1,0.1c0,0.1,0,0.1,0,0.2s0,0.1,0,0.2s-0.1,0.1-0.1,0.2
								s-0.1,0.1-0.1,0.2l-0.3,0.5L35.8-469.1z"/>
							<path class="st5" d="M37.1-469.8v0.4l-1.1,0.6v-0.3l0.6-1c0,0,0-0.1,0.1-0.1v-0.1v-0.1c0-0.1,0-0.1,0-0.1h-0.1
								c-0.1,0-0.1,0.1-0.1,0.1c0,0.1-0.1,0.1-0.1,0.2L36-470c0-0.1,0-0.2,0-0.2c0-0.1,0.1-0.2,0.1-0.2c0-0.1,0.1-0.2,0.2-0.2
								c0.1-0.1,0.1-0.1,0.2-0.2c0.1,0,0.2-0.1,0.2-0.1c0.1,0,0.1,0,0.2,0l0.1,0.1c0,0.1,0,0.1,0,0.2s0,0.1,0,0.2s-0.1,0.1-0.1,0.2
								s-0.1,0.1-0.1,0.2l-0.3,0.5L37.1-469.8z"/>
							<path class="st5" d="M37.9-471.2c0.1,0,0.1-0.1,0.1-0.1h0.1h0.1l0.1-0.1l0.1-0.1l0.1-0.1c0.1-0.1,0.2-0.1,0.3,0
								s0.1,0.2,0.1,0.3v0.8l-0.3,0.2v-0.7c0-0.1,0-0.1,0-0.1h-0.1l-0.1,0.1c0,0.1,0,0.1,0,0.2v0.7l-0.3,0.2v-0.7c0-0.1,0-0.1,0-0.1
								H38l-0.1,0.1c0,0.1,0,0.1,0,0.2v0.7l-0.3,0.2v-1.3l0.2-0.1v0.1c0,0,0-0.1,0.1-0.1L38-471C37.8-471.1,37.8-471.2,37.9-471.2z"
								/>
							<path class="st5" d="M40.2-472.5l-0.3,0.8l0.4,0.5l-0.4,0.2l-0.2-0.3l-0.2,0.5l-0.4,0.2l0.4-0.9l-0.3-0.4l0.4-0.2l0.2,0.3
								l0.2-0.5L40.2-472.5z"/>
							<path class="st5" d="M40.9-472.9c0.1,0,0.1-0.1,0.2-0.1c0.1,0,0.1,0,0.1,0l0.1,0.1c0,0,0,0.1,0,0.2v0.8l-0.3,0.2v-0.7
								c0-0.1,0-0.1-0.1-0.2c0,0-0.1,0-0.2,0c-0.1,0-0.1,0.1-0.2,0.2c0,0.1-0.1,0.1-0.1,0.2v0.7l-0.3,0.2v-1.3l0.2-0.1l0.1,0.1
								l0.1-0.1l0.1-0.1C40.8-472.9,40.9-472.9,40.9-472.9z"/>
						</g>
					</g>
				</g>
			</g>
		</g>
	</g>
</g>
<g>
	<path class="st1" d="M51.4,26.6l20.3-11.8c0.7-0.4,1.5,0.1,1.5,0.9l0,5.2c0,0.4-0.2,0.7-0.5,0.9L52.3,33.5
		c-0.7,0.4-1.5-0.1-1.5-0.9v-5.2C50.9,27.1,51,26.7,51.4,26.6z"/>
</g>
</svg>
