<?xml version="1.0" encoding="utf-8"?>
<!-- Generator: Adobe Illustrator 23.0.3, SVG Export Plug-In . SVG Version: 6.00 Build 0)  -->
<svg version="1.1" id="Layer_1" xmlns="http://www.w3.org/2000/svg" xmlns:xlink="http://www.w3.org/1999/xlink" x="0px" y="0px"
	 width="140px" height="140px" viewBox="0 0 140 140" style="enable-background:new 0 0 140 140;" xml:space="preserve">
<style type="text/css">
	.st0{fill:#F1F1F2;}
	.st1{fill:#4B6ABB;}
	.st2{fill:#E8E8E8;}
	.st3{fill:#BBBDBF;}
	.st4{fill:#93A6D6;}
	.st5{fill:#6F88C8;}
</style>
<g>
	<g>
		<polygon class="st0" points="60.8,27 44.7,17.8 84.2,9.9 100.2,19.1 		"/>
	</g>
	<g>
		<path class="st1" d="M100.2,19.1c0.3,3.4,4.8,67.5-39.1,109.9l0,0c-44,8.4-39.9-60.7-39.7-64.4L60.8,27L100.2,19.1z"/>
	</g>
	<g>
		<polygon class="st2" points="21.5,64.6 5.3,55.3 44.7,17.8 60.8,27 		"/>
	</g>
	<g>
		<path class="st3" d="M40.7,126.3l-16-9.3C2.4,104,5.1,58.3,5.3,55.3l16,9.3C21.3,67.6,18.6,113.3,40.7,126.3"/>
	</g>
	<g>
		<path class="st4" d="M60.9,50.7L82,46.5c0.1,1.8,2.5,36.1-21,58.8c-23.5,4.5-21.2-32.5-21.2-34.5L60.9,50.7z"/>
	</g>
	<g>
		<path class="st5" d="M90.6,33.6c0.2,2.5,3.5,51-29.5,82.9C27.9,122.8,31,70.7,31.2,67.9l29.7-28.4L90.6,33.6z M61,105.3
			c23.5-22.6,21.1-56.9,21-58.8l-21.1,4.2L39.8,70.8C39.7,72.8,37.5,109.8,61,105.3"/>
	</g>
</g>
</svg>
