<?xml version="1.0" encoding="utf-8"?>
<!-- Generator: Adobe Illustrator 23.0.3, SVG Export Plug-In . SVG Version: 6.00 Build 0)  -->
<svg version="1.1" id="Layer_1" xmlns="http://www.w3.org/2000/svg" xmlns:xlink="http://www.w3.org/1999/xlink" x="0px" y="0px"
	 width="140px" height="140px" viewBox="0 0 140 140" style="enable-background:new 0 0 140 140;" xml:space="preserve">
<style type="text/css">
	.st0{fill:#F9C992;}
	.st1{fill:#F1F1F2;}
	.st2{opacity:0.4;fill:#4D4D4F;enable-background:new    ;}
	.st3{fill:#505050;}
	.st4{fill:#141414;}
	.st5{fill:#646464;}
	.st6{fill:#E1AA73;}
	.st7{fill:#FAC882;}
	.st8{fill:#23323C;}
	.st9{fill:#FFFFFF;}
	.st10{fill:#4ABFA8;}
	.st11{fill:#603813;}
	.st12{fill:#0F2A4B;}
	.st13{fill:#C3996B;}
</style>
<g>
	<path class="st0" d="M104.9,71c0,0,0.8,3.5,1,4.4c0.3,1,2,1.6,2.7,1.4c0.7-0.1,2-0.5,1.9-2.4c0-1.9-0.9-5.2-0.9-5.2
		S106.8,68.6,104.9,71z"/>
	<path class="st1" d="M105.8,33.4c-0.1-1.4-0.6-3.8-1.4-4.9c-1.6-2-4.1-3.6-5.2-2.4c-1.7,1.8-1.9,3.6-1.9,3.6
		c0.2,1.8,2.4,20.1,2.4,21.8c-0.1,1.7,0.1,2.1,0.5,3.4c0.4,1.4,3.2,12.8,4.1,16.8c1.9-2,5.4-2.4,5.4-2.4l-0.1-1.2L106.9,57
		c-0.6-2.3-1.1-5.4-1.1-6.7S105.8,33.4,105.8,33.4z"/>
	<ellipse class="st2" cx="95.3" cy="126.1" rx="17.6" ry="7"/>
	<g>
		<g>
			<path class="st3" d="M95,119.6c0,0-0.7,1,0,1.6s11.3,4.6,12.8,3.2c1.6-1.5-7.3-7.2-8.8-7C97.6,117.6,95,119.6,95,119.6z"/>
			<path class="st3" d="M83.3,121.4c0,0-1.3,3.8-1.1,6.4c0.1,2.7,0.9,3.8,2.6,3.9c1.7,0.2,3.4-1.7,3.4-4.2c0-2.7-0.5-7.3-0.5-7.3
				L83.3,121.4z"/>
			<path class="st4" d="M100.5,65.8c0,0-9.6,2.4-22.1,1.3l3.8,54.4c0,0,5.6,2.3,6.5-0.4c0.4-3.3,2.3-37.2,2.1-39
				c2.2,2.9,3.7,32.9,3.8,38.2c0,0,5,0.9,5.9-2.5C101.3,114.3,102,78.6,100.5,65.8z"/>
			<path class="st3" d="M100.5,65.8l0.2,2.7c0,0-7.7,1.4-20.4,1.1c-0.8-2-0.8-2.6-0.8-2.6L100.5,65.8z"/>
			<rect x="97.6" y="66.1" class="st4" width="1.1" height="3.3"/>
			<rect x="82.7" y="66.9" class="st4" width="1.1" height="3.3"/>
			<rect x="89.4" y="66.6" class="st5" width="3.1" height="3.3"/>
			<path class="st0" d="M73.6,74.9c0,0,0.3,3.5,0.4,4.5c0.1,1,1.8,1.8,2.5,1.9c0.7,0,2-0.3,2.4-2.1c0.2-1.9,0-5.2,0-5.2
				S75.6,72.8,73.6,74.9z"/>
			<g>
				<path class="st1" d="M86.4,25.3c0,0-9.3,1.6-11.2,4.9s-2.5,18.3-2.5,18.3l6.6,1.5l-1,17.1c0,0,4.3,0.4,11.6,0.1
					c7.8-0.3,10.5-1.4,10.5-1.4s1.2-16.4,0.1-22.3c2.8-1.1,4.6-2.5,4.6-2.5s-2-13.5-3-14.6C101.2,25.4,94.2,22.9,86.4,25.3z"/>
				<path class="st0" d="M86.6,22.4c0,0-0.3,3-0.2,3.9c0.1,1,1.7,3.4,4.9,2.8s2.5-0.8,2.4-2.2c-0.1-1.3-0.4-3.9-0.4-3.9L86.6,22.4z"
					/>
				<path class="st6" d="M93.1,23.8c0,0-6,0.1-6.5-0.7c-0.2,1.8-0.2,1.8-0.2,1.8S90.9,26,93.1,23.8z"/>
				<path class="st1" d="M81.1,35.9c0,0-3.6-7.8-5.5-6.3c-2,1.5-2.4,3.2-2.4,3.2c-0.1,1.9-0.6,18-1,19.6c-0.4,1.7-0.5,2.3-0.3,3.8
					c0.2,1.4,1.2,15.2,1.5,19.3c2.1-1.8,5.7-1.6,5.7-1.6l0.1-1.2l-0.9-11.3c-0.3-2.3-0.1-7.4,0.1-8.6c0.3-1.3,0.4-3.3,1.3-3
					L81.1,35.9z"/>
			</g>
			<g>
				<g>
					<path class="st0" d="M90.2,24.4L90.2,24.4c-3.8,0-7-3.1-7.1-6.9L82.9,9h14.5v8.3C97.4,21.3,94.2,24.4,90.2,24.4z"/>
					<path class="st7" d="M84.8,18.1L84.8,18.1c-1.2,0-2.1-0.9-2.1-2.1l-0.1-2.6h4.3v2.5C86.9,17.1,86,18.1,84.8,18.1z"/>
				</g>
				<path class="st4" d="M81.5,7c1-1.4,4.6-4.3,7.1-4.2c2.5,0.1,5.5,0.7,6.7,2.3c0.3,0.4,0.9,0.8,1.6,1.1c1.8,0.8,2.3,3.1,1.1,4.5
					c-1.1,1.4-4.7-0.5-6.7-0.5c-4.1-0.1-4.5,1-4.5,1s-0.9,0.6-0.7,1.3c0.2,0.7-0.2,2.6-0.2,3.1c0,0.5-0.8,0-0.8,0s-1.2-1.9-2.3-0.7
					C81.2,14.4,79.8,9.4,81.5,7z"/>
			</g>
		</g>
	</g>
	<path class="st8" d="M84.8,25.6c-2.8,0.6-8.2,2.1-9.6,4.6c5,3.8,4.3,14.1,4.3,14.1l-0.8,16.8c0,0-0.1,1.1-0.2,2.3
		c0.1,0.8,0.3,2.6,0.3,3.7c2.1,0.1,6.6,0.3,11.4,0.1c7.8-0.3,10.4-1.6,10.4-1.6s1.2-16.4,0.1-22.3c2.3-9.8,2.8-16,1.7-17.1
		c-0.7-0.7-3.7-1.9-7.7-2.1c0,0-0.8,8.5-2.7,11.1C88.2,32.7,84.8,25.6,84.8,25.6z"/>
	<g>
		<polygon class="st9" points="91.3,29.3 88.2,32.7 84.8,25.6 86.1,23.7 		"/>
		<polygon class="st9" points="91.3,29.3 94,31.8 94.5,24.4 93.6,23.6 92.9,23.9 		"/>
	</g>
	<g>
		<g>
			<path class="st10" d="M97.5,33.4L97.5,33.4l0.6-0.3l0,0l0.2-0.8l0,0L97.5,33.4z"/>
		</g>
		<g>
			<path class="st10" d="M99,33.1L99,33.1L98.4,33l0,0l-0.2-0.7l0,0L99,33.1z"/>
		</g>
		<g>
			<path class="st10" d="M94.7,35.2l0.2-0.2c0.1,0.1,0.2,0.1,0.2,0.1c0.1,0,0.2-0.1,0.2-0.2V34h0.3v0.8c0,0.2,0,0.3-0.1,0.4
				c-0.1,0.1-0.2,0.2-0.4,0.2C94.9,35.4,94.8,35.3,94.7,35.2z"/>
		</g>
		<g>
			<path class="st10" d="M96.1,33.9l1-0.1v0.3l-0.7,0.1v0.3l0.6-0.1v0.3l-0.6,0.1v0.3l0.7-0.1v0.3l-1,0.1V33.9z"/>
		</g>
		<g>
			<path class="st10" d="M99.8,34.1l-0.5-0.7l0.3-0.1l0.3,0.5l0.3-0.6h0.3l-0.5,0.9v0.5h-0.3L99.8,34.1L99.8,34.1z"/>
		</g>
		<g>
			<polygon class="st10" points="98.1,34.9 98.1,33.6 97.5,33.6 97.5,33.9 97.9,33.9 97.9,34.9 			"/>
		</g>
		<g>
			<polygon class="st10" points="98.3,34.9 98.3,33.5 99,33.4 99,33.7 98.6,33.8 98.6,34.8 			"/>
		</g>
	</g>
</g>
<g>
	<path class="st0" d="M65.7,72.5c0,0,1.1,3.4,1.4,4.4c0.4,1,2.1,1.4,2.8,1.2c0.7-0.2,1.9-0.7,1.7-2.6c-0.2-1.9-1.3-5.2-1.3-5.2
		S67.3,70,65.7,72.5z"/>
	<path class="st9" d="M65.1,34.6c-0.1-1.4-0.6-3.9-1.4-5c-1.6-2-4.2-3.6-5.3-2.4c-1.7,1.8-1.9,3.6-1.9,3.6
		c0.2,1.8,2.4,20.4,2.4,22.1c-0.1,1.7,0.1,2.4,0.6,3.7c0.5,1.4,4.4,12.7,5.6,16.6c1.7-2.2,5.3-2.9,5.3-2.9l-0.2-1.2l-3.6-10.9
		c-0.8-2.2-1.4-5.2-1.4-6.5C65.2,50.4,65.1,34.6,65.1,34.6z"/>
	<ellipse class="st2" cx="54.5" cy="128.5" rx="17.8" ry="7.1"/>
	<g>
		<g>
			<path class="st11" d="M54.2,121.9c0,0-0.7,1,0,1.6s11.4,4.7,13,3.2s-7.4-7.3-8.9-7.1C56.8,119.9,54.2,121.9,54.2,121.9z"/>
			<path class="st11" d="M42.3,123.8c0,0-1.3,3.9-1.1,6.5c0.1,2.7,0.9,3.8,2.6,4c1.7,0.2,3.4-1.7,3.4-4.3c0-2.7-0.5-7.4-0.5-7.4
				L42.3,123.8z"/>
			<path class="st12" d="M59.7,67.4c0,0-9.7,2.4-22.4,1.3l3.9,55.1c0,0,5.7,2.3,6.6-0.4c0.4-3.3,2.3-37.7,2.1-39.5
				c2.2,2.9,3.7,33.3,3.9,38.7c0,0,5.1,0.9,6-2.5C60.5,116.6,61.2,80.4,59.7,67.4z"/>
			<path class="st11" d="M59.7,67.4l0.2,2.7c0,0-7.8,1.4-20.7,1.1c-0.8-2-0.8-2.6-0.8-2.6L59.7,67.4z"/>
			<rect x="56.8" y="67.7" class="st12" width="1.1" height="3.3"/>
			<rect x="41.7" y="68.5" class="st12" width="1.1" height="3.3"/>
			<rect x="48.5" y="68.2" class="st13" width="3.1" height="3.3"/>
			<path class="st0" d="M34.4,76.6c0,0,0.5,3.5,0.7,4.6c0.2,1,1.9,1.7,2.6,1.7c0.7,0,2-0.4,2.2-2.3c0.1-1.9-0.4-5.3-0.4-5.3
				S36.3,74.4,34.4,76.6z"/>
			<g>
				<path class="st9" d="M45.4,26.4c0,0-9.4,1.6-11.3,5s-2.5,18.5-2.5,18.5l6.7,1.5l-1,17.3c0,0,4.4,0.4,11.8,0.1
					c7.9-0.3,10.6-1.4,10.6-1.4s1.2-16.6,0.1-22.6c2.8-1.1,4.7-2.5,4.7-2.5s-2-13.7-3-14.8C60.4,26.5,53.3,24,45.4,26.4z"/>
				<path class="st0" d="M45.6,23.5c0,0-0.3,3-0.2,4s1.7,3.4,5,2.8s2.5-0.8,2.4-2.2c-0.1-1.3-0.4-4-0.4-4L45.6,23.5z"/>
				<path class="st6" d="M52.2,24.9c0,0-6.1,0.1-6.6-0.7C45.4,26,45.4,26,45.4,26S50,27.1,52.2,24.9z"/>
				<path class="st9" d="M40.1,37.1c0,0-3.6-7.9-5.6-6.4c-2,1.5-2.4,3.2-2.4,3.2c-0.1,1.9-1,20.5-1.3,22.2s-0.3,2.3,0,3.8
					c0.3,1.4,2.2,13.2,2.8,17.3c2-1.9,5.7-2,5.7-2V74l-1.7-11.3c-0.5-2.3-0.6-5.4-0.4-6.6c0.2-1.3,0.7-5.2,1.6-4.9L40.1,37.1z"/>
			</g>
			<g>
				<g>
					<path class="st0" d="M49.3,25.5L49.3,25.5c-3.9,0-7.1-3.1-7.2-7l-0.2-8.6h14.7v8.4C56.6,22.3,53.3,25.5,49.3,25.5z"/>
					<path class="st7" d="M43.8,19.1L43.8,19.1c-1.2,0-2.1-0.9-2.1-2.1l-0.1-2.6H46v2.5C46,18.1,45,19.1,43.8,19.1z"/>
				</g>
				<path class="st11" d="M40.5,7.9c1-1.4,4.7-4.4,7.2-4.3s5.6,0.7,6.8,2.3c0.3,0.4,0.9,0.8,1.6,1.1c1.8,0.8,2.3,3.1,1.1,4.6
					c-1.1,1.4-2.8,2.5-4.8,2.5c-4.2-0.1-6.6-2-6.6-2s-0.9,0.6-0.7,1.3s-0.2,2.6-0.2,3.1s-0.8,0-0.8,0s-1.2-1.9-2.3-0.7
					C40.2,15.4,38.8,10.3,40.5,7.9z"/>
			</g>
		</g>
	</g>
	<path class="st8" d="M43.8,26.7c-2.8,0.6-8.3,2.1-9.7,4.7c5.1,3.9,4.4,14.3,4.4,14.3l-0.8,17c0,0,0.7,4.1,0.8,6.1
		c1.8,0.1,5.5,0.2,10.7,0c7.9-0.3,10.6-1.4,10.6-1.4s1.2-16.6,0.1-22.6c2.3-9.9,2.8-16.2,1.7-17.3c-0.7-0.7-3.7-1.9-7.8-2.1
		c0,0-0.8,8.6-2.7,11.2C47.3,33.9,43.8,26.7,43.8,26.7z"/>
	<g>
		<polygon class="st1" points="50.4,30.4 47.3,33.9 43.8,26.7 45.1,24.8 		"/>
		<polygon class="st1" points="50.4,30.4 53.1,33 53.7,25.5 52.8,24.6 52.1,25 		"/>
	</g>
	<g>
		<g>
			<path class="st10" d="M56.7,34.6L56.7,34.6l0.6-0.3l0,0l0.2-0.8l0,0L56.7,34.6z"/>
		</g>
		<g>
			<path class="st10" d="M58.2,34.3L58.2,34.3l-0.6-0.1l0,0l-0.2-0.7l0,0L58.2,34.3z"/>
		</g>
		<g>
			<path class="st10" d="M53.9,36.4l0.2-0.2c0.1,0.1,0.2,0.1,0.2,0.1c0.1,0,0.2-0.1,0.2-0.2v-0.9h0.3V36c0,0.2,0,0.3-0.1,0.4
				c-0.1,0.1-0.2,0.2-0.4,0.2C54.1,36.6,54,36.5,53.9,36.4z"/>
		</g>
		<g>
			<path class="st10" d="M55.3,35.1l1-0.1v0.3l-0.7,0.1v0.3l0.6-0.1v0.3L55.6,36v0.3l0.7-0.1v0.3l-1,0.1V35.1z"/>
		</g>
		<g>
			<path class="st10" d="M59,35.3l-0.5-0.7l0.3-0.1l0.3,0.5l0.3-0.6h0.3l-0.5,0.9v0.5h-0.3L59,35.3L59,35.3z"/>
		</g>
		<g>
			<polygon class="st10" points="57.3,36.1 57.3,34.8 56.7,34.8 56.7,35.1 57.1,35.1 57.1,36.1 			"/>
		</g>
		<g>
			<polygon class="st10" points="57.5,36.1 57.5,34.7 58.2,34.6 58.2,34.9 57.8,35 57.8,36 			"/>
		</g>
	</g>
</g>
</svg>
