<?xml version="1.0" encoding="utf-8"?>
<!-- Generator: Adobe Illustrator 23.0.3, SVG Export Plug-In . SVG Version: 6.00 Build 0)  -->
<svg version="1.1" id="Layer_1" xmlns="http://www.w3.org/2000/svg" xmlns:xlink="http://www.w3.org/1999/xlink" x="0px" y="0px"
	 width="140px" height="140px" viewBox="0 0 140 140" style="enable-background:new 0 0 140 140;" xml:space="preserve">
<style type="text/css">
	.st0{fill:#FF8875;}
	.st1{fill:#FA9C93;}
	.st2{fill:none;stroke:#4BBEA8;stroke-width:0.1865;stroke-miterlimit:10;}
	.st3{fill:#DF643C;}
	.st4{fill:#231F20;}
	.st5{fill:#FFFFFF;}
	.st6{fill:#FEA9A7;}
	.st7{enable-background:new    ;}
	.st8{clip-path:url(#SVGID_2_);enable-background:new    ;}
	.st9{fill:#3C9886;}
	.st10{fill:#3B9483;}
	.st11{fill:#399080;}
	.st12{fill:#388D7C;}
	.st13{fill:#368979;}
	.st14{fill:#358576;}
	.st15{fill:#338172;}
	.st16{fill:#327D6F;}
	.st17{fill:#307A6C;}
	.st18{fill:#2F7668;}
	.st19{fill:#2D7265;}
	.st20{fill:#2C6E61;}
	.st21{fill:#2A6A5E;}
	.st22{fill:#29675B;}
	.st23{fill:#276357;}
	.st24{fill:#1765A1;}
	.st25{fill:#0E3F64;}
	.st26{clip-path:url(#SVGID_4_);enable-background:new    ;}
	.st27{fill:#165E96;}
	.st28{fill:#155B92;}
	.st29{fill:#15598E;}
	.st30{fill:#14578A;}
	.st31{fill:#135487;}
	.st32{fill:#135283;}
	.st33{fill:#12507F;}
	.st34{fill:#124D7B;}
	.st35{fill:#114B78;}
	.st36{fill:#114974;}
	.st37{fill:#104670;}
	.st38{fill:#10446C;}
	.st39{fill:#0F4269;}
	.st40{fill:#0F3F65;}
	.st41{fill:#0E3D61;}
	.st42{clip-path:url(#SVGID_6_);enable-background:new    ;}
	.st43{clip-path:url(#SVGID_8_);enable-background:new    ;}
	.st44{clip-path:url(#SVGID_10_);enable-background:new    ;}
	.st45{clip-path:url(#SVGID_12_);enable-background:new    ;}
	.st46{clip-path:url(#SVGID_14_);enable-background:new    ;}
	.st47{fill:#10466F;}
	.st48{clip-path:url(#SVGID_16_);enable-background:new    ;}
	.st49{clip-path:url(#SVGID_18_);enable-background:new    ;}
	.st50{clip-path:url(#SVGID_20_);enable-background:new    ;}
	.st51{clip-path:url(#SVGID_22_);enable-background:new    ;}
	.st52{clip-path:url(#SVGID_24_);enable-background:new    ;}
	.st53{fill:#F6921E;}
	.st54{fill:#FFBA00;}
	.st55{clip-path:url(#SVGID_26_);enable-background:new    ;}
	.st56{clip-path:url(#SVGID_28_);enable-background:new    ;}
	.st57{clip-path:url(#SVGID_30_);enable-background:new    ;}
</style>
<g>
	<path class="st0" d="M113,44.2c2.2,0.4,6.9,2.1,6.5,4c-0.4,1.9-3.3,1.5-3.3,1.5L113,44.2z"/>
	<path class="st0" d="M60.6,129.7c0,2.1,4.2,3.8,9.3,3.8c5.1,0,9.3-1.7,9.3-3.8L81,118l-22.2,0.3L60.6,129.7z"/>
	<path class="st0" d="M92.4,115.1c0,2.1,2.9,3.8,6.5,3.8s6.5-1.7,6.5-3.8l1.2-11.6l-15.4,0.3L92.4,115.1z"/>
	<path class="st0" d="M40.1,117.7c0,2.1,2.9,3.8,6.5,3.8c3.6,0,6.5-1.7,6.5-3.8l1.2-11.6l-15.4,0.3L40.1,117.7z"/>
	
		<ellipse transform="matrix(0.8646 -0.5025 0.5025 0.8646 -27.3514 46.3295)" class="st1" cx="72.3" cy="73.9" rx="51.2" ry="45.4"/>
	<path class="st0" d="M49.3,110.7c1.6-5.8-3.2-16-10.7-21.7c-4.4-3.3-8.7-4.7-11.8-4.1L20,88.7l21.7,26.7L49.3,110.7z"/>
	<path class="st2" d="M37.7,106.3c-1.3,0-2.6-1.8-2.8-4.1c-0.1-1.1,0-2,0.3-2.8h0c1.3,0,2.6,1.8,2.8,4.1
		C38.2,104.6,38.1,105.6,37.7,106.3z"/>
	<path class="st2" d="M28,101c-1.3,0-2.6-1.8-2.8-4.1c-0.1-1.1,0-2,0.3-2.8h0c1.3,0,2.6,1.8,2.8,4.1C28.4,99.3,28.3,100.3,28,101z"
		/>
	<path class="st3" d="M63.4,46.1c1.5-1,6.6-5.9,11.7-8.4c5-2.5,9.2-3.8,10.3-4.3s0.6-2.1-2.7-1.9c-3.3,0.3-9.3,2.7-13.4,5.1
		c-4.1,2.4-8.4,6.2-9.3,6.9c-1,0.7-1.3,2.5-0.1,2.9C61.1,46.8,62.6,46.7,63.4,46.1z"/>
	<circle class="st4" cx="50.9" cy="83.1" r="4.1"/>
	<circle class="st5" cx="49.9" cy="81.2" r="1.2"/>
	<ellipse transform="matrix(0.325 -0.9457 0.9457 0.325 -47.1155 74.4822)" class="st4" cx="28.6" cy="70.2" rx="4.2" ry="2.3"/>
	<ellipse transform="matrix(0.325 -0.9457 0.9457 0.325 -45.6606 74.3956)" class="st5" cx="29.3" cy="69.2" rx="1.2" ry="0.7"/>
	<path class="st0" d="M81.7,84.7c0,0,1.2-11.8-4.7-21.9S66.2,53.9,63,60.3C74.5,71.9,81.7,84.7,81.7,84.7z"/>
	<path class="st3" d="M65.2,62.5c5,5.1,11.2,13.8,14,18.1c0,0,0-9.2-3.7-16.6C71.8,56.7,69.3,56.6,65.2,62.5z"/>
	<path class="st6" d="M81.7,84.7c0,0,1.2-11.8-4.7-21.9c-3.9-6.6-7.3-8.4-10-7c0,0,9.5-7,16.3,3.3C90.1,69.4,87,81.3,81.7,84.7z"/>
	<path class="st0" d="M43.4,49.3c0,0-13.3-20.9-19.5-19.1c-5.1,1.5,5.5,24.5,5.5,24.5S32.2,47.3,43.4,49.3z"/>
	<path class="st3" d="M30.6,52.8c1.5-1.8,4.5-4.1,10.1-3.8c0,0-10.3-16.8-14.1-15.8S30.6,52.8,30.6,52.8z"/>
	<path class="st6" d="M43.4,49.3c0,0-13.3-20.9-19.5-19.1c0,0,4.7-8.3,22.2,7.5C47.2,42.6,47.5,44.4,43.4,49.3z"/>
	<g>
		<g class="st7">
			<g class="st7">
				<defs>
					<path id="SVGID_1_" class="st7" d="M71.9,34.6c4.1-2.4,7.5-8.2,7.4-12.9c0.7,0.4,1.3,0.8,2,1.2c0,4.7-3.3,10.5-7.4,12.9
						C73.3,35.4,72.5,34.9,71.9,34.6z"/>
				</defs>
				<clipPath id="SVGID_2_">
					<use xlink:href="#SVGID_1_"  style="overflow:visible;"/>
				</clipPath>
				<g class="st8">
					<path class="st9" d="M73.9,35.7l-2-1.2c0.9-0.5,1.7-1.2,2.5-1.9l2,1.2C75.6,34.6,74.8,35.2,73.9,35.7"/>
					<path class="st10" d="M76.4,33.8l-2-1.2c0.3-0.3,0.6-0.6,0.8-0.9l2,1.2C77,33.2,76.7,33.5,76.4,33.8"/>
					<path class="st11" d="M77.2,32.9l-2-1.2c0.2-0.2,0.4-0.5,0.6-0.7l2,1.2C77.6,32.4,77.4,32.7,77.2,32.9"/>
					<path class="st12" d="M77.8,32.2l-2-1.2c0.2-0.2,0.3-0.4,0.5-0.7l2,1.2C78.2,31.8,78,32,77.8,32.2"/>
					<path class="st13" d="M78.3,31.5l-2-1.2c0.1-0.2,0.3-0.4,0.4-0.6l2,1.2C78.6,31.1,78.5,31.3,78.3,31.5"/>
					<path class="st14" d="M78.8,30.9l-2-1.2c0.1-0.2,0.3-0.4,0.4-0.6l2,1.2C79,30.5,78.9,30.7,78.8,30.9"/>
					<path class="st15" d="M79.1,30.2l-2-1.2c0.1-0.2,0.2-0.4,0.4-0.6l2,1.2C79.4,29.8,79.3,30,79.1,30.2"/>
					<path class="st16" d="M79.5,29.6l-2-1.2c0.1-0.2,0.2-0.4,0.3-0.6l2,1.2C79.7,29.2,79.6,29.4,79.5,29.6"/>
					<path class="st17" d="M79.8,29l-2-1.2c0.1-0.2,0.2-0.4,0.3-0.6l2,1.2C80,28.5,79.9,28.8,79.8,29"/>
					<path class="st18" d="M80.1,28.3l-2-1.2c0.1-0.2,0.2-0.4,0.3-0.7l2,1.2C80.3,27.9,80.2,28.1,80.1,28.3"/>
					<path class="st19" d="M80.4,27.7l-2-1.2c0.1-0.2,0.2-0.5,0.3-0.7l2,1.2C80.6,27.2,80.5,27.4,80.4,27.7"/>
					<path class="st20" d="M80.6,27l-2-1.2c0.1-0.3,0.2-0.5,0.2-0.8l2,1.2C80.8,26.4,80.7,26.7,80.6,27"/>
					<path class="st21" d="M80.9,26.2l-2-1.2c0.1-0.3,0.1-0.6,0.2-0.9l2,1.2C81,25.6,80.9,25.9,80.9,26.2"/>
					<path class="st22" d="M81.1,25.3l-2-1.2c0.1-0.3,0.1-0.7,0.2-1l2,1.2C81.2,24.6,81.2,25,81.1,25.3"/>
					<path class="st23" d="M81.3,24.3l-2-1.2c0.1-0.5,0.1-1,0.1-1.5c0-2.4-0.8-4-2.2-4.8l2,1.2c1.3,0.8,2.2,2.4,2.2,4.8
						C81.4,23.3,81.3,23.8,81.3,24.3"/>
				</g>
			</g>
			<g>
				<polygon class="st24" points="73.2,34.7 71.1,33.6 72.6,32.7 74.6,33.9 				"/>
			</g>
			<g>
				<polygon class="st25" points="74.6,33.9 72.6,32.7 72.6,31 74.6,32.2 				"/>
			</g>
			<g>
				<polygon points="73.2,34.7 71.1,33.6 71.1,32 73.2,33.1 				"/>
			</g>
			<g class="st7">
				<defs>
					<path id="SVGID_3_" class="st7" d="M75.1,26.4c0-0.8-0.2-1.3-0.7-1.6l2,1.2c0.5,0.3,0.7,0.8,0.7,1.6c0,1.5-0.9,3.3-2.6,4.6
						l-2-1.2C74.2,29.7,75.2,27.9,75.1,26.4z"/>
				</defs>
				<clipPath id="SVGID_4_">
					<use xlink:href="#SVGID_3_"  style="overflow:visible;"/>
				</clipPath>
				<g class="st26">
					<path class="st27" d="M74.6,32.2l-2-1.2c0.2-0.2,0.5-0.4,0.7-0.6l2,1.2C75.1,31.8,74.8,32,74.6,32.2"/>
					<path class="st28" d="M75.3,31.6l-2-1.2c0.1-0.1,0.3-0.3,0.4-0.4l2,1.2C75.5,31.3,75.4,31.5,75.3,31.6"/>
					<path class="st29" d="M75.7,31.2l-2-1.2c0.1-0.1,0.2-0.2,0.3-0.3l2,1.2C75.8,31,75.7,31.1,75.7,31.2"/>
					<path class="st30" d="M75.9,30.9l-2-1.2c0.1-0.1,0.1-0.2,0.2-0.3l2,1.2C76,30.7,76,30.8,75.9,30.9"/>
					<path class="st31" d="M76.1,30.6l-2-1.2c0.1-0.1,0.1-0.2,0.2-0.2l2,1.2C76.2,30.5,76.2,30.5,76.1,30.6"/>
					<path class="st32" d="M76.3,30.4l-2-1.2c0-0.1,0.1-0.2,0.1-0.2l2,1.2C76.4,30.2,76.3,30.3,76.3,30.4"/>
					<path class="st33" d="M76.4,30.1l-2-1.2c0-0.1,0.1-0.1,0.1-0.2l2,1.2C76.5,30,76.5,30.1,76.4,30.1"/>
					<path class="st34" d="M76.5,29.9l-2-1.2c0-0.1,0.1-0.1,0.1-0.2l2,1.2C76.6,29.8,76.6,29.8,76.5,29.9"/>
					<path class="st35" d="M76.7,29.7l-2-1.2c0-0.1,0.1-0.1,0.1-0.2l2,1.2C76.7,29.6,76.7,29.6,76.7,29.7"/>
					<path class="st36" d="M76.7,29.5l-2-1.2c0-0.1,0.1-0.1,0.1-0.2l2,1.2C76.8,29.3,76.8,29.4,76.7,29.5"/>
					<path class="st37" d="M76.8,29.3l-2-1.2c0-0.1,0.1-0.2,0.1-0.2l2,1.2C76.9,29.1,76.9,29.2,76.8,29.3"/>
					<path class="st38" d="M76.9,29l-2-1.2c0-0.1,0.1-0.2,0.1-0.3l2,1.2C77,28.9,77,28.9,76.9,29"/>
					<path class="st39" d="M77,28.8l-2-1.2c0-0.1,0.1-0.2,0.1-0.3l2,1.2C77.1,28.6,77,28.7,77,28.8"/>
					<path class="st40" d="M77.1,28.5l-2-1.2c0-0.1,0-0.2,0.1-0.4l2,1.2C77.1,28.3,77.1,28.4,77.1,28.5"/>
					<path class="st41" d="M77.1,28.1l-2-1.2c0-0.2,0-0.3,0-0.5c0-0.8-0.2-1.3-0.7-1.6l2,1.2c0.5,0.3,0.7,0.8,0.7,1.6
						C77.2,27.8,77.2,28,77.1,28.1"/>
				</g>
			</g>
			<g class="st7">
				<defs>
					<path id="SVGID_5_" class="st7" d="M70.7,33.9l-2-1.2c0.6,0,1.5-0.2,2.5-0.7l2,1.2C72.2,33.7,71.2,33.9,70.7,33.9z"/>
				</defs>
				<clipPath id="SVGID_6_">
					<use xlink:href="#SVGID_5_"  style="overflow:visible;"/>
				</clipPath>
				<g class="st42">
					<path class="st32" d="M70.7,33.9l-2-1.2c0,0,0,0,0,0L70.7,33.9C70.7,33.9,70.7,33.9,70.7,33.9"/>
					<path class="st31" d="M70.7,33.9l-2-1.2c0.1,0,0.1,0,0.2,0l2,1.2C70.9,33.9,70.8,33.9,70.7,33.9"/>
					<path class="st30" d="M70.9,33.9l-2-1.2c0.1,0,0.2,0,0.3,0l2,1.2C71.1,33.8,71,33.9,70.9,33.9"/>
					<path class="st29" d="M71.2,33.8l-2-1.2c0.2,0,0.3-0.1,0.5-0.1l2,1.2C71.5,33.8,71.4,33.8,71.2,33.8"/>
					<path class="st28" d="M71.7,33.7l-2-1.2c0.2-0.1,0.5-0.2,0.8-0.3l2,1.2C72.2,33.6,72,33.7,71.7,33.7"/>
					<path class="st27" d="M72.5,33.5l-2-1.2c0.2-0.1,0.4-0.2,0.7-0.3l2,1.2C72.9,33.3,72.7,33.4,72.5,33.5"/>
				</g>
			</g>
			<g class="st7">
				<defs>
					<path id="SVGID_7_" class="st7" d="M72.6,27.4l2,1.2c0.2,0.1,0.3,0.3,0.3,0.5c0,0.7-0.6,1.4-1.4,1.8c-0.9,0.5-1.8,0.7-2.4,0.7
						l-2-1.2c0.6,0,1.5-0.1,2.4-0.7c0.8-0.5,1.4-1.2,1.4-1.8C72.9,27.7,72.8,27.5,72.6,27.4z"/>
				</defs>
				<clipPath id="SVGID_8_">
					<use xlink:href="#SVGID_7_"  style="overflow:visible;"/>
				</clipPath>
				<g class="st43">
					<path d="M71.1,31.7l-2-1.2c0.1,0,0.2,0,0.3,0l2,1.2C71.3,31.7,71.2,31.7,71.1,31.7"/>
					<path d="M71.4,31.7l-2-1.2c0.1,0,0.3,0,0.4,0l2,1.2C71.7,31.6,71.6,31.6,71.4,31.7"/>
					<path d="M71.8,31.6l-2-1.2c0.2,0,0.3-0.1,0.5-0.1l2,1.2C72.1,31.6,72,31.6,71.8,31.6"/>
					<path d="M72.3,31.5l-2-1.2c0.2-0.1,0.4-0.1,0.6-0.2l2,1.2C72.7,31.4,72.5,31.5,72.3,31.5"/>
					<path d="M72.9,31.3l-2-1.2c0.2-0.1,0.4-0.2,0.6-0.3c0.3-0.2,0.5-0.4,0.8-0.6l2,1.2c-0.2,0.2-0.5,0.4-0.8,0.6
						C73.3,31.1,73.1,31.2,72.9,31.3"/>
					<path d="M74.3,30.4l-2-1.2c0.1-0.1,0.1-0.1,0.1-0.2l2,1.2C74.4,30.3,74.3,30.4,74.3,30.4"/>
					<path d="M74.4,30.3l-2-1.2c0,0,0.1-0.1,0.1-0.1l2,1.2C74.5,30.2,74.5,30.2,74.4,30.3"/>
					<path d="M74.5,30.1l-2-1.2c0,0,0-0.1,0.1-0.1L74.5,30.1C74.6,30.1,74.6,30.1,74.5,30.1"/>
					<path d="M74.6,30.1l-2-1.2c0,0,0-0.1,0.1-0.1L74.6,30.1C74.6,30,74.6,30,74.6,30.1"/>
					<path d="M74.7,30l-2-1.2c0,0,0,0,0-0.1L74.7,30C74.7,29.9,74.7,30,74.7,30"/>
					<path d="M74.7,29.9l-2-1.2c0,0,0,0,0-0.1L74.7,29.9C74.7,29.9,74.7,29.9,74.7,29.9"/>
					<path d="M74.7,29.8l-2-1.2c0,0,0,0,0-0.1L74.7,29.8C74.8,29.8,74.8,29.8,74.7,29.8"/>
					<path d="M74.8,29.8l-2-1.2c0,0,0,0,0-0.1L74.8,29.8C74.8,29.7,74.8,29.7,74.8,29.8"/>
					<path d="M74.8,29.7l-2-1.2c0,0,0,0,0-0.1L74.8,29.7C74.8,29.7,74.8,29.7,74.8,29.7"/>
					<path d="M74.8,29.6l-2-1.2c0,0,0,0,0-0.1L74.8,29.6C74.9,29.6,74.8,29.6,74.8,29.6"/>
					<path d="M74.9,29.6l-2-1.2c0,0,0,0,0-0.1L74.9,29.6C74.9,29.5,74.9,29.5,74.9,29.6"/>
					<path d="M74.9,29.5l-2-1.2c0,0,0-0.1,0-0.1L74.9,29.5C74.9,29.4,74.9,29.5,74.9,29.5"/>
					<path d="M74.9,29.4l-2-1.2c0,0,0-0.1,0-0.1l2,1.2C74.9,29.3,74.9,29.4,74.9,29.4"/>
					<path d="M74.9,29.3l-2-1.2c0-0.1,0-0.1,0-0.2c0-0.3-0.1-0.4-0.3-0.5l2,1.2c0.2,0.1,0.3,0.3,0.3,0.5
						C74.9,29.2,74.9,29.3,74.9,29.3"/>
				</g>
			</g>
			<g class="st7">
				<defs>
					<path id="SVGID_9_" class="st7" d="M71.4,27.4c0.6-0.1,1-0.1,1.3,0l2,1.2c-0.2-0.1-0.7-0.1-1.3,0C72.7,28.2,72,27.8,71.4,27.4z
						"/>
				</defs>
				<clipPath id="SVGID_10_">
					<use xlink:href="#SVGID_9_"  style="overflow:visible;"/>
				</clipPath>
				<g class="st44">
					<path class="st29" d="M73.1,28.6l-2-1.2c0.1,0,0.2,0,0.3,0c0.1,0,0.2,0,0.3,0l2,1.2c-0.1,0-0.2,0-0.3,0
						C73.3,28.6,73.2,28.6,73.1,28.6"/>
					<path class="st30" d="M73.6,28.5l-2-1.2c0.2,0,0.3,0,0.4,0l2,1.2C73.9,28.5,73.8,28.5,73.6,28.5"/>
					<path class="st31" d="M74.1,28.5l-2-1.2c0.1,0,0.2,0,0.2,0l2,1.2C74.2,28.5,74.1,28.5,74.1,28.5"/>
					<path class="st32" d="M74.3,28.5l-2-1.2c0.1,0,0.1,0,0.1,0l2,1.2C74.4,28.5,74.3,28.5,74.3,28.5"/>
					<path class="st33" d="M74.4,28.5l-2-1.2c0,0,0.1,0,0.1,0l2,1.2C74.5,28.5,74.5,28.5,74.4,28.5"/>
					<path class="st34" d="M74.5,28.5l-2-1.2c0,0,0.1,0,0.1,0L74.5,28.5C74.6,28.6,74.5,28.5,74.5,28.5"/>
					<path class="st35" d="M74.6,28.6l-2-1.2c0,0,0,0,0.1,0L74.6,28.6C74.6,28.6,74.6,28.6,74.6,28.6"/>
					<polyline class="st36" points="74.7,28.6 72.6,27.4 72.6,27.4 74.7,28.6 74.7,28.6 					"/>
				</g>
			</g>
			<g class="st7">
				<defs>
					<path id="SVGID_11_" class="st7" d="M66.6,35.1c1.4,0.8,3.2,0.7,5.3-0.5l2,1.2c-2.1,1.2-4,1.3-5.3,0.5
						C68,35.9,67.2,35.4,66.6,35.1z"/>
				</defs>
				<clipPath id="SVGID_12_">
					<use xlink:href="#SVGID_11_"  style="overflow:visible;"/>
				</clipPath>
				<g class="st45">
					<path class="st18" d="M68.6,36.3l-2-1.2c0,0,0,0,0,0L68.6,36.3C68.6,36.3,68.6,36.3,68.6,36.3"/>
					<path class="st17" d="M68.6,36.3l-2-1.2c0.1,0.1,0.2,0.1,0.4,0.2l2,1.2C68.9,36.4,68.8,36.4,68.6,36.3"/>
					<path class="st16" d="M69,36.5l-2-1.2c0.1,0.1,0.3,0.1,0.4,0.1l2,1.2C69.3,36.6,69.1,36.5,69,36.5"/>
					<path class="st15" d="M69.4,36.6l-2-1.2c0.1,0,0.3,0.1,0.4,0.1l2,1.2C69.7,36.7,69.5,36.6,69.4,36.6"/>
					<path class="st14" d="M69.8,36.7l-2-1.2c0.1,0,0.3,0,0.5,0.1l2,1.2C70.1,36.7,70,36.7,69.8,36.7"/>
					<path class="st13" d="M70.3,36.8l-2-1.2c0.2,0,0.3,0,0.5,0l2,1.2C70.6,36.8,70.4,36.8,70.3,36.8"/>
					<path class="st12" d="M70.8,36.8l-2-1.2c0.2,0,0.4,0,0.6-0.1l2,1.2C71.1,36.7,70.9,36.8,70.8,36.8"/>
					<path class="st11" d="M71.3,36.7l-2-1.2c0.2,0,0.4-0.1,0.7-0.1l2,1.2C71.8,36.6,71.5,36.7,71.3,36.7"/>
					<path class="st10" d="M72,36.6l-2-1.2c0.3-0.1,0.6-0.2,0.9-0.3l2,1.2C72.6,36.4,72.3,36.5,72,36.6"/>
					<path class="st9" d="M72.9,36.3l-2-1.2c0.3-0.1,0.7-0.3,1-0.5l2,1.2C73.6,35.9,73.2,36.1,72.9,36.3"/>
				</g>
			</g>
			<g class="st7">
				<defs>
					<path id="SVGID_13_" class="st7" d="M79.3,21.7c0-2.4-0.8-4-2.2-4.8l2,1.2c1.3,0.8,2.2,2.4,2.2,4.8
						C80.7,22.4,80,22.1,79.3,21.7z"/>
				</defs>
				<clipPath id="SVGID_14_">
					<use xlink:href="#SVGID_13_"  style="overflow:visible;"/>
				</clipPath>
				<g class="st46">
					<path class="st23" d="M81.3,24.3l-2-1.2c0.1-0.5,0.1-1,0.1-1.5c0-2.4-0.8-4-2.2-4.8l2,1.2c1.3,0.8,2.2,2.4,2.2,4.8
						C81.4,23.3,81.3,23.8,81.3,24.3"/>
				</g>
			</g>
			<g>
				<polygon points="70.7,33.9 68.7,32.7 69.1,30.5 71.1,31.7 				"/>
			</g>
			<g>
				<polygon class="st47" points="76.3,23.2 74.3,22 74.7,19.9 76.7,21 				"/>
			</g>
			<g class="st7">
				<defs>
					<path id="SVGID_15_" class="st7" d="M73.2,25.9l-2-1.2c0.3,0.1,0.7,0.1,1.5,0c0.8-0.1,1.4-0.1,1.8,0.1l2,1.2
						c-0.4-0.2-1-0.3-1.8-0.1C73.9,26,73.4,26,73.2,25.9z"/>
				</defs>
				<clipPath id="SVGID_16_">
					<use xlink:href="#SVGID_15_"  style="overflow:visible;"/>
				</clipPath>
				<g class="st48">
					<polyline points="73.2,25.9 71.2,24.7 71.2,24.7 73.2,25.9 73.2,25.9 					"/>
					<path d="M73.2,25.9l-2-1.2c0,0,0,0,0.1,0L73.2,25.9C73.2,25.9,73.2,25.9,73.2,25.9"/>
					<path d="M73.3,25.9l-2-1.2c0,0,0,0,0.1,0L73.3,25.9C73.3,25.9,73.3,25.9,73.3,25.9"/>
					<path d="M73.3,25.9l-2-1.2c0,0,0.1,0,0.1,0l2,1.2C73.4,26,73.4,26,73.3,25.9"/>
					<path d="M73.4,26l-2-1.2c0.1,0,0.1,0,0.2,0l2,1.2C73.5,26,73.5,26,73.4,26"/>
					<path d="M73.6,26l-2-1.2c0.1,0,0.2,0,0.3,0l2,1.2C73.8,26,73.7,26,73.6,26"/>
					<path d="M73.9,26l-2-1.2c0.2,0,0.5,0,0.8-0.1c0.2,0,0.5-0.1,0.7-0.1l2,1.2c-0.2,0-0.4,0-0.7,0.1C74.4,25.9,74.1,26,73.9,26"/>
					<path d="M75.4,25.8l-2-1.2c0.1,0,0.2,0,0.4,0l2,1.2C75.6,25.8,75.5,25.8,75.4,25.8"/>
					<path d="M75.7,25.8l-2-1.2c0.1,0,0.2,0,0.3,0l2,1.2C75.9,25.8,75.8,25.8,75.7,25.8"/>
					<path d="M76,25.9l-2-1.2c0.1,0,0.1,0,0.2,0l2,1.2C76.1,25.9,76.1,25.9,76,25.9"/>
					<path d="M76.2,25.9l-2-1.2c0.1,0,0.1,0,0.2,0.1l2,1.2C76.3,25.9,76.3,25.9,76.2,25.9"/>
					<path d="M76.4,26l-2-1.2c0,0,0.1,0,0.1,0.1l2,1.2C76.4,26,76.4,26,76.4,26"/>
					<path d="M76.5,26l-2-1.2c0,0,0,0,0,0L76.5,26C76.5,26,76.5,26,76.5,26"/>
				</g>
			</g>
			<g class="st7">
				<defs>
					<path id="SVGID_17_" class="st7" d="M69.4,27.3c0.5,0.3,1.2,0.3,2,0.1c0.7,0.4,1.3,0.8,2,1.2c-0.8,0.2-1.5,0.2-2-0.1
						C70.8,28.1,70,27.7,69.4,27.3z"/>
				</defs>
				<clipPath id="SVGID_18_">
					<use xlink:href="#SVGID_17_"  style="overflow:visible;"/>
				</clipPath>
				<g class="st49">
					<path class="st36" d="M71.4,28.5l-2-1.2c0,0,0,0,0,0L71.4,28.5C71.4,28.5,71.4,28.5,71.4,28.5"/>
					<path class="st35" d="M71.4,28.5l-2-1.2c0,0,0.1,0,0.1,0.1l2,1.2C71.5,28.5,71.5,28.5,71.4,28.5"/>
					<path class="st34" d="M71.6,28.6l-2-1.2c0.1,0,0.1,0,0.2,0.1l2,1.2C71.7,28.6,71.6,28.6,71.6,28.6"/>
					<path class="st33" d="M71.7,28.6l-2-1.2c0.1,0,0.1,0,0.2,0l2,1.2C71.8,28.6,71.8,28.6,71.7,28.6"/>
					<path class="st32" d="M71.9,28.7l-2-1.2c0.1,0,0.2,0,0.3,0l2,1.2C72.1,28.7,72,28.7,71.9,28.7"/>
					<path class="st31" d="M72.2,28.7l-2-1.2c0.1,0,0.2,0,0.4,0l2,1.2C72.4,28.7,72.3,28.7,72.2,28.7"/>
					<path class="st30" d="M72.5,28.7l-2-1.2c0.2,0,0.4,0,0.6-0.1l2,1.2C72.9,28.7,72.7,28.7,72.5,28.7"/>
					<path class="st29" d="M73.1,28.6l-2-1.2c0.1,0,0.2,0,0.3,0c0.1,0,0.2,0,0.3,0l2,1.2c-0.1,0-0.2,0-0.3,0
						C73.3,28.6,73.2,28.6,73.1,28.6"/>
				</g>
			</g>
			<g class="st7">
				<defs>
					<path id="SVGID_19_" class="st7" d="M74.3,22c0,0,0.1,0,0.1,0.1c0.2,0.1,0.4,0.2,0.6,0.4c0.1,0,0.2,0.1,0.3,0.2
						c0.3,0.2,0.7,0.4,1,0.6c-0.4,0-1,0-2.1,0.6c-0.7-0.4-1.3-0.8-2-1.2c0.7,0.4,1.3,0.8,2,1.2C73.3,24.4,73,25,73,25.5c0,0,0,0,0,0
						c0,0,0,0,0,0c0,0,0,0,0,0l0,0c0,0,0,0,0,0c0,0-0.1-0.1-0.1-0.1c-0.2-0.1-0.3-0.2-0.5-0.3c-0.5-0.3-0.9-0.5-1.4-0.8
						c0.7,0.4,1.3,0.8,2,1.2c0,0.2,0.1,0.3,0.2,0.4l-2-1.2C71,24.6,71,24.5,71,24.3c0-0.5,0.3-1.1,1.2-1.7C73.3,22,73.9,22,74.3,22z
						"/>
				</defs>
				<clipPath id="SVGID_20_">
					<use xlink:href="#SVGID_19_"  style="overflow:visible;"/>
				</clipPath>
				<g class="st50">
					<path class="st41" d="M73.2,25.9l-2-1.2C71,24.6,71,24.5,71,24.3c0,0,0-0.1,0-0.1l2,1.2c0,0.1,0,0.1,0,0.1
						C73,25.7,73,25.8,73.2,25.9"/>
					<path class="st40" d="M73,25.3l-2-1.2c0,0,0-0.1,0-0.1L73,25.3C73,25.3,73,25.3,73,25.3"/>
					<path class="st39" d="M73,25.2L71,24c0,0,0-0.1,0-0.1L73,25.2C73,25.2,73,25.2,73,25.2"/>
					<path class="st38" d="M73,25.1L71,24c0,0,0,0,0-0.1L73,25.1C73,25.1,73,25.1,73,25.1"/>
					<path class="st37" d="M73,25.1l-2-1.2c0,0,0,0,0-0.1L73,25.1C73.1,25,73.1,25.1,73,25.1"/>
					<path class="st36" d="M73.1,25l-2-1.2c0,0,0,0,0-0.1L73.1,25C73.1,25,73.1,25,73.1,25"/>
					<path class="st35" d="M73.1,24.9l-2-1.2c0,0,0,0,0-0.1L73.1,24.9C73.1,24.9,73.1,24.9,73.1,24.9"/>
					<path class="st34" d="M73.1,24.9l-2-1.2c0,0,0,0,0-0.1L73.1,24.9C73.1,24.9,73.1,24.9,73.1,24.9"/>
					<path class="st33" d="M73.2,24.8l-2-1.2c0,0,0,0,0-0.1L73.2,24.8C73.2,24.8,73.2,24.8,73.2,24.8"/>
					<path class="st32" d="M73.2,24.8l-2-1.2c0,0,0,0,0-0.1L73.2,24.8C73.2,24.7,73.2,24.7,73.2,24.8"/>
					<path class="st31" d="M73.2,24.7l-2-1.2c0,0,0,0,0-0.1L73.2,24.7C73.3,24.7,73.2,24.7,73.2,24.7"/>
					<path class="st30" d="M73.3,24.6l-2-1.2c0,0,0-0.1,0.1-0.1L73.3,24.6C73.3,24.6,73.3,24.6,73.3,24.6"/>
					<path class="st29" d="M73.3,24.6l-2-1.2c0,0,0.1-0.1,0.1-0.1L73.3,24.6C73.4,24.5,73.4,24.5,73.3,24.6"/>
					<path class="st28" d="M73.4,24.5l-2-1.2c0,0,0.1-0.1,0.1-0.1l2,1.2C73.5,24.4,73.5,24.4,73.4,24.5"/>
					<path class="st27" d="M73.5,24.3l-2-1.2c0.2-0.2,0.4-0.3,0.7-0.5c0.2-0.1,0.5-0.2,0.7-0.3l2,1.2c-0.2,0.1-0.4,0.2-0.7,0.3
						C73.9,24,73.7,24.1,73.5,24.3"/>
					<path class="st28" d="M74.9,23.5l-2-1.2c0.2-0.1,0.4-0.1,0.5-0.2l2,1.2C75.2,23.4,75.1,23.4,74.9,23.5"/>
					<path class="st29" d="M75.4,23.3l-2-1.2c0.1,0,0.3-0.1,0.4-0.1l2,1.2C75.7,23.2,75.5,23.3,75.4,23.3"/>
					<path class="st30" d="M75.8,23.2l-2-1.2c0.2,0,0.4,0,0.5-0.1l2,1.2C76.2,23.2,76,23.2,75.8,23.2"/>
				</g>
			</g>
			<g class="st7">
				<defs>
					<path id="SVGID_21_" class="st7" d="M74.6,21.7l-2-1.2c1-0.5,1.6-0.7,2.1-0.7l2,1.2C76.3,21,75.6,21.2,74.6,21.7z"/>
				</defs>
				<clipPath id="SVGID_22_">
					<use xlink:href="#SVGID_21_"  style="overflow:visible;"/>
				</clipPath>
				<g class="st51">
					<path d="M74.6,21.7l-2-1.2c0.2-0.1,0.5-0.2,0.7-0.3l2,1.2C75.1,21.5,74.9,21.6,74.6,21.7"/>
					<path d="M75.3,21.4l-2-1.2c0.2-0.1,0.5-0.2,0.6-0.2l2,1.2C75.8,21.2,75.5,21.3,75.3,21.4"/>
					<path d="M76,21.2l-2-1.2c0.1,0,0.3-0.1,0.4-0.1l2,1.2C76.2,21.1,76.1,21.1,76,21.2"/>
					<path d="M76.4,21.1l-2-1.2c0.1,0,0.2,0,0.3,0l2,1.2C76.6,21,76.5,21.1,76.4,21.1"/>
					<path d="M76.7,21l-2-1.2c0,0,0,0,0.1,0L76.7,21C76.7,21,76.7,21,76.7,21"/>
				</g>
			</g>
			<g>
				<polygon class="st25" points="74.6,21.7 72.6,20.5 72.6,19.1 74.6,20.2 				"/>
			</g>
			<g class="st7">
				<defs>
					<path id="SVGID_23_" class="st7" d="M71.4,28.5l-2-1.2c-0.4-0.2-0.6-0.7-0.6-1.5c0-1.5,0.9-3.1,2.4-4.4l2,1.2
						c-1.6,1.2-2.5,2.9-2.4,4.4C70.8,27.8,71,28.2,71.4,28.5z"/>
				</defs>
				<clipPath id="SVGID_24_">
					<use xlink:href="#SVGID_23_"  style="overflow:visible;"/>
				</clipPath>
				<g class="st52">
					<path d="M71.4,28.5l-2-1.2c-0.4-0.2-0.6-0.7-0.6-1.5c0-0.2,0-0.3,0-0.5l2,1.2c0,0.2,0,0.3,0,0.5C70.8,27.8,71,28.2,71.4,28.5"
						/>
					<path d="M70.8,26.5l-2-1.2c0-0.1,0-0.2,0.1-0.3l2,1.2C70.8,26.3,70.8,26.4,70.8,26.5"/>
					<path d="M70.8,26.2l-2-1.2c0-0.1,0-0.2,0.1-0.3l2,1.2C70.9,26,70.9,26.1,70.8,26.2"/>
					<path d="M70.9,25.9l-2-1.2c0-0.1,0-0.2,0.1-0.2l2,1.2C71,25.8,70.9,25.8,70.9,25.9"/>
					<path d="M71,25.7l-2-1.2c0-0.1,0.1-0.1,0.1-0.2l2,1.2C71,25.5,71,25.6,71,25.7"/>
					<path d="M71.1,25.5l-2-1.2c0-0.1,0.1-0.1,0.1-0.2l2,1.2C71.1,25.3,71.1,25.4,71.1,25.5"/>
					<path d="M71.2,25.3l-2-1.2c0-0.1,0.1-0.1,0.1-0.2l2,1.2C71.2,25.1,71.2,25.2,71.2,25.3"/>
					<path d="M71.2,25l-2-1.2c0-0.1,0.1-0.1,0.1-0.2l2,1.2C71.3,24.9,71.3,25,71.2,25"/>
					<path d="M71.4,24.8l-2-1.2c0-0.1,0.1-0.1,0.1-0.2l2,1.2C71.4,24.7,71.4,24.8,71.4,24.8"/>
					<path d="M71.5,24.6l-2-1.2c0-0.1,0.1-0.1,0.1-0.2l2,1.2C71.6,24.5,71.5,24.6,71.5,24.6"/>
					<path d="M71.6,24.4l-2-1.2c0.1-0.1,0.1-0.2,0.2-0.2l2,1.2C71.7,24.3,71.7,24.3,71.6,24.4"/>
					<path d="M71.8,24.2l-2-1.2c0.1-0.1,0.1-0.2,0.2-0.3l2,1.2C71.9,24,71.8,24.1,71.8,24.2"/>
					<path d="M72,23.9l-2-1.2c0.1-0.1,0.2-0.2,0.3-0.3l2,1.2C72.1,23.7,72,23.8,72,23.9"/>
					<path d="M72.2,23.6l-2-1.2c0.1-0.1,0.3-0.3,0.4-0.4l2,1.2C72.5,23.3,72.3,23.5,72.2,23.6"/>
					<path d="M72.6,23.2l-2-1.2c0.2-0.2,0.4-0.4,0.6-0.5l2,1.2C73,22.8,72.8,23,72.6,23.2"/>
				</g>
			</g>
			<g>
				<polygon points="73.2,21.1 71.2,19.9 72.6,19.1 74.6,20.2 				"/>
			</g>
			<g>
				<polygon points="73.2,22.6 71.2,21.5 71.2,19.9 73.2,21.1 				"/>
			</g>
			<g>
				<path class="st53" d="M73.9,18.6c4.1-2.4,7.5-0.5,7.5,4.3c0,4.7-3.3,10.5-7.4,12.9s-7.5,0.5-7.5-4.3
					C66.4,26.7,69.7,20.9,73.9,18.6z M74.6,32.2c1.7-1.3,2.6-3.1,2.6-4.6c0-1.5-0.7-2-2.4-1.7C73.5,26.1,73,26,73,25.5
					c0-0.5,0.3-1.1,1.2-1.7c1.1-0.6,1.7-0.6,2.1-0.6l0.4-2.1c-0.5,0-1.1,0.2-2.1,0.7l0-1.5l-1.4,0.8l0,1.6c-1.6,1.2-2.5,2.9-2.4,4.4
					c0,1.6,1.1,1.8,2.6,1.6c1.1-0.2,1.5-0.1,1.5,0.6c0,0.7-0.6,1.4-1.4,1.8c-0.9,0.5-1.8,0.7-2.4,0.7l-0.4,2.2
					c0.6,0,1.5-0.2,2.5-0.7l0,1.6l1.4-0.8L74.6,32.2"/>
			</g>
			<g>
				<path class="st54" d="M74.6,20.2l0,1.5c1-0.5,1.6-0.7,2.1-0.7l-0.4,2.1c-0.4,0-1,0-2.1,0.6C73.3,24.4,73,25,73,25.5
					c0,0.5,0.5,0.6,1.8,0.4c1.7-0.3,2.4,0.2,2.4,1.7c0,1.5-0.9,3.3-2.6,4.6l0,1.7l-1.4,0.8l0-1.6c-1,0.5-1.9,0.8-2.5,0.7l0.4-2.2
					c0.6,0,1.5-0.1,2.4-0.7c0.8-0.5,1.4-1.2,1.4-1.8c0-0.6-0.5-0.8-1.5-0.6c-1.6,0.3-2.6,0.1-2.6-1.6c0-1.5,0.9-3.1,2.4-4.4l0-1.6
					L74.6,20.2z"/>
			</g>
			<g class="st7">
				<defs>
					<path id="SVGID_25_" class="st7" d="M77.1,16.9l2,1.2c-1.4-0.8-3.2-0.7-5.3,0.5l-2-1.2C73.9,16.2,75.8,16.1,77.1,16.9z"/>
				</defs>
				<clipPath id="SVGID_26_">
					<use xlink:href="#SVGID_25_"  style="overflow:visible;"/>
				</clipPath>
				<g class="st55">
					<path class="st27" d="M73.9,18.6l-2-1.2c0.4-0.2,0.7-0.4,1-0.5l2,1.2C74.6,18.2,74.2,18.4,73.9,18.6"/>
					<path class="st28" d="M74.9,18l-2-1.2c0.3-0.1,0.6-0.2,0.9-0.3l2,1.2C75.5,17.8,75.2,17.9,74.9,18"/>
					<path class="st29" d="M75.8,17.7l-2-1.2c0.2-0.1,0.4-0.1,0.7-0.1l2,1.2C76.2,17.6,76,17.7,75.8,17.7"/>
					<path class="st30" d="M76.4,17.6l-2-1.2c0.2,0,0.4,0,0.6-0.1l2,1.2C76.8,17.6,76.6,17.6,76.4,17.6"/>
					<path class="st31" d="M77,17.5l-2-1.2c0.2,0,0.3,0,0.5,0l2,1.2C77.3,17.5,77.2,17.5,77,17.5"/>
					<path class="st32" d="M77.5,17.5l-2-1.2c0.2,0,0.3,0,0.5,0.1l2,1.2C77.8,17.6,77.6,17.6,77.5,17.5"/>
					<path class="st33" d="M77.9,17.6l-2-1.2c0.1,0,0.3,0.1,0.4,0.1l2,1.2C78.2,17.7,78.1,17.6,77.9,17.6"/>
					<path class="st34" d="M78.4,17.7l-2-1.2c0.1,0,0.3,0.1,0.4,0.1l2,1.2C78.6,17.8,78.5,17.7,78.4,17.7"/>
					<path class="st35" d="M78.8,17.8l-2-1.2c0.1,0.1,0.3,0.1,0.4,0.2l2,1.2C79,18,78.9,17.9,78.8,17.8"/>
					<path class="st36" d="M79.1,18l-2-1.2c0,0,0,0,0,0L79.1,18C79.2,18,79.1,18,79.1,18"/>
				</g>
			</g>
			<g>
				<defs>
					<path id="SVGID_27_" d="M78.1,15.3l2,1.2c-1.6-0.9-3.8-0.8-6.3,0.6l-2-1.2C74.3,14.5,76.5,14.3,78.1,15.3z"/>
				</defs>
				<use xlink:href="#SVGID_27_"  style="overflow:visible;fill:#F6921E;"/>
				<clipPath id="SVGID_28_">
					<use xlink:href="#SVGID_27_"  style="overflow:visible;"/>
				</clipPath>
				<g class="st56">
					<path class="st53" d="M73.9,17.1l-2-1.2c0.4-0.2,0.8-0.4,1.2-0.6l2,1.2C74.7,16.6,74.3,16.8,73.9,17.1"/>
					<path class="st53" d="M75.1,16.4l-2-1.2c0.4-0.1,0.7-0.3,1-0.4l2,1.2C75.8,16.2,75.4,16.3,75.1,16.4"/>
					<path class="st53" d="M76.1,16.1l-2-1.2c0.3-0.1,0.5-0.1,0.8-0.2l2,1.2C76.6,16,76.4,16,76.1,16.1"/>
					<path class="st53" d="M76.9,15.9l-2-1.2c0.2,0,0.4-0.1,0.7-0.1l2,1.2C77.3,15.9,77.1,15.9,76.9,15.9"/>
					<path class="st53" d="M77.5,15.9l-2-1.2c0.2,0,0.4,0,0.6,0l2,1.2C77.9,15.8,77.7,15.8,77.5,15.9"/>
					<path class="st53" d="M78.1,15.9l-2-1.2c0.2,0,0.4,0,0.5,0.1l2,1.2C78.5,15.9,78.3,15.9,78.1,15.9"/>
					<path class="st53" d="M78.7,15.9l-2-1.2c0.2,0,0.3,0.1,0.5,0.1l2,1.2C79,16,78.8,15.9,78.7,15.9"/>
					<path class="st53" d="M79.2,16l-2-1.2c0.2,0,0.3,0.1,0.5,0.2l2,1.2C79.5,16.1,79.3,16.1,79.2,16"/>
					<path class="st53" d="M79.6,16.2l-2-1.2c0.2,0.1,0.3,0.1,0.4,0.2l2,1.2C79.9,16.3,79.8,16.3,79.6,16.2"/>
					<path class="st53" d="M80.1,16.4l-2-1.2c0,0,0,0,0,0L80.1,16.4C80.1,16.4,80.1,16.4,80.1,16.4"/>
				</g>
			</g>
			<g>
				<defs>
					<path id="SVGID_29_" d="M67.7,37.9l-2-1.2c-1.6-0.9-2.6-2.9-2.6-5.6c0-5.6,3.9-12.4,8.8-15.2l2,1.2c-4.9,2.8-8.8,9.6-8.8,15.2
						C65.1,35,66.1,36.9,67.7,37.9z"/>
				</defs>
				<use xlink:href="#SVGID_29_"  style="overflow:visible;fill:#F6921E;"/>
				<clipPath id="SVGID_30_">
					<use xlink:href="#SVGID_29_"  style="overflow:visible;"/>
				</clipPath>
				<g class="st57">
					<path class="st53" d="M67.7,37.9l-2-1.2c-1.6-0.9-2.6-2.9-2.6-5.6c0-0.6,0-1.1,0.1-1.7l2,1.2c-0.1,0.6-0.1,1.2-0.1,1.7
						C65.1,35,66.1,36.9,67.7,37.9"/>
					<path class="st53" d="M65.2,30.5l-2-1.2c0.1-0.4,0.1-0.8,0.2-1.2l2,1.2C65.3,29.7,65.3,30.1,65.2,30.5"/>
					<path class="st53" d="M65.4,29.3l-2-1.2c0.1-0.3,0.2-0.7,0.2-1l2,1.2C65.6,28.6,65.5,28.9,65.4,29.3"/>
					<path class="st53" d="M65.7,28.3l-2-1.2c0.1-0.3,0.2-0.6,0.3-0.9l2,1.2C65.8,27.7,65.7,28,65.7,28.3"/>
					<path class="st53" d="M65.9,27.4l-2-1.2c0.1-0.3,0.2-0.6,0.3-0.8l2,1.2C66.1,26.8,66,27.1,65.9,27.4"/>
					<path class="st53" d="M66.2,26.5l-2-1.2c0.1-0.3,0.2-0.5,0.3-0.8l2,1.2C66.4,26,66.3,26.3,66.2,26.5"/>
					<path class="st53" d="M66.6,25.8l-2-1.2c0.1-0.3,0.2-0.5,0.3-0.8l2,1.2C66.8,25.2,66.7,25.5,66.6,25.8"/>
					<path class="st53" d="M66.9,25l-2-1.2c0.1-0.3,0.2-0.5,0.4-0.7l2,1.2C67.2,24.5,67,24.7,66.9,25"/>
					<path class="st53" d="M67.3,24.3l-2-1.2c0.1-0.2,0.3-0.5,0.4-0.7l2,1.2C67.6,23.8,67.4,24,67.3,24.3"/>
					<path class="st53" d="M67.7,23.5l-2-1.2c0.1-0.3,0.3-0.5,0.5-0.7l2,1.2C68,23,67.8,23.3,67.7,23.5"/>
					<path class="st53" d="M68.2,22.8l-2-1.2c0.2-0.3,0.3-0.5,0.5-0.8l2,1.2C68.5,22.3,68.3,22.5,68.2,22.8"/>
					<path class="st53" d="M68.7,22l-2-1.2c0.2-0.3,0.4-0.5,0.6-0.8l2,1.2C69,21.5,68.8,21.7,68.7,22"/>
					<path class="st53" d="M69.2,21.2l-2-1.2c0.2-0.3,0.5-0.6,0.7-0.9l2,1.2C69.7,20.6,69.5,20.9,69.2,21.2"/>
					<path class="st53" d="M70,20.3l-2-1.2c0.3-0.4,0.6-0.7,1-1l2,1.2C70.6,19.7,70.3,20,70,20.3"/>
					<path class="st53" d="M70.9,19.3l-2-1.2c0.9-0.9,1.9-1.7,2.9-2.3l2,1.2C72.8,17.6,71.8,18.4,70.9,19.3"/>
				</g>
			</g>
			<g>
				<path class="st54" d="M73.9,17.1c4.9-2.8,8.8-0.6,8.8,5c0,5.6-3.9,12.4-8.8,15.2c-4.9,2.8-8.8,0.6-8.8-5
					C65.1,26.6,69,19.9,73.9,17.1z M73.9,35.7c4.1-2.4,7.5-8.2,7.4-12.9c0-4.7-3.4-6.7-7.5-4.3s-7.5,8.2-7.4,12.9
					C66.4,36.2,69.8,38.1,73.9,35.7"/>
			</g>
		</g>
	</g>
	
		<ellipse transform="matrix(0.7456 -0.6664 0.6664 0.7456 -60.0938 46.4617)" class="st6" cx="30.8" cy="101.9" rx="9.4" ry="17.2"/>
	<ellipse transform="matrix(0.9879 -0.1552 0.1552 0.9879 -15.6357 6.7926)" class="st0" cx="35.7" cy="103.6" rx="2.4" ry="4.1"/>
	<path class="st3" d="M37.7,106.3c-1.3,0-2.6-1.8-2.8-4.1c-0.1-1.1,0-2,0.3-2.8h0c1.3,0,2.6,1.8,2.8,4.1
		C38.2,104.6,38.1,105.6,37.7,106.3z"/>
	<ellipse transform="matrix(0.9879 -0.1552 0.1552 0.9879 -14.9325 5.2118)" class="st0" cx="25.9" cy="98.3" rx="2.4" ry="4.1"/>
	<path class="st3" d="M28,101c-1.3,0-2.6-1.8-2.8-4.1c-0.1-1.1,0-2,0.3-2.8h0c1.3,0,2.6,1.8,2.8,4.1C28.4,99.3,28.3,100.3,28,101z"
		/>
</g>
</svg>
