<?xml version="1.0" encoding="utf-8"?>
<!-- Generator: Adobe Illustrator 20.0.0, SVG Export Plug-In . SVG Version: 6.00 Build 0)  -->
<svg version="1.1" id="Layer_1" xmlns="http://www.w3.org/2000/svg" xmlns:xlink="http://www.w3.org/1999/xlink" x="0px" y="0px"
	 viewBox="0 0 141.7 141.7" style="enable-background:new 0 0 141.7 141.7;" xml:space="preserve">
<style type="text/css">
	.st0{fill:#FFFFFF;stroke:#FFFFFF;stroke-linejoin:round;stroke-miterlimit:10;}
	.st1{fill:#64A396;stroke:#FFFFFF;stroke-linecap:round;stroke-linejoin:round;stroke-miterlimit:10;}
	.st2{fill:#64A396;}
	.st3{opacity:0.5;}
	.st4{fill:#FFFFFF;}
</style>
<g>
	<path class="st0" d="M19.6,94.9c0,0,42.8,19.5,44.1,20.5c1.3,1,4.8,1,7,0c2.2-1,61.9-28.5,62.8-29c1.1-0.5,1.9-1.5-0.8-2.2
		c-2-0.5-41-9.3-41-9.3l-6.2,1.7l0.8,0.9l-54.1,15l-1-0.9L19.6,94.9z"/>
	<path class="st1" d="M19.6,94.9c0,0,42.5,19.7,44.1,20.5c1.5,0.8,4.8,1,7,0c2.2-1,61.9-28.5,62.8-29c0.5-0.3,1-0.6,1-1
		c0-0.4,0.5,2.6,0.5,2.6s-63.1,30.5-64.4,31c-1.3,0.5-4.4,0.8-6.1,0c-1.7-0.8-44.9-21-44.9-21V94.9z"/>
	<path class="st1" d="M19,94.6c0,0-10.7-67.9-10.9-69.7c-0.1-0.7,0-1.3,0.2-1.7c0,0-1.9,0.1-1.5,3.1s10.3,66.2,10.3,66.2
		S17.2,94.1,19,94.6z"/>
	<path class="st0" d="M82.8,30.7c-0.4-1.8-1.6-2.4-2.8-2.4s-66.4-5.6-68.9-6s-3.4,0.9-3.1,2.6C8.3,26.7,19,94.6,19,94.6l72.1-20
		C91.1,74.6,83.2,32.4,82.8,30.7z M12,29l69.2,4.3l7.3,38.5L21.1,87L12,29z"/>
	<path class="st2" d="M50.3,28.5c0.1,0.6-0.2,1-0.5,1c-0.3,0-0.7-0.4-0.7-1s0.2-1,0.5-1C50,27.5,50.3,28,50.3,28.5z"/>
	<path class="st2" d="M84.3,99c0,0,8.6,3.4,9,3.5c0.4,0,13.8-6.3,13.8-6.3l-10.2-2.5L84.3,99z"/>
	<polygon class="st2" points="54.5,108.3 119.3,83 92.7,76.7 26.9,95.5 	"/>
	<g class="st3">
		<polygon class="st4" points="107,86.8 109.5,85.9 108.3,85.5 105.8,86.5 		"/>
		<polygon class="st4" points="107.7,85.1 110.1,84.2 108.9,83.9 106.4,84.8 		"/>
		<polygon class="st4" points="110,85.6 112.5,84.7 111.2,84.4 108.8,85.3 		"/>
		<polygon class="st4" points="113.1,84.5 115.5,83.6 114.3,83.2 111.8,84.2 		"/>
		<g>
			<polygon class="st4" points="73.2,97.1 69.4,98.5 72.6,99.9 76.3,98.4 			"/>
			<polygon class="st4" points="103.5,88 106,87.1 102.7,86.4 100.7,87.1 			"/>
			<polygon class="st4" points="68,99 64,100.4 67.4,101.9 71.2,100.4 			"/>
			<polygon class="st4" points="61.9,104 66,102.4 62.7,100.9 58.4,102.4 			"/>
			<polygon class="st4" points="57,102.9 52.3,104.6 55.8,106.3 60.5,104.5 			"/>
			<polygon class="st4" points="95.4,89 74.5,96.6 77.6,97.9 98.3,90 			"/>
			<polygon class="st4" points="99.2,87.7 96.9,88.5 99.7,89.5 102,88.6 			"/>
		</g>
		<g>
			<polygon class="st4" points="78.6,91.8 75.3,92.9 78.2,94.2 81.4,93 			"/>
			<polygon class="st4" points="63.4,99.6 67.3,98.2 64.1,96.8 60.1,98.1 			"/>
			<polygon class="st4" points="105.6,84.2 110.1,82.5 107.1,82 103.1,83.3 			"/>
			<polygon class="st4" points="69.2,95 65.5,96.3 68.7,97.7 72.3,96.4 			"/>
			<polygon class="st4" points="82.7,90.4 80,91.3 82.8,92.5 85.4,91.5 			"/>
			<polygon class="st4" points="73.9,93.4 70.6,94.5 73.6,95.9 76.9,94.7 			"/>
			<polygon class="st4" points="101.6,83.9 99.6,84.5 102.2,85.4 104.1,84.7 			"/>
			<polygon class="st4" points="58.7,98.6 47.2,102.6 50.8,104.2 62.1,100.1 			"/>
			<polygon class="st4" points="98.1,85.1 96.1,85.8 98.7,86.7 100.7,86 			"/>
			<polygon class="st4" points="86.8,89 84.1,89.9 86.8,91 89.7,90 			"/>
			<polygon class="st4" points="90.7,87.6 88.3,88.4 91.2,89.4 93.5,88.6 			"/>
			<polygon class="st4" points="94.5,86.3 92.2,87.1 95,88 97.2,87.2 			"/>
		</g>
		<g>
			<polygon class="st4" points="71.3,91.1 68.3,92.1 71.2,93.4 74.2,92.4 			"/>
			<polygon class="st4" points="79.9,88.3 77.2,89.2 80,90.4 82.9,89.4 			"/>
			<polygon class="st4" points="66.8,92.6 63.1,93.8 66.1,95.1 69.8,93.9 			"/>
			<polygon class="st4" points="75.8,89.7 72.7,90.6 75.6,91.9 78.6,90.9 			"/>
			<polygon class="st4" points="61.7,94.3 57.9,95.5 61.1,96.9 64.8,95.6 			"/>
			<polygon class="st4" points="55.6,98.8 59.7,97.3 56.5,95.9 52.3,97.3 			"/>
			<polygon class="st4" points="103,82.5 105.8,81.5 103,80.8 100.5,81.6 			"/>
			<polygon class="st4" points="84,87 81.4,87.8 84.5,88.8 86.9,88 			"/>
			<polygon class="st4" points="50.9,97.8 42.1,100.6 45.8,102.1 54.2,99.2 			"/>
			<polygon class="st4" points="95.3,83.3 93.3,83.9 96.1,84.9 98,84.2 			"/>
			<polygon class="st4" points="98.9,82.1 96.9,82.8 99.5,83.7 101.5,83 			"/>
			<polygon class="st4" points="91.8,84.4 89.4,85.2 92.2,86.2 94.5,85.4 			"/>
			<polygon class="st4" points="87.8,85.7 85.5,86.5 88.4,87.5 90.7,86.7 			"/>
		</g>
		<g>
			<polygon class="st4" points="91,79 93.1,78.4 91.5,78.1 89.8,78.6 			"/>
			<polygon class="st4" points="65.2,85.7 62.3,86.6 63.7,87.2 66.7,86.3 			"/>
			<polygon class="st4" points="60.8,87 57.8,87.9 59.1,88.5 62.2,87.6 			"/>
			<polygon class="st4" points="56.3,88.3 52.8,89.3 54.3,90 57.7,89 			"/>
			<polygon class="st4" points="38.2,94.8 42.4,93.5 40.8,92.8 36.6,94.1 			"/>
			<polygon class="st4" points="46.2,91.3 42.3,92.4 43.9,93.1 47.7,91.9 			"/>
			<polygon class="st4" points="51.3,89.8 47.7,90.8 49.2,91.5 52.8,90.4 			"/>
			<polygon class="st4" points="84.7,80.1 82.8,80.6 84,81.1 85.9,80.5 			"/>
			<polygon class="st4" points="88.2,79.1 86.3,79.6 87.6,80 89.4,79.5 			"/>
			<polygon class="st4" points="69.2,84.6 66.9,85.3 68.3,85.8 70.7,85.1 			"/>
			<polygon class="st4" points="35.1,94.5 30.5,95.8 32.1,96.6 36.7,95.2 			"/>
			<polygon class="st4" points="73.6,83.3 70.9,84.1 72.3,84.6 74.9,83.8 			"/>
			<polygon class="st4" points="77.3,82.2 75.2,82.8 76.6,83.3 78.7,82.7 			"/>
			<polygon class="st4" points="81.1,81.1 79,81.7 80.3,82.2 82.4,81.6 			"/>
		</g>
		<g>
			<polygon class="st4" points="68.3,86.5 65.3,87.4 67.9,88.6 70.9,87.6 			"/>
			<polygon class="st4" points="54.5,90.7 50.8,91.8 53.7,93.1 57.3,91.9 			"/>
			<polygon class="st4" points="63.8,87.9 60.8,88.8 63.5,90 66.5,89 			"/>
			<polygon class="st4" points="59.3,89.2 55.9,90.2 58.7,91.5 62,90.4 			"/>
			<polygon class="st4" points="94.9,80.1 97.2,79.3 94.4,78.6 92.5,79.2 			"/>
			<polygon class="st4" points="42.8,96.5 46.9,95.2 43.9,93.8 39.8,95.1 			"/>
			<polygon class="st4" points="49.3,92.2 45.4,93.4 48.4,94.7 52.2,93.5 			"/>
			<polygon class="st4" points="90.9,79.7 89.3,80.2 91.8,81 93.3,80.6 			"/>
			<polygon class="st4" points="87.7,80.7 85.6,81.3 88.2,82.2 90.2,81.5 			"/>
			<polygon class="st4" points="38.4,95.6 38.5,95.5 33.4,97 36.8,98.4 41.4,96.9 			"/>
			<polygon class="st4" points="72.4,85.3 69.8,86.1 72.3,87.2 75.2,86.3 			"/>
			<polygon class="st4" points="84,81.8 82.1,82.4 84.7,83.3 86.6,82.7 			"/>
			<polygon class="st4" points="76.4,84.1 74,84.8 76.8,85.8 79.2,85 			"/>
			<polygon class="st4" points="80.4,82.9 78.1,83.6 80.8,84.5 83.1,83.8 			"/>
		</g>
		<g>
			<polygon class="st4" points="72,88 68.9,89 71.5,90.1 74.6,89.1 			"/>
			<polygon class="st4" points="67.4,89.4 64.1,90.5 66.8,91.7 70.1,90.6 			"/>
			<polygon class="st4" points="51.3,96.8 55.4,95.4 52.5,94.1 48.3,95.4 			"/>
			<polygon class="st4" points="62.7,90.9 59.3,92 62.1,93.2 65.4,92.1 			"/>
			<polygon class="st4" points="99.1,81 101.3,80.3 98.5,79.6 96.6,80.2 			"/>
			<polygon class="st4" points="57.9,92.4 54,93.7 56.8,94.9 60.7,93.7 			"/>
			<polygon class="st4" points="76,86.7 73.4,87.5 76,88.6 78.9,87.7 			"/>
			<polygon class="st4" points="91.5,81.8 89.5,82.4 92.1,83.4 94.1,82.7 			"/>
			<polygon class="st4" points="95,80.7 93.1,81.3 95.7,82.2 97.5,81.6 			"/>
			<polygon class="st4" points="87.8,83 85.7,83.6 88.4,84.6 90.5,83.9 			"/>
			<polygon class="st4" points="84.1,84.1 81.7,84.9 84.5,85.8 86.8,85.1 			"/>
			<polygon class="st4" points="80.1,85.4 77.6,86.2 80.5,87.2 82.9,86.4 			"/>
			<polygon class="st4" points="46.9,95.9 37.8,98.8 40.9,100.2 49.9,97.2 			"/>
		</g>
	</g>
</g>
</svg>
