<?xml version="1.0" encoding="utf-8"?>
<!-- Generator: Adobe Illustrator 20.0.0, SVG Export Plug-In . SVG Version: 6.00 Build 0)  -->
<svg version="1.1" id="Layer_1" xmlns="http://www.w3.org/2000/svg" xmlns:xlink="http://www.w3.org/1999/xlink" x="0px" y="0px"
	 viewBox="0 0 233 110" style="enable-background:new 0 0 233 110;" xml:space="preserve">
<style type="text/css">
	.st0{fill:#FFFFFF;}
</style>
<g>
	<g>
		<path class="st0" d="M110,43.1v3.6l22.7-12.3c0.5-0.3,0.8-0.8,0.8-1.4l5.9-29.3c0.1-0.5-0.6-0.8-0.9-0.4L110,43.1z"/>
	</g>
	<g>
		<path class="st0" d="M169.2,43.1v3.6l-22.7-12.3c-0.5-0.3-0.8-0.8-0.8-1.4l-5.9-29.3c-0.1-0.5,0.6-0.8,0.9-0.4L169.2,43.1z"/>
	</g>
	<g>
		<path class="st0" d="M2.5,99.1l7.2-8c3,3.3,5.8,5.2,9.5,5.2c4.3,0,6.9-2.6,6.9-8.6V54.4h11.7v33.9c0,6.1-1.8,10.7-4.9,13.8
			c-3.2,3.2-7.8,4.8-13.5,4.8C11.4,106.8,6.1,103.3,2.5,99.1z"/>
	</g>
	<g>
		<path class="st0" d="M56.8,54.3h39v10.1H68.1V75h24.4v10.1H68.1V96h28.1v10.1H56.8L56.8,54.3L56.8,54.3z"/>
	</g>
	<g>
		<path class="st0" d="M199.2,85.7l-19.9-31.3h13.3l12.3,20.8l12.6-20.8h13l-19.9,31.1v20.6h-11.4V85.7z"/>
	</g>
	<g>
		<polygon class="st0" points="136.2,106.1 136.2,54.3 110,54.3 110,64.8 125.7,64.8 125.7,106.1 		"/>
	</g>
	<g>
		<polygon class="st0" points="142.9,106.1 142.9,54.3 169.2,54.3 169.2,64.8 153.4,64.8 153.4,106.1 		"/>
	</g>
</g>
</svg>
