<?xml version="1.0" encoding="utf-8"?>
<!-- Generator: Adobe Illustrator 22.0.1, SVG Export Plug-In . SVG Version: 6.00 Build 0)  -->
<svg version="1.1" id="Layer_1" xmlns="http://www.w3.org/2000/svg" xmlns:xlink="http://www.w3.org/1999/xlink" x="0px" y="0px"
	 width="167.4px" height="33.4px" viewBox="0 0 167.4 33.4" style="enable-background:new 0 0 167.4 33.4;" xml:space="preserve">
<style type="text/css">
	.st0{fill:#FFFFFF;}
	.st1{opacity:0.7;}
</style>
<g>
	<g>
		<path class="st0" d="M80.9,1.6h5.6c2,0,3.4,1.2,3.4,2.8c0,1.1-0.6,2-1.6,2.5c1.3,0.6,2,1.6,2,2.8c0,1.8-1.5,3-3.6,3h-5.8V1.6z
			 M85.9,6c0.9,0,1.5-0.5,1.5-1.2c0-0.7-0.6-1.2-1.5-1.2h-2.6V6H85.9z M86.3,10.6c1,0,1.6-0.6,1.6-1.4s-0.7-1.4-1.6-1.4h-3v2.7H86.3
			z"/>
		<path class="st0" d="M99.9,4.3v8.3h-2.4v-1c-0.5,0.8-1.4,1.2-2.5,1.2c-1.8,0-3.1-1.3-3.1-3.2V4.3h2.3v4.8c0,1,0.6,1.7,1.6,1.7
			c1,0,1.7-0.7,1.7-1.6l0,0v-5H99.9z"/>
		<path class="st0" d="M107.8,10l1.5,1.5c-0.7,0.8-2.2,1.3-3.4,1.3c-2.5,0-4.4-1.8-4.4-4.4c0-2.5,1.9-4.3,4.3-4.3
			c2.6,0,4.1,2,4.1,5.1h-6c0.3,0.9,1,1.5,2,1.5C106.6,10.8,107.4,10.5,107.8,10z M103.9,7.6h3.7c-0.2-0.8-0.8-1.4-1.8-1.4
			C105,6.2,104.3,6.7,103.9,7.6z"/>
		<path class="st0" d="M119.5,7.4v5.3h-2.3V7.9c0-1-0.6-1.7-1.6-1.7c-1,0-1.7,0.7-1.7,1.6l0,0v5h-2.4V4.3h2.4v1
			c0.5-0.8,1.4-1.2,2.5-1.2C118.2,4.1,119.5,5.5,119.5,7.4z"/>
		<path class="st0" d="M125.1,4.3h2.5l2.2,5.6l2.2-5.6h2.5l-3.6,8.3h-2.2L125.1,4.3z"/>
		<path class="st0" d="M135.6,1.9c0-0.7,0.6-1.3,1.3-1.3c0.7,0,1.3,0.6,1.3,1.3c0,0.7-0.6,1.3-1.3,1.3
			C136.2,3.2,135.6,2.6,135.6,1.9z M135.7,4.3h2.4v8.3h-2.4V4.3z"/>
		<path class="st0" d="M147.5,7.7v5h-2.3v-0.8c-0.6,0.7-1.5,1-2.5,1c-1.8,0-3.1-1.1-3.1-2.7c0-1.6,1.5-2.8,3.5-2.8
			c0.7,0,1.4,0.1,2.1,0.4V7.7c0-0.9-0.5-1.7-1.9-1.7c-0.8,0-1.5,0.3-2.2,0.6L140.4,5c1.2-0.6,2.3-0.9,3.5-0.9
			C146,4.1,147.5,5.5,147.5,7.7z M145.3,10V9.3c-0.5-0.2-1.1-0.3-1.8-0.3c-0.9,0-1.5,0.5-1.5,1.2c0,0.7,0.6,1.1,1.4,1.1
			C144.2,11.2,145.1,10.8,145.3,10z"/>
		<path class="st0" d="M147.6,15.2l0.2-1.7c0.2,0.1,0.6,0.1,0.9,0.1c0.5,0,0.8-0.4,0.8-0.9V4.3h2.4v8.6c0,1.5-1.1,2.6-2.6,2.6
			C148.7,15.5,148,15.4,147.6,15.2z M149.4,1.9c0-0.7,0.6-1.3,1.3-1.3c0.7,0,1.3,0.6,1.3,1.3c0,0.7-0.6,1.3-1.3,1.3
			C150,3.2,149.4,2.6,149.4,1.9z"/>
		<path class="st0" d="M159.8,10l1.5,1.5c-0.7,0.8-2.2,1.3-3.4,1.3c-2.5,0-4.4-1.8-4.4-4.4c0-2.5,1.9-4.3,4.3-4.3
			c2.6,0,4.1,2,4.1,5.1h-6c0.3,0.9,1,1.5,2,1.5C158.5,10.8,159.3,10.5,159.8,10z M155.9,7.6h3.7c-0.2-0.8-0.8-1.4-1.8-1.4
			C156.9,6.2,156.2,6.7,155.9,7.6z"/>
		<path class="st0" d="M163.3,11.4c0-0.8,0.7-1.4,1.5-1.4c0.8,0,1.4,0.7,1.4,1.4c0,0.8-0.6,1.5-1.4,1.5
			C164,12.9,163.3,12.2,163.3,11.4z"/>
	</g>
	<g class="st1">
		<path class="st0" d="M80.1,28.2l1.4-1.6c1,0.9,2.2,1.5,3.6,1.5c1.2,0,1.8-0.5,1.8-1.2c0-0.8-0.6-1-2.3-1.4c-2.3-0.5-4-1.2-4-3.3
			c0-2,1.7-3.5,4.1-3.5c1.8,0,3.2,0.6,4.3,1.5l-1.2,1.7c-1-0.8-2.1-1.2-3.2-1.2c-1,0-1.6,0.5-1.6,1.2c0,0.8,0.7,1.1,2.4,1.5
			c2.4,0.5,4,1.2,4,3.3c0,2.1-1.6,3.5-4.3,3.5C83.1,30,81.4,29.4,80.1,28.2z"/>
		<path class="st0" d="M90.9,19.1c0-0.7,0.6-1.3,1.3-1.3c0.7,0,1.3,0.6,1.3,1.3c0,0.7-0.6,1.3-1.3,1.3
			C91.4,20.4,90.9,19.8,90.9,19.1z M91,21.5h2.4v8.3H91V21.5z"/>
		<path class="st0" d="M101.2,27.2l1.5,1.5c-0.7,0.8-2.2,1.3-3.4,1.3c-2.5,0-4.4-1.8-4.4-4.4c0-2.5,1.9-4.3,4.3-4.3
			c2.6,0,4.1,2,4.1,5.1h-6c0.3,0.9,1,1.5,2,1.5C100,28,100.8,27.7,101.2,27.2z M97.4,24.8h3.7c-0.2-0.8-0.8-1.4-1.8-1.4
			C98.4,23.4,97.7,23.9,97.4,24.8z"/>
		<path class="st0" d="M118,24.5v5.3h-2.3v-4.9c0-1-0.6-1.6-1.5-1.6c-0.9,0-1.6,0.6-1.6,1.5v5.1h-2.3v-4.9c0-1-0.6-1.6-1.5-1.6
			c-1,0-1.6,0.6-1.6,1.5v5h-2.4v-8.3h2.4v1.1c0.4-0.8,1.2-1.3,2.3-1.3c1.1,0,2.1,0.6,2.6,1.5c0.4-0.9,1.5-1.5,2.7-1.5
			C116.6,21.3,118,22.7,118,24.5z"/>
		<path class="st0" d="M128.9,25.7c0,2.6-1.6,4.4-3.8,4.4c-1.2,0-2.1-0.5-2.8-1.4v4H120V21.5h2.4v1.2c0.7-0.9,1.6-1.4,2.8-1.4
			C127.3,21.3,128.9,23.1,128.9,25.7z M126.7,25.7c0-1.4-0.9-2.4-2.2-2.4c-1.1,0-2,0.8-2.1,2.1V26c0.1,1.2,1,2.1,2.1,2.1
			C125.7,28.1,126.7,27.1,126.7,25.7z"/>
		<path class="st0" d="M135.8,21.3v2c-1.7,0-2.9,1-2.9,2.6v4h-2.4v-8.3h2.4v1.5C133.5,22,134.5,21.3,135.8,21.3z"/>
		<path class="st0" d="M143,27.2l1.5,1.5c-0.7,0.8-2.2,1.3-3.4,1.3c-2.5,0-4.4-1.8-4.4-4.4c0-2.5,1.9-4.3,4.3-4.3
			c2.6,0,4.1,2,4.1,5.1h-6c0.3,0.9,1,1.5,2,1.5C141.8,28,142.6,27.7,143,27.2z M139.2,24.8h3.7c-0.2-0.8-0.8-1.4-1.8-1.4
			C140.2,23.4,139.5,23.9,139.2,24.8z"/>
		<path class="st0" d="M146.6,28.5c0-0.8,0.7-1.4,1.5-1.4c0.8,0,1.4,0.7,1.4,1.4c0,0.8-0.6,1.5-1.4,1.5
			C147.3,30,146.6,29.4,146.6,28.5z"/>
	</g>
	<g>
		<g>
			<path class="st0" d="M30.9,12v1l6.3-3.5c0.1-0.1,0.2-0.2,0.2-0.4L39.1,1c0-0.2-0.2-0.2-0.3-0.1L30.9,12z"/>
		</g>
		<g>
			<path class="st0" d="M47.5,12v1l-6.3-3.5c-0.1-0.1-0.2-0.2-0.2-0.4L39.3,1c0-0.2,0.2-0.2,0.3-0.1L47.5,12z"/>
		</g>
		<g>
			<path class="st0" d="M0.8,27.7l2-2.2c0.8,0.9,1.6,1.4,2.7,1.4c1.2,0,1.9-0.7,1.9-2.4v-9.3h3.3v9.5c0,1.7-0.5,3-1.4,3.9
				c-0.9,0.9-2.2,1.3-3.8,1.3C3.3,29.9,1.8,28.9,0.8,27.7z"/>
		</g>
		<g>
			<path class="st0" d="M16,15.2h10.9V18h-7.8v2.9H26v2.8h-6.8v3H27v2.8H16V15.2z"/>
		</g>
		<g>
			<path class="st0" d="M55.9,23.9l-5.6-8.8h3.7l3.5,5.8l3.5-5.8h3.6l-5.6,8.7v5.8h-3.2V23.9z"/>
		</g>
		<g>
			<polygon class="st0" points="38.3,29.6 38.3,15.2 30.9,15.2 30.9,18.1 35.3,18.1 35.3,29.6 			"/>
		</g>
		<g>
			<polygon class="st0" points="40.1,29.6 40.1,15.2 47.5,15.2 47.5,18.1 43.1,18.1 43.1,29.6 			"/>
		</g>
	</g>
</g>
</svg>
