<?xml version="1.0" encoding="utf-8"?>
<!-- Generator: Adobe Illustrator 22.0.1, SVG Export Plug-In . SVG Version: 6.00 Build 0)  -->
<svg version="1.1" id="Layer_1" xmlns="http://www.w3.org/2000/svg" xmlns:xlink="http://www.w3.org/1999/xlink" x="0px" y="0px"
	 width="113.4px" height="85px" viewBox="0 0 113.4 85" style="enable-background:new 0 0 113.4 85;" xml:space="preserve">
<style type="text/css">
	.st0{fill:none;stroke:#000000;stroke-linecap:round;stroke-linejoin:round;stroke-miterlimit:10;}
</style>
<g>
	<polygon class="st0" points="57.7,38.2 67.2,52.8 76.7,67.5 57.7,67.5 38.8,67.5 48.3,52.8 	"/>
	<polyline class="st0" points="70.1,57.3 78.5,44.9 86.2,56.2 93.9,67.5 78.5,67.5 	"/>
	<polyline class="st0" points="38.4,67.5 24.4,67.5 31.4,58.8 38.4,50.1 44.8,58 	"/>
	<polyline class="st0" points="50.2,50.3 52.4,50.3 55.6,54 58.6,51.4 61.8,52.9 65.1,50.5 	"/>
	<line class="st0" x1="15.1" y1="67.5" x2="20.1" y2="67.5"/>
	<line class="st0" x1="21.8" y1="67.6" x2="98.2" y2="67.6"/>
	<line class="st0" x1="36" y1="71.7" x2="82.8" y2="71.7"/>
	<line class="st0" x1="85.5" y1="71.8" x2="90.4" y2="71.8"/>
	<polyline class="st0" points="73,52.9 77,52.9 78.6,55 80.4,54 84.7,54 	"/>
	<polyline class="st0" points="32.2,58.1 35.3,60.7 38.6,59.2 43.8,59.2 	"/>
	<line class="st0" x1="57.7" y1="38.2" x2="57.7" y2="29.3"/>
	<path class="st0" d="M68.4,34.9c-3.6,3.6-7.1-3.6-10.7,0c0-2.2,0-4.4,0-6.6c3.6-3.6,7.1,3.6,10.7,0C68.4,30.5,68.4,32.7,68.4,34.9z
		"/>
</g>
</svg>
