<?xml version="1.0" encoding="utf-8"?>
<!-- Generator: Adobe Illustrator 20.0.0, SVG Export Plug-In . SVG Version: 6.00 Build 0)  -->
<svg version="1.1" id="Layer_1" xmlns="http://www.w3.org/2000/svg" xmlns:xlink="http://www.w3.org/1999/xlink" x="0px" y="0px"
	 viewBox="0 0 113.4 113.4" style="enable-background:new 0 0 113.4 113.4;" xml:space="preserve">
<style type="text/css">
	.st0{fill:none;stroke:#000000;stroke-linecap:round;stroke-linejoin:round;stroke-miterlimit:10;}
</style>
<g>
	<polygon class="st0" points="57.7,65.4 67.2,80 76.7,94.7 57.7,94.7 38.8,94.7 48.3,80 	"/>
	<polyline class="st0" points="70.1,84.5 78.5,72.1 86.2,83.4 93.9,94.7 78.5,94.7 	"/>
	<polyline class="st0" points="38.4,94.7 24.4,94.7 31.4,86 38.4,77.3 44.8,85.2 	"/>
	<polyline class="st0" points="50.2,77.5 52.4,77.5 55.6,81.2 58.6,78.6 61.8,80.1 65.1,77.7 	"/>
	<line class="st0" x1="15.1" y1="94.7" x2="20.1" y2="94.7"/>
	<line class="st0" x1="21.8" y1="94.8" x2="98.2" y2="94.8"/>
	<line class="st0" x1="36" y1="98.9" x2="82.8" y2="98.9"/>
	<line class="st0" x1="85.5" y1="99" x2="90.4" y2="99"/>
	<polyline class="st0" points="73,80.1 77,80.1 78.6,82.2 80.4,81.2 84.7,81.2 	"/>
	<polyline class="st0" points="32.2,85.3 35.3,87.9 38.6,86.4 43.8,86.4 	"/>
	<line class="st0" x1="57.7" y1="65.4" x2="57.7" y2="56.5"/>
	<path class="st0" d="M68.4,62.1c-3.6,3.6-7.1-3.6-10.7,0c0-2.2,0-4.4,0-6.6c3.6-3.6,7.1,3.6,10.7,0C68.4,57.7,68.4,59.9,68.4,62.1z
		"/>
</g>
</svg>
