<?xml version="1.0" encoding="utf-8"?>
<!-- Generator: Adobe Illustrator 20.0.0, SVG Export Plug-In . SVG Version: 6.00 Build 0)  -->
<svg version="1.1" id="Layer_1" xmlns="http://www.w3.org/2000/svg" xmlns:xlink="http://www.w3.org/1999/xlink" x="0px" y="0px"
	 viewBox="0 0 56.7 56.7" style="enable-background:new 0 0 56.7 56.7;" xml:space="preserve">
<style type="text/css">
	.st0{fill:none;stroke:#919192;stroke-width:2;stroke-miterlimit:10;}
</style>
<path class="st0" d="M25.2,22.1l-2.7,2c-0.3,0.2-0.5,0.5-0.5,0.8l-1,5.3c-0.1,0.7-0.8,1.2-1.6,1.1l0,0c-0.7-0.1-1.1-0.8-1-1.4l1-6.7
	c0-0.3,0.2-0.6,0.5-0.9l5.6-4.9c0.3-0.2,0.6-0.3,0.9-0.3h2.8c0.5,0,1,0.3,1.3,0.8l3.1,6.4c0.2,0.4,0.6,0.8,1,1l4.9,2.1
	c0.7,0.3,1,1.2,0.7,1.9l0,0c-0.3,0.7-1.2,1-1.9,0.6l-5.6-2.7c-0.2-0.1-0.4-0.3-0.6-0.5l-1.5-2.1l-0.9,4.9c-0.1,0.5,0,1.1,0.3,1.5
	l7.6,12.1c0.5,0.9,0.3,2-0.5,2.6l0,0c-0.9,0.6-2.1,0.4-2.7-0.5L24.1,30.6C24,30.4,23.9,30.2,24,30L25.2,22.1z"/>
<path class="st0" d="M26.2,36.5l-1,2.8c0,0.1-0.1,0.2-0.2,0.3l-4.6,6c-0.6,0.8-1.8,0.9-2.5,0.2l0,0c-0.6-0.6-0.7-1.5-0.2-2.2l4.3-6
	c0.1-0.1,0.1-0.2,0.2-0.3l1.2-4.7"/>
<circle class="st0" cx="31" cy="11.9" r="3.7"/>
</svg>
