<?xml version="1.0" encoding="utf-8"?>
<!-- Generator: Adobe Illustrator 20.0.0, SVG Export Plug-In . SVG Version: 6.00 Build 0)  -->
<svg version="1.1" id="Layer_1" xmlns="http://www.w3.org/2000/svg" xmlns:xlink="http://www.w3.org/1999/xlink" x="0px" y="0px"
	 viewBox="0 0 141.7 141.7" style="enable-background:new 0 0 141.7 141.7;" xml:space="preserve">
<style type="text/css">
	.st0{fill:none;stroke:#3E3E42;stroke-width:3;stroke-miterlimit:10;}
	.st1{fill:none;stroke:#3E3E42;stroke-width:2;}
</style>
<g>
	<rect x="19.1" y="78.4" class="st0" width="103.8" height="22"/>
	<path class="st0" d="M122.9,111.8H134V74.5c0-2-1.7-3.7-3.7-3.7h-3.7c-2,0-3.7,1.7-3.7,3.7V111.8z"/>
	<path class="st0" d="M8,111.8h11.1V54.9c0-2-1.7-3.7-3.7-3.7H8V111.8z"/>
	<path class="st0" d="M46.3,78.4H19.1v-6.8c0-3.5,2.8-6.3,6.3-6.3h20.9c3.5,0,6.3,2.8,6.3,6.3v0.5C52.6,75.6,49.8,78.4,46.3,78.4z"
		/>
	<g>
		<path class="st1" d="M53.1,50.8h6.6v2.9H48.6V51l6.2-7h-6.1v-2.9h10.8v2.6L53.1,50.8z"/>
	</g>
	<g>
		<path class="st1" d="M96.1,50.3h7.7v3.4H90.9v-3.1l7.2-8.1H91v-3.4h12.5v3L96.1,50.3z"/>
	</g>
	<g>
		<path class="st1" d="M75,43.1h9.8v4.3H68.3v-4L77.6,33h-9.2v-4.3h16.1v3.8L75,43.1z"/>
	</g>
</g>
</svg>
