<?xml version="1.0" encoding="utf-8"?>
<!-- Generator: Adobe Illustrator 20.0.0, SVG Export Plug-In . SVG Version: 6.00 Build 0)  -->
<svg version="1.1" id="Layer_1" xmlns="http://www.w3.org/2000/svg" xmlns:xlink="http://www.w3.org/1999/xlink" x="0px" y="0px"
	 viewBox="0 0 56.7 56.7" style="enable-background:new 0 0 56.7 56.7;" xml:space="preserve">
<style type="text/css">
	.st0{fill:#4BBFA7;}
	.st1{fill:none;stroke:#FFFFFF;stroke-width:2;stroke-linecap:round;stroke-linejoin:round;stroke-miterlimit:10;}
	.st2{fill:#FFFFFF;}
</style>
<circle class="st0" cx="28.4" cy="28.4" r="28.4"/>
<g>
	<circle class="st1" cx="28.6" cy="27.4" r="16.2"/>
	<path class="st2" d="M29.2,27.9L29.2,27.9c-0.3,0.4-1,0.5-1.4,0.1l-8.4-7c-0.4-0.3-0.5-1-0.1-1.4l0,0c0.3-0.4,1-0.5,1.4-0.1l8.4,7
		C29.5,26.9,29.5,27.5,29.2,27.9z"/>
	<path class="st2" d="M27.9,27.9L27.9,27.9c-0.3-0.4-0.2-1.1,0.2-1.4l4.5-3.4c0.4-0.3,1.1-0.2,1.4,0.2l0,0c0.3,0.4,0.2,1.1-0.2,1.4
		l-4.5,3.4C28.9,28.4,28.3,28.3,27.9,27.9z"/>
	<line class="st1" x1="28.6" y1="14.1" x2="28.6" y2="17.1"/>
	<line class="st1" x1="14.3" y1="27.4" x2="17.3" y2="27.4"/>
	<line class="st1" x1="39.8" y1="27.4" x2="42.8" y2="27.4"/>
	<line class="st1" x1="28.6" y1="38.6" x2="28.6" y2="41.6"/>
</g>
</svg>
