<?xml version="1.0" encoding="utf-8"?>
<!-- Generator: Adobe Illustrator 20.0.0, SVG Export Plug-In . SVG Version: 6.00 Build 0)  -->
<svg version="1.1" id="Layer_1" xmlns="http://www.w3.org/2000/svg" xmlns:xlink="http://www.w3.org/1999/xlink" x="0px" y="0px"
	 viewBox="0 0 141.7 141.7" style="enable-background:new 0 0 141.7 141.7;" xml:space="preserve">
<style type="text/css">
	.st0{fill:none;}
	.st1{opacity:0.4;}
	.st2{fill:#FFFFFF;stroke:#FFFFFF;stroke-linecap:round;stroke-linejoin:round;stroke-miterlimit:10;}
	.st3{fill:none;stroke:#FFFFFF;stroke-linecap:round;stroke-linejoin:round;stroke-miterlimit:10;}
	.st4{fill:#64A396;stroke:#FFFFFF;stroke-linecap:round;stroke-linejoin:round;stroke-miterlimit:10;}
	.st5{fill:#FFFFFF;}
</style>
<path id="SVGID_x5F_1_x5F_" class="st0" d="M69,39.5c8-6.7,23.8-14.4,46.5-18.1"/>
<text class="st1"><textPath  xlink:href="#SVGID_x5F_1_x5F_" startOffset="0%">
<tspan  class="st5" style="font-family:'NunitoSans-Black'; font-size:13.1282px;">... Z Z Z</tspan></textPath>
</text>
<path class="st2" d="M67.9,51.9c-19.8,0-35.8,16-35.8,35.8c0,19.8,16,35.8,35.8,35.8s35.8-16,35.8-35.8
	C103.7,67.9,87.6,51.9,67.9,51.9z M67.9,117.9c-16.7,0-30.2-13.5-30.2-30.2s13.5-30.2,30.2-30.2c16.7,0,30.2,13.5,30.2,30.2
	S84.6,117.9,67.9,117.9z"/>
<circle class="st3" cx="67.9" cy="87.7" r="26.7"/>
<path class="st3" d="M100.8,60C96.8,57.9,81,49.5,77,47.3c3.5-6.6,11.7-9.1,18.3-5.6C101.8,45.3,104.3,53.4,100.8,60z"/>
<path class="st3" d="M58,47.5c-4,2.2-19.6,10.9-23.6,13.2c-3.6-6.5-1.3-14.7,5.2-18.4S54.3,41,58,47.5z"/>
<polygon class="st4" points="47.5,127 45.2,126 48.5,118.7 51.7,120.1 "/>
<polygon class="st4" points="88.2,127 90.5,126 87.2,118.7 84,120.1 "/>
<rect x="65.7" y="46.4" class="st5" width="3.3" height="5.5"/>
<rect x="63.5" y="42.5" class="st5" width="7.7" height="3.9"/>
<path class="st5" d="M67.9,66.7L67.9,66.7c-0.6,0-1.1,0.5-1.1,1.1v18.7c0,0.6,0.5,1.1,1.1,1.1l0,0c0.6,0,1.1-0.5,1.1-1.1V67.8
	C69,67.2,68.5,66.7,67.9,66.7z"/>
<path class="st5" d="M56.3,99.2L56.3,99.2c0.8,0.8,2.2,0.8,3,0l10.1-10.1c0.8-0.8,0.8-2.2,0-3h0c-0.8-0.8-2.2-0.8-3,0L56.3,96.2
	C55.4,97.1,55.4,98.4,56.3,99.2z"/>
</svg>
