<?xml version="1.0" encoding="utf-8"?>
<!-- Generator: Adobe Illustrator 20.0.0, SVG Export Plug-In . SVG Version: 6.00 Build 0)  -->
<svg version="1.1" id="Layer_1" xmlns="http://www.w3.org/2000/svg" xmlns:xlink="http://www.w3.org/1999/xlink" x="0px" y="0px"
	 viewBox="0 0 141.7 141.7" style="enable-background:new 0 0 141.7 141.7;" xml:space="preserve">
<style type="text/css">
	.st0{opacity:0.3;fill:#FFFFFF;}
	.st1{fill:#64A396;}
	.st2{fill:#FFFFFF;}
	.st3{opacity:0.5;fill:#4BBFA9;}
	.st4{fill:none;stroke:#FFFFFF;stroke-width:0.9767;stroke-miterlimit:10;}
	.st5{opacity:0.5;fill:#FFFFFF;}
</style>
<path class="st0" d="M19.7,33.3c-10.2,0-18.5,8.3-18.5,18.5s18.5,31.1,18.5,31.1S38.2,62,38.2,51.8S29.9,33.3,19.7,33.3z M19.7,61.1
	c-5.1,0-9.3-4.2-9.3-9.3s4.2-9.3,9.3-9.3s9.3,4.2,9.3,9.3S24.9,61.1,19.7,61.1z"/>
<g>
	<path class="st1" d="M20.2,81.5L69,97.4l-1.8-0.1l17.9-5c0.7-0.2,1.4-0.1,2,0.2l28.2,13.2c1.5,0.7,2.1,2.4,1.4,3.9
		s-2.4,2.1-3.9,1.4L84.7,97.9l2,0.2l-17.9,5l-0.1,0c-0.6,0.2-1.2,0.1-1.7-0.1L19.2,84.3c-0.8-0.3-1.1-1.2-0.8-1.9
		C18.7,81.6,19.5,81.2,20.2,81.5z"/>
</g>
<path class="st2" d="M114.1,37.9c-14.5,0-26.3,11.8-26.3,26.3s26.3,44.2,26.3,44.2s26.3-29.7,26.3-44.2S128.6,37.9,114.1,37.9z
	 M114.1,77.4c-7.3,0-13.2-5.9-13.2-13.2s5.9-13.2,13.2-13.2c7.3,0,13.2,5.9,13.2,13.2S121.4,77.4,114.1,77.4z"/>
<path class="st3" d="M114.1,46.5c-9.7,0-17.6,7.9-17.6,17.6s7.9,17.6,17.6,17.6s17.6-7.9,17.6-17.6S123.9,46.5,114.1,46.5z
	 M114.1,77.4c-7.3,0-13.2-5.9-13.2-13.2s5.9-13.2,13.2-13.2c7.3,0,13.2,5.9,13.2,13.2S121.4,77.4,114.1,77.4z"/>
<path class="st4" d="M19.7,33.3c-10.2,0-18.5,8.3-18.5,18.5s18.5,31.1,18.5,31.1S38.2,62,38.2,51.8S29.9,33.3,19.7,33.3z M19.7,61.1
	c-5.1,0-9.3-4.2-9.3-9.3s4.2-9.3,9.3-9.3s9.3,4.2,9.3,9.3S24.9,61.1,19.7,61.1z"/>
<path class="st5" d="M19.7,39.4c-6.8,0-12.4,5.6-12.4,12.4s5.6,12.4,12.4,12.4s12.4-5.6,12.4-12.4S26.6,39.4,19.7,39.4z M19.7,61.1
	c-5.1,0-9.3-4.2-9.3-9.3s4.2-9.3,9.3-9.3s9.3,4.2,9.3,9.3S24.9,61.1,19.7,61.1z"/>
</svg>
