<svg xmlns="http://www.w3.org/2000/svg" xmlns:xlink="http://www.w3.org/1999/xlink" width="93.423" height="78.551" viewBox="0 0 93.423 78.551">
  <defs>
    <linearGradient id="linear-gradient" x1="0.5" x2="0.5" y2="1" gradientUnits="objectBoundingBox">
      <stop offset="0" stop-color="#ffcc6c"/>
      <stop offset="1" stop-color="#ff9831"/>
    </linearGradient>
    <filter id="Path_76" x="12.045" y="0" width="81.378" height="78.551" filterUnits="userSpaceOnUse">
      <feOffset dy="3" input="SourceAlpha"/>
      <feGaussianBlur stdDeviation="3" result="blur"/>
      <feFlood flood-opacity="0.161"/>
      <feComposite operator="in" in2="blur"/>
      <feComposite in="SourceGraphic"/>
    </filter>
    <filter id="Path_77" x="0" y="23.168" width="53.035" height="51.531" filterUnits="userSpaceOnUse">
      <feOffset dy="3" input="SourceAlpha"/>
      <feGaussianBlur stdDeviation="3" result="blur-2"/>
      <feFlood flood-opacity="0.161"/>
      <feComposite operator="in" in2="blur-2"/>
      <feComposite in="SourceGraphic"/>
    </filter>
  </defs>
  <g id="Group_42" data-name="Group 42" transform="translate(-223.102 -2471.5)">
    <g transform="matrix(1, 0, 0, 1, 223.1, 2471.5)" filter="url(#Path_76)">
      <path id="Path_76-2" data-name="Path 76" d="M238.606-237l8.547,17.318,19.112,2.777a1.429,1.429,0,0,1,.792,2.437l-13.829,13.48,3.265,19.034a1.429,1.429,0,0,1-2.073,1.506l-17.094-8.987-17.094,8.987a1.429,1.429,0,0,1-2.073-1.506l3.265-19.034-13.829-13.48a1.429,1.429,0,0,1,.792-2.437l19.112-2.777L236.044-237A1.429,1.429,0,0,1,238.606-237Z" transform="translate(-184.59 245.3)" stroke="#fff" stroke-miterlimit="10" stroke-width="3" fill="url(#linear-gradient)"/>
    </g>
    <g transform="matrix(1, 0, 0, 1, 223.1, 2471.5)" filter="url(#Path_77)">
      <path id="Path_77-2" data-name="Path 77" d="M223.838-237.374l4.533,9.185,10.136,1.473a.758.758,0,0,1,.42,1.292l-7.335,7.149,1.732,10.095a.758.758,0,0,1-1.1.8l-9.066-4.766-9.066,4.766a.758.758,0,0,1-1.1-.8l1.731-10.095-7.334-7.149a.758.758,0,0,1,.42-1.292l10.136-1.473,4.533-9.185A.758.758,0,0,1,223.838-237.374Z" transform="translate(-196.64 268.46)" stroke="#fff" stroke-miterlimit="10" stroke-width="3" fill="url(#linear-gradient)"/>
    </g>
  </g>
</svg>
