<?xml version="1.0" encoding="utf-8"?>
<!-- Generator: Adobe Illustrator 24.0.0, SVG Export Plug-In . SVG Version: 6.00 Build 0)  -->
<svg version="1.1" id="Layer_1" xmlns="http://www.w3.org/2000/svg" xmlns:xlink="http://www.w3.org/1999/xlink" x="0px" y="0px"
	 width="300px" height="300px" viewBox="0 0 300 300" style="enable-background:new 0 0 300 300;" xml:space="preserve">
<style type="text/css">
	.st0{fill:#BBBDBF;}
	.st1{fill:#603917;}
	.st2{fill:#C1976B;}
	.st3{fill:#F7C892;}
	.st4{fill:#0E2A4B;}
	.st5{fill:#E0AA73;}
	.st6{fill:#61637D;}
	.st7{fill:#F9C781;}
	.st8{fill:#F7BB84;}
	.st9{fill:#214291;}
	.st10{fill:#A2CDEA;}
	.st11{fill:#DFE9F0;}
	.st12{fill:#3A2416;}
	.st13{fill:#3ABCA9;}
	.st14{fill:#FFFFFF;}
</style>
<g>
	<g>
		<ellipse class="st0" cx="45.5" cy="244.3" rx="23.8" ry="9.5"/>
		<g>
			<g>
				<path class="st1" d="M45.3,235.6c0,0-1,1.4,0,2.2s15.2,6.3,17.3,4.3s-9.9-9.7-11.9-9.5C48.7,232.8,45.3,235.6,45.3,235.6z"/>
				<path class="st1" d="M29.3,238c0,0-1.7,5.2-1.5,8.7s1.2,5.1,3.4,5.4s4.5-2.2,4.5-5.8s-0.7-9.9-0.7-9.9L29.3,238z"/>
				<path class="st2" d="M52.5,162.7c0,0-13,3.2-29.9,1.8l6.1,73.1c0,0,5,3.6,6.2,0c0.6-4.4,4.7-47.7,4.4-50.1
					c3,3.9,5.6,40.9,5.9,48c0,0,4.6,0.8,5.7-3.7C52,227.3,54.5,180.1,52.5,162.7z"/>
				<path class="st1" d="M52.5,162.7l0.3,3.6c0,0-10.5,1.8-27.6,1.5c-1-2.7-1-3.4-1-3.4L52.5,162.7z"/>
				<rect x="48.6" y="163.1" class="st2" width="1.4" height="4.3"/>
				<rect x="28.5" y="164.2" class="st2" width="1.4" height="4.3"/>
				<rect x="37.6" y="163.9" class="st2" width="4.1" height="4.3"/>
				<path class="st3" d="M18.7,175.1c0,0,0.7,4.7,0.9,6.1c0.3,1.4,2.5,2.3,3.4,2.2s2.7-0.5,2.9-3.1c0.2-2.6-0.6-7.1-0.6-7.1
					S21.4,172.1,18.7,175.1z"/>
				<path class="st3" d="M79,125.5c0,0,4.2-3.6,5.4-4.6c1.3-1,3.9-0.1,4.7,0.7c0.8,0.8,2,2.5,0.2,4.9c-1.8,2.4-5.9,5.8-5.9,5.8
					S79,130.1,79,125.5z"/>
				<g>
					<path class="st4" d="M33.5,108c0,0-12.5,2.1-15.1,6.7S15,139.4,15,139.4l9,2l-1.3,23.1c0,0,5.9,0.5,15.8,0.1
						c10.5-0.4,14.1-1.9,14.1-1.9s1.6-22.2,0.2-30.1c3.7-1.4,6.3-3.3,6.3-3.3s-2.6-18.3-4-19.7S44,104.8,33.5,108z"/>
					<path class="st3" d="M33.7,104.3c0,0-0.4,4-0.3,5.3s2.2,4.6,6.6,3.8c4.4-0.8,3.3-1.1,3.2-2.9c-0.2-1.8-0.5-5.3-0.5-5.3
						L33.7,104.3z"/>
					<path class="st5" d="M42.5,106.1c0,0-8.1,0.1-8.8-0.9c-0.2,2.3-0.2,2.3-0.2,2.3S39.6,109,42.5,106.1z"/>
					<polygon class="st6" points="40.1,113.4 35.9,118.1 31.3,108.5 33.1,105.9 					"/>
					<polygon class="st6" points="40.1,113.4 43.8,116.9 44.5,106.9 42.7,105.2 					"/>
					<path class="st4" d="M26.4,122.4c0,0-4.8-10.5-7.4-8.6c-2.6,2-3.2,4.3-3.2,4.3c-0.1,2.5-1.3,27.4-1.7,29.6
						c-0.5,2.2-0.4,3.1,0,5.1c0.4,1.9,3,17.6,3.7,23.1c2.7-2.5,7.6-2.6,7.6-2.6v-1.7l-2.3-15.1c-0.6-3-0.7-7.1-0.5-8.9
						c0.3-1.7,1-7,2.2-6.5L26.4,122.4z"/>
					<path class="st4" d="M52.6,132.6c0,0,13.4,12.8,14.5,13.2s2.3-0.6,3.3-1.5s13.6-11,13.6-11l-4.7-9l-11.4,8.2
						c0,0-10.7-21.3-13-23"/>
				</g>
				<g>
					<g>
						<path class="st3" d="M38.7,106.9L38.7,106.9c-5.2,0-9.4-4.2-9.6-9.4L28.8,86h19.6v11.2C48.4,102.6,44,106.9,38.7,106.9z"/>
						<path class="st7" d="M31.3,98.3L31.3,98.3c-1.6,0-2.8-1.3-2.9-2.8l-0.1-3.4h5.9v3.4C34.3,97,32.9,98.3,31.3,98.3z"/>
					</g>
					<path class="st1" d="M26.9,83.4c1.3-1.8,6.3-5.9,9.7-5.8c3.4,0.1,7.5,0.9,9.1,3.1c0.4,0.5,1.2,1,2.1,1.5
						c2.4,1.1,3.1,4.1,1.4,6.1c-1.5,1.8-3.7,3.3-6.4,3.3c-5.6-0.1-8.9-2.7-8.9-2.7s-1.2,0.8-0.9,1.7c0.3,0.9-0.3,3.5-0.3,4.2
						s-1.1,0-1.1,0s-1.6-2.5-3.1-0.9C26.5,93.4,24.6,86.6,26.9,83.4z"/>
				</g>
			</g>
		</g>
	</g>
	<g>
		<path class="st8" d="M236.8,119.4c0,0-1.9-3.5-2.8-5.8c-0.9-2.3-4-1.8-5-1.1c-1.1,0.7-2.1,3.1-0.9,5.6s2.1,4.2,3.1,5.7
			L236.8,119.4z"/>
		<path class="st8" d="M234.5,115.1c0,0,0.4-2.8,0.6-3.3c0.2-0.5-0.4-0.8-0.7-0.9c-0.3,0-0.8,0.2-0.9,0.8c-0.1,0.6-0.5,2.9-0.5,3.3
			L234.5,115.1z"/>
		<ellipse class="st0" cx="263.9" cy="242" rx="20.9" ry="11.8"/>
		<path class="st8" d="M256.1,234.2l0.7,7.8c0,0-7.4,1.8-7.2,3.9c4.2,1.4,14.5,0.2,15.3-1.1c0.4-2.7-0.8-4.3-0.9-5.5s-0.7-6-0.7-6
			L256.1,234.2z"/>
		<path class="st9" d="M246.3,248.2c0,0,7.2,1.1,12.1,1s6.7-0.4,7.2-1.4c0.6-1.1-0.7-4.3-0.7-4.3s-1.5,1.9-2.7,2.1
			c-1.2,0.1-11.7,0.3-11.6-1.1C246.5,245.7,246.3,248.2,246.3,248.2z"/>
		<path class="st8" d="M282,229.4c0,0-0.4,7.4-0.4,8.4s0.3,4.1,0.3,4.1s-1.4,2.6-3.2,2.5s-6.5-3-7.6-4.7c-1.1-1.6-0.2-3.4-0.2-3.4
			l4.2,0.5l0.7-7.4L282,229.4z"/>
		<path class="st10" d="M252.6,156.4c0,0-2.5,32.2-2.5,38.6s4,37.3,4.3,39.1c5.4,2.1,10.4-0.8,10.4-0.8s-0.7-11.6-1.7-16.5
			s-3.2-15.5-2-19.6s4.7-22.1,5.2-23.3s3.5-2.7,4.2-0.8s0.7,26.5,0.7,31s1.5,23.8,1.9,26.1c4.9,1.2,9.9-0.5,11-1.5
			c0.3-3.9-1.7-23.1-1.2-26.3s-0.7-31.5,0-34.1c0.7-2.5,1.1-7.8,0.1-12.9S252.6,156.4,252.6,156.4z"/>
		<path class="st11" d="M271,109.1c-3.7,0.5-6.9,0.9-9.8,2.4s-5.4,4.9-7.1,8.8s-6.6,13-6.6,13s-9.2-11.6-10.5-14.1
			c-1.3-2.4-4.7-1.5-5.8-0.6s-1.9,3.8-0.2,6.4s12.2,16.5,13.5,18s5.1,4.1,7.5,0.8c2.4-3.4,4.1-6,4.1-6s-3.4,16.9-3.6,18.6
			c-0.2,1.7,8.5,3.6,12,3.4c3.6-0.2,14.8-2.3,18.4-4.3c-0.2-5.3-3.8-13.7-3.4-15.8s3.9-17.8,4.1-22.2S283.2,107.4,271,109.1z"/>
		<path class="st8" d="M272.2,111.7h-1.5c-2.4,0-4.3-1.9-4.3-4.3v-2.5c0-2.4,1.9-4.3,4.3-4.3h1.5c2.4,0,4.3,1.9,4.3,4.3v2.5
			C276.5,109.8,274.6,111.7,272.2,111.7z"/>
		<path class="st8" d="M265.5,102.9h-2c-2.9,0-5.2-2.3-5.2-5.2V87.4c0-2.9,2.3-5.2,5.2-5.2h2c2.9,0,5.2,2.3,5.2,5.2v10.3
			C270.6,100.5,268.3,102.9,265.5,102.9z"/>
		<path class="st12" d="M269.2,77.5c6.9,0,13.8,6.6,16,12.9s0.9,11-1.6,13.2s-8.2,4.4-14.5,4.4s-7.9-4.4-7.9-7.2
			c0-2.8-0.3-8.8-1.3-10.7c-0.9-1.9-3-1-3.2-3.9C256.8,83.3,261.7,77.5,269.2,77.5z"/>
		<path class="st9" d="M270.9,236.4c0,0-2.6-1.1-3.5-0.5c-0.9,0.7-0.9,2.3-0.2,3.4c0.7,1.1,8.4,7.8,10.1,8.3c2.4,0.7,4.1-1,4.7-2
			s-0.1-3.6-0.1-3.6s-1.5,1.2-2.8,1.5c-1.3,0.2-6.4-3.2-7.3-4.3C270.9,237.9,270.9,236.4,270.9,236.4z"/>
	</g>
	<path id="Fill_1_Copy" class="st13" d="M229.7,174.5c0,0,0.1-0.1,0-0.1c0.1-0.1,0.1-0.1,0.1-0.2c0,0,0-0.1,0-0.2c0,0,0-0.1,0-0.2
		c0-0.1,0-0.2,0-0.3v-0.2c0-0.1,0-0.2,0-0.3s0-0.1,0-0.2v-0.1c0-0.1-0.1-0.1-0.1-0.2c0,0,0,0,0-0.1c-0.1-0.1-0.1-0.2-0.2-0.3
		l-8.7-8.7c-0.7-0.8-2-0.8-2.7,0l0,0c-0.8,0.7-0.8,2,0,2.7l0,0l5.4,5.4H203c-1.1,0-1.9,0.9-1.9,1.9s0.9,1.9,1.9,1.9h20.3l-5.4,5.4
		c-0.8,0.7-0.8,2,0,2.7c0.7,0.8,2,0.8,2.7,0l0,0l8.8-8.8L229.7,174.5z"/>
	<path id="Fill_1_Copy_1_" class="st13" d="M73.7,172.4c0,0-0.1,0.1,0,0.1c-0.1,0.1-0.1,0.1-0.1,0.2c0,0,0,0.1,0,0.2
		c0,0,0,0.1,0,0.2c0,0.1,0,0.2,0,0.3v0.2c0,0.1,0,0.2,0,0.3s0,0.1,0,0.2s0,0.1,0,0.1c0,0.1,0.1,0.1,0.1,0.2c0,0,0,0,0,0.1
		c0.1,0.1,0.1,0.2,0.2,0.3l8.7,8.7c0.7,0.8,2,0.8,2.7,0l0,0c0.8-0.7,0.8-2,0-2.7l0,0l-5.4-5.4h20.3c1.1,0,1.9-0.9,1.9-1.9
		s-0.9-1.9-1.9-1.9H80l5.4-5.4c0.8-0.7,0.8-2,0-2.7c-0.7-0.8-2-0.8-2.7,0l0,0l-8.8,8.8L73.7,172.4z"/>
	<g>
		<circle class="st13" cx="186.6" cy="173.5" r="1.9"/>
		<circle class="st13" cx="169.1" cy="173.5" r="1.9"/>
		<circle class="st13" cx="151.5" cy="173.5" r="1.9"/>
		<circle class="st13" cx="134" cy="173.5" r="1.9"/>
		<circle class="st13" cx="116.4" cy="173.5" r="1.9"/>
	</g>
</g>
<g>
	<path class="st14" d="M48.4,94.9c0,0-2.4,1.8-3.3,1.9c-0.9,0.2-8.9-0.6-8.9-0.6v9.1c0,0,5.5,1.8,7.5,1.7c0.9,0,3.3-1.8,3.6-2.7
		C48.4,100.6,48.4,94.9,48.4,94.9z"/>
	<polygon class="st14" points="36.2,96.3 31.6,94.3 31.8,95.3 35.8,97.2 35.7,104.1 30,99.3 30.2,100.2 36.2,105.4 	"/>
</g>
</svg>
